%TF.GenerationSoftware,KiCad,Pcbnew,6.0.11-2627ca5db0~126~ubuntu20.04.1*%
%TF.CreationDate,2023-02-28T16:59:55+07:00*%
%TF.ProjectId,Bluepill-USB-C,426c7565-7069-46c6-9c2d-5553422d432e,rev?*%
%TF.SameCoordinates,Original*%
%TF.FileFunction,Legend,Top*%
%TF.FilePolarity,Positive*%
%FSLAX46Y46*%
G04 Gerber Fmt 4.6, Leading zero omitted, Abs format (unit mm)*
G04 Created by KiCad (PCBNEW 6.0.11-2627ca5db0~126~ubuntu20.04.1) date 2023-02-28 16:59:55*
%MOMM*%
%LPD*%
G01*
G04 APERTURE LIST*
%ADD10C,0.300000*%
%ADD11C,0.150000*%
%ADD12C,0.120000*%
G04 APERTURE END LIST*
D10*
X150190200Y-90757285D02*
X150285438Y-90852523D01*
X150190200Y-90947761D01*
X150094961Y-90852523D01*
X150190200Y-90757285D01*
X150190200Y-90947761D01*
X152019000Y-110061285D02*
X152114238Y-110156523D01*
X152019000Y-110251761D01*
X151923761Y-110156523D01*
X152019000Y-110061285D01*
X152019000Y-110251761D01*
D11*
X157566666Y-102110000D02*
X157566666Y-101776666D01*
X157766666Y-102176666D02*
X157066666Y-101943333D01*
X157766666Y-101710000D01*
X157066666Y-101176666D02*
X157066666Y-101310000D01*
X157100000Y-101376666D01*
X157133333Y-101410000D01*
X157233333Y-101476666D01*
X157366666Y-101510000D01*
X157633333Y-101510000D01*
X157700000Y-101476666D01*
X157733333Y-101443333D01*
X157766666Y-101376666D01*
X157766666Y-101243333D01*
X157733333Y-101176666D01*
X157700000Y-101143333D01*
X157633333Y-101110000D01*
X157466666Y-101110000D01*
X157400000Y-101143333D01*
X157366666Y-101176666D01*
X157333333Y-101243333D01*
X157333333Y-101376666D01*
X157366666Y-101443333D01*
X157400000Y-101476666D01*
X157466666Y-101510000D01*
X142900000Y-106406666D02*
X142866666Y-106506666D01*
X142833333Y-106540000D01*
X142766666Y-106573333D01*
X142666666Y-106573333D01*
X142600000Y-106540000D01*
X142566666Y-106506666D01*
X142533333Y-106440000D01*
X142533333Y-106173333D01*
X143233333Y-106173333D01*
X143233333Y-106406666D01*
X143200000Y-106473333D01*
X143166666Y-106506666D01*
X143100000Y-106540000D01*
X143033333Y-106540000D01*
X142966666Y-106506666D01*
X142933333Y-106473333D01*
X142900000Y-106406666D01*
X142900000Y-106173333D01*
X143000000Y-107173333D02*
X142533333Y-107173333D01*
X143266666Y-107006666D02*
X142766666Y-106840000D01*
X142766666Y-107273333D01*
X142900000Y-116566666D02*
X142866666Y-116666666D01*
X142833333Y-116700000D01*
X142766666Y-116733333D01*
X142666666Y-116733333D01*
X142600000Y-116700000D01*
X142566666Y-116666666D01*
X142533333Y-116600000D01*
X142533333Y-116333333D01*
X143233333Y-116333333D01*
X143233333Y-116566666D01*
X143200000Y-116633333D01*
X143166666Y-116666666D01*
X143100000Y-116700000D01*
X143033333Y-116700000D01*
X142966666Y-116666666D01*
X142933333Y-116633333D01*
X142900000Y-116566666D01*
X142900000Y-116333333D01*
X142933333Y-117133333D02*
X142966666Y-117066666D01*
X143000000Y-117033333D01*
X143066666Y-117000000D01*
X143100000Y-117000000D01*
X143166666Y-117033333D01*
X143200000Y-117066666D01*
X143233333Y-117133333D01*
X143233333Y-117266666D01*
X143200000Y-117333333D01*
X143166666Y-117366666D01*
X143100000Y-117400000D01*
X143066666Y-117400000D01*
X143000000Y-117366666D01*
X142966666Y-117333333D01*
X142933333Y-117266666D01*
X142933333Y-117133333D01*
X142900000Y-117066666D01*
X142866666Y-117033333D01*
X142800000Y-117000000D01*
X142666666Y-117000000D01*
X142600000Y-117033333D01*
X142566666Y-117066666D01*
X142533333Y-117133333D01*
X142533333Y-117266666D01*
X142566666Y-117333333D01*
X142600000Y-117366666D01*
X142666666Y-117400000D01*
X142800000Y-117400000D01*
X142866666Y-117366666D01*
X142900000Y-117333333D01*
X142933333Y-117266666D01*
X151113333Y-124333333D02*
X151813333Y-124333333D01*
X151813333Y-124500000D01*
X151780000Y-124600000D01*
X151713333Y-124666666D01*
X151646666Y-124700000D01*
X151513333Y-124733333D01*
X151413333Y-124733333D01*
X151280000Y-124700000D01*
X151213333Y-124666666D01*
X151146666Y-124600000D01*
X151113333Y-124500000D01*
X151113333Y-124333333D01*
X151113333Y-125033333D02*
X151813333Y-125033333D01*
X151813333Y-125500000D02*
X151813333Y-125633333D01*
X151780000Y-125700000D01*
X151713333Y-125766666D01*
X151580000Y-125800000D01*
X151346666Y-125800000D01*
X151213333Y-125766666D01*
X151146666Y-125700000D01*
X151113333Y-125633333D01*
X151113333Y-125500000D01*
X151146666Y-125433333D01*
X151213333Y-125366666D01*
X151346666Y-125333333D01*
X151580000Y-125333333D01*
X151713333Y-125366666D01*
X151780000Y-125433333D01*
X151813333Y-125500000D01*
X157066666Y-127593333D02*
X157766666Y-127360000D01*
X157066666Y-127126666D01*
X157400000Y-126660000D02*
X157433333Y-126560000D01*
X157466666Y-126526666D01*
X157533333Y-126493333D01*
X157633333Y-126493333D01*
X157700000Y-126526666D01*
X157733333Y-126560000D01*
X157766666Y-126626666D01*
X157766666Y-126893333D01*
X157066666Y-126893333D01*
X157066666Y-126660000D01*
X157100000Y-126593333D01*
X157133333Y-126560000D01*
X157200000Y-126526666D01*
X157266666Y-126526666D01*
X157333333Y-126560000D01*
X157366666Y-126593333D01*
X157400000Y-126660000D01*
X157400000Y-126893333D01*
X157566666Y-104650000D02*
X157566666Y-104316666D01*
X157766666Y-104716666D02*
X157066666Y-104483333D01*
X157766666Y-104250000D01*
X157066666Y-103683333D02*
X157066666Y-104016666D01*
X157400000Y-104050000D01*
X157366666Y-104016666D01*
X157333333Y-103950000D01*
X157333333Y-103783333D01*
X157366666Y-103716666D01*
X157400000Y-103683333D01*
X157466666Y-103650000D01*
X157633333Y-103650000D01*
X157700000Y-103683333D01*
X157733333Y-103716666D01*
X157766666Y-103783333D01*
X157766666Y-103950000D01*
X157733333Y-104016666D01*
X157700000Y-104050000D01*
X143200000Y-123936666D02*
X143233333Y-123870000D01*
X143233333Y-123770000D01*
X143200000Y-123670000D01*
X143133333Y-123603333D01*
X143066666Y-123570000D01*
X142933333Y-123536666D01*
X142833333Y-123536666D01*
X142700000Y-123570000D01*
X142633333Y-123603333D01*
X142566666Y-123670000D01*
X142533333Y-123770000D01*
X142533333Y-123836666D01*
X142566666Y-123936666D01*
X142600000Y-123970000D01*
X142833333Y-123970000D01*
X142833333Y-123836666D01*
X142533333Y-124270000D02*
X143233333Y-124270000D01*
X142533333Y-124670000D01*
X143233333Y-124670000D01*
X142533333Y-125003333D02*
X143233333Y-125003333D01*
X143233333Y-125170000D01*
X143200000Y-125270000D01*
X143133333Y-125336666D01*
X143066666Y-125370000D01*
X142933333Y-125403333D01*
X142833333Y-125403333D01*
X142700000Y-125370000D01*
X142633333Y-125336666D01*
X142566666Y-125270000D01*
X142533333Y-125170000D01*
X142533333Y-125003333D01*
X142900000Y-119106666D02*
X142866666Y-119206666D01*
X142833333Y-119240000D01*
X142766666Y-119273333D01*
X142666666Y-119273333D01*
X142600000Y-119240000D01*
X142566666Y-119206666D01*
X142533333Y-119140000D01*
X142533333Y-118873333D01*
X143233333Y-118873333D01*
X143233333Y-119106666D01*
X143200000Y-119173333D01*
X143166666Y-119206666D01*
X143100000Y-119240000D01*
X143033333Y-119240000D01*
X142966666Y-119206666D01*
X142933333Y-119173333D01*
X142900000Y-119106666D01*
X142900000Y-118873333D01*
X142533333Y-119606666D02*
X142533333Y-119740000D01*
X142566666Y-119806666D01*
X142600000Y-119840000D01*
X142700000Y-119906666D01*
X142833333Y-119940000D01*
X143100000Y-119940000D01*
X143166666Y-119906666D01*
X143200000Y-119873333D01*
X143233333Y-119806666D01*
X143233333Y-119673333D01*
X143200000Y-119606666D01*
X143166666Y-119573333D01*
X143100000Y-119540000D01*
X142933333Y-119540000D01*
X142866666Y-119573333D01*
X142833333Y-119606666D01*
X142800000Y-119673333D01*
X142800000Y-119806666D01*
X142833333Y-119873333D01*
X142866666Y-119906666D01*
X142933333Y-119940000D01*
X142900000Y-111486666D02*
X142866666Y-111586666D01*
X142833333Y-111620000D01*
X142766666Y-111653333D01*
X142666666Y-111653333D01*
X142600000Y-111620000D01*
X142566666Y-111586666D01*
X142533333Y-111520000D01*
X142533333Y-111253333D01*
X143233333Y-111253333D01*
X143233333Y-111486666D01*
X143200000Y-111553333D01*
X143166666Y-111586666D01*
X143100000Y-111620000D01*
X143033333Y-111620000D01*
X142966666Y-111586666D01*
X142933333Y-111553333D01*
X142900000Y-111486666D01*
X142900000Y-111253333D01*
X143233333Y-112253333D02*
X143233333Y-112120000D01*
X143200000Y-112053333D01*
X143166666Y-112020000D01*
X143066666Y-111953333D01*
X142933333Y-111920000D01*
X142666666Y-111920000D01*
X142600000Y-111953333D01*
X142566666Y-111986666D01*
X142533333Y-112053333D01*
X142533333Y-112186666D01*
X142566666Y-112253333D01*
X142600000Y-112286666D01*
X142666666Y-112320000D01*
X142833333Y-112320000D01*
X142900000Y-112286666D01*
X142933333Y-112253333D01*
X142966666Y-112186666D01*
X142966666Y-112053333D01*
X142933333Y-111986666D01*
X142900000Y-111953333D01*
X142833333Y-111920000D01*
X142733333Y-88410000D02*
X142733333Y-88743333D01*
X142533333Y-88343333D02*
X143233333Y-88576666D01*
X142533333Y-88810000D01*
X142933333Y-89143333D02*
X142966666Y-89076666D01*
X143000000Y-89043333D01*
X143066666Y-89010000D01*
X143100000Y-89010000D01*
X143166666Y-89043333D01*
X143200000Y-89076666D01*
X143233333Y-89143333D01*
X143233333Y-89276666D01*
X143200000Y-89343333D01*
X143166666Y-89376666D01*
X143100000Y-89410000D01*
X143066666Y-89410000D01*
X143000000Y-89376666D01*
X142966666Y-89343333D01*
X142933333Y-89276666D01*
X142933333Y-89143333D01*
X142900000Y-89076666D01*
X142866666Y-89043333D01*
X142800000Y-89010000D01*
X142666666Y-89010000D01*
X142600000Y-89043333D01*
X142566666Y-89076666D01*
X142533333Y-89143333D01*
X142533333Y-89276666D01*
X142566666Y-89343333D01*
X142600000Y-89376666D01*
X142666666Y-89410000D01*
X142800000Y-89410000D01*
X142866666Y-89376666D01*
X142900000Y-89343333D01*
X142933333Y-89276666D01*
X142900000Y-103866666D02*
X142866666Y-103966666D01*
X142833333Y-104000000D01*
X142766666Y-104033333D01*
X142666666Y-104033333D01*
X142600000Y-104000000D01*
X142566666Y-103966666D01*
X142533333Y-103900000D01*
X142533333Y-103633333D01*
X143233333Y-103633333D01*
X143233333Y-103866666D01*
X143200000Y-103933333D01*
X143166666Y-103966666D01*
X143100000Y-104000000D01*
X143033333Y-104000000D01*
X142966666Y-103966666D01*
X142933333Y-103933333D01*
X142900000Y-103866666D01*
X142900000Y-103633333D01*
X143233333Y-104266666D02*
X143233333Y-104700000D01*
X142966666Y-104466666D01*
X142966666Y-104566666D01*
X142933333Y-104633333D01*
X142900000Y-104666666D01*
X142833333Y-104700000D01*
X142666666Y-104700000D01*
X142600000Y-104666666D01*
X142566666Y-104633333D01*
X142533333Y-104566666D01*
X142533333Y-104366666D01*
X142566666Y-104300000D01*
X142600000Y-104266666D01*
X157100000Y-81823333D02*
X157066666Y-81890000D01*
X157066666Y-81990000D01*
X157100000Y-82090000D01*
X157166666Y-82156666D01*
X157233333Y-82190000D01*
X157366666Y-82223333D01*
X157466666Y-82223333D01*
X157600000Y-82190000D01*
X157666666Y-82156666D01*
X157733333Y-82090000D01*
X157766666Y-81990000D01*
X157766666Y-81923333D01*
X157733333Y-81823333D01*
X157700000Y-81790000D01*
X157466666Y-81790000D01*
X157466666Y-81923333D01*
X157766666Y-81490000D02*
X157066666Y-81490000D01*
X157766666Y-81090000D01*
X157066666Y-81090000D01*
X157766666Y-80756666D02*
X157066666Y-80756666D01*
X157066666Y-80590000D01*
X157100000Y-80490000D01*
X157166666Y-80423333D01*
X157233333Y-80390000D01*
X157366666Y-80356666D01*
X157466666Y-80356666D01*
X157600000Y-80390000D01*
X157666666Y-80423333D01*
X157733333Y-80490000D01*
X157766666Y-80590000D01*
X157766666Y-80756666D01*
X146700000Y-124516666D02*
X146733333Y-124450000D01*
X146733333Y-124350000D01*
X146700000Y-124250000D01*
X146633333Y-124183333D01*
X146566666Y-124150000D01*
X146433333Y-124116666D01*
X146333333Y-124116666D01*
X146200000Y-124150000D01*
X146133333Y-124183333D01*
X146066666Y-124250000D01*
X146033333Y-124350000D01*
X146033333Y-124416666D01*
X146066666Y-124516666D01*
X146100000Y-124550000D01*
X146333333Y-124550000D01*
X146333333Y-124416666D01*
X146033333Y-124850000D02*
X146733333Y-124850000D01*
X146033333Y-125250000D01*
X146733333Y-125250000D01*
X146033333Y-125583333D02*
X146733333Y-125583333D01*
X146733333Y-125750000D01*
X146700000Y-125850000D01*
X146633333Y-125916666D01*
X146566666Y-125950000D01*
X146433333Y-125983333D01*
X146333333Y-125983333D01*
X146200000Y-125950000D01*
X146133333Y-125916666D01*
X146066666Y-125850000D01*
X146033333Y-125750000D01*
X146033333Y-125583333D01*
X157566666Y-114810000D02*
X157566666Y-114476666D01*
X157766666Y-114876666D02*
X157066666Y-114643333D01*
X157766666Y-114410000D01*
X157766666Y-113810000D02*
X157766666Y-114210000D01*
X157766666Y-114010000D02*
X157066666Y-114010000D01*
X157166666Y-114076666D01*
X157233333Y-114143333D01*
X157266666Y-114210000D01*
X142900000Y-83213333D02*
X142866666Y-83313333D01*
X142833333Y-83346666D01*
X142766666Y-83380000D01*
X142666666Y-83380000D01*
X142600000Y-83346666D01*
X142566666Y-83313333D01*
X142533333Y-83246666D01*
X142533333Y-82980000D01*
X143233333Y-82980000D01*
X143233333Y-83213333D01*
X143200000Y-83280000D01*
X143166666Y-83313333D01*
X143100000Y-83346666D01*
X143033333Y-83346666D01*
X142966666Y-83313333D01*
X142933333Y-83280000D01*
X142900000Y-83213333D01*
X142900000Y-82980000D01*
X142533333Y-84046666D02*
X142533333Y-83646666D01*
X142533333Y-83846666D02*
X143233333Y-83846666D01*
X143133333Y-83780000D01*
X143066666Y-83713333D01*
X143033333Y-83646666D01*
X143000000Y-84646666D02*
X142533333Y-84646666D01*
X143266666Y-84480000D02*
X142766666Y-84313333D01*
X142766666Y-84746666D01*
X157700000Y-119840000D02*
X157733333Y-119873333D01*
X157766666Y-119973333D01*
X157766666Y-120040000D01*
X157733333Y-120140000D01*
X157666666Y-120206666D01*
X157600000Y-120240000D01*
X157466666Y-120273333D01*
X157366666Y-120273333D01*
X157233333Y-120240000D01*
X157166666Y-120206666D01*
X157100000Y-120140000D01*
X157066666Y-120040000D01*
X157066666Y-119973333D01*
X157100000Y-119873333D01*
X157133333Y-119840000D01*
X157766666Y-119173333D02*
X157766666Y-119573333D01*
X157766666Y-119373333D02*
X157066666Y-119373333D01*
X157166666Y-119440000D01*
X157233333Y-119506666D01*
X157266666Y-119573333D01*
X157066666Y-118940000D02*
X157066666Y-118506666D01*
X157333333Y-118740000D01*
X157333333Y-118640000D01*
X157366666Y-118573333D01*
X157400000Y-118540000D01*
X157466666Y-118506666D01*
X157633333Y-118506666D01*
X157700000Y-118540000D01*
X157733333Y-118573333D01*
X157766666Y-118640000D01*
X157766666Y-118840000D01*
X157733333Y-118906666D01*
X157700000Y-118940000D01*
X157066666Y-78883333D02*
X157066666Y-79216666D01*
X157400000Y-79250000D01*
X157366666Y-79216666D01*
X157333333Y-79150000D01*
X157333333Y-78983333D01*
X157366666Y-78916666D01*
X157400000Y-78883333D01*
X157466666Y-78850000D01*
X157633333Y-78850000D01*
X157700000Y-78883333D01*
X157733333Y-78916666D01*
X157766666Y-78983333D01*
X157766666Y-79150000D01*
X157733333Y-79216666D01*
X157700000Y-79250000D01*
X157066666Y-78650000D02*
X157766666Y-78416666D01*
X157066666Y-78183333D01*
X148640000Y-124633333D02*
X148606666Y-124600000D01*
X148573333Y-124500000D01*
X148573333Y-124433333D01*
X148606666Y-124333333D01*
X148673333Y-124266666D01*
X148740000Y-124233333D01*
X148873333Y-124200000D01*
X148973333Y-124200000D01*
X149106666Y-124233333D01*
X149173333Y-124266666D01*
X149240000Y-124333333D01*
X149273333Y-124433333D01*
X149273333Y-124500000D01*
X149240000Y-124600000D01*
X149206666Y-124633333D01*
X148573333Y-125266666D02*
X148573333Y-124933333D01*
X149273333Y-124933333D01*
X148573333Y-125500000D02*
X149273333Y-125500000D01*
X148573333Y-125900000D02*
X148973333Y-125600000D01*
X149273333Y-125900000D02*
X148873333Y-125500000D01*
X156869000Y-87320000D02*
X156869000Y-86620000D01*
X157766666Y-86753333D02*
X157433333Y-86986666D01*
X157766666Y-87153333D02*
X157066666Y-87153333D01*
X157066666Y-86886666D01*
X157100000Y-86820000D01*
X157133333Y-86786666D01*
X157200000Y-86753333D01*
X157300000Y-86753333D01*
X157366666Y-86786666D01*
X157400000Y-86820000D01*
X157433333Y-86886666D01*
X157433333Y-87153333D01*
X156869000Y-86620000D02*
X156869000Y-85953333D01*
X157733333Y-86486666D02*
X157766666Y-86386666D01*
X157766666Y-86220000D01*
X157733333Y-86153333D01*
X157700000Y-86120000D01*
X157633333Y-86086666D01*
X157566666Y-86086666D01*
X157500000Y-86120000D01*
X157466666Y-86153333D01*
X157433333Y-86220000D01*
X157400000Y-86353333D01*
X157366666Y-86420000D01*
X157333333Y-86453333D01*
X157266666Y-86486666D01*
X157200000Y-86486666D01*
X157133333Y-86453333D01*
X157100000Y-86420000D01*
X157066666Y-86353333D01*
X157066666Y-86186666D01*
X157100000Y-86086666D01*
X156869000Y-85953333D02*
X156869000Y-85420000D01*
X157066666Y-85886666D02*
X157066666Y-85486666D01*
X157766666Y-85686666D02*
X157066666Y-85686666D01*
X142900000Y-114026666D02*
X142866666Y-114126666D01*
X142833333Y-114160000D01*
X142766666Y-114193333D01*
X142666666Y-114193333D01*
X142600000Y-114160000D01*
X142566666Y-114126666D01*
X142533333Y-114060000D01*
X142533333Y-113793333D01*
X143233333Y-113793333D01*
X143233333Y-114026666D01*
X143200000Y-114093333D01*
X143166666Y-114126666D01*
X143100000Y-114160000D01*
X143033333Y-114160000D01*
X142966666Y-114126666D01*
X142933333Y-114093333D01*
X142900000Y-114026666D01*
X142900000Y-113793333D01*
X143233333Y-114426666D02*
X143233333Y-114893333D01*
X142533333Y-114593333D01*
X157400000Y-96813333D02*
X157433333Y-96713333D01*
X157466666Y-96680000D01*
X157533333Y-96646666D01*
X157633333Y-96646666D01*
X157700000Y-96680000D01*
X157733333Y-96713333D01*
X157766666Y-96780000D01*
X157766666Y-97046666D01*
X157066666Y-97046666D01*
X157066666Y-96813333D01*
X157100000Y-96746666D01*
X157133333Y-96713333D01*
X157200000Y-96680000D01*
X157266666Y-96680000D01*
X157333333Y-96713333D01*
X157366666Y-96746666D01*
X157400000Y-96813333D01*
X157400000Y-97046666D01*
X157066666Y-96213333D02*
X157066666Y-96146666D01*
X157100000Y-96080000D01*
X157133333Y-96046666D01*
X157200000Y-96013333D01*
X157333333Y-95980000D01*
X157500000Y-95980000D01*
X157633333Y-96013333D01*
X157700000Y-96046666D01*
X157733333Y-96080000D01*
X157766666Y-96146666D01*
X157766666Y-96213333D01*
X157733333Y-96280000D01*
X157700000Y-96313333D01*
X157633333Y-96346666D01*
X157500000Y-96380000D01*
X157333333Y-96380000D01*
X157200000Y-96346666D01*
X157133333Y-96313333D01*
X157100000Y-96280000D01*
X157066666Y-96213333D01*
X142900000Y-80673333D02*
X142866666Y-80773333D01*
X142833333Y-80806666D01*
X142766666Y-80840000D01*
X142666666Y-80840000D01*
X142600000Y-80806666D01*
X142566666Y-80773333D01*
X142533333Y-80706666D01*
X142533333Y-80440000D01*
X143233333Y-80440000D01*
X143233333Y-80673333D01*
X143200000Y-80740000D01*
X143166666Y-80773333D01*
X143100000Y-80806666D01*
X143033333Y-80806666D01*
X142966666Y-80773333D01*
X142933333Y-80740000D01*
X142900000Y-80673333D01*
X142900000Y-80440000D01*
X142533333Y-81506666D02*
X142533333Y-81106666D01*
X142533333Y-81306666D02*
X143233333Y-81306666D01*
X143133333Y-81240000D01*
X143066666Y-81173333D01*
X143033333Y-81106666D01*
X143233333Y-81740000D02*
X143233333Y-82173333D01*
X142966666Y-81940000D01*
X142966666Y-82040000D01*
X142933333Y-82106666D01*
X142900000Y-82140000D01*
X142833333Y-82173333D01*
X142666666Y-82173333D01*
X142600000Y-82140000D01*
X142566666Y-82106666D01*
X142533333Y-82040000D01*
X142533333Y-81840000D01*
X142566666Y-81773333D01*
X142600000Y-81740000D01*
X157400000Y-89526666D02*
X157433333Y-89426666D01*
X157466666Y-89393333D01*
X157533333Y-89360000D01*
X157633333Y-89360000D01*
X157700000Y-89393333D01*
X157733333Y-89426666D01*
X157766666Y-89493333D01*
X157766666Y-89760000D01*
X157066666Y-89760000D01*
X157066666Y-89526666D01*
X157100000Y-89460000D01*
X157133333Y-89426666D01*
X157200000Y-89393333D01*
X157266666Y-89393333D01*
X157333333Y-89426666D01*
X157366666Y-89460000D01*
X157400000Y-89526666D01*
X157400000Y-89760000D01*
X157766666Y-88693333D02*
X157766666Y-89093333D01*
X157766666Y-88893333D02*
X157066666Y-88893333D01*
X157166666Y-88960000D01*
X157233333Y-89026666D01*
X157266666Y-89093333D01*
X157766666Y-88026666D02*
X157766666Y-88426666D01*
X157766666Y-88226666D02*
X157066666Y-88226666D01*
X157166666Y-88293333D01*
X157233333Y-88360000D01*
X157266666Y-88426666D01*
X142900000Y-78133333D02*
X142866666Y-78233333D01*
X142833333Y-78266666D01*
X142766666Y-78300000D01*
X142666666Y-78300000D01*
X142600000Y-78266666D01*
X142566666Y-78233333D01*
X142533333Y-78166666D01*
X142533333Y-77900000D01*
X143233333Y-77900000D01*
X143233333Y-78133333D01*
X143200000Y-78200000D01*
X143166666Y-78233333D01*
X143100000Y-78266666D01*
X143033333Y-78266666D01*
X142966666Y-78233333D01*
X142933333Y-78200000D01*
X142900000Y-78133333D01*
X142900000Y-77900000D01*
X142533333Y-78966666D02*
X142533333Y-78566666D01*
X142533333Y-78766666D02*
X143233333Y-78766666D01*
X143133333Y-78700000D01*
X143066666Y-78633333D01*
X143033333Y-78566666D01*
X143166666Y-79233333D02*
X143200000Y-79266666D01*
X143233333Y-79333333D01*
X143233333Y-79500000D01*
X143200000Y-79566666D01*
X143166666Y-79600000D01*
X143100000Y-79633333D01*
X143033333Y-79633333D01*
X142933333Y-79600000D01*
X142533333Y-79200000D01*
X142533333Y-79633333D01*
X157700000Y-122380000D02*
X157733333Y-122413333D01*
X157766666Y-122513333D01*
X157766666Y-122580000D01*
X157733333Y-122680000D01*
X157666666Y-122746666D01*
X157600000Y-122780000D01*
X157466666Y-122813333D01*
X157366666Y-122813333D01*
X157233333Y-122780000D01*
X157166666Y-122746666D01*
X157100000Y-122680000D01*
X157066666Y-122580000D01*
X157066666Y-122513333D01*
X157100000Y-122413333D01*
X157133333Y-122380000D01*
X157766666Y-121713333D02*
X157766666Y-122113333D01*
X157766666Y-121913333D02*
X157066666Y-121913333D01*
X157166666Y-121980000D01*
X157233333Y-122046666D01*
X157266666Y-122113333D01*
X157300000Y-121113333D02*
X157766666Y-121113333D01*
X157033333Y-121280000D02*
X157533333Y-121446666D01*
X157533333Y-121013333D01*
X142733333Y-98236666D02*
X142733333Y-98570000D01*
X142533333Y-98170000D02*
X143233333Y-98403333D01*
X142533333Y-98636666D01*
X142533333Y-99236666D02*
X142533333Y-98836666D01*
X142533333Y-99036666D02*
X143233333Y-99036666D01*
X143133333Y-98970000D01*
X143066666Y-98903333D01*
X143033333Y-98836666D01*
X143166666Y-99503333D02*
X143200000Y-99536666D01*
X143233333Y-99603333D01*
X143233333Y-99770000D01*
X143200000Y-99836666D01*
X143166666Y-99870000D01*
X143100000Y-99903333D01*
X143033333Y-99903333D01*
X142933333Y-99870000D01*
X142533333Y-99470000D01*
X142533333Y-99903333D01*
X157400000Y-94273333D02*
X157433333Y-94173333D01*
X157466666Y-94140000D01*
X157533333Y-94106666D01*
X157633333Y-94106666D01*
X157700000Y-94140000D01*
X157733333Y-94173333D01*
X157766666Y-94240000D01*
X157766666Y-94506666D01*
X157066666Y-94506666D01*
X157066666Y-94273333D01*
X157100000Y-94206666D01*
X157133333Y-94173333D01*
X157200000Y-94140000D01*
X157266666Y-94140000D01*
X157333333Y-94173333D01*
X157366666Y-94206666D01*
X157400000Y-94273333D01*
X157400000Y-94506666D01*
X157766666Y-93440000D02*
X157766666Y-93840000D01*
X157766666Y-93640000D02*
X157066666Y-93640000D01*
X157166666Y-93706666D01*
X157233333Y-93773333D01*
X157266666Y-93840000D01*
X142733333Y-95696666D02*
X142733333Y-96030000D01*
X142533333Y-95630000D02*
X143233333Y-95863333D01*
X142533333Y-96096666D01*
X142533333Y-96696666D02*
X142533333Y-96296666D01*
X142533333Y-96496666D02*
X143233333Y-96496666D01*
X143133333Y-96430000D01*
X143066666Y-96363333D01*
X143033333Y-96296666D01*
X142533333Y-97363333D02*
X142533333Y-96963333D01*
X142533333Y-97163333D02*
X143233333Y-97163333D01*
X143133333Y-97096666D01*
X143066666Y-97030000D01*
X143033333Y-96963333D01*
X157566666Y-99570000D02*
X157566666Y-99236666D01*
X157766666Y-99636666D02*
X157066666Y-99403333D01*
X157766666Y-99170000D01*
X157066666Y-99003333D02*
X157066666Y-98536666D01*
X157766666Y-98836666D01*
X143233333Y-121796666D02*
X143233333Y-121463333D01*
X142900000Y-121430000D01*
X142933333Y-121463333D01*
X142966666Y-121530000D01*
X142966666Y-121696666D01*
X142933333Y-121763333D01*
X142900000Y-121796666D01*
X142833333Y-121830000D01*
X142666666Y-121830000D01*
X142600000Y-121796666D01*
X142566666Y-121763333D01*
X142533333Y-121696666D01*
X142533333Y-121530000D01*
X142566666Y-121463333D01*
X142600000Y-121430000D01*
X143233333Y-122030000D02*
X142533333Y-122263333D01*
X143233333Y-122496666D01*
X157566666Y-109730000D02*
X157566666Y-109396666D01*
X157766666Y-109796666D02*
X157066666Y-109563333D01*
X157766666Y-109330000D01*
X157066666Y-109163333D02*
X157066666Y-108730000D01*
X157333333Y-108963333D01*
X157333333Y-108863333D01*
X157366666Y-108796666D01*
X157400000Y-108763333D01*
X157466666Y-108730000D01*
X157633333Y-108730000D01*
X157700000Y-108763333D01*
X157733333Y-108796666D01*
X157766666Y-108863333D01*
X157766666Y-109063333D01*
X157733333Y-109130000D01*
X157700000Y-109163333D01*
X157566666Y-112270000D02*
X157566666Y-111936666D01*
X157766666Y-112336666D02*
X157066666Y-112103333D01*
X157766666Y-111870000D01*
X157133333Y-111670000D02*
X157100000Y-111636666D01*
X157066666Y-111570000D01*
X157066666Y-111403333D01*
X157100000Y-111336666D01*
X157133333Y-111303333D01*
X157200000Y-111270000D01*
X157266666Y-111270000D01*
X157366666Y-111303333D01*
X157766666Y-111703333D01*
X157766666Y-111270000D01*
X142733333Y-100776666D02*
X142733333Y-101110000D01*
X142533333Y-100710000D02*
X143233333Y-100943333D01*
X142533333Y-101176666D01*
X142533333Y-101776666D02*
X142533333Y-101376666D01*
X142533333Y-101576666D02*
X143233333Y-101576666D01*
X143133333Y-101510000D01*
X143066666Y-101443333D01*
X143033333Y-101376666D01*
X143233333Y-102410000D02*
X143233333Y-102076666D01*
X142900000Y-102043333D01*
X142933333Y-102076666D01*
X142966666Y-102143333D01*
X142966666Y-102310000D01*
X142933333Y-102376666D01*
X142900000Y-102410000D01*
X142833333Y-102443333D01*
X142666666Y-102443333D01*
X142600000Y-102410000D01*
X142566666Y-102376666D01*
X142533333Y-102310000D01*
X142533333Y-102143333D01*
X142566666Y-102076666D01*
X142600000Y-102043333D01*
X142733333Y-90950000D02*
X142733333Y-91283333D01*
X142533333Y-90883333D02*
X143233333Y-91116666D01*
X142533333Y-91350000D01*
X142533333Y-91616666D02*
X142533333Y-91750000D01*
X142566666Y-91816666D01*
X142600000Y-91850000D01*
X142700000Y-91916666D01*
X142833333Y-91950000D01*
X143100000Y-91950000D01*
X143166666Y-91916666D01*
X143200000Y-91883333D01*
X143233333Y-91816666D01*
X143233333Y-91683333D01*
X143200000Y-91616666D01*
X143166666Y-91583333D01*
X143100000Y-91550000D01*
X142933333Y-91550000D01*
X142866666Y-91583333D01*
X142833333Y-91616666D01*
X142800000Y-91683333D01*
X142800000Y-91816666D01*
X142833333Y-91883333D01*
X142866666Y-91916666D01*
X142933333Y-91950000D01*
X143233333Y-126143333D02*
X143233333Y-126576666D01*
X142966666Y-126343333D01*
X142966666Y-126443333D01*
X142933333Y-126510000D01*
X142900000Y-126543333D01*
X142833333Y-126576666D01*
X142666666Y-126576666D01*
X142600000Y-126543333D01*
X142566666Y-126510000D01*
X142533333Y-126443333D01*
X142533333Y-126243333D01*
X142566666Y-126176666D01*
X142600000Y-126143333D01*
X143233333Y-126776666D02*
X142533333Y-127010000D01*
X143233333Y-127243333D01*
X143233333Y-127410000D02*
X143233333Y-127843333D01*
X142966666Y-127610000D01*
X142966666Y-127710000D01*
X142933333Y-127776666D01*
X142900000Y-127810000D01*
X142833333Y-127843333D01*
X142666666Y-127843333D01*
X142600000Y-127810000D01*
X142566666Y-127776666D01*
X142533333Y-127710000D01*
X142533333Y-127510000D01*
X142566666Y-127443333D01*
X142600000Y-127410000D01*
X157566666Y-107190000D02*
X157566666Y-106856666D01*
X157766666Y-107256666D02*
X157066666Y-107023333D01*
X157766666Y-106790000D01*
X157300000Y-106256666D02*
X157766666Y-106256666D01*
X157033333Y-106423333D02*
X157533333Y-106590000D01*
X157533333Y-106156666D01*
X157066666Y-84696666D02*
X157066666Y-84263333D01*
X157333333Y-84496666D01*
X157333333Y-84396666D01*
X157366666Y-84330000D01*
X157400000Y-84296666D01*
X157466666Y-84263333D01*
X157633333Y-84263333D01*
X157700000Y-84296666D01*
X157733333Y-84330000D01*
X157766666Y-84396666D01*
X157766666Y-84596666D01*
X157733333Y-84663333D01*
X157700000Y-84696666D01*
X157066666Y-84063333D02*
X157766666Y-83830000D01*
X157066666Y-83596666D01*
X157066666Y-83430000D02*
X157066666Y-82996666D01*
X157333333Y-83230000D01*
X157333333Y-83130000D01*
X157366666Y-83063333D01*
X157400000Y-83030000D01*
X157466666Y-82996666D01*
X157633333Y-82996666D01*
X157700000Y-83030000D01*
X157733333Y-83063333D01*
X157766666Y-83130000D01*
X157766666Y-83330000D01*
X157733333Y-83396666D01*
X157700000Y-83430000D01*
X157566666Y-117350000D02*
X157566666Y-117016666D01*
X157766666Y-117416666D02*
X157066666Y-117183333D01*
X157766666Y-116950000D01*
X157066666Y-116583333D02*
X157066666Y-116516666D01*
X157100000Y-116450000D01*
X157133333Y-116416666D01*
X157200000Y-116383333D01*
X157333333Y-116350000D01*
X157500000Y-116350000D01*
X157633333Y-116383333D01*
X157700000Y-116416666D01*
X157733333Y-116450000D01*
X157766666Y-116516666D01*
X157766666Y-116583333D01*
X157733333Y-116650000D01*
X157700000Y-116683333D01*
X157633333Y-116716666D01*
X157500000Y-116750000D01*
X157333333Y-116750000D01*
X157200000Y-116716666D01*
X157133333Y-116683333D01*
X157100000Y-116650000D01*
X157066666Y-116583333D01*
X142733333Y-93156666D02*
X142733333Y-93490000D01*
X142533333Y-93090000D02*
X143233333Y-93323333D01*
X142533333Y-93556666D01*
X142533333Y-94156666D02*
X142533333Y-93756666D01*
X142533333Y-93956666D02*
X143233333Y-93956666D01*
X143133333Y-93890000D01*
X143066666Y-93823333D01*
X143033333Y-93756666D01*
X143233333Y-94590000D02*
X143233333Y-94656666D01*
X143200000Y-94723333D01*
X143166666Y-94756666D01*
X143100000Y-94790000D01*
X142966666Y-94823333D01*
X142800000Y-94823333D01*
X142666666Y-94790000D01*
X142600000Y-94756666D01*
X142566666Y-94723333D01*
X142533333Y-94656666D01*
X142533333Y-94590000D01*
X142566666Y-94523333D01*
X142600000Y-94490000D01*
X142666666Y-94456666D01*
X142800000Y-94423333D01*
X142966666Y-94423333D01*
X143100000Y-94456666D01*
X143166666Y-94490000D01*
X143200000Y-94523333D01*
X143233333Y-94590000D01*
X154353333Y-124183333D02*
X154353333Y-124616666D01*
X154086666Y-124383333D01*
X154086666Y-124483333D01*
X154053333Y-124550000D01*
X154020000Y-124583333D01*
X153953333Y-124616666D01*
X153786666Y-124616666D01*
X153720000Y-124583333D01*
X153686666Y-124550000D01*
X153653333Y-124483333D01*
X153653333Y-124283333D01*
X153686666Y-124216666D01*
X153720000Y-124183333D01*
X154353333Y-124816666D02*
X153653333Y-125050000D01*
X154353333Y-125283333D01*
X154353333Y-125450000D02*
X154353333Y-125883333D01*
X154086666Y-125650000D01*
X154086666Y-125750000D01*
X154053333Y-125816666D01*
X154020000Y-125850000D01*
X153953333Y-125883333D01*
X153786666Y-125883333D01*
X153720000Y-125850000D01*
X153686666Y-125816666D01*
X153653333Y-125750000D01*
X153653333Y-125550000D01*
X153686666Y-125483333D01*
X153720000Y-125450000D01*
X142900000Y-108946666D02*
X142866666Y-109046666D01*
X142833333Y-109080000D01*
X142766666Y-109113333D01*
X142666666Y-109113333D01*
X142600000Y-109080000D01*
X142566666Y-109046666D01*
X142533333Y-108980000D01*
X142533333Y-108713333D01*
X143233333Y-108713333D01*
X143233333Y-108946666D01*
X143200000Y-109013333D01*
X143166666Y-109046666D01*
X143100000Y-109080000D01*
X143033333Y-109080000D01*
X142966666Y-109046666D01*
X142933333Y-109013333D01*
X142900000Y-108946666D01*
X142900000Y-108713333D01*
X143233333Y-109746666D02*
X143233333Y-109413333D01*
X142900000Y-109380000D01*
X142933333Y-109413333D01*
X142966666Y-109480000D01*
X142966666Y-109646666D01*
X142933333Y-109713333D01*
X142900000Y-109746666D01*
X142833333Y-109780000D01*
X142666666Y-109780000D01*
X142600000Y-109746666D01*
X142566666Y-109713333D01*
X142533333Y-109646666D01*
X142533333Y-109480000D01*
X142566666Y-109413333D01*
X142600000Y-109380000D01*
X157400000Y-92066666D02*
X157433333Y-91966666D01*
X157466666Y-91933333D01*
X157533333Y-91900000D01*
X157633333Y-91900000D01*
X157700000Y-91933333D01*
X157733333Y-91966666D01*
X157766666Y-92033333D01*
X157766666Y-92300000D01*
X157066666Y-92300000D01*
X157066666Y-92066666D01*
X157100000Y-92000000D01*
X157133333Y-91966666D01*
X157200000Y-91933333D01*
X157266666Y-91933333D01*
X157333333Y-91966666D01*
X157366666Y-92000000D01*
X157400000Y-92066666D01*
X157400000Y-92300000D01*
X157766666Y-91233333D02*
X157766666Y-91633333D01*
X157766666Y-91433333D02*
X157066666Y-91433333D01*
X157166666Y-91500000D01*
X157233333Y-91566666D01*
X157266666Y-91633333D01*
X157066666Y-90800000D02*
X157066666Y-90733333D01*
X157100000Y-90666666D01*
X157133333Y-90633333D01*
X157200000Y-90600000D01*
X157333333Y-90566666D01*
X157500000Y-90566666D01*
X157633333Y-90600000D01*
X157700000Y-90633333D01*
X157733333Y-90666666D01*
X157766666Y-90733333D01*
X157766666Y-90800000D01*
X157733333Y-90866666D01*
X157700000Y-90900000D01*
X157633333Y-90933333D01*
X157500000Y-90966666D01*
X157333333Y-90966666D01*
X157200000Y-90933333D01*
X157133333Y-90900000D01*
X157100000Y-90866666D01*
X157066666Y-90800000D01*
X142900000Y-85753333D02*
X142866666Y-85853333D01*
X142833333Y-85886666D01*
X142766666Y-85920000D01*
X142666666Y-85920000D01*
X142600000Y-85886666D01*
X142566666Y-85853333D01*
X142533333Y-85786666D01*
X142533333Y-85520000D01*
X143233333Y-85520000D01*
X143233333Y-85753333D01*
X143200000Y-85820000D01*
X143166666Y-85853333D01*
X143100000Y-85886666D01*
X143033333Y-85886666D01*
X142966666Y-85853333D01*
X142933333Y-85820000D01*
X142900000Y-85753333D01*
X142900000Y-85520000D01*
X142533333Y-86586666D02*
X142533333Y-86186666D01*
X142533333Y-86386666D02*
X143233333Y-86386666D01*
X143133333Y-86320000D01*
X143066666Y-86253333D01*
X143033333Y-86186666D01*
X143233333Y-87220000D02*
X143233333Y-86886666D01*
X142900000Y-86853333D01*
X142933333Y-86886666D01*
X142966666Y-86953333D01*
X142966666Y-87120000D01*
X142933333Y-87186666D01*
X142900000Y-87220000D01*
X142833333Y-87253333D01*
X142666666Y-87253333D01*
X142600000Y-87220000D01*
X142566666Y-87186666D01*
X142533333Y-87120000D01*
X142533333Y-86953333D01*
X142566666Y-86886666D01*
X142600000Y-86853333D01*
X157700000Y-124920000D02*
X157733333Y-124953333D01*
X157766666Y-125053333D01*
X157766666Y-125120000D01*
X157733333Y-125220000D01*
X157666666Y-125286666D01*
X157600000Y-125320000D01*
X157466666Y-125353333D01*
X157366666Y-125353333D01*
X157233333Y-125320000D01*
X157166666Y-125286666D01*
X157100000Y-125220000D01*
X157066666Y-125120000D01*
X157066666Y-125053333D01*
X157100000Y-124953333D01*
X157133333Y-124920000D01*
X157766666Y-124253333D02*
X157766666Y-124653333D01*
X157766666Y-124453333D02*
X157066666Y-124453333D01*
X157166666Y-124520000D01*
X157233333Y-124586666D01*
X157266666Y-124653333D01*
X157066666Y-123620000D02*
X157066666Y-123953333D01*
X157400000Y-123986666D01*
X157366666Y-123953333D01*
X157333333Y-123886666D01*
X157333333Y-123720000D01*
X157366666Y-123653333D01*
X157400000Y-123620000D01*
X157466666Y-123586666D01*
X157633333Y-123586666D01*
X157700000Y-123620000D01*
X157733333Y-123653333D01*
X157766666Y-123720000D01*
X157766666Y-123886666D01*
X157733333Y-123953333D01*
X157700000Y-123986666D01*
D12*
%TO.C,D1*%
X153302600Y-90400000D02*
X155002600Y-90400000D01*
X155002600Y-90400000D02*
X155002600Y-87850000D01*
X153302600Y-90400000D02*
X153302600Y-87850000D01*
%TO.C,kibuzzard-63FDCD3E*%
G36*
X156640424Y-116779146D02*
G01*
X156253392Y-118069254D01*
X153341176Y-118069254D01*
X153534692Y-117424200D01*
X153860500Y-117424200D01*
X153867346Y-117540187D01*
X153887884Y-117642084D01*
X153922115Y-117729893D01*
X153970037Y-117803613D01*
X154053999Y-117877696D01*
X154159832Y-117922146D01*
X154287537Y-117936963D01*
X154374255Y-117931605D01*
X154450256Y-117915531D01*
X154562175Y-117868700D01*
X154512962Y-117714713D01*
X154432794Y-117749638D01*
X154306587Y-117767100D01*
X154193280Y-117744677D01*
X154116881Y-117677406D01*
X154084690Y-117608879D01*
X154065376Y-117522890D01*
X154058937Y-117419437D01*
X154064295Y-117330537D01*
X154080369Y-117257512D01*
X154135931Y-117153531D01*
X154213719Y-117097969D01*
X154303412Y-117081300D01*
X154421681Y-117097969D01*
X154509787Y-117138450D01*
X154687587Y-117138450D01*
X154751087Y-117300375D01*
X154847925Y-117261481D01*
X154949525Y-117205125D01*
X154949525Y-117754400D01*
X154743150Y-117754400D01*
X154743150Y-117916325D01*
X155340050Y-117916325D01*
X155340050Y-117882988D01*
X155470225Y-117882988D01*
X155519438Y-117900450D01*
X155588494Y-117917913D01*
X155666281Y-117931406D01*
X155743275Y-117936963D01*
X155834953Y-117931208D01*
X155913138Y-117913944D01*
X155978225Y-117886163D01*
X156030613Y-117848856D01*
X156098875Y-117749638D01*
X156121100Y-117624225D01*
X156110583Y-117544453D01*
X156079031Y-117476588D01*
X156028430Y-117422216D01*
X155960763Y-117382925D01*
X156049663Y-117300375D01*
X156083000Y-117187662D01*
X156063950Y-117078125D01*
X156005212Y-116990019D01*
X155904406Y-116932075D01*
X155837930Y-116916597D01*
X155760738Y-116911437D01*
X155676402Y-116918780D01*
X155601194Y-116940806D01*
X155487688Y-116998750D01*
X155557538Y-117141625D01*
X155651994Y-117096381D01*
X155762325Y-117078125D01*
X155852019Y-117109081D01*
X155884563Y-117194012D01*
X155869481Y-117254337D01*
X155830588Y-117292437D01*
X155776613Y-117313075D01*
X155716288Y-117319425D01*
X155643263Y-117319425D01*
X155643263Y-117481350D01*
X155703588Y-117481350D01*
X155790503Y-117489089D01*
X155860750Y-117512306D01*
X155907184Y-117554970D01*
X155922663Y-117621050D01*
X155882181Y-117727413D01*
X155826817Y-117759559D01*
X155741688Y-117770275D01*
X155666480Y-117765909D01*
X155602781Y-117752813D01*
X155508325Y-117719475D01*
X155470225Y-117882988D01*
X155340050Y-117882988D01*
X155340050Y-117754400D01*
X155144788Y-117754400D01*
X155144788Y-116933662D01*
X155011438Y-116933662D01*
X154943175Y-116995575D01*
X154859037Y-117052725D01*
X154770137Y-117101937D01*
X154687587Y-117138450D01*
X154509787Y-117138450D01*
X154560587Y-116982875D01*
X154528044Y-116963825D01*
X154474862Y-116940012D01*
X154401044Y-116920169D01*
X154306587Y-116911437D01*
X154213520Y-116919970D01*
X154127994Y-116945569D01*
X154051794Y-116987637D01*
X153986706Y-117045581D01*
X153933723Y-117118805D01*
X153893837Y-117206712D01*
X153868834Y-117308709D01*
X153860500Y-117424200D01*
X153534692Y-117424200D01*
X153728208Y-116779146D01*
X156640424Y-116779146D01*
G37*
%TO.C,kibuzzard-63FDC3E6*%
G36*
X147300664Y-117561640D02*
G01*
X147183677Y-117526152D01*
X147075861Y-117468524D01*
X147042726Y-117441331D01*
X147554619Y-117441331D01*
X147749881Y-117441331D01*
X147749881Y-116992069D01*
X147833225Y-117081763D01*
X147875889Y-117136928D01*
X147916569Y-117196063D01*
X147954470Y-117257975D01*
X147988800Y-117321475D01*
X148038806Y-117441331D01*
X148259469Y-117441331D01*
X148376944Y-117441331D01*
X149007181Y-117441331D01*
X149007181Y-117279406D01*
X148572206Y-117279406D01*
X148572206Y-117003181D01*
X148919869Y-117003181D01*
X148919869Y-116841256D01*
X148572206Y-116841256D01*
X148572206Y-116620594D01*
X148972256Y-116620594D01*
X148972256Y-116458669D01*
X149091319Y-116458669D01*
X149132153Y-116564943D01*
X149174222Y-116667866D01*
X149217525Y-116767437D01*
X149263827Y-116866127D01*
X149314892Y-116966404D01*
X149370719Y-117068269D01*
X149370719Y-117441331D01*
X149567569Y-117441331D01*
X149567569Y-117066681D01*
X149610431Y-116989886D01*
X149650119Y-116915075D01*
X149687028Y-116841058D01*
X149721556Y-116766644D01*
X149754100Y-116691634D01*
X149785056Y-116615831D01*
X149815219Y-116538441D01*
X149845381Y-116458669D01*
X149643769Y-116458669D01*
X149604875Y-116572969D01*
X149583047Y-116636072D01*
X149560425Y-116698381D01*
X149514388Y-116815856D01*
X149473906Y-116907931D01*
X149427075Y-116804545D01*
X149381831Y-116691237D01*
X149339366Y-116573961D01*
X149300869Y-116458669D01*
X149091319Y-116458669D01*
X148972256Y-116458669D01*
X148376944Y-116458669D01*
X148376944Y-117441331D01*
X148259469Y-117441331D01*
X148233672Y-117370489D01*
X148200731Y-117297663D01*
X148162036Y-117224638D01*
X148118975Y-117153200D01*
X148072342Y-117084739D01*
X148022931Y-117020644D01*
X147972528Y-116962303D01*
X147922919Y-116911106D01*
X147971139Y-116852766D01*
X148017375Y-116792044D01*
X148061230Y-116730727D01*
X148102306Y-116670600D01*
X148139811Y-116612259D01*
X148172950Y-116556300D01*
X148226131Y-116458669D01*
X148005469Y-116458669D01*
X147957844Y-116553919D01*
X147895138Y-116660281D01*
X147822906Y-116768231D01*
X147749881Y-116866656D01*
X147749881Y-116458669D01*
X147554619Y-116458669D01*
X147554619Y-117441331D01*
X147042726Y-117441331D01*
X146981359Y-117390968D01*
X146903804Y-117296466D01*
X146846175Y-117188650D01*
X146810687Y-117071663D01*
X146798704Y-116950000D01*
X146810687Y-116828337D01*
X146846175Y-116711350D01*
X146903804Y-116603534D01*
X146981359Y-116509032D01*
X147075861Y-116431476D01*
X147183677Y-116373848D01*
X147300664Y-116338360D01*
X147422327Y-116326377D01*
X149977673Y-116326377D01*
X150099336Y-116338360D01*
X150216323Y-116373848D01*
X150324139Y-116431477D01*
X150418641Y-116509032D01*
X150496196Y-116603534D01*
X150553825Y-116711350D01*
X150589313Y-116828337D01*
X150601296Y-116950000D01*
X150589313Y-117071663D01*
X150553825Y-117188650D01*
X150496196Y-117296466D01*
X150418641Y-117390968D01*
X150324139Y-117468523D01*
X150216323Y-117526152D01*
X150099336Y-117561640D01*
X149977673Y-117573623D01*
X147422327Y-117573623D01*
X147300664Y-117561640D01*
G37*
%TO.C,kibuzzard-63FDC37C*%
G36*
X153942340Y-91963946D02*
G01*
X153979048Y-91842938D01*
X154038657Y-91731417D01*
X154118878Y-91633667D01*
X154216627Y-91553447D01*
X154328148Y-91493837D01*
X154449156Y-91457130D01*
X154575000Y-91444735D01*
X154700844Y-91457130D01*
X154821852Y-91493837D01*
X154933373Y-91553447D01*
X155031122Y-91633667D01*
X155111343Y-91731417D01*
X155170952Y-91842938D01*
X155207660Y-91963946D01*
X155220054Y-92089790D01*
X155220054Y-94610210D01*
X155207660Y-94736054D01*
X155170952Y-94857062D01*
X155111343Y-94968583D01*
X155031122Y-95066333D01*
X154933373Y-95146553D01*
X154821852Y-95206163D01*
X154700844Y-95242870D01*
X154575000Y-95255265D01*
X154449156Y-95242870D01*
X154328148Y-95206163D01*
X154216627Y-95146553D01*
X154118878Y-95066333D01*
X154038657Y-94968583D01*
X153979048Y-94857062D01*
X153942340Y-94736054D01*
X153929946Y-94610210D01*
X153929946Y-94223919D01*
X154073350Y-94223919D01*
X154074938Y-94279481D01*
X154078906Y-94346156D01*
X154086844Y-94415213D01*
X154098750Y-94477919D01*
X155067125Y-94477919D01*
X155067125Y-94282656D01*
X154705175Y-94282656D01*
X154705175Y-94181056D01*
X154795067Y-94127280D01*
X154883769Y-94077075D01*
X154973661Y-94031633D01*
X155067125Y-93992144D01*
X155067125Y-93787356D01*
X154963144Y-93832600D01*
X154853606Y-93887369D01*
X154748831Y-93946106D01*
X154657550Y-94003256D01*
X154612703Y-93933803D01*
X154551187Y-93887369D01*
X154477369Y-93861175D01*
X154395612Y-93852444D01*
X154318420Y-93858992D01*
X154251944Y-93878638D01*
X154151137Y-93954044D01*
X154116609Y-94008019D01*
X154092400Y-94071519D01*
X154078112Y-94143750D01*
X154073350Y-94223919D01*
X153929946Y-94223919D01*
X153929946Y-93355556D01*
X154062237Y-93355556D01*
X154070881Y-93452835D01*
X154096810Y-93535120D01*
X154140025Y-93602412D01*
X154232894Y-93669683D01*
X154355925Y-93692106D01*
X154472606Y-93666706D01*
X154551187Y-93602412D01*
X154603575Y-93515894D01*
X154640088Y-93423819D01*
X154667869Y-93357144D01*
X154701206Y-93296819D01*
X154743275Y-93252369D01*
X154797250Y-93234906D01*
X154844081Y-93242050D01*
X154885356Y-93268244D01*
X154913931Y-93319837D01*
X154924250Y-93401594D01*
X154918694Y-93480770D01*
X154902025Y-93546850D01*
X154854400Y-93649244D01*
X155013150Y-93706394D01*
X155061569Y-93596856D01*
X155081214Y-93511528D01*
X155087763Y-93401594D01*
X155079384Y-93290204D01*
X155054249Y-93199452D01*
X155012356Y-93129337D01*
X154921273Y-93062067D01*
X154798838Y-93039644D01*
X154724820Y-93046391D01*
X154664694Y-93066631D01*
X154575794Y-93135687D01*
X154518644Y-93227762D01*
X154479750Y-93323806D01*
X154455937Y-93384925D01*
X154426569Y-93440488D01*
X154388469Y-93480969D01*
X154338462Y-93496844D01*
X154275844Y-93479558D01*
X154238274Y-93427699D01*
X154225750Y-93341269D01*
X154241625Y-93229350D01*
X154279725Y-93141244D01*
X154128912Y-93084094D01*
X154082875Y-93197600D01*
X154067397Y-93270823D01*
X154062237Y-93355556D01*
X153929946Y-93355556D01*
X153929946Y-92936456D01*
X154084462Y-92936456D01*
X154246387Y-92936456D01*
X154246387Y-92677694D01*
X155067125Y-92677694D01*
X155067125Y-92480844D01*
X154246387Y-92480844D01*
X154246387Y-92222081D01*
X154084462Y-92222081D01*
X154084462Y-92936456D01*
X153929946Y-92936456D01*
X153929946Y-92089790D01*
X153942340Y-91963946D01*
G37*
G36*
X154504356Y-94095331D02*
G01*
X154533527Y-94153672D01*
X154543250Y-94239794D01*
X154543250Y-94282656D01*
X154247975Y-94282656D01*
X154244006Y-94250906D01*
X154243212Y-94223919D01*
X154252341Y-94153672D01*
X154279725Y-94098506D01*
X154326556Y-94062788D01*
X154394025Y-94050881D01*
X154504356Y-94095331D01*
G37*
%TO.C,kibuzzard-63FDC36C*%
G36*
X145067340Y-91567071D02*
G01*
X145104048Y-91446063D01*
X145163657Y-91334542D01*
X145243878Y-91236792D01*
X145341627Y-91156572D01*
X145453148Y-91096962D01*
X145574156Y-91060255D01*
X145700000Y-91047860D01*
X145825844Y-91060255D01*
X145946852Y-91096962D01*
X146058373Y-91156572D01*
X146156122Y-91236792D01*
X146236343Y-91334542D01*
X146295952Y-91446063D01*
X146332660Y-91567071D01*
X146345054Y-91692915D01*
X146345054Y-95007085D01*
X146332660Y-95132929D01*
X146295952Y-95253937D01*
X146236343Y-95365458D01*
X146156122Y-95463208D01*
X146058373Y-95543428D01*
X145946852Y-95603038D01*
X145825844Y-95639745D01*
X145700000Y-95652140D01*
X145574156Y-95639745D01*
X145453148Y-95603038D01*
X145341627Y-95543428D01*
X145243878Y-95463208D01*
X145163657Y-95365458D01*
X145104048Y-95253937D01*
X145067340Y-95132929D01*
X145054946Y-95007085D01*
X145054946Y-94620794D01*
X145198350Y-94620794D01*
X145205494Y-94752556D01*
X145222162Y-94874794D01*
X146176250Y-94874794D01*
X146188752Y-94806134D01*
X146197681Y-94736681D01*
X146203039Y-94668022D01*
X146204825Y-94601744D01*
X146201055Y-94523361D01*
X146189744Y-94450138D01*
X146169503Y-94384256D01*
X146138944Y-94327900D01*
X146043694Y-94246144D01*
X145976820Y-94223522D01*
X145895263Y-94215981D01*
X145828588Y-94224911D01*
X145765088Y-94251700D01*
X145709525Y-94303492D01*
X145666662Y-94387431D01*
X145580937Y-94296150D01*
X145522994Y-94270552D01*
X145457112Y-94262019D01*
X145365037Y-94276306D01*
X145281694Y-94330281D01*
X145221369Y-94439819D01*
X145204105Y-94519988D01*
X145198350Y-94620794D01*
X145054946Y-94620794D01*
X145054946Y-93769894D01*
X145187237Y-93769894D01*
X145201613Y-93872905D01*
X145244740Y-93959688D01*
X145316619Y-94030244D01*
X145389098Y-94071221D01*
X145477155Y-94100491D01*
X145580789Y-94118052D01*
X145700000Y-94123906D01*
X145819211Y-94118201D01*
X145922845Y-94101086D01*
X146010902Y-94072561D01*
X146083381Y-94032625D01*
X146155260Y-93962687D01*
X146198387Y-93874581D01*
X146212763Y-93768306D01*
X146198387Y-93664590D01*
X146155260Y-93577806D01*
X146083381Y-93507956D01*
X146010902Y-93467673D01*
X145922845Y-93438900D01*
X145819211Y-93421636D01*
X145700000Y-93415881D01*
X145580789Y-93421537D01*
X145477155Y-93438503D01*
X145389098Y-93466780D01*
X145316619Y-93506369D01*
X145244740Y-93575866D01*
X145201613Y-93663708D01*
X145187237Y-93769894D01*
X145054946Y-93769894D01*
X145054946Y-92976144D01*
X145187237Y-92976144D01*
X145201613Y-93079155D01*
X145244740Y-93165938D01*
X145316619Y-93236494D01*
X145389098Y-93277471D01*
X145477155Y-93306741D01*
X145580789Y-93324302D01*
X145700000Y-93330156D01*
X145819211Y-93324451D01*
X145922845Y-93307336D01*
X146010902Y-93278811D01*
X146083381Y-93238875D01*
X146155260Y-93168937D01*
X146198387Y-93080831D01*
X146212763Y-92974556D01*
X146198387Y-92870840D01*
X146155260Y-92784056D01*
X146083381Y-92714206D01*
X146010902Y-92673923D01*
X145922845Y-92645150D01*
X145819211Y-92627886D01*
X145700000Y-92622131D01*
X145580789Y-92627787D01*
X145477155Y-92644753D01*
X145389098Y-92673030D01*
X145316619Y-92712619D01*
X145244740Y-92782116D01*
X145201613Y-92869958D01*
X145187237Y-92976144D01*
X145054946Y-92976144D01*
X145054946Y-92539581D01*
X145209462Y-92539581D01*
X145371387Y-92539581D01*
X145371387Y-92280819D01*
X146192125Y-92280819D01*
X146192125Y-92083969D01*
X145371387Y-92083969D01*
X145371387Y-91825206D01*
X145209462Y-91825206D01*
X145209462Y-92539581D01*
X145054946Y-92539581D01*
X145054946Y-91692915D01*
X145067340Y-91567071D01*
G37*
G36*
X145769056Y-93615708D02*
G01*
X145833350Y-93619875D01*
X145942094Y-93642100D01*
X146015913Y-93689725D01*
X146042900Y-93769894D01*
X146015913Y-93850856D01*
X145942888Y-93897688D01*
X145834144Y-93919913D01*
X145769255Y-93924080D01*
X145700000Y-93925469D01*
X145630944Y-93924080D01*
X145566650Y-93919913D01*
X145457906Y-93897688D01*
X145384087Y-93850856D01*
X145357100Y-93769894D01*
X145384087Y-93688931D01*
X145457112Y-93642100D01*
X145565856Y-93619875D01*
X145630745Y-93615708D01*
X145700000Y-93614319D01*
X145769056Y-93615708D01*
G37*
G36*
X145769056Y-92821958D02*
G01*
X145833350Y-92826125D01*
X145942094Y-92848350D01*
X146015913Y-92895975D01*
X146042900Y-92976144D01*
X146015913Y-93057106D01*
X145942888Y-93103937D01*
X145834144Y-93126162D01*
X145769255Y-93130330D01*
X145700000Y-93131719D01*
X145630944Y-93130330D01*
X145566650Y-93126162D01*
X145457906Y-93103937D01*
X145384087Y-93057106D01*
X145357100Y-92976144D01*
X145384087Y-92895181D01*
X145457112Y-92848350D01*
X145565856Y-92826125D01*
X145630745Y-92821958D01*
X145700000Y-92820569D01*
X145769056Y-92821958D01*
G37*
G36*
X145965906Y-94423944D02*
G01*
X146008769Y-94464425D01*
X146029406Y-94520781D01*
X146034963Y-94585869D01*
X146033375Y-94634288D01*
X146028613Y-94679531D01*
X145761913Y-94679531D01*
X145761913Y-94574756D01*
X145792869Y-94453313D01*
X145895263Y-94408069D01*
X145965906Y-94423944D01*
G37*
G36*
X145567444Y-94490619D02*
G01*
X145599987Y-94603331D01*
X145599987Y-94679531D01*
X145374562Y-94679531D01*
X145369800Y-94636669D01*
X145368212Y-94590631D01*
X145372181Y-94538244D01*
X145388056Y-94493794D01*
X145421394Y-94463631D01*
X145477750Y-94452519D01*
X145567444Y-94490619D01*
G37*
%TO.C,C9*%
X152563364Y-117963200D02*
X152779036Y-117963200D01*
X152563364Y-118683200D02*
X152779036Y-118683200D01*
%TO.C,R9*%
X155630000Y-97303641D02*
X155630000Y-96996359D01*
X154870000Y-97303641D02*
X154870000Y-96996359D01*
%TO.C,R6*%
X148170000Y-96996359D02*
X148170000Y-97303641D01*
X148930000Y-96996359D02*
X148930000Y-97303641D01*
%TO.C,C10*%
X144228307Y-102180810D02*
X144380810Y-102028307D01*
X143719190Y-101671693D02*
X143871693Y-101519190D01*
%TO.C,C2*%
X155357836Y-112010000D02*
X155142164Y-112010000D01*
X155357836Y-111290000D02*
X155142164Y-111290000D01*
%TO.C,SW3*%
X148650000Y-118150000D02*
X148750000Y-118150000D01*
X148650000Y-122550000D02*
X148750000Y-122550000D01*
X147150000Y-118150000D02*
X147150000Y-122550000D01*
X150250000Y-122550000D02*
X150250000Y-118150000D01*
%TO.C,C5*%
X149290000Y-97042164D02*
X149290000Y-97257836D01*
X150010000Y-97042164D02*
X150010000Y-97257836D01*
%TO.C,U3*%
X150164800Y-99344689D02*
X149846602Y-99662887D01*
X155270111Y-104450000D02*
X154951913Y-104768198D01*
X150482998Y-109237113D02*
X151395166Y-110149281D01*
X154951913Y-104131802D02*
X155270111Y-104450000D01*
X150164800Y-109555311D02*
X150482998Y-109237113D01*
X150482998Y-99662887D02*
X150164800Y-99344689D01*
X149846602Y-109237113D02*
X150164800Y-109555311D01*
X145059489Y-104450000D02*
X145377687Y-104131802D01*
X145377687Y-104768198D02*
X145059489Y-104450000D01*
%TO.C,Y2*%
X152110000Y-112232000D02*
X152110000Y-115532000D01*
X152110000Y-115532000D02*
X156110000Y-115532000D01*
%TO.C,SW1*%
X149714800Y-95550000D02*
X149714800Y-91150000D01*
X148214800Y-95550000D02*
X148114800Y-95550000D01*
X148214800Y-91150000D02*
X148114800Y-91150000D01*
X146614800Y-91150000D02*
X146614800Y-95550000D01*
%TO.C,D3*%
X155931200Y-118188200D02*
X154011200Y-118188200D01*
X155931200Y-120873200D02*
X155931200Y-118188200D01*
X154011200Y-118188200D02*
X154011200Y-120873200D01*
%TO.C,C11*%
X152210000Y-97257836D02*
X152210000Y-97042164D01*
X151490000Y-97257836D02*
X151490000Y-97042164D01*
%TO.C,SW2*%
X152214800Y-95550000D02*
X152114800Y-95550000D01*
X153714800Y-95550000D02*
X153714800Y-91150000D01*
X150614800Y-91150000D02*
X150614800Y-95550000D01*
X152214800Y-91150000D02*
X152114800Y-91150000D01*
%TO.C,R5*%
X150370000Y-96996359D02*
X150370000Y-97303641D01*
X151130000Y-96996359D02*
X151130000Y-97303641D01*
%TO.C,J1*%
X154744800Y-82337830D02*
X154744800Y-80417830D01*
X154744800Y-76702830D02*
X154744800Y-78407830D01*
X145584800Y-76702830D02*
X154744800Y-76702830D01*
X145584800Y-78407830D02*
X145584800Y-76702830D01*
X145584800Y-80417830D02*
X145584800Y-82337830D01*
%TO.C,R2*%
X144370000Y-81603641D02*
X144370000Y-81296359D01*
X145130000Y-81603641D02*
X145130000Y-81296359D01*
%TO.C,R8*%
X154591200Y-122519559D02*
X154591200Y-122826841D01*
X155351200Y-122519559D02*
X155351200Y-122826841D01*
%TO.C,R3*%
X149353641Y-86430000D02*
X149046359Y-86430000D01*
X149353641Y-85670000D02*
X149046359Y-85670000D01*
%TO.C,C13*%
X155171693Y-108369190D02*
X155019190Y-108521693D01*
X155680810Y-108878307D02*
X155528307Y-109030810D01*
%TO.C,C4*%
X150457836Y-113610000D02*
X150242164Y-113610000D01*
X150457836Y-112890000D02*
X150242164Y-112890000D01*
%TO.C,Y1*%
X148725000Y-114075000D02*
X150075000Y-114075000D01*
X148725000Y-115825000D02*
X150075000Y-115825000D01*
%TO.C,C12*%
X147421693Y-111380810D02*
X147269190Y-111228307D01*
X147930810Y-110871693D02*
X147778307Y-110719190D01*
%TO.C,D2*%
X144861200Y-118188200D02*
X144861200Y-120873200D01*
X146781200Y-118188200D02*
X144861200Y-118188200D01*
X146781200Y-120873200D02*
X146781200Y-118188200D01*
%TO.C,R7*%
X146201200Y-122519559D02*
X146201200Y-122826841D01*
X145441200Y-122519559D02*
X145441200Y-122826841D01*
%TO.C,U1*%
X149050000Y-90460000D02*
X148250000Y-90460000D01*
X149050000Y-87340000D02*
X149850000Y-87340000D01*
X149050000Y-87340000D02*
X148250000Y-87340000D01*
X149050000Y-90460000D02*
X150850000Y-90460000D01*
%TO.C,R1*%
X155930000Y-81603641D02*
X155930000Y-81296359D01*
X155170000Y-81603641D02*
X155170000Y-81296359D01*
%TO.C,C7*%
X145640000Y-89040580D02*
X145640000Y-88759420D01*
X146660000Y-89040580D02*
X146660000Y-88759420D01*
%TO.C,D4*%
X150611200Y-120973200D02*
X150611200Y-122648200D01*
X150611200Y-120973200D02*
X150611200Y-120323200D01*
X153731200Y-120973200D02*
X153731200Y-121623200D01*
X153731200Y-120973200D02*
X153731200Y-120323200D01*
%TO.C,R10*%
X151401200Y-118669559D02*
X151401200Y-118976841D01*
X150641200Y-118669559D02*
X150641200Y-118976841D01*
%TO.C,C3*%
X148292164Y-112890000D02*
X148507836Y-112890000D01*
X148292164Y-113610000D02*
X148507836Y-113610000D01*
%TO.C,C1*%
X152912164Y-112010000D02*
X153127836Y-112010000D01*
X152912164Y-111290000D02*
X153127836Y-111290000D01*
%TO.C,R4*%
X150996359Y-85670000D02*
X151303641Y-85670000D01*
X150996359Y-86430000D02*
X151303641Y-86430000D01*
%TO.C,C6*%
X152960000Y-88759420D02*
X152960000Y-89040580D01*
X151940000Y-88759420D02*
X151940000Y-89040580D01*
%TD*%
M02*
