%TF.GenerationSoftware,KiCad,Pcbnew,8.0.1*%
%TF.CreationDate,2024-05-13T17:31:10+07:00*%
%TF.ProjectId,greenpill-f411,67726565-6e70-4696-9c6c-2d663431312e,rev?*%
%TF.SameCoordinates,Original*%
%TF.FileFunction,Copper,L1,Top*%
%TF.FilePolarity,Positive*%
%FSLAX46Y46*%
G04 Gerber Fmt 4.6, Leading zero omitted, Abs format (unit mm)*
G04 Created by KiCad (PCBNEW 8.0.1) date 2024-05-13 17:31:10*
%MOMM*%
%LPD*%
G01*
G04 APERTURE LIST*
G04 Aperture macros list*
%AMRoundRect*
0 Rectangle with rounded corners*
0 $1 Rounding radius*
0 $2 $3 $4 $5 $6 $7 $8 $9 X,Y pos of 4 corners*
0 Add a 4 corners polygon primitive as box body*
4,1,4,$2,$3,$4,$5,$6,$7,$8,$9,$2,$3,0*
0 Add four circle primitives for the rounded corners*
1,1,$1+$1,$2,$3*
1,1,$1+$1,$4,$5*
1,1,$1+$1,$6,$7*
1,1,$1+$1,$8,$9*
0 Add four rect primitives between the rounded corners*
20,1,$1+$1,$2,$3,$4,$5,0*
20,1,$1+$1,$4,$5,$6,$7,0*
20,1,$1+$1,$6,$7,$8,$9,0*
20,1,$1+$1,$8,$9,$2,$3,0*%
%AMRotRect*
0 Rectangle, with rotation*
0 The origin of the aperture is its center*
0 $1 length*
0 $2 width*
0 $3 Rotation angle, in degrees counterclockwise*
0 Add horizontal line*
21,1,$1,$2,0,0,$3*%
G04 Aperture macros list end*
%TA.AperFunction,SMDPad,CuDef*%
%ADD10RoundRect,0.140000X-0.140000X-0.170000X0.140000X-0.170000X0.140000X0.170000X-0.140000X0.170000X0*%
%TD*%
%TA.AperFunction,SMDPad,CuDef*%
%ADD11RoundRect,0.135000X0.035355X-0.226274X0.226274X-0.035355X-0.035355X0.226274X-0.226274X0.035355X0*%
%TD*%
%TA.AperFunction,SMDPad,CuDef*%
%ADD12RoundRect,0.135000X-0.185000X0.135000X-0.185000X-0.135000X0.185000X-0.135000X0.185000X0.135000X0*%
%TD*%
%TA.AperFunction,SMDPad,CuDef*%
%ADD13RoundRect,0.140000X0.170000X-0.140000X0.170000X0.140000X-0.170000X0.140000X-0.170000X-0.140000X0*%
%TD*%
%TA.AperFunction,SMDPad,CuDef*%
%ADD14RoundRect,0.140000X0.140000X0.170000X-0.140000X0.170000X-0.140000X-0.170000X0.140000X-0.170000X0*%
%TD*%
%TA.AperFunction,SMDPad,CuDef*%
%ADD15RoundRect,0.062500X0.309359X-0.220971X-0.220971X0.309359X-0.309359X0.220971X0.220971X-0.309359X0*%
%TD*%
%TA.AperFunction,SMDPad,CuDef*%
%ADD16RoundRect,0.062500X0.309359X0.220971X0.220971X0.309359X-0.309359X-0.220971X-0.220971X-0.309359X0*%
%TD*%
%TA.AperFunction,HeatsinkPad*%
%ADD17RotRect,5.600000X5.600000X135.000000*%
%TD*%
%TA.AperFunction,SMDPad,CuDef*%
%ADD18R,1.000000X0.900000*%
%TD*%
%TA.AperFunction,ComponentPad*%
%ADD19R,1.700000X1.700000*%
%TD*%
%TA.AperFunction,ComponentPad*%
%ADD20O,1.700000X1.700000*%
%TD*%
%TA.AperFunction,SMDPad,CuDef*%
%ADD21RoundRect,0.140000X-0.170000X0.140000X-0.170000X-0.140000X0.170000X-0.140000X0.170000X0.140000X0*%
%TD*%
%TA.AperFunction,SMDPad,CuDef*%
%ADD22R,1.400000X1.200000*%
%TD*%
%TA.AperFunction,SMDPad,CuDef*%
%ADD23RoundRect,0.225000X0.017678X-0.335876X0.335876X-0.017678X-0.017678X0.335876X-0.335876X0.017678X0*%
%TD*%
%TA.AperFunction,SMDPad,CuDef*%
%ADD24RoundRect,0.147500X-0.147500X-0.172500X0.147500X-0.172500X0.147500X0.172500X-0.147500X0.172500X0*%
%TD*%
%TA.AperFunction,SMDPad,CuDef*%
%ADD25RoundRect,0.243750X-0.456250X0.243750X-0.456250X-0.243750X0.456250X-0.243750X0.456250X0.243750X0*%
%TD*%
%TA.AperFunction,SMDPad,CuDef*%
%ADD26R,0.600000X1.240000*%
%TD*%
%TA.AperFunction,SMDPad,CuDef*%
%ADD27R,0.300000X1.240000*%
%TD*%
%TA.AperFunction,ComponentPad*%
%ADD28O,1.000000X2.100000*%
%TD*%
%TA.AperFunction,ComponentPad*%
%ADD29O,1.000000X1.800000*%
%TD*%
%TA.AperFunction,SMDPad,CuDef*%
%ADD30RoundRect,0.135000X0.185000X-0.135000X0.185000X0.135000X-0.185000X0.135000X-0.185000X-0.135000X0*%
%TD*%
%TA.AperFunction,SMDPad,CuDef*%
%ADD31RoundRect,0.140000X-0.021213X0.219203X-0.219203X0.021213X0.021213X-0.219203X0.219203X-0.021213X0*%
%TD*%
%TA.AperFunction,SMDPad,CuDef*%
%ADD32R,1.000000X1.800000*%
%TD*%
%TA.AperFunction,SMDPad,CuDef*%
%ADD33R,0.450000X0.600000*%
%TD*%
%TA.AperFunction,SMDPad,CuDef*%
%ADD34RoundRect,0.150000X0.512500X0.150000X-0.512500X0.150000X-0.512500X-0.150000X0.512500X-0.150000X0*%
%TD*%
%TA.AperFunction,SMDPad,CuDef*%
%ADD35RoundRect,0.225000X0.250000X-0.225000X0.250000X0.225000X-0.250000X0.225000X-0.250000X-0.225000X0*%
%TD*%
%TA.AperFunction,SMDPad,CuDef*%
%ADD36RoundRect,0.150000X0.150000X-0.587500X0.150000X0.587500X-0.150000X0.587500X-0.150000X-0.587500X0*%
%TD*%
%TA.AperFunction,SMDPad,CuDef*%
%ADD37RoundRect,0.225000X-0.250000X0.225000X-0.250000X-0.225000X0.250000X-0.225000X0.250000X0.225000X0*%
%TD*%
%TA.AperFunction,ViaPad*%
%ADD38C,0.800000*%
%TD*%
%TA.AperFunction,Conductor*%
%ADD39C,0.250000*%
%TD*%
%TA.AperFunction,Conductor*%
%ADD40C,0.500000*%
%TD*%
%TA.AperFunction,Conductor*%
%ADD41C,0.600000*%
%TD*%
%TA.AperFunction,Conductor*%
%ADD42C,0.200000*%
%TD*%
%TA.AperFunction,Conductor*%
%ADD43C,0.300000*%
%TD*%
G04 APERTURE END LIST*
D10*
%TO.P,C9,1*%
%TO.N,VBAT*%
X152191200Y-118323200D03*
%TO.P,C9,2*%
%TO.N,GND*%
X153151200Y-118323200D03*
%TD*%
D11*
%TO.P,R9,1*%
%TO.N,/PB2*%
X153695400Y-100380800D03*
%TO.P,R9,2*%
%TO.N,GND*%
X154416648Y-99659552D03*
%TD*%
D12*
%TO.P,R6,1*%
%TO.N,/BOOT0*%
X148541200Y-97181000D03*
%TO.P,R6,2*%
%TO.N,GND*%
X148541200Y-98201000D03*
%TD*%
D13*
%TO.P,C10,1*%
%TO.N,+3V3*%
X144449800Y-103832600D03*
%TO.P,C10,2*%
%TO.N,GND*%
X144449800Y-102872600D03*
%TD*%
D14*
%TO.P,C2,1*%
%TO.N,GND*%
X155422600Y-112166400D03*
%TO.P,C2,2*%
%TO.N,/XOUT*%
X154462600Y-112166400D03*
%TD*%
D15*
%TO.P,U6,1,VBAT*%
%TO.N,VBAT*%
X150650936Y-109810623D03*
%TO.P,U6,2,PC13*%
%TO.N,/PC13*%
X151004489Y-109457070D03*
%TO.P,U6,3,PC14*%
%TO.N,/PC14*%
X151358043Y-109103516D03*
%TO.P,U6,4,PC15*%
%TO.N,/PC15*%
X151711596Y-108749963D03*
%TO.P,U6,5,PH0*%
%TO.N,/XIN*%
X152065149Y-108396410D03*
%TO.P,U6,6,PH1*%
%TO.N,/XOUT*%
X152418703Y-108042856D03*
%TO.P,U6,7,NRST*%
%TO.N,/~{NRST}*%
X152772256Y-107689303D03*
%TO.P,U6,8,VSSA*%
%TO.N,GND*%
X153125810Y-107335749D03*
%TO.P,U6,9,VDDA*%
%TO.N,VDDA*%
X153479363Y-106982196D03*
%TO.P,U6,10,PA0*%
%TO.N,/PA0*%
X153832916Y-106628643D03*
%TO.P,U6,11,PA1*%
%TO.N,/PA1*%
X154186470Y-106275089D03*
%TO.P,U6,12,PA2*%
%TO.N,/PA2*%
X154540023Y-105921536D03*
D16*
%TO.P,U6,13,PA3*%
%TO.N,/PA3*%
X154540023Y-104949264D03*
%TO.P,U6,14,PA4*%
%TO.N,/PA4*%
X154186470Y-104595711D03*
%TO.P,U6,15,PA5*%
%TO.N,/MEM_CLK*%
X153832916Y-104242157D03*
%TO.P,U6,16,PA6*%
%TO.N,/MEM_MISO*%
X153479363Y-103888604D03*
%TO.P,U6,17,PA7*%
%TO.N,/MEM_MOSI*%
X153125810Y-103535051D03*
%TO.P,U6,18,PB0*%
%TO.N,/PB0*%
X152772256Y-103181497D03*
%TO.P,U6,19,PB1*%
%TO.N,/PB1*%
X152418703Y-102827944D03*
%TO.P,U6,20,PB2*%
%TO.N,/PB2*%
X152065149Y-102474390D03*
%TO.P,U6,21,PB10*%
%TO.N,/PB10*%
X151711596Y-102120837D03*
%TO.P,U6,22,VCAP1*%
%TO.N,Net-(U6-VCAP1)*%
X151358043Y-101767284D03*
%TO.P,U6,23,VSS*%
%TO.N,GND*%
X151004489Y-101413730D03*
%TO.P,U6,24,VDD*%
%TO.N,+3V3*%
X150650936Y-101060177D03*
D15*
%TO.P,U6,25,PB12*%
%TO.N,/PB12*%
X149678664Y-101060177D03*
%TO.P,U6,26,PB13*%
%TO.N,/PB13*%
X149325111Y-101413730D03*
%TO.P,U6,27,PB14*%
%TO.N,/PB14*%
X148971557Y-101767284D03*
%TO.P,U6,28,PB15*%
%TO.N,/PB15*%
X148618004Y-102120837D03*
%TO.P,U6,29,PA8*%
%TO.N,/PA8*%
X148264451Y-102474390D03*
%TO.P,U6,30,PA9*%
%TO.N,/PA9*%
X147910897Y-102827944D03*
%TO.P,U6,31,PA10*%
%TO.N,/PA10*%
X147557344Y-103181497D03*
%TO.P,U6,32,PA11*%
%TO.N,/USB_DN*%
X147203790Y-103535051D03*
%TO.P,U6,33,PA12*%
%TO.N,/USB_DP*%
X146850237Y-103888604D03*
%TO.P,U6,34,PA13*%
%TO.N,/PA13*%
X146496684Y-104242157D03*
%TO.P,U6,35,VSS*%
%TO.N,GND*%
X146143130Y-104595711D03*
%TO.P,U6,36,VDD*%
%TO.N,+3V3*%
X145789577Y-104949264D03*
D16*
%TO.P,U6,37,PA14*%
%TO.N,/PA14*%
X145789577Y-105921536D03*
%TO.P,U6,38,PA15*%
%TO.N,/PA15*%
X146143130Y-106275089D03*
%TO.P,U6,39,PB3*%
%TO.N,/PB3*%
X146496684Y-106628643D03*
%TO.P,U6,40,PB4*%
%TO.N,/PB4*%
X146850237Y-106982196D03*
%TO.P,U6,41,PB5*%
%TO.N,/PB5*%
X147203790Y-107335749D03*
%TO.P,U6,42,PB6*%
%TO.N,/PB6*%
X147557344Y-107689303D03*
%TO.P,U6,43,PB7*%
%TO.N,/PB7*%
X147910897Y-108042856D03*
%TO.P,U6,44,BOOT0*%
%TO.N,/BOOT0*%
X148264451Y-108396410D03*
%TO.P,U6,45,PB8*%
%TO.N,/PB8*%
X148618004Y-108749963D03*
%TO.P,U6,46,PB9*%
%TO.N,/PB9*%
X148971557Y-109103516D03*
%TO.P,U6,47,VSS*%
%TO.N,GND*%
X149325111Y-109457070D03*
%TO.P,U6,48,VDD*%
%TO.N,+3V3*%
X149678664Y-109810623D03*
D17*
%TO.P,U6,49,VSS*%
%TO.N,GND*%
X150164800Y-105435400D03*
%TD*%
D18*
%TO.P,SW3,1,1*%
%TO.N,Net-(R10-Pad2)*%
X149500000Y-118300000D03*
X149500000Y-122400000D03*
%TO.P,SW3,2,2*%
%TO.N,+3V3*%
X147900000Y-118300000D03*
X147900000Y-122400000D03*
%TD*%
D19*
%TO.P,J7,1,Pin_1*%
%TO.N,+3V3*%
X153974800Y-127124000D03*
D20*
%TO.P,J7,2,Pin_2*%
%TO.N,/PA13*%
X151434800Y-127124000D03*
%TO.P,J7,3,Pin_3*%
%TO.N,/PA14*%
X148894800Y-127124000D03*
%TO.P,J7,4,Pin_4*%
%TO.N,GND*%
X146354800Y-127124000D03*
%TD*%
D21*
%TO.P,C5,1*%
%TO.N,/~{NRST}*%
X149641200Y-97211000D03*
%TO.P,C5,2*%
%TO.N,GND*%
X149641200Y-98171000D03*
%TD*%
D22*
%TO.P,Y2,1,1*%
%TO.N,/XIN*%
X152702600Y-115248400D03*
%TO.P,Y2,2,2*%
%TO.N,GND*%
X154902600Y-115248400D03*
%TO.P,Y2,3,3*%
%TO.N,/XOUT*%
X154902600Y-113548400D03*
%TO.P,Y2,4,4*%
%TO.N,GND*%
X152702600Y-113548400D03*
%TD*%
D23*
%TO.P,C14,1*%
%TO.N,Net-(U6-VCAP1)*%
X152755600Y-99364800D03*
%TO.P,C14,2*%
%TO.N,GND*%
X153851616Y-98268784D03*
%TD*%
D18*
%TO.P,SW1,1,1*%
%TO.N,+3V3*%
X147332800Y-96055400D03*
X147332800Y-91955400D03*
%TO.P,SW1,2,2*%
%TO.N,/BOOT0*%
X148932800Y-96055400D03*
X148932800Y-91955400D03*
%TD*%
D24*
%TO.P,FB2,1*%
%TO.N,VDDA*%
X154455000Y-111125000D03*
%TO.P,FB2,2*%
%TO.N,+3V3*%
X155425000Y-111125000D03*
%TD*%
D25*
%TO.P,D3,1,K*%
%TO.N,GND*%
X154971200Y-118935700D03*
%TO.P,D3,2,A*%
%TO.N,Net-(D3-A)*%
X154971200Y-120810700D03*
%TD*%
D13*
%TO.P,C11,1*%
%TO.N,+3V3*%
X151841200Y-98171000D03*
%TO.P,C11,2*%
%TO.N,GND*%
X151841200Y-97211000D03*
%TD*%
D18*
%TO.P,SW2,1,1*%
%TO.N,/~{NRST}*%
X151332800Y-96055400D03*
X151332800Y-91955400D03*
%TO.P,SW2,2,2*%
%TO.N,GND*%
X152932800Y-96055400D03*
X152932800Y-91955400D03*
%TD*%
D12*
%TO.P,R5,1*%
%TO.N,/~{NRST}*%
X150741200Y-97181000D03*
%TO.P,R5,2*%
%TO.N,+3V3*%
X150741200Y-98201000D03*
%TD*%
D26*
%TO.P,J1,A1,GND*%
%TO.N,GND*%
X153364800Y-84212830D03*
%TO.P,J1,A4,VBUS*%
%TO.N,VBUS*%
X152564800Y-84212830D03*
D27*
%TO.P,J1,A5,CC1*%
%TO.N,Net-(J1-CC1)*%
X151414800Y-84212830D03*
%TO.P,J1,A6,D+*%
%TO.N,/D+*%
X150414800Y-84212830D03*
%TO.P,J1,A7,D-*%
%TO.N,/D-*%
X149914800Y-84212830D03*
%TO.P,J1,A8,SBU1*%
%TO.N,unconnected-(J1-SBU1-PadA8)*%
X148914800Y-84212830D03*
D26*
%TO.P,J1,A9,VBUS*%
%TO.N,VBUS*%
X147764800Y-84212830D03*
%TO.P,J1,A12,GND*%
%TO.N,GND*%
X146964800Y-84212830D03*
%TO.P,J1,B1,GND*%
X146964800Y-84212830D03*
%TO.P,J1,B4,VBUS*%
%TO.N,VBUS*%
X147764800Y-84212830D03*
D27*
%TO.P,J1,B5,CC2*%
%TO.N,Net-(J1-CC2)*%
X148414800Y-84212830D03*
%TO.P,J1,B6,D+*%
%TO.N,/D+*%
X149414800Y-84212830D03*
%TO.P,J1,B7,D-*%
%TO.N,/D-*%
X150914800Y-84212830D03*
%TO.P,J1,B8,SBU2*%
%TO.N,unconnected-(J1-SBU2-PadB8)*%
X151914800Y-84212830D03*
D26*
%TO.P,J1,B9,VBUS*%
%TO.N,VBUS*%
X152564800Y-84212830D03*
%TO.P,J1,B12,GND*%
%TO.N,GND*%
X153364800Y-84212830D03*
D28*
%TO.P,J1,S1,SHIELD*%
X154484800Y-83612830D03*
D29*
X154484800Y-79412830D03*
D28*
X145844800Y-83612830D03*
D29*
X145844800Y-79412830D03*
%TD*%
D30*
%TO.P,R2,1*%
%TO.N,Net-(J1-CC2)*%
X144750000Y-81960000D03*
%TO.P,R2,2*%
%TO.N,GND*%
X144750000Y-80940000D03*
%TD*%
D12*
%TO.P,R8,1*%
%TO.N,Net-(D3-A)*%
X154971200Y-122163200D03*
%TO.P,R8,2*%
%TO.N,/PC13*%
X154971200Y-123183200D03*
%TD*%
%TO.P,R3,1*%
%TO.N,/D-*%
X150190200Y-85596000D03*
%TO.P,R3,2*%
%TO.N,/USB_DN*%
X150190200Y-86616000D03*
%TD*%
D31*
%TO.P,C13,1*%
%TO.N,VDDA*%
X155558811Y-108296389D03*
%TO.P,C13,2*%
%TO.N,GND*%
X154879989Y-108975211D03*
%TD*%
D14*
%TO.P,C4,1*%
%TO.N,GND*%
X150530000Y-113250000D03*
%TO.P,C4,2*%
%TO.N,/PC15*%
X149570000Y-113250000D03*
%TD*%
D32*
%TO.P,Y1,1,1*%
%TO.N,/PC15*%
X150350000Y-114950000D03*
%TO.P,Y1,2,2*%
%TO.N,/PC14*%
X147850000Y-114950000D03*
%TD*%
D31*
%TO.P,C12,1*%
%TO.N,+3V3*%
X148091211Y-110912589D03*
%TO.P,C12,2*%
%TO.N,GND*%
X147412389Y-111591411D03*
%TD*%
D25*
%TO.P,D2,1,K*%
%TO.N,GND*%
X145821200Y-118935700D03*
%TO.P,D2,2,A*%
%TO.N,Net-(D2-A)*%
X145821200Y-120810700D03*
%TD*%
D12*
%TO.P,R7,1*%
%TO.N,Net-(D2-A)*%
X145821200Y-122163200D03*
%TO.P,R7,2*%
%TO.N,+3V3*%
X145821200Y-123183200D03*
%TD*%
D33*
%TO.P,D1,1,K*%
%TO.N,VCC*%
X154120600Y-90605400D03*
%TO.P,D1,2,A*%
%TO.N,VBUS*%
X154120600Y-88505400D03*
%TD*%
D34*
%TO.P,U1,1,IN*%
%TO.N,VCC*%
X150155500Y-90505400D03*
%TO.P,U1,2,GND*%
%TO.N,GND*%
X150155500Y-89555400D03*
%TO.P,U1,3,EN*%
%TO.N,VCC*%
X150155500Y-88605400D03*
%TO.P,U1,4,BP*%
%TO.N,unconnected-(U1-BP-Pad4)*%
X147880500Y-88605400D03*
%TO.P,U1,5,OUT*%
%TO.N,+3V3*%
X147880500Y-90505400D03*
%TD*%
D30*
%TO.P,R1,1*%
%TO.N,Net-(J1-CC1)*%
X155550000Y-81960000D03*
%TO.P,R1,2*%
%TO.N,GND*%
X155550000Y-80940000D03*
%TD*%
D35*
%TO.P,C7,1*%
%TO.N,+3V3*%
X146118000Y-90330400D03*
%TO.P,C7,2*%
%TO.N,GND*%
X146118000Y-88780400D03*
%TD*%
D36*
%TO.P,D4,1*%
%TO.N,+3V3*%
X151221200Y-121910700D03*
%TO.P,D4,2*%
%TO.N,/VB*%
X153121200Y-121910700D03*
%TO.P,D4,3*%
%TO.N,VBAT*%
X152171200Y-120035700D03*
%TD*%
D12*
%TO.P,R10,1*%
%TO.N,/PA0*%
X151021200Y-118313200D03*
%TO.P,R10,2*%
%TO.N,Net-(R10-Pad2)*%
X151021200Y-119333200D03*
%TD*%
D10*
%TO.P,C3,1*%
%TO.N,GND*%
X147620000Y-113250000D03*
%TO.P,C3,2*%
%TO.N,/PC14*%
X148580000Y-113250000D03*
%TD*%
%TO.P,C1,1*%
%TO.N,GND*%
X152232600Y-112166400D03*
%TO.P,C1,2*%
%TO.N,/XIN*%
X153192600Y-112166400D03*
%TD*%
D12*
%TO.P,R4,1*%
%TO.N,/D+*%
X149140000Y-85596000D03*
%TO.P,R4,2*%
%TO.N,/USB_DP*%
X149140000Y-86616000D03*
%TD*%
D37*
%TO.P,C6,1*%
%TO.N,VCC*%
X152418000Y-88780400D03*
%TO.P,C6,2*%
%TO.N,GND*%
X152418000Y-90330400D03*
%TD*%
D19*
%TO.P,J5,1,Pin_1*%
%TO.N,/PB12*%
X142519400Y-78765400D03*
D20*
%TO.P,J5,2,Pin_2*%
%TO.N,/PB13*%
X142519400Y-81305400D03*
%TO.P,J5,3,Pin_3*%
%TO.N,/PB14*%
X142519400Y-83845400D03*
%TO.P,J5,4,Pin_4*%
%TO.N,/PB15*%
X142519400Y-86385400D03*
%TO.P,J5,5,Pin_5*%
%TO.N,/PA8*%
X142519400Y-88925400D03*
%TO.P,J5,6,Pin_6*%
%TO.N,/PA9*%
X142519400Y-91465400D03*
%TO.P,J5,7,Pin_7*%
%TO.N,/PA10*%
X142519400Y-94005400D03*
%TO.P,J5,8,Pin_8*%
%TO.N,/USB_DN*%
X142519400Y-96545400D03*
%TO.P,J5,9,Pin_9*%
%TO.N,/USB_DP*%
X142519400Y-99085400D03*
%TO.P,J5,10,Pin_10*%
%TO.N,/PA15*%
X142519400Y-101625400D03*
%TO.P,J5,11,Pin_11*%
%TO.N,/PB3*%
X142519400Y-104165400D03*
%TO.P,J5,12,Pin_12*%
%TO.N,/PB4*%
X142519400Y-106705400D03*
%TO.P,J5,13,Pin_13*%
%TO.N,/PB5*%
X142519400Y-109245400D03*
%TO.P,J5,14,Pin_14*%
%TO.N,/PB6*%
X142519400Y-111785400D03*
%TO.P,J5,15,Pin_15*%
%TO.N,/PB7*%
X142519400Y-114325400D03*
%TO.P,J5,16,Pin_16*%
%TO.N,/PB8*%
X142519400Y-116865400D03*
%TO.P,J5,17,Pin_17*%
%TO.N,/PB9*%
X142519400Y-119405400D03*
%TO.P,J5,18,Pin_18*%
%TO.N,VCC*%
X142519400Y-121945400D03*
%TO.P,J5,19,Pin_19*%
%TO.N,GND*%
X142519400Y-124485400D03*
%TO.P,J5,20,Pin_20*%
%TO.N,+3V3*%
X142519400Y-127025400D03*
%TD*%
D19*
%TO.P,J6,1,Pin_1*%
%TO.N,VCC*%
X157784800Y-78765400D03*
D20*
%TO.P,J6,2,Pin_2*%
%TO.N,GND*%
X157784800Y-81305400D03*
%TO.P,J6,3,Pin_3*%
%TO.N,+3V3*%
X157784800Y-83845400D03*
%TO.P,J6,4,Pin_4*%
%TO.N,/PB10*%
X157784800Y-86385400D03*
%TO.P,J6,5,Pin_5*%
%TO.N,/PB2*%
X157784800Y-88925400D03*
%TO.P,J6,6,Pin_6*%
%TO.N,/PB1*%
X157784800Y-91465400D03*
%TO.P,J6,7,Pin_7*%
%TO.N,/PB0*%
X157784800Y-94005400D03*
%TO.P,J6,8,Pin_8*%
%TO.N,/MEM_MOSI*%
X157784800Y-96545400D03*
%TO.P,J6,9,Pin_9*%
%TO.N,/MEM_MISO*%
X157784800Y-99085400D03*
%TO.P,J6,10,Pin_10*%
%TO.N,/MEM_CLK*%
X157784800Y-101625400D03*
%TO.P,J6,11,Pin_11*%
%TO.N,/PA4*%
X157784800Y-104165400D03*
%TO.P,J6,12,Pin_12*%
%TO.N,/PA3*%
X157784800Y-106705400D03*
%TO.P,J6,13,Pin_13*%
%TO.N,/PA2*%
X157784800Y-109245400D03*
%TO.P,J6,14,Pin_14*%
%TO.N,/PA1*%
X157784800Y-111785400D03*
%TO.P,J6,15,Pin_15*%
%TO.N,/PA0*%
X157784800Y-114325400D03*
%TO.P,J6,16,Pin_16*%
%TO.N,/~{NRST}*%
X157784800Y-116865400D03*
%TO.P,J6,17,Pin_17*%
%TO.N,/PC15*%
X157784800Y-119405400D03*
%TO.P,J6,18,Pin_18*%
%TO.N,/PC14*%
X157784800Y-121945400D03*
%TO.P,J6,19,Pin_19*%
%TO.N,/PC13*%
X157784800Y-124485400D03*
%TO.P,J6,20,Pin_20*%
%TO.N,/VB*%
X157784800Y-127025400D03*
%TD*%
D38*
%TO.N,GND*%
X151358600Y-105435400D03*
X158597600Y-113055399D03*
X155041600Y-124358400D03*
X148971000Y-105435400D03*
X158597600Y-82575399D03*
X158597600Y-110515399D03*
X158597600Y-125755399D03*
X158597600Y-105435399D03*
X150164800Y-106654600D03*
X141706600Y-110515399D03*
X143814800Y-127787400D03*
X141706600Y-102895399D03*
X141706600Y-87655399D03*
X158597600Y-107975399D03*
X152755600Y-97129600D03*
X158597600Y-92735399D03*
X141503400Y-80213200D03*
X158597600Y-87655399D03*
X149098000Y-99009200D03*
X158597600Y-85115399D03*
X141706600Y-95275399D03*
X141706600Y-118135399D03*
X141706600Y-82575399D03*
X143967200Y-102031800D03*
X158597600Y-123215399D03*
X158597600Y-90195399D03*
X141706600Y-107975399D03*
X141706600Y-120675399D03*
X141706600Y-97815399D03*
X158597600Y-97815399D03*
X158597600Y-118135399D03*
X158826200Y-80238600D03*
X158597600Y-95275399D03*
X151257000Y-87350600D03*
X151434800Y-113284000D03*
X158597600Y-115595399D03*
X141706600Y-105435399D03*
X141706600Y-90195399D03*
X158597600Y-102895399D03*
X158597600Y-100355399D03*
X153466800Y-119888000D03*
X141706600Y-100355399D03*
X141706600Y-113055399D03*
X141706600Y-125755399D03*
X141706600Y-115595399D03*
X156260800Y-126822200D03*
X158597600Y-120675399D03*
X152095200Y-93395800D03*
X141706600Y-123215399D03*
X141706600Y-92735399D03*
X141706600Y-85115399D03*
X150164800Y-104216200D03*
%TO.N,/~{NRST}*%
X151332800Y-94919800D03*
X154292600Y-109956600D03*
%TO.N,VCC*%
X152425400Y-87833200D03*
%TO.N,+3V3*%
X148971000Y-110464600D03*
X150749000Y-99034600D03*
X146118269Y-90885001D03*
X152831800Y-94615000D03*
X145131928Y-104441416D03*
X156006800Y-111125000D03*
%TO.N,VBAT*%
X152196800Y-117424200D03*
X149758400Y-111328200D03*
%TO.N,VBUS*%
X147764800Y-85598000D03*
X152564800Y-85598000D03*
%TO.N,/PA13*%
X145318841Y-103347159D03*
%TO.N,/PA14*%
X144529442Y-105239549D03*
%TO.N,/MEM_MISO*%
X155879305Y-86126149D03*
%TO.N,/PA4*%
X155883941Y-87126141D03*
%TO.N,/PA0*%
X155534800Y-107322800D03*
X151028400Y-117398800D03*
%TO.N,/PC13*%
X151645917Y-110381341D03*
%TO.N,/BOOT0*%
X150063200Y-96088200D03*
X146446818Y-109613800D03*
%TO.N,/D+*%
X151367000Y-80848200D03*
X147894473Y-80844136D03*
%TO.N,/D-*%
X148944473Y-80844136D03*
X152417000Y-80848200D03*
%TO.N,/USB_DP*%
X149140000Y-87350600D03*
X143620000Y-100355400D03*
%TO.N,/USB_DN*%
X144670000Y-100355400D03*
X150190200Y-87350600D03*
%TD*%
D39*
%TO.N,GND*%
X144449800Y-102872600D02*
X144449800Y-102514400D01*
X154765272Y-108975211D02*
X154879989Y-108975211D01*
D40*
X153851616Y-98268784D02*
X154416648Y-98833816D01*
D41*
X153884800Y-84212830D02*
X154484800Y-83612830D01*
D39*
X153125810Y-107335749D02*
X151358600Y-105568539D01*
X153125810Y-107335749D02*
X154765272Y-108975211D01*
X146143130Y-104595711D02*
X146982819Y-105435400D01*
D41*
X146964800Y-84212830D02*
X146444800Y-84212830D01*
D39*
X151358600Y-105568539D02*
X151358600Y-105435400D01*
X146982819Y-105435400D02*
X150164800Y-105435400D01*
X150164800Y-102253419D02*
X150164800Y-105435400D01*
X150164800Y-108617381D02*
X150164800Y-105435400D01*
X149325111Y-109457070D02*
X150164800Y-108617381D01*
X151004489Y-101413730D02*
X150164800Y-102253419D01*
X144449800Y-102514400D02*
X143967200Y-102031800D01*
D41*
X153364800Y-84212830D02*
X153884800Y-84212830D01*
D40*
X154416648Y-98833816D02*
X154416648Y-99659552D01*
D41*
X146444800Y-84212830D02*
X145844800Y-83612830D01*
D42*
%TO.N,/XIN*%
X153702600Y-112676400D02*
X153192600Y-112166400D01*
X153702600Y-114348400D02*
X153702600Y-112676400D01*
X153192600Y-109523861D02*
X152065149Y-108396410D01*
X153192600Y-112166400D02*
X153192600Y-109523861D01*
X152702600Y-115248400D02*
X152802600Y-115248400D01*
X152802600Y-115248400D02*
X153702600Y-114348400D01*
%TO.N,/XOUT*%
X154462600Y-112166400D02*
X153592600Y-111296400D01*
X153592600Y-111296400D02*
X153592600Y-109216753D01*
X153592600Y-109216753D02*
X152418703Y-108042856D01*
X154902600Y-112606400D02*
X154462600Y-112166400D01*
X154902600Y-113548400D02*
X154902600Y-112606400D01*
%TO.N,/PC14*%
X152392600Y-110138073D02*
X151358043Y-109103516D01*
X147850000Y-114950000D02*
X147850000Y-114525100D01*
X149091600Y-116605000D02*
X155289200Y-116605000D01*
X147850000Y-114950000D02*
X147850000Y-115363400D01*
X149614314Y-112640000D02*
X151173715Y-111080600D01*
X155289200Y-116605000D02*
X156140200Y-117456000D01*
X152392600Y-110853000D02*
X152392600Y-110138073D01*
X152165000Y-111080600D02*
X152392600Y-110853000D01*
X149190000Y-112640000D02*
X149614314Y-112640000D01*
X147850000Y-115363400D02*
X149091600Y-116605000D01*
X156140200Y-120300800D02*
X157784800Y-121945400D01*
X148580000Y-113795100D02*
X148580000Y-113250000D01*
X156140200Y-117456000D02*
X156140200Y-120300800D01*
X151173715Y-111080600D02*
X152165000Y-111080600D01*
X148580000Y-113250000D02*
X149190000Y-112640000D01*
X147850000Y-114525100D02*
X148580000Y-113795100D01*
%TO.N,/PC15*%
X152792600Y-111018685D02*
X152792600Y-109830967D01*
X149570000Y-113250000D02*
X151339400Y-111480600D01*
X149570000Y-113756000D02*
X149570000Y-113250000D01*
X151339400Y-111480600D02*
X152330686Y-111480600D01*
X152792600Y-109830967D02*
X151711596Y-108749963D01*
X151205000Y-116205000D02*
X155454886Y-116205000D01*
X156540200Y-117290314D02*
X156540200Y-118160800D01*
X156540200Y-118160800D02*
X157784800Y-119405400D01*
X155454886Y-116205000D02*
X156540200Y-117290314D01*
X150350000Y-114950000D02*
X150350000Y-115350000D01*
X150350000Y-114950000D02*
X150350000Y-114536000D01*
X152330686Y-111480600D02*
X152792600Y-111018685D01*
X150350000Y-115350000D02*
X151205000Y-116205000D01*
X150350000Y-114536000D02*
X149570000Y-113756000D01*
%TO.N,/~{NRST}*%
X152772256Y-107689303D02*
X154292600Y-109209647D01*
X151332800Y-94919800D02*
X151332800Y-96055400D01*
X149641200Y-97211000D02*
X150711200Y-97211000D01*
X151332800Y-91955400D02*
X151332800Y-94919800D01*
X150741200Y-97181000D02*
X150741200Y-96647000D01*
X150741200Y-96647000D02*
X151332800Y-96055400D01*
X150711200Y-97211000D02*
X150741200Y-97181000D01*
X154292600Y-109209647D02*
X154292600Y-109956600D01*
D40*
%TO.N,VCC*%
X149545000Y-88605400D02*
X150155500Y-88605400D01*
X150155500Y-88605400D02*
X152243000Y-88605400D01*
X149552100Y-90505400D02*
X148996400Y-89949700D01*
X154120600Y-89833200D02*
X154120600Y-90605400D01*
X152418000Y-88780400D02*
X153067800Y-88780400D01*
X148996400Y-89154000D02*
X149545000Y-88605400D01*
X150155500Y-90505400D02*
X149552100Y-90505400D01*
X153067800Y-88780400D02*
X154120600Y-89833200D01*
X152418000Y-87840600D02*
X152425400Y-87833200D01*
X148996400Y-89949700D02*
X148996400Y-89154000D01*
X152243000Y-88605400D02*
X152418000Y-88780400D01*
X152418000Y-88780400D02*
X152418000Y-87840600D01*
D39*
%TO.N,+3V3*%
X146463200Y-123183200D02*
X147246400Y-122400000D01*
X145821200Y-123183200D02*
X146463200Y-123183200D01*
D42*
X150741200Y-98201000D02*
X150741200Y-99026800D01*
X151841200Y-98933000D02*
X151841200Y-98171000D01*
X151460200Y-100250913D02*
X151460200Y-99314000D01*
D40*
X146118000Y-90330400D02*
X146118000Y-90884732D01*
D39*
X144523112Y-103832600D02*
X145131928Y-104441416D01*
D42*
X150741200Y-99026800D02*
X150749000Y-99034600D01*
D39*
X144449800Y-103832600D02*
X144523112Y-103832600D01*
X147900000Y-118300000D02*
X147900000Y-122400000D01*
D42*
X150741200Y-98201000D02*
X151811200Y-98201000D01*
D43*
X147332800Y-91955400D02*
X147332800Y-96055400D01*
D39*
X149024687Y-110464600D02*
X148971000Y-110464600D01*
D40*
X148969400Y-123469400D02*
X147900000Y-122400000D01*
X146118000Y-90884732D02*
X146118269Y-90885001D01*
D43*
X147332800Y-91884400D02*
X147880500Y-91336700D01*
D39*
X149678664Y-109810623D02*
X149024687Y-110464600D01*
D40*
X151221200Y-123469400D02*
X148969400Y-123469400D01*
D39*
X148091211Y-110912589D02*
X148523011Y-110912589D01*
X145789577Y-104949264D02*
X145281729Y-104441416D01*
D43*
X147332800Y-91955400D02*
X147332800Y-91884400D01*
D40*
X151221200Y-121910700D02*
X151221200Y-124370400D01*
D42*
X151811200Y-98201000D02*
X151841200Y-98171000D01*
D43*
X147880500Y-91336700D02*
X147880500Y-90505400D01*
D40*
X151221200Y-121910700D02*
X151221200Y-123469400D01*
D39*
X145281729Y-104441416D02*
X145131928Y-104441416D01*
D40*
X146293000Y-90505400D02*
X147880500Y-90505400D01*
D42*
X151460200Y-99314000D02*
X151841200Y-98933000D01*
X150650936Y-101060177D02*
X151460200Y-100250913D01*
D39*
X148523011Y-110912589D02*
X148971000Y-110464600D01*
X147246400Y-122400000D02*
X147900000Y-122400000D01*
D40*
X151221200Y-124370400D02*
X153974800Y-127124000D01*
D39*
X155425000Y-111125000D02*
X156006800Y-111125000D01*
D40*
X146118000Y-90330400D02*
X146293000Y-90505400D01*
%TO.N,VBAT*%
X152171200Y-118343200D02*
X152191200Y-118323200D01*
D42*
X150945917Y-110648683D02*
X150266400Y-111328200D01*
X150650936Y-109810623D02*
X150945917Y-110105604D01*
D40*
X152191200Y-117429800D02*
X152196800Y-117424200D01*
D42*
X150266400Y-111328200D02*
X149758400Y-111328200D01*
D40*
X152191200Y-118323200D02*
X152191200Y-117429800D01*
D42*
X150945917Y-110105604D02*
X150945917Y-110648683D01*
D40*
X152171200Y-120035700D02*
X152171200Y-118343200D01*
D39*
%TO.N,VDDA*%
X154455000Y-111125000D02*
X154455000Y-111102696D01*
X153479363Y-106982196D02*
X154785431Y-108288264D01*
X154455000Y-111102696D02*
X155600400Y-109957296D01*
X155550686Y-108288264D02*
X155558811Y-108296389D01*
X155600400Y-109957296D02*
X155600400Y-108337978D01*
X154785431Y-108288264D02*
X155550686Y-108288264D01*
X155600400Y-108337978D02*
X155558811Y-108296389D01*
D41*
%TO.N,VBUS*%
X154120600Y-87852000D02*
X154120600Y-88505400D01*
X152564800Y-84212830D02*
X152564800Y-85598000D01*
X147764800Y-84212830D02*
X147764800Y-85598000D01*
X152564800Y-86296200D02*
X154120600Y-87852000D01*
X152564800Y-85598000D02*
X152564800Y-86296200D01*
D39*
%TO.N,Net-(D2-A)*%
X145821200Y-122163200D02*
X145821200Y-120810700D01*
D42*
%TO.N,Net-(D3-A)*%
X154971200Y-122163200D02*
X154971200Y-120810700D01*
D40*
%TO.N,/VB*%
X153822400Y-125349000D02*
X156108400Y-125349000D01*
X153121200Y-124647800D02*
X153822400Y-125349000D01*
X153121200Y-121910700D02*
X153121200Y-124647800D01*
X156108400Y-125349000D02*
X157784800Y-127025400D01*
D39*
%TO.N,Net-(J1-CC1)*%
X151414800Y-83179600D02*
X152634400Y-81960000D01*
X151414800Y-84212830D02*
X151414800Y-83179600D01*
X152634400Y-81960000D02*
X155550000Y-81960000D01*
%TO.N,Net-(J1-CC2)*%
X148414800Y-82832000D02*
X147542800Y-81960000D01*
X147542800Y-81960000D02*
X144750000Y-81960000D01*
X148414800Y-84212830D02*
X148414800Y-82832000D01*
%TO.N,/PA13*%
X145601686Y-103347159D02*
X145318841Y-103347159D01*
X146496684Y-104242157D02*
X145601686Y-103347159D01*
%TO.N,/PA14*%
X145789577Y-105921536D02*
X145532041Y-105664000D01*
X144953893Y-105664000D02*
X144529442Y-105239549D01*
X145532041Y-105664000D02*
X144953893Y-105664000D01*
D42*
%TO.N,/PB12*%
X145343000Y-85537628D02*
X145343000Y-91460572D01*
X144291000Y-84485628D02*
X145343000Y-85537628D01*
X147770000Y-97986000D02*
X147770000Y-99151513D01*
X142519400Y-78765400D02*
X143814800Y-80060800D01*
X143814800Y-80060800D02*
X143814800Y-82035114D01*
X146469400Y-96685400D02*
X147770000Y-97986000D01*
X145343000Y-91460572D02*
X146469400Y-92586974D01*
X147770000Y-99151513D02*
X149678664Y-101060177D01*
X146469400Y-92586974D02*
X146469400Y-96685400D01*
X144291000Y-82511314D02*
X144291000Y-84485628D01*
X143814800Y-82035114D02*
X144291000Y-82511314D01*
%TO.N,/PB13*%
X146069400Y-92752659D02*
X146069400Y-96851086D01*
X142519400Y-81305400D02*
X143891000Y-82677000D01*
X147370000Y-99458619D02*
X149325111Y-101413730D01*
X144943000Y-91626257D02*
X146069400Y-92752659D01*
X146069400Y-96851086D02*
X147370000Y-98151686D01*
X143891000Y-82677000D02*
X143891000Y-84651314D01*
X144943000Y-85703314D02*
X144943000Y-91626257D01*
X147370000Y-98151686D02*
X147370000Y-99458619D01*
X143891000Y-84651314D02*
X144943000Y-85703314D01*
%TO.N,/PB14*%
X146970000Y-99765727D02*
X148971557Y-101767284D01*
X145669400Y-92918344D02*
X145669400Y-97016772D01*
X145669400Y-97016772D02*
X146970000Y-98317372D01*
X146970000Y-98317372D02*
X146970000Y-99765727D01*
X144543000Y-91791942D02*
X145669400Y-92918344D01*
X142519400Y-83845400D02*
X144543000Y-85869000D01*
X144543000Y-85869000D02*
X144543000Y-91791942D01*
%TO.N,/PB15*%
X146570000Y-100072833D02*
X148618004Y-102120837D01*
X142519400Y-86385400D02*
X144143000Y-88009000D01*
X146570000Y-98483058D02*
X146570000Y-100072833D01*
X145269400Y-97182458D02*
X146570000Y-98483058D01*
X144143000Y-88009000D02*
X144143000Y-91957628D01*
X145269400Y-93084029D02*
X145269400Y-97182458D01*
X144143000Y-91957628D02*
X145269400Y-93084029D01*
%TO.N,/PA8*%
X144869400Y-97348144D02*
X146170000Y-98648744D01*
X146170000Y-100379939D02*
X148264451Y-102474390D01*
X144869400Y-93249714D02*
X144869400Y-97348144D01*
X146170000Y-98648744D02*
X146170000Y-100379939D01*
X143687800Y-90093800D02*
X143687800Y-92068114D01*
X143687800Y-92068114D02*
X144869400Y-93249714D01*
X142519400Y-88925400D02*
X143687800Y-90093800D01*
%TO.N,/PA9*%
X145770000Y-98814430D02*
X145770000Y-100687047D01*
X144469400Y-97513830D02*
X145770000Y-98814430D01*
X142519400Y-91465400D02*
X144469400Y-93415400D01*
X144469400Y-93415400D02*
X144469400Y-97513830D01*
X145770000Y-100687047D02*
X147910897Y-102827944D01*
%TO.N,/PA10*%
X144069400Y-97679516D02*
X145370000Y-98980116D01*
X142519400Y-94005400D02*
X144069400Y-95555400D01*
X145370000Y-98980116D02*
X145370000Y-100994153D01*
X145370000Y-100994153D02*
X147557344Y-103181497D01*
X144069400Y-95555400D02*
X144069400Y-97679516D01*
D39*
%TO.N,/PA15*%
X145017196Y-106788800D02*
X143804442Y-105576046D01*
X143804442Y-105576046D02*
X143804442Y-102910442D01*
X145629419Y-106788800D02*
X145017196Y-106788800D01*
X146143130Y-106275089D02*
X145629419Y-106788800D01*
X143804442Y-102910442D02*
X142519400Y-101625400D01*
%TO.N,/PB3*%
X145886527Y-107238800D02*
X146496684Y-106628643D01*
X142519400Y-104165400D02*
X142519400Y-104927400D01*
X142519400Y-104927400D02*
X144830800Y-107238800D01*
X144830800Y-107238800D02*
X145886527Y-107238800D01*
%TO.N,/PB4*%
X142519400Y-106705400D02*
X143661004Y-106705400D01*
X146143633Y-107688800D02*
X146850237Y-106982196D01*
X143661004Y-106705400D02*
X144644404Y-107688800D01*
X144644404Y-107688800D02*
X146143633Y-107688800D01*
D42*
%TO.N,/PB5*%
X147203790Y-107335749D02*
X146425739Y-108113800D01*
X146425739Y-108113800D02*
X145625314Y-108113800D01*
X145625314Y-108113800D02*
X144493714Y-109245400D01*
X144493714Y-109245400D02*
X142519400Y-109245400D01*
%TO.N,/PB6*%
X147557344Y-107689303D02*
X146732847Y-108513800D01*
X146732847Y-108513800D02*
X145791000Y-108513800D01*
X145791000Y-108513800D02*
X142519400Y-111785400D01*
%TO.N,/PB7*%
X147910897Y-108042856D02*
X147039953Y-108913800D01*
X145956686Y-108913800D02*
X143941800Y-110928686D01*
X147039953Y-108913800D02*
X145956686Y-108913800D01*
X143941800Y-110928686D02*
X143941800Y-112903000D01*
X143941800Y-112903000D02*
X142519400Y-114325400D01*
%TO.N,/PB8*%
X144526000Y-112841967D02*
X144526000Y-114858800D01*
X148618004Y-108749963D02*
X144526000Y-112841967D01*
X144526000Y-114858800D02*
X142519400Y-116865400D01*
%TO.N,/PB9*%
X144926000Y-116998800D02*
X142519400Y-119405400D01*
X148971557Y-109103516D02*
X144926000Y-113149073D01*
X144926000Y-113149073D02*
X144926000Y-116998800D01*
%TO.N,/PB10*%
X152418600Y-101413833D02*
X151711596Y-102120837D01*
X154402367Y-91799833D02*
X154402367Y-96511061D01*
X152908000Y-98425000D02*
X153620884Y-99137884D01*
X154402367Y-96511061D02*
X152908000Y-98005428D01*
X154711400Y-89458800D02*
X154711400Y-91490800D01*
X153620884Y-99595532D02*
X152418600Y-100797816D01*
X157784800Y-86385400D02*
X154711400Y-89458800D01*
X153620884Y-99137884D02*
X153620884Y-99595532D01*
X152418600Y-100797816D02*
X152418600Y-101413833D01*
X152908000Y-98005428D02*
X152908000Y-98425000D01*
X154711400Y-91490800D02*
X154402367Y-91799833D01*
%TO.N,/PB1*%
X156165600Y-97033228D02*
X156165600Y-93084600D01*
X154383247Y-100863400D02*
X154807509Y-100863400D01*
X152418703Y-102827944D02*
X154383247Y-100863400D01*
X155740200Y-99930709D02*
X155740200Y-97458628D01*
X154807509Y-100863400D02*
X155740200Y-99930709D01*
X155740200Y-97458628D02*
X156165600Y-97033228D01*
X156165600Y-93084600D02*
X157784800Y-91465400D01*
%TO.N,/PB0*%
X152772256Y-103181497D02*
X154690353Y-101263400D01*
X156140200Y-100096395D02*
X156140200Y-97624314D01*
X154973195Y-101263400D02*
X156140200Y-100096395D01*
X154690353Y-101263400D02*
X154973195Y-101263400D01*
X156140200Y-97624314D02*
X156565600Y-97198914D01*
X156565600Y-97198914D02*
X156565600Y-95224600D01*
X156565600Y-95224600D02*
X157784800Y-94005400D01*
%TO.N,/MEM_MOSI*%
X155138881Y-101663400D02*
X156540200Y-100262081D01*
X156540200Y-97790000D02*
X157784800Y-96545400D01*
X156540200Y-100262081D02*
X156540200Y-97790000D01*
X154997461Y-101663400D02*
X155138881Y-101663400D01*
X153125810Y-103535051D02*
X154997461Y-101663400D01*
%TO.N,/MEM_MISO*%
X157784800Y-99583167D02*
X157784800Y-99085400D01*
X153479363Y-103888604D02*
X157784800Y-99583167D01*
%TO.N,/MEM_CLK*%
X156449673Y-101625400D02*
X157784800Y-101625400D01*
X153832916Y-104242157D02*
X156449673Y-101625400D01*
%TO.N,/PA4*%
X157765800Y-104146400D02*
X157784800Y-104165400D01*
X154186470Y-104595711D02*
X154635781Y-104146400D01*
X154635781Y-104146400D02*
X157765800Y-104146400D01*
%TO.N,/PA3*%
X154942887Y-104546400D02*
X155625800Y-104546400D01*
X154540023Y-104949264D02*
X154942887Y-104546400D01*
X155625800Y-104546400D02*
X157784800Y-106705400D01*
%TO.N,/PA2*%
X154841287Y-106222800D02*
X156019422Y-106222800D01*
X154540023Y-105921536D02*
X154841287Y-106222800D01*
X156634800Y-108095400D02*
X157784800Y-109245400D01*
X156019422Y-106222800D02*
X156634800Y-106838178D01*
X156634800Y-106838178D02*
X156634800Y-108095400D01*
%TO.N,/PA1*%
X155853736Y-106622800D02*
X154534181Y-106622800D01*
X154534181Y-106622800D02*
X154186470Y-106275089D01*
X157784800Y-111785400D02*
X156234800Y-110235400D01*
X156234800Y-110235400D02*
X156234800Y-107003864D01*
X156234800Y-107003864D02*
X155853736Y-106622800D01*
D39*
%TO.N,/PA0*%
X151021200Y-117406000D02*
X151028400Y-117398800D01*
D42*
X153832916Y-106628643D02*
X154527073Y-107322800D01*
X154527073Y-107322800D02*
X155534800Y-107322800D01*
D39*
X151021200Y-118313200D02*
X151021200Y-117406000D01*
D42*
%TO.N,/PC13*%
X151645917Y-110098498D02*
X151645917Y-110381341D01*
X156273400Y-124485400D02*
X154971200Y-123183200D01*
X151004489Y-109457070D02*
X151645917Y-110098498D01*
X157784800Y-124485400D02*
X156273400Y-124485400D01*
%TO.N,/BOOT0*%
X147347061Y-109313800D02*
X146746818Y-109313800D01*
X148932800Y-96055400D02*
X148932800Y-96789400D01*
X148932800Y-96789400D02*
X148541200Y-97181000D01*
X148932800Y-96055400D02*
X150030400Y-96055400D01*
X150030400Y-96055400D02*
X150063200Y-96088200D01*
X148264451Y-108396410D02*
X147347061Y-109313800D01*
X146746818Y-109313800D02*
X146446818Y-109613800D01*
X148932800Y-91955400D02*
X148932800Y-96055400D01*
%TO.N,/PB2*%
X153695400Y-100380800D02*
X154572214Y-100380800D01*
X156489400Y-90220800D02*
X157784800Y-88925400D01*
X156489400Y-92195114D02*
X156489400Y-90220800D01*
X152818600Y-101720939D02*
X152818600Y-100963502D01*
X153401302Y-100380800D02*
X153695400Y-100380800D01*
X155340200Y-99612814D02*
X155340200Y-97292942D01*
X155765600Y-96867542D02*
X155765600Y-92918914D01*
X152818600Y-100963502D02*
X153401302Y-100380800D01*
X155765600Y-92918914D02*
X156489400Y-92195114D01*
X152065149Y-102474390D02*
X152818600Y-101720939D01*
X155340200Y-97292942D02*
X155765600Y-96867542D01*
X154572214Y-100380800D02*
X155340200Y-99612814D01*
D39*
%TO.N,Net-(R10-Pad2)*%
X149500000Y-118300000D02*
X149500000Y-122400000D01*
X149542000Y-118300000D02*
X149500000Y-118300000D01*
X150575200Y-119333200D02*
X149542000Y-118300000D01*
X151021200Y-119333200D02*
X150575200Y-119333200D01*
D42*
%TO.N,/D+*%
X148194472Y-81863072D02*
X148194472Y-81144135D01*
X149414800Y-83282829D02*
X149439800Y-83257829D01*
X151666999Y-81148199D02*
X151367000Y-80848200D01*
X149414800Y-85321200D02*
X149140000Y-85596000D01*
X148194472Y-81144135D02*
X147894473Y-80844136D01*
X149439800Y-83108400D02*
X148194472Y-81863072D01*
X150439800Y-82896600D02*
X151666999Y-81669401D01*
X150439800Y-83257829D02*
X150439800Y-82896600D01*
X150414800Y-84212830D02*
X150414800Y-83282829D01*
X151666999Y-81669401D02*
X151666999Y-81148199D01*
X149414800Y-84212830D02*
X149414800Y-85321200D01*
X150414800Y-83282829D02*
X150439800Y-83257829D01*
X149439800Y-83257829D02*
X149439800Y-83108400D01*
X149414800Y-84212830D02*
X149414800Y-83282829D01*
%TO.N,/D-*%
X150914800Y-83282829D02*
X150889800Y-83257829D01*
X149914800Y-85320600D02*
X150190200Y-85596000D01*
X149914800Y-84212830D02*
X149914800Y-83282829D01*
X149889800Y-82922000D02*
X148644474Y-81676674D01*
X149914800Y-84212830D02*
X149914800Y-85320600D01*
X150889800Y-83083000D02*
X152117001Y-81855799D01*
X148644474Y-81144135D02*
X148944473Y-80844136D01*
X150889800Y-83257829D02*
X150889800Y-83083000D01*
X150914800Y-84212830D02*
X150914800Y-83282829D01*
X149914800Y-83282829D02*
X149889800Y-83257829D01*
X148644474Y-81676674D02*
X148644474Y-81144135D01*
X149889800Y-83257829D02*
X149889800Y-82922000D01*
X152117001Y-81148199D02*
X152417000Y-80848200D01*
X152117001Y-81855799D02*
X152117001Y-81148199D01*
D39*
%TO.N,Net-(U6-VCAP1)*%
X151993600Y-101131727D02*
X151993600Y-100318553D01*
X151358043Y-101767284D02*
X151993600Y-101131727D01*
X152755600Y-99556553D02*
X152755600Y-99364800D01*
X151993600Y-100318553D02*
X152755600Y-99556553D01*
D42*
%TO.N,/USB_DP*%
X143919999Y-100655399D02*
X143620000Y-100355400D01*
X142519400Y-99254800D02*
X143620000Y-100355400D01*
X146454521Y-103457532D02*
X143919999Y-100923010D01*
X146850237Y-103888604D02*
X146454521Y-103492888D01*
X149140000Y-86616000D02*
X149140000Y-87350600D01*
X146454521Y-103492888D02*
X146454521Y-103457532D01*
X143919999Y-100923010D02*
X143919999Y-100655399D01*
X142519400Y-99085400D02*
X142519400Y-99254800D01*
%TO.N,/USB_DN*%
X143738600Y-97914402D02*
X142519400Y-96695202D01*
X146808074Y-103139335D02*
X146772718Y-103139335D01*
X144670000Y-100355400D02*
X143738600Y-99424000D01*
X150190200Y-86616000D02*
X150190200Y-87350600D01*
X146772718Y-103139335D02*
X144370001Y-100736618D01*
X147203790Y-103535051D02*
X146808074Y-103139335D01*
X144370001Y-100736618D02*
X144370001Y-100655399D01*
X143738600Y-99424000D02*
X143738600Y-97914402D01*
X144370001Y-100655399D02*
X144670000Y-100355400D01*
X142519400Y-96695202D02*
X142519400Y-96545400D01*
%TD*%
%TA.AperFunction,Conductor*%
%TO.N,GND*%
G36*
X155158292Y-116979502D02*
G01*
X155179266Y-116996405D01*
X155748795Y-117565934D01*
X155782821Y-117628246D01*
X155785700Y-117655029D01*
X155785700Y-118112851D01*
X155765698Y-118180972D01*
X155712042Y-118227465D01*
X155641768Y-118237569D01*
X155615668Y-118230907D01*
X155534337Y-118200572D01*
X155475067Y-118194200D01*
X155225200Y-118194200D01*
X155225200Y-119677199D01*
X155475047Y-119677199D01*
X155475070Y-119677197D01*
X155534339Y-119670826D01*
X155534341Y-119670826D01*
X155615667Y-119640493D01*
X155686483Y-119635427D01*
X155748795Y-119669452D01*
X155782820Y-119731764D01*
X155785700Y-119758548D01*
X155785700Y-119987317D01*
X155765698Y-120055438D01*
X155712042Y-120101931D01*
X155641768Y-120112035D01*
X155615671Y-120105373D01*
X155534450Y-120075080D01*
X155504779Y-120071890D01*
X155475110Y-120068700D01*
X154467299Y-120068700D01*
X154467278Y-120068702D01*
X154407953Y-120075079D01*
X154273705Y-120125150D01*
X154159010Y-120211010D01*
X154073150Y-120325705D01*
X154023080Y-120459950D01*
X154016700Y-120519283D01*
X154016700Y-121102100D01*
X154016702Y-121102121D01*
X154023079Y-121161446D01*
X154023079Y-121161448D01*
X154023080Y-121161450D01*
X154063400Y-121269555D01*
X154073150Y-121295694D01*
X154159010Y-121410389D01*
X154273705Y-121496249D01*
X154273707Y-121496249D01*
X154273709Y-121496251D01*
X154407950Y-121546320D01*
X154425370Y-121548192D01*
X154490961Y-121575360D01*
X154531453Y-121633677D01*
X154533989Y-121704628D01*
X154501000Y-121762563D01*
X154467160Y-121796404D01*
X154467159Y-121796404D01*
X154439496Y-121850697D01*
X154411146Y-121906338D01*
X154404959Y-121945404D01*
X154396700Y-121997550D01*
X154396700Y-122328851D01*
X154411145Y-122420060D01*
X154467159Y-122529995D01*
X154521269Y-122584105D01*
X154555295Y-122646417D01*
X154550230Y-122717232D01*
X154521269Y-122762295D01*
X154467161Y-122816402D01*
X154467159Y-122816404D01*
X154429028Y-122891242D01*
X154411146Y-122926338D01*
X154397533Y-123012288D01*
X154396700Y-123017550D01*
X154396700Y-123348851D01*
X154411145Y-123440060D01*
X154463240Y-123542304D01*
X154467160Y-123549996D01*
X154554404Y-123637240D01*
X154664338Y-123693254D01*
X154755547Y-123707700D01*
X154942169Y-123707699D01*
X155010290Y-123727701D01*
X155031265Y-123744604D01*
X155916066Y-124629405D01*
X155950092Y-124691717D01*
X155945027Y-124762532D01*
X155902480Y-124819368D01*
X155835960Y-124844179D01*
X155826971Y-124844500D01*
X154083561Y-124844500D01*
X154015440Y-124824498D01*
X153994466Y-124807595D01*
X153662605Y-124475734D01*
X153628579Y-124413422D01*
X153625700Y-124386639D01*
X153625700Y-122723691D01*
X153639433Y-122666488D01*
X153660698Y-122624755D01*
X153675700Y-122530034D01*
X153675700Y-121291366D01*
X153660698Y-121196645D01*
X153629190Y-121134807D01*
X153602526Y-121082476D01*
X153511923Y-120991873D01*
X153397753Y-120933701D01*
X153333036Y-120923451D01*
X153303034Y-120918700D01*
X152939366Y-120918700D01*
X152926279Y-120920772D01*
X152841229Y-120934242D01*
X152770818Y-120925142D01*
X152716505Y-120879419D01*
X152695533Y-120811590D01*
X152707714Y-120759209D01*
X152707635Y-120759184D01*
X152707934Y-120758262D01*
X152709253Y-120752589D01*
X152710698Y-120749755D01*
X152725700Y-120655034D01*
X152725700Y-119416366D01*
X152710698Y-119321645D01*
X152710698Y-119321644D01*
X152689433Y-119279909D01*
X152675700Y-119222707D01*
X152675700Y-119189700D01*
X154017201Y-119189700D01*
X154017201Y-119227046D01*
X154017202Y-119227070D01*
X154023573Y-119286338D01*
X154073592Y-119420447D01*
X154159369Y-119535030D01*
X154273952Y-119620807D01*
X154408062Y-119670827D01*
X154467340Y-119677199D01*
X154717200Y-119677199D01*
X154717200Y-119189700D01*
X154017201Y-119189700D01*
X152675700Y-119189700D01*
X152675700Y-118970063D01*
X152695702Y-118901942D01*
X152749358Y-118855449D01*
X152819632Y-118845345D01*
X152858904Y-118857797D01*
X152887931Y-118872587D01*
X152897199Y-118874055D01*
X152897200Y-118874054D01*
X152897200Y-118577200D01*
X153405200Y-118577200D01*
X153405200Y-118874055D01*
X153414468Y-118872587D01*
X153414469Y-118872587D01*
X153525670Y-118815927D01*
X153525675Y-118815924D01*
X153613926Y-118727673D01*
X153637350Y-118681700D01*
X154017200Y-118681700D01*
X154717200Y-118681700D01*
X154717200Y-118194200D01*
X154467353Y-118194200D01*
X154467329Y-118194202D01*
X154408061Y-118200573D01*
X154273952Y-118250592D01*
X154159369Y-118336369D01*
X154073592Y-118450952D01*
X154023572Y-118585062D01*
X154017200Y-118644332D01*
X154017200Y-118681700D01*
X153637350Y-118681700D01*
X153670586Y-118616471D01*
X153676807Y-118577200D01*
X153405200Y-118577200D01*
X152897200Y-118577200D01*
X152897200Y-117772344D01*
X153405200Y-117772344D01*
X153405200Y-118069200D01*
X153676806Y-118069200D01*
X153676806Y-118069199D01*
X153670587Y-118029933D01*
X153670585Y-118029928D01*
X153613926Y-117918726D01*
X153525673Y-117830473D01*
X153414471Y-117773813D01*
X153405200Y-117772344D01*
X152897200Y-117772344D01*
X152897200Y-117772343D01*
X152864585Y-117744490D01*
X152825774Y-117685041D01*
X152825264Y-117614046D01*
X152828601Y-117603993D01*
X152836950Y-117581979D01*
X152856107Y-117424203D01*
X152856107Y-117424196D01*
X152836950Y-117266420D01*
X152822815Y-117229150D01*
X152785279Y-117130178D01*
X152779826Y-117059394D01*
X152813508Y-116996896D01*
X152875632Y-116962529D01*
X152903092Y-116959500D01*
X155090171Y-116959500D01*
X155158292Y-116979502D01*
G37*
%TD.AperFunction*%
%TA.AperFunction,Conductor*%
G36*
X151651007Y-111855102D02*
G01*
X151678697Y-111879270D01*
X151706993Y-111912400D01*
X152360600Y-111912400D01*
X152428721Y-111932402D01*
X152475214Y-111986058D01*
X152486600Y-112038400D01*
X152486600Y-112294400D01*
X152466598Y-112362521D01*
X152412942Y-112409014D01*
X152360600Y-112420400D01*
X151706994Y-112420400D01*
X151713212Y-112459666D01*
X151713214Y-112459671D01*
X151769873Y-112570873D01*
X151804357Y-112605357D01*
X151838381Y-112667669D01*
X151833315Y-112738485D01*
X151820026Y-112764452D01*
X151763336Y-112849294D01*
X151748600Y-112923377D01*
X151748600Y-113294400D01*
X152830600Y-113294400D01*
X152898721Y-113314402D01*
X152945214Y-113368058D01*
X152956600Y-113420400D01*
X152956600Y-113676400D01*
X152936598Y-113744521D01*
X152882942Y-113791014D01*
X152830600Y-113802400D01*
X151748601Y-113802400D01*
X151748601Y-114173422D01*
X151763337Y-114247505D01*
X151763338Y-114247509D01*
X151817086Y-114327949D01*
X151838301Y-114395702D01*
X151819518Y-114464168D01*
X151817086Y-114467952D01*
X151762866Y-114549097D01*
X151748100Y-114623330D01*
X151748100Y-114623333D01*
X151748100Y-115210586D01*
X151748101Y-115724500D01*
X151728099Y-115792621D01*
X151674443Y-115839114D01*
X151622101Y-115850500D01*
X151404029Y-115850500D01*
X151335908Y-115830498D01*
X151314934Y-115813595D01*
X151141404Y-115640065D01*
X151107378Y-115577753D01*
X151104499Y-115550970D01*
X151104499Y-114024936D01*
X151104498Y-114024927D01*
X151089734Y-113950699D01*
X151033484Y-113866515D01*
X151009597Y-113850555D01*
X150964069Y-113796078D01*
X150955222Y-113725634D01*
X150985863Y-113661590D01*
X150990508Y-113656690D01*
X150992727Y-113654471D01*
X151049386Y-113543271D01*
X151055607Y-113504000D01*
X150402000Y-113504000D01*
X150333879Y-113483998D01*
X150287386Y-113430342D01*
X150276000Y-113378000D01*
X150276000Y-113122000D01*
X150296002Y-113053879D01*
X150349658Y-113007386D01*
X150402000Y-112996000D01*
X151055606Y-112996000D01*
X151055606Y-112995999D01*
X151049387Y-112956733D01*
X151049385Y-112956728D01*
X150992726Y-112845526D01*
X150904475Y-112757275D01*
X150904470Y-112757271D01*
X150833486Y-112721103D01*
X150781871Y-112672355D01*
X150764806Y-112603440D01*
X150787707Y-112536239D01*
X150801584Y-112519753D01*
X151449334Y-111872004D01*
X151511646Y-111837979D01*
X151538429Y-111835100D01*
X151582886Y-111835100D01*
X151651007Y-111855102D01*
G37*
%TD.AperFunction*%
%TA.AperFunction,Conductor*%
G36*
X153744019Y-107799645D02*
G01*
X153789076Y-107828603D01*
X154477344Y-108516871D01*
X154477365Y-108516894D01*
X154552405Y-108591934D01*
X154552410Y-108591938D01*
X154552412Y-108591940D01*
X154552413Y-108591941D01*
X154552415Y-108591942D01*
X154638945Y-108641900D01*
X154638949Y-108641902D01*
X154659340Y-108647365D01*
X154659345Y-108647368D01*
X154659346Y-108647367D01*
X154735469Y-108667765D01*
X154843111Y-108667765D01*
X154843127Y-108667764D01*
X154879562Y-108667764D01*
X154947683Y-108687766D01*
X154968657Y-108704669D01*
X155150104Y-108886116D01*
X155184130Y-108948428D01*
X155179065Y-109019243D01*
X155150104Y-109064306D01*
X154969084Y-109245326D01*
X154906772Y-109279352D01*
X154835957Y-109274287D01*
X154790894Y-109245326D01*
X154640897Y-109095329D01*
X154620875Y-109069238D01*
X154576271Y-108991979D01*
X154510268Y-108925976D01*
X153600985Y-108016693D01*
X153566959Y-107954381D01*
X153572024Y-107883566D01*
X153600989Y-107838498D01*
X153610890Y-107828598D01*
X153673204Y-107794576D01*
X153744019Y-107799645D01*
G37*
%TD.AperFunction*%
%TA.AperFunction,Conductor*%
G36*
X150223866Y-101615852D02*
G01*
X150241503Y-101627187D01*
X150269019Y-101648301D01*
X150322447Y-101667747D01*
X150379619Y-101709841D01*
X150397754Y-101743053D01*
X150416804Y-101795393D01*
X150445098Y-101832267D01*
X150445113Y-101832284D01*
X150585934Y-101973105D01*
X150585951Y-101973120D01*
X150622825Y-102001414D01*
X150675166Y-102020465D01*
X150732337Y-102062560D01*
X150750472Y-102095770D01*
X150769919Y-102149200D01*
X150769920Y-102149201D01*
X150798260Y-102186136D01*
X150798275Y-102186153D01*
X150939173Y-102327051D01*
X150939190Y-102327066D01*
X150976125Y-102355407D01*
X150976126Y-102355407D01*
X150976127Y-102355408D01*
X151023593Y-102372684D01*
X151028942Y-102374631D01*
X151086113Y-102416725D01*
X151104248Y-102449936D01*
X151123472Y-102502753D01*
X151123473Y-102502754D01*
X151151813Y-102539689D01*
X151151828Y-102539706D01*
X151292726Y-102680604D01*
X151292743Y-102680619D01*
X151329678Y-102708960D01*
X151329679Y-102708960D01*
X151329680Y-102708961D01*
X151382495Y-102728184D01*
X151439666Y-102770278D01*
X151457801Y-102803489D01*
X151477025Y-102856306D01*
X151477026Y-102856307D01*
X151505366Y-102893242D01*
X151505381Y-102893259D01*
X151646279Y-103034157D01*
X151646296Y-103034172D01*
X151683232Y-103062514D01*
X151736048Y-103081737D01*
X151793220Y-103123831D01*
X151811355Y-103157043D01*
X151830579Y-103209861D01*
X151858920Y-103246796D01*
X151858935Y-103246813D01*
X151999833Y-103387711D01*
X151999850Y-103387726D01*
X152036785Y-103416067D01*
X152036786Y-103416067D01*
X152036787Y-103416068D01*
X152089602Y-103435291D01*
X152146773Y-103477385D01*
X152164908Y-103510596D01*
X152184132Y-103563413D01*
X152184133Y-103563414D01*
X152212473Y-103600349D01*
X152212488Y-103600366D01*
X152353386Y-103741264D01*
X152353403Y-103741279D01*
X152390339Y-103769621D01*
X152443155Y-103788844D01*
X152500327Y-103830938D01*
X152518462Y-103864150D01*
X152537686Y-103916968D01*
X152566027Y-103953903D01*
X152566042Y-103953920D01*
X152706940Y-104094818D01*
X152706957Y-104094833D01*
X152743892Y-104123174D01*
X152743893Y-104123174D01*
X152743894Y-104123175D01*
X152776441Y-104135021D01*
X152796709Y-104142398D01*
X152853880Y-104184492D01*
X152872015Y-104217703D01*
X152891239Y-104270520D01*
X152891240Y-104270521D01*
X152919580Y-104307456D01*
X152919595Y-104307473D01*
X153060493Y-104448371D01*
X153060510Y-104448386D01*
X153097445Y-104476727D01*
X153097446Y-104476727D01*
X153097447Y-104476728D01*
X153150262Y-104495951D01*
X153207433Y-104538045D01*
X153225568Y-104571256D01*
X153244792Y-104624073D01*
X153244793Y-104624074D01*
X153273133Y-104661009D01*
X153273148Y-104661026D01*
X153414046Y-104801924D01*
X153414063Y-104801939D01*
X153450999Y-104830281D01*
X153503815Y-104849504D01*
X153560987Y-104891598D01*
X153579122Y-104924810D01*
X153598346Y-104977628D01*
X153626687Y-105014563D01*
X153626702Y-105014580D01*
X153767600Y-105155478D01*
X153767617Y-105155493D01*
X153804552Y-105183834D01*
X153804553Y-105183834D01*
X153804554Y-105183835D01*
X153855682Y-105202444D01*
X153857369Y-105203058D01*
X153914540Y-105245152D01*
X153932675Y-105278363D01*
X153934909Y-105284500D01*
X153951899Y-105331180D01*
X153951900Y-105331181D01*
X153973013Y-105358698D01*
X153998612Y-105424919D01*
X153984346Y-105494468D01*
X153973013Y-105512102D01*
X153951899Y-105539618D01*
X153932675Y-105592436D01*
X153890579Y-105649607D01*
X153857370Y-105667741D01*
X153821320Y-105680862D01*
X153804554Y-105686965D01*
X153804553Y-105686965D01*
X153804552Y-105686966D01*
X153767617Y-105715306D01*
X153767600Y-105715321D01*
X153626702Y-105856219D01*
X153626687Y-105856236D01*
X153598347Y-105893171D01*
X153579122Y-105945990D01*
X153537027Y-106003161D01*
X153503817Y-106021295D01*
X153480148Y-106029909D01*
X153451000Y-106040519D01*
X153450999Y-106040519D01*
X153450998Y-106040520D01*
X153414063Y-106068860D01*
X153414046Y-106068875D01*
X153273148Y-106209773D01*
X153273133Y-106209790D01*
X153244793Y-106246725D01*
X153225568Y-106299543D01*
X153183472Y-106356714D01*
X153150263Y-106374848D01*
X153114213Y-106387969D01*
X153097447Y-106394072D01*
X153097446Y-106394072D01*
X153097445Y-106394073D01*
X153060510Y-106422413D01*
X153060493Y-106422428D01*
X152919595Y-106563326D01*
X152919580Y-106563343D01*
X152891240Y-106600278D01*
X152871792Y-106653709D01*
X152829696Y-106710880D01*
X152796487Y-106729014D01*
X152744146Y-106748065D01*
X152707272Y-106776358D01*
X152707255Y-106776373D01*
X152566434Y-106917194D01*
X152566419Y-106917211D01*
X152538124Y-106954086D01*
X152519073Y-107006428D01*
X152476978Y-107063598D01*
X152443769Y-107081732D01*
X152409886Y-107094064D01*
X152390340Y-107101179D01*
X152390339Y-107101179D01*
X152390338Y-107101180D01*
X152353403Y-107129520D01*
X152353386Y-107129535D01*
X152212488Y-107270433D01*
X152212473Y-107270450D01*
X152184133Y-107307385D01*
X152164908Y-107360203D01*
X152122812Y-107417374D01*
X152089603Y-107435508D01*
X152053553Y-107448629D01*
X152036787Y-107454732D01*
X152036786Y-107454732D01*
X152036785Y-107454733D01*
X151999850Y-107483073D01*
X151999833Y-107483088D01*
X151858935Y-107623986D01*
X151858920Y-107624003D01*
X151830580Y-107660938D01*
X151830579Y-107660939D01*
X151830579Y-107660940D01*
X151819969Y-107690088D01*
X151811355Y-107713757D01*
X151769260Y-107770928D01*
X151736050Y-107789062D01*
X151729624Y-107791401D01*
X151683233Y-107808286D01*
X151683232Y-107808286D01*
X151683231Y-107808287D01*
X151646296Y-107836627D01*
X151646279Y-107836642D01*
X151505381Y-107977540D01*
X151505366Y-107977557D01*
X151477026Y-108014492D01*
X151457801Y-108067310D01*
X151415705Y-108124481D01*
X151382496Y-108142615D01*
X151346446Y-108155736D01*
X151329680Y-108161839D01*
X151329679Y-108161839D01*
X151329678Y-108161840D01*
X151292743Y-108190180D01*
X151292726Y-108190195D01*
X151151828Y-108331093D01*
X151151813Y-108331110D01*
X151123473Y-108368045D01*
X151104248Y-108420863D01*
X151062152Y-108478034D01*
X151028943Y-108496168D01*
X150992893Y-108509289D01*
X150976127Y-108515392D01*
X150976126Y-108515392D01*
X150976125Y-108515393D01*
X150939190Y-108543733D01*
X150939173Y-108543748D01*
X150798275Y-108684646D01*
X150798260Y-108684663D01*
X150769920Y-108721598D01*
X150750695Y-108774417D01*
X150708600Y-108831588D01*
X150675390Y-108849722D01*
X150651721Y-108858336D01*
X150622573Y-108868946D01*
X150622572Y-108868946D01*
X150622571Y-108868947D01*
X150585636Y-108897287D01*
X150585619Y-108897302D01*
X150444721Y-109038200D01*
X150444706Y-109038217D01*
X150416366Y-109075152D01*
X150397141Y-109127970D01*
X150355045Y-109185141D01*
X150321836Y-109203275D01*
X150269018Y-109222499D01*
X150241502Y-109243613D01*
X150175281Y-109269212D01*
X150105732Y-109254946D01*
X150088098Y-109243613D01*
X150060581Y-109222500D01*
X150060580Y-109222499D01*
X150014879Y-109205865D01*
X150007150Y-109203052D01*
X149949979Y-109160957D01*
X149931845Y-109127745D01*
X149912795Y-109075407D01*
X149912796Y-109075407D01*
X149884501Y-109038532D01*
X149884486Y-109038515D01*
X149743665Y-108897694D01*
X149743648Y-108897679D01*
X149706774Y-108869386D01*
X149654432Y-108850334D01*
X149597261Y-108808238D01*
X149579127Y-108775027D01*
X149572342Y-108756385D01*
X149559681Y-108721600D01*
X149559680Y-108721599D01*
X149559681Y-108721599D01*
X149531339Y-108684663D01*
X149531324Y-108684646D01*
X149390426Y-108543748D01*
X149390409Y-108543733D01*
X149353474Y-108515393D01*
X149353473Y-108515392D01*
X149306005Y-108498115D01*
X149300656Y-108496168D01*
X149243485Y-108454073D01*
X149225351Y-108420862D01*
X149206127Y-108368045D01*
X149177786Y-108331110D01*
X149177771Y-108331093D01*
X149036873Y-108190195D01*
X149036856Y-108190180D01*
X148999921Y-108161840D01*
X148999920Y-108161839D01*
X148960718Y-108147570D01*
X148947103Y-108142615D01*
X148889932Y-108100520D01*
X148871798Y-108067309D01*
X148852574Y-108014492D01*
X148824233Y-107977557D01*
X148824218Y-107977540D01*
X148683320Y-107836642D01*
X148683303Y-107836627D01*
X148646368Y-107808286D01*
X148593550Y-107789062D01*
X148536379Y-107746967D01*
X148518244Y-107713755D01*
X148512633Y-107698340D01*
X148499021Y-107660940D01*
X148499020Y-107660939D01*
X148499021Y-107660939D01*
X148470679Y-107624003D01*
X148470664Y-107623986D01*
X148329766Y-107483088D01*
X148329749Y-107483073D01*
X148292814Y-107454733D01*
X148292813Y-107454732D01*
X148253611Y-107440463D01*
X148239996Y-107435508D01*
X148182825Y-107393413D01*
X148164691Y-107360202D01*
X148145467Y-107307385D01*
X148117126Y-107270450D01*
X148117111Y-107270433D01*
X147976213Y-107129535D01*
X147976196Y-107129520D01*
X147939261Y-107101179D01*
X147886443Y-107081955D01*
X147829272Y-107039860D01*
X147811137Y-107006648D01*
X147811057Y-107006428D01*
X147791914Y-106953833D01*
X147791913Y-106953832D01*
X147791914Y-106953832D01*
X147763572Y-106916896D01*
X147763557Y-106916879D01*
X147622659Y-106775981D01*
X147622642Y-106775966D01*
X147585707Y-106747626D01*
X147585706Y-106747625D01*
X147534573Y-106729014D01*
X147532889Y-106728401D01*
X147475718Y-106686306D01*
X147457584Y-106653095D01*
X147438360Y-106600278D01*
X147410019Y-106563343D01*
X147410004Y-106563326D01*
X147269106Y-106422428D01*
X147269089Y-106422413D01*
X147232154Y-106394073D01*
X147232153Y-106394072D01*
X147192951Y-106379803D01*
X147179336Y-106374848D01*
X147122165Y-106332753D01*
X147104031Y-106299542D01*
X147084807Y-106246725D01*
X147056466Y-106209790D01*
X147056451Y-106209773D01*
X146915553Y-106068875D01*
X146915536Y-106068860D01*
X146878601Y-106040519D01*
X146825783Y-106021295D01*
X146768612Y-105979200D01*
X146750477Y-105945988D01*
X146731254Y-105893173D01*
X146731253Y-105893172D01*
X146731254Y-105893172D01*
X146702912Y-105856236D01*
X146702897Y-105856219D01*
X146561999Y-105715321D01*
X146561982Y-105715306D01*
X146535023Y-105694620D01*
X146525046Y-105686965D01*
X146485844Y-105672696D01*
X146472229Y-105667741D01*
X146415058Y-105625646D01*
X146396924Y-105592435D01*
X146377701Y-105539620D01*
X146377700Y-105539619D01*
X146377700Y-105539618D01*
X146356587Y-105512103D01*
X146330987Y-105445883D01*
X146345252Y-105376334D01*
X146356587Y-105358697D01*
X146377699Y-105331182D01*
X146377701Y-105331180D01*
X146397148Y-105277748D01*
X146439241Y-105220580D01*
X146472455Y-105202444D01*
X146524794Y-105183394D01*
X146561667Y-105155101D01*
X146561684Y-105155086D01*
X146702505Y-105014265D01*
X146702520Y-105014248D01*
X146730815Y-104977373D01*
X146749865Y-104925034D01*
X146791959Y-104867862D01*
X146825165Y-104849729D01*
X146878600Y-104830281D01*
X146915543Y-104801934D01*
X147056461Y-104661016D01*
X147084808Y-104624073D01*
X147104032Y-104571256D01*
X147146125Y-104514086D01*
X147179338Y-104495951D01*
X147232153Y-104476728D01*
X147269089Y-104448386D01*
X147269096Y-104448381D01*
X147410014Y-104307463D01*
X147438361Y-104270520D01*
X147457585Y-104217703D01*
X147499678Y-104160533D01*
X147532891Y-104142398D01*
X147585706Y-104123175D01*
X147622642Y-104094833D01*
X147622649Y-104094828D01*
X147763567Y-103953910D01*
X147791914Y-103916967D01*
X147811138Y-103864149D01*
X147853230Y-103806980D01*
X147886439Y-103788846D01*
X147939260Y-103769621D01*
X147976203Y-103741274D01*
X148117121Y-103600356D01*
X148145468Y-103563413D01*
X148164692Y-103510596D01*
X148206785Y-103453426D01*
X148239998Y-103435291D01*
X148292813Y-103416068D01*
X148329749Y-103387726D01*
X148329756Y-103387721D01*
X148470674Y-103246803D01*
X148499021Y-103209860D01*
X148518245Y-103157042D01*
X148560337Y-103099873D01*
X148593546Y-103081739D01*
X148646367Y-103062514D01*
X148683310Y-103034167D01*
X148824228Y-102893249D01*
X148852575Y-102856306D01*
X148871799Y-102803489D01*
X148913892Y-102746319D01*
X148947105Y-102728184D01*
X148999920Y-102708961D01*
X149021649Y-102692288D01*
X149036863Y-102680614D01*
X149177781Y-102539696D01*
X149206128Y-102502753D01*
X149225352Y-102449936D01*
X149267445Y-102392766D01*
X149300658Y-102374631D01*
X149353473Y-102355408D01*
X149364440Y-102346993D01*
X149390416Y-102327061D01*
X149531334Y-102186143D01*
X149559681Y-102149200D01*
X149578905Y-102096382D01*
X149620997Y-102039213D01*
X149654206Y-102021079D01*
X149707027Y-102001854D01*
X149743970Y-101973507D01*
X149884888Y-101832589D01*
X149913235Y-101795646D01*
X149932458Y-101742830D01*
X149974552Y-101685659D01*
X150007765Y-101667524D01*
X150060580Y-101648301D01*
X150088097Y-101627187D01*
X150154317Y-101601587D01*
X150223866Y-101615852D01*
G37*
%TD.AperFunction*%
%TA.AperFunction,Conductor*%
G36*
X143809377Y-101316112D02*
G01*
X143825098Y-101329448D01*
X144682303Y-102186652D01*
X144716327Y-102248963D01*
X144711263Y-102319778D01*
X144703800Y-102330445D01*
X144703800Y-103000600D01*
X144683798Y-103068721D01*
X144630142Y-103115214D01*
X144577800Y-103126600D01*
X144321800Y-103126600D01*
X144253679Y-103106598D01*
X144207186Y-103052942D01*
X144195800Y-103000600D01*
X144195800Y-102346993D01*
X144156528Y-102353213D01*
X144045326Y-102409873D01*
X144045325Y-102409875D01*
X144032037Y-102423162D01*
X143969723Y-102457184D01*
X143898908Y-102452115D01*
X143853851Y-102423157D01*
X143584615Y-102153921D01*
X143550589Y-102091609D01*
X143552520Y-102030344D01*
X143553726Y-102026104D01*
X143553728Y-102026101D01*
X143609745Y-101829221D01*
X143626510Y-101648301D01*
X143628632Y-101625404D01*
X143628632Y-101625395D01*
X143610541Y-101430170D01*
X143624172Y-101360495D01*
X143673308Y-101309249D01*
X143742350Y-101292704D01*
X143809377Y-101316112D01*
G37*
%TD.AperFunction*%
%TA.AperFunction,Conductor*%
G36*
X149837321Y-97937002D02*
G01*
X149883814Y-97990658D01*
X149895200Y-98043000D01*
X149895200Y-98696606D01*
X149934466Y-98690387D01*
X149934473Y-98690385D01*
X149947543Y-98683726D01*
X150017320Y-98670621D01*
X150083105Y-98697320D01*
X150124011Y-98755347D01*
X150127053Y-98826279D01*
X150122559Y-98840672D01*
X150108850Y-98876819D01*
X150089693Y-99034596D01*
X150089693Y-99034603D01*
X150108849Y-99192379D01*
X150148899Y-99297980D01*
X150165213Y-99340995D01*
X150255502Y-99471801D01*
X150374471Y-99577199D01*
X150374472Y-99577199D01*
X150374474Y-99577201D01*
X150435110Y-99609025D01*
X150515207Y-99651063D01*
X150669529Y-99689100D01*
X150669530Y-99689100D01*
X150828470Y-99689100D01*
X150828471Y-99689100D01*
X150949548Y-99659257D01*
X151020474Y-99662376D01*
X151078456Y-99703345D01*
X151105085Y-99769159D01*
X151105700Y-99781596D01*
X151105700Y-100051882D01*
X151085698Y-100120003D01*
X151068795Y-100140978D01*
X150772783Y-100436989D01*
X150726787Y-100466292D01*
X150710962Y-100472053D01*
X150710961Y-100472053D01*
X150710960Y-100472054D01*
X150710959Y-100472054D01*
X150674025Y-100500394D01*
X150674008Y-100500409D01*
X150253895Y-100920523D01*
X150191583Y-100954549D01*
X150120768Y-100949484D01*
X150075705Y-100920523D01*
X149655591Y-100500409D01*
X149655574Y-100500394D01*
X149618639Y-100472054D01*
X149618638Y-100472053D01*
X149618636Y-100472052D01*
X149618633Y-100472050D01*
X149602810Y-100466291D01*
X149556812Y-100436986D01*
X148161405Y-99041579D01*
X148127379Y-98979267D01*
X148124500Y-98952484D01*
X148124500Y-98840678D01*
X148144502Y-98772557D01*
X148198158Y-98726064D01*
X148268432Y-98715960D01*
X148270209Y-98716229D01*
X148287200Y-98718919D01*
X148795200Y-98718919D01*
X148847904Y-98710573D01*
X148957697Y-98654631D01*
X149018568Y-98593760D01*
X149080880Y-98559735D01*
X149151696Y-98564799D01*
X149196759Y-98593759D01*
X149236727Y-98633726D01*
X149236726Y-98633726D01*
X149347928Y-98690385D01*
X149347933Y-98690387D01*
X149387199Y-98696606D01*
X149387200Y-98696606D01*
X149387200Y-98425000D01*
X149152459Y-98425000D01*
X149102792Y-98452121D01*
X149076009Y-98455000D01*
X148795200Y-98455000D01*
X148795200Y-98718919D01*
X148287200Y-98718919D01*
X148287200Y-98073000D01*
X148307202Y-98004879D01*
X148360858Y-97958386D01*
X148413200Y-97947000D01*
X149039941Y-97947000D01*
X149089608Y-97919879D01*
X149116391Y-97917000D01*
X149769200Y-97917000D01*
X149837321Y-97937002D01*
G37*
%TD.AperFunction*%
%TA.AperFunction,Conductor*%
G36*
X151675847Y-89129902D02*
G01*
X151722340Y-89183558D01*
X151725782Y-89191869D01*
X151742824Y-89237563D01*
X151773847Y-89279003D01*
X151825456Y-89347944D01*
X151888781Y-89395349D01*
X151935832Y-89430572D01*
X151935835Y-89430574D01*
X151935836Y-89430574D01*
X151935837Y-89430575D01*
X151954701Y-89437610D01*
X152011536Y-89480156D01*
X152036348Y-89546676D01*
X152021257Y-89616050D01*
X151971056Y-89666253D01*
X151954705Y-89673720D01*
X151936082Y-89680666D01*
X151825813Y-89763213D01*
X151743268Y-89873479D01*
X151695131Y-90002539D01*
X151689000Y-90059567D01*
X151689000Y-90076400D01*
X153147000Y-90076400D01*
X153147000Y-90059584D01*
X153146999Y-90059567D01*
X153140868Y-90002539D01*
X153092730Y-89873476D01*
X153092407Y-89873045D01*
X153092217Y-89872537D01*
X153088413Y-89865570D01*
X153089414Y-89865023D01*
X153067594Y-89806526D01*
X153082684Y-89737151D01*
X153132885Y-89686948D01*
X153202259Y-89671855D01*
X153268780Y-89696664D01*
X153282368Y-89708439D01*
X153579195Y-90005266D01*
X153613221Y-90067578D01*
X153616100Y-90094361D01*
X153616100Y-90671819D01*
X153636807Y-90749101D01*
X153641100Y-90781710D01*
X153641100Y-90930463D01*
X153641101Y-90930473D01*
X153655865Y-91004700D01*
X153719011Y-91099203D01*
X153715580Y-91101495D01*
X153725592Y-91119830D01*
X153772943Y-91130131D01*
X153782560Y-91135953D01*
X153796299Y-91145134D01*
X153870533Y-91159900D01*
X154230900Y-91159899D01*
X154299020Y-91179901D01*
X154345513Y-91233556D01*
X154356900Y-91285899D01*
X154356900Y-91291771D01*
X154336898Y-91359892D01*
X154319995Y-91380866D01*
X154184699Y-91516162D01*
X154163390Y-91537471D01*
X154118697Y-91582163D01*
X154118693Y-91582168D01*
X154072026Y-91662999D01*
X154047867Y-91753158D01*
X154047867Y-96312032D01*
X154027865Y-96380153D01*
X154010962Y-96401127D01*
X153901895Y-96510194D01*
X153839583Y-96544220D01*
X153768768Y-96539155D01*
X153711932Y-96496608D01*
X153687121Y-96430088D01*
X153686800Y-96421099D01*
X153686800Y-96309400D01*
X153186800Y-96309400D01*
X153186800Y-96759399D01*
X153348500Y-96759399D01*
X153416621Y-96779401D01*
X153463114Y-96833057D01*
X153473218Y-96903331D01*
X153443724Y-96967911D01*
X153437595Y-96974494D01*
X152690332Y-97721757D01*
X152666590Y-97745499D01*
X152624330Y-97787758D01*
X152624326Y-97787763D01*
X152584023Y-97857571D01*
X152532640Y-97906564D01*
X152462926Y-97920000D01*
X152397016Y-97893613D01*
X152362637Y-97851774D01*
X152334335Y-97796229D01*
X152334333Y-97796226D01*
X152317848Y-97779741D01*
X152283822Y-97717429D01*
X152288887Y-97646614D01*
X152317849Y-97601549D01*
X152333927Y-97585471D01*
X152333927Y-97585470D01*
X152390587Y-97474269D01*
X152390587Y-97474268D01*
X152392055Y-97465000D01*
X151713200Y-97465000D01*
X151645079Y-97444998D01*
X151598586Y-97391342D01*
X151587200Y-97339000D01*
X151587200Y-97083000D01*
X151607202Y-97014879D01*
X151660858Y-96968386D01*
X151713200Y-96957000D01*
X152392054Y-96957000D01*
X152392055Y-96956999D01*
X152390587Y-96947732D01*
X152387975Y-96942605D01*
X152374869Y-96872828D01*
X152401567Y-96807043D01*
X152459593Y-96766135D01*
X152500240Y-96759399D01*
X152678800Y-96759399D01*
X152678800Y-95927400D01*
X152698802Y-95859279D01*
X152752458Y-95812786D01*
X152804800Y-95801400D01*
X153686799Y-95801400D01*
X153686799Y-95580386D01*
X153686798Y-95580377D01*
X153672062Y-95506294D01*
X153672062Y-95506292D01*
X153615924Y-95422275D01*
X153531906Y-95366137D01*
X153531905Y-95366136D01*
X153457822Y-95351400D01*
X153319807Y-95351400D01*
X153251686Y-95331398D01*
X153205193Y-95277742D01*
X153195089Y-95207468D01*
X153224583Y-95142888D01*
X153236249Y-95131091D01*
X153325298Y-95052201D01*
X153415587Y-94921395D01*
X153471949Y-94772782D01*
X153471949Y-94772781D01*
X153471950Y-94772779D01*
X153491107Y-94615003D01*
X153491107Y-94614996D01*
X153471950Y-94457220D01*
X153452562Y-94406099D01*
X153415587Y-94308605D01*
X153325298Y-94177799D01*
X153206329Y-94072401D01*
X153206328Y-94072400D01*
X153206325Y-94072398D01*
X153065597Y-93998539D01*
X153065595Y-93998538D01*
X153065593Y-93998537D01*
X153065591Y-93998536D01*
X153065590Y-93998536D01*
X152911272Y-93960500D01*
X152911271Y-93960500D01*
X152752329Y-93960500D01*
X152752327Y-93960500D01*
X152598009Y-93998536D01*
X152598002Y-93998539D01*
X152457274Y-94072398D01*
X152457269Y-94072402D01*
X152338301Y-94177800D01*
X152248015Y-94308601D01*
X152248012Y-94308607D01*
X152191649Y-94457220D01*
X152172196Y-94617441D01*
X152144129Y-94682654D01*
X152085261Y-94722341D01*
X152014281Y-94723901D01*
X151953726Y-94686839D01*
X151929303Y-94646935D01*
X151916587Y-94613405D01*
X151826298Y-94482599D01*
X151729745Y-94397060D01*
X151692021Y-94336916D01*
X151687300Y-94302749D01*
X151687300Y-92785899D01*
X151707302Y-92717778D01*
X151760958Y-92671285D01*
X151813300Y-92659899D01*
X151857864Y-92659899D01*
X151857866Y-92659899D01*
X151857869Y-92659898D01*
X151857872Y-92659898D01*
X151894463Y-92652619D01*
X151932101Y-92645134D01*
X152016284Y-92588884D01*
X152028335Y-92570847D01*
X152082811Y-92525321D01*
X152153254Y-92516472D01*
X152217299Y-92547113D01*
X152237865Y-92570848D01*
X152249675Y-92588524D01*
X152333693Y-92644662D01*
X152333694Y-92644663D01*
X152407780Y-92659399D01*
X152678800Y-92659399D01*
X152678800Y-92209400D01*
X153186800Y-92209400D01*
X153186800Y-92659399D01*
X153457814Y-92659399D01*
X153457822Y-92659398D01*
X153531905Y-92644662D01*
X153531907Y-92644662D01*
X153615924Y-92588524D01*
X153672062Y-92504506D01*
X153672063Y-92504505D01*
X153686799Y-92430422D01*
X153686800Y-92430415D01*
X153686800Y-92209400D01*
X153186800Y-92209400D01*
X152678800Y-92209400D01*
X152678800Y-91251400D01*
X153186800Y-91251400D01*
X153186800Y-91701400D01*
X153686799Y-91701400D01*
X153686799Y-91480386D01*
X153686798Y-91480377D01*
X153672062Y-91406294D01*
X153672062Y-91406292D01*
X153609030Y-91311958D01*
X153612460Y-91309665D01*
X153602449Y-91291331D01*
X153555099Y-91281031D01*
X153545483Y-91275208D01*
X153531909Y-91266138D01*
X153531905Y-91266136D01*
X153457822Y-91251400D01*
X153186800Y-91251400D01*
X152678800Y-91251400D01*
X152678800Y-91251399D01*
X152672487Y-91245086D01*
X152638461Y-91182774D01*
X152643526Y-91111959D01*
X152686073Y-91055123D01*
X152748116Y-91030713D01*
X152770860Y-91028268D01*
X152899920Y-90980131D01*
X153010186Y-90897586D01*
X153092731Y-90787320D01*
X153140868Y-90658260D01*
X153146999Y-90601232D01*
X153147000Y-90601215D01*
X153147000Y-90584400D01*
X151689000Y-90584400D01*
X151689000Y-90601232D01*
X151695131Y-90658260D01*
X151743268Y-90787320D01*
X151825813Y-90897586D01*
X151936079Y-90980131D01*
X152065139Y-91028268D01*
X152122167Y-91034399D01*
X152122184Y-91034400D01*
X152265147Y-91034400D01*
X152333268Y-91054402D01*
X152379761Y-91108058D01*
X152389865Y-91178332D01*
X152360371Y-91242912D01*
X152335148Y-91265165D01*
X152249676Y-91322274D01*
X152237864Y-91339953D01*
X152183386Y-91385479D01*
X152112943Y-91394326D01*
X152048899Y-91363684D01*
X152028336Y-91339952D01*
X152016284Y-91321915D01*
X151932102Y-91265666D01*
X151857869Y-91250900D01*
X150915079Y-91250900D01*
X150846958Y-91230898D01*
X150800465Y-91177242D01*
X150790361Y-91106968D01*
X150819855Y-91042388D01*
X150857874Y-91012634D01*
X150908723Y-90986726D01*
X150999326Y-90896123D01*
X151057498Y-90781955D01*
X151072500Y-90687234D01*
X151072500Y-90323566D01*
X151057498Y-90228845D01*
X151028412Y-90171761D01*
X150999326Y-90114676D01*
X150993499Y-90106657D01*
X150995986Y-90104849D01*
X150969765Y-90056829D01*
X150974830Y-89986014D01*
X150994736Y-89955046D01*
X150993088Y-89953848D01*
X150998915Y-89945826D01*
X151057016Y-89831799D01*
X151060564Y-89809401D01*
X151060563Y-89809400D01*
X150027500Y-89809400D01*
X149959379Y-89789398D01*
X149912886Y-89735742D01*
X149901500Y-89683400D01*
X149901500Y-89427400D01*
X149921502Y-89359279D01*
X149975158Y-89312786D01*
X150027500Y-89301400D01*
X151060563Y-89301400D01*
X151060563Y-89301399D01*
X151057016Y-89279003D01*
X151055661Y-89274831D01*
X151055508Y-89269479D01*
X151055465Y-89269206D01*
X151055500Y-89269200D01*
X151053637Y-89203864D01*
X151090302Y-89143067D01*
X151154015Y-89111745D01*
X151175496Y-89109900D01*
X151607726Y-89109900D01*
X151675847Y-89129902D01*
G37*
%TD.AperFunction*%
%TA.AperFunction,Conductor*%
G36*
X146914123Y-83549307D02*
G01*
X146914883Y-83548317D01*
X146919188Y-83551620D01*
X146919312Y-83551677D01*
X146919547Y-83551895D01*
X146921438Y-83553347D01*
X147013677Y-83606601D01*
X147052665Y-83629111D01*
X147116911Y-83646325D01*
X147177533Y-83683274D01*
X147208555Y-83747135D01*
X147210300Y-83768031D01*
X147210300Y-85209912D01*
X147190298Y-85278033D01*
X147187997Y-85281487D01*
X147181013Y-85291604D01*
X147124649Y-85440220D01*
X147105493Y-85597996D01*
X147105493Y-85598003D01*
X147124649Y-85755779D01*
X147161469Y-85852862D01*
X147181013Y-85904395D01*
X147271302Y-86035201D01*
X147390271Y-86140599D01*
X147390272Y-86140599D01*
X147390274Y-86140601D01*
X147430971Y-86161960D01*
X147531007Y-86214463D01*
X147685329Y-86252500D01*
X147685330Y-86252500D01*
X147844270Y-86252500D01*
X147844271Y-86252500D01*
X147998593Y-86214463D01*
X148139329Y-86140599D01*
X148258298Y-86035201D01*
X148348587Y-85904395D01*
X148357614Y-85880590D01*
X148400469Y-85823991D01*
X148467124Y-85799544D01*
X148536415Y-85815014D01*
X148586342Y-85865490D01*
X148587693Y-85868067D01*
X148606201Y-85904390D01*
X148635959Y-85962795D01*
X148635961Y-85962797D01*
X148690069Y-86016905D01*
X148724095Y-86079217D01*
X148719030Y-86150032D01*
X148690069Y-86195095D01*
X148635961Y-86249202D01*
X148635959Y-86249204D01*
X148614900Y-86290536D01*
X148579946Y-86359138D01*
X148568320Y-86432541D01*
X148565500Y-86450348D01*
X148565500Y-86781651D01*
X148579945Y-86872861D01*
X148585984Y-86884713D01*
X148599087Y-86954491D01*
X148577414Y-87013488D01*
X148556214Y-87044202D01*
X148499849Y-87192820D01*
X148480693Y-87350596D01*
X148480693Y-87350603D01*
X148499849Y-87508379D01*
X148548447Y-87636519D01*
X148556213Y-87656995D01*
X148646502Y-87787801D01*
X148765471Y-87893199D01*
X148765472Y-87893199D01*
X148765474Y-87893201D01*
X148840200Y-87932420D01*
X148906207Y-87967063D01*
X149060529Y-88005100D01*
X149060530Y-88005100D01*
X149127638Y-88005100D01*
X149195759Y-88025102D01*
X149242252Y-88078758D01*
X149252356Y-88149032D01*
X149222862Y-88213612D01*
X149216733Y-88220195D01*
X149001874Y-88435054D01*
X148939562Y-88469080D01*
X148868747Y-88464015D01*
X148811911Y-88421468D01*
X148788330Y-88365668D01*
X148784497Y-88341465D01*
X148782498Y-88328845D01*
X148727138Y-88220195D01*
X148724326Y-88214676D01*
X148633723Y-88124073D01*
X148519553Y-88065901D01*
X148454836Y-88055651D01*
X148424834Y-88050900D01*
X147336166Y-88050900D01*
X147310266Y-88055002D01*
X147241446Y-88065901D01*
X147127276Y-88124073D01*
X147036675Y-88214674D01*
X147036671Y-88214679D01*
X146996760Y-88293010D01*
X146948012Y-88344624D01*
X146879097Y-88361690D01*
X146811896Y-88338789D01*
X146783626Y-88311316D01*
X146710186Y-88213213D01*
X146599920Y-88130668D01*
X146470860Y-88082531D01*
X146413832Y-88076400D01*
X146372000Y-88076400D01*
X146372000Y-88908400D01*
X146351998Y-88976521D01*
X146298342Y-89023014D01*
X146246000Y-89034400D01*
X145990000Y-89034400D01*
X145921879Y-89014398D01*
X145875386Y-88960742D01*
X145864000Y-88908400D01*
X145864000Y-88076400D01*
X145823500Y-88076400D01*
X145755379Y-88056398D01*
X145708886Y-88002742D01*
X145697500Y-87950400D01*
X145697500Y-85490957D01*
X145697499Y-85490953D01*
X145683904Y-85440218D01*
X145673341Y-85400796D01*
X145637744Y-85339139D01*
X145626673Y-85319963D01*
X145626669Y-85319958D01*
X145598313Y-85291602D01*
X145560668Y-85253957D01*
X145336552Y-85029841D01*
X145302526Y-84967529D01*
X145307591Y-84896714D01*
X145350138Y-84839878D01*
X145416658Y-84815067D01*
X145481808Y-84828935D01*
X145481928Y-84828647D01*
X145483488Y-84829293D01*
X145485046Y-84829625D01*
X145487651Y-84831017D01*
X145590800Y-84873742D01*
X145590800Y-84322890D01*
X145604740Y-84347035D01*
X145660595Y-84402890D01*
X145729004Y-84442386D01*
X145805304Y-84462830D01*
X145884296Y-84462830D01*
X145960596Y-84442386D01*
X146029005Y-84402890D01*
X146084860Y-84347035D01*
X146098800Y-84322890D01*
X146098800Y-84873742D01*
X146201951Y-84831016D01*
X146224794Y-84815753D01*
X146292547Y-84794537D01*
X146361014Y-84813319D01*
X146408458Y-84866135D01*
X146418377Y-84895937D01*
X146425537Y-84931936D01*
X146425537Y-84931937D01*
X146481675Y-85015954D01*
X146565693Y-85072092D01*
X146565694Y-85072093D01*
X146639780Y-85086829D01*
X146710799Y-85086828D01*
X146710800Y-85086828D01*
X146710800Y-84466830D01*
X146493800Y-84466830D01*
X146425679Y-84446828D01*
X146379186Y-84393172D01*
X146367800Y-84340830D01*
X146367800Y-84084830D01*
X146387802Y-84016709D01*
X146441458Y-83970216D01*
X146493800Y-83958830D01*
X146710800Y-83958830D01*
X146710800Y-83646901D01*
X146730802Y-83578780D01*
X146784458Y-83532287D01*
X146854732Y-83522183D01*
X146914123Y-83549307D01*
G37*
%TD.AperFunction*%
%TA.AperFunction,Conductor*%
G36*
X151239733Y-85087330D02*
G01*
X151589866Y-85087329D01*
X151589869Y-85087328D01*
X151589873Y-85087328D01*
X151640219Y-85077314D01*
X151689379Y-85077314D01*
X151739733Y-85087330D01*
X151881941Y-85087329D01*
X151950061Y-85107331D01*
X151996554Y-85160986D01*
X152006659Y-85231260D01*
X151985639Y-85284902D01*
X151981014Y-85291602D01*
X151924649Y-85440220D01*
X151905493Y-85597996D01*
X151905493Y-85598003D01*
X151924649Y-85755779D01*
X151961469Y-85852862D01*
X151981013Y-85904395D01*
X151981015Y-85904398D01*
X151981016Y-85904399D01*
X151987995Y-85914510D01*
X152010232Y-85981935D01*
X152010300Y-85986087D01*
X152010300Y-86223198D01*
X152010300Y-86369202D01*
X152015523Y-86388693D01*
X152032043Y-86450348D01*
X152032042Y-86450348D01*
X152048088Y-86510230D01*
X152121086Y-86636667D01*
X152121094Y-86636677D01*
X152231508Y-86747091D01*
X152231514Y-86747096D01*
X152448023Y-86963605D01*
X152482049Y-87025917D01*
X152476984Y-87096732D01*
X152434437Y-87153568D01*
X152367917Y-87178379D01*
X152358928Y-87178700D01*
X152345927Y-87178700D01*
X152191609Y-87216736D01*
X152191602Y-87216739D01*
X152050874Y-87290598D01*
X152050869Y-87290602D01*
X151931901Y-87396000D01*
X151841615Y-87526801D01*
X151841612Y-87526807D01*
X151785249Y-87675420D01*
X151766093Y-87833196D01*
X151766093Y-87833202D01*
X151781454Y-87959712D01*
X151769809Y-88029747D01*
X151722149Y-88082369D01*
X151656373Y-88100900D01*
X150893493Y-88100900D01*
X150836291Y-88087167D01*
X150794555Y-88065901D01*
X150697848Y-88050585D01*
X150633695Y-88020173D01*
X150596168Y-87959904D01*
X150597182Y-87888915D01*
X150634003Y-87831826D01*
X150683698Y-87787801D01*
X150773987Y-87656995D01*
X150830349Y-87508382D01*
X150830349Y-87508381D01*
X150830350Y-87508379D01*
X150849507Y-87350603D01*
X150849507Y-87350596D01*
X150830350Y-87192820D01*
X150807543Y-87132684D01*
X150773987Y-87044205D01*
X150752786Y-87013490D01*
X150730550Y-86946065D01*
X150744215Y-86884712D01*
X150750254Y-86872862D01*
X150764700Y-86781653D01*
X150764699Y-86450348D01*
X150763246Y-86441176D01*
X150751848Y-86369202D01*
X150750254Y-86359138D01*
X150694240Y-86249204D01*
X150640131Y-86195095D01*
X150606105Y-86132783D01*
X150611170Y-86061968D01*
X150640131Y-86016905D01*
X150642708Y-86014328D01*
X150694240Y-85962796D01*
X150750254Y-85852862D01*
X150764700Y-85761653D01*
X150764699Y-85430348D01*
X150750254Y-85339138D01*
X150715296Y-85270530D01*
X150702193Y-85200755D01*
X150728893Y-85134971D01*
X150786920Y-85094064D01*
X150827559Y-85087329D01*
X151089866Y-85087329D01*
X151089869Y-85087328D01*
X151089873Y-85087328D01*
X151140219Y-85077314D01*
X151189379Y-85077314D01*
X151239733Y-85087330D01*
G37*
%TD.AperFunction*%
%TA.AperFunction,Conductor*%
G36*
X145197113Y-82501929D02*
G01*
X145228440Y-82565640D01*
X145220349Y-82636174D01*
X145209052Y-82657130D01*
X145176613Y-82705678D01*
X145119778Y-82842890D01*
X145119776Y-82842895D01*
X145090800Y-82988565D01*
X145090800Y-83358830D01*
X145544800Y-83358830D01*
X145544800Y-83866830D01*
X145090800Y-83866830D01*
X145090800Y-84237094D01*
X145119776Y-84382764D01*
X145119778Y-84382769D01*
X145176615Y-84519986D01*
X145178006Y-84522588D01*
X145178322Y-84524106D01*
X145178983Y-84525702D01*
X145178680Y-84525827D01*
X145192477Y-84592095D01*
X145167072Y-84658390D01*
X145109857Y-84700427D01*
X145038999Y-84704858D01*
X144977788Y-84671077D01*
X144682405Y-84375694D01*
X144648379Y-84313382D01*
X144645500Y-84286599D01*
X144645500Y-82610499D01*
X144665502Y-82542378D01*
X144719158Y-82495885D01*
X144771500Y-82484499D01*
X144965651Y-82484499D01*
X144965652Y-82484499D01*
X145056862Y-82470054D01*
X145056865Y-82470052D01*
X145065347Y-82467297D01*
X145136315Y-82465268D01*
X145197113Y-82501929D01*
G37*
%TD.AperFunction*%
%TA.AperFunction,Conductor*%
G36*
X160444921Y-77285402D02*
G01*
X160491414Y-77339058D01*
X160502800Y-77391400D01*
X160502800Y-128399400D01*
X160482798Y-128467521D01*
X160429142Y-128514014D01*
X160376800Y-128525400D01*
X139952800Y-128525400D01*
X139884679Y-128505398D01*
X139838186Y-128451742D01*
X139826800Y-128399400D01*
X139826800Y-127025404D01*
X141410168Y-127025404D01*
X141429054Y-127229219D01*
X141429055Y-127229221D01*
X141485072Y-127426101D01*
X141576312Y-127609335D01*
X141596586Y-127636183D01*
X141699666Y-127772684D01*
X141850936Y-127910585D01*
X142024966Y-128018340D01*
X142024968Y-128018340D01*
X142024973Y-128018344D01*
X142215844Y-128092288D01*
X142417053Y-128129900D01*
X142417055Y-128129900D01*
X142621745Y-128129900D01*
X142621747Y-128129900D01*
X142822956Y-128092288D01*
X143013827Y-128018344D01*
X143187862Y-127910586D01*
X143339132Y-127772685D01*
X143462488Y-127609335D01*
X143553728Y-127426101D01*
X143609745Y-127229221D01*
X143628632Y-127025400D01*
X143614232Y-126869999D01*
X145279250Y-126869999D01*
X145279251Y-126870000D01*
X145924097Y-126870000D01*
X145888875Y-126931007D01*
X145854800Y-127058174D01*
X145854800Y-127189826D01*
X145888875Y-127316993D01*
X145924097Y-127378000D01*
X145279251Y-127378000D01*
X145320938Y-127524514D01*
X145320940Y-127524519D01*
X145412140Y-127707672D01*
X145535437Y-127870946D01*
X145686638Y-128008784D01*
X145860596Y-128116493D01*
X145860603Y-128116496D01*
X146051382Y-128190405D01*
X146100799Y-128199642D01*
X146100800Y-128199642D01*
X146100800Y-127554702D01*
X146161807Y-127589925D01*
X146288974Y-127624000D01*
X146420626Y-127624000D01*
X146547793Y-127589925D01*
X146608800Y-127554702D01*
X146608800Y-128199642D01*
X146658217Y-128190405D01*
X146658218Y-128190405D01*
X146848996Y-128116496D01*
X146849003Y-128116493D01*
X147022961Y-128008784D01*
X147174162Y-127870946D01*
X147297459Y-127707672D01*
X147388659Y-127524519D01*
X147388661Y-127524514D01*
X147430349Y-127378000D01*
X146785503Y-127378000D01*
X146820725Y-127316993D01*
X146854800Y-127189826D01*
X146854800Y-127124004D01*
X147785568Y-127124004D01*
X147804454Y-127327819D01*
X147804455Y-127327821D01*
X147860472Y-127524701D01*
X147951712Y-127707935D01*
X147951713Y-127707936D01*
X148075066Y-127871284D01*
X148226336Y-128009185D01*
X148400366Y-128116940D01*
X148400368Y-128116940D01*
X148400373Y-128116944D01*
X148591244Y-128190888D01*
X148792453Y-128228500D01*
X148792455Y-128228500D01*
X148997145Y-128228500D01*
X148997147Y-128228500D01*
X149198356Y-128190888D01*
X149389227Y-128116944D01*
X149563262Y-128009186D01*
X149714532Y-127871285D01*
X149837888Y-127707935D01*
X149929128Y-127524701D01*
X149985145Y-127327821D01*
X150004032Y-127124000D01*
X149997932Y-127058174D01*
X149985145Y-126920180D01*
X149970868Y-126870000D01*
X149929128Y-126723299D01*
X149837888Y-126540065D01*
X149763429Y-126441465D01*
X149714533Y-126376715D01*
X149563263Y-126238814D01*
X149389233Y-126131059D01*
X149389228Y-126131057D01*
X149389227Y-126131056D01*
X149385897Y-126129766D01*
X149198359Y-126057113D01*
X149198360Y-126057113D01*
X149198357Y-126057112D01*
X149198356Y-126057112D01*
X148997147Y-126019500D01*
X148792453Y-126019500D01*
X148591244Y-126057112D01*
X148591239Y-126057113D01*
X148400377Y-126131054D01*
X148400366Y-126131059D01*
X148226336Y-126238814D01*
X148075066Y-126376715D01*
X147951713Y-126540063D01*
X147860471Y-126723301D01*
X147804454Y-126920180D01*
X147785568Y-127123995D01*
X147785568Y-127124004D01*
X146854800Y-127124004D01*
X146854800Y-127058174D01*
X146820725Y-126931007D01*
X146785503Y-126870000D01*
X147430349Y-126870000D01*
X147430349Y-126869999D01*
X147388661Y-126723485D01*
X147388659Y-126723480D01*
X147297459Y-126540327D01*
X147174162Y-126377053D01*
X147022961Y-126239215D01*
X146849003Y-126131506D01*
X146848996Y-126131503D01*
X146658224Y-126057596D01*
X146608800Y-126048357D01*
X146608800Y-126693297D01*
X146547793Y-126658075D01*
X146420626Y-126624000D01*
X146288974Y-126624000D01*
X146161807Y-126658075D01*
X146100800Y-126693297D01*
X146100800Y-126048357D01*
X146051375Y-126057596D01*
X145860603Y-126131503D01*
X145860596Y-126131506D01*
X145686638Y-126239215D01*
X145535437Y-126377053D01*
X145412140Y-126540327D01*
X145320940Y-126723480D01*
X145320938Y-126723485D01*
X145279250Y-126869999D01*
X143614232Y-126869999D01*
X143609745Y-126821579D01*
X143553728Y-126624699D01*
X143462488Y-126441465D01*
X143413591Y-126376715D01*
X143339133Y-126278115D01*
X143187863Y-126140214D01*
X143013833Y-126032459D01*
X143013828Y-126032457D01*
X143013827Y-126032456D01*
X142980384Y-126019500D01*
X142822959Y-125958513D01*
X142822960Y-125958513D01*
X142822957Y-125958512D01*
X142822956Y-125958512D01*
X142621747Y-125920900D01*
X142417053Y-125920900D01*
X142215844Y-125958512D01*
X142215839Y-125958513D01*
X142024977Y-126032454D01*
X142024966Y-126032459D01*
X141850936Y-126140214D01*
X141699666Y-126278115D01*
X141576313Y-126441463D01*
X141485071Y-126624701D01*
X141429054Y-126821580D01*
X141410168Y-127025395D01*
X141410168Y-127025404D01*
X139826800Y-127025404D01*
X139826800Y-124231399D01*
X141443850Y-124231399D01*
X141443851Y-124231400D01*
X142088697Y-124231400D01*
X142053475Y-124292407D01*
X142019400Y-124419574D01*
X142019400Y-124551226D01*
X142053475Y-124678393D01*
X142088697Y-124739400D01*
X141443851Y-124739400D01*
X141485538Y-124885914D01*
X141485540Y-124885919D01*
X141576740Y-125069072D01*
X141700037Y-125232346D01*
X141851238Y-125370184D01*
X142025196Y-125477893D01*
X142025203Y-125477896D01*
X142215982Y-125551805D01*
X142265399Y-125561042D01*
X142265400Y-125561042D01*
X142265400Y-124916102D01*
X142326407Y-124951325D01*
X142453574Y-124985400D01*
X142585226Y-124985400D01*
X142712393Y-124951325D01*
X142773400Y-124916102D01*
X142773400Y-125561042D01*
X142822817Y-125551805D01*
X142822818Y-125551805D01*
X143013596Y-125477896D01*
X143013603Y-125477893D01*
X143187561Y-125370184D01*
X143338762Y-125232346D01*
X143462059Y-125069072D01*
X143553259Y-124885919D01*
X143553261Y-124885914D01*
X143594949Y-124739400D01*
X142950103Y-124739400D01*
X142985325Y-124678393D01*
X143019400Y-124551226D01*
X143019400Y-124419574D01*
X142985325Y-124292407D01*
X142950103Y-124231400D01*
X143594949Y-124231400D01*
X143594949Y-124231399D01*
X143553261Y-124084885D01*
X143553259Y-124084880D01*
X143462059Y-123901727D01*
X143338762Y-123738453D01*
X143187561Y-123600615D01*
X143013603Y-123492906D01*
X143013596Y-123492903D01*
X142822824Y-123418996D01*
X142773400Y-123409757D01*
X142773400Y-124054697D01*
X142712393Y-124019475D01*
X142585226Y-123985400D01*
X142453574Y-123985400D01*
X142326407Y-124019475D01*
X142265400Y-124054697D01*
X142265400Y-123409757D01*
X142215975Y-123418996D01*
X142025203Y-123492903D01*
X142025196Y-123492906D01*
X141851238Y-123600615D01*
X141700037Y-123738453D01*
X141576740Y-123901727D01*
X141485540Y-124084880D01*
X141485538Y-124084885D01*
X141443850Y-124231399D01*
X139826800Y-124231399D01*
X139826800Y-121945404D01*
X141410168Y-121945404D01*
X141429054Y-122149219D01*
X141485071Y-122346098D01*
X141485072Y-122346101D01*
X141576312Y-122529335D01*
X141585303Y-122541241D01*
X141699666Y-122692684D01*
X141850936Y-122830585D01*
X142024966Y-122938340D01*
X142024968Y-122938340D01*
X142024973Y-122938344D01*
X142215844Y-123012288D01*
X142417053Y-123049900D01*
X142417055Y-123049900D01*
X142621745Y-123049900D01*
X142621747Y-123049900D01*
X142822956Y-123012288D01*
X143013827Y-122938344D01*
X143187862Y-122830586D01*
X143339132Y-122692685D01*
X143462488Y-122529335D01*
X143553728Y-122346101D01*
X143609745Y-122149221D01*
X143628632Y-121945400D01*
X143626735Y-121924933D01*
X143609745Y-121741580D01*
X143609745Y-121741579D01*
X143553728Y-121544699D01*
X143462488Y-121361465D01*
X143409552Y-121291366D01*
X143339133Y-121198115D01*
X143187863Y-121060214D01*
X143013833Y-120952459D01*
X143013828Y-120952457D01*
X143013827Y-120952456D01*
X143011793Y-120951668D01*
X142822959Y-120878513D01*
X142822960Y-120878513D01*
X142822957Y-120878512D01*
X142822956Y-120878512D01*
X142621747Y-120840900D01*
X142417053Y-120840900D01*
X142215844Y-120878512D01*
X142215839Y-120878513D01*
X142024977Y-120952454D01*
X142024966Y-120952459D01*
X141850936Y-121060214D01*
X141699666Y-121198115D01*
X141576313Y-121361463D01*
X141485071Y-121544701D01*
X141429054Y-121741580D01*
X141410168Y-121945395D01*
X141410168Y-121945404D01*
X139826800Y-121945404D01*
X139826800Y-119405404D01*
X141410168Y-119405404D01*
X141429054Y-119609219D01*
X141480358Y-119789532D01*
X141485072Y-119806101D01*
X141576312Y-119989335D01*
X141576313Y-119989336D01*
X141699666Y-120152684D01*
X141850936Y-120290585D01*
X142024966Y-120398340D01*
X142024968Y-120398340D01*
X142024973Y-120398344D01*
X142215844Y-120472288D01*
X142417053Y-120509900D01*
X142417055Y-120509900D01*
X142621745Y-120509900D01*
X142621747Y-120509900D01*
X142822956Y-120472288D01*
X143013827Y-120398344D01*
X143187862Y-120290586D01*
X143339132Y-120152685D01*
X143462488Y-119989335D01*
X143553728Y-119806101D01*
X143609745Y-119609221D01*
X143627616Y-119416366D01*
X143628632Y-119405404D01*
X143628632Y-119405395D01*
X143609745Y-119201580D01*
X143606365Y-119189700D01*
X144867201Y-119189700D01*
X144867201Y-119227046D01*
X144867202Y-119227070D01*
X144873573Y-119286338D01*
X144923592Y-119420447D01*
X145009369Y-119535030D01*
X145123952Y-119620807D01*
X145258062Y-119670827D01*
X145317340Y-119677199D01*
X145567200Y-119677199D01*
X145567200Y-119189700D01*
X146075200Y-119189700D01*
X146075200Y-119677199D01*
X146325047Y-119677199D01*
X146325070Y-119677197D01*
X146384338Y-119670826D01*
X146518447Y-119620807D01*
X146633030Y-119535030D01*
X146718807Y-119420447D01*
X146768827Y-119286337D01*
X146775199Y-119227067D01*
X146775200Y-119227050D01*
X146775200Y-119189700D01*
X146075200Y-119189700D01*
X145567200Y-119189700D01*
X144867201Y-119189700D01*
X143606365Y-119189700D01*
X143556910Y-119015885D01*
X143553728Y-119004699D01*
X143550162Y-118997538D01*
X143537702Y-118927647D01*
X143565007Y-118862111D01*
X143573848Y-118852289D01*
X143744437Y-118681700D01*
X144867200Y-118681700D01*
X145567200Y-118681700D01*
X145567200Y-118194200D01*
X146075200Y-118194200D01*
X146075200Y-118681700D01*
X146775199Y-118681700D01*
X146775199Y-118644353D01*
X146775197Y-118644329D01*
X146768826Y-118585061D01*
X146718807Y-118450952D01*
X146633030Y-118336369D01*
X146518447Y-118250592D01*
X146384337Y-118200572D01*
X146325067Y-118194200D01*
X146075200Y-118194200D01*
X145567200Y-118194200D01*
X145317353Y-118194200D01*
X145317329Y-118194202D01*
X145258061Y-118200573D01*
X145123952Y-118250592D01*
X145009369Y-118336369D01*
X144923592Y-118450952D01*
X144873572Y-118585062D01*
X144867200Y-118644332D01*
X144867200Y-118681700D01*
X143744437Y-118681700D01*
X145133291Y-117292845D01*
X145133301Y-117292838D01*
X145209665Y-117216474D01*
X145209671Y-117216468D01*
X145256341Y-117135632D01*
X145280500Y-117045471D01*
X145280500Y-113348102D01*
X145300502Y-113279981D01*
X145317399Y-113259012D01*
X145580411Y-112996000D01*
X147094393Y-112996000D01*
X147366000Y-112996000D01*
X147366000Y-112699144D01*
X147356728Y-112700613D01*
X147245526Y-112757273D01*
X147157273Y-112845526D01*
X147100613Y-112956728D01*
X147094393Y-112996000D01*
X145580411Y-112996000D01*
X146433736Y-112142675D01*
X147220334Y-112142675D01*
X147252494Y-112166042D01*
X147252500Y-112166045D01*
X147371200Y-112204614D01*
X147496005Y-112204614D01*
X147614701Y-112166046D01*
X147622296Y-112160528D01*
X147622296Y-112160527D01*
X147412390Y-111950621D01*
X147412389Y-111950621D01*
X147220334Y-112142674D01*
X147220334Y-112142675D01*
X146433736Y-112142675D01*
X146756849Y-111819562D01*
X146819157Y-111785540D01*
X146855829Y-111783049D01*
X146861124Y-111783465D01*
X147323294Y-111321296D01*
X147385606Y-111287270D01*
X147456421Y-111292335D01*
X147501485Y-111321296D01*
X147981506Y-111801318D01*
X147987024Y-111793723D01*
X148025592Y-111675026D01*
X148025592Y-111652291D01*
X148045594Y-111584170D01*
X148099250Y-111537677D01*
X148151592Y-111526291D01*
X148174906Y-111526291D01*
X148174907Y-111526291D01*
X148293755Y-111487675D01*
X148369426Y-111432698D01*
X148473128Y-111328994D01*
X148535440Y-111294970D01*
X148562224Y-111292090D01*
X148572973Y-111292090D01*
X148649881Y-111271482D01*
X148649882Y-111271482D01*
X148657060Y-111269558D01*
X148669493Y-111266227D01*
X148756030Y-111216265D01*
X148779537Y-111192758D01*
X148816291Y-111156005D01*
X148878603Y-111121979D01*
X148905386Y-111119100D01*
X148982257Y-111119100D01*
X149050378Y-111139102D01*
X149096871Y-111192758D01*
X149107338Y-111260286D01*
X149099093Y-111328194D01*
X149099093Y-111328203D01*
X149118249Y-111485979D01*
X149144078Y-111554082D01*
X149174613Y-111634595D01*
X149264902Y-111765401D01*
X149383871Y-111870799D01*
X149383872Y-111870799D01*
X149383874Y-111870801D01*
X149453448Y-111907316D01*
X149524607Y-111944663D01*
X149535297Y-111947298D01*
X149596652Y-111983018D01*
X149628956Y-112046240D01*
X149621951Y-112116890D01*
X149594243Y-112158732D01*
X149504378Y-112248596D01*
X149442069Y-112282620D01*
X149415285Y-112285500D01*
X149143325Y-112285500D01*
X149053166Y-112309659D01*
X148972335Y-112356326D01*
X148972329Y-112356331D01*
X148680063Y-112648596D01*
X148617751Y-112682621D01*
X148590969Y-112685500D01*
X148408957Y-112685500D01*
X148316574Y-112700131D01*
X148205228Y-112756864D01*
X148205228Y-112756865D01*
X148188740Y-112773353D01*
X148126427Y-112807377D01*
X148055611Y-112802311D01*
X148010551Y-112773351D01*
X147994473Y-112757273D01*
X147883271Y-112700613D01*
X147874000Y-112699144D01*
X147874000Y-113378000D01*
X147853998Y-113446121D01*
X147800342Y-113492614D01*
X147748000Y-113504000D01*
X147094394Y-113504000D01*
X147100612Y-113543266D01*
X147100614Y-113543271D01*
X147157273Y-113654473D01*
X147179522Y-113676722D01*
X147213548Y-113739034D01*
X147208483Y-113809849D01*
X147173769Y-113856220D01*
X147175290Y-113857741D01*
X147166516Y-113866514D01*
X147110266Y-113950697D01*
X147095500Y-114024930D01*
X147095500Y-115875063D01*
X147095501Y-115875073D01*
X147110265Y-115949300D01*
X147166516Y-116033484D01*
X147250697Y-116089733D01*
X147250699Y-116089734D01*
X147324933Y-116104500D01*
X148037570Y-116104499D01*
X148105691Y-116124501D01*
X148126660Y-116141399D01*
X148873932Y-116888671D01*
X148954769Y-116935342D01*
X148954771Y-116935342D01*
X148954772Y-116935343D01*
X149044925Y-116959500D01*
X149044929Y-116959501D01*
X149145989Y-116959501D01*
X149146005Y-116959500D01*
X150312475Y-116959500D01*
X150380596Y-116979502D01*
X150427089Y-117033158D01*
X150437193Y-117103432D01*
X150430288Y-117130175D01*
X150428219Y-117135633D01*
X150388249Y-117241020D01*
X150369093Y-117398796D01*
X150369093Y-117398803D01*
X150387781Y-117552720D01*
X150376136Y-117622755D01*
X150328475Y-117675376D01*
X150259931Y-117693877D01*
X150192698Y-117672672D01*
X150099302Y-117610266D01*
X150025067Y-117595500D01*
X148974936Y-117595500D01*
X148974926Y-117595501D01*
X148900699Y-117610265D01*
X148816516Y-117666515D01*
X148804762Y-117684106D01*
X148750283Y-117729631D01*
X148679840Y-117738477D01*
X148615797Y-117707833D01*
X148595233Y-117684100D01*
X148583483Y-117666515D01*
X148499302Y-117610266D01*
X148425067Y-117595500D01*
X147374936Y-117595500D01*
X147374926Y-117595501D01*
X147300699Y-117610265D01*
X147216515Y-117666516D01*
X147160266Y-117750697D01*
X147145500Y-117824930D01*
X147145500Y-118775063D01*
X147145501Y-118775073D01*
X147160265Y-118849300D01*
X147216516Y-118933484D01*
X147300697Y-118989733D01*
X147300699Y-118989734D01*
X147374933Y-119004500D01*
X147394497Y-119004499D01*
X147462617Y-119024498D01*
X147509112Y-119078152D01*
X147520500Y-119130499D01*
X147520500Y-121569500D01*
X147500498Y-121637621D01*
X147446842Y-121684114D01*
X147394505Y-121695500D01*
X147374939Y-121695500D01*
X147374926Y-121695501D01*
X147300699Y-121710265D01*
X147216515Y-121766516D01*
X147160266Y-121850697D01*
X147145500Y-121924930D01*
X147145500Y-121947298D01*
X147125498Y-122015419D01*
X147082501Y-122056417D01*
X147013382Y-122096323D01*
X147013379Y-122096325D01*
X146978052Y-122131653D01*
X146942724Y-122166981D01*
X146942722Y-122166983D01*
X146763607Y-122346098D01*
X146597424Y-122512281D01*
X146535112Y-122546306D01*
X146464296Y-122541241D01*
X146407461Y-122498694D01*
X146382650Y-122432174D01*
X146383879Y-122403485D01*
X146395700Y-122328853D01*
X146395699Y-121997548D01*
X146381254Y-121906338D01*
X146325240Y-121796404D01*
X146291399Y-121762563D01*
X146257376Y-121700252D01*
X146262442Y-121629436D01*
X146304989Y-121572601D01*
X146367031Y-121548192D01*
X146384450Y-121546320D01*
X146518691Y-121496251D01*
X146633389Y-121410389D01*
X146719251Y-121295691D01*
X146769320Y-121161450D01*
X146775700Y-121102109D01*
X146775699Y-120519292D01*
X146769320Y-120459950D01*
X146719251Y-120325709D01*
X146719249Y-120325707D01*
X146719249Y-120325705D01*
X146633389Y-120211010D01*
X146518694Y-120125150D01*
X146465669Y-120105373D01*
X146384450Y-120075080D01*
X146354779Y-120071890D01*
X146325110Y-120068700D01*
X145317299Y-120068700D01*
X145317278Y-120068702D01*
X145257953Y-120075079D01*
X145123705Y-120125150D01*
X145009010Y-120211010D01*
X144923150Y-120325705D01*
X144873080Y-120459950D01*
X144866700Y-120519283D01*
X144866700Y-121102100D01*
X144866702Y-121102121D01*
X144873079Y-121161446D01*
X144873079Y-121161448D01*
X144873080Y-121161450D01*
X144913400Y-121269555D01*
X144923150Y-121295694D01*
X145009010Y-121410389D01*
X145123705Y-121496249D01*
X145123707Y-121496249D01*
X145123709Y-121496251D01*
X145257950Y-121546320D01*
X145275370Y-121548192D01*
X145340961Y-121575360D01*
X145381453Y-121633677D01*
X145383989Y-121704628D01*
X145351000Y-121762563D01*
X145317160Y-121796404D01*
X145317159Y-121796404D01*
X145289496Y-121850697D01*
X145261146Y-121906338D01*
X145254959Y-121945404D01*
X145246700Y-121997550D01*
X145246700Y-122328851D01*
X145261145Y-122420060D01*
X145317159Y-122529995D01*
X145371269Y-122584105D01*
X145405295Y-122646417D01*
X145400230Y-122717232D01*
X145371269Y-122762295D01*
X145317161Y-122816402D01*
X145317159Y-122816404D01*
X145279028Y-122891242D01*
X145261146Y-122926338D01*
X145247533Y-123012288D01*
X145246700Y-123017550D01*
X145246700Y-123348851D01*
X145261145Y-123440060D01*
X145313240Y-123542304D01*
X145317160Y-123549996D01*
X145404404Y-123637240D01*
X145514338Y-123693254D01*
X145605547Y-123707700D01*
X146036852Y-123707699D01*
X146128062Y-123693254D01*
X146237996Y-123637240D01*
X146275631Y-123599605D01*
X146337943Y-123565579D01*
X146364726Y-123562700D01*
X146405504Y-123562700D01*
X146405520Y-123562701D01*
X146413238Y-123562701D01*
X146513161Y-123562701D01*
X146513162Y-123562701D01*
X146589280Y-123542304D01*
X146589282Y-123542304D01*
X146596748Y-123540302D01*
X146609682Y-123536838D01*
X146696219Y-123486876D01*
X146766876Y-123416219D01*
X146777243Y-123405852D01*
X146777250Y-123405842D01*
X147103290Y-123079802D01*
X147165600Y-123045778D01*
X147236415Y-123050843D01*
X147262385Y-123064134D01*
X147300697Y-123089733D01*
X147300699Y-123089734D01*
X147374933Y-123104500D01*
X147838838Y-123104499D01*
X147906959Y-123124501D01*
X147927928Y-123141399D01*
X148659630Y-123873101D01*
X148705080Y-123899341D01*
X148774670Y-123939519D01*
X148902981Y-123973900D01*
X150590700Y-123973900D01*
X150658821Y-123993902D01*
X150705314Y-124047558D01*
X150716700Y-124099900D01*
X150716700Y-124436817D01*
X150716699Y-124436817D01*
X150727127Y-124475734D01*
X150751081Y-124565130D01*
X150760460Y-124581375D01*
X150760462Y-124581380D01*
X150760463Y-124581380D01*
X150817496Y-124680166D01*
X150817504Y-124680176D01*
X152060509Y-125923180D01*
X152094534Y-125985492D01*
X152089470Y-126056307D01*
X152046923Y-126113143D01*
X151980403Y-126137954D01*
X151925897Y-126129766D01*
X151738359Y-126057113D01*
X151738360Y-126057113D01*
X151738357Y-126057112D01*
X151738356Y-126057112D01*
X151537147Y-126019500D01*
X151332453Y-126019500D01*
X151131244Y-126057112D01*
X151131239Y-126057113D01*
X150940377Y-126131054D01*
X150940366Y-126131059D01*
X150766336Y-126238814D01*
X150615066Y-126376715D01*
X150491713Y-126540063D01*
X150400471Y-126723301D01*
X150344454Y-126920180D01*
X150325568Y-127123995D01*
X150325568Y-127124004D01*
X150344454Y-127327819D01*
X150344455Y-127327821D01*
X150400472Y-127524701D01*
X150491712Y-127707935D01*
X150491713Y-127707936D01*
X150615066Y-127871284D01*
X150766336Y-128009185D01*
X150940366Y-128116940D01*
X150940368Y-128116940D01*
X150940373Y-128116944D01*
X151131244Y-128190888D01*
X151332453Y-128228500D01*
X151332455Y-128228500D01*
X151537145Y-128228500D01*
X151537147Y-128228500D01*
X151738356Y-128190888D01*
X151929227Y-128116944D01*
X152103262Y-128009186D01*
X152254532Y-127871285D01*
X152377888Y-127707935D01*
X152469128Y-127524701D01*
X152525145Y-127327821D01*
X152544032Y-127124000D01*
X152537932Y-127058174D01*
X152525145Y-126920180D01*
X152510867Y-126869999D01*
X152469128Y-126723299D01*
X152468383Y-126721803D01*
X152425135Y-126634948D01*
X152412675Y-126565053D01*
X152439982Y-126499518D01*
X152498385Y-126459150D01*
X152569342Y-126456765D01*
X152627020Y-126489690D01*
X152833395Y-126696065D01*
X152867421Y-126758377D01*
X152870300Y-126785160D01*
X152870300Y-127999063D01*
X152870301Y-127999073D01*
X152885065Y-128073300D01*
X152941316Y-128157484D01*
X153025497Y-128213733D01*
X153025499Y-128213734D01*
X153099733Y-128228500D01*
X154849866Y-128228499D01*
X154849869Y-128228498D01*
X154849873Y-128228498D01*
X154899126Y-128218701D01*
X154924101Y-128213734D01*
X155008284Y-128157484D01*
X155064534Y-128073301D01*
X155079300Y-127999067D01*
X155079299Y-126248934D01*
X155079298Y-126248931D01*
X155079298Y-126248926D01*
X155064534Y-126174699D01*
X155008284Y-126090516D01*
X154998926Y-126084263D01*
X154953401Y-126029787D01*
X154944554Y-125959344D01*
X154975195Y-125895300D01*
X155035597Y-125857989D01*
X155068931Y-125853500D01*
X155847239Y-125853500D01*
X155915360Y-125873502D01*
X155936334Y-125890405D01*
X156680428Y-126634499D01*
X156714454Y-126696811D01*
X156712523Y-126758075D01*
X156694454Y-126821579D01*
X156694454Y-126821584D01*
X156675568Y-127025395D01*
X156675568Y-127025404D01*
X156694454Y-127229219D01*
X156694455Y-127229221D01*
X156750472Y-127426101D01*
X156841712Y-127609335D01*
X156861986Y-127636183D01*
X156965066Y-127772684D01*
X157116336Y-127910585D01*
X157290366Y-128018340D01*
X157290368Y-128018340D01*
X157290373Y-128018344D01*
X157481244Y-128092288D01*
X157682453Y-128129900D01*
X157682455Y-128129900D01*
X157887145Y-128129900D01*
X157887147Y-128129900D01*
X158088356Y-128092288D01*
X158279227Y-128018344D01*
X158453262Y-127910586D01*
X158604532Y-127772685D01*
X158727888Y-127609335D01*
X158819128Y-127426101D01*
X158875145Y-127229221D01*
X158894032Y-127025400D01*
X158875145Y-126821579D01*
X158819128Y-126624699D01*
X158727888Y-126441465D01*
X158678991Y-126376715D01*
X158604533Y-126278115D01*
X158453263Y-126140214D01*
X158279233Y-126032459D01*
X158279228Y-126032457D01*
X158279227Y-126032456D01*
X158245784Y-126019500D01*
X158088359Y-125958513D01*
X158088360Y-125958513D01*
X158088357Y-125958512D01*
X158088356Y-125958512D01*
X157887147Y-125920900D01*
X157682453Y-125920900D01*
X157567347Y-125942416D01*
X157504519Y-125954161D01*
X157433883Y-125947016D01*
X157392272Y-125919401D01*
X157159091Y-125686220D01*
X157125065Y-125623908D01*
X157130130Y-125553093D01*
X157172677Y-125496257D01*
X157239197Y-125471446D01*
X157293702Y-125479633D01*
X157481244Y-125552288D01*
X157682453Y-125589900D01*
X157682455Y-125589900D01*
X157887145Y-125589900D01*
X157887147Y-125589900D01*
X158088356Y-125552288D01*
X158279227Y-125478344D01*
X158453262Y-125370586D01*
X158604532Y-125232685D01*
X158727888Y-125069335D01*
X158819128Y-124886101D01*
X158875145Y-124689221D01*
X158894032Y-124485400D01*
X158893136Y-124475734D01*
X158875145Y-124281580D01*
X158860868Y-124231400D01*
X158819128Y-124084699D01*
X158727888Y-123901465D01*
X158687338Y-123847768D01*
X158604533Y-123738115D01*
X158453263Y-123600214D01*
X158279233Y-123492459D01*
X158279228Y-123492457D01*
X158279227Y-123492456D01*
X158264829Y-123486878D01*
X158088359Y-123418513D01*
X158088360Y-123418513D01*
X158088357Y-123418512D01*
X158088356Y-123418512D01*
X157887147Y-123380900D01*
X157682453Y-123380900D01*
X157528080Y-123409757D01*
X157481239Y-123418513D01*
X157290377Y-123492454D01*
X157290366Y-123492459D01*
X157116336Y-123600214D01*
X156965066Y-123738115D01*
X156841713Y-123901463D01*
X156841712Y-123901464D01*
X156841712Y-123901465D01*
X156762240Y-124061064D01*
X156713973Y-124113126D01*
X156649451Y-124130900D01*
X156472429Y-124130900D01*
X156404308Y-124110898D01*
X156383334Y-124093995D01*
X155582604Y-123293265D01*
X155548578Y-123230953D01*
X155545699Y-123204170D01*
X155545699Y-123017548D01*
X155534193Y-122944898D01*
X155531254Y-122926338D01*
X155475240Y-122816404D01*
X155421131Y-122762295D01*
X155387105Y-122699983D01*
X155392170Y-122629168D01*
X155421131Y-122584105D01*
X155475240Y-122529996D01*
X155531254Y-122420062D01*
X155545700Y-122328853D01*
X155545699Y-121997548D01*
X155531254Y-121906338D01*
X155475240Y-121796404D01*
X155441399Y-121762563D01*
X155407376Y-121700252D01*
X155412442Y-121629436D01*
X155454989Y-121572601D01*
X155517031Y-121548192D01*
X155534450Y-121546320D01*
X155668691Y-121496251D01*
X155783389Y-121410389D01*
X155869251Y-121295691D01*
X155919320Y-121161450D01*
X155925700Y-121102109D01*
X155925699Y-120891826D01*
X155945701Y-120823708D01*
X155999356Y-120777215D01*
X156069630Y-120767110D01*
X156134211Y-120796603D01*
X156140794Y-120802733D01*
X156730341Y-121392280D01*
X156764367Y-121454592D01*
X156759302Y-121525407D01*
X156754040Y-121537531D01*
X156750474Y-121544692D01*
X156750471Y-121544701D01*
X156694454Y-121741580D01*
X156675568Y-121945395D01*
X156675568Y-121945404D01*
X156694454Y-122149219D01*
X156750471Y-122346098D01*
X156750472Y-122346101D01*
X156841712Y-122529335D01*
X156850703Y-122541241D01*
X156965066Y-122692684D01*
X157116336Y-122830585D01*
X157290366Y-122938340D01*
X157290368Y-122938340D01*
X157290373Y-122938344D01*
X157481244Y-123012288D01*
X157682453Y-123049900D01*
X157682455Y-123049900D01*
X157887145Y-123049900D01*
X157887147Y-123049900D01*
X158088356Y-123012288D01*
X158279227Y-122938344D01*
X158453262Y-122830586D01*
X158604532Y-122692685D01*
X158727888Y-122529335D01*
X158819128Y-122346101D01*
X158875145Y-122149221D01*
X158894032Y-121945400D01*
X158892135Y-121924933D01*
X158875145Y-121741580D01*
X158875145Y-121741579D01*
X158819128Y-121544699D01*
X158727888Y-121361465D01*
X158674952Y-121291366D01*
X158604533Y-121198115D01*
X158453263Y-121060214D01*
X158279233Y-120952459D01*
X158279228Y-120952457D01*
X158279227Y-120952456D01*
X158277193Y-120951668D01*
X158088359Y-120878513D01*
X158088360Y-120878513D01*
X158088357Y-120878512D01*
X158088356Y-120878512D01*
X157887147Y-120840900D01*
X157682453Y-120840900D01*
X157581848Y-120859706D01*
X157481242Y-120878512D01*
X157368963Y-120922010D01*
X157298217Y-120927966D01*
X157235481Y-120894729D01*
X157234352Y-120893613D01*
X156531605Y-120190866D01*
X156497579Y-120128554D01*
X156494700Y-120101771D01*
X156494700Y-119810419D01*
X156514702Y-119742298D01*
X156568358Y-119695805D01*
X156638632Y-119685701D01*
X156703212Y-119715195D01*
X156741596Y-119774921D01*
X156741890Y-119775938D01*
X156745105Y-119787240D01*
X156750472Y-119806101D01*
X156841712Y-119989335D01*
X156841713Y-119989336D01*
X156965066Y-120152684D01*
X157116336Y-120290585D01*
X157290366Y-120398340D01*
X157290368Y-120398340D01*
X157290373Y-120398344D01*
X157481244Y-120472288D01*
X157682453Y-120509900D01*
X157682455Y-120509900D01*
X157887145Y-120509900D01*
X157887147Y-120509900D01*
X158088356Y-120472288D01*
X158279227Y-120398344D01*
X158453262Y-120290586D01*
X158604532Y-120152685D01*
X158727888Y-119989335D01*
X158819128Y-119806101D01*
X158875145Y-119609221D01*
X158893016Y-119416366D01*
X158894032Y-119405404D01*
X158894032Y-119405395D01*
X158875145Y-119201580D01*
X158824761Y-119024498D01*
X158819128Y-119004699D01*
X158727888Y-118821465D01*
X158657060Y-118727673D01*
X158604533Y-118658115D01*
X158453263Y-118520214D01*
X158279233Y-118412459D01*
X158279228Y-118412457D01*
X158279227Y-118412456D01*
X158200637Y-118382010D01*
X158088359Y-118338513D01*
X158088360Y-118338513D01*
X158088357Y-118338512D01*
X158088356Y-118338512D01*
X157887147Y-118300900D01*
X157682453Y-118300900D01*
X157581848Y-118319706D01*
X157481242Y-118338512D01*
X157368963Y-118382010D01*
X157298217Y-118387966D01*
X157235481Y-118354729D01*
X157234352Y-118353613D01*
X156931605Y-118050866D01*
X156897579Y-117988554D01*
X156894700Y-117961771D01*
X156894700Y-117833899D01*
X156914702Y-117765778D01*
X156968358Y-117719285D01*
X157038632Y-117709181D01*
X157103212Y-117738675D01*
X157105585Y-117740783D01*
X157116338Y-117750586D01*
X157153851Y-117773813D01*
X157290366Y-117858340D01*
X157290368Y-117858340D01*
X157290373Y-117858344D01*
X157481244Y-117932288D01*
X157682453Y-117969900D01*
X157682455Y-117969900D01*
X157887145Y-117969900D01*
X157887147Y-117969900D01*
X158088356Y-117932288D01*
X158279227Y-117858344D01*
X158453262Y-117750586D01*
X158604532Y-117612685D01*
X158606360Y-117610265D01*
X158627720Y-117581979D01*
X158727888Y-117449335D01*
X158819128Y-117266101D01*
X158875145Y-117069221D01*
X158887551Y-116935342D01*
X158894032Y-116865404D01*
X158894032Y-116865395D01*
X158875145Y-116661580D01*
X158819130Y-116464707D01*
X158819128Y-116464699D01*
X158727888Y-116281465D01*
X158676635Y-116213595D01*
X158604533Y-116118115D01*
X158453263Y-115980214D01*
X158279233Y-115872459D01*
X158279228Y-115872457D01*
X158279227Y-115872456D01*
X158202093Y-115842574D01*
X158088359Y-115798513D01*
X158088360Y-115798513D01*
X158088357Y-115798512D01*
X158088356Y-115798512D01*
X157887147Y-115760900D01*
X157682453Y-115760900D01*
X157481244Y-115798512D01*
X157481239Y-115798513D01*
X157290377Y-115872454D01*
X157290366Y-115872459D01*
X157116336Y-115980214D01*
X156965066Y-116118115D01*
X156841713Y-116281463D01*
X156750471Y-116464701D01*
X156694452Y-116661588D01*
X156694016Y-116663920D01*
X156693500Y-116664933D01*
X156692861Y-116667181D01*
X156692421Y-116667055D01*
X156661829Y-116727201D01*
X156600538Y-116763034D01*
X156529605Y-116760043D01*
X156481070Y-116729845D01*
X155857651Y-116106426D01*
X155823625Y-116044114D01*
X155828690Y-115973299D01*
X155841746Y-115947786D01*
X155841863Y-115947505D01*
X155856599Y-115873422D01*
X155856600Y-115873415D01*
X155856600Y-115502400D01*
X153948601Y-115502400D01*
X153948601Y-115724500D01*
X153928599Y-115792621D01*
X153874943Y-115839114D01*
X153822601Y-115850500D01*
X153783100Y-115850500D01*
X153714979Y-115830498D01*
X153668486Y-115776842D01*
X153657100Y-115724500D01*
X153657099Y-114947428D01*
X153677101Y-114879307D01*
X153693996Y-114858341D01*
X153733508Y-114818829D01*
X153795818Y-114784807D01*
X153866634Y-114789873D01*
X153923469Y-114832420D01*
X153948279Y-114898941D01*
X153948600Y-114907928D01*
X153948600Y-114994400D01*
X155856599Y-114994400D01*
X155856599Y-114623386D01*
X155856598Y-114623377D01*
X155841862Y-114549294D01*
X155841862Y-114549292D01*
X155788113Y-114468851D01*
X155766898Y-114401098D01*
X155785681Y-114332631D01*
X155788114Y-114328846D01*
X155790414Y-114325404D01*
X156675568Y-114325404D01*
X156694454Y-114529219D01*
X156721247Y-114623386D01*
X156750472Y-114726101D01*
X156841712Y-114909335D01*
X156841713Y-114909336D01*
X156965066Y-115072684D01*
X157116336Y-115210585D01*
X157290366Y-115318340D01*
X157290368Y-115318340D01*
X157290373Y-115318344D01*
X157481244Y-115392288D01*
X157682453Y-115429900D01*
X157682455Y-115429900D01*
X157887145Y-115429900D01*
X157887147Y-115429900D01*
X158088356Y-115392288D01*
X158279227Y-115318344D01*
X158453262Y-115210586D01*
X158604532Y-115072685D01*
X158727888Y-114909335D01*
X158819128Y-114726101D01*
X158875145Y-114529221D01*
X158886316Y-114408666D01*
X158894032Y-114325404D01*
X158894032Y-114325395D01*
X158875145Y-114121580D01*
X158875145Y-114121579D01*
X158819128Y-113924699D01*
X158727888Y-113741465D01*
X158679943Y-113677975D01*
X158604533Y-113578115D01*
X158453263Y-113440214D01*
X158279233Y-113332459D01*
X158279228Y-113332457D01*
X158279227Y-113332456D01*
X158277193Y-113331668D01*
X158088359Y-113258513D01*
X158088360Y-113258513D01*
X158088357Y-113258512D01*
X158088356Y-113258512D01*
X157887147Y-113220900D01*
X157682453Y-113220900D01*
X157481244Y-113258512D01*
X157481239Y-113258513D01*
X157290377Y-113332454D01*
X157290366Y-113332459D01*
X157116336Y-113440214D01*
X156965066Y-113578115D01*
X156841713Y-113741463D01*
X156750471Y-113924701D01*
X156694454Y-114121580D01*
X156675568Y-114325395D01*
X156675568Y-114325404D01*
X155790414Y-114325404D01*
X155826138Y-114271939D01*
X155842334Y-114247701D01*
X155857100Y-114173467D01*
X155857099Y-112923334D01*
X155857098Y-112923331D01*
X155857098Y-112923326D01*
X155842968Y-112852288D01*
X155842334Y-112849099D01*
X155842333Y-112849098D01*
X155842334Y-112849098D01*
X155805562Y-112794067D01*
X155784346Y-112726315D01*
X155803128Y-112657847D01*
X155821231Y-112634969D01*
X155885324Y-112570875D01*
X155885326Y-112570873D01*
X155941986Y-112459671D01*
X155948207Y-112420400D01*
X155294600Y-112420400D01*
X155226479Y-112400398D01*
X155179986Y-112346742D01*
X155168600Y-112294400D01*
X155168600Y-112038400D01*
X155188602Y-111970279D01*
X155242258Y-111923786D01*
X155294600Y-111912400D01*
X155948206Y-111912400D01*
X155952547Y-111907316D01*
X155959336Y-111854797D01*
X156005059Y-111800484D01*
X156072888Y-111779513D01*
X156074684Y-111779500D01*
X156086270Y-111779500D01*
X156086271Y-111779500D01*
X156240593Y-111741463D01*
X156381329Y-111667599D01*
X156475372Y-111584283D01*
X156539623Y-111554082D01*
X156610004Y-111563413D01*
X156664168Y-111609313D01*
X156684917Y-111677210D01*
X156684388Y-111690215D01*
X156675569Y-111785395D01*
X156675568Y-111785405D01*
X156694454Y-111989219D01*
X156744766Y-112166046D01*
X156750472Y-112186101D01*
X156841712Y-112369335D01*
X156841713Y-112369336D01*
X156965066Y-112532684D01*
X157116336Y-112670585D01*
X157290366Y-112778340D01*
X157290368Y-112778340D01*
X157290373Y-112778344D01*
X157481244Y-112852288D01*
X157682453Y-112889900D01*
X157682455Y-112889900D01*
X157887145Y-112889900D01*
X157887147Y-112889900D01*
X158088356Y-112852288D01*
X158279227Y-112778344D01*
X158453262Y-112670586D01*
X158604532Y-112532685D01*
X158727888Y-112369335D01*
X158819128Y-112186101D01*
X158875145Y-111989221D01*
X158887573Y-111855102D01*
X158894032Y-111785404D01*
X158894032Y-111785395D01*
X158875145Y-111581580D01*
X158869976Y-111563413D01*
X158819128Y-111384699D01*
X158727888Y-111201465D01*
X158630655Y-111072707D01*
X158604533Y-111038115D01*
X158453263Y-110900214D01*
X158279233Y-110792459D01*
X158279228Y-110792457D01*
X158279227Y-110792456D01*
X158277193Y-110791668D01*
X158088359Y-110718513D01*
X158088360Y-110718513D01*
X158088357Y-110718512D01*
X158088356Y-110718512D01*
X157887147Y-110680900D01*
X157682453Y-110680900D01*
X157594078Y-110697420D01*
X157481242Y-110718512D01*
X157368963Y-110762010D01*
X157298217Y-110767966D01*
X157235481Y-110734729D01*
X157234352Y-110733613D01*
X156626205Y-110125466D01*
X156592179Y-110063154D01*
X156589300Y-110036371D01*
X156589300Y-109858142D01*
X156609302Y-109790021D01*
X156662958Y-109743528D01*
X156733232Y-109733424D01*
X156797812Y-109762918D01*
X156828091Y-109801980D01*
X156841711Y-109829335D01*
X156965066Y-109992684D01*
X157116336Y-110130585D01*
X157290366Y-110238340D01*
X157290368Y-110238340D01*
X157290373Y-110238344D01*
X157481244Y-110312288D01*
X157682453Y-110349900D01*
X157682455Y-110349900D01*
X157887145Y-110349900D01*
X157887147Y-110349900D01*
X158088356Y-110312288D01*
X158279227Y-110238344D01*
X158453262Y-110130586D01*
X158604532Y-109992685D01*
X158727888Y-109829335D01*
X158819128Y-109646101D01*
X158875145Y-109449221D01*
X158891355Y-109274287D01*
X158894032Y-109245404D01*
X158894032Y-109245395D01*
X158875145Y-109041580D01*
X158874188Y-109038217D01*
X158819128Y-108844699D01*
X158727888Y-108661465D01*
X158675381Y-108591934D01*
X158604533Y-108498115D01*
X158453263Y-108360214D01*
X158279233Y-108252459D01*
X158279228Y-108252457D01*
X158279227Y-108252456D01*
X158127336Y-108193613D01*
X158088359Y-108178513D01*
X158088360Y-108178513D01*
X158088357Y-108178512D01*
X158088356Y-108178512D01*
X157887147Y-108140900D01*
X157682453Y-108140900D01*
X157581848Y-108159706D01*
X157481242Y-108178512D01*
X157368963Y-108222010D01*
X157298217Y-108227966D01*
X157235481Y-108194729D01*
X157234352Y-108193613D01*
X157026205Y-107985466D01*
X156992179Y-107923154D01*
X156989300Y-107896371D01*
X156989300Y-107738140D01*
X157009302Y-107670019D01*
X157062958Y-107623526D01*
X157133232Y-107613422D01*
X157181628Y-107631011D01*
X157290373Y-107698344D01*
X157481244Y-107772288D01*
X157682453Y-107809900D01*
X157682455Y-107809900D01*
X157887145Y-107809900D01*
X157887147Y-107809900D01*
X158088356Y-107772288D01*
X158279227Y-107698344D01*
X158453262Y-107590586D01*
X158604532Y-107452685D01*
X158617504Y-107435508D01*
X158649292Y-107393413D01*
X158727888Y-107289335D01*
X158819128Y-107106101D01*
X158875145Y-106909221D01*
X158887492Y-106775981D01*
X158894032Y-106705404D01*
X158894032Y-106705395D01*
X158875145Y-106501580D01*
X158875145Y-106501579D01*
X158819128Y-106304699D01*
X158727888Y-106121465D01*
X158669012Y-106043500D01*
X158604533Y-105958115D01*
X158453263Y-105820214D01*
X158279233Y-105712459D01*
X158279228Y-105712457D01*
X158279227Y-105712456D01*
X158213430Y-105686966D01*
X158088359Y-105638513D01*
X158088360Y-105638513D01*
X158088357Y-105638512D01*
X158088356Y-105638512D01*
X157887147Y-105600900D01*
X157682453Y-105600900D01*
X157581848Y-105619706D01*
X157481242Y-105638512D01*
X157368963Y-105682010D01*
X157298217Y-105687966D01*
X157235481Y-105654729D01*
X157234352Y-105653613D01*
X156296734Y-104715995D01*
X156262708Y-104653683D01*
X156267773Y-104582868D01*
X156310320Y-104526032D01*
X156376840Y-104501221D01*
X156385829Y-104500900D01*
X156639990Y-104500900D01*
X156708111Y-104520902D01*
X156752779Y-104570735D01*
X156841712Y-104749335D01*
X156841713Y-104749336D01*
X156965066Y-104912684D01*
X157116336Y-105050585D01*
X157290366Y-105158340D01*
X157290368Y-105158340D01*
X157290373Y-105158344D01*
X157481244Y-105232288D01*
X157682453Y-105269900D01*
X157682455Y-105269900D01*
X157887145Y-105269900D01*
X157887147Y-105269900D01*
X158088356Y-105232288D01*
X158279227Y-105158344D01*
X158453262Y-105050586D01*
X158604532Y-104912685D01*
X158611258Y-104903779D01*
X158652244Y-104849504D01*
X158727888Y-104749335D01*
X158819128Y-104566101D01*
X158875145Y-104369221D01*
X158884291Y-104270520D01*
X158894032Y-104165404D01*
X158894032Y-104165395D01*
X158875145Y-103961580D01*
X158872961Y-103953903D01*
X158819128Y-103764699D01*
X158727888Y-103581465D01*
X158634926Y-103458363D01*
X158604533Y-103418115D01*
X158453263Y-103280214D01*
X158279233Y-103172459D01*
X158279228Y-103172457D01*
X158279227Y-103172456D01*
X158239442Y-103157043D01*
X158088359Y-103098513D01*
X158088360Y-103098513D01*
X158088357Y-103098512D01*
X158088356Y-103098512D01*
X157887147Y-103060900D01*
X157682453Y-103060900D01*
X157481244Y-103098512D01*
X157481239Y-103098513D01*
X157290377Y-103172454D01*
X157290366Y-103172459D01*
X157116336Y-103280214D01*
X156965066Y-103418115D01*
X156841713Y-103581463D01*
X156841712Y-103581464D01*
X156841712Y-103581465D01*
X156771701Y-103722064D01*
X156723434Y-103774126D01*
X156658912Y-103791900D01*
X155088702Y-103791900D01*
X155020581Y-103771898D01*
X154974088Y-103718242D01*
X154963984Y-103647968D01*
X154993478Y-103583388D01*
X154999607Y-103576805D01*
X156559607Y-102016805D01*
X156621919Y-101982779D01*
X156648702Y-101979900D01*
X156649451Y-101979900D01*
X156717572Y-101999902D01*
X156762240Y-102049735D01*
X156841712Y-102209335D01*
X156841713Y-102209336D01*
X156965066Y-102372684D01*
X157116336Y-102510585D01*
X157290366Y-102618340D01*
X157290368Y-102618340D01*
X157290373Y-102618344D01*
X157481244Y-102692288D01*
X157682453Y-102729900D01*
X157682455Y-102729900D01*
X157887145Y-102729900D01*
X157887147Y-102729900D01*
X158088356Y-102692288D01*
X158279227Y-102618344D01*
X158453262Y-102510586D01*
X158604532Y-102372685D01*
X158727888Y-102209335D01*
X158819128Y-102026101D01*
X158875145Y-101829221D01*
X158891910Y-101648301D01*
X158894032Y-101625404D01*
X158894032Y-101625395D01*
X158875145Y-101421580D01*
X158857765Y-101360495D01*
X158819128Y-101224699D01*
X158727888Y-101041465D01*
X158685102Y-100984807D01*
X158604533Y-100878115D01*
X158453263Y-100740214D01*
X158279233Y-100632459D01*
X158279228Y-100632457D01*
X158279227Y-100632456D01*
X158191195Y-100598352D01*
X158088359Y-100558513D01*
X158088360Y-100558513D01*
X158088357Y-100558512D01*
X158088356Y-100558512D01*
X157887147Y-100520900D01*
X157682453Y-100520900D01*
X157677552Y-100521815D01*
X157671560Y-100522936D01*
X157600924Y-100515788D01*
X157545366Y-100471587D01*
X157522524Y-100404365D01*
X157539651Y-100335466D01*
X157559311Y-100309992D01*
X157642501Y-100226802D01*
X157704812Y-100192779D01*
X157731594Y-100189900D01*
X157887145Y-100189900D01*
X157887147Y-100189900D01*
X158088356Y-100152288D01*
X158279227Y-100078344D01*
X158453262Y-99970586D01*
X158604532Y-99832685D01*
X158727888Y-99669335D01*
X158819128Y-99486101D01*
X158875145Y-99289221D01*
X158889291Y-99136566D01*
X158894032Y-99085404D01*
X158894032Y-99085395D01*
X158875145Y-98881580D01*
X158875145Y-98881579D01*
X158819128Y-98684699D01*
X158727888Y-98501465D01*
X158674900Y-98431297D01*
X158604533Y-98338115D01*
X158453263Y-98200214D01*
X158279233Y-98092459D01*
X158279228Y-98092457D01*
X158279227Y-98092456D01*
X158279222Y-98092454D01*
X158088359Y-98018513D01*
X158088360Y-98018513D01*
X158088357Y-98018512D01*
X158088356Y-98018512D01*
X157887147Y-97980900D01*
X157682453Y-97980900D01*
X157481244Y-98018512D01*
X157481239Y-98018513D01*
X157290377Y-98092454D01*
X157290366Y-98092459D01*
X157116336Y-98200214D01*
X157105585Y-98210016D01*
X157041767Y-98241126D01*
X156971261Y-98232796D01*
X156916451Y-98187669D01*
X156894740Y-98120074D01*
X156894700Y-98116900D01*
X156894700Y-97989029D01*
X156914702Y-97920908D01*
X156931600Y-97899938D01*
X157234353Y-97597184D01*
X157296664Y-97563161D01*
X157367479Y-97568225D01*
X157368964Y-97568790D01*
X157427265Y-97591376D01*
X157476938Y-97610620D01*
X157481239Y-97612286D01*
X157481240Y-97612286D01*
X157481244Y-97612288D01*
X157682453Y-97649900D01*
X157682455Y-97649900D01*
X157887145Y-97649900D01*
X157887147Y-97649900D01*
X158088356Y-97612288D01*
X158279227Y-97538344D01*
X158453262Y-97430586D01*
X158604532Y-97292685D01*
X158727888Y-97129335D01*
X158819128Y-96946101D01*
X158875145Y-96749221D01*
X158883637Y-96657581D01*
X158894032Y-96545404D01*
X158894032Y-96545395D01*
X158875145Y-96341580D01*
X158865989Y-96309400D01*
X158819128Y-96144699D01*
X158727888Y-95961465D01*
X158649500Y-95857662D01*
X158604533Y-95798115D01*
X158453263Y-95660214D01*
X158279233Y-95552459D01*
X158279228Y-95552457D01*
X158279227Y-95552456D01*
X158254906Y-95543034D01*
X158088359Y-95478513D01*
X158088360Y-95478513D01*
X158088357Y-95478512D01*
X158088356Y-95478512D01*
X157887147Y-95440900D01*
X157682453Y-95440900D01*
X157481244Y-95478512D01*
X157481239Y-95478513D01*
X157290377Y-95552454D01*
X157290369Y-95552458D01*
X157112430Y-95662633D01*
X157043983Y-95681487D01*
X156976208Y-95660343D01*
X156930623Y-95605914D01*
X156920100Y-95555505D01*
X156920100Y-95423629D01*
X156940102Y-95355508D01*
X156957000Y-95334538D01*
X157234353Y-95057184D01*
X157296664Y-95023161D01*
X157367479Y-95028225D01*
X157368964Y-95028790D01*
X157481239Y-95072286D01*
X157481240Y-95072286D01*
X157481244Y-95072288D01*
X157682453Y-95109900D01*
X157682455Y-95109900D01*
X157887145Y-95109900D01*
X157887147Y-95109900D01*
X158088356Y-95072288D01*
X158279227Y-94998344D01*
X158453262Y-94890586D01*
X158604532Y-94752685D01*
X158727888Y-94589335D01*
X158819128Y-94406101D01*
X158875145Y-94209221D01*
X158887823Y-94072402D01*
X158894032Y-94005404D01*
X158894032Y-94005395D01*
X158875145Y-93801580D01*
X158834167Y-93657557D01*
X158819128Y-93604699D01*
X158727888Y-93421465D01*
X158687338Y-93367768D01*
X158604533Y-93258115D01*
X158453263Y-93120214D01*
X158279233Y-93012459D01*
X158279228Y-93012457D01*
X158279227Y-93012456D01*
X158088359Y-92938513D01*
X158088360Y-92938513D01*
X158088357Y-92938512D01*
X158088356Y-92938512D01*
X157887147Y-92900900D01*
X157682453Y-92900900D01*
X157481244Y-92938512D01*
X157481239Y-92938513D01*
X157290377Y-93012454D01*
X157290366Y-93012459D01*
X157116336Y-93120214D01*
X156965066Y-93258115D01*
X156841712Y-93421464D01*
X156841708Y-93421469D01*
X156758890Y-93587791D01*
X156710621Y-93639855D01*
X156641867Y-93657557D01*
X156574456Y-93635277D01*
X156529793Y-93580090D01*
X156520100Y-93531628D01*
X156520100Y-93283629D01*
X156540102Y-93215508D01*
X156557000Y-93194538D01*
X157234353Y-92517184D01*
X157296664Y-92483161D01*
X157367479Y-92488225D01*
X157368964Y-92488790D01*
X157481239Y-92532286D01*
X157481240Y-92532286D01*
X157481244Y-92532288D01*
X157682453Y-92569900D01*
X157682455Y-92569900D01*
X157887145Y-92569900D01*
X157887147Y-92569900D01*
X158088356Y-92532288D01*
X158279227Y-92458344D01*
X158453262Y-92350586D01*
X158604532Y-92212685D01*
X158618238Y-92194536D01*
X158624806Y-92185836D01*
X158727888Y-92049335D01*
X158819128Y-91866101D01*
X158875145Y-91669221D01*
X158886279Y-91549072D01*
X158894032Y-91465404D01*
X158894032Y-91465395D01*
X158877171Y-91283447D01*
X158875145Y-91261579D01*
X158819128Y-91064699D01*
X158727888Y-90881465D01*
X158687338Y-90827768D01*
X158604533Y-90718115D01*
X158453263Y-90580214D01*
X158279233Y-90472459D01*
X158279228Y-90472457D01*
X158279227Y-90472456D01*
X158258097Y-90464270D01*
X158088359Y-90398513D01*
X158088360Y-90398513D01*
X158088357Y-90398512D01*
X158088356Y-90398512D01*
X157887147Y-90360900D01*
X157682453Y-90360900D01*
X157481244Y-90398512D01*
X157481239Y-90398513D01*
X157290377Y-90472454D01*
X157290366Y-90472459D01*
X157116337Y-90580214D01*
X157054785Y-90636326D01*
X156990968Y-90667436D01*
X156920462Y-90659106D01*
X156865652Y-90613979D01*
X156843940Y-90546384D01*
X156843900Y-90543210D01*
X156843900Y-90419829D01*
X156863902Y-90351708D01*
X156880800Y-90330738D01*
X157234353Y-89977184D01*
X157296664Y-89943161D01*
X157367479Y-89948225D01*
X157368964Y-89948790D01*
X157481239Y-89992286D01*
X157481240Y-89992286D01*
X157481244Y-89992288D01*
X157682453Y-90029900D01*
X157682455Y-90029900D01*
X157887145Y-90029900D01*
X157887147Y-90029900D01*
X158088356Y-89992288D01*
X158279227Y-89918344D01*
X158453262Y-89810586D01*
X158604532Y-89672685D01*
X158615752Y-89657828D01*
X158639862Y-89625900D01*
X158727888Y-89509335D01*
X158819128Y-89326101D01*
X158875145Y-89129221D01*
X158885785Y-89014398D01*
X158894032Y-88925404D01*
X158894032Y-88925395D01*
X158875145Y-88721580D01*
X158833462Y-88575079D01*
X158819128Y-88524699D01*
X158727888Y-88341465D01*
X158675355Y-88271900D01*
X158604533Y-88178115D01*
X158453263Y-88040214D01*
X158279233Y-87932459D01*
X158279228Y-87932457D01*
X158279227Y-87932456D01*
X158279222Y-87932454D01*
X158088359Y-87858513D01*
X158088360Y-87858513D01*
X158088357Y-87858512D01*
X158088356Y-87858512D01*
X157887147Y-87820900D01*
X157682453Y-87820900D01*
X157481244Y-87858512D01*
X157481239Y-87858513D01*
X157290377Y-87932454D01*
X157290366Y-87932459D01*
X157116336Y-88040214D01*
X156965066Y-88178115D01*
X156841713Y-88341463D01*
X156750471Y-88524701D01*
X156694454Y-88721580D01*
X156675568Y-88925395D01*
X156675568Y-88925404D01*
X156694454Y-89129219D01*
X156746683Y-89312786D01*
X156750472Y-89326101D01*
X156754037Y-89333261D01*
X156766495Y-89403154D01*
X156739188Y-89468689D01*
X156730342Y-89478517D01*
X156271732Y-89937129D01*
X156271731Y-89937129D01*
X156205734Y-90003125D01*
X156205726Y-90003135D01*
X156159059Y-90083966D01*
X156134900Y-90174125D01*
X156134900Y-91996085D01*
X156114898Y-92064206D01*
X156097995Y-92085180D01*
X155547932Y-92635243D01*
X155523777Y-92659398D01*
X155481930Y-92701244D01*
X155481926Y-92701249D01*
X155435259Y-92782080D01*
X155411100Y-92872239D01*
X155411100Y-96668511D01*
X155391098Y-96736632D01*
X155374195Y-96757606D01*
X155104807Y-97026993D01*
X155104808Y-97026994D01*
X155056531Y-97075271D01*
X155056526Y-97075277D01*
X155009859Y-97156108D01*
X154985700Y-97246267D01*
X154985700Y-99183366D01*
X154965698Y-99251487D01*
X154912042Y-99297980D01*
X154841768Y-99308084D01*
X154777188Y-99278590D01*
X154770605Y-99272461D01*
X154634710Y-99136566D01*
X154621075Y-99126660D01*
X154402471Y-99126660D01*
X154334350Y-99106658D01*
X154313375Y-99089755D01*
X154277865Y-99054245D01*
X154222505Y-99022457D01*
X154197118Y-98973497D01*
X153851616Y-98627994D01*
X153851616Y-98627993D01*
X153492408Y-98268785D01*
X154210826Y-98268785D01*
X154546701Y-98604660D01*
X154546703Y-98604660D01*
X154558581Y-98592781D01*
X154558598Y-98592762D01*
X154594596Y-98548090D01*
X154651815Y-98422801D01*
X154671416Y-98286462D01*
X154651815Y-98150121D01*
X154594596Y-98024832D01*
X154558598Y-97980160D01*
X154558581Y-97980141D01*
X154529025Y-97950585D01*
X154529024Y-97950585D01*
X154210826Y-98268783D01*
X154210826Y-98268785D01*
X153492408Y-98268785D01*
X153408289Y-98184666D01*
X153374263Y-98122354D01*
X153379328Y-98051539D01*
X153408285Y-98006481D01*
X153589312Y-97825454D01*
X153651620Y-97791431D01*
X153722435Y-97796496D01*
X153767498Y-97825456D01*
X153851616Y-97909573D01*
X153851617Y-97909573D01*
X154169814Y-97591376D01*
X154169814Y-97591374D01*
X154140258Y-97561818D01*
X154140237Y-97561799D01*
X154090381Y-97521623D01*
X154049890Y-97463305D01*
X154047356Y-97392354D01*
X154080344Y-97334422D01*
X154686038Y-96728729D01*
X154732708Y-96647893D01*
X154756867Y-96557732D01*
X154756867Y-96464390D01*
X154756867Y-91998862D01*
X154776869Y-91930741D01*
X154793767Y-91909771D01*
X154995071Y-91708468D01*
X155012523Y-91678240D01*
X155041741Y-91627632D01*
X155065900Y-91537471D01*
X155065900Y-89657828D01*
X155085902Y-89589707D01*
X155102800Y-89568738D01*
X157234353Y-87437184D01*
X157296663Y-87403161D01*
X157367478Y-87408225D01*
X157368963Y-87408790D01*
X157481239Y-87452286D01*
X157481240Y-87452286D01*
X157481244Y-87452288D01*
X157682453Y-87489900D01*
X157682455Y-87489900D01*
X157887145Y-87489900D01*
X157887147Y-87489900D01*
X158088356Y-87452288D01*
X158279227Y-87378344D01*
X158453262Y-87270586D01*
X158604532Y-87132685D01*
X158609830Y-87125670D01*
X158671347Y-87044207D01*
X158727888Y-86969335D01*
X158819128Y-86786101D01*
X158875145Y-86589221D01*
X158889663Y-86432547D01*
X158894032Y-86385404D01*
X158894032Y-86385395D01*
X158875145Y-86181580D01*
X158866169Y-86150032D01*
X158819128Y-85984699D01*
X158727888Y-85801465D01*
X158687338Y-85747768D01*
X158604533Y-85638115D01*
X158453263Y-85500214D01*
X158279233Y-85392459D01*
X158279228Y-85392457D01*
X158279227Y-85392456D01*
X158279222Y-85392454D01*
X158088359Y-85318513D01*
X158088360Y-85318513D01*
X158088357Y-85318512D01*
X158088356Y-85318512D01*
X157887147Y-85280900D01*
X157682453Y-85280900D01*
X157481244Y-85318512D01*
X157481239Y-85318513D01*
X157290377Y-85392454D01*
X157290366Y-85392459D01*
X157116336Y-85500214D01*
X156965066Y-85638115D01*
X156841712Y-85801464D01*
X156841711Y-85801465D01*
X156751279Y-85983076D01*
X156703010Y-86035139D01*
X156634256Y-86052841D01*
X156566845Y-86030561D01*
X156522181Y-85975374D01*
X156520677Y-85971593D01*
X156519454Y-85968367D01*
X156463092Y-85819754D01*
X156372803Y-85688948D01*
X156253834Y-85583550D01*
X156253833Y-85583549D01*
X156253830Y-85583547D01*
X156113102Y-85509688D01*
X156113100Y-85509687D01*
X156113098Y-85509686D01*
X156113096Y-85509685D01*
X156113095Y-85509685D01*
X155958777Y-85471649D01*
X155958776Y-85471649D01*
X155799834Y-85471649D01*
X155799832Y-85471649D01*
X155645514Y-85509685D01*
X155645507Y-85509688D01*
X155504779Y-85583547D01*
X155504774Y-85583551D01*
X155385806Y-85688949D01*
X155295520Y-85819750D01*
X155295517Y-85819756D01*
X155239154Y-85968369D01*
X155219998Y-86126145D01*
X155219998Y-86126152D01*
X155239154Y-86283928D01*
X155295517Y-86432541D01*
X155295520Y-86432547D01*
X155382063Y-86557927D01*
X155404299Y-86625352D01*
X155386552Y-86694095D01*
X155382063Y-86701079D01*
X155300156Y-86819742D01*
X155300153Y-86819748D01*
X155243790Y-86968361D01*
X155224634Y-87126137D01*
X155224634Y-87126144D01*
X155243790Y-87283920D01*
X155288889Y-87402833D01*
X155300154Y-87432536D01*
X155390443Y-87563342D01*
X155509412Y-87668740D01*
X155509413Y-87668740D01*
X155509415Y-87668742D01*
X155584141Y-87707961D01*
X155650148Y-87742604D01*
X155650151Y-87742604D01*
X155650152Y-87742605D01*
X155654741Y-87743736D01*
X155716097Y-87779455D01*
X155748402Y-87842676D01*
X155741399Y-87913327D01*
X155713689Y-87955171D01*
X154855575Y-88813285D01*
X154793263Y-88847311D01*
X154722448Y-88842246D01*
X154665612Y-88799699D01*
X154640801Y-88733179D01*
X154644773Y-88691581D01*
X154675100Y-88578401D01*
X154675100Y-87778999D01*
X154671827Y-87766782D01*
X154637312Y-87637970D01*
X154588347Y-87553161D01*
X154575454Y-87530829D01*
X154575454Y-87530828D01*
X154575451Y-87530825D01*
X154564311Y-87511529D01*
X154461071Y-87408289D01*
X154461070Y-87408288D01*
X153156205Y-86103423D01*
X153122179Y-86041111D01*
X153119300Y-86014328D01*
X153119300Y-85986087D01*
X153139302Y-85917966D01*
X153141605Y-85914510D01*
X153148587Y-85904395D01*
X153204949Y-85755782D01*
X153204949Y-85755781D01*
X153204950Y-85755779D01*
X153224107Y-85598003D01*
X153224107Y-85597996D01*
X153204950Y-85440220D01*
X153166614Y-85339138D01*
X153148587Y-85291605D01*
X153141602Y-85281486D01*
X153119368Y-85214062D01*
X153119300Y-85209912D01*
X153119300Y-84129679D01*
X153119299Y-84129665D01*
X153119299Y-83768032D01*
X153139301Y-83699911D01*
X153192957Y-83653418D01*
X153212680Y-83646327D01*
X153276935Y-83629111D01*
X153408165Y-83553345D01*
X153408169Y-83553340D01*
X153414717Y-83548317D01*
X153416596Y-83550766D01*
X153466017Y-83523780D01*
X153536832Y-83528845D01*
X153593668Y-83571392D01*
X153618479Y-83637912D01*
X153618800Y-83646901D01*
X153618800Y-85086829D01*
X153689814Y-85086829D01*
X153689822Y-85086828D01*
X153763905Y-85072092D01*
X153763907Y-85072092D01*
X153847924Y-85015954D01*
X153904062Y-84931936D01*
X153904063Y-84931934D01*
X153911223Y-84895939D01*
X153944129Y-84833028D01*
X154005823Y-84797896D01*
X154076718Y-84801695D01*
X154104803Y-84815752D01*
X154127648Y-84831016D01*
X154230800Y-84873742D01*
X154230800Y-84322890D01*
X154244740Y-84347035D01*
X154300595Y-84402890D01*
X154369004Y-84442386D01*
X154445304Y-84462830D01*
X154524296Y-84462830D01*
X154600596Y-84442386D01*
X154669005Y-84402890D01*
X154724860Y-84347035D01*
X154738800Y-84322890D01*
X154738800Y-84873742D01*
X154841953Y-84831015D01*
X154965442Y-84748502D01*
X154965449Y-84748497D01*
X155070467Y-84643479D01*
X155070472Y-84643472D01*
X155152985Y-84519982D01*
X155209821Y-84382769D01*
X155209823Y-84382764D01*
X155238799Y-84237094D01*
X155238800Y-84237090D01*
X155238800Y-83866830D01*
X154784800Y-83866830D01*
X154784800Y-83845404D01*
X156675568Y-83845404D01*
X156694454Y-84049219D01*
X156720235Y-84139829D01*
X156750472Y-84246101D01*
X156841712Y-84429335D01*
X156841713Y-84429336D01*
X156965066Y-84592684D01*
X157116336Y-84730585D01*
X157290366Y-84838340D01*
X157290368Y-84838340D01*
X157290373Y-84838344D01*
X157481244Y-84912288D01*
X157682453Y-84949900D01*
X157682455Y-84949900D01*
X157887145Y-84949900D01*
X157887147Y-84949900D01*
X158088356Y-84912288D01*
X158279227Y-84838344D01*
X158453262Y-84730586D01*
X158604532Y-84592685D01*
X158727888Y-84429335D01*
X158819128Y-84246101D01*
X158875145Y-84049221D01*
X158883521Y-83958830D01*
X158894032Y-83845404D01*
X158894032Y-83845395D01*
X158875145Y-83641580D01*
X158875145Y-83641579D01*
X158819128Y-83444699D01*
X158727888Y-83261465D01*
X158687338Y-83207768D01*
X158604533Y-83098115D01*
X158453263Y-82960214D01*
X158279233Y-82852459D01*
X158279228Y-82852457D01*
X158279227Y-82852456D01*
X158254547Y-82842895D01*
X158088359Y-82778513D01*
X158088360Y-82778513D01*
X158088357Y-82778512D01*
X158088356Y-82778512D01*
X157887147Y-82740900D01*
X157682453Y-82740900D01*
X157481244Y-82778512D01*
X157481239Y-82778513D01*
X157290377Y-82852454D01*
X157290366Y-82852459D01*
X157116336Y-82960214D01*
X156965066Y-83098115D01*
X156841713Y-83261463D01*
X156750471Y-83444701D01*
X156694454Y-83641580D01*
X156675568Y-83845395D01*
X156675568Y-83845404D01*
X154784800Y-83845404D01*
X154784800Y-83358830D01*
X155238800Y-83358830D01*
X155238800Y-82988569D01*
X155238799Y-82988565D01*
X155209823Y-82842895D01*
X155209821Y-82842890D01*
X155152987Y-82705679D01*
X155126281Y-82665712D01*
X155105066Y-82597959D01*
X155123849Y-82529492D01*
X155176666Y-82482048D01*
X155246748Y-82470691D01*
X155250713Y-82471253D01*
X155334347Y-82484500D01*
X155765652Y-82484499D01*
X155856862Y-82470054D01*
X155966796Y-82414040D01*
X156054040Y-82326796D01*
X156110054Y-82216862D01*
X156124500Y-82125653D01*
X156124499Y-81794348D01*
X156110054Y-81703138D01*
X156054040Y-81593204D01*
X155999578Y-81538742D01*
X155965552Y-81476430D01*
X155970617Y-81405615D01*
X155999578Y-81360552D01*
X156053629Y-81306500D01*
X156053631Y-81306498D01*
X156109573Y-81196705D01*
X156110002Y-81194000D01*
X154989998Y-81194000D01*
X154990426Y-81196705D01*
X155046368Y-81306498D01*
X155100422Y-81360552D01*
X155134448Y-81422864D01*
X155129383Y-81493679D01*
X155100422Y-81538742D01*
X155095569Y-81543595D01*
X155033257Y-81577621D01*
X155006474Y-81580500D01*
X152909635Y-81580500D01*
X152841514Y-81560498D01*
X152795021Y-81506842D01*
X152784917Y-81436568D01*
X152814411Y-81371988D01*
X152826081Y-81360188D01*
X152910498Y-81285401D01*
X153000787Y-81154595D01*
X153039924Y-81051399D01*
X156709250Y-81051399D01*
X156709251Y-81051400D01*
X157354097Y-81051400D01*
X157318875Y-81112407D01*
X157284800Y-81239574D01*
X157284800Y-81371226D01*
X157318875Y-81498393D01*
X157354097Y-81559400D01*
X156709251Y-81559400D01*
X156750938Y-81705914D01*
X156750940Y-81705919D01*
X156842140Y-81889072D01*
X156965437Y-82052346D01*
X157116638Y-82190184D01*
X157290596Y-82297893D01*
X157290603Y-82297896D01*
X157481382Y-82371805D01*
X157530799Y-82381042D01*
X157530800Y-82381042D01*
X157530800Y-81736102D01*
X157591807Y-81771325D01*
X157718974Y-81805400D01*
X157850626Y-81805400D01*
X157977793Y-81771325D01*
X158038800Y-81736102D01*
X158038800Y-82381042D01*
X158088217Y-82371805D01*
X158088218Y-82371805D01*
X158278996Y-82297896D01*
X158279003Y-82297893D01*
X158452961Y-82190184D01*
X158604162Y-82052346D01*
X158727459Y-81889072D01*
X158818659Y-81705919D01*
X158818661Y-81705914D01*
X158860349Y-81559400D01*
X158215503Y-81559400D01*
X158250725Y-81498393D01*
X158284800Y-81371226D01*
X158284800Y-81239574D01*
X158250725Y-81112407D01*
X158215503Y-81051400D01*
X158860349Y-81051400D01*
X158860349Y-81051399D01*
X158818661Y-80904885D01*
X158818659Y-80904880D01*
X158727459Y-80721727D01*
X158604162Y-80558453D01*
X158452961Y-80420615D01*
X158279003Y-80312906D01*
X158278996Y-80312903D01*
X158088224Y-80238996D01*
X158038800Y-80229757D01*
X158038800Y-80874697D01*
X157977793Y-80839475D01*
X157850626Y-80805400D01*
X157718974Y-80805400D01*
X157591807Y-80839475D01*
X157530800Y-80874697D01*
X157530800Y-80229757D01*
X157481375Y-80238996D01*
X157290603Y-80312903D01*
X157290596Y-80312906D01*
X157116638Y-80420615D01*
X156965437Y-80558453D01*
X156842140Y-80721727D01*
X156750940Y-80904880D01*
X156750938Y-80904885D01*
X156709250Y-81051399D01*
X153039924Y-81051399D01*
X153057149Y-81005982D01*
X153057149Y-81005981D01*
X153057150Y-81005979D01*
X153076307Y-80848203D01*
X153076307Y-80848196D01*
X153057150Y-80690420D01*
X153032879Y-80626424D01*
X153000787Y-80541805D01*
X152910498Y-80410999D01*
X152791529Y-80305601D01*
X152791528Y-80305600D01*
X152791525Y-80305598D01*
X152650797Y-80231739D01*
X152650795Y-80231738D01*
X152650793Y-80231737D01*
X152650791Y-80231736D01*
X152650790Y-80231736D01*
X152496472Y-80193700D01*
X152496471Y-80193700D01*
X152337529Y-80193700D01*
X152337527Y-80193700D01*
X152183209Y-80231736D01*
X152183202Y-80231739D01*
X152042474Y-80305598D01*
X152042469Y-80305602D01*
X152034225Y-80312906D01*
X151976079Y-80364420D01*
X151975554Y-80364885D01*
X151911301Y-80395086D01*
X151840920Y-80385755D01*
X151808446Y-80364885D01*
X151807921Y-80364420D01*
X151741529Y-80305601D01*
X151741528Y-80305600D01*
X151741525Y-80305598D01*
X151600797Y-80231739D01*
X151600795Y-80231738D01*
X151600793Y-80231737D01*
X151600791Y-80231736D01*
X151600790Y-80231736D01*
X151446472Y-80193700D01*
X151446471Y-80193700D01*
X151287529Y-80193700D01*
X151287527Y-80193700D01*
X151133209Y-80231736D01*
X151133202Y-80231739D01*
X150992474Y-80305598D01*
X150992469Y-80305602D01*
X150873501Y-80411000D01*
X150783215Y-80541801D01*
X150783212Y-80541807D01*
X150726849Y-80690420D01*
X150707693Y-80848196D01*
X150707693Y-80848203D01*
X150726849Y-81005979D01*
X150763106Y-81101579D01*
X150783213Y-81154595D01*
X150873502Y-81285401D01*
X150992471Y-81390799D01*
X151133207Y-81464663D01*
X151133210Y-81464663D01*
X151137134Y-81466723D01*
X151188157Y-81516092D01*
X151204389Y-81585208D01*
X151180678Y-81652128D01*
X151167674Y-81667386D01*
X150644876Y-82190184D01*
X150241194Y-82593866D01*
X150178882Y-82627891D01*
X150108066Y-82622826D01*
X150063004Y-82593865D01*
X149135876Y-81666737D01*
X149101850Y-81604425D01*
X149106915Y-81533610D01*
X149149462Y-81476774D01*
X149171727Y-81464539D01*
X149171518Y-81464141D01*
X149311259Y-81390799D01*
X149319002Y-81386735D01*
X149437971Y-81281337D01*
X149528260Y-81150531D01*
X149584622Y-81001918D01*
X149584622Y-81001917D01*
X149584623Y-81001915D01*
X149603780Y-80844139D01*
X149603780Y-80844132D01*
X149584623Y-80686356D01*
X149541822Y-80573501D01*
X149528260Y-80537741D01*
X149437971Y-80406935D01*
X149319002Y-80301537D01*
X149319001Y-80301536D01*
X149318998Y-80301534D01*
X149178270Y-80227675D01*
X149178268Y-80227674D01*
X149178266Y-80227673D01*
X149178264Y-80227672D01*
X149178263Y-80227672D01*
X149023945Y-80189636D01*
X149023944Y-80189636D01*
X148865002Y-80189636D01*
X148865000Y-80189636D01*
X148710682Y-80227672D01*
X148710675Y-80227675D01*
X148569947Y-80301534D01*
X148569942Y-80301538D01*
X148503027Y-80360821D01*
X148438774Y-80391022D01*
X148368393Y-80381691D01*
X148335919Y-80360821D01*
X148281324Y-80312454D01*
X148269002Y-80301537D01*
X148269001Y-80301536D01*
X148268998Y-80301534D01*
X148128270Y-80227675D01*
X148128268Y-80227674D01*
X148128266Y-80227673D01*
X148128264Y-80227672D01*
X148128263Y-80227672D01*
X147973945Y-80189636D01*
X147973944Y-80189636D01*
X147815002Y-80189636D01*
X147815000Y-80189636D01*
X147660682Y-80227672D01*
X147660675Y-80227675D01*
X147519947Y-80301534D01*
X147519942Y-80301538D01*
X147448964Y-80364420D01*
X147410500Y-80398497D01*
X147400974Y-80406936D01*
X147310688Y-80537737D01*
X147310685Y-80537743D01*
X147254322Y-80686356D01*
X147235166Y-80844132D01*
X147235166Y-80844139D01*
X147254322Y-81001915D01*
X147292121Y-81101579D01*
X147310686Y-81150531D01*
X147400975Y-81281337D01*
X147489979Y-81360188D01*
X147527704Y-81420333D01*
X147526924Y-81491325D01*
X147487886Y-81550626D01*
X147422985Y-81579407D01*
X147406425Y-81580500D01*
X145293526Y-81580500D01*
X145225405Y-81560498D01*
X145204431Y-81543595D01*
X145199578Y-81538742D01*
X145165552Y-81476430D01*
X145170617Y-81405615D01*
X145199578Y-81360552D01*
X145253629Y-81306500D01*
X145253631Y-81306498D01*
X145309573Y-81196705D01*
X145310002Y-81194000D01*
X144622000Y-81194000D01*
X144553879Y-81173998D01*
X144507386Y-81120342D01*
X144496000Y-81068000D01*
X144496000Y-80686000D01*
X145004000Y-80686000D01*
X145310002Y-80686000D01*
X145310001Y-80685999D01*
X145309572Y-80683292D01*
X145280597Y-80626424D01*
X145267493Y-80556648D01*
X145294193Y-80490863D01*
X145352221Y-80449957D01*
X145423153Y-80446917D01*
X145462868Y-80464458D01*
X145487648Y-80481016D01*
X145590800Y-80523742D01*
X145590800Y-79972890D01*
X145604740Y-79997035D01*
X145660595Y-80052890D01*
X145729004Y-80092386D01*
X145805304Y-80112830D01*
X145884296Y-80112830D01*
X145960596Y-80092386D01*
X146029005Y-80052890D01*
X146084860Y-79997035D01*
X146098800Y-79972890D01*
X146098800Y-80523742D01*
X146201953Y-80481015D01*
X146325442Y-80398502D01*
X146325449Y-80398497D01*
X146430467Y-80293479D01*
X146430472Y-80293472D01*
X146512985Y-80169982D01*
X146569821Y-80032769D01*
X146569823Y-80032764D01*
X146598799Y-79887094D01*
X153730800Y-79887094D01*
X153759776Y-80032764D01*
X153759778Y-80032769D01*
X153816614Y-80169982D01*
X153899127Y-80293472D01*
X153899132Y-80293479D01*
X154004150Y-80398497D01*
X154004157Y-80398502D01*
X154127646Y-80481015D01*
X154230800Y-80523742D01*
X154230800Y-79972890D01*
X154244740Y-79997035D01*
X154300595Y-80052890D01*
X154369004Y-80092386D01*
X154445304Y-80112830D01*
X154524296Y-80112830D01*
X154600596Y-80092386D01*
X154669005Y-80052890D01*
X154724860Y-79997035D01*
X154738800Y-79972890D01*
X154738800Y-80523742D01*
X154845242Y-80479653D01*
X154915832Y-80472064D01*
X154979319Y-80503843D01*
X155015546Y-80564901D01*
X155013012Y-80635853D01*
X155005728Y-80653263D01*
X154990426Y-80683293D01*
X154989998Y-80685999D01*
X154989998Y-80686000D01*
X155296000Y-80686000D01*
X155296000Y-80422079D01*
X155804000Y-80422079D01*
X155804000Y-80686000D01*
X156110002Y-80686000D01*
X156110001Y-80685999D01*
X156109573Y-80683294D01*
X156053631Y-80573501D01*
X155966498Y-80486368D01*
X155856707Y-80430428D01*
X155804000Y-80422079D01*
X155296000Y-80422079D01*
X155233501Y-80431979D01*
X155232930Y-80428378D01*
X155180207Y-80429861D01*
X155119426Y-80393171D01*
X155088130Y-80329444D01*
X155096255Y-80258914D01*
X155107529Y-80238012D01*
X155152987Y-80169980D01*
X155209821Y-80032769D01*
X155209823Y-80032764D01*
X155238799Y-79887094D01*
X155238800Y-79887090D01*
X155238800Y-79666830D01*
X154784800Y-79666830D01*
X154784800Y-79640463D01*
X156680300Y-79640463D01*
X156680301Y-79640473D01*
X156695065Y-79714700D01*
X156751316Y-79798884D01*
X156835497Y-79855133D01*
X156835499Y-79855134D01*
X156909733Y-79869900D01*
X158659866Y-79869899D01*
X158659869Y-79869898D01*
X158659873Y-79869898D01*
X158709126Y-79860101D01*
X158734101Y-79855134D01*
X158818284Y-79798884D01*
X158874534Y-79714701D01*
X158889300Y-79640467D01*
X158889299Y-77890334D01*
X158889298Y-77890327D01*
X158889298Y-77890326D01*
X158874534Y-77816099D01*
X158818283Y-77731915D01*
X158734102Y-77675666D01*
X158659867Y-77660900D01*
X156909736Y-77660900D01*
X156909726Y-77660901D01*
X156835499Y-77675665D01*
X156751315Y-77731916D01*
X156695066Y-77816097D01*
X156680300Y-77890330D01*
X156680300Y-79640463D01*
X154784800Y-79640463D01*
X154784800Y-79158830D01*
X155238800Y-79158830D01*
X155238800Y-78938569D01*
X155238799Y-78938565D01*
X155209823Y-78792895D01*
X155209821Y-78792890D01*
X155152985Y-78655677D01*
X155070472Y-78532187D01*
X155070467Y-78532180D01*
X154965449Y-78427162D01*
X154965442Y-78427157D01*
X154841954Y-78344645D01*
X154738800Y-78301916D01*
X154738800Y-78852769D01*
X154724860Y-78828625D01*
X154669005Y-78772770D01*
X154600596Y-78733274D01*
X154524296Y-78712830D01*
X154445304Y-78712830D01*
X154369004Y-78733274D01*
X154300595Y-78772770D01*
X154244740Y-78828625D01*
X154230800Y-78852769D01*
X154230800Y-78301916D01*
X154127645Y-78344645D01*
X154004157Y-78427157D01*
X154004150Y-78427162D01*
X153899132Y-78532180D01*
X153899127Y-78532187D01*
X153816614Y-78655677D01*
X153759778Y-78792890D01*
X153759776Y-78792895D01*
X153730800Y-78938565D01*
X153730800Y-79158830D01*
X154184800Y-79158830D01*
X154184800Y-79666830D01*
X153730800Y-79666830D01*
X153730800Y-79887094D01*
X146598799Y-79887094D01*
X146598800Y-79887090D01*
X146598800Y-79666830D01*
X146144800Y-79666830D01*
X146144800Y-79158830D01*
X146598800Y-79158830D01*
X146598800Y-78938569D01*
X146598799Y-78938565D01*
X146569823Y-78792895D01*
X146569821Y-78792890D01*
X146512985Y-78655677D01*
X146430472Y-78532187D01*
X146430467Y-78532180D01*
X146325449Y-78427162D01*
X146325442Y-78427157D01*
X146201954Y-78344645D01*
X146098800Y-78301916D01*
X146098800Y-78852769D01*
X146084860Y-78828625D01*
X146029005Y-78772770D01*
X145960596Y-78733274D01*
X145884296Y-78712830D01*
X145805304Y-78712830D01*
X145729004Y-78733274D01*
X145660595Y-78772770D01*
X145604740Y-78828625D01*
X145590800Y-78852769D01*
X145590800Y-78301916D01*
X145487645Y-78344645D01*
X145364157Y-78427157D01*
X145364150Y-78427162D01*
X145259132Y-78532180D01*
X145259127Y-78532187D01*
X145176614Y-78655677D01*
X145119778Y-78792890D01*
X145119776Y-78792895D01*
X145090800Y-78938565D01*
X145090800Y-79158830D01*
X145544800Y-79158830D01*
X145544800Y-79666830D01*
X145090800Y-79666830D01*
X145090800Y-79887094D01*
X145119776Y-80032764D01*
X145119778Y-80032769D01*
X145176614Y-80169982D01*
X145234101Y-80256018D01*
X145255316Y-80323771D01*
X145236533Y-80392238D01*
X145183716Y-80439681D01*
X145113633Y-80451038D01*
X145072135Y-80438288D01*
X145056708Y-80430428D01*
X145004000Y-80422079D01*
X145004000Y-80686000D01*
X144496000Y-80686000D01*
X144496000Y-80422079D01*
X144443290Y-80430428D01*
X144352502Y-80476687D01*
X144282726Y-80489791D01*
X144216941Y-80463091D01*
X144176035Y-80405063D01*
X144169300Y-80364420D01*
X144169300Y-80014129D01*
X144169299Y-80014125D01*
X144145140Y-79923966D01*
X144098473Y-79843135D01*
X144098469Y-79843130D01*
X144032468Y-79777129D01*
X143660804Y-79405465D01*
X143626778Y-79343153D01*
X143623899Y-79316370D01*
X143623899Y-77890336D01*
X143623898Y-77890327D01*
X143609134Y-77816099D01*
X143552883Y-77731915D01*
X143468702Y-77675666D01*
X143394467Y-77660900D01*
X141644336Y-77660900D01*
X141644326Y-77660901D01*
X141570099Y-77675665D01*
X141485915Y-77731916D01*
X141429666Y-77816097D01*
X141414900Y-77890330D01*
X141414900Y-79640463D01*
X141414901Y-79640473D01*
X141429665Y-79714700D01*
X141485916Y-79798884D01*
X141570097Y-79855133D01*
X141570099Y-79855134D01*
X141644333Y-79869900D01*
X143070370Y-79869899D01*
X143138491Y-79889901D01*
X143159465Y-79906804D01*
X143423395Y-80170734D01*
X143457421Y-80233046D01*
X143460300Y-80259829D01*
X143460300Y-80383210D01*
X143440298Y-80451331D01*
X143386642Y-80497824D01*
X143316368Y-80507928D01*
X143251788Y-80478434D01*
X143249415Y-80476326D01*
X143187862Y-80420214D01*
X143013833Y-80312459D01*
X143013828Y-80312457D01*
X143013827Y-80312456D01*
X142996125Y-80305598D01*
X142822959Y-80238513D01*
X142822960Y-80238513D01*
X142822957Y-80238512D01*
X142822956Y-80238512D01*
X142621747Y-80200900D01*
X142417053Y-80200900D01*
X142252088Y-80231737D01*
X142215839Y-80238513D01*
X142024977Y-80312454D01*
X142024966Y-80312459D01*
X141850936Y-80420214D01*
X141699666Y-80558115D01*
X141576313Y-80721463D01*
X141485071Y-80904701D01*
X141429054Y-81101580D01*
X141410168Y-81305395D01*
X141410168Y-81305404D01*
X141429054Y-81509219D01*
X141469715Y-81652128D01*
X141485072Y-81706101D01*
X141576312Y-81889335D01*
X141576313Y-81889336D01*
X141699666Y-82052684D01*
X141850936Y-82190585D01*
X142024966Y-82298340D01*
X142024968Y-82298340D01*
X142024973Y-82298344D01*
X142215844Y-82372288D01*
X142417053Y-82409900D01*
X142417055Y-82409900D01*
X142621745Y-82409900D01*
X142621747Y-82409900D01*
X142822956Y-82372288D01*
X142935235Y-82328789D01*
X143005980Y-82322833D01*
X143068717Y-82356069D01*
X143069847Y-82357186D01*
X143499595Y-82786934D01*
X143533621Y-82849246D01*
X143536500Y-82876029D01*
X143536500Y-82992676D01*
X143516498Y-83060797D01*
X143462842Y-83107290D01*
X143392568Y-83117394D01*
X143327988Y-83087900D01*
X143325614Y-83085791D01*
X143187863Y-82960214D01*
X143013833Y-82852459D01*
X143013828Y-82852457D01*
X143013827Y-82852456D01*
X142989147Y-82842895D01*
X142822959Y-82778513D01*
X142822960Y-82778513D01*
X142822957Y-82778512D01*
X142822956Y-82778512D01*
X142621747Y-82740900D01*
X142417053Y-82740900D01*
X142215844Y-82778512D01*
X142215839Y-82778513D01*
X142024977Y-82852454D01*
X142024966Y-82852459D01*
X141850936Y-82960214D01*
X141699666Y-83098115D01*
X141576313Y-83261463D01*
X141485071Y-83444701D01*
X141429054Y-83641580D01*
X141410168Y-83845395D01*
X141410168Y-83845404D01*
X141429054Y-84049219D01*
X141454835Y-84139829D01*
X141485072Y-84246101D01*
X141576312Y-84429335D01*
X141576313Y-84429336D01*
X141699666Y-84592684D01*
X141850936Y-84730585D01*
X142024966Y-84838340D01*
X142024968Y-84838340D01*
X142024973Y-84838344D01*
X142215844Y-84912288D01*
X142417053Y-84949900D01*
X142417055Y-84949900D01*
X142621745Y-84949900D01*
X142621747Y-84949900D01*
X142822956Y-84912288D01*
X142935235Y-84868789D01*
X143005980Y-84862833D01*
X143068717Y-84896069D01*
X143069847Y-84897186D01*
X144151595Y-85978934D01*
X144185621Y-86041246D01*
X144188500Y-86068029D01*
X144188500Y-87248971D01*
X144168498Y-87317092D01*
X144114842Y-87363585D01*
X144044568Y-87373689D01*
X143979988Y-87344195D01*
X143973405Y-87338066D01*
X143573858Y-86938519D01*
X143539832Y-86876207D01*
X143544897Y-86805392D01*
X143550161Y-86793264D01*
X143553728Y-86786101D01*
X143609745Y-86589221D01*
X143624263Y-86432547D01*
X143628632Y-86385404D01*
X143628632Y-86385395D01*
X143609745Y-86181580D01*
X143600769Y-86150032D01*
X143553728Y-85984699D01*
X143462488Y-85801465D01*
X143421938Y-85747768D01*
X143339133Y-85638115D01*
X143187863Y-85500214D01*
X143013833Y-85392459D01*
X143013828Y-85392457D01*
X143013827Y-85392456D01*
X143013822Y-85392454D01*
X142822959Y-85318513D01*
X142822960Y-85318513D01*
X142822957Y-85318512D01*
X142822956Y-85318512D01*
X142621747Y-85280900D01*
X142417053Y-85280900D01*
X142215844Y-85318512D01*
X142215839Y-85318513D01*
X142024977Y-85392454D01*
X142024966Y-85392459D01*
X141850936Y-85500214D01*
X141699666Y-85638115D01*
X141576313Y-85801463D01*
X141485071Y-85984701D01*
X141429054Y-86181580D01*
X141410168Y-86385395D01*
X141410168Y-86385404D01*
X141429054Y-86589219D01*
X141442557Y-86636677D01*
X141485072Y-86786101D01*
X141576312Y-86969335D01*
X141576313Y-86969336D01*
X141699666Y-87132684D01*
X141850936Y-87270585D01*
X142024966Y-87378340D01*
X142024968Y-87378340D01*
X142024973Y-87378344D01*
X142215844Y-87452288D01*
X142417053Y-87489900D01*
X142417055Y-87489900D01*
X142621745Y-87489900D01*
X142621747Y-87489900D01*
X142822956Y-87452288D01*
X142935235Y-87408789D01*
X143005980Y-87402833D01*
X143068717Y-87436069D01*
X143069847Y-87437186D01*
X143751595Y-88118934D01*
X143785621Y-88181246D01*
X143788500Y-88208029D01*
X143788500Y-88460465D01*
X143768498Y-88528586D01*
X143714842Y-88575079D01*
X143644568Y-88585183D01*
X143579988Y-88555689D01*
X143549710Y-88516628D01*
X143462491Y-88341469D01*
X143462487Y-88341464D01*
X143452958Y-88328846D01*
X143409955Y-88271900D01*
X143339133Y-88178115D01*
X143187863Y-88040214D01*
X143013833Y-87932459D01*
X143013828Y-87932457D01*
X143013827Y-87932456D01*
X143013822Y-87932454D01*
X142822959Y-87858513D01*
X142822960Y-87858513D01*
X142822957Y-87858512D01*
X142822956Y-87858512D01*
X142621747Y-87820900D01*
X142417053Y-87820900D01*
X142215844Y-87858512D01*
X142215839Y-87858513D01*
X142024977Y-87932454D01*
X142024966Y-87932459D01*
X141850936Y-88040214D01*
X141699666Y-88178115D01*
X141576313Y-88341463D01*
X141485071Y-88524701D01*
X141429054Y-88721580D01*
X141410168Y-88925395D01*
X141410168Y-88925404D01*
X141429054Y-89129219D01*
X141483896Y-89321968D01*
X141485072Y-89326101D01*
X141576312Y-89509335D01*
X141576313Y-89509336D01*
X141699666Y-89672684D01*
X141850936Y-89810585D01*
X142024966Y-89918340D01*
X142024968Y-89918340D01*
X142024973Y-89918344D01*
X142215844Y-89992288D01*
X142417053Y-90029900D01*
X142417055Y-90029900D01*
X142621745Y-90029900D01*
X142621747Y-90029900D01*
X142822956Y-89992288D01*
X142935235Y-89948789D01*
X143005980Y-89942833D01*
X143068717Y-89976069D01*
X143069847Y-89977186D01*
X143296395Y-90203734D01*
X143330421Y-90266046D01*
X143333300Y-90292829D01*
X143333300Y-90444051D01*
X143313298Y-90512172D01*
X143259642Y-90558665D01*
X143189368Y-90568769D01*
X143140970Y-90551179D01*
X143013830Y-90472458D01*
X143013831Y-90472458D01*
X143013827Y-90472456D01*
X142992697Y-90464270D01*
X142822959Y-90398513D01*
X142822960Y-90398513D01*
X142822957Y-90398512D01*
X142822956Y-90398512D01*
X142621747Y-90360900D01*
X142417053Y-90360900D01*
X142215844Y-90398512D01*
X142215839Y-90398513D01*
X142024977Y-90472454D01*
X142024966Y-90472459D01*
X141850936Y-90580214D01*
X141699666Y-90718115D01*
X141576313Y-90881463D01*
X141485071Y-91064701D01*
X141429054Y-91261580D01*
X141410168Y-91465395D01*
X141410168Y-91465404D01*
X141429054Y-91669219D01*
X141440222Y-91708470D01*
X141485072Y-91866101D01*
X141576312Y-92049335D01*
X141576313Y-92049336D01*
X141699666Y-92212684D01*
X141850936Y-92350585D01*
X142024966Y-92458340D01*
X142024968Y-92458340D01*
X142024973Y-92458344D01*
X142215844Y-92532288D01*
X142417053Y-92569900D01*
X142417055Y-92569900D01*
X142621745Y-92569900D01*
X142621747Y-92569900D01*
X142822956Y-92532288D01*
X142894168Y-92504700D01*
X142935236Y-92488790D01*
X143005982Y-92482833D01*
X143068718Y-92516069D01*
X143069848Y-92517186D01*
X144077995Y-93525333D01*
X144112021Y-93587645D01*
X144114900Y-93614428D01*
X144114900Y-94795371D01*
X144094898Y-94863492D01*
X144041242Y-94909985D01*
X143970968Y-94920089D01*
X143906388Y-94890595D01*
X143899805Y-94884466D01*
X143573858Y-94558519D01*
X143539832Y-94496207D01*
X143544897Y-94425392D01*
X143550159Y-94413268D01*
X143553728Y-94406101D01*
X143609745Y-94209221D01*
X143622423Y-94072402D01*
X143628632Y-94005404D01*
X143628632Y-94005395D01*
X143609745Y-93801580D01*
X143568767Y-93657557D01*
X143553728Y-93604699D01*
X143462488Y-93421465D01*
X143421938Y-93367768D01*
X143339133Y-93258115D01*
X143187863Y-93120214D01*
X143013833Y-93012459D01*
X143013828Y-93012457D01*
X143013827Y-93012456D01*
X142822959Y-92938513D01*
X142822960Y-92938513D01*
X142822957Y-92938512D01*
X142822956Y-92938512D01*
X142621747Y-92900900D01*
X142417053Y-92900900D01*
X142215844Y-92938512D01*
X142215839Y-92938513D01*
X142024977Y-93012454D01*
X142024966Y-93012459D01*
X141850936Y-93120214D01*
X141699666Y-93258115D01*
X141576313Y-93421463D01*
X141485071Y-93604701D01*
X141429054Y-93801580D01*
X141410168Y-94005395D01*
X141410168Y-94005404D01*
X141429054Y-94209219D01*
X141465387Y-94336916D01*
X141485072Y-94406101D01*
X141576312Y-94589335D01*
X141576313Y-94589336D01*
X141699666Y-94752684D01*
X141850936Y-94890585D01*
X142024966Y-94998340D01*
X142024968Y-94998340D01*
X142024973Y-94998344D01*
X142215844Y-95072288D01*
X142417053Y-95109900D01*
X142417055Y-95109900D01*
X142621745Y-95109900D01*
X142621747Y-95109900D01*
X142822956Y-95072288D01*
X142935235Y-95028789D01*
X143005980Y-95022833D01*
X143068717Y-95056069D01*
X143069847Y-95057186D01*
X143677995Y-95665334D01*
X143712021Y-95727646D01*
X143714900Y-95754429D01*
X143714900Y-95932657D01*
X143694898Y-96000778D01*
X143641242Y-96047271D01*
X143570968Y-96057375D01*
X143506388Y-96027881D01*
X143476110Y-95988820D01*
X143462491Y-95961469D01*
X143462487Y-95961464D01*
X143339133Y-95798115D01*
X143187863Y-95660214D01*
X143013833Y-95552459D01*
X143013828Y-95552457D01*
X143013827Y-95552456D01*
X142989506Y-95543034D01*
X142822959Y-95478513D01*
X142822960Y-95478513D01*
X142822957Y-95478512D01*
X142822956Y-95478512D01*
X142621747Y-95440900D01*
X142417053Y-95440900D01*
X142215844Y-95478512D01*
X142215839Y-95478513D01*
X142024977Y-95552454D01*
X142024966Y-95552459D01*
X141850936Y-95660214D01*
X141699666Y-95798115D01*
X141576313Y-95961463D01*
X141485071Y-96144701D01*
X141429054Y-96341580D01*
X141410168Y-96545395D01*
X141410168Y-96545404D01*
X141429054Y-96749219D01*
X141478823Y-96924138D01*
X141485072Y-96946101D01*
X141576312Y-97129335D01*
X141576313Y-97129336D01*
X141699666Y-97292684D01*
X141850936Y-97430585D01*
X142024966Y-97538340D01*
X142024968Y-97538340D01*
X142024973Y-97538344D01*
X142215844Y-97612288D01*
X142417053Y-97649900D01*
X142417055Y-97649900D01*
X142621745Y-97649900D01*
X142621747Y-97649900D01*
X142822956Y-97612288D01*
X142824446Y-97611710D01*
X142827263Y-97610620D01*
X142898009Y-97604663D01*
X142960745Y-97637899D01*
X142961875Y-97639016D01*
X143300126Y-97977267D01*
X143334152Y-98039579D01*
X143329087Y-98110394D01*
X143286540Y-98167230D01*
X143220020Y-98192041D01*
X143150646Y-98176950D01*
X143144700Y-98173489D01*
X143013833Y-98092459D01*
X143013828Y-98092457D01*
X143013827Y-98092456D01*
X143013822Y-98092454D01*
X142822959Y-98018513D01*
X142822960Y-98018513D01*
X142822957Y-98018512D01*
X142822956Y-98018512D01*
X142621747Y-97980900D01*
X142417053Y-97980900D01*
X142215844Y-98018512D01*
X142215839Y-98018513D01*
X142024977Y-98092454D01*
X142024966Y-98092459D01*
X141850936Y-98200214D01*
X141699666Y-98338115D01*
X141576313Y-98501463D01*
X141485071Y-98684701D01*
X141429054Y-98881580D01*
X141410168Y-99085395D01*
X141410168Y-99085404D01*
X141429054Y-99289219D01*
X141445529Y-99347122D01*
X141485072Y-99486101D01*
X141576312Y-99669335D01*
X141596586Y-99696183D01*
X141699666Y-99832684D01*
X141850936Y-99970585D01*
X142024966Y-100078340D01*
X142024968Y-100078340D01*
X142024973Y-100078344D01*
X142215844Y-100152288D01*
X142417053Y-100189900D01*
X142417055Y-100189900D01*
X142621745Y-100189900D01*
X142621747Y-100189900D01*
X142820177Y-100152807D01*
X142890811Y-100159952D01*
X142946371Y-100204151D01*
X142969216Y-100271372D01*
X142968409Y-100291848D01*
X142960693Y-100355400D01*
X142968409Y-100418951D01*
X142956762Y-100488986D01*
X142909101Y-100541607D01*
X142840557Y-100560107D01*
X142820175Y-100557992D01*
X142732521Y-100541607D01*
X142621747Y-100520900D01*
X142417053Y-100520900D01*
X142218626Y-100557992D01*
X142215839Y-100558513D01*
X142024977Y-100632454D01*
X142024966Y-100632459D01*
X141850936Y-100740214D01*
X141699666Y-100878115D01*
X141576313Y-101041463D01*
X141485071Y-101224701D01*
X141429054Y-101421580D01*
X141410168Y-101625395D01*
X141410168Y-101625404D01*
X141429054Y-101829219D01*
X141478173Y-102001854D01*
X141485072Y-102026101D01*
X141576312Y-102209335D01*
X141576313Y-102209336D01*
X141699666Y-102372684D01*
X141850936Y-102510585D01*
X142024966Y-102618340D01*
X142024968Y-102618340D01*
X142024973Y-102618344D01*
X142215844Y-102692288D01*
X142417053Y-102729900D01*
X142417055Y-102729900D01*
X142621745Y-102729900D01*
X142621747Y-102729900D01*
X142822956Y-102692288D01*
X142909755Y-102658661D01*
X142980497Y-102652704D01*
X143043233Y-102685941D01*
X143044364Y-102687058D01*
X143388037Y-103030731D01*
X143422063Y-103093043D01*
X143424942Y-103119826D01*
X143424942Y-103210977D01*
X143404940Y-103279098D01*
X143351284Y-103325591D01*
X143281010Y-103335695D01*
X143216430Y-103306201D01*
X143214057Y-103304093D01*
X143187863Y-103280214D01*
X143013833Y-103172459D01*
X143013828Y-103172457D01*
X143013827Y-103172456D01*
X142974042Y-103157043D01*
X142822959Y-103098513D01*
X142822960Y-103098513D01*
X142822957Y-103098512D01*
X142822956Y-103098512D01*
X142621747Y-103060900D01*
X142417053Y-103060900D01*
X142215844Y-103098512D01*
X142215839Y-103098513D01*
X142024977Y-103172454D01*
X142024966Y-103172459D01*
X141850936Y-103280214D01*
X141699666Y-103418115D01*
X141576313Y-103581463D01*
X141485071Y-103764701D01*
X141429054Y-103961580D01*
X141410168Y-104165395D01*
X141410168Y-104165404D01*
X141429054Y-104369219D01*
X141470522Y-104514963D01*
X141485072Y-104566101D01*
X141576312Y-104749335D01*
X141576313Y-104749336D01*
X141699666Y-104912684D01*
X141850936Y-105050585D01*
X142024966Y-105158340D01*
X142024968Y-105158340D01*
X142024973Y-105158344D01*
X142215844Y-105232288D01*
X142265737Y-105241614D01*
X142329021Y-105273791D01*
X142331679Y-105276373D01*
X142449515Y-105394209D01*
X142483541Y-105456521D01*
X142478476Y-105527336D01*
X142435929Y-105584172D01*
X142383573Y-105607158D01*
X142215844Y-105638512D01*
X142215839Y-105638513D01*
X142024977Y-105712454D01*
X142024966Y-105712459D01*
X141850936Y-105820214D01*
X141699666Y-105958115D01*
X141576313Y-106121463D01*
X141485071Y-106304701D01*
X141429054Y-106501580D01*
X141410168Y-106705395D01*
X141410168Y-106705404D01*
X141429054Y-106909219D01*
X141483672Y-107101180D01*
X141485072Y-107106101D01*
X141576312Y-107289335D01*
X141589943Y-107307385D01*
X141699666Y-107452684D01*
X141850936Y-107590585D01*
X142024966Y-107698340D01*
X142024968Y-107698340D01*
X142024973Y-107698344D01*
X142215844Y-107772288D01*
X142417053Y-107809900D01*
X142417055Y-107809900D01*
X142621745Y-107809900D01*
X142621747Y-107809900D01*
X142822956Y-107772288D01*
X143013827Y-107698344D01*
X143187862Y-107590586D01*
X143339132Y-107452685D01*
X143352104Y-107435508D01*
X143408972Y-107360202D01*
X143462488Y-107289335D01*
X143466122Y-107282036D01*
X143514384Y-107229973D01*
X143583137Y-107212265D01*
X143650549Y-107234539D01*
X143668009Y-107249099D01*
X144336317Y-107917407D01*
X144336338Y-107917430D01*
X144411378Y-107992470D01*
X144411383Y-107992474D01*
X144411385Y-107992476D01*
X144455895Y-108018174D01*
X144497923Y-108042439D01*
X144594442Y-108068301D01*
X144594444Y-108068301D01*
X144702084Y-108068301D01*
X144702100Y-108068300D01*
X144865285Y-108068300D01*
X144933406Y-108088302D01*
X144979899Y-108141958D01*
X144990003Y-108212232D01*
X144960509Y-108276812D01*
X144954380Y-108283395D01*
X144383780Y-108853995D01*
X144321468Y-108888021D01*
X144294685Y-108890900D01*
X143654749Y-108890900D01*
X143586628Y-108870898D01*
X143541959Y-108821064D01*
X143462488Y-108661465D01*
X143409981Y-108591934D01*
X143339133Y-108498115D01*
X143187863Y-108360214D01*
X143013833Y-108252459D01*
X143013828Y-108252457D01*
X143013827Y-108252456D01*
X142861936Y-108193613D01*
X142822959Y-108178513D01*
X142822960Y-108178513D01*
X142822957Y-108178512D01*
X142822956Y-108178512D01*
X142621747Y-108140900D01*
X142417053Y-108140900D01*
X142215844Y-108178512D01*
X142215839Y-108178513D01*
X142024977Y-108252454D01*
X142024966Y-108252459D01*
X141850936Y-108360214D01*
X141699666Y-108498115D01*
X141576313Y-108661463D01*
X141485071Y-108844701D01*
X141429054Y-109041580D01*
X141410168Y-109245395D01*
X141410168Y-109245404D01*
X141429054Y-109449219D01*
X141476984Y-109617674D01*
X141485072Y-109646101D01*
X141576312Y-109829335D01*
X141576313Y-109829336D01*
X141699666Y-109992684D01*
X141850936Y-110130585D01*
X142024966Y-110238340D01*
X142024968Y-110238340D01*
X142024973Y-110238344D01*
X142215844Y-110312288D01*
X142417053Y-110349900D01*
X142417055Y-110349900D01*
X142621745Y-110349900D01*
X142621747Y-110349900D01*
X142822956Y-110312288D01*
X143013827Y-110238344D01*
X143187862Y-110130586D01*
X143339132Y-109992685D01*
X143462488Y-109829335D01*
X143541959Y-109669735D01*
X143590227Y-109617674D01*
X143654749Y-109599900D01*
X143899371Y-109599900D01*
X143967492Y-109619902D01*
X144013985Y-109673558D01*
X144024089Y-109743832D01*
X143994595Y-109808412D01*
X143988481Y-109814978D01*
X143294923Y-110508537D01*
X143069846Y-110733614D01*
X143007534Y-110767639D01*
X142936718Y-110762574D01*
X142935234Y-110762009D01*
X142822963Y-110718514D01*
X142822960Y-110718513D01*
X142822957Y-110718512D01*
X142822956Y-110718512D01*
X142621747Y-110680900D01*
X142417053Y-110680900D01*
X142215844Y-110718512D01*
X142215839Y-110718513D01*
X142024977Y-110792454D01*
X142024966Y-110792459D01*
X141850936Y-110900214D01*
X141699666Y-111038115D01*
X141576313Y-111201463D01*
X141485071Y-111384701D01*
X141429054Y-111581580D01*
X141410168Y-111785395D01*
X141410168Y-111785404D01*
X141429054Y-111989219D01*
X141479366Y-112166046D01*
X141485072Y-112186101D01*
X141576312Y-112369335D01*
X141576313Y-112369336D01*
X141699666Y-112532684D01*
X141850936Y-112670585D01*
X142024966Y-112778340D01*
X142024968Y-112778340D01*
X142024973Y-112778344D01*
X142215844Y-112852288D01*
X142417053Y-112889900D01*
X142417055Y-112889900D01*
X142621745Y-112889900D01*
X142621747Y-112889900D01*
X142822956Y-112852288D01*
X143013827Y-112778344D01*
X143187862Y-112670586D01*
X143339132Y-112532685D01*
X143360749Y-112504060D01*
X143417762Y-112461751D01*
X143488598Y-112456983D01*
X143550767Y-112491268D01*
X143584531Y-112553722D01*
X143587300Y-112579990D01*
X143587300Y-112703971D01*
X143567298Y-112772092D01*
X143550399Y-112793061D01*
X143294506Y-113048955D01*
X143069847Y-113273614D01*
X143007535Y-113307639D01*
X142936719Y-113302574D01*
X142935235Y-113302009D01*
X142822959Y-113258513D01*
X142822960Y-113258513D01*
X142822957Y-113258512D01*
X142822956Y-113258512D01*
X142621747Y-113220900D01*
X142417053Y-113220900D01*
X142215844Y-113258512D01*
X142215839Y-113258513D01*
X142024977Y-113332454D01*
X142024966Y-113332459D01*
X141850936Y-113440214D01*
X141699666Y-113578115D01*
X141576313Y-113741463D01*
X141485071Y-113924701D01*
X141429054Y-114121580D01*
X141410168Y-114325395D01*
X141410168Y-114325404D01*
X141429054Y-114529219D01*
X141455847Y-114623386D01*
X141485072Y-114726101D01*
X141576312Y-114909335D01*
X141576313Y-114909336D01*
X141699666Y-115072684D01*
X141850936Y-115210585D01*
X142024966Y-115318340D01*
X142024968Y-115318340D01*
X142024973Y-115318344D01*
X142215844Y-115392288D01*
X142417053Y-115429900D01*
X142417055Y-115429900D01*
X142621745Y-115429900D01*
X142621747Y-115429900D01*
X142822956Y-115392288D01*
X143013827Y-115318344D01*
X143187862Y-115210586D01*
X143339132Y-115072685D01*
X143462488Y-114909335D01*
X143553728Y-114726101D01*
X143609745Y-114529221D01*
X143620916Y-114408666D01*
X143628632Y-114325404D01*
X143628632Y-114325395D01*
X143609745Y-114121580D01*
X143578784Y-114012764D01*
X143553728Y-113924699D01*
X143550162Y-113917538D01*
X143537702Y-113847646D01*
X143565007Y-113782110D01*
X143573838Y-113772298D01*
X143956407Y-113389729D01*
X144018717Y-113355706D01*
X144089533Y-113360771D01*
X144146368Y-113403318D01*
X144171179Y-113469838D01*
X144171500Y-113478827D01*
X144171500Y-114659770D01*
X144151498Y-114727891D01*
X144134595Y-114748865D01*
X143069846Y-115813613D01*
X143007534Y-115847639D01*
X142936718Y-115842574D01*
X142935234Y-115842009D01*
X142822963Y-115798514D01*
X142822960Y-115798513D01*
X142822957Y-115798512D01*
X142822956Y-115798512D01*
X142621747Y-115760900D01*
X142417053Y-115760900D01*
X142215844Y-115798512D01*
X142215839Y-115798513D01*
X142024977Y-115872454D01*
X142024966Y-115872459D01*
X141850936Y-115980214D01*
X141699666Y-116118115D01*
X141576313Y-116281463D01*
X141485071Y-116464701D01*
X141429054Y-116661580D01*
X141410168Y-116865395D01*
X141410168Y-116865404D01*
X141429054Y-117069219D01*
X141470949Y-117216464D01*
X141485072Y-117266101D01*
X141576312Y-117449335D01*
X141576313Y-117449336D01*
X141699666Y-117612684D01*
X141850936Y-117750585D01*
X142024966Y-117858340D01*
X142024968Y-117858340D01*
X142024973Y-117858344D01*
X142215844Y-117932288D01*
X142417053Y-117969900D01*
X142417055Y-117969900D01*
X142621745Y-117969900D01*
X142621747Y-117969900D01*
X142822956Y-117932288D01*
X143013827Y-117858344D01*
X143187862Y-117750586D01*
X143339132Y-117612685D01*
X143340960Y-117610265D01*
X143362320Y-117581979D01*
X143462488Y-117449335D01*
X143553728Y-117266101D01*
X143609745Y-117069221D01*
X143622151Y-116935342D01*
X143628632Y-116865404D01*
X143628632Y-116865395D01*
X143609745Y-116661580D01*
X143553730Y-116464707D01*
X143553728Y-116464699D01*
X143550162Y-116457538D01*
X143537702Y-116387647D01*
X143565007Y-116322111D01*
X143573838Y-116312299D01*
X144356408Y-115529729D01*
X144418717Y-115495707D01*
X144489533Y-115500772D01*
X144546368Y-115543319D01*
X144571179Y-115609839D01*
X144571500Y-115618828D01*
X144571500Y-116799771D01*
X144551498Y-116867892D01*
X144534595Y-116888866D01*
X143069847Y-118353613D01*
X143007535Y-118387639D01*
X142936719Y-118382574D01*
X142935235Y-118382009D01*
X142822959Y-118338513D01*
X142822960Y-118338513D01*
X142822957Y-118338512D01*
X142822956Y-118338512D01*
X142621747Y-118300900D01*
X142417053Y-118300900D01*
X142215844Y-118338512D01*
X142215839Y-118338513D01*
X142024977Y-118412454D01*
X142024966Y-118412459D01*
X141850936Y-118520214D01*
X141699666Y-118658115D01*
X141576313Y-118821463D01*
X141485071Y-119004701D01*
X141429054Y-119201580D01*
X141410168Y-119405395D01*
X141410168Y-119405404D01*
X139826800Y-119405404D01*
X139826800Y-77391400D01*
X139846802Y-77323279D01*
X139900458Y-77276786D01*
X139952800Y-77265400D01*
X160376800Y-77265400D01*
X160444921Y-77285402D01*
G37*
%TD.AperFunction*%
%TD*%
M02*
