%TF.GenerationSoftware,KiCad,Pcbnew,6.0.11-2627ca5db0~126~ubuntu20.04.1*%
%TF.CreationDate,2023-02-28T16:59:55+07:00*%
%TF.ProjectId,Bluepill-USB-C,426c7565-7069-46c6-9c2d-5553422d432e,rev?*%
%TF.SameCoordinates,Original*%
%TF.FileFunction,Copper,L4,Bot*%
%TF.FilePolarity,Positive*%
%FSLAX46Y46*%
G04 Gerber Fmt 4.6, Leading zero omitted, Abs format (unit mm)*
G04 Created by KiCad (PCBNEW 6.0.11-2627ca5db0~126~ubuntu20.04.1) date 2023-02-28 16:59:55*
%MOMM*%
%LPD*%
G01*
G04 APERTURE LIST*
G04 Aperture macros list*
%AMRoundRect*
0 Rectangle with rounded corners*
0 $1 Rounding radius*
0 $2 $3 $4 $5 $6 $7 $8 $9 X,Y pos of 4 corners*
0 Add a 4 corners polygon primitive as box body*
4,1,4,$2,$3,$4,$5,$6,$7,$8,$9,$2,$3,0*
0 Add four circle primitives for the rounded corners*
1,1,$1+$1,$2,$3*
1,1,$1+$1,$4,$5*
1,1,$1+$1,$6,$7*
1,1,$1+$1,$8,$9*
0 Add four rect primitives between the rounded corners*
20,1,$1+$1,$2,$3,$4,$5,0*
20,1,$1+$1,$4,$5,$6,$7,0*
20,1,$1+$1,$6,$7,$8,$9,0*
20,1,$1+$1,$8,$9,$2,$3,0*%
G04 Aperture macros list end*
%TA.AperFunction,ComponentPad*%
%ADD10C,1.500000*%
%TD*%
%TA.AperFunction,ComponentPad*%
%ADD11RoundRect,0.375000X0.375000X-1.125000X0.375000X1.125000X-0.375000X1.125000X-0.375000X-1.125000X0*%
%TD*%
%TA.AperFunction,ComponentPad*%
%ADD12RoundRect,0.375000X-1.125000X-0.375000X1.125000X-0.375000X1.125000X0.375000X-1.125000X0.375000X0*%
%TD*%
%TA.AperFunction,ComponentPad*%
%ADD13O,1.000000X1.800000*%
%TD*%
%TA.AperFunction,ComponentPad*%
%ADD14O,1.000000X2.100000*%
%TD*%
%TA.AperFunction,ComponentPad*%
%ADD15RoundRect,0.375000X1.125000X0.375000X-1.125000X0.375000X-1.125000X-0.375000X1.125000X-0.375000X0*%
%TD*%
%TA.AperFunction,SMDPad,CuDef*%
%ADD16RoundRect,0.140000X0.170000X-0.140000X0.170000X0.140000X-0.170000X0.140000X-0.170000X-0.140000X0*%
%TD*%
%TA.AperFunction,SMDPad,CuDef*%
%ADD17RoundRect,0.150000X-0.650000X-0.150000X0.650000X-0.150000X0.650000X0.150000X-0.650000X0.150000X0*%
%TD*%
%TA.AperFunction,ViaPad*%
%ADD18C,0.800000*%
%TD*%
%TA.AperFunction,Conductor*%
%ADD19C,0.250000*%
%TD*%
%TA.AperFunction,Conductor*%
%ADD20C,0.400000*%
%TD*%
%TA.AperFunction,Conductor*%
%ADD21C,0.600000*%
%TD*%
%TA.AperFunction,Conductor*%
%ADD22C,0.200000*%
%TD*%
G04 APERTURE END LIST*
D10*
%TO.P,J2,1,Pin_1*%
%TO.N,GND*%
X146354800Y-128524000D03*
D11*
X146354800Y-127824000D03*
%TO.P,J2,2,Pin_2*%
%TO.N,/PA14*%
X148894800Y-127824000D03*
D10*
X148894800Y-128524000D03*
%TO.P,J2,3,Pin_3*%
%TO.N,/PA13*%
X151434800Y-128524000D03*
D11*
X151434800Y-127824000D03*
D10*
%TO.P,J2,4,Pin_4*%
%TO.N,+3V3*%
X153974800Y-128524000D03*
D11*
X153974800Y-127824000D03*
%TD*%
D12*
%TO.P,J3,1,Pin_1*%
%TO.N,/PB12*%
X140574800Y-78765400D03*
D10*
X139824800Y-78765400D03*
%TO.P,J3,2,Pin_2*%
%TO.N,/PB13*%
X139824800Y-81305400D03*
D12*
X140574800Y-81305400D03*
%TO.P,J3,3,Pin_3*%
%TO.N,/PB14*%
X140574800Y-83845400D03*
D10*
X139824800Y-83845400D03*
%TO.P,J3,4,Pin_4*%
%TO.N,/PB15*%
X139824800Y-86385400D03*
D12*
X140574800Y-86385400D03*
%TO.P,J3,5,Pin_5*%
%TO.N,/PA8*%
X140574800Y-88925400D03*
D10*
X139824800Y-88925400D03*
D12*
%TO.P,J3,6,Pin_6*%
%TO.N,/PA9*%
X140574800Y-91465400D03*
D10*
X139824800Y-91465400D03*
D12*
%TO.P,J3,7,Pin_7*%
%TO.N,/PA10*%
X140574800Y-94005400D03*
D10*
X139824800Y-94005400D03*
%TO.P,J3,8,Pin_8*%
%TO.N,/PA11*%
X139824800Y-96545400D03*
D12*
X140574800Y-96545400D03*
D10*
%TO.P,J3,9,Pin_9*%
%TO.N,/PA12*%
X139824800Y-99085400D03*
D12*
X140574800Y-99085400D03*
%TO.P,J3,10,Pin_10*%
%TO.N,/PA15*%
X140574800Y-101625400D03*
D10*
X139824800Y-101625400D03*
%TO.P,J3,11,Pin_11*%
%TO.N,/PB3*%
X139824800Y-104165400D03*
D12*
X140574800Y-104165400D03*
%TO.P,J3,12,Pin_12*%
%TO.N,/PB4*%
X140574800Y-106705400D03*
D10*
X139824800Y-106705400D03*
%TO.P,J3,13,Pin_13*%
%TO.N,/PB5*%
X139824800Y-109245400D03*
D12*
X140574800Y-109245400D03*
%TO.P,J3,14,Pin_14*%
%TO.N,/PB6*%
X140574800Y-111785400D03*
D10*
X139824800Y-111785400D03*
%TO.P,J3,15,Pin_15*%
%TO.N,/PB7*%
X139824800Y-114325400D03*
D12*
X140574800Y-114325400D03*
%TO.P,J3,16,Pin_16*%
%TO.N,/PB8*%
X140574800Y-116865400D03*
D10*
X139824800Y-116865400D03*
%TO.P,J3,17,Pin_17*%
%TO.N,/PB9*%
X139824800Y-119405400D03*
D12*
X140574800Y-119405400D03*
%TO.P,J3,18,Pin_18*%
%TO.N,VCC*%
X140574800Y-121945400D03*
D10*
X139824800Y-121945400D03*
%TO.P,J3,19,Pin_19*%
%TO.N,GND*%
X139824800Y-124485400D03*
D12*
X140574800Y-124485400D03*
D10*
%TO.P,J3,20,Pin_20*%
%TO.N,+3V3*%
X139824800Y-127025400D03*
D12*
X140574800Y-127025400D03*
%TD*%
D13*
%TO.P,J1,S1,SHIELD*%
%TO.N,GND*%
X145844800Y-79412830D03*
D14*
X145844800Y-83612830D03*
D13*
X154484800Y-79412830D03*
D14*
X154484800Y-83612830D03*
%TD*%
D10*
%TO.P,J4,1,Pin_1*%
%TO.N,/VB*%
X160504800Y-127025400D03*
D15*
X159754800Y-127025400D03*
%TO.P,J4,2,Pin_2*%
%TO.N,/PC15*%
X159754800Y-124485400D03*
D10*
X160504800Y-124485400D03*
D15*
%TO.P,J4,3,Pin_3*%
%TO.N,/PC14*%
X159754800Y-121945400D03*
D10*
X160504800Y-121945400D03*
D15*
%TO.P,J4,4,Pin_4*%
%TO.N,/PC13*%
X159754800Y-119405400D03*
D10*
X160504800Y-119405400D03*
%TO.P,J4,5,Pin_5*%
%TO.N,/PA0*%
X160504800Y-116865400D03*
D15*
X159754800Y-116865400D03*
%TO.P,J4,6,Pin_6*%
%TO.N,/PA1*%
X159754800Y-114325400D03*
D10*
X160504800Y-114325400D03*
D15*
%TO.P,J4,7,Pin_7*%
%TO.N,/PA2*%
X159754800Y-111785400D03*
D10*
X160504800Y-111785400D03*
D15*
%TO.P,J4,8,Pin_8*%
%TO.N,/PA3*%
X159754800Y-109245400D03*
D10*
X160504800Y-109245400D03*
D15*
%TO.P,J4,9,Pin_9*%
%TO.N,/PA4*%
X159754800Y-106705400D03*
D10*
X160504800Y-106705400D03*
D15*
%TO.P,J4,10,Pin_10*%
%TO.N,/MEM_CLK*%
X159754800Y-104165400D03*
D10*
X160504800Y-104165400D03*
%TO.P,J4,11,Pin_11*%
%TO.N,/MEM_MISO*%
X160504800Y-101625400D03*
D15*
X159754800Y-101625400D03*
D10*
%TO.P,J4,12,Pin_12*%
%TO.N,/MEM_MOSI*%
X160504800Y-99085400D03*
D15*
X159754800Y-99085400D03*
D10*
%TO.P,J4,13,Pin_13*%
%TO.N,/PB0*%
X160504800Y-96545400D03*
D15*
X159754800Y-96545400D03*
%TO.P,J4,14,Pin_14*%
%TO.N,/PB1*%
X159754800Y-94005400D03*
D10*
X160504800Y-94005400D03*
%TO.P,J4,15,Pin_15*%
%TO.N,/PB10*%
X160504800Y-91465400D03*
D15*
X159754800Y-91465400D03*
%TO.P,J4,16,Pin_16*%
%TO.N,/PB11*%
X159754800Y-88925400D03*
D10*
X160504800Y-88925400D03*
D15*
%TO.P,J4,17,Pin_17*%
%TO.N,/~{NRST}*%
X159754800Y-86385400D03*
D10*
X160504800Y-86385400D03*
%TO.P,J4,18,Pin_18*%
%TO.N,+3V3*%
X160504800Y-83845400D03*
D15*
X159754800Y-83845400D03*
D10*
%TO.P,J4,19,Pin_19*%
%TO.N,GND*%
X160504800Y-81305400D03*
D15*
X159754800Y-81305400D03*
D10*
%TO.P,J4,20,Pin_20*%
%TO.N,VCC*%
X160504800Y-78765400D03*
D15*
X159754800Y-78765400D03*
%TD*%
D16*
%TO.P,C8,1*%
%TO.N,GND*%
X153750000Y-95580000D03*
%TO.P,C8,2*%
%TO.N,+3V3*%
X153750000Y-94620000D03*
%TD*%
D17*
%TO.P,U2,1,~{CS}*%
%TO.N,/PA4*%
X146550000Y-93055000D03*
%TO.P,U2,2,DO(IO1)*%
%TO.N,/MEM_MISO*%
X146550000Y-91785000D03*
%TO.P,U2,3,IO2*%
%TO.N,+3V3*%
X146550000Y-90515000D03*
%TO.P,U2,4,GND*%
%TO.N,GND*%
X146550000Y-89245000D03*
%TO.P,U2,5,DI(IO0)*%
%TO.N,/MEM_MOSI*%
X153750000Y-89245000D03*
%TO.P,U2,6,CLK*%
%TO.N,/MEM_CLK*%
X153750000Y-90515000D03*
%TO.P,U2,7,IO3*%
%TO.N,+3V3*%
X153750000Y-91785000D03*
%TO.P,U2,8,VCC*%
X153750000Y-93055000D03*
%TD*%
D18*
%TO.N,GND*%
X154500000Y-85400000D03*
X144700000Y-104500000D03*
X145900000Y-117750000D03*
X146950000Y-114200000D03*
X156311600Y-87020400D03*
X150500000Y-98850000D03*
X151600000Y-89700000D03*
X146950000Y-115750000D03*
X152450000Y-93900000D03*
X150300000Y-102250000D03*
X157950000Y-123200000D03*
X150200000Y-126000000D03*
X153300000Y-120150000D03*
X155250000Y-116000000D03*
X147650000Y-126000000D03*
X146150000Y-87050000D03*
X151300000Y-112100000D03*
X145850000Y-85350000D03*
X152700000Y-126000000D03*
X157800000Y-92650000D03*
X155450000Y-95200000D03*
%TO.N,/PC15*%
X153650000Y-116325500D03*
%TO.N,/~{NRST}*%
X151650000Y-103600000D03*
X151350000Y-94050000D03*
%TO.N,VCC*%
X155600000Y-88350000D03*
%TO.N,+3V3*%
X150700000Y-120900000D03*
X146500000Y-95650000D03*
X152550000Y-97650000D03*
X146700000Y-111900000D03*
X144050000Y-103050000D03*
X155550000Y-110350000D03*
%TO.N,VBUS*%
X153376705Y-86193677D03*
X147036412Y-86106641D03*
%TO.N,/PA13*%
X150050000Y-105650000D03*
%TO.N,/PA14*%
X148200000Y-106200000D03*
%TO.N,/PA11*%
X152200000Y-86600000D03*
X148500000Y-102525000D03*
%TO.N,/MEM_MISO*%
X153050000Y-103350000D03*
%TO.N,/PA4*%
X153450000Y-104350000D03*
%TO.N,/PA0*%
X151000000Y-117450000D03*
%TO.N,/PC13*%
X150649865Y-108149086D03*
%TO.N,/BOOT0*%
X147750000Y-96600000D03*
X145880181Y-109344779D03*
%TO.N,/PC13*%
X155850000Y-123200000D03*
%TO.N,/D+*%
X147325000Y-80000000D03*
X151925000Y-80000000D03*
X147325000Y-80000000D03*
%TO.N,/D-*%
X148375000Y-80000000D03*
X148375000Y-80000000D03*
X152975000Y-80000000D03*
%TO.N,/PA12*%
X148150000Y-86650000D03*
X148500000Y-103575000D03*
%TD*%
D19*
%TO.N,/PC15*%
X153650000Y-116325500D02*
X154254200Y-116929700D01*
X154254200Y-116929700D02*
X154254200Y-123317000D01*
X154254200Y-123317000D02*
X155397200Y-124460000D01*
X155397200Y-124460000D02*
X157480000Y-124460000D01*
%TO.N,/PC13*%
X155850000Y-123200000D02*
X156631800Y-123200000D01*
X156631800Y-123200000D02*
X157454600Y-122377200D01*
X157454600Y-122377200D02*
X157454600Y-121005600D01*
X157454600Y-121005600D02*
X159054800Y-119405400D01*
%TO.N,/PC15*%
X157535400Y-124485400D02*
X159054800Y-124485400D01*
%TO.N,/~{NRST}*%
X151350000Y-103300000D02*
X151350000Y-94050000D01*
X151650000Y-103600000D02*
X151350000Y-103300000D01*
%TO.N,+3V3*%
X145400000Y-90900000D02*
X145400000Y-94550000D01*
X145400000Y-94550000D02*
X146500000Y-95650000D01*
X145785000Y-90515000D02*
X145400000Y-90900000D01*
D20*
X153750000Y-94620000D02*
X152880000Y-94620000D01*
X152880000Y-94620000D02*
X152550000Y-94950000D01*
D19*
X146550000Y-90515000D02*
X145785000Y-90515000D01*
D20*
X152550000Y-94950000D02*
X152550000Y-97650000D01*
D19*
X153750000Y-93055000D02*
X153750000Y-91785000D01*
D20*
X153750000Y-94620000D02*
X153750000Y-93055000D01*
D21*
%TO.N,VBUS*%
X147036412Y-86106641D02*
X148493053Y-84650000D01*
X151833028Y-84650000D02*
X153376705Y-86193677D01*
X148493053Y-84650000D02*
X151833028Y-84650000D01*
D19*
%TO.N,/PA13*%
X151434800Y-127124000D02*
X151434800Y-123640000D01*
X151434800Y-123640000D02*
X148650000Y-120855200D01*
X148650000Y-107050000D02*
X150050000Y-105650000D01*
X148650000Y-120855200D02*
X148650000Y-107050000D01*
%TO.N,/PA14*%
X148894800Y-127124000D02*
X148894800Y-121736396D01*
X148200000Y-121041596D02*
X148200000Y-106200000D01*
X148894800Y-121736396D02*
X148200000Y-121041596D01*
D22*
%TO.N,/PA11*%
X146775000Y-101443200D02*
X150375001Y-97843199D01*
X146775000Y-102156800D02*
X146775000Y-101443200D01*
X148200001Y-102824999D02*
X147443199Y-102824999D01*
X147443199Y-102824999D02*
X146775000Y-102156800D01*
X150375001Y-97843199D02*
X150375001Y-88424999D01*
X150375001Y-88424999D02*
X152200000Y-86600000D01*
X148500000Y-102525000D02*
X148200001Y-102824999D01*
D19*
%TO.N,/MEM_MOSI*%
X155945000Y-89245000D02*
X156850000Y-90150000D01*
X156850000Y-96880600D02*
X159054800Y-99085400D01*
X156850000Y-90150000D02*
X156850000Y-96880600D01*
X153750000Y-89245000D02*
X155945000Y-89245000D01*
%TO.N,/MEM_MISO*%
X149499999Y-97480761D02*
X145900000Y-101080760D01*
X145900000Y-102600000D02*
X147650000Y-104350000D01*
X149499999Y-92299999D02*
X149499999Y-97480761D01*
X146550000Y-91785000D02*
X148985000Y-91785000D01*
X148985000Y-91785000D02*
X149499999Y-92299999D01*
X147650000Y-104350000D02*
X152050000Y-104350000D01*
X152050000Y-104350000D02*
X153050000Y-103350000D01*
X145900000Y-101080760D02*
X145900000Y-102600000D01*
%TO.N,/MEM_CLK*%
X156400000Y-101510600D02*
X159054800Y-104165400D01*
X153750000Y-90515000D02*
X155565000Y-90515000D01*
X155565000Y-90515000D02*
X156400000Y-91350000D01*
X156400000Y-91350000D02*
X156400000Y-101510600D01*
%TO.N,/PA4*%
X145450000Y-102786396D02*
X147463604Y-104800000D01*
X146550000Y-93055000D02*
X148705000Y-93055000D01*
X149049999Y-93399999D02*
X149049999Y-97294365D01*
X145450000Y-100894364D02*
X145450000Y-102786396D01*
X149049999Y-97294365D02*
X145450000Y-100894364D01*
X148705000Y-93055000D02*
X149049999Y-93399999D01*
X147463604Y-104800000D02*
X153000000Y-104800000D01*
X153000000Y-104800000D02*
X153450000Y-104350000D01*
%TO.N,/PA0*%
X155336396Y-107350000D02*
X157500000Y-109513604D01*
X151000000Y-117450000D02*
X149550000Y-116000000D01*
X157500000Y-109513604D02*
X157500000Y-115310600D01*
X149550000Y-116000000D02*
X149550000Y-108200000D01*
X150400000Y-107350000D02*
X155336396Y-107350000D01*
X157500000Y-115310600D02*
X159054800Y-116865400D01*
X149550000Y-108200000D02*
X150400000Y-107350000D01*
%TO.N,/PC13*%
X157050000Y-109700000D02*
X157050000Y-117400600D01*
X150649865Y-108149086D02*
X155499086Y-108149086D01*
X155499086Y-108149086D02*
X157050000Y-109700000D01*
X157050000Y-117400600D02*
X159054800Y-119405400D01*
%TO.N,/BOOT0*%
X145850000Y-109314598D02*
X145880181Y-109344779D01*
X147750000Y-97957968D02*
X145000000Y-100707968D01*
X145850000Y-103822792D02*
X145850000Y-109314598D01*
X145000000Y-100707968D02*
X145000000Y-102972792D01*
X145000000Y-102972792D02*
X145850000Y-103822792D01*
X147750000Y-96600000D02*
X147750000Y-97957968D01*
D22*
%TO.N,/D+*%
X151601789Y-81330011D02*
X152224999Y-80706801D01*
X150698211Y-81330011D02*
X151601789Y-81330011D01*
X147624999Y-79700001D02*
X147624999Y-79056801D01*
X152224999Y-80706801D02*
X152224999Y-80299999D01*
X147624999Y-79056801D02*
X148206800Y-78475000D01*
X152224999Y-80299999D02*
X151925000Y-80000000D01*
X148206800Y-78475000D02*
X149543200Y-78475000D01*
X150333544Y-80965344D02*
X150698211Y-81330011D01*
X147325000Y-80000000D02*
X147624999Y-79700001D01*
X150333544Y-79265344D02*
X150333544Y-80965344D01*
X149543200Y-78475000D02*
X150333544Y-79265344D01*
%TO.N,/D-*%
X148075001Y-79243199D02*
X148393200Y-78925000D01*
X149883544Y-81151744D02*
X150511811Y-81780011D01*
X149356800Y-78925000D02*
X149883544Y-79451744D01*
X148393200Y-78925000D02*
X149356800Y-78925000D01*
X151788189Y-81780011D02*
X152675001Y-80893199D01*
X148075001Y-79700001D02*
X148075001Y-79243199D01*
X152675001Y-80893199D02*
X152675001Y-80299999D01*
X149883544Y-79451744D02*
X149883544Y-81151744D01*
X150511811Y-81780011D02*
X151788189Y-81780011D01*
X152675001Y-80299999D02*
X152975000Y-80000000D01*
X148375000Y-80000000D02*
X148075001Y-79700001D01*
%TO.N,/PA12*%
X148200001Y-103275001D02*
X147256801Y-103275001D01*
X147256801Y-103275001D02*
X146325000Y-102343200D01*
X146325000Y-101256800D02*
X149924999Y-97656801D01*
X149924999Y-88424999D02*
X148150000Y-86650000D01*
X146325000Y-102343200D02*
X146325000Y-101256800D01*
X149924999Y-97656801D02*
X149924999Y-88424999D01*
X148500000Y-103575000D02*
X148200001Y-103275001D01*
%TD*%
%TA.AperFunction,Conductor*%
%TO.N,GND*%
G36*
X158552537Y-77539902D02*
G01*
X158599030Y-77593558D01*
X158609134Y-77663832D01*
X158579640Y-77728412D01*
X158519569Y-77766897D01*
X158385421Y-77805870D01*
X158385419Y-77805871D01*
X158377808Y-77808082D01*
X158370981Y-77812119D01*
X158370982Y-77812119D01*
X158247736Y-77885006D01*
X158247733Y-77885008D01*
X158240909Y-77889044D01*
X158128444Y-78001509D01*
X158124408Y-78008333D01*
X158124406Y-78008336D01*
X158064047Y-78110398D01*
X158047482Y-78138408D01*
X158045271Y-78146019D01*
X158045270Y-78146021D01*
X158035121Y-78180955D01*
X158003109Y-78291142D01*
X158002605Y-78297547D01*
X158002604Y-78297552D01*
X158000493Y-78324377D01*
X158000300Y-78326833D01*
X158000301Y-79203966D01*
X158003109Y-79239658D01*
X158004904Y-79245835D01*
X158004905Y-79245841D01*
X158045270Y-79384779D01*
X158047482Y-79392392D01*
X158051519Y-79399218D01*
X158124406Y-79522464D01*
X158124408Y-79522467D01*
X158128444Y-79529291D01*
X158240909Y-79641756D01*
X158247733Y-79645792D01*
X158247736Y-79645794D01*
X158342182Y-79701649D01*
X158377808Y-79722718D01*
X158385419Y-79724929D01*
X158385421Y-79724930D01*
X158434661Y-79739235D01*
X158530542Y-79767091D01*
X158536947Y-79767595D01*
X158536952Y-79767596D01*
X158563777Y-79769707D01*
X158563784Y-79769707D01*
X158566233Y-79769900D01*
X158598560Y-79769900D01*
X160122300Y-79769899D01*
X160190421Y-79789901D01*
X160236914Y-79843557D01*
X160248300Y-79895899D01*
X160248300Y-80175400D01*
X160228298Y-80243521D01*
X160174642Y-80290014D01*
X160122300Y-80301400D01*
X160026915Y-80301400D01*
X160011676Y-80305875D01*
X160010471Y-80307265D01*
X160008800Y-80314948D01*
X160008800Y-80432074D01*
X160016330Y-80457719D01*
X160211395Y-80652784D01*
X160245421Y-80715096D01*
X160248300Y-80741879D01*
X160248300Y-81103920D01*
X160228298Y-81172041D01*
X160174642Y-81218534D01*
X160104368Y-81228638D01*
X160039788Y-81199144D01*
X160033205Y-81193015D01*
X160021610Y-81181420D01*
X160011524Y-81175913D01*
X160008800Y-81183217D01*
X160008800Y-81424074D01*
X160012037Y-81435099D01*
X160019130Y-81431860D01*
X160033205Y-81417785D01*
X160095517Y-81383759D01*
X160166332Y-81388824D01*
X160223168Y-81431371D01*
X160247979Y-81497891D01*
X160248300Y-81506880D01*
X160248300Y-81868921D01*
X160228298Y-81937042D01*
X160211395Y-81958016D01*
X160021612Y-82147799D01*
X160008800Y-82171261D01*
X160008800Y-82291284D01*
X160013275Y-82306523D01*
X160014665Y-82307728D01*
X160022348Y-82309399D01*
X160122300Y-82309399D01*
X160190421Y-82329401D01*
X160236914Y-82383057D01*
X160248300Y-82435399D01*
X160248300Y-82714900D01*
X160228298Y-82783021D01*
X160174642Y-82829514D01*
X160122300Y-82840900D01*
X158598612Y-82840901D01*
X158566234Y-82840901D01*
X158543665Y-82842677D01*
X158536960Y-82843204D01*
X158536959Y-82843204D01*
X158530542Y-82843709D01*
X158524362Y-82845504D01*
X158524359Y-82845505D01*
X158385421Y-82885870D01*
X158385419Y-82885871D01*
X158377808Y-82888082D01*
X158370981Y-82892119D01*
X158370982Y-82892119D01*
X158247736Y-82965006D01*
X158247733Y-82965008D01*
X158240909Y-82969044D01*
X158128444Y-83081509D01*
X158124408Y-83088333D01*
X158124406Y-83088336D01*
X158116906Y-83101018D01*
X158047482Y-83218408D01*
X158045271Y-83226019D01*
X158045270Y-83226021D01*
X158030965Y-83275261D01*
X158003109Y-83371142D01*
X158002605Y-83377547D01*
X158002604Y-83377552D01*
X158000493Y-83404377D01*
X158000300Y-83406833D01*
X158000301Y-84283966D01*
X158003109Y-84319658D01*
X158004904Y-84325835D01*
X158004905Y-84325841D01*
X158010282Y-84344349D01*
X158047482Y-84472392D01*
X158051519Y-84479218D01*
X158124406Y-84602464D01*
X158124408Y-84602467D01*
X158128444Y-84609291D01*
X158240909Y-84721756D01*
X158247733Y-84725792D01*
X158247736Y-84725794D01*
X158315143Y-84765658D01*
X158377808Y-84802718D01*
X158385419Y-84804929D01*
X158385421Y-84804930D01*
X158430069Y-84817901D01*
X158530542Y-84847091D01*
X158536947Y-84847595D01*
X158536952Y-84847596D01*
X158563777Y-84849707D01*
X158563784Y-84849707D01*
X158566233Y-84849900D01*
X158598560Y-84849900D01*
X160122300Y-84849899D01*
X160190421Y-84869901D01*
X160236914Y-84923557D01*
X160248300Y-84975899D01*
X160248300Y-85254900D01*
X160228298Y-85323021D01*
X160174642Y-85369514D01*
X160122300Y-85380900D01*
X158598612Y-85380901D01*
X158566234Y-85380901D01*
X158543665Y-85382677D01*
X158536960Y-85383204D01*
X158536959Y-85383204D01*
X158530542Y-85383709D01*
X158524362Y-85385504D01*
X158524359Y-85385505D01*
X158385421Y-85425870D01*
X158385419Y-85425871D01*
X158377808Y-85428082D01*
X158370981Y-85432119D01*
X158370982Y-85432119D01*
X158247736Y-85505006D01*
X158247733Y-85505008D01*
X158240909Y-85509044D01*
X158128444Y-85621509D01*
X158124408Y-85628333D01*
X158124406Y-85628336D01*
X158112344Y-85648732D01*
X158047482Y-85758408D01*
X158045271Y-85766019D01*
X158045270Y-85766021D01*
X158033728Y-85805751D01*
X158003109Y-85911142D01*
X158002605Y-85917547D01*
X158002604Y-85917552D01*
X158000493Y-85944377D01*
X158000300Y-85946833D01*
X158000301Y-86823966D01*
X158003109Y-86859658D01*
X158004904Y-86865835D01*
X158004905Y-86865841D01*
X158030989Y-86955623D01*
X158047482Y-87012392D01*
X158051519Y-87019218D01*
X158124406Y-87142464D01*
X158124408Y-87142467D01*
X158128444Y-87149291D01*
X158240909Y-87261756D01*
X158247733Y-87265792D01*
X158247736Y-87265794D01*
X158316009Y-87306170D01*
X158377808Y-87342718D01*
X158385419Y-87344929D01*
X158385421Y-87344930D01*
X158434661Y-87359235D01*
X158530542Y-87387091D01*
X158536947Y-87387595D01*
X158536952Y-87387596D01*
X158563777Y-87389707D01*
X158563784Y-87389707D01*
X158566233Y-87389900D01*
X158598560Y-87389900D01*
X160122300Y-87389899D01*
X160190421Y-87409901D01*
X160236914Y-87463557D01*
X160248300Y-87515899D01*
X160248300Y-87794900D01*
X160228298Y-87863021D01*
X160174642Y-87909514D01*
X160122300Y-87920900D01*
X158598612Y-87920901D01*
X158566234Y-87920901D01*
X158543665Y-87922677D01*
X158536960Y-87923204D01*
X158536959Y-87923204D01*
X158530542Y-87923709D01*
X158524362Y-87925504D01*
X158524359Y-87925505D01*
X158385421Y-87965870D01*
X158385419Y-87965871D01*
X158377808Y-87968082D01*
X158370981Y-87972119D01*
X158370982Y-87972119D01*
X158247736Y-88045006D01*
X158247733Y-88045008D01*
X158240909Y-88049044D01*
X158128444Y-88161509D01*
X158124408Y-88168333D01*
X158124406Y-88168336D01*
X158105519Y-88200273D01*
X158047482Y-88298408D01*
X158003109Y-88451142D01*
X158002605Y-88457547D01*
X158002604Y-88457552D01*
X158000493Y-88484377D01*
X158000300Y-88486833D01*
X158000301Y-89363966D01*
X158003109Y-89399658D01*
X158004904Y-89405835D01*
X158004905Y-89405841D01*
X158041089Y-89530388D01*
X158047482Y-89552392D01*
X158051519Y-89559218D01*
X158124406Y-89682464D01*
X158124408Y-89682467D01*
X158128444Y-89689291D01*
X158240909Y-89801756D01*
X158247733Y-89805792D01*
X158247736Y-89805794D01*
X158265332Y-89816200D01*
X158377808Y-89882718D01*
X158385419Y-89884929D01*
X158385421Y-89884930D01*
X158434661Y-89899235D01*
X158530542Y-89927091D01*
X158536947Y-89927595D01*
X158536952Y-89927596D01*
X158563777Y-89929707D01*
X158563784Y-89929707D01*
X158566233Y-89929900D01*
X158598560Y-89929900D01*
X160122300Y-89929899D01*
X160190421Y-89949901D01*
X160236914Y-90003557D01*
X160248300Y-90055899D01*
X160248300Y-90334900D01*
X160228298Y-90403021D01*
X160174642Y-90449514D01*
X160122300Y-90460900D01*
X158598612Y-90460901D01*
X158566234Y-90460901D01*
X158543665Y-90462677D01*
X158536960Y-90463204D01*
X158536959Y-90463204D01*
X158530542Y-90463709D01*
X158524362Y-90465504D01*
X158524359Y-90465505D01*
X158385421Y-90505870D01*
X158385419Y-90505871D01*
X158377808Y-90508082D01*
X158370981Y-90512119D01*
X158370982Y-90512119D01*
X158247736Y-90585006D01*
X158247733Y-90585008D01*
X158240909Y-90589044D01*
X158128444Y-90701509D01*
X158124408Y-90708333D01*
X158124406Y-90708336D01*
X158082117Y-90779844D01*
X158047482Y-90838408D01*
X158045271Y-90846019D01*
X158045270Y-90846021D01*
X158040575Y-90862183D01*
X158003109Y-90991142D01*
X158002605Y-90997547D01*
X158002604Y-90997552D01*
X158000493Y-91024377D01*
X158000300Y-91026833D01*
X158000301Y-91903966D01*
X158003109Y-91939658D01*
X158004904Y-91945835D01*
X158004905Y-91945841D01*
X158035678Y-92051762D01*
X158047482Y-92092392D01*
X158051519Y-92099218D01*
X158124406Y-92222464D01*
X158124408Y-92222467D01*
X158128444Y-92229291D01*
X158240909Y-92341756D01*
X158247733Y-92345792D01*
X158247736Y-92345794D01*
X158265809Y-92356482D01*
X158377808Y-92422718D01*
X158385419Y-92424929D01*
X158385421Y-92424930D01*
X158434661Y-92439235D01*
X158530542Y-92467091D01*
X158536947Y-92467595D01*
X158536952Y-92467596D01*
X158563777Y-92469707D01*
X158563784Y-92469707D01*
X158566233Y-92469900D01*
X158598560Y-92469900D01*
X160122300Y-92469899D01*
X160190421Y-92489901D01*
X160236914Y-92543557D01*
X160248300Y-92595899D01*
X160248300Y-92874900D01*
X160228298Y-92943021D01*
X160174642Y-92989514D01*
X160122300Y-93000900D01*
X158598612Y-93000901D01*
X158566234Y-93000901D01*
X158543665Y-93002677D01*
X158536960Y-93003204D01*
X158536959Y-93003204D01*
X158530542Y-93003709D01*
X158524362Y-93005504D01*
X158524359Y-93005505D01*
X158385421Y-93045870D01*
X158385419Y-93045871D01*
X158377808Y-93048082D01*
X158370981Y-93052119D01*
X158370982Y-93052119D01*
X158247736Y-93125006D01*
X158247733Y-93125008D01*
X158240909Y-93129044D01*
X158128444Y-93241509D01*
X158124408Y-93248333D01*
X158124406Y-93248336D01*
X158080982Y-93321762D01*
X158047482Y-93378408D01*
X158045271Y-93386019D01*
X158045270Y-93386021D01*
X158031900Y-93432043D01*
X158003109Y-93531142D01*
X158002605Y-93537547D01*
X158002604Y-93537552D01*
X158000493Y-93564377D01*
X158000300Y-93566833D01*
X158000301Y-94443966D01*
X158003109Y-94479658D01*
X158004904Y-94485835D01*
X158004905Y-94485841D01*
X158038235Y-94600565D01*
X158047482Y-94632392D01*
X158051519Y-94639218D01*
X158124406Y-94762464D01*
X158124408Y-94762467D01*
X158128444Y-94769291D01*
X158240909Y-94881756D01*
X158247733Y-94885792D01*
X158247736Y-94885794D01*
X158335907Y-94937938D01*
X158377808Y-94962718D01*
X158385419Y-94964929D01*
X158385421Y-94964930D01*
X158434661Y-94979235D01*
X158530542Y-95007091D01*
X158536947Y-95007595D01*
X158536952Y-95007596D01*
X158563777Y-95009707D01*
X158563784Y-95009707D01*
X158566233Y-95009900D01*
X158598560Y-95009900D01*
X160122300Y-95009899D01*
X160190421Y-95029901D01*
X160236914Y-95083557D01*
X160248300Y-95135899D01*
X160248300Y-95414900D01*
X160228298Y-95483021D01*
X160174642Y-95529514D01*
X160122300Y-95540900D01*
X158598612Y-95540901D01*
X158566234Y-95540901D01*
X158543665Y-95542677D01*
X158536960Y-95543204D01*
X158536959Y-95543204D01*
X158530542Y-95543709D01*
X158524362Y-95545504D01*
X158524359Y-95545505D01*
X158385421Y-95585870D01*
X158385419Y-95585871D01*
X158377808Y-95588082D01*
X158370981Y-95592119D01*
X158370982Y-95592119D01*
X158247736Y-95665006D01*
X158247733Y-95665008D01*
X158240909Y-95669044D01*
X158128444Y-95781509D01*
X158124408Y-95788333D01*
X158124406Y-95788336D01*
X158086692Y-95852107D01*
X158047482Y-95918408D01*
X158045271Y-95926019D01*
X158045270Y-95926021D01*
X158031390Y-95973798D01*
X158003109Y-96071142D01*
X158002605Y-96077547D01*
X158002604Y-96077552D01*
X158000493Y-96104377D01*
X158000300Y-96106833D01*
X158000301Y-96983966D01*
X158003109Y-97019658D01*
X158004904Y-97025835D01*
X158004905Y-97025841D01*
X158032973Y-97122451D01*
X158047482Y-97172392D01*
X158073846Y-97216970D01*
X158091305Y-97285785D01*
X158068789Y-97353116D01*
X158013444Y-97397585D01*
X157942844Y-97405074D01*
X157876297Y-97370203D01*
X157266405Y-96760311D01*
X157232379Y-96697999D01*
X157229500Y-96671216D01*
X157229500Y-90203920D01*
X157232049Y-90179973D01*
X157232128Y-90178307D01*
X157234320Y-90168124D01*
X157233096Y-90157782D01*
X157233096Y-90157779D01*
X157230374Y-90134787D01*
X157230023Y-90128846D01*
X157229928Y-90128854D01*
X157229500Y-90123674D01*
X157229500Y-90118476D01*
X157226329Y-90099424D01*
X157225492Y-90093547D01*
X157220693Y-90052997D01*
X157220692Y-90052995D01*
X157219469Y-90042659D01*
X157215508Y-90034410D01*
X157214004Y-90025374D01*
X157209056Y-90016203D01*
X157189652Y-89980240D01*
X157186957Y-89974951D01*
X157168212Y-89935915D01*
X157164780Y-89928768D01*
X157161186Y-89924492D01*
X157159246Y-89922552D01*
X157157493Y-89920641D01*
X157157444Y-89920551D01*
X157157567Y-89920439D01*
X157157095Y-89919904D01*
X157154010Y-89914186D01*
X157114413Y-89877583D01*
X157110848Y-89874154D01*
X156251478Y-89014784D01*
X156236336Y-88996036D01*
X156235221Y-88994811D01*
X156229571Y-88986060D01*
X156221393Y-88979613D01*
X156221391Y-88979611D01*
X156203200Y-88965271D01*
X156198759Y-88961325D01*
X156198697Y-88961398D01*
X156194733Y-88958039D01*
X156191056Y-88954362D01*
X156175308Y-88943108D01*
X156170638Y-88939602D01*
X156145058Y-88919436D01*
X156103947Y-88861557D01*
X156100653Y-88790637D01*
X156120744Y-88746963D01*
X156146956Y-88710485D01*
X156177755Y-88667624D01*
X156236842Y-88520641D01*
X156259162Y-88363807D01*
X156259307Y-88350000D01*
X156240276Y-88192733D01*
X156184280Y-88044546D01*
X156175814Y-88032228D01*
X156098855Y-87920251D01*
X156098854Y-87920249D01*
X156094553Y-87913992D01*
X155976275Y-87808611D01*
X155968889Y-87804700D01*
X155842988Y-87738039D01*
X155842989Y-87738039D01*
X155836274Y-87734484D01*
X155682633Y-87695892D01*
X155675034Y-87695852D01*
X155675033Y-87695852D01*
X155609181Y-87695507D01*
X155524221Y-87695062D01*
X155516841Y-87696834D01*
X155516839Y-87696834D01*
X155377563Y-87730271D01*
X155377560Y-87730272D01*
X155370184Y-87732043D01*
X155229414Y-87804700D01*
X155110039Y-87908838D01*
X155018950Y-88038444D01*
X154961406Y-88186037D01*
X154940729Y-88343096D01*
X154949421Y-88421825D01*
X154956871Y-88489302D01*
X154958113Y-88500553D01*
X155012553Y-88649319D01*
X155025928Y-88669223D01*
X155047321Y-88736919D01*
X155028718Y-88805436D01*
X154976026Y-88853018D01*
X154921347Y-88865500D01*
X154794739Y-88865500D01*
X154726618Y-88845498D01*
X154705644Y-88828595D01*
X154640723Y-88763674D01*
X154526555Y-88705502D01*
X154431834Y-88690500D01*
X153068166Y-88690500D01*
X152973445Y-88705502D01*
X152859277Y-88763674D01*
X152768674Y-88854277D01*
X152710502Y-88968445D01*
X152695500Y-89063166D01*
X152695500Y-89426834D01*
X152710502Y-89521555D01*
X152768674Y-89635723D01*
X152859277Y-89726326D01*
X152934687Y-89764750D01*
X152940542Y-89767733D01*
X152992157Y-89816482D01*
X153009223Y-89885397D01*
X152986322Y-89952598D01*
X152940542Y-89992267D01*
X152859277Y-90033674D01*
X152768674Y-90124277D01*
X152710502Y-90238445D01*
X152695500Y-90333166D01*
X152695500Y-90696834D01*
X152710502Y-90791555D01*
X152768674Y-90905723D01*
X152859277Y-90996326D01*
X152934687Y-91034750D01*
X152940542Y-91037733D01*
X152992157Y-91086482D01*
X153009223Y-91155397D01*
X152986322Y-91222598D01*
X152940542Y-91262267D01*
X152859277Y-91303674D01*
X152768674Y-91394277D01*
X152710502Y-91508445D01*
X152695500Y-91603166D01*
X152695500Y-91966834D01*
X152710502Y-92061555D01*
X152768674Y-92175723D01*
X152859277Y-92266326D01*
X152934687Y-92304750D01*
X152940542Y-92307733D01*
X152992157Y-92356482D01*
X153009223Y-92425397D01*
X152986322Y-92492598D01*
X152940542Y-92532267D01*
X152859277Y-92573674D01*
X152768674Y-92664277D01*
X152710502Y-92778445D01*
X152695500Y-92873166D01*
X152695500Y-93236834D01*
X152710502Y-93331555D01*
X152768674Y-93445723D01*
X152859277Y-93536326D01*
X152973445Y-93594498D01*
X153068166Y-93609500D01*
X153169500Y-93609500D01*
X153237621Y-93629502D01*
X153284114Y-93683158D01*
X153295500Y-93735500D01*
X153295500Y-94039500D01*
X153275498Y-94107621D01*
X153221842Y-94154114D01*
X153169500Y-94165500D01*
X152914456Y-94165500D01*
X152899647Y-94164627D01*
X152874915Y-94161700D01*
X152865562Y-94160593D01*
X152856298Y-94162285D01*
X152856297Y-94162285D01*
X152807310Y-94171232D01*
X152803406Y-94171882D01*
X152744849Y-94180685D01*
X152738283Y-94183838D01*
X152731116Y-94185147D01*
X152689828Y-94206594D01*
X152678574Y-94212440D01*
X152675037Y-94214208D01*
X152621647Y-94239846D01*
X152616351Y-94244742D01*
X152616215Y-94244834D01*
X152609834Y-94248148D01*
X152604746Y-94252494D01*
X152567164Y-94290076D01*
X152563599Y-94293506D01*
X152521288Y-94332617D01*
X152517570Y-94339017D01*
X152511963Y-94345277D01*
X152252989Y-94604251D01*
X152241900Y-94614106D01*
X152214941Y-94635359D01*
X152206895Y-94647001D01*
X152181258Y-94684094D01*
X152178976Y-94687287D01*
X152143791Y-94734924D01*
X152141377Y-94741797D01*
X152137236Y-94747789D01*
X152127190Y-94779555D01*
X152119374Y-94804270D01*
X152118129Y-94807999D01*
X152098507Y-94863874D01*
X152098224Y-94871078D01*
X152098191Y-94871249D01*
X152096025Y-94878097D01*
X152095500Y-94884768D01*
X152095500Y-94937938D01*
X152095403Y-94942884D01*
X152093142Y-95000437D01*
X152095039Y-95007592D01*
X152095500Y-95015967D01*
X152095500Y-97122451D01*
X152075498Y-97190572D01*
X152064565Y-97204890D01*
X152060039Y-97208838D01*
X151968950Y-97338444D01*
X151966385Y-97345022D01*
X151916726Y-97395444D01*
X151847469Y-97411064D01*
X151780762Y-97386760D01*
X151737783Y-97330251D01*
X151729500Y-97285320D01*
X151729500Y-94644730D01*
X151749502Y-94576609D01*
X151773669Y-94548919D01*
X151829536Y-94501204D01*
X151835314Y-94496269D01*
X151927755Y-94367624D01*
X151986842Y-94220641D01*
X152009162Y-94063807D01*
X152009307Y-94050000D01*
X151990276Y-93892733D01*
X151934280Y-93744546D01*
X151844553Y-93613992D01*
X151838642Y-93608725D01*
X151780803Y-93557193D01*
X151726275Y-93508611D01*
X151718889Y-93504700D01*
X151607501Y-93445723D01*
X151586274Y-93434484D01*
X151432633Y-93395892D01*
X151425034Y-93395852D01*
X151425033Y-93395852D01*
X151359181Y-93395507D01*
X151274221Y-93395062D01*
X151266841Y-93396834D01*
X151266839Y-93396834D01*
X151127563Y-93430271D01*
X151127560Y-93430272D01*
X151120184Y-93432043D01*
X150979414Y-93504700D01*
X150973697Y-93509687D01*
X150973690Y-93509692D01*
X150938330Y-93540539D01*
X150873848Y-93570247D01*
X150803541Y-93560377D01*
X150749731Y-93514064D01*
X150729501Y-93445590D01*
X150729501Y-88624028D01*
X150749503Y-88555907D01*
X150766406Y-88534933D01*
X152012231Y-87289108D01*
X152074543Y-87255082D01*
X152110515Y-87253676D01*
X152110522Y-87253207D01*
X152261319Y-87255576D01*
X152261322Y-87255576D01*
X152268916Y-87255695D01*
X152423332Y-87220329D01*
X152498927Y-87182309D01*
X152558072Y-87152563D01*
X152558075Y-87152561D01*
X152564855Y-87149151D01*
X152570626Y-87144222D01*
X152570629Y-87144220D01*
X152679536Y-87051204D01*
X152679536Y-87051203D01*
X152685314Y-87046269D01*
X152777755Y-86917624D01*
X152825440Y-86799004D01*
X152869407Y-86743260D01*
X152936531Y-86720135D01*
X153002468Y-86735270D01*
X153133998Y-86806685D01*
X153287227Y-86846884D01*
X153371182Y-86848203D01*
X153438024Y-86849253D01*
X153438027Y-86849253D01*
X153445621Y-86849372D01*
X153600037Y-86814006D01*
X153670447Y-86778594D01*
X153734777Y-86746240D01*
X153734780Y-86746238D01*
X153741560Y-86742828D01*
X153747331Y-86737899D01*
X153747334Y-86737897D01*
X153856241Y-86644881D01*
X153856241Y-86644880D01*
X153862019Y-86639946D01*
X153954460Y-86511301D01*
X154013547Y-86364318D01*
X154019670Y-86321292D01*
X154035286Y-86211568D01*
X154035286Y-86211565D01*
X154035867Y-86207484D01*
X154036012Y-86193677D01*
X154016981Y-86036410D01*
X153960985Y-85888223D01*
X153871258Y-85757669D01*
X153855287Y-85743439D01*
X153758651Y-85657341D01*
X153752980Y-85652288D01*
X153612979Y-85578161D01*
X153583226Y-85570688D01*
X153556464Y-85563965D01*
X153498065Y-85530856D01*
X152235796Y-84268587D01*
X152232143Y-84264779D01*
X152195612Y-84225052D01*
X152195611Y-84225051D01*
X152189802Y-84218734D01*
X152176518Y-84210497D01*
X152164738Y-84203193D01*
X153730800Y-84203193D01*
X153731225Y-84210497D01*
X153745180Y-84330196D01*
X153748525Y-84344349D01*
X153803521Y-84495860D01*
X153810031Y-84508859D01*
X153898408Y-84643656D01*
X153907732Y-84654808D01*
X154024747Y-84765658D01*
X154036392Y-84774370D01*
X154175766Y-84855324D01*
X154189104Y-84861124D01*
X154213462Y-84868501D01*
X154227564Y-84868621D01*
X154230800Y-84861691D01*
X154230800Y-84856084D01*
X154738800Y-84856084D01*
X154742773Y-84869615D01*
X154747856Y-84870346D01*
X154854188Y-84825101D01*
X154866812Y-84817901D01*
X154996633Y-84722363D01*
X155007264Y-84712449D01*
X155111628Y-84589605D01*
X155119690Y-84577517D01*
X155192995Y-84433959D01*
X155198062Y-84420334D01*
X155236777Y-84262114D01*
X155238460Y-84251055D01*
X155238680Y-84247509D01*
X155238800Y-84243631D01*
X155238800Y-83884945D01*
X155234325Y-83869706D01*
X155232935Y-83868501D01*
X155225252Y-83866830D01*
X154756915Y-83866830D01*
X154741676Y-83871305D01*
X154740471Y-83872695D01*
X154738800Y-83880378D01*
X154738800Y-84856084D01*
X154230800Y-84856084D01*
X154230800Y-83884945D01*
X154226325Y-83869706D01*
X154224935Y-83868501D01*
X154217252Y-83866830D01*
X153748915Y-83866830D01*
X153733676Y-83871305D01*
X153732471Y-83872695D01*
X153730800Y-83880378D01*
X153730800Y-84203193D01*
X152164738Y-84203193D01*
X152152522Y-84195619D01*
X152142740Y-84188896D01*
X152114633Y-84167562D01*
X152114634Y-84167562D01*
X152107793Y-84162370D01*
X152098081Y-84158525D01*
X152093632Y-84156763D01*
X152073626Y-84146700D01*
X152067991Y-84143206D01*
X152067982Y-84143202D01*
X152060684Y-84138677D01*
X152018549Y-84126435D01*
X152007326Y-84122593D01*
X151966538Y-84106444D01*
X151952336Y-84104951D01*
X151951395Y-84104852D01*
X151929422Y-84100541D01*
X151914793Y-84096291D01*
X151904021Y-84095500D01*
X151869023Y-84095500D01*
X151855852Y-84094810D01*
X151845635Y-84093736D01*
X151836463Y-84092772D01*
X151823991Y-84091461D01*
X151815447Y-84090563D01*
X151796682Y-84093737D01*
X151775680Y-84095500D01*
X148508127Y-84095500D01*
X148502851Y-84095390D01*
X148440379Y-84092772D01*
X148432014Y-84094734D01*
X148397675Y-84102788D01*
X148386002Y-84104951D01*
X148375103Y-84106444D01*
X148342535Y-84110905D01*
X148329820Y-84116407D01*
X148328559Y-84116953D01*
X148307290Y-84123987D01*
X148292470Y-84127463D01*
X148254016Y-84148603D01*
X148243370Y-84153818D01*
X148210990Y-84167830D01*
X148210986Y-84167832D01*
X148203107Y-84171242D01*
X148196434Y-84176646D01*
X148196432Y-84176647D01*
X148191278Y-84180821D01*
X148172690Y-84193312D01*
X148159338Y-84200652D01*
X148154334Y-84204972D01*
X148152913Y-84206198D01*
X148152906Y-84206204D01*
X148151162Y-84207710D01*
X148126419Y-84232453D01*
X148116618Y-84241279D01*
X148091715Y-84261444D01*
X148091712Y-84261447D01*
X148085040Y-84266850D01*
X148074015Y-84282364D01*
X148060408Y-84298464D01*
X146915407Y-85443465D01*
X146855726Y-85476889D01*
X146813975Y-85486912D01*
X146813971Y-85486913D01*
X146806596Y-85488684D01*
X146665826Y-85561341D01*
X146546451Y-85665479D01*
X146455362Y-85795085D01*
X146452602Y-85802165D01*
X146401435Y-85933402D01*
X146397818Y-85942678D01*
X146396826Y-85950211D01*
X146396826Y-85950212D01*
X146385264Y-86038039D01*
X146377141Y-86099737D01*
X146377975Y-86107287D01*
X146389488Y-86211568D01*
X146394525Y-86257194D01*
X146397135Y-86264325D01*
X146397135Y-86264327D01*
X146436308Y-86371372D01*
X146448965Y-86405960D01*
X146453201Y-86412263D01*
X146453201Y-86412264D01*
X146474239Y-86443571D01*
X146537320Y-86537446D01*
X146542939Y-86542559D01*
X146542940Y-86542560D01*
X146648872Y-86638950D01*
X146654488Y-86644060D01*
X146793705Y-86719649D01*
X146946934Y-86759848D01*
X147030889Y-86761167D01*
X147097731Y-86762217D01*
X147097734Y-86762217D01*
X147105328Y-86762336D01*
X147259744Y-86726970D01*
X147325391Y-86693953D01*
X147395237Y-86681215D01*
X147460881Y-86708259D01*
X147501482Y-86766500D01*
X147507245Y-86792691D01*
X147508113Y-86800553D01*
X147510723Y-86807684D01*
X147510723Y-86807686D01*
X147553214Y-86923798D01*
X147562553Y-86949319D01*
X147566789Y-86955622D01*
X147566789Y-86955623D01*
X147599821Y-87004779D01*
X147650908Y-87080805D01*
X147656527Y-87085918D01*
X147656528Y-87085919D01*
X147732338Y-87154900D01*
X147768076Y-87187419D01*
X147907293Y-87263008D01*
X148060522Y-87303207D01*
X148144477Y-87304526D01*
X148211319Y-87305576D01*
X148211322Y-87305576D01*
X148218916Y-87305695D01*
X148226319Y-87303999D01*
X148233878Y-87303205D01*
X148234190Y-87306170D01*
X148291319Y-87309607D01*
X148337719Y-87339058D01*
X149533594Y-88534933D01*
X149567620Y-88597245D01*
X149570499Y-88624028D01*
X149570499Y-91529615D01*
X149550497Y-91597736D01*
X149496841Y-91644229D01*
X149426567Y-91654333D01*
X149361987Y-91624839D01*
X149355404Y-91618710D01*
X149291478Y-91554784D01*
X149276336Y-91536036D01*
X149275221Y-91534811D01*
X149269571Y-91526060D01*
X149261393Y-91519613D01*
X149261391Y-91519611D01*
X149243200Y-91505271D01*
X149238759Y-91501325D01*
X149238697Y-91501398D01*
X149234733Y-91498039D01*
X149231056Y-91494362D01*
X149215308Y-91483108D01*
X149210638Y-91479602D01*
X149170353Y-91447844D01*
X149161719Y-91444812D01*
X149154266Y-91439486D01*
X149105150Y-91424797D01*
X149099508Y-91422964D01*
X149058633Y-91408610D01*
X149058632Y-91408610D01*
X149051149Y-91405982D01*
X149045584Y-91405500D01*
X149042876Y-91405500D01*
X149040242Y-91405386D01*
X149040144Y-91405357D01*
X149040151Y-91405193D01*
X149039447Y-91405149D01*
X149033222Y-91403287D01*
X148979365Y-91405403D01*
X148974418Y-91405500D01*
X147594739Y-91405500D01*
X147526618Y-91385498D01*
X147505644Y-91368595D01*
X147440723Y-91303674D01*
X147359458Y-91262267D01*
X147307843Y-91213518D01*
X147290777Y-91144603D01*
X147313678Y-91077402D01*
X147359458Y-91037733D01*
X147365313Y-91034750D01*
X147440723Y-90996326D01*
X147531326Y-90905723D01*
X147589498Y-90791555D01*
X147604500Y-90696834D01*
X147604500Y-90333166D01*
X147589498Y-90238445D01*
X147531326Y-90124277D01*
X147440723Y-90033674D01*
X147431889Y-90029173D01*
X147431888Y-90029172D01*
X147358906Y-89991985D01*
X147307292Y-89943237D01*
X147290226Y-89874322D01*
X147313127Y-89807121D01*
X147358908Y-89767452D01*
X147431590Y-89730419D01*
X147447436Y-89718906D01*
X147523906Y-89642436D01*
X147535417Y-89626593D01*
X147584516Y-89530231D01*
X147589479Y-89514955D01*
X147587962Y-89503212D01*
X147573988Y-89499000D01*
X145525552Y-89499000D01*
X145512316Y-89502887D01*
X145510625Y-89515273D01*
X145515486Y-89530234D01*
X145564583Y-89626593D01*
X145576094Y-89642436D01*
X145652564Y-89718906D01*
X145668410Y-89730419D01*
X145741092Y-89767452D01*
X145792708Y-89816200D01*
X145809774Y-89885115D01*
X145786874Y-89952316D01*
X145741094Y-89991985D01*
X145668112Y-90029172D01*
X145668111Y-90029173D01*
X145659277Y-90033674D01*
X145568674Y-90124277D01*
X145510502Y-90238445D01*
X145509569Y-90237970D01*
X145484616Y-90278690D01*
X145169784Y-90593522D01*
X145151036Y-90608664D01*
X145149811Y-90609779D01*
X145141060Y-90615429D01*
X145134613Y-90623607D01*
X145134611Y-90623609D01*
X145120271Y-90641800D01*
X145116325Y-90646241D01*
X145116398Y-90646303D01*
X145113039Y-90650267D01*
X145109362Y-90653944D01*
X145098108Y-90669692D01*
X145094602Y-90674362D01*
X145062844Y-90714647D01*
X145059812Y-90723281D01*
X145054486Y-90730734D01*
X145051501Y-90740715D01*
X145039799Y-90779844D01*
X145037964Y-90785492D01*
X145020982Y-90833851D01*
X145020500Y-90839416D01*
X145020500Y-90842124D01*
X145020386Y-90844758D01*
X145020357Y-90844856D01*
X145020193Y-90844849D01*
X145020149Y-90845553D01*
X145018287Y-90851778D01*
X145018696Y-90862183D01*
X145020403Y-90905635D01*
X145020500Y-90910582D01*
X145020500Y-94496080D01*
X145017951Y-94520028D01*
X145017872Y-94521693D01*
X145015680Y-94531876D01*
X145016904Y-94542217D01*
X145019627Y-94565223D01*
X145019977Y-94571154D01*
X145020072Y-94571146D01*
X145020500Y-94576324D01*
X145020500Y-94581524D01*
X145021354Y-94586653D01*
X145021354Y-94586656D01*
X145023669Y-94600565D01*
X145024506Y-94606443D01*
X145030530Y-94657341D01*
X145034493Y-94665593D01*
X145035996Y-94674626D01*
X145040943Y-94683795D01*
X145040944Y-94683797D01*
X145060334Y-94719732D01*
X145063031Y-94725025D01*
X145081785Y-94764082D01*
X145081788Y-94764086D01*
X145085219Y-94771232D01*
X145088814Y-94775508D01*
X145090737Y-94777431D01*
X145092509Y-94779363D01*
X145092552Y-94779442D01*
X145092428Y-94779555D01*
X145092904Y-94780095D01*
X145095990Y-94785814D01*
X145103635Y-94792881D01*
X145135586Y-94822416D01*
X145139152Y-94825846D01*
X145810249Y-95496943D01*
X145844275Y-95559255D01*
X145846076Y-95602482D01*
X145840729Y-95643096D01*
X145858113Y-95800553D01*
X145860723Y-95807684D01*
X145860723Y-95807686D01*
X145904021Y-95926003D01*
X145912553Y-95949319D01*
X145916789Y-95955622D01*
X145916789Y-95955623D01*
X145986719Y-96059689D01*
X146000908Y-96080805D01*
X146006527Y-96085918D01*
X146006528Y-96085919D01*
X146086666Y-96158838D01*
X146118076Y-96187419D01*
X146257293Y-96263008D01*
X146410522Y-96303207D01*
X146494477Y-96304526D01*
X146561319Y-96305576D01*
X146561322Y-96305576D01*
X146568916Y-96305695D01*
X146723332Y-96270329D01*
X146793742Y-96234917D01*
X146858072Y-96202563D01*
X146858075Y-96202561D01*
X146864855Y-96199151D01*
X146870626Y-96194222D01*
X146870629Y-96194220D01*
X146979536Y-96101204D01*
X146979536Y-96101203D01*
X146985314Y-96096269D01*
X147077755Y-95967624D01*
X147136842Y-95820641D01*
X147143209Y-95775900D01*
X147158581Y-95667891D01*
X147158581Y-95667888D01*
X147159162Y-95663807D01*
X147159307Y-95650000D01*
X147157561Y-95635567D01*
X147151814Y-95588082D01*
X147140276Y-95492733D01*
X147084280Y-95344546D01*
X146994553Y-95213992D01*
X146876275Y-95108611D01*
X146736274Y-95034484D01*
X146582633Y-94995892D01*
X146575034Y-94995852D01*
X146575033Y-94995852D01*
X146514626Y-94995536D01*
X146433335Y-94995110D01*
X146365321Y-94974752D01*
X146344901Y-94958207D01*
X145816405Y-94429711D01*
X145782379Y-94367399D01*
X145779500Y-94340616D01*
X145779500Y-93735500D01*
X145799502Y-93667379D01*
X145853158Y-93620886D01*
X145905500Y-93609500D01*
X147231834Y-93609500D01*
X147326555Y-93594498D01*
X147440723Y-93536326D01*
X147505644Y-93471405D01*
X147567956Y-93437379D01*
X147594739Y-93434500D01*
X148495616Y-93434500D01*
X148563737Y-93454502D01*
X148584711Y-93471405D01*
X148633594Y-93520288D01*
X148667620Y-93582600D01*
X148670499Y-93609383D01*
X148670499Y-97084981D01*
X148650497Y-97153102D01*
X148633594Y-97174076D01*
X148344595Y-97463075D01*
X148282283Y-97497101D01*
X148211468Y-97492036D01*
X148154632Y-97449489D01*
X148129821Y-97382969D01*
X148129500Y-97373980D01*
X148129500Y-97194730D01*
X148149502Y-97126609D01*
X148173669Y-97098919D01*
X148229536Y-97051204D01*
X148235314Y-97046269D01*
X148327755Y-96917624D01*
X148386842Y-96770641D01*
X148409162Y-96613807D01*
X148409307Y-96600000D01*
X148390276Y-96442733D01*
X148334280Y-96294546D01*
X148317636Y-96270329D01*
X148248855Y-96170251D01*
X148248854Y-96170249D01*
X148244553Y-96163992D01*
X148126275Y-96058611D01*
X148118889Y-96054700D01*
X147992988Y-95988039D01*
X147992989Y-95988039D01*
X147986274Y-95984484D01*
X147832633Y-95945892D01*
X147825034Y-95945852D01*
X147825033Y-95945852D01*
X147759181Y-95945507D01*
X147674221Y-95945062D01*
X147666841Y-95946834D01*
X147666839Y-95946834D01*
X147527563Y-95980271D01*
X147527560Y-95980272D01*
X147520184Y-95982043D01*
X147379414Y-96054700D01*
X147260039Y-96158838D01*
X147168950Y-96288444D01*
X147111406Y-96436037D01*
X147110414Y-96443570D01*
X147110414Y-96443571D01*
X147093298Y-96573583D01*
X147090729Y-96593096D01*
X147108113Y-96750553D01*
X147162553Y-96899319D01*
X147166789Y-96905622D01*
X147166789Y-96905623D01*
X147243418Y-97019658D01*
X147250908Y-97030805D01*
X147256527Y-97035918D01*
X147256528Y-97035919D01*
X147329299Y-97102135D01*
X147366222Y-97162775D01*
X147370500Y-97195329D01*
X147370500Y-97748584D01*
X147350498Y-97816705D01*
X147333595Y-97837679D01*
X144769784Y-100401490D01*
X144751036Y-100416632D01*
X144749811Y-100417747D01*
X144741060Y-100423397D01*
X144734613Y-100431575D01*
X144734611Y-100431577D01*
X144720271Y-100449768D01*
X144716325Y-100454209D01*
X144716398Y-100454271D01*
X144713039Y-100458235D01*
X144709362Y-100461912D01*
X144698108Y-100477660D01*
X144694602Y-100482330D01*
X144662844Y-100522615D01*
X144659812Y-100531249D01*
X144654486Y-100538702D01*
X144651501Y-100548683D01*
X144639799Y-100587812D01*
X144637964Y-100593460D01*
X144627519Y-100623204D01*
X144620982Y-100641819D01*
X144620500Y-100647384D01*
X144620500Y-100650092D01*
X144620386Y-100652726D01*
X144620357Y-100652824D01*
X144620193Y-100652817D01*
X144620149Y-100653521D01*
X144618287Y-100659746D01*
X144618696Y-100670151D01*
X144620403Y-100713603D01*
X144620500Y-100718550D01*
X144620500Y-102403697D01*
X144600498Y-102471818D01*
X144546842Y-102518311D01*
X144476568Y-102528415D01*
X144426279Y-102508614D01*
X144426275Y-102508611D01*
X144286274Y-102434484D01*
X144132633Y-102395892D01*
X144125034Y-102395852D01*
X144125033Y-102395852D01*
X144059181Y-102395507D01*
X143974221Y-102395062D01*
X143966841Y-102396834D01*
X143966839Y-102396834D01*
X143827563Y-102430271D01*
X143827560Y-102430272D01*
X143820184Y-102432043D01*
X143679414Y-102504700D01*
X143560039Y-102608838D01*
X143468950Y-102738444D01*
X143444475Y-102801219D01*
X143417782Y-102869684D01*
X143411406Y-102886037D01*
X143410414Y-102893570D01*
X143410414Y-102893571D01*
X143391808Y-103034901D01*
X143390729Y-103043096D01*
X143395603Y-103087243D01*
X143407250Y-103192733D01*
X143408113Y-103200553D01*
X143410723Y-103207684D01*
X143410723Y-103207686D01*
X143458030Y-103336958D01*
X143462553Y-103349319D01*
X143466789Y-103355622D01*
X143466789Y-103355623D01*
X143525940Y-103443648D01*
X143550908Y-103480805D01*
X143556527Y-103485918D01*
X143556528Y-103485919D01*
X143658971Y-103579134D01*
X143668076Y-103587419D01*
X143807293Y-103663008D01*
X143960522Y-103703207D01*
X144044477Y-103704526D01*
X144111319Y-103705576D01*
X144111322Y-103705576D01*
X144118916Y-103705695D01*
X144273332Y-103670329D01*
X144354510Y-103629501D01*
X144408072Y-103602563D01*
X144408075Y-103602561D01*
X144414855Y-103599151D01*
X144420626Y-103594222D01*
X144420629Y-103594220D01*
X144529536Y-103501204D01*
X144529536Y-103501203D01*
X144535314Y-103496269D01*
X144627755Y-103367624D01*
X144629139Y-103364180D01*
X144678310Y-103315292D01*
X144747727Y-103300400D01*
X144814176Y-103325402D01*
X144827472Y-103336958D01*
X145433595Y-103943081D01*
X145467621Y-104005393D01*
X145470500Y-104032176D01*
X145470500Y-108776296D01*
X145450498Y-108844417D01*
X145427330Y-108871243D01*
X145390220Y-108903617D01*
X145299131Y-109033223D01*
X145241587Y-109180816D01*
X145240595Y-109188349D01*
X145240595Y-109188350D01*
X145226901Y-109292372D01*
X145220910Y-109337875D01*
X145238294Y-109495332D01*
X145292734Y-109644098D01*
X145296970Y-109650401D01*
X145296970Y-109650402D01*
X145351831Y-109732043D01*
X145381089Y-109775584D01*
X145386708Y-109780697D01*
X145386709Y-109780698D01*
X145487480Y-109872392D01*
X145498257Y-109882198D01*
X145637474Y-109957787D01*
X145790703Y-109997986D01*
X145874658Y-109999305D01*
X145941500Y-110000355D01*
X145941503Y-110000355D01*
X145949097Y-110000474D01*
X146103513Y-109965108D01*
X146173923Y-109929696D01*
X146238253Y-109897342D01*
X146238256Y-109897340D01*
X146245036Y-109893930D01*
X146250807Y-109889001D01*
X146250810Y-109888999D01*
X146359717Y-109795983D01*
X146359717Y-109795982D01*
X146365495Y-109791048D01*
X146457936Y-109662403D01*
X146517023Y-109515420D01*
X146539343Y-109358586D01*
X146539488Y-109344779D01*
X146520457Y-109187512D01*
X146464461Y-109039325D01*
X146374734Y-108908771D01*
X146271681Y-108816955D01*
X146234126Y-108756705D01*
X146229500Y-108722878D01*
X146229500Y-104406780D01*
X146249502Y-104338659D01*
X146303158Y-104292166D01*
X146373432Y-104282062D01*
X146438012Y-104311556D01*
X146444595Y-104317685D01*
X147157126Y-105030216D01*
X147172268Y-105048964D01*
X147173383Y-105050189D01*
X147179033Y-105058940D01*
X147187211Y-105065387D01*
X147187213Y-105065389D01*
X147205404Y-105079729D01*
X147209845Y-105083675D01*
X147209907Y-105083602D01*
X147213871Y-105086961D01*
X147217548Y-105090638D01*
X147233296Y-105101892D01*
X147237966Y-105105398D01*
X147278251Y-105137156D01*
X147286885Y-105140188D01*
X147294338Y-105145514D01*
X147343454Y-105160203D01*
X147349096Y-105162036D01*
X147389803Y-105176331D01*
X147397455Y-105179018D01*
X147403020Y-105179500D01*
X147405728Y-105179500D01*
X147408362Y-105179614D01*
X147408460Y-105179643D01*
X147408453Y-105179807D01*
X147409157Y-105179851D01*
X147415382Y-105181713D01*
X147469239Y-105179597D01*
X147474186Y-105179500D01*
X149346556Y-105179500D01*
X149414677Y-105199502D01*
X149461170Y-105253158D01*
X149471274Y-105323432D01*
X149463949Y-105351269D01*
X149414167Y-105478954D01*
X149414166Y-105478958D01*
X149411406Y-105486037D01*
X149410414Y-105493570D01*
X149410414Y-105493571D01*
X149398767Y-105582043D01*
X149390729Y-105643096D01*
X149393544Y-105668591D01*
X149396963Y-105699566D01*
X149384557Y-105769470D01*
X149360819Y-105802487D01*
X149052912Y-106110394D01*
X148990600Y-106144420D01*
X148919785Y-106139355D01*
X148862949Y-106096808D01*
X148841454Y-106051355D01*
X148841189Y-106050274D01*
X148840276Y-106042733D01*
X148837592Y-106035630D01*
X148837591Y-106035626D01*
X148786964Y-105901649D01*
X148784280Y-105894546D01*
X148694553Y-105763992D01*
X148576275Y-105658611D01*
X148568889Y-105654700D01*
X148442988Y-105588039D01*
X148442989Y-105588039D01*
X148436274Y-105584484D01*
X148282633Y-105545892D01*
X148275034Y-105545852D01*
X148275033Y-105545852D01*
X148209181Y-105545507D01*
X148124221Y-105545062D01*
X148116841Y-105546834D01*
X148116839Y-105546834D01*
X147977563Y-105580271D01*
X147977560Y-105580272D01*
X147970184Y-105582043D01*
X147829414Y-105654700D01*
X147710039Y-105758838D01*
X147618950Y-105888444D01*
X147561406Y-106036037D01*
X147560414Y-106043570D01*
X147560414Y-106043571D01*
X147552827Y-106101204D01*
X147540729Y-106193096D01*
X147545637Y-106237552D01*
X147557005Y-106340516D01*
X147558113Y-106350553D01*
X147612553Y-106499319D01*
X147700908Y-106630805D01*
X147706527Y-106635918D01*
X147706528Y-106635919D01*
X147779299Y-106702135D01*
X147816222Y-106762775D01*
X147820500Y-106795329D01*
X147820500Y-120987676D01*
X147817951Y-121011624D01*
X147817872Y-121013289D01*
X147815680Y-121023472D01*
X147816904Y-121033813D01*
X147819627Y-121056819D01*
X147819977Y-121062750D01*
X147820072Y-121062742D01*
X147820500Y-121067920D01*
X147820500Y-121073120D01*
X147821354Y-121078249D01*
X147821354Y-121078252D01*
X147823669Y-121092161D01*
X147824506Y-121098039D01*
X147830530Y-121148937D01*
X147834493Y-121157189D01*
X147835996Y-121166222D01*
X147859926Y-121210571D01*
X147860334Y-121211328D01*
X147863031Y-121216621D01*
X147881785Y-121255678D01*
X147881788Y-121255682D01*
X147885219Y-121262828D01*
X147888814Y-121267104D01*
X147890737Y-121269027D01*
X147892509Y-121270959D01*
X147892552Y-121271038D01*
X147892428Y-121271151D01*
X147892904Y-121271691D01*
X147895990Y-121277410D01*
X147903635Y-121284477D01*
X147935586Y-121314012D01*
X147939152Y-121317442D01*
X148478395Y-121856685D01*
X148512421Y-121918997D01*
X148515300Y-121945780D01*
X148515300Y-125950598D01*
X148495298Y-126018719D01*
X148441642Y-126065212D01*
X148420418Y-126071881D01*
X148420542Y-126072309D01*
X148275421Y-126114470D01*
X148275419Y-126114471D01*
X148267808Y-126116682D01*
X148260981Y-126120719D01*
X148260982Y-126120719D01*
X148137736Y-126193606D01*
X148137733Y-126193608D01*
X148130909Y-126197644D01*
X148018444Y-126310109D01*
X148014408Y-126316933D01*
X148014406Y-126316936D01*
X147970261Y-126391582D01*
X147937482Y-126447008D01*
X147893109Y-126599742D01*
X147892605Y-126606147D01*
X147892604Y-126606152D01*
X147890493Y-126632977D01*
X147890300Y-126635433D01*
X147890300Y-126637902D01*
X147890301Y-128144900D01*
X147870299Y-128213021D01*
X147816643Y-128259514D01*
X147764301Y-128270900D01*
X147484800Y-128270900D01*
X147416679Y-128250898D01*
X147370186Y-128197242D01*
X147358800Y-128144900D01*
X147358800Y-128096115D01*
X147354325Y-128080876D01*
X147352935Y-128079671D01*
X147345252Y-128078000D01*
X147178126Y-128078000D01*
X147152481Y-128085530D01*
X147004016Y-128233995D01*
X146941704Y-128268021D01*
X146914921Y-128270900D01*
X146542805Y-128270900D01*
X146474684Y-128250898D01*
X146428191Y-128197242D01*
X146418087Y-128126968D01*
X146432218Y-128084514D01*
X146434288Y-128080723D01*
X146426986Y-128078000D01*
X146286125Y-128078000D01*
X146275100Y-128081237D01*
X146280269Y-128092556D01*
X146290374Y-128162829D01*
X146260882Y-128227411D01*
X146201156Y-128265795D01*
X146165656Y-128270900D01*
X145794679Y-128270900D01*
X145726558Y-128250898D01*
X145705584Y-128233995D01*
X145562401Y-128090812D01*
X145538939Y-128078000D01*
X145368916Y-128078000D01*
X145353677Y-128082475D01*
X145352472Y-128083865D01*
X145350801Y-128091548D01*
X145350801Y-128144900D01*
X145330799Y-128213021D01*
X145277143Y-128259514D01*
X145224801Y-128270900D01*
X141845184Y-128270900D01*
X141777063Y-128250898D01*
X141730570Y-128197242D01*
X141720466Y-128126968D01*
X141749960Y-128062388D01*
X141810031Y-128023903D01*
X141944179Y-127984930D01*
X141944181Y-127984929D01*
X141951792Y-127982718D01*
X141979802Y-127966153D01*
X142081864Y-127905794D01*
X142081867Y-127905792D01*
X142088691Y-127901756D01*
X142201156Y-127789291D01*
X142205192Y-127782467D01*
X142205194Y-127782464D01*
X142278081Y-127659218D01*
X142282118Y-127652392D01*
X142326491Y-127499658D01*
X142326995Y-127493253D01*
X142326996Y-127493248D01*
X142329107Y-127466423D01*
X142329107Y-127466416D01*
X142329300Y-127463967D01*
X142329299Y-126637954D01*
X145350800Y-126637954D01*
X145350801Y-127551885D01*
X145355276Y-127567124D01*
X145356666Y-127568329D01*
X145364349Y-127570000D01*
X146082685Y-127570000D01*
X146097924Y-127565525D01*
X146099129Y-127564135D01*
X146100800Y-127556452D01*
X146100800Y-127551885D01*
X146608800Y-127551885D01*
X146613275Y-127567124D01*
X146614665Y-127568329D01*
X146622348Y-127570000D01*
X147340685Y-127570000D01*
X147355924Y-127565525D01*
X147357129Y-127564135D01*
X147358800Y-127556452D01*
X147358799Y-126637958D01*
X147358605Y-126633024D01*
X147356498Y-126606242D01*
X147354196Y-126593634D01*
X147313867Y-126454821D01*
X147307621Y-126440387D01*
X147234795Y-126317245D01*
X147225146Y-126304807D01*
X147123993Y-126203654D01*
X147111555Y-126194005D01*
X146988413Y-126121179D01*
X146973979Y-126114933D01*
X146835159Y-126074602D01*
X146822566Y-126072302D01*
X146795771Y-126070193D01*
X146790845Y-126070000D01*
X146626915Y-126070000D01*
X146611676Y-126074475D01*
X146610471Y-126075865D01*
X146608800Y-126083548D01*
X146608800Y-127551885D01*
X146100800Y-127551885D01*
X146100800Y-126088116D01*
X146096325Y-126072877D01*
X146094935Y-126071672D01*
X146087252Y-126070001D01*
X145918758Y-126070001D01*
X145913824Y-126070195D01*
X145887042Y-126072302D01*
X145874434Y-126074604D01*
X145735621Y-126114933D01*
X145721187Y-126121179D01*
X145598045Y-126194005D01*
X145585607Y-126203654D01*
X145484454Y-126304807D01*
X145474805Y-126317245D01*
X145401979Y-126440387D01*
X145395733Y-126454821D01*
X145355402Y-126593641D01*
X145353102Y-126606234D01*
X145350993Y-126633029D01*
X145350800Y-126637954D01*
X142329299Y-126637954D01*
X142329299Y-126586834D01*
X142326491Y-126551142D01*
X142298508Y-126454821D01*
X142284330Y-126406021D01*
X142284329Y-126406019D01*
X142282118Y-126398408D01*
X142265553Y-126370398D01*
X142205194Y-126268336D01*
X142205192Y-126268333D01*
X142201156Y-126261509D01*
X142088691Y-126149044D01*
X142081867Y-126145008D01*
X142081864Y-126145006D01*
X141961976Y-126074105D01*
X141951792Y-126068082D01*
X141944181Y-126065871D01*
X141944179Y-126065870D01*
X141894939Y-126051565D01*
X141799058Y-126023709D01*
X141792653Y-126023205D01*
X141792648Y-126023204D01*
X141765823Y-126021093D01*
X141765816Y-126021093D01*
X141763367Y-126020900D01*
X141731040Y-126020900D01*
X140207300Y-126020901D01*
X140139179Y-126000899D01*
X140092686Y-125947243D01*
X140081300Y-125894901D01*
X140081300Y-125615400D01*
X140101302Y-125547279D01*
X140154958Y-125500786D01*
X140207300Y-125489400D01*
X140302685Y-125489400D01*
X140317924Y-125484925D01*
X140319129Y-125483535D01*
X140320800Y-125475852D01*
X140320800Y-125471284D01*
X140828800Y-125471284D01*
X140833275Y-125486523D01*
X140834665Y-125487728D01*
X140842348Y-125489399D01*
X141760842Y-125489399D01*
X141765776Y-125489205D01*
X141792558Y-125487098D01*
X141805166Y-125484796D01*
X141943979Y-125444467D01*
X141958413Y-125438221D01*
X142081555Y-125365395D01*
X142093993Y-125355746D01*
X142195146Y-125254593D01*
X142204795Y-125242155D01*
X142277621Y-125119013D01*
X142283867Y-125104579D01*
X142324198Y-124965759D01*
X142326498Y-124953166D01*
X142328607Y-124926371D01*
X142328800Y-124921446D01*
X142328800Y-124757515D01*
X142324325Y-124742276D01*
X142322935Y-124741071D01*
X142315252Y-124739400D01*
X140846915Y-124739400D01*
X140831676Y-124743875D01*
X140830471Y-124745265D01*
X140828800Y-124752948D01*
X140828800Y-125471284D01*
X140320800Y-125471284D01*
X140320800Y-125358726D01*
X140313270Y-125333081D01*
X140118205Y-125138016D01*
X140084179Y-125075704D01*
X140081300Y-125048921D01*
X140081300Y-124686880D01*
X140101302Y-124618759D01*
X140154958Y-124572266D01*
X140225232Y-124562162D01*
X140289812Y-124591656D01*
X140296395Y-124597785D01*
X140307990Y-124609380D01*
X140318076Y-124614887D01*
X140320800Y-124607583D01*
X140320800Y-124366726D01*
X140317563Y-124355701D01*
X140310470Y-124358940D01*
X140296395Y-124373015D01*
X140234083Y-124407041D01*
X140163268Y-124401976D01*
X140106432Y-124359429D01*
X140081621Y-124292909D01*
X140081300Y-124283920D01*
X140081300Y-124213285D01*
X140828800Y-124213285D01*
X140833275Y-124228524D01*
X140834665Y-124229729D01*
X140842348Y-124231400D01*
X142310684Y-124231400D01*
X142325923Y-124226925D01*
X142327128Y-124225535D01*
X142328799Y-124217852D01*
X142328799Y-124049358D01*
X142328605Y-124044424D01*
X142326498Y-124017642D01*
X142324196Y-124005034D01*
X142283867Y-123866221D01*
X142277621Y-123851787D01*
X142204795Y-123728645D01*
X142195146Y-123716207D01*
X142093993Y-123615054D01*
X142081555Y-123605405D01*
X141958413Y-123532579D01*
X141943979Y-123526333D01*
X141805159Y-123486002D01*
X141792566Y-123483702D01*
X141765771Y-123481593D01*
X141760845Y-123481400D01*
X140846915Y-123481400D01*
X140831676Y-123485875D01*
X140830471Y-123487265D01*
X140828800Y-123494948D01*
X140828800Y-124213285D01*
X140081300Y-124213285D01*
X140081300Y-123921879D01*
X140101302Y-123853758D01*
X140118205Y-123832784D01*
X140307988Y-123643001D01*
X140320800Y-123619539D01*
X140320800Y-123499516D01*
X140316325Y-123484277D01*
X140314935Y-123483072D01*
X140307252Y-123481401D01*
X140207300Y-123481401D01*
X140139179Y-123461399D01*
X140092686Y-123407743D01*
X140081300Y-123355401D01*
X140081300Y-123075900D01*
X140101302Y-123007779D01*
X140154958Y-122961286D01*
X140207300Y-122949900D01*
X141730988Y-122949899D01*
X141763366Y-122949899D01*
X141785935Y-122948123D01*
X141792640Y-122947596D01*
X141792641Y-122947596D01*
X141799058Y-122947091D01*
X141805238Y-122945296D01*
X141805241Y-122945295D01*
X141944179Y-122904930D01*
X141944181Y-122904929D01*
X141951792Y-122902718D01*
X141986439Y-122882228D01*
X142081864Y-122825794D01*
X142081867Y-122825792D01*
X142088691Y-122821756D01*
X142201156Y-122709291D01*
X142205192Y-122702467D01*
X142205194Y-122702464D01*
X142278081Y-122579218D01*
X142282118Y-122572392D01*
X142284977Y-122562553D01*
X142321225Y-122437784D01*
X142326491Y-122419658D01*
X142326995Y-122413253D01*
X142326996Y-122413248D01*
X142329107Y-122386423D01*
X142329107Y-122386416D01*
X142329300Y-122383967D01*
X142329299Y-121506834D01*
X142326491Y-121471142D01*
X142321094Y-121452563D01*
X142284330Y-121326021D01*
X142284329Y-121326019D01*
X142282118Y-121318408D01*
X142254095Y-121271023D01*
X142205194Y-121188336D01*
X142205192Y-121188333D01*
X142201156Y-121181509D01*
X142088691Y-121069044D01*
X142081867Y-121065008D01*
X142081864Y-121065006D01*
X141958618Y-120992119D01*
X141958619Y-120992119D01*
X141951792Y-120988082D01*
X141944181Y-120985871D01*
X141944179Y-120985870D01*
X141846107Y-120957378D01*
X141799058Y-120943709D01*
X141792653Y-120943205D01*
X141792648Y-120943204D01*
X141765823Y-120941093D01*
X141765816Y-120941093D01*
X141763367Y-120940900D01*
X141731040Y-120940900D01*
X140207300Y-120940901D01*
X140139179Y-120920899D01*
X140092686Y-120867243D01*
X140081300Y-120814901D01*
X140081300Y-120535900D01*
X140101302Y-120467779D01*
X140154958Y-120421286D01*
X140207300Y-120409900D01*
X141730988Y-120409899D01*
X141763366Y-120409899D01*
X141785935Y-120408123D01*
X141792640Y-120407596D01*
X141792641Y-120407596D01*
X141799058Y-120407091D01*
X141805238Y-120405296D01*
X141805241Y-120405295D01*
X141944179Y-120364930D01*
X141944181Y-120364929D01*
X141951792Y-120362718D01*
X141979802Y-120346153D01*
X142081864Y-120285794D01*
X142081867Y-120285792D01*
X142088691Y-120281756D01*
X142201156Y-120169291D01*
X142205192Y-120162467D01*
X142205194Y-120162464D01*
X142278081Y-120039218D01*
X142282118Y-120032392D01*
X142326491Y-119879658D01*
X142326995Y-119873253D01*
X142326996Y-119873248D01*
X142329107Y-119846423D01*
X142329107Y-119846416D01*
X142329300Y-119843967D01*
X142329299Y-118966834D01*
X142326491Y-118931142D01*
X142282118Y-118778408D01*
X142265553Y-118750398D01*
X142205194Y-118648336D01*
X142205192Y-118648333D01*
X142201156Y-118641509D01*
X142088691Y-118529044D01*
X142081867Y-118525008D01*
X142081864Y-118525006D01*
X141958618Y-118452119D01*
X141958619Y-118452119D01*
X141951792Y-118448082D01*
X141944181Y-118445871D01*
X141944179Y-118445870D01*
X141894939Y-118431565D01*
X141799058Y-118403709D01*
X141792653Y-118403205D01*
X141792648Y-118403204D01*
X141765823Y-118401093D01*
X141765816Y-118401093D01*
X141763367Y-118400900D01*
X141731040Y-118400900D01*
X140207300Y-118400901D01*
X140139179Y-118380899D01*
X140092686Y-118327243D01*
X140081300Y-118274901D01*
X140081300Y-117995900D01*
X140101302Y-117927779D01*
X140154958Y-117881286D01*
X140207300Y-117869900D01*
X141730988Y-117869899D01*
X141763366Y-117869899D01*
X141785935Y-117868123D01*
X141792640Y-117867596D01*
X141792641Y-117867596D01*
X141799058Y-117867091D01*
X141805238Y-117865296D01*
X141805241Y-117865295D01*
X141944179Y-117824930D01*
X141944181Y-117824929D01*
X141951792Y-117822718D01*
X142025497Y-117779129D01*
X142081864Y-117745794D01*
X142081867Y-117745792D01*
X142088691Y-117741756D01*
X142201156Y-117629291D01*
X142205192Y-117622467D01*
X142205194Y-117622464D01*
X142272922Y-117507941D01*
X142282118Y-117492392D01*
X142294096Y-117451165D01*
X142320555Y-117360089D01*
X142326491Y-117339658D01*
X142326995Y-117333253D01*
X142326996Y-117333248D01*
X142329107Y-117306423D01*
X142329107Y-117306416D01*
X142329300Y-117303967D01*
X142329299Y-116426834D01*
X142326491Y-116391142D01*
X142312619Y-116343392D01*
X142284330Y-116246021D01*
X142284329Y-116246019D01*
X142282118Y-116238408D01*
X142236657Y-116161537D01*
X142205194Y-116108336D01*
X142205192Y-116108333D01*
X142201156Y-116101509D01*
X142088691Y-115989044D01*
X142081867Y-115985008D01*
X142081864Y-115985006D01*
X141958618Y-115912119D01*
X141958619Y-115912119D01*
X141951792Y-115908082D01*
X141944181Y-115905871D01*
X141944179Y-115905870D01*
X141887804Y-115889492D01*
X141799058Y-115863709D01*
X141792653Y-115863205D01*
X141792648Y-115863204D01*
X141765823Y-115861093D01*
X141765816Y-115861093D01*
X141763367Y-115860900D01*
X141731040Y-115860900D01*
X140207300Y-115860901D01*
X140139179Y-115840899D01*
X140092686Y-115787243D01*
X140081300Y-115734901D01*
X140081300Y-115455900D01*
X140101302Y-115387779D01*
X140154958Y-115341286D01*
X140207300Y-115329900D01*
X141730988Y-115329899D01*
X141763366Y-115329899D01*
X141785935Y-115328123D01*
X141792640Y-115327596D01*
X141792641Y-115327596D01*
X141799058Y-115327091D01*
X141805238Y-115325296D01*
X141805241Y-115325295D01*
X141944179Y-115284930D01*
X141944181Y-115284929D01*
X141951792Y-115282718D01*
X142025497Y-115239129D01*
X142081864Y-115205794D01*
X142081867Y-115205792D01*
X142088691Y-115201756D01*
X142201156Y-115089291D01*
X142205192Y-115082467D01*
X142205194Y-115082464D01*
X142278081Y-114959218D01*
X142282118Y-114952392D01*
X142326491Y-114799658D01*
X142326995Y-114793253D01*
X142326996Y-114793248D01*
X142329107Y-114766423D01*
X142329107Y-114766416D01*
X142329300Y-114763967D01*
X142329299Y-113886834D01*
X142326491Y-113851142D01*
X142282118Y-113698408D01*
X142215647Y-113586012D01*
X142205194Y-113568336D01*
X142205192Y-113568333D01*
X142201156Y-113561509D01*
X142088691Y-113449044D01*
X142081867Y-113445008D01*
X142081864Y-113445006D01*
X141958618Y-113372119D01*
X141958619Y-113372119D01*
X141951792Y-113368082D01*
X141944181Y-113365871D01*
X141944179Y-113365870D01*
X141894939Y-113351565D01*
X141799058Y-113323709D01*
X141792653Y-113323205D01*
X141792648Y-113323204D01*
X141765823Y-113321093D01*
X141765816Y-113321093D01*
X141763367Y-113320900D01*
X141731040Y-113320900D01*
X140207300Y-113320901D01*
X140139179Y-113300899D01*
X140092686Y-113247243D01*
X140081300Y-113194901D01*
X140081300Y-112915900D01*
X140101302Y-112847779D01*
X140154958Y-112801286D01*
X140207300Y-112789900D01*
X141730988Y-112789899D01*
X141763366Y-112789899D01*
X141785935Y-112788123D01*
X141792640Y-112787596D01*
X141792641Y-112787596D01*
X141799058Y-112787091D01*
X141805238Y-112785296D01*
X141805241Y-112785295D01*
X141944179Y-112744930D01*
X141944181Y-112744929D01*
X141951792Y-112742718D01*
X141979802Y-112726153D01*
X142081864Y-112665794D01*
X142081867Y-112665792D01*
X142088691Y-112661756D01*
X142201156Y-112549291D01*
X142205192Y-112542467D01*
X142205194Y-112542464D01*
X142278081Y-112419218D01*
X142282118Y-112412392D01*
X142326491Y-112259658D01*
X142326995Y-112253253D01*
X142326996Y-112253248D01*
X142329107Y-112226423D01*
X142329107Y-112226416D01*
X142329300Y-112223967D01*
X142329300Y-111893096D01*
X146040729Y-111893096D01*
X146058113Y-112050553D01*
X146112553Y-112199319D01*
X146200908Y-112330805D01*
X146206527Y-112335918D01*
X146206528Y-112335919D01*
X146298073Y-112419218D01*
X146318076Y-112437419D01*
X146457293Y-112513008D01*
X146610522Y-112553207D01*
X146694477Y-112554526D01*
X146761319Y-112555576D01*
X146761322Y-112555576D01*
X146768916Y-112555695D01*
X146923332Y-112520329D01*
X146993742Y-112484917D01*
X147058072Y-112452563D01*
X147058075Y-112452561D01*
X147064855Y-112449151D01*
X147070626Y-112444222D01*
X147070629Y-112444220D01*
X147179536Y-112351204D01*
X147179536Y-112351203D01*
X147185314Y-112346269D01*
X147277755Y-112217624D01*
X147336842Y-112070641D01*
X147359162Y-111913807D01*
X147359307Y-111900000D01*
X147340276Y-111742733D01*
X147284280Y-111594546D01*
X147194553Y-111463992D01*
X147076275Y-111358611D01*
X147068889Y-111354700D01*
X146942988Y-111288039D01*
X146942989Y-111288039D01*
X146936274Y-111284484D01*
X146782633Y-111245892D01*
X146775034Y-111245852D01*
X146775033Y-111245852D01*
X146709181Y-111245507D01*
X146624221Y-111245062D01*
X146616841Y-111246834D01*
X146616839Y-111246834D01*
X146477563Y-111280271D01*
X146477560Y-111280272D01*
X146470184Y-111282043D01*
X146329414Y-111354700D01*
X146210039Y-111458838D01*
X146118950Y-111588444D01*
X146061406Y-111736037D01*
X146060414Y-111743570D01*
X146060414Y-111743571D01*
X146056763Y-111771307D01*
X146040729Y-111893096D01*
X142329300Y-111893096D01*
X142329299Y-111346834D01*
X142326491Y-111311142D01*
X142319049Y-111285524D01*
X142284330Y-111166021D01*
X142284329Y-111166019D01*
X142282118Y-111158408D01*
X142215647Y-111046012D01*
X142205194Y-111028336D01*
X142205192Y-111028333D01*
X142201156Y-111021509D01*
X142088691Y-110909044D01*
X142081867Y-110905008D01*
X142081864Y-110905006D01*
X141958618Y-110832119D01*
X141958619Y-110832119D01*
X141951792Y-110828082D01*
X141944181Y-110825871D01*
X141944179Y-110825870D01*
X141894939Y-110811565D01*
X141799058Y-110783709D01*
X141792653Y-110783205D01*
X141792648Y-110783204D01*
X141765823Y-110781093D01*
X141765816Y-110781093D01*
X141763367Y-110780900D01*
X141731040Y-110780900D01*
X140207300Y-110780901D01*
X140139179Y-110760899D01*
X140092686Y-110707243D01*
X140081300Y-110654901D01*
X140081300Y-110375900D01*
X140101302Y-110307779D01*
X140154958Y-110261286D01*
X140207300Y-110249900D01*
X141730988Y-110249899D01*
X141763366Y-110249899D01*
X141785935Y-110248123D01*
X141792640Y-110247596D01*
X141792641Y-110247596D01*
X141799058Y-110247091D01*
X141805238Y-110245296D01*
X141805241Y-110245295D01*
X141944179Y-110204930D01*
X141944181Y-110204929D01*
X141951792Y-110202718D01*
X141991970Y-110178957D01*
X142081864Y-110125794D01*
X142081867Y-110125792D01*
X142088691Y-110121756D01*
X142201156Y-110009291D01*
X142205192Y-110002467D01*
X142205194Y-110002464D01*
X142278081Y-109879218D01*
X142282118Y-109872392D01*
X142286534Y-109857194D01*
X142301784Y-109804700D01*
X142326491Y-109719658D01*
X142326995Y-109713253D01*
X142326996Y-109713248D01*
X142329107Y-109686423D01*
X142329107Y-109686416D01*
X142329300Y-109683967D01*
X142329299Y-108806834D01*
X142326491Y-108771142D01*
X142323863Y-108762094D01*
X142284330Y-108626021D01*
X142284329Y-108626019D01*
X142282118Y-108618408D01*
X142264839Y-108589191D01*
X142205194Y-108488336D01*
X142205192Y-108488333D01*
X142201156Y-108481509D01*
X142088691Y-108369044D01*
X142081867Y-108365008D01*
X142081864Y-108365006D01*
X141958618Y-108292119D01*
X141958619Y-108292119D01*
X141951792Y-108288082D01*
X141944181Y-108285871D01*
X141944179Y-108285870D01*
X141894939Y-108271565D01*
X141799058Y-108243709D01*
X141792653Y-108243205D01*
X141792648Y-108243204D01*
X141765823Y-108241093D01*
X141765816Y-108241093D01*
X141763367Y-108240900D01*
X141731040Y-108240900D01*
X140207300Y-108240901D01*
X140139179Y-108220899D01*
X140092686Y-108167243D01*
X140081300Y-108114901D01*
X140081300Y-107835900D01*
X140101302Y-107767779D01*
X140154958Y-107721286D01*
X140207300Y-107709900D01*
X141730988Y-107709899D01*
X141763366Y-107709899D01*
X141785935Y-107708123D01*
X141792640Y-107707596D01*
X141792641Y-107707596D01*
X141799058Y-107707091D01*
X141805238Y-107705296D01*
X141805241Y-107705295D01*
X141944179Y-107664930D01*
X141944181Y-107664929D01*
X141951792Y-107662718D01*
X141979802Y-107646153D01*
X142081864Y-107585794D01*
X142081867Y-107585792D01*
X142088691Y-107581756D01*
X142201156Y-107469291D01*
X142205192Y-107462467D01*
X142205194Y-107462464D01*
X142278081Y-107339218D01*
X142282118Y-107332392D01*
X142326491Y-107179658D01*
X142326995Y-107173253D01*
X142326996Y-107173248D01*
X142329107Y-107146423D01*
X142329107Y-107146416D01*
X142329300Y-107143967D01*
X142329299Y-106266834D01*
X142326491Y-106231142D01*
X142317444Y-106200000D01*
X142284330Y-106086021D01*
X142284329Y-106086019D01*
X142282118Y-106078408D01*
X142220252Y-105973798D01*
X142205194Y-105948336D01*
X142205192Y-105948333D01*
X142201156Y-105941509D01*
X142088691Y-105829044D01*
X142081867Y-105825008D01*
X142081864Y-105825006D01*
X141971442Y-105759703D01*
X141951792Y-105748082D01*
X141944181Y-105745871D01*
X141944179Y-105745870D01*
X141894939Y-105731565D01*
X141799058Y-105703709D01*
X141792653Y-105703205D01*
X141792648Y-105703204D01*
X141765823Y-105701093D01*
X141765816Y-105701093D01*
X141763367Y-105700900D01*
X141731040Y-105700900D01*
X140207300Y-105700901D01*
X140139179Y-105680899D01*
X140092686Y-105627243D01*
X140081300Y-105574901D01*
X140081300Y-105295900D01*
X140101302Y-105227779D01*
X140154958Y-105181286D01*
X140207300Y-105169900D01*
X141730988Y-105169899D01*
X141763366Y-105169899D01*
X141789144Y-105167871D01*
X141792640Y-105167596D01*
X141792641Y-105167596D01*
X141799058Y-105167091D01*
X141805238Y-105165296D01*
X141805241Y-105165295D01*
X141944179Y-105124930D01*
X141944181Y-105124929D01*
X141951792Y-105122718D01*
X141989646Y-105100331D01*
X142081864Y-105045794D01*
X142081867Y-105045792D01*
X142088691Y-105041756D01*
X142201156Y-104929291D01*
X142205192Y-104922467D01*
X142205194Y-104922464D01*
X142265553Y-104820402D01*
X142282118Y-104792392D01*
X142326491Y-104639658D01*
X142326995Y-104633253D01*
X142326996Y-104633248D01*
X142329107Y-104606423D01*
X142329107Y-104606416D01*
X142329300Y-104603967D01*
X142329299Y-103726834D01*
X142327523Y-103704265D01*
X142326996Y-103697560D01*
X142326996Y-103697559D01*
X142326491Y-103691142D01*
X142320445Y-103670329D01*
X142284330Y-103546021D01*
X142284329Y-103546019D01*
X142282118Y-103538408D01*
X142215210Y-103425273D01*
X142205194Y-103408336D01*
X142205192Y-103408333D01*
X142201156Y-103401509D01*
X142088691Y-103289044D01*
X142081867Y-103285008D01*
X142081864Y-103285006D01*
X141958618Y-103212119D01*
X141958619Y-103212119D01*
X141951792Y-103208082D01*
X141944181Y-103205871D01*
X141944179Y-103205870D01*
X141875912Y-103186037D01*
X141799058Y-103163709D01*
X141792653Y-103163205D01*
X141792648Y-103163204D01*
X141765823Y-103161093D01*
X141765816Y-103161093D01*
X141763367Y-103160900D01*
X141731040Y-103160900D01*
X140207300Y-103160901D01*
X140139179Y-103140899D01*
X140092686Y-103087243D01*
X140081300Y-103034901D01*
X140081300Y-102755900D01*
X140101302Y-102687779D01*
X140154958Y-102641286D01*
X140207300Y-102629900D01*
X141730988Y-102629899D01*
X141763366Y-102629899D01*
X141785935Y-102628123D01*
X141792640Y-102627596D01*
X141792641Y-102627596D01*
X141799058Y-102627091D01*
X141805238Y-102625296D01*
X141805241Y-102625295D01*
X141944179Y-102584930D01*
X141944181Y-102584929D01*
X141951792Y-102582718D01*
X142025497Y-102539129D01*
X142081864Y-102505794D01*
X142081867Y-102505792D01*
X142088691Y-102501756D01*
X142201156Y-102389291D01*
X142205192Y-102382467D01*
X142205194Y-102382464D01*
X142278081Y-102259218D01*
X142278083Y-102259214D01*
X142282118Y-102252392D01*
X142291377Y-102220524D01*
X142298635Y-102195539D01*
X142326491Y-102099658D01*
X142326995Y-102093253D01*
X142326996Y-102093248D01*
X142329107Y-102066423D01*
X142329107Y-102066416D01*
X142329300Y-102063967D01*
X142329299Y-101186834D01*
X142326491Y-101151142D01*
X142282118Y-100998408D01*
X142265553Y-100970398D01*
X142205194Y-100868336D01*
X142205192Y-100868333D01*
X142201156Y-100861509D01*
X142088691Y-100749044D01*
X142081867Y-100745008D01*
X142081864Y-100745006D01*
X141958618Y-100672119D01*
X141958619Y-100672119D01*
X141951792Y-100668082D01*
X141944181Y-100665871D01*
X141944179Y-100665870D01*
X141861393Y-100641819D01*
X141799058Y-100623709D01*
X141792653Y-100623205D01*
X141792648Y-100623204D01*
X141765823Y-100621093D01*
X141765816Y-100621093D01*
X141763367Y-100620900D01*
X141731040Y-100620900D01*
X140207300Y-100620901D01*
X140139179Y-100600899D01*
X140092686Y-100547243D01*
X140081300Y-100494901D01*
X140081300Y-100215900D01*
X140101302Y-100147779D01*
X140154958Y-100101286D01*
X140207300Y-100089900D01*
X141730988Y-100089899D01*
X141763366Y-100089899D01*
X141785935Y-100088123D01*
X141792640Y-100087596D01*
X141792641Y-100087596D01*
X141799058Y-100087091D01*
X141805238Y-100085296D01*
X141805241Y-100085295D01*
X141944179Y-100044930D01*
X141944181Y-100044929D01*
X141951792Y-100042718D01*
X141979802Y-100026153D01*
X142081864Y-99965794D01*
X142081867Y-99965792D01*
X142088691Y-99961756D01*
X142201156Y-99849291D01*
X142205192Y-99842467D01*
X142205194Y-99842464D01*
X142278081Y-99719218D01*
X142282118Y-99712392D01*
X142326491Y-99559658D01*
X142326995Y-99553253D01*
X142326996Y-99553248D01*
X142329107Y-99526423D01*
X142329107Y-99526416D01*
X142329300Y-99523967D01*
X142329299Y-98646834D01*
X142326491Y-98611142D01*
X142282118Y-98458408D01*
X142265553Y-98430398D01*
X142205194Y-98328336D01*
X142205192Y-98328333D01*
X142201156Y-98321509D01*
X142088691Y-98209044D01*
X142081867Y-98205008D01*
X142081864Y-98205006D01*
X141958618Y-98132119D01*
X141958619Y-98132119D01*
X141951792Y-98128082D01*
X141944181Y-98125871D01*
X141944179Y-98125870D01*
X141886193Y-98109024D01*
X141799058Y-98083709D01*
X141792653Y-98083205D01*
X141792648Y-98083204D01*
X141765823Y-98081093D01*
X141765816Y-98081093D01*
X141763367Y-98080900D01*
X141731040Y-98080900D01*
X140207300Y-98080901D01*
X140139179Y-98060899D01*
X140092686Y-98007243D01*
X140081300Y-97954901D01*
X140081300Y-97675900D01*
X140101302Y-97607779D01*
X140154958Y-97561286D01*
X140207300Y-97549900D01*
X141730988Y-97549899D01*
X141763366Y-97549899D01*
X141785935Y-97548123D01*
X141792640Y-97547596D01*
X141792641Y-97547596D01*
X141799058Y-97547091D01*
X141805238Y-97545296D01*
X141805241Y-97545295D01*
X141944179Y-97504930D01*
X141944181Y-97504929D01*
X141951792Y-97502718D01*
X142025497Y-97459129D01*
X142081864Y-97425794D01*
X142081867Y-97425792D01*
X142088691Y-97421756D01*
X142201156Y-97309291D01*
X142205192Y-97302467D01*
X142205194Y-97302464D01*
X142278081Y-97179218D01*
X142278083Y-97179214D01*
X142282118Y-97172392D01*
X142326491Y-97019658D01*
X142326995Y-97013253D01*
X142326996Y-97013248D01*
X142329107Y-96986423D01*
X142329107Y-96986416D01*
X142329300Y-96983967D01*
X142329299Y-96106834D01*
X142326491Y-96071142D01*
X142324319Y-96063664D01*
X142284330Y-95926021D01*
X142284329Y-95926019D01*
X142282118Y-95918408D01*
X142242908Y-95852107D01*
X142205194Y-95788336D01*
X142205192Y-95788333D01*
X142201156Y-95781509D01*
X142088691Y-95669044D01*
X142081867Y-95665008D01*
X142081864Y-95665006D01*
X141958618Y-95592119D01*
X141958619Y-95592119D01*
X141951792Y-95588082D01*
X141944181Y-95585871D01*
X141944179Y-95585870D01*
X141894939Y-95571565D01*
X141799058Y-95543709D01*
X141792653Y-95543205D01*
X141792648Y-95543204D01*
X141765823Y-95541093D01*
X141765816Y-95541093D01*
X141763367Y-95540900D01*
X141731040Y-95540900D01*
X140207300Y-95540901D01*
X140139179Y-95520899D01*
X140092686Y-95467243D01*
X140081300Y-95414901D01*
X140081300Y-95135900D01*
X140101302Y-95067779D01*
X140154958Y-95021286D01*
X140207300Y-95009900D01*
X141730988Y-95009899D01*
X141763366Y-95009899D01*
X141785935Y-95008123D01*
X141792640Y-95007596D01*
X141792641Y-95007596D01*
X141799058Y-95007091D01*
X141805238Y-95005296D01*
X141805241Y-95005295D01*
X141944179Y-94964930D01*
X141944181Y-94964929D01*
X141951792Y-94962718D01*
X141993693Y-94937938D01*
X142081864Y-94885794D01*
X142081867Y-94885792D01*
X142088691Y-94881756D01*
X142201156Y-94769291D01*
X142205192Y-94762467D01*
X142205194Y-94762464D01*
X142278081Y-94639218D01*
X142282118Y-94632392D01*
X142294802Y-94588735D01*
X142311320Y-94531876D01*
X142326491Y-94479658D01*
X142326995Y-94473253D01*
X142326996Y-94473248D01*
X142329107Y-94446423D01*
X142329107Y-94446416D01*
X142329300Y-94443967D01*
X142329299Y-93566834D01*
X142326491Y-93531142D01*
X142321530Y-93514064D01*
X142284330Y-93386021D01*
X142284329Y-93386019D01*
X142282118Y-93378408D01*
X142248618Y-93321762D01*
X142205194Y-93248336D01*
X142205192Y-93248333D01*
X142201156Y-93241509D01*
X142088691Y-93129044D01*
X142081867Y-93125008D01*
X142081864Y-93125006D01*
X141958618Y-93052119D01*
X141958619Y-93052119D01*
X141951792Y-93048082D01*
X141944181Y-93045871D01*
X141944179Y-93045870D01*
X141894939Y-93031565D01*
X141799058Y-93003709D01*
X141792653Y-93003205D01*
X141792648Y-93003204D01*
X141765823Y-93001093D01*
X141765816Y-93001093D01*
X141763367Y-93000900D01*
X141731040Y-93000900D01*
X140207300Y-93000901D01*
X140139179Y-92980899D01*
X140092686Y-92927243D01*
X140081300Y-92874901D01*
X140081300Y-92595900D01*
X140101302Y-92527779D01*
X140154958Y-92481286D01*
X140207300Y-92469900D01*
X141730988Y-92469899D01*
X141763366Y-92469899D01*
X141785935Y-92468123D01*
X141792640Y-92467596D01*
X141792641Y-92467596D01*
X141799058Y-92467091D01*
X141805238Y-92465296D01*
X141805241Y-92465295D01*
X141944179Y-92424930D01*
X141944181Y-92424929D01*
X141951792Y-92422718D01*
X142063791Y-92356482D01*
X142081864Y-92345794D01*
X142081867Y-92345792D01*
X142088691Y-92341756D01*
X142201156Y-92229291D01*
X142205192Y-92222467D01*
X142205194Y-92222464D01*
X142278081Y-92099218D01*
X142282118Y-92092392D01*
X142326491Y-91939658D01*
X142326995Y-91933253D01*
X142326996Y-91933248D01*
X142329107Y-91906423D01*
X142329107Y-91906416D01*
X142329300Y-91903967D01*
X142329299Y-91026834D01*
X142326491Y-90991142D01*
X142303087Y-90910582D01*
X142284330Y-90846021D01*
X142284329Y-90846019D01*
X142282118Y-90838408D01*
X142247483Y-90779844D01*
X142205194Y-90708336D01*
X142205192Y-90708333D01*
X142201156Y-90701509D01*
X142088691Y-90589044D01*
X142081867Y-90585008D01*
X142081864Y-90585006D01*
X141958618Y-90512119D01*
X141958619Y-90512119D01*
X141951792Y-90508082D01*
X141944181Y-90505871D01*
X141944179Y-90505870D01*
X141894939Y-90491565D01*
X141799058Y-90463709D01*
X141792653Y-90463205D01*
X141792648Y-90463204D01*
X141765823Y-90461093D01*
X141765816Y-90461093D01*
X141763367Y-90460900D01*
X141731040Y-90460900D01*
X140207300Y-90460901D01*
X140139179Y-90440899D01*
X140092686Y-90387243D01*
X140081300Y-90334901D01*
X140081300Y-90055900D01*
X140101302Y-89987779D01*
X140154958Y-89941286D01*
X140207300Y-89929900D01*
X141730988Y-89929899D01*
X141763366Y-89929899D01*
X141785935Y-89928123D01*
X141792640Y-89927596D01*
X141792641Y-89927596D01*
X141799058Y-89927091D01*
X141805238Y-89925296D01*
X141805241Y-89925295D01*
X141944179Y-89884930D01*
X141944181Y-89884929D01*
X141951792Y-89882718D01*
X142064268Y-89816200D01*
X142081864Y-89805794D01*
X142081867Y-89805792D01*
X142088691Y-89801756D01*
X142201156Y-89689291D01*
X142205192Y-89682467D01*
X142205194Y-89682464D01*
X142278081Y-89559218D01*
X142282118Y-89552392D01*
X142288556Y-89530234D01*
X142317174Y-89431726D01*
X142326491Y-89399658D01*
X142326995Y-89393253D01*
X142326996Y-89393248D01*
X142329107Y-89366423D01*
X142329107Y-89366416D01*
X142329300Y-89363967D01*
X142329300Y-88975045D01*
X145510521Y-88975045D01*
X145512038Y-88986788D01*
X145526012Y-88991000D01*
X146277885Y-88991000D01*
X146293124Y-88986525D01*
X146294329Y-88985135D01*
X146296000Y-88977452D01*
X146296000Y-88972885D01*
X146804000Y-88972885D01*
X146808475Y-88988124D01*
X146809865Y-88989329D01*
X146817548Y-88991000D01*
X147574448Y-88991000D01*
X147587684Y-88987113D01*
X147589375Y-88974727D01*
X147584514Y-88959766D01*
X147535417Y-88863407D01*
X147523906Y-88847564D01*
X147447436Y-88771094D01*
X147431593Y-88759583D01*
X147335232Y-88710485D01*
X147316608Y-88704433D01*
X147236685Y-88691775D01*
X147226842Y-88691000D01*
X146822115Y-88691000D01*
X146806876Y-88695475D01*
X146805671Y-88696865D01*
X146804000Y-88704548D01*
X146804000Y-88972885D01*
X146296000Y-88972885D01*
X146296000Y-88709116D01*
X146291525Y-88693877D01*
X146290135Y-88692672D01*
X146282452Y-88691001D01*
X145873160Y-88691001D01*
X145863313Y-88691776D01*
X145783393Y-88704433D01*
X145764767Y-88710485D01*
X145668407Y-88759583D01*
X145652564Y-88771094D01*
X145576094Y-88847564D01*
X145564583Y-88863407D01*
X145515484Y-88959769D01*
X145510521Y-88975045D01*
X142329300Y-88975045D01*
X142329299Y-88486834D01*
X142326491Y-88451142D01*
X142297295Y-88350646D01*
X142284330Y-88306021D01*
X142284329Y-88306019D01*
X142282118Y-88298408D01*
X142224081Y-88200273D01*
X142205194Y-88168336D01*
X142205192Y-88168333D01*
X142201156Y-88161509D01*
X142088691Y-88049044D01*
X142081867Y-88045008D01*
X142081864Y-88045006D01*
X141958618Y-87972119D01*
X141958619Y-87972119D01*
X141951792Y-87968082D01*
X141944181Y-87965871D01*
X141944179Y-87965870D01*
X141894939Y-87951565D01*
X141799058Y-87923709D01*
X141792653Y-87923205D01*
X141792648Y-87923204D01*
X141765823Y-87921093D01*
X141765816Y-87921093D01*
X141763367Y-87920900D01*
X141731040Y-87920900D01*
X140207300Y-87920901D01*
X140139179Y-87900899D01*
X140092686Y-87847243D01*
X140081300Y-87794901D01*
X140081300Y-87515900D01*
X140101302Y-87447779D01*
X140154958Y-87401286D01*
X140207300Y-87389900D01*
X141730988Y-87389899D01*
X141763366Y-87389899D01*
X141785935Y-87388123D01*
X141792640Y-87387596D01*
X141792641Y-87387596D01*
X141799058Y-87387091D01*
X141805238Y-87385296D01*
X141805241Y-87385295D01*
X141944179Y-87344930D01*
X141944181Y-87344929D01*
X141951792Y-87342718D01*
X142013591Y-87306170D01*
X142081864Y-87265794D01*
X142081867Y-87265792D01*
X142088691Y-87261756D01*
X142201156Y-87149291D01*
X142205192Y-87142467D01*
X142205194Y-87142464D01*
X142278081Y-87019218D01*
X142282118Y-87012392D01*
X142326491Y-86859658D01*
X142326995Y-86853253D01*
X142326996Y-86853248D01*
X142329107Y-86826423D01*
X142329107Y-86826416D01*
X142329300Y-86823967D01*
X142329299Y-85946834D01*
X142326491Y-85911142D01*
X142319833Y-85888223D01*
X142284330Y-85766021D01*
X142284329Y-85766019D01*
X142282118Y-85758408D01*
X142217256Y-85648732D01*
X142205194Y-85628336D01*
X142205192Y-85628333D01*
X142201156Y-85621509D01*
X142088691Y-85509044D01*
X142081867Y-85505008D01*
X142081864Y-85505006D01*
X141958618Y-85432119D01*
X141958619Y-85432119D01*
X141951792Y-85428082D01*
X141944181Y-85425871D01*
X141944179Y-85425870D01*
X141894939Y-85411565D01*
X141799058Y-85383709D01*
X141792653Y-85383205D01*
X141792648Y-85383204D01*
X141765823Y-85381093D01*
X141765816Y-85381093D01*
X141763367Y-85380900D01*
X141731040Y-85380900D01*
X140207300Y-85380901D01*
X140139179Y-85360899D01*
X140092686Y-85307243D01*
X140081300Y-85254901D01*
X140081300Y-84975900D01*
X140101302Y-84907779D01*
X140154958Y-84861286D01*
X140207300Y-84849900D01*
X141730988Y-84849899D01*
X141763366Y-84849899D01*
X141785935Y-84848123D01*
X141792640Y-84847596D01*
X141792641Y-84847596D01*
X141799058Y-84847091D01*
X141805238Y-84845296D01*
X141805241Y-84845295D01*
X141944179Y-84804930D01*
X141944181Y-84804929D01*
X141951792Y-84802718D01*
X142014457Y-84765658D01*
X142081864Y-84725794D01*
X142081867Y-84725792D01*
X142088691Y-84721756D01*
X142201156Y-84609291D01*
X142205192Y-84602467D01*
X142205194Y-84602464D01*
X142278081Y-84479218D01*
X142282118Y-84472392D01*
X142326491Y-84319658D01*
X142326995Y-84313253D01*
X142326996Y-84313248D01*
X142329107Y-84286423D01*
X142329107Y-84286416D01*
X142329300Y-84283967D01*
X142329300Y-84203193D01*
X145090800Y-84203193D01*
X145091225Y-84210497D01*
X145105180Y-84330196D01*
X145108525Y-84344349D01*
X145163521Y-84495860D01*
X145170031Y-84508859D01*
X145258408Y-84643656D01*
X145267732Y-84654808D01*
X145384747Y-84765658D01*
X145396392Y-84774370D01*
X145535766Y-84855324D01*
X145549104Y-84861124D01*
X145573462Y-84868501D01*
X145587564Y-84868621D01*
X145590800Y-84861691D01*
X145590800Y-84856084D01*
X146098800Y-84856084D01*
X146102773Y-84869615D01*
X146107856Y-84870346D01*
X146214188Y-84825101D01*
X146226812Y-84817901D01*
X146356633Y-84722363D01*
X146367264Y-84712449D01*
X146471628Y-84589605D01*
X146479690Y-84577517D01*
X146552995Y-84433959D01*
X146558062Y-84420334D01*
X146596777Y-84262114D01*
X146598460Y-84251055D01*
X146598680Y-84247509D01*
X146598800Y-84243631D01*
X146598800Y-83884945D01*
X146594325Y-83869706D01*
X146592935Y-83868501D01*
X146585252Y-83866830D01*
X146116915Y-83866830D01*
X146101676Y-83871305D01*
X146100471Y-83872695D01*
X146098800Y-83880378D01*
X146098800Y-84856084D01*
X145590800Y-84856084D01*
X145590800Y-83884945D01*
X145586325Y-83869706D01*
X145584935Y-83868501D01*
X145577252Y-83866830D01*
X145108915Y-83866830D01*
X145093676Y-83871305D01*
X145092471Y-83872695D01*
X145090800Y-83880378D01*
X145090800Y-84203193D01*
X142329300Y-84203193D01*
X142329299Y-83406834D01*
X142326491Y-83371142D01*
X142317865Y-83341449D01*
X142317652Y-83340715D01*
X145090800Y-83340715D01*
X145095275Y-83355954D01*
X145096665Y-83357159D01*
X145104348Y-83358830D01*
X145572685Y-83358830D01*
X145587924Y-83354355D01*
X145589129Y-83352965D01*
X145590800Y-83345282D01*
X145590800Y-83340715D01*
X146098800Y-83340715D01*
X146103275Y-83355954D01*
X146104665Y-83357159D01*
X146112348Y-83358830D01*
X146580685Y-83358830D01*
X146628260Y-83344861D01*
X146633568Y-83341449D01*
X146704565Y-83341445D01*
X146764293Y-83379825D01*
X146769036Y-83385638D01*
X146861496Y-83506134D01*
X146982550Y-83599022D01*
X147123520Y-83657414D01*
X147236820Y-83672330D01*
X147312780Y-83672330D01*
X147426080Y-83657414D01*
X147567050Y-83599022D01*
X147688104Y-83506134D01*
X147780992Y-83385080D01*
X147839384Y-83244110D01*
X147859300Y-83092830D01*
X152470300Y-83092830D01*
X152490216Y-83244110D01*
X152548608Y-83385080D01*
X152641496Y-83506134D01*
X152762550Y-83599022D01*
X152903520Y-83657414D01*
X153016820Y-83672330D01*
X153092780Y-83672330D01*
X153206080Y-83657414D01*
X153347050Y-83599022D01*
X153468104Y-83506134D01*
X153546190Y-83404371D01*
X153560992Y-83385080D01*
X153563273Y-83386830D01*
X153604558Y-83347459D01*
X153674270Y-83334017D01*
X153719702Y-83353469D01*
X153744348Y-83358830D01*
X154212685Y-83358830D01*
X154227924Y-83354355D01*
X154229129Y-83352965D01*
X154230800Y-83345282D01*
X154230800Y-83340715D01*
X154738800Y-83340715D01*
X154743275Y-83355954D01*
X154744665Y-83357159D01*
X154752348Y-83358830D01*
X155220685Y-83358830D01*
X155235924Y-83354355D01*
X155237129Y-83352965D01*
X155238800Y-83345282D01*
X155238800Y-83022467D01*
X155238375Y-83015163D01*
X155224420Y-82895464D01*
X155221075Y-82881311D01*
X155166079Y-82729800D01*
X155159569Y-82716801D01*
X155071192Y-82582004D01*
X155061868Y-82570852D01*
X154944853Y-82460002D01*
X154933208Y-82451290D01*
X154793834Y-82370336D01*
X154780496Y-82364536D01*
X154756138Y-82357159D01*
X154742036Y-82357039D01*
X154738800Y-82363969D01*
X154738800Y-83340715D01*
X154230800Y-83340715D01*
X154230800Y-82369576D01*
X154226827Y-82356045D01*
X154221744Y-82355314D01*
X154115412Y-82400559D01*
X154102788Y-82407759D01*
X153972967Y-82503297D01*
X153962336Y-82513211D01*
X153857972Y-82636055D01*
X153849910Y-82648143D01*
X153777846Y-82789272D01*
X153729053Y-82840844D01*
X153660123Y-82857851D01*
X153592941Y-82834891D01*
X153561366Y-82800293D01*
X153560992Y-82800580D01*
X153557637Y-82796208D01*
X153468104Y-82679526D01*
X153347050Y-82586638D01*
X153206080Y-82528246D01*
X153092780Y-82513330D01*
X153016820Y-82513330D01*
X152903520Y-82528246D01*
X152762550Y-82586638D01*
X152641496Y-82679526D01*
X152548608Y-82800580D01*
X152490216Y-82941550D01*
X152470300Y-83092830D01*
X147859300Y-83092830D01*
X147839384Y-82941550D01*
X147780992Y-82800580D01*
X147688104Y-82679526D01*
X147567050Y-82586638D01*
X147426080Y-82528246D01*
X147312780Y-82513330D01*
X147236820Y-82513330D01*
X147123520Y-82528246D01*
X146982550Y-82586638D01*
X146861496Y-82679526D01*
X146768608Y-82800580D01*
X146768520Y-82800793D01*
X146719828Y-82847220D01*
X146650114Y-82860655D01*
X146584203Y-82834268D01*
X146543653Y-82778216D01*
X146526080Y-82729802D01*
X146519569Y-82716801D01*
X146431192Y-82582004D01*
X146421868Y-82570852D01*
X146304853Y-82460002D01*
X146293208Y-82451290D01*
X146153834Y-82370336D01*
X146140496Y-82364536D01*
X146116138Y-82357159D01*
X146102036Y-82357039D01*
X146098800Y-82363969D01*
X146098800Y-83340715D01*
X145590800Y-83340715D01*
X145590800Y-82369576D01*
X145586827Y-82356045D01*
X145581744Y-82355314D01*
X145475412Y-82400559D01*
X145462788Y-82407759D01*
X145332967Y-82503297D01*
X145322336Y-82513211D01*
X145217972Y-82636055D01*
X145209910Y-82648143D01*
X145136605Y-82791701D01*
X145131538Y-82805326D01*
X145092823Y-82963546D01*
X145091140Y-82974605D01*
X145090920Y-82978151D01*
X145090800Y-82982029D01*
X145090800Y-83340715D01*
X142317652Y-83340715D01*
X142284330Y-83226021D01*
X142284329Y-83226019D01*
X142282118Y-83218408D01*
X142212694Y-83101018D01*
X142205194Y-83088336D01*
X142205192Y-83088333D01*
X142201156Y-83081509D01*
X142088691Y-82969044D01*
X142081867Y-82965008D01*
X142081864Y-82965006D01*
X141958618Y-82892119D01*
X141958619Y-82892119D01*
X141951792Y-82888082D01*
X141944181Y-82885871D01*
X141944179Y-82885870D01*
X141894939Y-82871565D01*
X141799058Y-82843709D01*
X141792653Y-82843205D01*
X141792648Y-82843204D01*
X141765823Y-82841093D01*
X141765816Y-82841093D01*
X141763367Y-82840900D01*
X141731040Y-82840900D01*
X140207300Y-82840901D01*
X140139179Y-82820899D01*
X140092686Y-82767243D01*
X140081300Y-82714901D01*
X140081300Y-82435900D01*
X140101302Y-82367779D01*
X140154958Y-82321286D01*
X140207300Y-82309900D01*
X141730988Y-82309899D01*
X141763366Y-82309899D01*
X141785935Y-82308123D01*
X141792640Y-82307596D01*
X141792641Y-82307596D01*
X141799058Y-82307091D01*
X141805238Y-82305296D01*
X141805241Y-82305295D01*
X141944179Y-82264930D01*
X141944181Y-82264929D01*
X141951792Y-82262718D01*
X141979802Y-82246153D01*
X142081864Y-82185794D01*
X142081867Y-82185792D01*
X142088691Y-82181756D01*
X142201156Y-82069291D01*
X142205192Y-82062467D01*
X142205194Y-82062464D01*
X142278081Y-81939218D01*
X142282118Y-81932392D01*
X142326491Y-81779658D01*
X142326995Y-81773253D01*
X142326996Y-81773248D01*
X142329107Y-81746423D01*
X142329107Y-81746416D01*
X142329300Y-81743967D01*
X142329299Y-80866834D01*
X142326491Y-80831142D01*
X142305649Y-80759401D01*
X142284330Y-80686021D01*
X142284329Y-80686019D01*
X142282118Y-80678408D01*
X142244580Y-80614934D01*
X142205194Y-80548336D01*
X142205192Y-80548333D01*
X142201156Y-80541509D01*
X142088691Y-80429044D01*
X142081867Y-80425008D01*
X142081864Y-80425006D01*
X141958618Y-80352119D01*
X141958619Y-80352119D01*
X141951792Y-80348082D01*
X141944181Y-80345871D01*
X141944179Y-80345870D01*
X141853466Y-80319516D01*
X141799058Y-80303709D01*
X141792653Y-80303205D01*
X141792648Y-80303204D01*
X141765823Y-80301093D01*
X141765816Y-80301093D01*
X141763367Y-80300900D01*
X141731040Y-80300900D01*
X140207300Y-80300901D01*
X140139179Y-80280899D01*
X140092686Y-80227243D01*
X140081300Y-80174901D01*
X140081300Y-79895900D01*
X140093840Y-79853193D01*
X145090800Y-79853193D01*
X145091225Y-79860497D01*
X145105180Y-79980196D01*
X145108525Y-79994349D01*
X145163521Y-80145860D01*
X145170031Y-80158859D01*
X145258408Y-80293656D01*
X145267732Y-80304808D01*
X145384747Y-80415658D01*
X145396392Y-80424370D01*
X145535766Y-80505324D01*
X145549104Y-80511124D01*
X145573462Y-80518501D01*
X145587564Y-80518621D01*
X145590800Y-80511691D01*
X145590800Y-80506084D01*
X146098800Y-80506084D01*
X146102773Y-80519615D01*
X146107856Y-80520346D01*
X146214188Y-80475101D01*
X146226812Y-80467901D01*
X146356633Y-80372363D01*
X146367264Y-80362449D01*
X146471628Y-80239605D01*
X146479690Y-80227517D01*
X146483283Y-80220481D01*
X146532076Y-80168908D01*
X146601006Y-80151902D01*
X146668188Y-80174862D01*
X146713826Y-80234481D01*
X146737553Y-80299319D01*
X146741789Y-80305622D01*
X146741789Y-80305623D01*
X146815730Y-80415658D01*
X146825908Y-80430805D01*
X146831527Y-80435918D01*
X146831528Y-80435919D01*
X146924313Y-80520346D01*
X146943076Y-80537419D01*
X147082293Y-80613008D01*
X147235522Y-80653207D01*
X147319477Y-80654526D01*
X147386319Y-80655576D01*
X147386322Y-80655576D01*
X147393916Y-80655695D01*
X147548332Y-80620329D01*
X147628405Y-80580057D01*
X147683072Y-80552563D01*
X147683075Y-80552561D01*
X147689855Y-80549151D01*
X147695626Y-80544222D01*
X147695629Y-80544220D01*
X147768447Y-80482027D01*
X147833237Y-80452996D01*
X147903437Y-80463601D01*
X147935073Y-80484641D01*
X147993076Y-80537419D01*
X148132293Y-80613008D01*
X148285522Y-80653207D01*
X148369477Y-80654526D01*
X148436319Y-80655576D01*
X148436322Y-80655576D01*
X148443916Y-80655695D01*
X148598332Y-80620329D01*
X148678405Y-80580057D01*
X148733072Y-80552563D01*
X148733075Y-80552561D01*
X148739855Y-80549151D01*
X148745626Y-80544222D01*
X148745629Y-80544220D01*
X148854536Y-80451204D01*
X148854536Y-80451203D01*
X148860314Y-80446269D01*
X148952755Y-80317624D01*
X149011842Y-80170641D01*
X149034162Y-80013807D01*
X149034307Y-80000000D01*
X149015276Y-79842733D01*
X148959280Y-79694546D01*
X148919144Y-79636147D01*
X148873855Y-79570251D01*
X148873854Y-79570249D01*
X148869553Y-79563992D01*
X148797255Y-79499577D01*
X148759699Y-79439326D01*
X148760679Y-79368336D01*
X148799884Y-79309146D01*
X148864865Y-79280547D01*
X148881074Y-79279500D01*
X149157771Y-79279500D01*
X149225892Y-79299502D01*
X149246866Y-79316405D01*
X149492139Y-79561678D01*
X149526165Y-79623990D01*
X149529044Y-79650773D01*
X149529044Y-81100487D01*
X149526938Y-81120281D01*
X149526733Y-81124634D01*
X149524541Y-81134814D01*
X149525765Y-81145152D01*
X149528171Y-81165481D01*
X149528486Y-81170827D01*
X149528616Y-81170816D01*
X149529044Y-81175996D01*
X149529044Y-81181195D01*
X149529897Y-81186319D01*
X149529898Y-81186332D01*
X149531971Y-81198785D01*
X149532808Y-81204660D01*
X149538413Y-81252014D01*
X149542114Y-81259722D01*
X149543519Y-81268161D01*
X149566173Y-81310145D01*
X149568854Y-81315408D01*
X149589499Y-81358402D01*
X149592855Y-81362394D01*
X149594802Y-81364341D01*
X149596292Y-81365966D01*
X149596525Y-81366398D01*
X149596489Y-81366431D01*
X149596628Y-81366589D01*
X149599561Y-81372024D01*
X149607208Y-81379093D01*
X149636425Y-81406101D01*
X149639991Y-81409530D01*
X150224895Y-81994434D01*
X150237403Y-82009920D01*
X150240337Y-82013145D01*
X150245986Y-82021893D01*
X150254163Y-82028339D01*
X150270241Y-82041014D01*
X150274244Y-82044572D01*
X150274329Y-82044472D01*
X150278286Y-82047825D01*
X150281967Y-82051506D01*
X150286199Y-82054530D01*
X150286201Y-82054532D01*
X150296476Y-82061875D01*
X150301220Y-82065437D01*
X150330486Y-82088508D01*
X150330490Y-82088510D01*
X150338668Y-82094957D01*
X150346736Y-82097790D01*
X150353696Y-82102764D01*
X150363674Y-82105748D01*
X150399397Y-82116431D01*
X150405046Y-82118267D01*
X150450019Y-82134061D01*
X150455215Y-82134511D01*
X150457920Y-82134511D01*
X150460176Y-82134608D01*
X150460652Y-82134751D01*
X150460650Y-82134797D01*
X150460849Y-82134810D01*
X150466766Y-82136579D01*
X150516935Y-82134608D01*
X150521881Y-82134511D01*
X151736932Y-82134511D01*
X151756726Y-82136617D01*
X151761079Y-82136822D01*
X151771259Y-82139014D01*
X151801929Y-82135384D01*
X151807272Y-82135069D01*
X151807261Y-82134939D01*
X151812441Y-82134511D01*
X151817640Y-82134511D01*
X151822764Y-82133658D01*
X151822777Y-82133657D01*
X151835230Y-82131584D01*
X151841105Y-82130747D01*
X151878118Y-82126366D01*
X151888459Y-82125142D01*
X151896167Y-82121441D01*
X151904606Y-82120036D01*
X151946590Y-82097382D01*
X151951853Y-82094701D01*
X151964750Y-82088508D01*
X151994847Y-82074056D01*
X151998839Y-82070700D01*
X152000786Y-82068753D01*
X152002411Y-82067263D01*
X152002843Y-82067030D01*
X152002876Y-82067066D01*
X152003034Y-82066927D01*
X152008469Y-82063994D01*
X152042546Y-82027130D01*
X152045975Y-82023564D01*
X152328097Y-81741442D01*
X158000801Y-81741442D01*
X158000995Y-81746376D01*
X158003102Y-81773158D01*
X158005404Y-81785766D01*
X158045733Y-81924579D01*
X158051979Y-81939013D01*
X158124805Y-82062155D01*
X158134454Y-82074593D01*
X158235607Y-82175746D01*
X158248045Y-82185395D01*
X158371187Y-82258221D01*
X158385621Y-82264467D01*
X158524441Y-82304798D01*
X158537034Y-82307098D01*
X158563829Y-82309207D01*
X158568754Y-82309400D01*
X159482685Y-82309400D01*
X159497924Y-82304925D01*
X159499129Y-82303535D01*
X159500800Y-82295852D01*
X159500800Y-81577515D01*
X159496325Y-81562276D01*
X159494935Y-81561071D01*
X159487252Y-81559400D01*
X158018916Y-81559400D01*
X158003677Y-81563875D01*
X158002472Y-81565265D01*
X158000801Y-81572948D01*
X158000801Y-81741442D01*
X152328097Y-81741442D01*
X152889424Y-81180115D01*
X152904910Y-81167607D01*
X152908135Y-81164673D01*
X152916883Y-81159024D01*
X152936004Y-81134769D01*
X152939564Y-81130764D01*
X152939464Y-81130679D01*
X152942817Y-81126722D01*
X152946496Y-81123043D01*
X152956877Y-81108517D01*
X152960441Y-81103771D01*
X152983502Y-81074518D01*
X152983503Y-81074517D01*
X152989947Y-81066342D01*
X152992780Y-81058275D01*
X152997755Y-81051313D01*
X153003146Y-81033285D01*
X158000800Y-81033285D01*
X158005275Y-81048524D01*
X158006665Y-81049729D01*
X158014348Y-81051400D01*
X159482685Y-81051400D01*
X159497924Y-81046925D01*
X159499129Y-81045535D01*
X159500800Y-81037852D01*
X159500800Y-80319516D01*
X159496325Y-80304277D01*
X159494935Y-80303072D01*
X159487252Y-80301401D01*
X158568758Y-80301401D01*
X158563824Y-80301595D01*
X158537042Y-80303702D01*
X158524434Y-80306004D01*
X158385621Y-80346333D01*
X158371187Y-80352579D01*
X158248045Y-80425405D01*
X158235607Y-80435054D01*
X158134454Y-80536207D01*
X158124805Y-80548645D01*
X158051979Y-80671787D01*
X158045733Y-80686221D01*
X158005402Y-80825041D01*
X158003102Y-80837634D01*
X158000993Y-80864429D01*
X158000800Y-80869355D01*
X158000800Y-81033285D01*
X153003146Y-81033285D01*
X153011431Y-81005581D01*
X153013247Y-80999994D01*
X153029051Y-80954991D01*
X153029501Y-80949795D01*
X153029501Y-80947088D01*
X153029598Y-80944834D01*
X153029741Y-80944358D01*
X153029787Y-80944360D01*
X153029800Y-80944161D01*
X153031569Y-80938244D01*
X153029598Y-80888074D01*
X153029501Y-80883128D01*
X153029501Y-80759401D01*
X153049503Y-80691280D01*
X153103159Y-80644787D01*
X153127372Y-80636581D01*
X153190928Y-80622025D01*
X153190930Y-80622024D01*
X153198332Y-80620329D01*
X153278405Y-80580057D01*
X153333072Y-80552563D01*
X153333075Y-80552561D01*
X153339855Y-80549151D01*
X153345626Y-80544222D01*
X153345629Y-80544220D01*
X153454536Y-80451204D01*
X153454536Y-80451203D01*
X153460314Y-80446269D01*
X153552755Y-80317624D01*
X153600117Y-80199808D01*
X153644084Y-80144064D01*
X153711209Y-80120939D01*
X153780180Y-80137776D01*
X153822396Y-80177720D01*
X153898408Y-80293656D01*
X153907732Y-80304808D01*
X154024747Y-80415658D01*
X154036392Y-80424370D01*
X154175766Y-80505324D01*
X154189104Y-80511124D01*
X154213462Y-80518501D01*
X154227564Y-80518621D01*
X154230800Y-80511691D01*
X154230800Y-80506084D01*
X154738800Y-80506084D01*
X154742773Y-80519615D01*
X154747856Y-80520346D01*
X154854188Y-80475101D01*
X154866812Y-80467901D01*
X154996633Y-80372363D01*
X155007264Y-80362449D01*
X155111628Y-80239605D01*
X155119690Y-80227517D01*
X155192995Y-80083959D01*
X155198062Y-80070334D01*
X155236777Y-79912114D01*
X155238460Y-79901055D01*
X155238680Y-79897509D01*
X155238800Y-79893631D01*
X155238800Y-79684945D01*
X155234325Y-79669706D01*
X155232935Y-79668501D01*
X155225252Y-79666830D01*
X154756915Y-79666830D01*
X154741676Y-79671305D01*
X154740471Y-79672695D01*
X154738800Y-79680378D01*
X154738800Y-80506084D01*
X154230800Y-80506084D01*
X154230800Y-79684945D01*
X154226325Y-79669706D01*
X154224935Y-79668501D01*
X154217252Y-79666830D01*
X153748915Y-79666830D01*
X153732830Y-79671553D01*
X153674528Y-79709022D01*
X153603532Y-79709022D01*
X153543805Y-79670639D01*
X153535189Y-79659493D01*
X153473855Y-79570251D01*
X153473854Y-79570249D01*
X153469553Y-79563992D01*
X153351275Y-79458611D01*
X153343889Y-79454700D01*
X153305565Y-79434409D01*
X153211274Y-79384484D01*
X153057633Y-79345892D01*
X153050034Y-79345852D01*
X153050033Y-79345852D01*
X152984181Y-79345507D01*
X152899221Y-79345062D01*
X152891841Y-79346834D01*
X152891839Y-79346834D01*
X152752563Y-79380271D01*
X152752560Y-79380272D01*
X152745184Y-79382043D01*
X152604414Y-79454700D01*
X152598697Y-79459687D01*
X152598690Y-79459692D01*
X152532736Y-79517228D01*
X152468254Y-79546936D01*
X152397947Y-79537066D01*
X152366089Y-79516356D01*
X152306951Y-79463667D01*
X152306945Y-79463663D01*
X152301275Y-79458611D01*
X152293889Y-79454700D01*
X152255565Y-79434409D01*
X152161274Y-79384484D01*
X152007633Y-79345892D01*
X152000034Y-79345852D01*
X152000033Y-79345852D01*
X151934181Y-79345507D01*
X151849221Y-79345062D01*
X151841841Y-79346834D01*
X151841839Y-79346834D01*
X151702563Y-79380271D01*
X151702560Y-79380272D01*
X151695184Y-79382043D01*
X151554414Y-79454700D01*
X151435039Y-79558838D01*
X151343950Y-79688444D01*
X151341190Y-79695524D01*
X151289626Y-79827779D01*
X151286406Y-79836037D01*
X151285414Y-79843570D01*
X151285414Y-79843571D01*
X151278824Y-79893631D01*
X151265729Y-79993096D01*
X151283113Y-80150553D01*
X151285723Y-80157684D01*
X151285723Y-80157686D01*
X151311278Y-80227517D01*
X151337553Y-80299319D01*
X151341789Y-80305622D01*
X151341789Y-80305623D01*
X151415730Y-80415658D01*
X151425908Y-80430805D01*
X151431527Y-80435918D01*
X151431528Y-80435919D01*
X151524313Y-80520346D01*
X151543076Y-80537419D01*
X151621607Y-80580058D01*
X151671927Y-80630139D01*
X151687184Y-80699477D01*
X151662532Y-80766056D01*
X151650579Y-80779883D01*
X151491856Y-80938606D01*
X151429544Y-80972632D01*
X151402761Y-80975511D01*
X150897241Y-80975511D01*
X150829120Y-80955509D01*
X150808146Y-80938607D01*
X150724949Y-80855411D01*
X150690924Y-80793099D01*
X150688044Y-80766315D01*
X150688044Y-79316601D01*
X150690150Y-79296807D01*
X150690355Y-79292454D01*
X150692547Y-79282274D01*
X150688917Y-79251604D01*
X150688602Y-79246261D01*
X150688472Y-79246272D01*
X150688044Y-79241092D01*
X150688044Y-79235893D01*
X150687191Y-79230769D01*
X150687190Y-79230756D01*
X150685117Y-79218303D01*
X150684280Y-79212428D01*
X150679899Y-79175415D01*
X150678675Y-79165074D01*
X150674974Y-79157366D01*
X150673569Y-79148927D01*
X150669138Y-79140715D01*
X153730800Y-79140715D01*
X153735275Y-79155954D01*
X153736665Y-79157159D01*
X153744348Y-79158830D01*
X154212685Y-79158830D01*
X154227924Y-79154355D01*
X154229129Y-79152965D01*
X154230800Y-79145282D01*
X154230800Y-79140715D01*
X154738800Y-79140715D01*
X154743275Y-79155954D01*
X154744665Y-79157159D01*
X154752348Y-79158830D01*
X155220685Y-79158830D01*
X155235924Y-79154355D01*
X155237129Y-79152965D01*
X155238800Y-79145282D01*
X155238800Y-78972467D01*
X155238375Y-78965163D01*
X155224420Y-78845464D01*
X155221075Y-78831311D01*
X155166079Y-78679800D01*
X155159569Y-78666801D01*
X155071192Y-78532004D01*
X155061868Y-78520852D01*
X154944853Y-78410002D01*
X154933208Y-78401290D01*
X154793834Y-78320336D01*
X154780496Y-78314536D01*
X154756138Y-78307159D01*
X154742036Y-78307039D01*
X154738800Y-78313969D01*
X154738800Y-79140715D01*
X154230800Y-79140715D01*
X154230800Y-78319576D01*
X154226827Y-78306045D01*
X154221744Y-78305314D01*
X154115412Y-78350559D01*
X154102788Y-78357759D01*
X153972967Y-78453297D01*
X153962336Y-78463211D01*
X153857972Y-78586055D01*
X153849910Y-78598143D01*
X153776605Y-78741701D01*
X153771538Y-78755326D01*
X153732823Y-78913546D01*
X153731140Y-78924605D01*
X153730920Y-78928151D01*
X153730800Y-78932029D01*
X153730800Y-79140715D01*
X150669138Y-79140715D01*
X150650915Y-79106943D01*
X150648234Y-79101680D01*
X150631019Y-79065830D01*
X150627589Y-79058686D01*
X150624233Y-79054694D01*
X150622286Y-79052747D01*
X150620796Y-79051122D01*
X150620563Y-79050690D01*
X150620599Y-79050657D01*
X150620460Y-79050499D01*
X150617527Y-79045064D01*
X150580676Y-79010999D01*
X150577110Y-79007571D01*
X149830116Y-78260578D01*
X149817614Y-78245098D01*
X149814675Y-78241868D01*
X149809025Y-78233118D01*
X149784762Y-78213991D01*
X149780767Y-78210441D01*
X149780683Y-78210540D01*
X149776720Y-78207182D01*
X149773044Y-78203506D01*
X149766270Y-78198665D01*
X149758548Y-78193146D01*
X149753805Y-78189585D01*
X149724525Y-78166503D01*
X149724521Y-78166501D01*
X149716343Y-78160054D01*
X149708275Y-78157221D01*
X149701315Y-78152247D01*
X149655614Y-78138580D01*
X149649965Y-78136744D01*
X149614428Y-78124264D01*
X149604992Y-78120950D01*
X149599796Y-78120500D01*
X149597091Y-78120500D01*
X149594835Y-78120403D01*
X149594359Y-78120260D01*
X149594361Y-78120214D01*
X149594162Y-78120201D01*
X149588245Y-78118432D01*
X149538611Y-78120382D01*
X149538076Y-78120403D01*
X149533130Y-78120500D01*
X148258057Y-78120500D01*
X148238263Y-78118394D01*
X148233910Y-78118189D01*
X148223730Y-78115997D01*
X148193060Y-78119627D01*
X148187717Y-78119942D01*
X148187728Y-78120072D01*
X148182548Y-78120500D01*
X148177349Y-78120500D01*
X148172225Y-78121353D01*
X148172212Y-78121354D01*
X148159759Y-78123427D01*
X148153884Y-78124264D01*
X148116871Y-78128645D01*
X148106530Y-78129869D01*
X148098822Y-78133570D01*
X148090383Y-78134975D01*
X148048399Y-78157629D01*
X148043136Y-78160310D01*
X148000142Y-78180955D01*
X147996150Y-78184311D01*
X147994203Y-78186258D01*
X147992578Y-78187748D01*
X147992146Y-78187981D01*
X147992113Y-78187946D01*
X147991958Y-78188083D01*
X147986520Y-78191017D01*
X147965278Y-78213997D01*
X147952443Y-78227882D01*
X147949013Y-78231449D01*
X147410579Y-78769883D01*
X147395097Y-78782388D01*
X147391870Y-78785324D01*
X147383117Y-78790976D01*
X147363990Y-78815239D01*
X147360440Y-78819234D01*
X147360539Y-78819318D01*
X147357181Y-78823281D01*
X147353505Y-78826957D01*
X147350482Y-78831186D01*
X147350482Y-78831187D01*
X147343145Y-78841453D01*
X147339584Y-78846196D01*
X147316502Y-78875476D01*
X147316500Y-78875480D01*
X147310053Y-78883658D01*
X147307220Y-78891726D01*
X147302246Y-78898686D01*
X147299262Y-78908664D01*
X147288579Y-78944387D01*
X147286743Y-78950036D01*
X147270949Y-78995009D01*
X147270499Y-79000205D01*
X147270499Y-79002910D01*
X147270402Y-79005166D01*
X147270259Y-79005642D01*
X147270213Y-79005640D01*
X147270200Y-79005839D01*
X147268431Y-79011756D01*
X147268840Y-79022160D01*
X147270402Y-79061925D01*
X147270499Y-79066871D01*
X147270499Y-79240623D01*
X147250497Y-79308744D01*
X147196841Y-79355237D01*
X147173914Y-79363141D01*
X147155949Y-79367455D01*
X147102563Y-79380271D01*
X147102560Y-79380272D01*
X147095184Y-79382043D01*
X146954414Y-79454700D01*
X146835039Y-79558838D01*
X146830672Y-79565052D01*
X146775699Y-79643270D01*
X146720164Y-79687501D01*
X146649532Y-79694687D01*
X146597061Y-79669399D01*
X146585252Y-79666830D01*
X146116915Y-79666830D01*
X146101676Y-79671305D01*
X146100471Y-79672695D01*
X146098800Y-79680378D01*
X146098800Y-80506084D01*
X145590800Y-80506084D01*
X145590800Y-79684945D01*
X145586325Y-79669706D01*
X145584935Y-79668501D01*
X145577252Y-79666830D01*
X145108915Y-79666830D01*
X145093676Y-79671305D01*
X145092471Y-79672695D01*
X145090800Y-79680378D01*
X145090800Y-79853193D01*
X140093840Y-79853193D01*
X140101302Y-79827779D01*
X140154958Y-79781286D01*
X140207300Y-79769900D01*
X141730988Y-79769899D01*
X141763366Y-79769899D01*
X141785935Y-79768123D01*
X141792640Y-79767596D01*
X141792641Y-79767596D01*
X141799058Y-79767091D01*
X141805238Y-79765296D01*
X141805241Y-79765295D01*
X141944179Y-79724930D01*
X141944181Y-79724929D01*
X141951792Y-79722718D01*
X141987418Y-79701649D01*
X142081864Y-79645794D01*
X142081867Y-79645792D01*
X142088691Y-79641756D01*
X142201156Y-79529291D01*
X142205192Y-79522467D01*
X142205194Y-79522464D01*
X142278081Y-79399218D01*
X142282118Y-79392392D01*
X142284416Y-79384484D01*
X142314110Y-79282274D01*
X142326491Y-79239658D01*
X142326995Y-79233253D01*
X142326996Y-79233248D01*
X142329107Y-79206423D01*
X142329107Y-79206416D01*
X142329300Y-79203967D01*
X142329300Y-79140715D01*
X145090800Y-79140715D01*
X145095275Y-79155954D01*
X145096665Y-79157159D01*
X145104348Y-79158830D01*
X145572685Y-79158830D01*
X145587924Y-79154355D01*
X145589129Y-79152965D01*
X145590800Y-79145282D01*
X145590800Y-79140715D01*
X146098800Y-79140715D01*
X146103275Y-79155954D01*
X146104665Y-79157159D01*
X146112348Y-79158830D01*
X146580685Y-79158830D01*
X146595924Y-79154355D01*
X146597129Y-79152965D01*
X146598800Y-79145282D01*
X146598800Y-78972467D01*
X146598375Y-78965163D01*
X146584420Y-78845464D01*
X146581075Y-78831311D01*
X146526079Y-78679800D01*
X146519569Y-78666801D01*
X146431192Y-78532004D01*
X146421868Y-78520852D01*
X146304853Y-78410002D01*
X146293208Y-78401290D01*
X146153834Y-78320336D01*
X146140496Y-78314536D01*
X146116138Y-78307159D01*
X146102036Y-78307039D01*
X146098800Y-78313969D01*
X146098800Y-79140715D01*
X145590800Y-79140715D01*
X145590800Y-78319576D01*
X145586827Y-78306045D01*
X145581744Y-78305314D01*
X145475412Y-78350559D01*
X145462788Y-78357759D01*
X145332967Y-78453297D01*
X145322336Y-78463211D01*
X145217972Y-78586055D01*
X145209910Y-78598143D01*
X145136605Y-78741701D01*
X145131538Y-78755326D01*
X145092823Y-78913546D01*
X145091140Y-78924605D01*
X145090920Y-78928151D01*
X145090800Y-78932029D01*
X145090800Y-79140715D01*
X142329300Y-79140715D01*
X142329299Y-78326834D01*
X142326491Y-78291142D01*
X142317612Y-78260578D01*
X142284330Y-78146021D01*
X142284329Y-78146019D01*
X142282118Y-78138408D01*
X142265553Y-78110398D01*
X142205194Y-78008336D01*
X142205192Y-78008333D01*
X142201156Y-78001509D01*
X142088691Y-77889044D01*
X142081867Y-77885008D01*
X142081864Y-77885006D01*
X141958618Y-77812119D01*
X141958619Y-77812119D01*
X141951792Y-77808082D01*
X141944181Y-77805871D01*
X141944179Y-77805870D01*
X141810031Y-77766897D01*
X141750196Y-77728684D01*
X141720518Y-77664188D01*
X141730421Y-77593886D01*
X141776761Y-77540097D01*
X141845184Y-77519900D01*
X158484416Y-77519900D01*
X158552537Y-77539902D01*
G37*
%TD.AperFunction*%
%TA.AperFunction,Conductor*%
G36*
X149482812Y-122225160D02*
G01*
X149489395Y-122231289D01*
X151018395Y-123760289D01*
X151052421Y-123822601D01*
X151055300Y-123849384D01*
X151055300Y-125950598D01*
X151035298Y-126018719D01*
X150981642Y-126065212D01*
X150960418Y-126071881D01*
X150960542Y-126072309D01*
X150815421Y-126114470D01*
X150815419Y-126114471D01*
X150807808Y-126116682D01*
X150800981Y-126120719D01*
X150800982Y-126120719D01*
X150677736Y-126193606D01*
X150677733Y-126193608D01*
X150670909Y-126197644D01*
X150558444Y-126310109D01*
X150554408Y-126316933D01*
X150554406Y-126316936D01*
X150510261Y-126391582D01*
X150477482Y-126447008D01*
X150433109Y-126599742D01*
X150432605Y-126606147D01*
X150432604Y-126606152D01*
X150430493Y-126632977D01*
X150430300Y-126635433D01*
X150430300Y-126637902D01*
X150430301Y-128144900D01*
X150410299Y-128213021D01*
X150356643Y-128259514D01*
X150304301Y-128270900D01*
X150025300Y-128270900D01*
X149957179Y-128250898D01*
X149910686Y-128197242D01*
X149899300Y-128144900D01*
X149899299Y-126637907D01*
X149899299Y-126635434D01*
X149896491Y-126599742D01*
X149893460Y-126589307D01*
X149854330Y-126454621D01*
X149854329Y-126454619D01*
X149852118Y-126447008D01*
X149819339Y-126391582D01*
X149775194Y-126316936D01*
X149775192Y-126316933D01*
X149771156Y-126310109D01*
X149658691Y-126197644D01*
X149651867Y-126193608D01*
X149651864Y-126193606D01*
X149528618Y-126120719D01*
X149528619Y-126120719D01*
X149521792Y-126116682D01*
X149514181Y-126114471D01*
X149514179Y-126114470D01*
X149369058Y-126072309D01*
X149369589Y-126070482D01*
X149314250Y-126042638D01*
X149278150Y-125981505D01*
X149274300Y-125950598D01*
X149274300Y-122320384D01*
X149294302Y-122252263D01*
X149347958Y-122205770D01*
X149418232Y-122195666D01*
X149482812Y-122225160D01*
G37*
%TD.AperFunction*%
%TA.AperFunction,Conductor*%
G36*
X155357823Y-108548588D02*
G01*
X155378797Y-108565491D01*
X156633595Y-109820289D01*
X156667621Y-109882601D01*
X156670500Y-109909384D01*
X156670500Y-117346680D01*
X156667951Y-117370628D01*
X156667872Y-117372293D01*
X156665680Y-117382476D01*
X156666904Y-117392817D01*
X156669627Y-117415823D01*
X156669977Y-117421754D01*
X156670072Y-117421746D01*
X156670500Y-117426924D01*
X156670500Y-117432124D01*
X156671354Y-117437253D01*
X156671354Y-117437256D01*
X156673669Y-117451165D01*
X156674506Y-117457043D01*
X156680530Y-117507941D01*
X156684493Y-117516193D01*
X156685996Y-117525226D01*
X156690943Y-117534395D01*
X156690944Y-117534397D01*
X156710334Y-117570332D01*
X156713031Y-117575625D01*
X156731785Y-117614682D01*
X156731788Y-117614686D01*
X156735219Y-117621832D01*
X156738814Y-117626108D01*
X156740737Y-117628031D01*
X156742509Y-117629963D01*
X156742552Y-117630042D01*
X156742428Y-117630155D01*
X156742904Y-117630695D01*
X156745990Y-117636414D01*
X156753635Y-117643481D01*
X156785586Y-117673016D01*
X156789152Y-117676446D01*
X157965007Y-118852301D01*
X157999033Y-118914613D01*
X158001524Y-118951282D01*
X158000300Y-118966833D01*
X158000301Y-119843966D01*
X158001525Y-119859519D01*
X157986928Y-119928999D01*
X157965008Y-119958498D01*
X157224384Y-120699122D01*
X157205636Y-120714264D01*
X157204411Y-120715379D01*
X157195660Y-120721029D01*
X157189213Y-120729207D01*
X157189211Y-120729209D01*
X157174871Y-120747400D01*
X157170925Y-120751841D01*
X157170998Y-120751903D01*
X157167639Y-120755867D01*
X157163962Y-120759544D01*
X157152708Y-120775292D01*
X157149202Y-120779962D01*
X157117444Y-120820247D01*
X157114412Y-120828881D01*
X157109086Y-120836334D01*
X157095124Y-120883021D01*
X157094399Y-120885444D01*
X157092564Y-120891092D01*
X157078210Y-120931967D01*
X157075582Y-120939451D01*
X157075100Y-120945016D01*
X157075100Y-120947724D01*
X157074986Y-120950358D01*
X157074957Y-120950456D01*
X157074793Y-120950449D01*
X157074749Y-120951153D01*
X157072887Y-120957378D01*
X157074077Y-120987676D01*
X157075003Y-121011235D01*
X157075100Y-121016182D01*
X157075100Y-122167816D01*
X157055098Y-122235937D01*
X157038195Y-122256911D01*
X156526195Y-122768911D01*
X156463883Y-122802937D01*
X156393068Y-122797872D01*
X156345205Y-122764941D01*
X156344553Y-122763992D01*
X156226275Y-122658611D01*
X156218889Y-122654700D01*
X156159501Y-122623256D01*
X156086274Y-122584484D01*
X155932633Y-122545892D01*
X155925034Y-122545852D01*
X155925033Y-122545852D01*
X155859181Y-122545507D01*
X155774221Y-122545062D01*
X155766841Y-122546834D01*
X155766839Y-122546834D01*
X155627563Y-122580271D01*
X155627560Y-122580272D01*
X155620184Y-122582043D01*
X155479414Y-122654700D01*
X155360039Y-122758838D01*
X155268950Y-122888444D01*
X155246785Y-122945295D01*
X155216272Y-123023557D01*
X155211406Y-123036037D01*
X155210414Y-123043570D01*
X155210414Y-123043571D01*
X155195112Y-123159806D01*
X155190729Y-123193096D01*
X155191563Y-123200646D01*
X155206904Y-123339599D01*
X155208113Y-123350553D01*
X155210723Y-123357686D01*
X155210724Y-123357689D01*
X155233420Y-123419710D01*
X155238046Y-123490555D01*
X155203636Y-123552656D01*
X155141114Y-123586294D01*
X155070331Y-123580791D01*
X155025999Y-123552105D01*
X154670605Y-123196711D01*
X154636579Y-123134399D01*
X154633700Y-123107616D01*
X154633700Y-116983620D01*
X154636249Y-116959672D01*
X154636328Y-116958007D01*
X154638520Y-116947824D01*
X154634573Y-116914477D01*
X154634223Y-116908546D01*
X154634128Y-116908554D01*
X154633700Y-116903376D01*
X154633700Y-116898176D01*
X154632846Y-116893044D01*
X154630531Y-116879135D01*
X154629694Y-116873257D01*
X154624894Y-116832699D01*
X154624894Y-116832698D01*
X154623670Y-116822359D01*
X154619707Y-116814107D01*
X154618204Y-116805074D01*
X154593865Y-116759966D01*
X154591169Y-116754675D01*
X154572415Y-116715618D01*
X154572412Y-116715614D01*
X154568981Y-116708468D01*
X154565386Y-116704192D01*
X154563463Y-116702269D01*
X154561691Y-116700337D01*
X154561648Y-116700258D01*
X154561772Y-116700145D01*
X154561296Y-116699605D01*
X154558210Y-116693886D01*
X154518613Y-116657283D01*
X154515048Y-116653854D01*
X154340143Y-116478949D01*
X154306117Y-116416637D01*
X154304495Y-116372101D01*
X154308581Y-116343392D01*
X154308581Y-116343386D01*
X154309162Y-116339307D01*
X154309307Y-116325500D01*
X154290276Y-116168233D01*
X154234280Y-116020046D01*
X154197390Y-115966370D01*
X154148855Y-115895751D01*
X154148854Y-115895749D01*
X154144553Y-115889492D01*
X154026275Y-115784111D01*
X154018889Y-115780200D01*
X153892988Y-115713539D01*
X153892989Y-115713539D01*
X153886274Y-115709984D01*
X153732633Y-115671392D01*
X153725034Y-115671352D01*
X153725033Y-115671352D01*
X153659181Y-115671007D01*
X153574221Y-115670562D01*
X153566841Y-115672334D01*
X153566839Y-115672334D01*
X153427563Y-115705771D01*
X153427560Y-115705772D01*
X153420184Y-115707543D01*
X153279414Y-115780200D01*
X153273695Y-115785189D01*
X153269138Y-115789164D01*
X153160039Y-115884338D01*
X153068950Y-116013944D01*
X153011406Y-116161537D01*
X153010414Y-116169070D01*
X153010414Y-116169071D01*
X152996590Y-116274079D01*
X152990729Y-116318596D01*
X152993016Y-116339307D01*
X153003518Y-116434430D01*
X153008113Y-116476053D01*
X153062553Y-116624819D01*
X153066789Y-116631122D01*
X153066789Y-116631123D01*
X153084369Y-116657284D01*
X153150908Y-116756305D01*
X153156527Y-116761418D01*
X153156528Y-116761419D01*
X153209115Y-116809269D01*
X153268076Y-116862919D01*
X153407293Y-116938508D01*
X153560522Y-116978707D01*
X153657138Y-116980225D01*
X153718772Y-116981193D01*
X153786570Y-117002262D01*
X153805888Y-117018082D01*
X153837795Y-117049989D01*
X153871821Y-117112301D01*
X153874700Y-117139084D01*
X153874700Y-123263080D01*
X153872151Y-123287028D01*
X153872072Y-123288693D01*
X153869880Y-123298876D01*
X153871104Y-123309217D01*
X153873827Y-123332223D01*
X153874177Y-123338154D01*
X153874272Y-123338146D01*
X153874700Y-123343324D01*
X153874700Y-123348524D01*
X153875554Y-123353653D01*
X153875554Y-123353656D01*
X153877869Y-123367565D01*
X153878706Y-123373443D01*
X153883101Y-123410573D01*
X153884730Y-123424341D01*
X153888693Y-123432593D01*
X153890196Y-123441626D01*
X153895143Y-123450795D01*
X153895144Y-123450797D01*
X153914534Y-123486732D01*
X153917231Y-123492025D01*
X153935985Y-123531082D01*
X153935988Y-123531086D01*
X153939419Y-123538232D01*
X153943014Y-123542508D01*
X153944937Y-123544431D01*
X153946709Y-123546363D01*
X153946752Y-123546442D01*
X153946628Y-123546555D01*
X153947104Y-123547095D01*
X153950190Y-123552814D01*
X153957835Y-123559881D01*
X153989786Y-123589416D01*
X153993352Y-123592846D01*
X155090722Y-124690216D01*
X155105864Y-124708964D01*
X155106979Y-124710189D01*
X155112629Y-124718940D01*
X155120807Y-124725387D01*
X155120809Y-124725389D01*
X155139000Y-124739729D01*
X155143441Y-124743675D01*
X155143503Y-124743602D01*
X155147467Y-124746961D01*
X155151144Y-124750638D01*
X155166892Y-124761892D01*
X155171562Y-124765398D01*
X155211847Y-124797156D01*
X155220481Y-124800188D01*
X155227934Y-124805514D01*
X155277050Y-124820203D01*
X155282692Y-124822036D01*
X155323567Y-124836390D01*
X155331051Y-124839018D01*
X155336616Y-124839500D01*
X155339324Y-124839500D01*
X155341958Y-124839614D01*
X155342056Y-124839643D01*
X155342049Y-124839807D01*
X155342753Y-124839851D01*
X155348978Y-124841713D01*
X155402835Y-124839597D01*
X155407782Y-124839500D01*
X157376816Y-124839500D01*
X157418565Y-124846618D01*
X157461770Y-124861791D01*
X157461771Y-124861791D01*
X157469251Y-124864418D01*
X157474816Y-124864900D01*
X157881398Y-124864900D01*
X157949519Y-124884902D01*
X157996012Y-124938558D01*
X158002681Y-124959782D01*
X158003109Y-124959658D01*
X158047482Y-125112392D01*
X158051519Y-125119218D01*
X158124406Y-125242464D01*
X158124408Y-125242467D01*
X158128444Y-125249291D01*
X158240909Y-125361756D01*
X158247733Y-125365792D01*
X158247736Y-125365794D01*
X158349798Y-125426153D01*
X158377808Y-125442718D01*
X158385419Y-125444929D01*
X158385421Y-125444930D01*
X158434661Y-125459235D01*
X158530542Y-125487091D01*
X158536947Y-125487595D01*
X158536952Y-125487596D01*
X158563777Y-125489707D01*
X158563784Y-125489707D01*
X158566233Y-125489900D01*
X158598560Y-125489900D01*
X160122300Y-125489899D01*
X160190421Y-125509901D01*
X160236914Y-125563557D01*
X160248300Y-125615899D01*
X160248300Y-125894900D01*
X160228298Y-125963021D01*
X160174642Y-126009514D01*
X160122300Y-126020900D01*
X158598612Y-126020901D01*
X158566234Y-126020901D01*
X158543665Y-126022677D01*
X158536960Y-126023204D01*
X158536959Y-126023204D01*
X158530542Y-126023709D01*
X158524362Y-126025504D01*
X158524359Y-126025505D01*
X158385421Y-126065870D01*
X158385419Y-126065871D01*
X158377808Y-126068082D01*
X158367624Y-126074105D01*
X158247736Y-126145006D01*
X158247733Y-126145008D01*
X158240909Y-126149044D01*
X158128444Y-126261509D01*
X158124408Y-126268333D01*
X158124406Y-126268336D01*
X158064047Y-126370398D01*
X158047482Y-126398408D01*
X158003109Y-126551142D01*
X158002605Y-126557547D01*
X158002604Y-126557552D01*
X158000493Y-126584377D01*
X158000300Y-126586833D01*
X158000301Y-127463966D01*
X158003109Y-127499658D01*
X158004904Y-127505835D01*
X158004905Y-127505841D01*
X158023545Y-127570000D01*
X158047482Y-127652392D01*
X158051519Y-127659218D01*
X158124406Y-127782464D01*
X158124408Y-127782467D01*
X158128444Y-127789291D01*
X158240909Y-127901756D01*
X158247733Y-127905792D01*
X158247736Y-127905794D01*
X158349798Y-127966153D01*
X158377808Y-127982718D01*
X158385419Y-127984929D01*
X158385421Y-127984930D01*
X158519569Y-128023903D01*
X158579404Y-128062116D01*
X158609082Y-128126612D01*
X158599179Y-128196914D01*
X158552839Y-128250703D01*
X158484416Y-128270900D01*
X155105300Y-128270900D01*
X155037179Y-128250898D01*
X154990686Y-128197242D01*
X154979300Y-128144900D01*
X154979299Y-126637907D01*
X154979299Y-126635434D01*
X154976491Y-126599742D01*
X154973460Y-126589307D01*
X154934330Y-126454621D01*
X154934329Y-126454619D01*
X154932118Y-126447008D01*
X154899339Y-126391582D01*
X154855194Y-126316936D01*
X154855192Y-126316933D01*
X154851156Y-126310109D01*
X154738691Y-126197644D01*
X154731867Y-126193608D01*
X154731864Y-126193606D01*
X154608618Y-126120719D01*
X154608619Y-126120719D01*
X154601792Y-126116682D01*
X154594181Y-126114471D01*
X154594179Y-126114470D01*
X154503466Y-126088116D01*
X154449058Y-126072309D01*
X154442653Y-126071805D01*
X154442648Y-126071804D01*
X154415823Y-126069693D01*
X154415816Y-126069693D01*
X154413367Y-126069500D01*
X153975155Y-126069500D01*
X153536234Y-126069501D01*
X153513665Y-126071277D01*
X153506960Y-126071804D01*
X153506959Y-126071804D01*
X153500542Y-126072309D01*
X153494362Y-126074104D01*
X153494359Y-126074105D01*
X153355421Y-126114470D01*
X153355419Y-126114471D01*
X153347808Y-126116682D01*
X153340981Y-126120719D01*
X153340982Y-126120719D01*
X153217736Y-126193606D01*
X153217733Y-126193608D01*
X153210909Y-126197644D01*
X153098444Y-126310109D01*
X153094408Y-126316933D01*
X153094406Y-126316936D01*
X153050261Y-126391582D01*
X153017482Y-126447008D01*
X152973109Y-126599742D01*
X152972605Y-126606147D01*
X152972604Y-126606152D01*
X152970493Y-126632977D01*
X152970300Y-126635433D01*
X152970300Y-126637902D01*
X152970301Y-128144900D01*
X152950299Y-128213021D01*
X152896643Y-128259514D01*
X152844301Y-128270900D01*
X152565300Y-128270900D01*
X152497179Y-128250898D01*
X152450686Y-128197242D01*
X152439300Y-128144900D01*
X152439299Y-126637907D01*
X152439299Y-126635434D01*
X152436491Y-126599742D01*
X152433460Y-126589307D01*
X152394330Y-126454621D01*
X152394329Y-126454619D01*
X152392118Y-126447008D01*
X152359339Y-126391582D01*
X152315194Y-126316936D01*
X152315192Y-126316933D01*
X152311156Y-126310109D01*
X152198691Y-126197644D01*
X152191867Y-126193608D01*
X152191864Y-126193606D01*
X152068618Y-126120719D01*
X152068619Y-126120719D01*
X152061792Y-126116682D01*
X152054181Y-126114471D01*
X152054179Y-126114470D01*
X151909058Y-126072309D01*
X151909589Y-126070482D01*
X151854250Y-126042638D01*
X151818150Y-125981505D01*
X151814300Y-125950598D01*
X151814300Y-123693920D01*
X151816849Y-123669972D01*
X151816928Y-123668307D01*
X151819120Y-123658124D01*
X151815173Y-123624777D01*
X151814823Y-123618846D01*
X151814728Y-123618854D01*
X151814300Y-123613676D01*
X151814300Y-123608476D01*
X151813446Y-123603344D01*
X151811131Y-123589435D01*
X151810294Y-123583557D01*
X151805494Y-123542999D01*
X151805494Y-123542998D01*
X151804270Y-123532659D01*
X151800307Y-123524407D01*
X151798804Y-123515374D01*
X151792673Y-123504010D01*
X151774466Y-123470268D01*
X151771769Y-123464975D01*
X151753015Y-123425918D01*
X151753012Y-123425914D01*
X151749581Y-123418768D01*
X151745986Y-123414492D01*
X151744063Y-123412569D01*
X151742291Y-123410637D01*
X151742248Y-123410558D01*
X151742372Y-123410445D01*
X151741896Y-123409905D01*
X151738810Y-123404186D01*
X151699213Y-123367583D01*
X151695648Y-123364154D01*
X149224590Y-120893096D01*
X150040729Y-120893096D01*
X150046261Y-120943204D01*
X150056265Y-121033813D01*
X150058113Y-121050553D01*
X150060723Y-121057684D01*
X150060723Y-121057686D01*
X150108534Y-121188336D01*
X150112553Y-121199319D01*
X150116789Y-121205622D01*
X150116789Y-121205623D01*
X150192578Y-121318408D01*
X150200908Y-121330805D01*
X150206527Y-121335918D01*
X150206528Y-121335919D01*
X150217903Y-121346269D01*
X150318076Y-121437419D01*
X150457293Y-121513008D01*
X150610522Y-121553207D01*
X150694477Y-121554526D01*
X150761319Y-121555576D01*
X150761322Y-121555576D01*
X150768916Y-121555695D01*
X150923332Y-121520329D01*
X150993742Y-121484917D01*
X151058072Y-121452563D01*
X151058075Y-121452561D01*
X151064855Y-121449151D01*
X151070626Y-121444222D01*
X151070629Y-121444220D01*
X151179536Y-121351204D01*
X151179536Y-121351203D01*
X151185314Y-121346269D01*
X151277755Y-121217624D01*
X151336842Y-121070641D01*
X151348017Y-120992117D01*
X151358581Y-120917891D01*
X151358581Y-120917888D01*
X151359162Y-120913807D01*
X151359307Y-120900000D01*
X151340276Y-120742733D01*
X151284280Y-120594546D01*
X151194553Y-120463992D01*
X151076275Y-120358611D01*
X151068889Y-120354700D01*
X150942988Y-120288039D01*
X150942989Y-120288039D01*
X150936274Y-120284484D01*
X150782633Y-120245892D01*
X150775034Y-120245852D01*
X150775033Y-120245852D01*
X150709181Y-120245507D01*
X150624221Y-120245062D01*
X150616841Y-120246834D01*
X150616839Y-120246834D01*
X150477563Y-120280271D01*
X150477560Y-120280272D01*
X150470184Y-120282043D01*
X150329414Y-120354700D01*
X150210039Y-120458838D01*
X150118950Y-120588444D01*
X150116190Y-120595524D01*
X150075799Y-120699122D01*
X150061406Y-120736037D01*
X150060414Y-120743570D01*
X150060414Y-120743571D01*
X150042000Y-120883444D01*
X150040729Y-120893096D01*
X149224590Y-120893096D01*
X149066405Y-120734911D01*
X149032379Y-120672599D01*
X149029500Y-120645816D01*
X149029500Y-116321943D01*
X149049502Y-116253822D01*
X149103158Y-116207329D01*
X149173432Y-116197225D01*
X149238012Y-116226719D01*
X149245148Y-116234253D01*
X149245990Y-116235814D01*
X149251099Y-116240536D01*
X149251104Y-116240542D01*
X149285586Y-116272416D01*
X149289152Y-116275846D01*
X150310249Y-117296943D01*
X150344275Y-117359255D01*
X150346076Y-117402482D01*
X150340729Y-117443096D01*
X150345331Y-117484779D01*
X150355361Y-117575625D01*
X150358113Y-117600553D01*
X150360723Y-117607684D01*
X150360723Y-117607686D01*
X150407733Y-117736147D01*
X150412553Y-117749319D01*
X150416789Y-117755622D01*
X150416789Y-117755623D01*
X150491693Y-117867091D01*
X150500908Y-117880805D01*
X150506527Y-117885918D01*
X150506528Y-117885919D01*
X150517903Y-117896269D01*
X150618076Y-117987419D01*
X150757293Y-118063008D01*
X150910522Y-118103207D01*
X150994477Y-118104526D01*
X151061319Y-118105576D01*
X151061322Y-118105576D01*
X151068916Y-118105695D01*
X151223332Y-118070329D01*
X151293742Y-118034917D01*
X151358072Y-118002563D01*
X151358075Y-118002561D01*
X151364855Y-117999151D01*
X151370626Y-117994222D01*
X151370629Y-117994220D01*
X151479536Y-117901204D01*
X151479536Y-117901203D01*
X151485314Y-117896269D01*
X151577755Y-117767624D01*
X151636842Y-117620641D01*
X151652970Y-117507315D01*
X151658581Y-117467891D01*
X151658581Y-117467888D01*
X151659162Y-117463807D01*
X151659307Y-117450000D01*
X151657561Y-117435567D01*
X151646804Y-117346680D01*
X151640276Y-117292733D01*
X151584280Y-117144546D01*
X151494553Y-117013992D01*
X151481388Y-117002262D01*
X151420287Y-116947824D01*
X151376275Y-116908611D01*
X151236274Y-116834484D01*
X151082633Y-116795892D01*
X151075034Y-116795852D01*
X151075033Y-116795852D01*
X151014626Y-116795536D01*
X150933335Y-116795110D01*
X150865321Y-116774752D01*
X150844901Y-116758207D01*
X149966405Y-115879711D01*
X149932379Y-115817399D01*
X149929500Y-115790616D01*
X149929500Y-110343096D01*
X154890729Y-110343096D01*
X154908113Y-110500553D01*
X154962553Y-110649319D01*
X155050908Y-110780805D01*
X155056527Y-110785918D01*
X155056528Y-110785919D01*
X155067903Y-110796269D01*
X155168076Y-110887419D01*
X155307293Y-110963008D01*
X155460522Y-111003207D01*
X155544477Y-111004526D01*
X155611319Y-111005576D01*
X155611322Y-111005576D01*
X155618916Y-111005695D01*
X155773332Y-110970329D01*
X155843742Y-110934917D01*
X155908072Y-110902563D01*
X155908075Y-110902561D01*
X155914855Y-110899151D01*
X155920626Y-110894222D01*
X155920629Y-110894220D01*
X156029536Y-110801204D01*
X156029536Y-110801203D01*
X156035314Y-110796269D01*
X156127755Y-110667624D01*
X156186842Y-110520641D01*
X156209162Y-110363807D01*
X156209307Y-110350000D01*
X156190276Y-110192733D01*
X156134280Y-110044546D01*
X156103990Y-110000474D01*
X156048855Y-109920251D01*
X156048854Y-109920249D01*
X156044553Y-109913992D01*
X155926275Y-109808611D01*
X155918889Y-109804700D01*
X155792988Y-109738039D01*
X155792989Y-109738039D01*
X155786274Y-109734484D01*
X155632633Y-109695892D01*
X155625034Y-109695852D01*
X155625033Y-109695852D01*
X155559181Y-109695507D01*
X155474221Y-109695062D01*
X155466841Y-109696834D01*
X155466839Y-109696834D01*
X155327563Y-109730271D01*
X155327560Y-109730272D01*
X155320184Y-109732043D01*
X155179414Y-109804700D01*
X155060039Y-109908838D01*
X154968950Y-110038444D01*
X154911406Y-110186037D01*
X154910414Y-110193570D01*
X154910414Y-110193571D01*
X154895379Y-110307779D01*
X154890729Y-110343096D01*
X149929500Y-110343096D01*
X149929500Y-108660951D01*
X149949502Y-108592830D01*
X150003158Y-108546337D01*
X150073432Y-108536233D01*
X150138012Y-108565727D01*
X150147935Y-108575668D01*
X150150773Y-108579891D01*
X150267941Y-108686505D01*
X150407158Y-108762094D01*
X150560387Y-108802293D01*
X150644342Y-108803612D01*
X150711184Y-108804662D01*
X150711187Y-108804662D01*
X150718781Y-108804781D01*
X150873197Y-108769415D01*
X150943607Y-108734003D01*
X151007937Y-108701649D01*
X151007940Y-108701647D01*
X151014720Y-108698237D01*
X151020491Y-108693308D01*
X151020494Y-108693306D01*
X151129407Y-108600285D01*
X151129408Y-108600284D01*
X151135179Y-108595355D01*
X151145451Y-108581060D01*
X151201446Y-108537412D01*
X151247774Y-108528586D01*
X155289702Y-108528586D01*
X155357823Y-108548588D01*
G37*
%TD.AperFunction*%
%TA.AperFunction,Conductor*%
G36*
X157990792Y-122480507D02*
G01*
X158035815Y-122535403D01*
X158040822Y-122549468D01*
X158044624Y-122562553D01*
X158047482Y-122572392D01*
X158051519Y-122579218D01*
X158124406Y-122702464D01*
X158124408Y-122702467D01*
X158128444Y-122709291D01*
X158240909Y-122821756D01*
X158247733Y-122825792D01*
X158247736Y-122825794D01*
X158343161Y-122882228D01*
X158377808Y-122902718D01*
X158385419Y-122904929D01*
X158385421Y-122904930D01*
X158434661Y-122919235D01*
X158530542Y-122947091D01*
X158536947Y-122947595D01*
X158536952Y-122947596D01*
X158563777Y-122949707D01*
X158563784Y-122949707D01*
X158566233Y-122949900D01*
X158598560Y-122949900D01*
X160122300Y-122949899D01*
X160190421Y-122969901D01*
X160236914Y-123023557D01*
X160248300Y-123075899D01*
X160248300Y-123354900D01*
X160228298Y-123423021D01*
X160174642Y-123469514D01*
X160122300Y-123480900D01*
X158598612Y-123480901D01*
X158566234Y-123480901D01*
X158543665Y-123482677D01*
X158536960Y-123483204D01*
X158536959Y-123483204D01*
X158530542Y-123483709D01*
X158524362Y-123485504D01*
X158524359Y-123485505D01*
X158385421Y-123525870D01*
X158385419Y-123525871D01*
X158377808Y-123528082D01*
X158370981Y-123532119D01*
X158370982Y-123532119D01*
X158247736Y-123605006D01*
X158247733Y-123605008D01*
X158240909Y-123609044D01*
X158128444Y-123721509D01*
X158124408Y-123728333D01*
X158124406Y-123728336D01*
X158072020Y-123816916D01*
X158047482Y-123858408D01*
X158045271Y-123866019D01*
X158045270Y-123866021D01*
X158004884Y-124005034D01*
X158003109Y-124011142D01*
X158001282Y-124010611D01*
X157973438Y-124065950D01*
X157912305Y-124102050D01*
X157881398Y-124105900D01*
X157638584Y-124105900D01*
X157596835Y-124098782D01*
X157553630Y-124083609D01*
X157553629Y-124083609D01*
X157546149Y-124080982D01*
X157540584Y-124080500D01*
X156051901Y-124080500D01*
X155983780Y-124060498D01*
X155937287Y-124006842D01*
X155927183Y-123936568D01*
X155956677Y-123871988D01*
X156016403Y-123833604D01*
X156023771Y-123831680D01*
X156024650Y-123831479D01*
X156073332Y-123820329D01*
X156143742Y-123784917D01*
X156208072Y-123752563D01*
X156208075Y-123752561D01*
X156214855Y-123749151D01*
X156220626Y-123744222D01*
X156220629Y-123744220D01*
X156329542Y-123651199D01*
X156329543Y-123651198D01*
X156335314Y-123646269D01*
X156345586Y-123631974D01*
X156401581Y-123588326D01*
X156447909Y-123579500D01*
X156577880Y-123579500D01*
X156601828Y-123582049D01*
X156603493Y-123582128D01*
X156613676Y-123584320D01*
X156624017Y-123583096D01*
X156643492Y-123580791D01*
X156647023Y-123580373D01*
X156652954Y-123580023D01*
X156652946Y-123579928D01*
X156658124Y-123579500D01*
X156663324Y-123579500D01*
X156668453Y-123578646D01*
X156668456Y-123578646D01*
X156682365Y-123576331D01*
X156688243Y-123575494D01*
X156728801Y-123570694D01*
X156728802Y-123570694D01*
X156739141Y-123569470D01*
X156747393Y-123565507D01*
X156756426Y-123564004D01*
X156765595Y-123559057D01*
X156765597Y-123559056D01*
X156801532Y-123539666D01*
X156806825Y-123536969D01*
X156845882Y-123518215D01*
X156845886Y-123518212D01*
X156853032Y-123514781D01*
X156857308Y-123511186D01*
X156859231Y-123509263D01*
X156861163Y-123507491D01*
X156861242Y-123507448D01*
X156861355Y-123507572D01*
X156861895Y-123507096D01*
X156867614Y-123504010D01*
X156904217Y-123464413D01*
X156907646Y-123460848D01*
X157684816Y-122683678D01*
X157703564Y-122668536D01*
X157704789Y-122667421D01*
X157713540Y-122661771D01*
X157719987Y-122653593D01*
X157719989Y-122653591D01*
X157734329Y-122635400D01*
X157738275Y-122630959D01*
X157738202Y-122630897D01*
X157741561Y-122626933D01*
X157745238Y-122623256D01*
X157756492Y-122607508D01*
X157759998Y-122602838D01*
X157791756Y-122562553D01*
X157794788Y-122553919D01*
X157800114Y-122546466D01*
X157803099Y-122536485D01*
X157806671Y-122529193D01*
X157854601Y-122476816D01*
X157923239Y-122458667D01*
X157990792Y-122480507D01*
G37*
%TD.AperFunction*%
%TA.AperFunction,Conductor*%
G36*
X155423737Y-90914502D02*
G01*
X155444711Y-90931405D01*
X155983595Y-91470289D01*
X156017621Y-91532601D01*
X156020500Y-91559384D01*
X156020500Y-101456680D01*
X156017951Y-101480628D01*
X156017872Y-101482293D01*
X156015680Y-101492476D01*
X156016904Y-101502817D01*
X156019627Y-101525823D01*
X156019977Y-101531754D01*
X156020072Y-101531746D01*
X156020500Y-101536924D01*
X156020500Y-101542124D01*
X156021354Y-101547253D01*
X156021354Y-101547256D01*
X156023669Y-101561165D01*
X156024506Y-101567043D01*
X156030530Y-101617941D01*
X156034493Y-101626193D01*
X156035996Y-101635226D01*
X156040943Y-101644395D01*
X156040944Y-101644397D01*
X156060334Y-101680332D01*
X156063031Y-101685625D01*
X156081785Y-101724682D01*
X156081788Y-101724686D01*
X156085219Y-101731832D01*
X156088814Y-101736108D01*
X156090737Y-101738031D01*
X156092509Y-101739963D01*
X156092552Y-101740042D01*
X156092428Y-101740155D01*
X156092904Y-101740695D01*
X156095990Y-101746414D01*
X156103635Y-101753481D01*
X156135586Y-101783016D01*
X156139152Y-101786446D01*
X157965007Y-103612301D01*
X157999033Y-103674613D01*
X158001524Y-103711282D01*
X158000300Y-103726833D01*
X158000301Y-104603966D01*
X158003109Y-104639658D01*
X158004904Y-104645835D01*
X158004905Y-104645841D01*
X158045270Y-104784779D01*
X158047482Y-104792392D01*
X158064047Y-104820402D01*
X158124406Y-104922464D01*
X158124408Y-104922467D01*
X158128444Y-104929291D01*
X158240909Y-105041756D01*
X158247733Y-105045792D01*
X158247736Y-105045794D01*
X158339954Y-105100331D01*
X158377808Y-105122718D01*
X158385419Y-105124929D01*
X158385421Y-105124930D01*
X158427504Y-105137156D01*
X158530542Y-105167091D01*
X158536947Y-105167595D01*
X158536952Y-105167596D01*
X158563777Y-105169707D01*
X158563784Y-105169707D01*
X158566233Y-105169900D01*
X158598560Y-105169900D01*
X160122300Y-105169899D01*
X160190421Y-105189901D01*
X160236914Y-105243557D01*
X160248300Y-105295899D01*
X160248300Y-105574900D01*
X160228298Y-105643021D01*
X160174642Y-105689514D01*
X160122300Y-105700900D01*
X158598612Y-105700901D01*
X158566234Y-105700901D01*
X158543665Y-105702677D01*
X158536960Y-105703204D01*
X158536959Y-105703204D01*
X158530542Y-105703709D01*
X158524362Y-105705504D01*
X158524359Y-105705505D01*
X158385421Y-105745870D01*
X158385419Y-105745871D01*
X158377808Y-105748082D01*
X158358158Y-105759703D01*
X158247736Y-105825006D01*
X158247733Y-105825008D01*
X158240909Y-105829044D01*
X158128444Y-105941509D01*
X158124408Y-105948333D01*
X158124406Y-105948336D01*
X158109348Y-105973798D01*
X158047482Y-106078408D01*
X158045271Y-106086019D01*
X158045270Y-106086021D01*
X158042293Y-106096269D01*
X158003109Y-106231142D01*
X158002605Y-106237547D01*
X158002604Y-106237552D01*
X158000493Y-106264377D01*
X158000300Y-106266833D01*
X158000301Y-107143966D01*
X158003109Y-107179658D01*
X158004904Y-107185835D01*
X158004905Y-107185841D01*
X158011109Y-107207194D01*
X158047482Y-107332392D01*
X158051519Y-107339218D01*
X158124406Y-107462464D01*
X158124408Y-107462467D01*
X158128444Y-107469291D01*
X158240909Y-107581756D01*
X158247733Y-107585792D01*
X158247736Y-107585794D01*
X158349798Y-107646153D01*
X158377808Y-107662718D01*
X158385419Y-107664929D01*
X158385421Y-107664930D01*
X158434661Y-107679235D01*
X158530542Y-107707091D01*
X158536947Y-107707595D01*
X158536952Y-107707596D01*
X158563777Y-107709707D01*
X158563784Y-107709707D01*
X158566233Y-107709900D01*
X158598560Y-107709900D01*
X160122300Y-107709899D01*
X160190421Y-107729901D01*
X160236914Y-107783557D01*
X160248300Y-107835899D01*
X160248300Y-108114900D01*
X160228298Y-108183021D01*
X160174642Y-108229514D01*
X160122300Y-108240900D01*
X158598612Y-108240901D01*
X158566234Y-108240901D01*
X158543665Y-108242677D01*
X158536960Y-108243204D01*
X158536959Y-108243204D01*
X158530542Y-108243709D01*
X158524362Y-108245504D01*
X158524359Y-108245505D01*
X158385421Y-108285870D01*
X158385419Y-108285871D01*
X158377808Y-108288082D01*
X158370981Y-108292119D01*
X158370982Y-108292119D01*
X158247736Y-108365006D01*
X158247733Y-108365008D01*
X158240909Y-108369044D01*
X158128444Y-108481509D01*
X158124408Y-108488333D01*
X158124406Y-108488336D01*
X158064761Y-108589191D01*
X158047482Y-108618408D01*
X158003109Y-108771142D01*
X158002605Y-108777547D01*
X158002604Y-108777552D01*
X158000493Y-108804377D01*
X158000300Y-108806833D01*
X158000300Y-109171179D01*
X157980298Y-109239300D01*
X157926642Y-109285793D01*
X157856368Y-109295897D01*
X157788770Y-109263702D01*
X157764413Y-109241186D01*
X157760848Y-109237758D01*
X155642874Y-107119784D01*
X155627732Y-107101036D01*
X155626617Y-107099811D01*
X155620967Y-107091060D01*
X155612789Y-107084613D01*
X155612787Y-107084611D01*
X155594596Y-107070271D01*
X155590155Y-107066325D01*
X155590093Y-107066398D01*
X155586129Y-107063039D01*
X155582452Y-107059362D01*
X155566704Y-107048108D01*
X155562034Y-107044602D01*
X155521749Y-107012844D01*
X155513115Y-107009812D01*
X155505662Y-107004486D01*
X155456546Y-106989797D01*
X155450904Y-106987964D01*
X155410029Y-106973610D01*
X155410028Y-106973610D01*
X155402545Y-106970982D01*
X155396980Y-106970500D01*
X155394272Y-106970500D01*
X155391638Y-106970386D01*
X155391540Y-106970357D01*
X155391547Y-106970193D01*
X155390843Y-106970149D01*
X155384618Y-106968287D01*
X155330761Y-106970403D01*
X155325814Y-106970500D01*
X150453925Y-106970500D01*
X150429967Y-106967950D01*
X150428308Y-106967872D01*
X150418124Y-106965679D01*
X150407782Y-106966903D01*
X150407779Y-106966903D01*
X150384779Y-106969626D01*
X150378848Y-106969976D01*
X150378856Y-106970072D01*
X150373680Y-106970500D01*
X150368476Y-106970500D01*
X150349412Y-106973673D01*
X150343566Y-106974504D01*
X150332117Y-106975859D01*
X150292659Y-106980530D01*
X150284407Y-106984493D01*
X150275374Y-106985996D01*
X150266205Y-106990943D01*
X150266203Y-106990944D01*
X150246638Y-107001501D01*
X150233582Y-107008546D01*
X150230255Y-107010341D01*
X150225002Y-107013018D01*
X150178769Y-107035219D01*
X150174493Y-107038813D01*
X150172553Y-107040753D01*
X150170641Y-107042507D01*
X150170552Y-107042555D01*
X150170440Y-107042432D01*
X150169904Y-107042905D01*
X150164186Y-107045990D01*
X150157119Y-107053635D01*
X150127584Y-107085586D01*
X150124154Y-107089152D01*
X149319784Y-107893522D01*
X149301036Y-107908664D01*
X149299811Y-107909779D01*
X149291060Y-107915429D01*
X149284613Y-107923607D01*
X149284611Y-107923609D01*
X149270271Y-107941800D01*
X149266325Y-107946241D01*
X149266398Y-107946303D01*
X149263040Y-107950266D01*
X149259362Y-107953944D01*
X149256338Y-107958176D01*
X149252979Y-107962140D01*
X149251532Y-107960914D01*
X149202124Y-107999628D01*
X149131438Y-108006253D01*
X149068390Y-107973610D01*
X149033000Y-107912063D01*
X149029500Y-107882572D01*
X149029500Y-107259384D01*
X149049502Y-107191263D01*
X149066405Y-107170289D01*
X149896178Y-106340516D01*
X149958490Y-106306490D01*
X149987252Y-106303627D01*
X150111318Y-106305576D01*
X150111321Y-106305576D01*
X150118916Y-106305695D01*
X150273332Y-106270329D01*
X150343742Y-106234917D01*
X150408072Y-106202563D01*
X150408075Y-106202561D01*
X150414855Y-106199151D01*
X150420626Y-106194222D01*
X150420629Y-106194220D01*
X150529536Y-106101204D01*
X150529536Y-106101203D01*
X150535314Y-106096269D01*
X150627755Y-105967624D01*
X150686842Y-105820641D01*
X150704073Y-105699566D01*
X150708581Y-105667891D01*
X150708581Y-105667888D01*
X150709162Y-105663807D01*
X150709307Y-105650000D01*
X150708463Y-105643021D01*
X150691188Y-105500273D01*
X150690276Y-105492733D01*
X150636355Y-105350037D01*
X150630987Y-105279245D01*
X150664744Y-105216788D01*
X150726910Y-105182496D01*
X150754221Y-105179500D01*
X152946080Y-105179500D01*
X152970028Y-105182049D01*
X152971693Y-105182128D01*
X152981876Y-105184320D01*
X152992217Y-105183096D01*
X152997287Y-105182496D01*
X153015223Y-105180373D01*
X153021154Y-105180023D01*
X153021146Y-105179928D01*
X153026324Y-105179500D01*
X153031524Y-105179500D01*
X153036653Y-105178646D01*
X153036656Y-105178646D01*
X153050565Y-105176331D01*
X153056443Y-105175494D01*
X153097001Y-105170694D01*
X153097002Y-105170694D01*
X153107341Y-105169470D01*
X153115593Y-105165507D01*
X153124626Y-105164004D01*
X153133795Y-105159057D01*
X153133797Y-105159056D01*
X153169732Y-105139666D01*
X153175025Y-105136969D01*
X153214082Y-105118215D01*
X153214086Y-105118212D01*
X153221232Y-105114781D01*
X153225508Y-105111186D01*
X153227431Y-105109263D01*
X153229363Y-105107491D01*
X153229442Y-105107448D01*
X153229555Y-105107572D01*
X153230095Y-105107096D01*
X153235814Y-105104010D01*
X153272417Y-105064413D01*
X153275846Y-105060848D01*
X153296178Y-105040516D01*
X153358490Y-105006490D01*
X153387252Y-105003627D01*
X153511318Y-105005576D01*
X153511321Y-105005576D01*
X153518916Y-105005695D01*
X153673332Y-104970329D01*
X153768502Y-104922464D01*
X153808072Y-104902563D01*
X153808075Y-104902561D01*
X153814855Y-104899151D01*
X153820626Y-104894222D01*
X153820629Y-104894220D01*
X153929536Y-104801204D01*
X153929536Y-104801203D01*
X153935314Y-104796269D01*
X154027755Y-104667624D01*
X154086842Y-104520641D01*
X154109162Y-104363807D01*
X154109307Y-104350000D01*
X154090276Y-104192733D01*
X154034280Y-104044546D01*
X153969643Y-103950498D01*
X153948855Y-103920251D01*
X153948854Y-103920249D01*
X153944553Y-103913992D01*
X153826275Y-103808611D01*
X153716128Y-103750291D01*
X153665285Y-103700738D01*
X153649303Y-103631564D01*
X153658180Y-103591941D01*
X153684006Y-103527698D01*
X153684008Y-103527691D01*
X153686842Y-103520641D01*
X153697930Y-103442733D01*
X153708581Y-103367891D01*
X153708581Y-103367888D01*
X153709162Y-103363807D01*
X153709307Y-103350000D01*
X153690276Y-103192733D01*
X153634280Y-103044546D01*
X153625814Y-103032228D01*
X153548855Y-102920251D01*
X153548854Y-102920249D01*
X153544553Y-102913992D01*
X153426275Y-102808611D01*
X153418889Y-102804700D01*
X153292988Y-102738039D01*
X153292989Y-102738039D01*
X153286274Y-102734484D01*
X153132633Y-102695892D01*
X153125034Y-102695852D01*
X153125033Y-102695852D01*
X153059181Y-102695507D01*
X152974221Y-102695062D01*
X152966841Y-102696834D01*
X152966839Y-102696834D01*
X152827563Y-102730271D01*
X152827560Y-102730272D01*
X152820184Y-102732043D01*
X152679414Y-102804700D01*
X152560039Y-102908838D01*
X152468950Y-103038444D01*
X152449924Y-103087243D01*
X152417561Y-103170251D01*
X152411406Y-103186037D01*
X152411215Y-103187489D01*
X152376239Y-103246247D01*
X152312707Y-103277937D01*
X152242128Y-103270247D01*
X152186671Y-103225274D01*
X152148855Y-103170251D01*
X152148854Y-103170249D01*
X152144553Y-103163992D01*
X152026275Y-103058611D01*
X151886274Y-102984484D01*
X151878911Y-102982635D01*
X151878907Y-102982633D01*
X151824805Y-102969044D01*
X151763609Y-102933049D01*
X151731588Y-102869684D01*
X151729500Y-102846840D01*
X151729500Y-98014745D01*
X151749502Y-97946624D01*
X151803158Y-97900131D01*
X151873432Y-97890027D01*
X151938012Y-97919521D01*
X151961752Y-97949857D01*
X151962553Y-97949319D01*
X152005434Y-98013132D01*
X152050908Y-98080805D01*
X152056527Y-98085918D01*
X152056528Y-98085919D01*
X152067903Y-98096269D01*
X152168076Y-98187419D01*
X152307293Y-98263008D01*
X152460522Y-98303207D01*
X152544477Y-98304526D01*
X152611319Y-98305576D01*
X152611322Y-98305576D01*
X152618916Y-98305695D01*
X152773332Y-98270329D01*
X152843742Y-98234917D01*
X152908072Y-98202563D01*
X152908075Y-98202561D01*
X152914855Y-98199151D01*
X152920626Y-98194222D01*
X152920629Y-98194220D01*
X153029536Y-98101204D01*
X153029536Y-98101203D01*
X153035314Y-98096269D01*
X153127755Y-97967624D01*
X153186842Y-97820641D01*
X153209162Y-97663807D01*
X153209307Y-97650000D01*
X153190276Y-97492733D01*
X153134280Y-97344546D01*
X153044553Y-97213992D01*
X153038876Y-97208934D01*
X153035987Y-97205657D01*
X153005941Y-97141331D01*
X153004500Y-97122330D01*
X153004500Y-95983205D01*
X153024502Y-95915084D01*
X153078158Y-95868591D01*
X153148432Y-95858487D01*
X153213012Y-95887981D01*
X153242767Y-95926003D01*
X153252772Y-95945640D01*
X153264285Y-95961485D01*
X153338515Y-96035715D01*
X153354358Y-96047226D01*
X153447897Y-96094886D01*
X153466522Y-96100938D01*
X153478108Y-96102773D01*
X153491789Y-96101005D01*
X153495862Y-96087491D01*
X154004000Y-96087491D01*
X154007887Y-96100727D01*
X154022345Y-96102701D01*
X154033473Y-96100938D01*
X154052107Y-96094885D01*
X154145642Y-96047226D01*
X154161485Y-96035715D01*
X154235715Y-95961485D01*
X154247226Y-95945642D01*
X154294885Y-95852107D01*
X154297149Y-95845138D01*
X154296253Y-95838211D01*
X154282281Y-95834000D01*
X154022115Y-95834000D01*
X154006876Y-95838475D01*
X154005671Y-95839865D01*
X154004000Y-95847548D01*
X154004000Y-96087491D01*
X153495862Y-96087491D01*
X153496000Y-96087033D01*
X153496000Y-95452000D01*
X153516002Y-95383879D01*
X153569658Y-95337386D01*
X153622000Y-95326000D01*
X154282740Y-95326000D01*
X154295976Y-95322113D01*
X154297020Y-95314466D01*
X154294885Y-95307893D01*
X154247226Y-95214358D01*
X154235715Y-95198515D01*
X154226648Y-95189448D01*
X154192622Y-95127136D01*
X154197687Y-95056321D01*
X154226648Y-95011258D01*
X154243135Y-94994771D01*
X154299868Y-94883427D01*
X154314500Y-94791045D01*
X154314499Y-94448956D01*
X154299868Y-94356573D01*
X154294113Y-94345277D01*
X154283665Y-94324773D01*
X154243135Y-94245229D01*
X154236123Y-94238217D01*
X154230296Y-94230197D01*
X154233049Y-94228197D01*
X154207379Y-94181187D01*
X154204500Y-94154404D01*
X154204500Y-93735500D01*
X154224502Y-93667379D01*
X154278158Y-93620886D01*
X154330500Y-93609500D01*
X154431834Y-93609500D01*
X154526555Y-93594498D01*
X154640723Y-93536326D01*
X154731326Y-93445723D01*
X154789498Y-93331555D01*
X154804500Y-93236834D01*
X154804500Y-92873166D01*
X154789498Y-92778445D01*
X154731326Y-92664277D01*
X154640723Y-92573674D01*
X154559458Y-92532267D01*
X154507843Y-92483518D01*
X154490777Y-92414603D01*
X154513678Y-92347402D01*
X154559458Y-92307733D01*
X154565313Y-92304750D01*
X154640723Y-92266326D01*
X154731326Y-92175723D01*
X154789498Y-92061555D01*
X154804500Y-91966834D01*
X154804500Y-91603166D01*
X154789498Y-91508445D01*
X154731326Y-91394277D01*
X154640723Y-91303674D01*
X154559458Y-91262267D01*
X154507843Y-91213518D01*
X154490777Y-91144603D01*
X154513678Y-91077402D01*
X154559458Y-91037733D01*
X154565313Y-91034750D01*
X154640723Y-90996326D01*
X154705644Y-90931405D01*
X154767956Y-90897379D01*
X154794739Y-90894500D01*
X155355616Y-90894500D01*
X155423737Y-90914502D01*
G37*
%TD.AperFunction*%
%TA.AperFunction,Conductor*%
G36*
X150902743Y-97844785D02*
G01*
X150953904Y-97894011D01*
X150970500Y-97956516D01*
X150970500Y-103246080D01*
X150967951Y-103270028D01*
X150967872Y-103271693D01*
X150965680Y-103281876D01*
X150966904Y-103292217D01*
X150969627Y-103315223D01*
X150969977Y-103321154D01*
X150970072Y-103321146D01*
X150970500Y-103326324D01*
X150970500Y-103331524D01*
X150971354Y-103336653D01*
X150971354Y-103336656D01*
X150973669Y-103350565D01*
X150974506Y-103356443D01*
X150980530Y-103407341D01*
X150984493Y-103415593D01*
X150985996Y-103424626D01*
X150990944Y-103433797D01*
X150994317Y-103443648D01*
X150991196Y-103444716D01*
X151002310Y-103505129D01*
X150991837Y-103584682D01*
X150990729Y-103593096D01*
X150998448Y-103663008D01*
X151006740Y-103738115D01*
X151008113Y-103750553D01*
X151026647Y-103801201D01*
X151031274Y-103872044D01*
X150996864Y-103934145D01*
X150934342Y-103967784D01*
X150908321Y-103970500D01*
X149232901Y-103970500D01*
X149164780Y-103950498D01*
X149118287Y-103896842D01*
X149108183Y-103826568D01*
X149115993Y-103797504D01*
X149134008Y-103752691D01*
X149134008Y-103752690D01*
X149136842Y-103745641D01*
X149153371Y-103629501D01*
X149158581Y-103592891D01*
X149158581Y-103592888D01*
X149159162Y-103588807D01*
X149159307Y-103575000D01*
X149140276Y-103417733D01*
X149084280Y-103269546D01*
X149011735Y-103163992D01*
X148998855Y-103145251D01*
X148998854Y-103145249D01*
X148994553Y-103138992D01*
X148988883Y-103133940D01*
X148988338Y-103133322D01*
X148958293Y-103068996D01*
X148967794Y-102998638D01*
X148985639Y-102971502D01*
X148985314Y-102971269D01*
X149033762Y-102903846D01*
X149077755Y-102842624D01*
X149136842Y-102695641D01*
X149146198Y-102629899D01*
X149158581Y-102542891D01*
X149158581Y-102542888D01*
X149159162Y-102538807D01*
X149159307Y-102525000D01*
X149156851Y-102504700D01*
X149148784Y-102438039D01*
X149140276Y-102367733D01*
X149084280Y-102219546D01*
X148994553Y-102088992D01*
X148876275Y-101983611D01*
X148868889Y-101979700D01*
X148742988Y-101913039D01*
X148742989Y-101913039D01*
X148736274Y-101909484D01*
X148582633Y-101870892D01*
X148575034Y-101870852D01*
X148575033Y-101870852D01*
X148509181Y-101870507D01*
X148424221Y-101870062D01*
X148416841Y-101871834D01*
X148416839Y-101871834D01*
X148277563Y-101905271D01*
X148277560Y-101905272D01*
X148270184Y-101907043D01*
X148129414Y-101979700D01*
X148010039Y-102083838D01*
X147918950Y-102213444D01*
X147861406Y-102361037D01*
X147860414Y-102368572D01*
X147858550Y-102375832D01*
X147822236Y-102436839D01*
X147758705Y-102468528D01*
X147736508Y-102470499D01*
X147642229Y-102470499D01*
X147574108Y-102450497D01*
X147553134Y-102433595D01*
X147166405Y-102046867D01*
X147132380Y-101984554D01*
X147129500Y-101957771D01*
X147129500Y-101642229D01*
X147149502Y-101574108D01*
X147166405Y-101553134D01*
X150589424Y-98130115D01*
X150604910Y-98117607D01*
X150608135Y-98114673D01*
X150616883Y-98109024D01*
X150636004Y-98084769D01*
X150639560Y-98080768D01*
X150639460Y-98080683D01*
X150642813Y-98076726D01*
X150646495Y-98073044D01*
X150656883Y-98058508D01*
X150660402Y-98053821D01*
X150689947Y-98016342D01*
X150692780Y-98008274D01*
X150697754Y-98001314D01*
X150711421Y-97955613D01*
X150713257Y-97949964D01*
X150725618Y-97914766D01*
X150767061Y-97857121D01*
X150833091Y-97831034D01*
X150902743Y-97844785D01*
G37*
%TD.AperFunction*%
%TD*%
M02*
