%TF.GenerationSoftware,KiCad,Pcbnew,6.0.11-2627ca5db0~126~ubuntu20.04.1*%
%TF.CreationDate,2023-02-28T16:59:55+07:00*%
%TF.ProjectId,Bluepill-USB-C,426c7565-7069-46c6-9c2d-5553422d432e,rev?*%
%TF.SameCoordinates,Original*%
%TF.FileFunction,Copper,L3,Inr*%
%TF.FilePolarity,Positive*%
%FSLAX46Y46*%
G04 Gerber Fmt 4.6, Leading zero omitted, Abs format (unit mm)*
G04 Created by KiCad (PCBNEW 6.0.11-2627ca5db0~126~ubuntu20.04.1) date 2023-02-28 16:59:55*
%MOMM*%
%LPD*%
G01*
G04 APERTURE LIST*
G04 Aperture macros list*
%AMRoundRect*
0 Rectangle with rounded corners*
0 $1 Rounding radius*
0 $2 $3 $4 $5 $6 $7 $8 $9 X,Y pos of 4 corners*
0 Add a 4 corners polygon primitive as box body*
4,1,4,$2,$3,$4,$5,$6,$7,$8,$9,$2,$3,0*
0 Add four circle primitives for the rounded corners*
1,1,$1+$1,$2,$3*
1,1,$1+$1,$4,$5*
1,1,$1+$1,$6,$7*
1,1,$1+$1,$8,$9*
0 Add four rect primitives between the rounded corners*
20,1,$1+$1,$2,$3,$4,$5,0*
20,1,$1+$1,$4,$5,$6,$7,0*
20,1,$1+$1,$6,$7,$8,$9,0*
20,1,$1+$1,$8,$9,$2,$3,0*%
G04 Aperture macros list end*
%TA.AperFunction,ComponentPad*%
%ADD10C,1.500000*%
%TD*%
%TA.AperFunction,ComponentPad*%
%ADD11RoundRect,0.375000X0.375000X-1.125000X0.375000X1.125000X-0.375000X1.125000X-0.375000X-1.125000X0*%
%TD*%
%TA.AperFunction,ComponentPad*%
%ADD12RoundRect,0.375000X-1.125000X-0.375000X1.125000X-0.375000X1.125000X0.375000X-1.125000X0.375000X0*%
%TD*%
%TA.AperFunction,ComponentPad*%
%ADD13O,1.000000X1.800000*%
%TD*%
%TA.AperFunction,ComponentPad*%
%ADD14O,1.000000X2.100000*%
%TD*%
%TA.AperFunction,ComponentPad*%
%ADD15RoundRect,0.375000X1.125000X0.375000X-1.125000X0.375000X-1.125000X-0.375000X1.125000X-0.375000X0*%
%TD*%
%TA.AperFunction,ViaPad*%
%ADD16C,0.800000*%
%TD*%
%TA.AperFunction,Conductor*%
%ADD17C,0.600000*%
%TD*%
G04 APERTURE END LIST*
D10*
%TO.N,GND*%
%TO.C,J2*%
X146354800Y-128524000D03*
D11*
X146354800Y-127824000D03*
%TO.N,/PA14*%
X148894800Y-127824000D03*
D10*
X148894800Y-128524000D03*
%TO.N,/PA13*%
X151434800Y-128524000D03*
D11*
X151434800Y-127824000D03*
D10*
%TO.N,+3V3*%
X153974800Y-128524000D03*
D11*
X153974800Y-127824000D03*
%TD*%
D12*
%TO.N,/PB12*%
%TO.C,J3*%
X140574800Y-78765400D03*
D10*
X139824800Y-78765400D03*
%TO.N,/PB13*%
X139824800Y-81305400D03*
D12*
X140574800Y-81305400D03*
%TO.N,/PB14*%
X140574800Y-83845400D03*
D10*
X139824800Y-83845400D03*
%TO.N,/PB15*%
X139824800Y-86385400D03*
D12*
X140574800Y-86385400D03*
%TO.N,/PA8*%
X140574800Y-88925400D03*
D10*
X139824800Y-88925400D03*
D12*
%TO.N,/PA9*%
X140574800Y-91465400D03*
D10*
X139824800Y-91465400D03*
D12*
%TO.N,/PA10*%
X140574800Y-94005400D03*
D10*
X139824800Y-94005400D03*
%TO.N,/PA11*%
X139824800Y-96545400D03*
D12*
X140574800Y-96545400D03*
D10*
%TO.N,/PA12*%
X139824800Y-99085400D03*
D12*
X140574800Y-99085400D03*
%TO.N,/PA15*%
X140574800Y-101625400D03*
D10*
X139824800Y-101625400D03*
%TO.N,/PB3*%
X139824800Y-104165400D03*
D12*
X140574800Y-104165400D03*
%TO.N,/PB4*%
X140574800Y-106705400D03*
D10*
X139824800Y-106705400D03*
%TO.N,/PB5*%
X139824800Y-109245400D03*
D12*
X140574800Y-109245400D03*
%TO.N,/PB6*%
X140574800Y-111785400D03*
D10*
X139824800Y-111785400D03*
%TO.N,/PB7*%
X139824800Y-114325400D03*
D12*
X140574800Y-114325400D03*
%TO.N,/PB8*%
X140574800Y-116865400D03*
D10*
X139824800Y-116865400D03*
%TO.N,/PB9*%
X139824800Y-119405400D03*
D12*
X140574800Y-119405400D03*
%TO.N,VCC*%
X140574800Y-121945400D03*
D10*
X139824800Y-121945400D03*
%TO.N,GND*%
X139824800Y-124485400D03*
D12*
X140574800Y-124485400D03*
D10*
%TO.N,+3V3*%
X139824800Y-127025400D03*
D12*
X140574800Y-127025400D03*
%TD*%
D13*
%TO.N,GND*%
%TO.C,J1*%
X145844800Y-79412830D03*
D14*
X145844800Y-83612830D03*
D13*
X154484800Y-79412830D03*
D14*
X154484800Y-83612830D03*
%TD*%
D10*
%TO.N,/VB*%
%TO.C,J4*%
X160504800Y-127025400D03*
D15*
X159754800Y-127025400D03*
%TO.N,/PC15*%
X159754800Y-124485400D03*
D10*
X160504800Y-124485400D03*
D15*
%TO.N,/PC14*%
X159754800Y-121945400D03*
D10*
X160504800Y-121945400D03*
D15*
%TO.N,/PC13*%
X159754800Y-119405400D03*
D10*
X160504800Y-119405400D03*
%TO.N,/PA0*%
X160504800Y-116865400D03*
D15*
X159754800Y-116865400D03*
%TO.N,/PA1*%
X159754800Y-114325400D03*
D10*
X160504800Y-114325400D03*
D15*
%TO.N,/PA2*%
X159754800Y-111785400D03*
D10*
X160504800Y-111785400D03*
D15*
%TO.N,/PA3*%
X159754800Y-109245400D03*
D10*
X160504800Y-109245400D03*
D15*
%TO.N,/PA4*%
X159754800Y-106705400D03*
D10*
X160504800Y-106705400D03*
D15*
%TO.N,/MEM_CLK*%
X159754800Y-104165400D03*
D10*
X160504800Y-104165400D03*
%TO.N,/MEM_MISO*%
X160504800Y-101625400D03*
D15*
X159754800Y-101625400D03*
D10*
%TO.N,/MEM_MOSI*%
X160504800Y-99085400D03*
D15*
X159754800Y-99085400D03*
D10*
%TO.N,/PB0*%
X160504800Y-96545400D03*
D15*
X159754800Y-96545400D03*
%TO.N,/PB1*%
X159754800Y-94005400D03*
D10*
X160504800Y-94005400D03*
%TO.N,/PB10*%
X160504800Y-91465400D03*
D15*
X159754800Y-91465400D03*
%TO.N,/PB11*%
X159754800Y-88925400D03*
D10*
X160504800Y-88925400D03*
D15*
%TO.N,/~{NRST}*%
X159754800Y-86385400D03*
D10*
X160504800Y-86385400D03*
%TO.N,+3V3*%
X160504800Y-83845400D03*
D15*
X159754800Y-83845400D03*
D10*
%TO.N,GND*%
X160504800Y-81305400D03*
D15*
X159754800Y-81305400D03*
D10*
%TO.N,VCC*%
X160504800Y-78765400D03*
D15*
X159754800Y-78765400D03*
%TD*%
D16*
%TO.N,GND*%
X154500000Y-85400000D03*
X144700000Y-104500000D03*
X145900000Y-117750000D03*
X146950000Y-114200000D03*
X156311600Y-87020400D03*
X150500000Y-98850000D03*
X151600000Y-89700000D03*
X146950000Y-115750000D03*
X152450000Y-93900000D03*
X150300000Y-102250000D03*
X157950000Y-123200000D03*
X150200000Y-126000000D03*
X153300000Y-120150000D03*
X155250000Y-116000000D03*
X147650000Y-126000000D03*
X146150000Y-87050000D03*
X151300000Y-112100000D03*
X145850000Y-85350000D03*
X152700000Y-126000000D03*
X157800000Y-92650000D03*
X155450000Y-95200000D03*
%TO.N,/PC15*%
X153650000Y-116325500D03*
%TO.N,/~{NRST}*%
X151650000Y-103600000D03*
X151350000Y-94050000D03*
%TO.N,VCC*%
X155600000Y-88350000D03*
%TO.N,+3V3*%
X150700000Y-120900000D03*
X146500000Y-95650000D03*
X152550000Y-97650000D03*
X146700000Y-111900000D03*
X144050000Y-103050000D03*
X155550000Y-110350000D03*
%TO.N,VBUS*%
X153376705Y-86193677D03*
X147036412Y-86106641D03*
%TO.N,/PA13*%
X150050000Y-105650000D03*
%TO.N,/PA14*%
X148200000Y-106200000D03*
%TO.N,/PA11*%
X152200000Y-86600000D03*
X148500000Y-102525000D03*
%TO.N,/MEM_MISO*%
X153050000Y-103350000D03*
%TO.N,/PA4*%
X153450000Y-104350000D03*
%TO.N,/PA0*%
X151000000Y-117450000D03*
%TO.N,/PC13*%
X150649865Y-108149086D03*
%TO.N,/BOOT0*%
X147750000Y-96600000D03*
X145880181Y-109344779D03*
%TO.N,/PC13*%
X155850000Y-123200000D03*
%TO.N,/D+*%
X147325000Y-80000000D03*
X151925000Y-80000000D03*
X147325000Y-80000000D03*
%TO.N,/D-*%
X148375000Y-80000000D03*
X148375000Y-80000000D03*
X152975000Y-80000000D03*
%TO.N,/PA12*%
X148150000Y-86650000D03*
X148500000Y-103575000D03*
%TD*%
D17*
%TO.N,VCC*%
X141954600Y-121945400D02*
X143000000Y-120900000D01*
X156520200Y-81300000D02*
X159054800Y-78765400D01*
X143000000Y-87350000D02*
X143000000Y-83650000D01*
X143000000Y-83650000D02*
X145350000Y-81300000D01*
X141274800Y-121945400D02*
X141954600Y-121945400D01*
X143000000Y-120900000D02*
X143000000Y-90600000D01*
X155600000Y-88350000D02*
X151700000Y-88350000D01*
X145350000Y-81300000D02*
X149700000Y-81300000D01*
X149700000Y-86350000D02*
X149700000Y-81300000D01*
X151700000Y-88350000D02*
X149700000Y-86350000D01*
X143000000Y-90600000D02*
X143000000Y-87350000D01*
X149700000Y-81300000D02*
X156520200Y-81300000D01*
%TD*%
%TA.AperFunction,Conductor*%
%TO.N,+3V3*%
G36*
X157918332Y-80790215D02*
G01*
X157975168Y-80832762D01*
X157999979Y-80899282D01*
X158000300Y-80908271D01*
X158000301Y-81333583D01*
X158000301Y-81743966D01*
X158003109Y-81779658D01*
X158004904Y-81785835D01*
X158004905Y-81785841D01*
X158045270Y-81924779D01*
X158047482Y-81932392D01*
X158051519Y-81939218D01*
X158124406Y-82062464D01*
X158124408Y-82062467D01*
X158128444Y-82069291D01*
X158240909Y-82181756D01*
X158247733Y-82185792D01*
X158247736Y-82185794D01*
X158349798Y-82246153D01*
X158377808Y-82262718D01*
X158385419Y-82264929D01*
X158385421Y-82264930D01*
X158434661Y-82279235D01*
X158530542Y-82307091D01*
X158536947Y-82307595D01*
X158536952Y-82307596D01*
X158563777Y-82309707D01*
X158563784Y-82309707D01*
X158566233Y-82309900D01*
X158598560Y-82309900D01*
X160122300Y-82309899D01*
X160190421Y-82329901D01*
X160236914Y-82383557D01*
X160248300Y-82435899D01*
X160248300Y-82715400D01*
X160228298Y-82783521D01*
X160174642Y-82830014D01*
X160122300Y-82841400D01*
X160026915Y-82841400D01*
X160011676Y-82845875D01*
X160010471Y-82847265D01*
X160008800Y-82854948D01*
X160008800Y-82972074D01*
X160016330Y-82997719D01*
X160211395Y-83192784D01*
X160245421Y-83255096D01*
X160248300Y-83281879D01*
X160248300Y-83643920D01*
X160228298Y-83712041D01*
X160174642Y-83758534D01*
X160104368Y-83768638D01*
X160039788Y-83739144D01*
X160033205Y-83733015D01*
X160021610Y-83721420D01*
X160011524Y-83715913D01*
X160008800Y-83723217D01*
X160008800Y-83964074D01*
X160012037Y-83975099D01*
X160019130Y-83971860D01*
X160033205Y-83957785D01*
X160095517Y-83923759D01*
X160166332Y-83928824D01*
X160223168Y-83971371D01*
X160247979Y-84037891D01*
X160248300Y-84046880D01*
X160248300Y-84408921D01*
X160228298Y-84477042D01*
X160211395Y-84498016D01*
X160021612Y-84687799D01*
X160008800Y-84711261D01*
X160008800Y-84831284D01*
X160013275Y-84846523D01*
X160014665Y-84847728D01*
X160022348Y-84849399D01*
X160122300Y-84849399D01*
X160190421Y-84869401D01*
X160236914Y-84923057D01*
X160248300Y-84975399D01*
X160248300Y-85254900D01*
X160228298Y-85323021D01*
X160174642Y-85369514D01*
X160122300Y-85380900D01*
X158598612Y-85380901D01*
X158566234Y-85380901D01*
X158543665Y-85382677D01*
X158536960Y-85383204D01*
X158536959Y-85383204D01*
X158530542Y-85383709D01*
X158524362Y-85385504D01*
X158524359Y-85385505D01*
X158385421Y-85425870D01*
X158385419Y-85425871D01*
X158377808Y-85428082D01*
X158370981Y-85432119D01*
X158370982Y-85432119D01*
X158247736Y-85505006D01*
X158247733Y-85505008D01*
X158240909Y-85509044D01*
X158128444Y-85621509D01*
X158124408Y-85628333D01*
X158124406Y-85628336D01*
X158088702Y-85688709D01*
X158047482Y-85758408D01*
X158003109Y-85911142D01*
X158002605Y-85917547D01*
X158002604Y-85917552D01*
X158000493Y-85944377D01*
X158000300Y-85946833D01*
X158000301Y-86823966D01*
X158003109Y-86859658D01*
X158004904Y-86865838D01*
X158004905Y-86865841D01*
X158034476Y-86967624D01*
X158047482Y-87012392D01*
X158051519Y-87019218D01*
X158124406Y-87142464D01*
X158124408Y-87142467D01*
X158128444Y-87149291D01*
X158240909Y-87261756D01*
X158247733Y-87265792D01*
X158247736Y-87265794D01*
X158326856Y-87312585D01*
X158377808Y-87342718D01*
X158385419Y-87344929D01*
X158385421Y-87344930D01*
X158434661Y-87359235D01*
X158530542Y-87387091D01*
X158536947Y-87387595D01*
X158536952Y-87387596D01*
X158563777Y-87389707D01*
X158563784Y-87389707D01*
X158566233Y-87389900D01*
X158598560Y-87389900D01*
X160122300Y-87389899D01*
X160190421Y-87409901D01*
X160236914Y-87463557D01*
X160248300Y-87515899D01*
X160248300Y-87794900D01*
X160228298Y-87863021D01*
X160174642Y-87909514D01*
X160122300Y-87920900D01*
X158598612Y-87920901D01*
X158566234Y-87920901D01*
X158543665Y-87922677D01*
X158536960Y-87923204D01*
X158536959Y-87923204D01*
X158530542Y-87923709D01*
X158524362Y-87925504D01*
X158524359Y-87925505D01*
X158385421Y-87965870D01*
X158385419Y-87965871D01*
X158377808Y-87968082D01*
X158370981Y-87972119D01*
X158370982Y-87972119D01*
X158247736Y-88045006D01*
X158247733Y-88045008D01*
X158240909Y-88049044D01*
X158128444Y-88161509D01*
X158124408Y-88168333D01*
X158124406Y-88168336D01*
X158114178Y-88185631D01*
X158047482Y-88298408D01*
X158003109Y-88451142D01*
X158002605Y-88457547D01*
X158002604Y-88457552D01*
X158000493Y-88484377D01*
X158000300Y-88486833D01*
X158000301Y-89363966D01*
X158003109Y-89399658D01*
X158004904Y-89405838D01*
X158004905Y-89405841D01*
X158042730Y-89536037D01*
X158047482Y-89552392D01*
X158051519Y-89559218D01*
X158124406Y-89682464D01*
X158124408Y-89682467D01*
X158128444Y-89689291D01*
X158240909Y-89801756D01*
X158247733Y-89805792D01*
X158247736Y-89805794D01*
X158323420Y-89850553D01*
X158377808Y-89882718D01*
X158385419Y-89884929D01*
X158385421Y-89884930D01*
X158434661Y-89899235D01*
X158530542Y-89927091D01*
X158536947Y-89927595D01*
X158536952Y-89927596D01*
X158563777Y-89929707D01*
X158563784Y-89929707D01*
X158566233Y-89929900D01*
X158598560Y-89929900D01*
X160122300Y-89929899D01*
X160190421Y-89949901D01*
X160236914Y-90003557D01*
X160248300Y-90055899D01*
X160248300Y-90334900D01*
X160228298Y-90403021D01*
X160174642Y-90449514D01*
X160122300Y-90460900D01*
X158598612Y-90460901D01*
X158566234Y-90460901D01*
X158543665Y-90462677D01*
X158536960Y-90463204D01*
X158536959Y-90463204D01*
X158530542Y-90463709D01*
X158524362Y-90465504D01*
X158524359Y-90465505D01*
X158385421Y-90505870D01*
X158385419Y-90505871D01*
X158377808Y-90508082D01*
X158370981Y-90512119D01*
X158370982Y-90512119D01*
X158247736Y-90585006D01*
X158247733Y-90585008D01*
X158240909Y-90589044D01*
X158128444Y-90701509D01*
X158124408Y-90708333D01*
X158124406Y-90708336D01*
X158100169Y-90749319D01*
X158047482Y-90838408D01*
X158003109Y-90991142D01*
X158002605Y-90997547D01*
X158002604Y-90997552D01*
X158000493Y-91024377D01*
X158000300Y-91026833D01*
X158000301Y-91451307D01*
X158000301Y-91869847D01*
X157980299Y-91937968D01*
X157926643Y-91984461D01*
X157873642Y-91995845D01*
X157724221Y-91995062D01*
X157716841Y-91996834D01*
X157716839Y-91996834D01*
X157577563Y-92030271D01*
X157577560Y-92030272D01*
X157570184Y-92032043D01*
X157429414Y-92104700D01*
X157310039Y-92208838D01*
X157218950Y-92338444D01*
X157190178Y-92412240D01*
X157167698Y-92469900D01*
X157161406Y-92486037D01*
X157160414Y-92493570D01*
X157160414Y-92493571D01*
X157144950Y-92611037D01*
X157140729Y-92643096D01*
X157158113Y-92800553D01*
X157160723Y-92807684D01*
X157160723Y-92807686D01*
X157169701Y-92832218D01*
X157212553Y-92949319D01*
X157216789Y-92955622D01*
X157216789Y-92955623D01*
X157277433Y-93045870D01*
X157300908Y-93080805D01*
X157306527Y-93085918D01*
X157306528Y-93085919D01*
X157412460Y-93182309D01*
X157418076Y-93187419D01*
X157557293Y-93263008D01*
X157710522Y-93303207D01*
X157794477Y-93304526D01*
X157861319Y-93305576D01*
X157861322Y-93305576D01*
X157868916Y-93305695D01*
X157876319Y-93303999D01*
X157883878Y-93303205D01*
X157884084Y-93305166D01*
X157944777Y-93308835D01*
X158002078Y-93350753D01*
X158027620Y-93416996D01*
X158023045Y-93462522D01*
X158004903Y-93524965D01*
X158004902Y-93524970D01*
X158003109Y-93531142D01*
X158002605Y-93537547D01*
X158002604Y-93537552D01*
X158001370Y-93553236D01*
X158000300Y-93566833D01*
X158000301Y-94443966D01*
X158003109Y-94479658D01*
X158004904Y-94485838D01*
X158004905Y-94485841D01*
X158038816Y-94602563D01*
X158047482Y-94632392D01*
X158051519Y-94639218D01*
X158124406Y-94762464D01*
X158124408Y-94762467D01*
X158128444Y-94769291D01*
X158240909Y-94881756D01*
X158247733Y-94885792D01*
X158247736Y-94885794D01*
X158264189Y-94895524D01*
X158377808Y-94962718D01*
X158385419Y-94964929D01*
X158385421Y-94964930D01*
X158434661Y-94979235D01*
X158530542Y-95007091D01*
X158536947Y-95007595D01*
X158536952Y-95007596D01*
X158563777Y-95009707D01*
X158563784Y-95009707D01*
X158566233Y-95009900D01*
X158598560Y-95009900D01*
X160122300Y-95009899D01*
X160190421Y-95029901D01*
X160236914Y-95083557D01*
X160248300Y-95135899D01*
X160248300Y-95414900D01*
X160228298Y-95483021D01*
X160174642Y-95529514D01*
X160122300Y-95540900D01*
X158598612Y-95540901D01*
X158566234Y-95540901D01*
X158543665Y-95542677D01*
X158536960Y-95543204D01*
X158536959Y-95543204D01*
X158530542Y-95543709D01*
X158524362Y-95545504D01*
X158524359Y-95545505D01*
X158385421Y-95585870D01*
X158385419Y-95585871D01*
X158377808Y-95588082D01*
X158370981Y-95592119D01*
X158370982Y-95592119D01*
X158247736Y-95665006D01*
X158247733Y-95665008D01*
X158240909Y-95669044D01*
X158128444Y-95781509D01*
X158124408Y-95788333D01*
X158124406Y-95788336D01*
X158108676Y-95814934D01*
X158047482Y-95918408D01*
X158045271Y-95926019D01*
X158045270Y-95926021D01*
X158038959Y-95947743D01*
X158003109Y-96071142D01*
X158002605Y-96077547D01*
X158002604Y-96077552D01*
X158000493Y-96104377D01*
X158000300Y-96106833D01*
X158000301Y-96983966D01*
X158003109Y-97019658D01*
X158047482Y-97172392D01*
X158051519Y-97179218D01*
X158124406Y-97302464D01*
X158124408Y-97302467D01*
X158128444Y-97309291D01*
X158240909Y-97421756D01*
X158247733Y-97425792D01*
X158247736Y-97425794D01*
X158349798Y-97486153D01*
X158377808Y-97502718D01*
X158385419Y-97504929D01*
X158385421Y-97504930D01*
X158434661Y-97519235D01*
X158530542Y-97547091D01*
X158536947Y-97547595D01*
X158536952Y-97547596D01*
X158563777Y-97549707D01*
X158563784Y-97549707D01*
X158566233Y-97549900D01*
X158598560Y-97549900D01*
X160122300Y-97549899D01*
X160190421Y-97569901D01*
X160236914Y-97623557D01*
X160248300Y-97675899D01*
X160248300Y-97954900D01*
X160228298Y-98023021D01*
X160174642Y-98069514D01*
X160122300Y-98080900D01*
X158598612Y-98080901D01*
X158566234Y-98080901D01*
X158543665Y-98082677D01*
X158536960Y-98083204D01*
X158536959Y-98083204D01*
X158530542Y-98083709D01*
X158524362Y-98085504D01*
X158524359Y-98085505D01*
X158385421Y-98125870D01*
X158385419Y-98125871D01*
X158377808Y-98128082D01*
X158370981Y-98132119D01*
X158370982Y-98132119D01*
X158247736Y-98205006D01*
X158247733Y-98205008D01*
X158240909Y-98209044D01*
X158128444Y-98321509D01*
X158124408Y-98328333D01*
X158124406Y-98328336D01*
X158100169Y-98369319D01*
X158047482Y-98458408D01*
X158003109Y-98611142D01*
X158002605Y-98617547D01*
X158002604Y-98617552D01*
X158000493Y-98644377D01*
X158000300Y-98646833D01*
X158000301Y-99523966D01*
X158003109Y-99559658D01*
X158047482Y-99712392D01*
X158051519Y-99719218D01*
X158124406Y-99842464D01*
X158124408Y-99842467D01*
X158128444Y-99849291D01*
X158240909Y-99961756D01*
X158247733Y-99965792D01*
X158247736Y-99965794D01*
X158349798Y-100026153D01*
X158377808Y-100042718D01*
X158385419Y-100044929D01*
X158385421Y-100044930D01*
X158434661Y-100059235D01*
X158530542Y-100087091D01*
X158536947Y-100087595D01*
X158536952Y-100087596D01*
X158563777Y-100089707D01*
X158563784Y-100089707D01*
X158566233Y-100089900D01*
X158598560Y-100089900D01*
X160122300Y-100089899D01*
X160190421Y-100109901D01*
X160236914Y-100163557D01*
X160248300Y-100215899D01*
X160248300Y-100494900D01*
X160228298Y-100563021D01*
X160174642Y-100609514D01*
X160122300Y-100620900D01*
X158598612Y-100620901D01*
X158566234Y-100620901D01*
X158543665Y-100622677D01*
X158536960Y-100623204D01*
X158536959Y-100623204D01*
X158530542Y-100623709D01*
X158524362Y-100625504D01*
X158524359Y-100625505D01*
X158385421Y-100665870D01*
X158385419Y-100665871D01*
X158377808Y-100668082D01*
X158370981Y-100672119D01*
X158370982Y-100672119D01*
X158247736Y-100745006D01*
X158247733Y-100745008D01*
X158240909Y-100749044D01*
X158128444Y-100861509D01*
X158124408Y-100868333D01*
X158124406Y-100868336D01*
X158100169Y-100909319D01*
X158047482Y-100998408D01*
X158003109Y-101151142D01*
X158002605Y-101157547D01*
X158002604Y-101157552D01*
X158000493Y-101184377D01*
X158000300Y-101186833D01*
X158000301Y-102063966D01*
X158003109Y-102099658D01*
X158004904Y-102105838D01*
X158004905Y-102105841D01*
X158040003Y-102226649D01*
X158047482Y-102252392D01*
X158051519Y-102259218D01*
X158124406Y-102382464D01*
X158124408Y-102382467D01*
X158128444Y-102389291D01*
X158240909Y-102501756D01*
X158247733Y-102505792D01*
X158247736Y-102505794D01*
X158349798Y-102566153D01*
X158377808Y-102582718D01*
X158385419Y-102584929D01*
X158385421Y-102584930D01*
X158434661Y-102599235D01*
X158530542Y-102627091D01*
X158536947Y-102627595D01*
X158536952Y-102627596D01*
X158563777Y-102629707D01*
X158563784Y-102629707D01*
X158566233Y-102629900D01*
X158598560Y-102629900D01*
X160122300Y-102629899D01*
X160190421Y-102649901D01*
X160236914Y-102703557D01*
X160248300Y-102755899D01*
X160248300Y-103034900D01*
X160228298Y-103103021D01*
X160174642Y-103149514D01*
X160122300Y-103160900D01*
X158598612Y-103160901D01*
X158566234Y-103160901D01*
X158543665Y-103162677D01*
X158536960Y-103163204D01*
X158536959Y-103163204D01*
X158530542Y-103163709D01*
X158524362Y-103165504D01*
X158524359Y-103165505D01*
X158385421Y-103205870D01*
X158385419Y-103205871D01*
X158377808Y-103208082D01*
X158370981Y-103212119D01*
X158370982Y-103212119D01*
X158247736Y-103285006D01*
X158247733Y-103285008D01*
X158240909Y-103289044D01*
X158128444Y-103401509D01*
X158124408Y-103408333D01*
X158124406Y-103408336D01*
X158100169Y-103449319D01*
X158047482Y-103538408D01*
X158045271Y-103546019D01*
X158045270Y-103546021D01*
X158036851Y-103575000D01*
X158003109Y-103691142D01*
X158002605Y-103697547D01*
X158002604Y-103697552D01*
X158002174Y-103703016D01*
X158000300Y-103726833D01*
X158000301Y-104603966D01*
X158003109Y-104639658D01*
X158004904Y-104645838D01*
X158004905Y-104645841D01*
X158045270Y-104784779D01*
X158047482Y-104792392D01*
X158055307Y-104805623D01*
X158124406Y-104922464D01*
X158124408Y-104922467D01*
X158128444Y-104929291D01*
X158240909Y-105041756D01*
X158247733Y-105045792D01*
X158247736Y-105045794D01*
X158341455Y-105101219D01*
X158377808Y-105122718D01*
X158385419Y-105124929D01*
X158385421Y-105124930D01*
X158434661Y-105139235D01*
X158530542Y-105167091D01*
X158536947Y-105167595D01*
X158536952Y-105167596D01*
X158563777Y-105169707D01*
X158563784Y-105169707D01*
X158566233Y-105169900D01*
X158598560Y-105169900D01*
X160122300Y-105169899D01*
X160190421Y-105189901D01*
X160236914Y-105243557D01*
X160248300Y-105295899D01*
X160248300Y-105574900D01*
X160228298Y-105643021D01*
X160174642Y-105689514D01*
X160122300Y-105700900D01*
X158598612Y-105700901D01*
X158566234Y-105700901D01*
X158543665Y-105702677D01*
X158536960Y-105703204D01*
X158536959Y-105703204D01*
X158530542Y-105703709D01*
X158524362Y-105705504D01*
X158524359Y-105705505D01*
X158385421Y-105745870D01*
X158385419Y-105745871D01*
X158377808Y-105748082D01*
X158350906Y-105763992D01*
X158247736Y-105825006D01*
X158247733Y-105825008D01*
X158240909Y-105829044D01*
X158128444Y-105941509D01*
X158124408Y-105948333D01*
X158124406Y-105948336D01*
X158109348Y-105973798D01*
X158047482Y-106078408D01*
X158045271Y-106086019D01*
X158045270Y-106086021D01*
X158042293Y-106096269D01*
X158003109Y-106231142D01*
X158002605Y-106237547D01*
X158002604Y-106237552D01*
X158000886Y-106259385D01*
X158000300Y-106266833D01*
X158000301Y-107143966D01*
X158003109Y-107179658D01*
X158047482Y-107332392D01*
X158051519Y-107339218D01*
X158124406Y-107462464D01*
X158124408Y-107462467D01*
X158128444Y-107469291D01*
X158240909Y-107581756D01*
X158247733Y-107585792D01*
X158247736Y-107585794D01*
X158349798Y-107646153D01*
X158377808Y-107662718D01*
X158385419Y-107664929D01*
X158385421Y-107664930D01*
X158434661Y-107679235D01*
X158530542Y-107707091D01*
X158536947Y-107707595D01*
X158536952Y-107707596D01*
X158563777Y-107709707D01*
X158563784Y-107709707D01*
X158566233Y-107709900D01*
X158598560Y-107709900D01*
X160122300Y-107709899D01*
X160190421Y-107729901D01*
X160236914Y-107783557D01*
X160248300Y-107835899D01*
X160248300Y-108114900D01*
X160228298Y-108183021D01*
X160174642Y-108229514D01*
X160122300Y-108240900D01*
X158598612Y-108240901D01*
X158566234Y-108240901D01*
X158543665Y-108242677D01*
X158536960Y-108243204D01*
X158536959Y-108243204D01*
X158530542Y-108243709D01*
X158524362Y-108245504D01*
X158524359Y-108245505D01*
X158385421Y-108285870D01*
X158385419Y-108285871D01*
X158377808Y-108288082D01*
X158370981Y-108292119D01*
X158370982Y-108292119D01*
X158247736Y-108365006D01*
X158247733Y-108365008D01*
X158240909Y-108369044D01*
X158128444Y-108481509D01*
X158124408Y-108488333D01*
X158124406Y-108488336D01*
X158064767Y-108589181D01*
X158047482Y-108618408D01*
X158003109Y-108771142D01*
X158002605Y-108777547D01*
X158002604Y-108777552D01*
X158000851Y-108799834D01*
X158000300Y-108806833D01*
X158000301Y-109683966D01*
X158003109Y-109719658D01*
X158004904Y-109725838D01*
X158004905Y-109725841D01*
X158025283Y-109795983D01*
X158047482Y-109872392D01*
X158051519Y-109879218D01*
X158124406Y-110002464D01*
X158124408Y-110002467D01*
X158128444Y-110009291D01*
X158240909Y-110121756D01*
X158247733Y-110125792D01*
X158247736Y-110125794D01*
X158349798Y-110186153D01*
X158377808Y-110202718D01*
X158385419Y-110204929D01*
X158385421Y-110204930D01*
X158434661Y-110219235D01*
X158530542Y-110247091D01*
X158536947Y-110247595D01*
X158536952Y-110247596D01*
X158563777Y-110249707D01*
X158563784Y-110249707D01*
X158566233Y-110249900D01*
X158598560Y-110249900D01*
X160122300Y-110249899D01*
X160190421Y-110269901D01*
X160236914Y-110323557D01*
X160248300Y-110375899D01*
X160248300Y-110654900D01*
X160228298Y-110723021D01*
X160174642Y-110769514D01*
X160122300Y-110780900D01*
X158598612Y-110780901D01*
X158566234Y-110780901D01*
X158543665Y-110782677D01*
X158536960Y-110783204D01*
X158536959Y-110783204D01*
X158530542Y-110783709D01*
X158524362Y-110785504D01*
X158524359Y-110785505D01*
X158385421Y-110825870D01*
X158385419Y-110825871D01*
X158377808Y-110828082D01*
X158370981Y-110832119D01*
X158370982Y-110832119D01*
X158247736Y-110905006D01*
X158247733Y-110905008D01*
X158240909Y-110909044D01*
X158128444Y-111021509D01*
X158124408Y-111028333D01*
X158124406Y-111028336D01*
X158100169Y-111069319D01*
X158047482Y-111158408D01*
X158003109Y-111311142D01*
X158002605Y-111317547D01*
X158002604Y-111317552D01*
X158000493Y-111344377D01*
X158000300Y-111346833D01*
X158000301Y-112223966D01*
X158003109Y-112259658D01*
X158047482Y-112412392D01*
X158051519Y-112419218D01*
X158124406Y-112542464D01*
X158124408Y-112542467D01*
X158128444Y-112549291D01*
X158240909Y-112661756D01*
X158247733Y-112665792D01*
X158247736Y-112665794D01*
X158321445Y-112709385D01*
X158377808Y-112742718D01*
X158385419Y-112744929D01*
X158385421Y-112744930D01*
X158422066Y-112755576D01*
X158530542Y-112787091D01*
X158536947Y-112787595D01*
X158536952Y-112787596D01*
X158563777Y-112789707D01*
X158563784Y-112789707D01*
X158566233Y-112789900D01*
X158598560Y-112789900D01*
X160122300Y-112789899D01*
X160190421Y-112809901D01*
X160236914Y-112863557D01*
X160248300Y-112915899D01*
X160248300Y-113194900D01*
X160228298Y-113263021D01*
X160174642Y-113309514D01*
X160122300Y-113320900D01*
X158598612Y-113320901D01*
X158566234Y-113320901D01*
X158543665Y-113322677D01*
X158536960Y-113323204D01*
X158536959Y-113323204D01*
X158530542Y-113323709D01*
X158524362Y-113325504D01*
X158524359Y-113325505D01*
X158385421Y-113365870D01*
X158385419Y-113365871D01*
X158377808Y-113368082D01*
X158370981Y-113372119D01*
X158370982Y-113372119D01*
X158247736Y-113445006D01*
X158247733Y-113445008D01*
X158240909Y-113449044D01*
X158128444Y-113561509D01*
X158124408Y-113568333D01*
X158124406Y-113568336D01*
X158073331Y-113654700D01*
X158047482Y-113698408D01*
X158003109Y-113851142D01*
X158002605Y-113857547D01*
X158002604Y-113857552D01*
X158000662Y-113882228D01*
X158000300Y-113886833D01*
X158000301Y-114763966D01*
X158003109Y-114799658D01*
X158004904Y-114805838D01*
X158004905Y-114805841D01*
X158045270Y-114944779D01*
X158047482Y-114952392D01*
X158051519Y-114959218D01*
X158124406Y-115082464D01*
X158124408Y-115082467D01*
X158128444Y-115089291D01*
X158240909Y-115201756D01*
X158247733Y-115205792D01*
X158247736Y-115205794D01*
X158261044Y-115213664D01*
X158377808Y-115282718D01*
X158385419Y-115284929D01*
X158385421Y-115284930D01*
X158434661Y-115299235D01*
X158530542Y-115327091D01*
X158536947Y-115327595D01*
X158536952Y-115327596D01*
X158563777Y-115329707D01*
X158563784Y-115329707D01*
X158566233Y-115329900D01*
X158598560Y-115329900D01*
X160122300Y-115329899D01*
X160190421Y-115349901D01*
X160236914Y-115403557D01*
X160248300Y-115455899D01*
X160248300Y-115734900D01*
X160228298Y-115803021D01*
X160174642Y-115849514D01*
X160122300Y-115860900D01*
X158598612Y-115860901D01*
X158566234Y-115860901D01*
X158543665Y-115862677D01*
X158536960Y-115863204D01*
X158536959Y-115863204D01*
X158530542Y-115863709D01*
X158524362Y-115865504D01*
X158524359Y-115865505D01*
X158385421Y-115905870D01*
X158385419Y-115905871D01*
X158377808Y-115908082D01*
X158370981Y-115912119D01*
X158370982Y-115912119D01*
X158247736Y-115985006D01*
X158247733Y-115985008D01*
X158240909Y-115989044D01*
X158128444Y-116101509D01*
X158124408Y-116108333D01*
X158124406Y-116108336D01*
X158082726Y-116178813D01*
X158047482Y-116238408D01*
X158003109Y-116391142D01*
X158002605Y-116397547D01*
X158002604Y-116397552D01*
X158000493Y-116424377D01*
X158000300Y-116426833D01*
X158000301Y-117303966D01*
X158003109Y-117339658D01*
X158004904Y-117345838D01*
X158004905Y-117345841D01*
X158035166Y-117450000D01*
X158047482Y-117492392D01*
X158051519Y-117499218D01*
X158124406Y-117622464D01*
X158124408Y-117622467D01*
X158128444Y-117629291D01*
X158240909Y-117741756D01*
X158247733Y-117745792D01*
X158247736Y-117745794D01*
X158349798Y-117806153D01*
X158377808Y-117822718D01*
X158385419Y-117824929D01*
X158385421Y-117824930D01*
X158434661Y-117839235D01*
X158530542Y-117867091D01*
X158536947Y-117867595D01*
X158536952Y-117867596D01*
X158563777Y-117869707D01*
X158563784Y-117869707D01*
X158566233Y-117869900D01*
X158598560Y-117869900D01*
X160122300Y-117869899D01*
X160190421Y-117889901D01*
X160236914Y-117943557D01*
X160248300Y-117995899D01*
X160248300Y-118274900D01*
X160228298Y-118343021D01*
X160174642Y-118389514D01*
X160122300Y-118400900D01*
X158598612Y-118400901D01*
X158566234Y-118400901D01*
X158543665Y-118402677D01*
X158536960Y-118403204D01*
X158536959Y-118403204D01*
X158530542Y-118403709D01*
X158524362Y-118405504D01*
X158524359Y-118405505D01*
X158385421Y-118445870D01*
X158385419Y-118445871D01*
X158377808Y-118448082D01*
X158370981Y-118452119D01*
X158370982Y-118452119D01*
X158247736Y-118525006D01*
X158247733Y-118525008D01*
X158240909Y-118529044D01*
X158128444Y-118641509D01*
X158124408Y-118648333D01*
X158124406Y-118648336D01*
X158100169Y-118689319D01*
X158047482Y-118778408D01*
X158003109Y-118931142D01*
X158002605Y-118937547D01*
X158002604Y-118937552D01*
X158000493Y-118964377D01*
X158000300Y-118966833D01*
X158000301Y-119843966D01*
X158003109Y-119879658D01*
X158004904Y-119885838D01*
X158004905Y-119885841D01*
X158045270Y-120024779D01*
X158047482Y-120032392D01*
X158051519Y-120039218D01*
X158124406Y-120162464D01*
X158124408Y-120162467D01*
X158128444Y-120169291D01*
X158240909Y-120281756D01*
X158247733Y-120285792D01*
X158247736Y-120285794D01*
X158318587Y-120327695D01*
X158377808Y-120362718D01*
X158385419Y-120364929D01*
X158385421Y-120364930D01*
X158434661Y-120379235D01*
X158530542Y-120407091D01*
X158536947Y-120407595D01*
X158536952Y-120407596D01*
X158563777Y-120409707D01*
X158563784Y-120409707D01*
X158566233Y-120409900D01*
X158598560Y-120409900D01*
X160122300Y-120409899D01*
X160190421Y-120429901D01*
X160236914Y-120483557D01*
X160248300Y-120535899D01*
X160248300Y-120814900D01*
X160228298Y-120883021D01*
X160174642Y-120929514D01*
X160122300Y-120940900D01*
X158598612Y-120940901D01*
X158566234Y-120940901D01*
X158543665Y-120942677D01*
X158536960Y-120943204D01*
X158536959Y-120943204D01*
X158530542Y-120943709D01*
X158524362Y-120945504D01*
X158524359Y-120945505D01*
X158385421Y-120985870D01*
X158385419Y-120985871D01*
X158377808Y-120988082D01*
X158370981Y-120992119D01*
X158370982Y-120992119D01*
X158247736Y-121065006D01*
X158247733Y-121065008D01*
X158240909Y-121069044D01*
X158128444Y-121181509D01*
X158124408Y-121188333D01*
X158124406Y-121188336D01*
X158088247Y-121249478D01*
X158047482Y-121318408D01*
X158003109Y-121471142D01*
X158002605Y-121477547D01*
X158002604Y-121477552D01*
X158000493Y-121504377D01*
X158000300Y-121506833D01*
X158000301Y-122383966D01*
X158002285Y-122409190D01*
X157987689Y-122478668D01*
X157937846Y-122529227D01*
X157889071Y-122541731D01*
X157889360Y-122544229D01*
X157881815Y-122545102D01*
X157874221Y-122545062D01*
X157866841Y-122546834D01*
X157866839Y-122546834D01*
X157727563Y-122580271D01*
X157727560Y-122580272D01*
X157720184Y-122582043D01*
X157579414Y-122654700D01*
X157460039Y-122758838D01*
X157368950Y-122888444D01*
X157346785Y-122945295D01*
X157316272Y-123023557D01*
X157311406Y-123036037D01*
X157290729Y-123193096D01*
X157308113Y-123350553D01*
X157310723Y-123357684D01*
X157310723Y-123357686D01*
X157356841Y-123483709D01*
X157362553Y-123499319D01*
X157366789Y-123505622D01*
X157366789Y-123505623D01*
X157380395Y-123525870D01*
X157450908Y-123630805D01*
X157456527Y-123635918D01*
X157456528Y-123635919D01*
X157467903Y-123646269D01*
X157568076Y-123737419D01*
X157707293Y-123813008D01*
X157860522Y-123853207D01*
X157882980Y-123853560D01*
X157883440Y-123853567D01*
X157951238Y-123874636D01*
X157996883Y-123929015D01*
X158005411Y-124002188D01*
X158004905Y-124004959D01*
X158003109Y-124011142D01*
X158002604Y-124017556D01*
X158002604Y-124017557D01*
X158000494Y-124044371D01*
X158000300Y-124046833D01*
X158000301Y-124923966D01*
X158003109Y-124959658D01*
X158047482Y-125112392D01*
X158051519Y-125119218D01*
X158124406Y-125242464D01*
X158124408Y-125242467D01*
X158128444Y-125249291D01*
X158240909Y-125361756D01*
X158247733Y-125365792D01*
X158247736Y-125365794D01*
X158349798Y-125426153D01*
X158377808Y-125442718D01*
X158385419Y-125444929D01*
X158385421Y-125444930D01*
X158432512Y-125458611D01*
X158530542Y-125487091D01*
X158536947Y-125487595D01*
X158536952Y-125487596D01*
X158563777Y-125489707D01*
X158563784Y-125489707D01*
X158566233Y-125489900D01*
X158598560Y-125489900D01*
X160122300Y-125489899D01*
X160190421Y-125509901D01*
X160236914Y-125563557D01*
X160248300Y-125615899D01*
X160248300Y-125894900D01*
X160228298Y-125963021D01*
X160174642Y-126009514D01*
X160122300Y-126020900D01*
X158598612Y-126020901D01*
X158566234Y-126020901D01*
X158543665Y-126022677D01*
X158536960Y-126023204D01*
X158536959Y-126023204D01*
X158530542Y-126023709D01*
X158524362Y-126025504D01*
X158524359Y-126025505D01*
X158385421Y-126065870D01*
X158385419Y-126065871D01*
X158377808Y-126068082D01*
X158367624Y-126074105D01*
X158247736Y-126145006D01*
X158247733Y-126145008D01*
X158240909Y-126149044D01*
X158128444Y-126261509D01*
X158124408Y-126268333D01*
X158124406Y-126268336D01*
X158064047Y-126370398D01*
X158047482Y-126398408D01*
X158003109Y-126551142D01*
X158002605Y-126557547D01*
X158002604Y-126557552D01*
X158002597Y-126557642D01*
X158000300Y-126586833D01*
X158000301Y-127463966D01*
X158003109Y-127499658D01*
X158004904Y-127505838D01*
X158004905Y-127505841D01*
X158045212Y-127644579D01*
X158047482Y-127652392D01*
X158051519Y-127659218D01*
X158124406Y-127782464D01*
X158124408Y-127782467D01*
X158128444Y-127789291D01*
X158240909Y-127901756D01*
X158247733Y-127905792D01*
X158247736Y-127905794D01*
X158349798Y-127966153D01*
X158377808Y-127982718D01*
X158385419Y-127984929D01*
X158385421Y-127984930D01*
X158519569Y-128023903D01*
X158579404Y-128062116D01*
X158609082Y-128126612D01*
X158599179Y-128196914D01*
X158552839Y-128250703D01*
X158484416Y-128270900D01*
X155104800Y-128270900D01*
X155036679Y-128250898D01*
X154990186Y-128197242D01*
X154978800Y-128144900D01*
X154978800Y-128096115D01*
X154974325Y-128080876D01*
X154972935Y-128079671D01*
X154965252Y-128078000D01*
X154798126Y-128078000D01*
X154772481Y-128085530D01*
X154624016Y-128233995D01*
X154561704Y-128268021D01*
X154534921Y-128270900D01*
X154162805Y-128270900D01*
X154094684Y-128250898D01*
X154048191Y-128197242D01*
X154038087Y-128126968D01*
X154052218Y-128084514D01*
X154054288Y-128080723D01*
X154046986Y-128078000D01*
X153906125Y-128078000D01*
X153895100Y-128081237D01*
X153900269Y-128092556D01*
X153910374Y-128162829D01*
X153880882Y-128227411D01*
X153821156Y-128265795D01*
X153785656Y-128270900D01*
X153414679Y-128270900D01*
X153346558Y-128250898D01*
X153325584Y-128233995D01*
X153182401Y-128090812D01*
X153158939Y-128078000D01*
X152988916Y-128078000D01*
X152973677Y-128082475D01*
X152972472Y-128083865D01*
X152970801Y-128091548D01*
X152970801Y-128144900D01*
X152950799Y-128213021D01*
X152897143Y-128259514D01*
X152844801Y-128270900D01*
X152565300Y-128270900D01*
X152497179Y-128250898D01*
X152450686Y-128197242D01*
X152439300Y-128144900D01*
X152439299Y-126771607D01*
X152459301Y-126703486D01*
X152512957Y-126656993D01*
X152583231Y-126646889D01*
X152597274Y-126649732D01*
X152603168Y-126651278D01*
X152603170Y-126651278D01*
X152610522Y-126653207D01*
X152693348Y-126654508D01*
X152761319Y-126655576D01*
X152761322Y-126655576D01*
X152768916Y-126655695D01*
X152776320Y-126653999D01*
X152776322Y-126653999D01*
X152816671Y-126644758D01*
X152887538Y-126649047D01*
X152944836Y-126690970D01*
X152970373Y-126757214D01*
X152970800Y-126767578D01*
X152970801Y-127551885D01*
X152975276Y-127567124D01*
X152976666Y-127568329D01*
X152984349Y-127570000D01*
X153702685Y-127570000D01*
X153717924Y-127565525D01*
X153719129Y-127564135D01*
X153720800Y-127556452D01*
X153720800Y-127551885D01*
X154228800Y-127551885D01*
X154233275Y-127567124D01*
X154234665Y-127568329D01*
X154242348Y-127570000D01*
X154960685Y-127570000D01*
X154975924Y-127565525D01*
X154977129Y-127564135D01*
X154978800Y-127556452D01*
X154978799Y-126637958D01*
X154978605Y-126633024D01*
X154976498Y-126606242D01*
X154974196Y-126593634D01*
X154933867Y-126454821D01*
X154927621Y-126440387D01*
X154854795Y-126317245D01*
X154845146Y-126304807D01*
X154743993Y-126203654D01*
X154731555Y-126194005D01*
X154608413Y-126121179D01*
X154593979Y-126114933D01*
X154455159Y-126074602D01*
X154442566Y-126072302D01*
X154415771Y-126070193D01*
X154410845Y-126070000D01*
X154246915Y-126070000D01*
X154231676Y-126074475D01*
X154230471Y-126075865D01*
X154228800Y-126083548D01*
X154228800Y-127551885D01*
X153720800Y-127551885D01*
X153720800Y-126088116D01*
X153716325Y-126072877D01*
X153714935Y-126071672D01*
X153707252Y-126070001D01*
X153538758Y-126070001D01*
X153533824Y-126070195D01*
X153507042Y-126072302D01*
X153502710Y-126073093D01*
X153432104Y-126065655D01*
X153376727Y-126021226D01*
X153354985Y-125964280D01*
X153341188Y-125850273D01*
X153340276Y-125842733D01*
X153284280Y-125694546D01*
X153194553Y-125563992D01*
X153076275Y-125458611D01*
X153068889Y-125454700D01*
X152942988Y-125388039D01*
X152942989Y-125388039D01*
X152936274Y-125384484D01*
X152782633Y-125345892D01*
X152775034Y-125345852D01*
X152775033Y-125345852D01*
X152709181Y-125345507D01*
X152624221Y-125345062D01*
X152616841Y-125346834D01*
X152616839Y-125346834D01*
X152477563Y-125380271D01*
X152477560Y-125380272D01*
X152470184Y-125382043D01*
X152329414Y-125454700D01*
X152210039Y-125558838D01*
X152118950Y-125688444D01*
X152061406Y-125836037D01*
X152060415Y-125843568D01*
X152060414Y-125843570D01*
X152044653Y-125963288D01*
X152015930Y-126028215D01*
X151956665Y-126067306D01*
X151909234Y-126070073D01*
X151909058Y-126072309D01*
X151875823Y-126069693D01*
X151875816Y-126069693D01*
X151873367Y-126069500D01*
X151435155Y-126069500D01*
X150996234Y-126069501D01*
X150989383Y-126070040D01*
X150919904Y-126055442D01*
X150869346Y-126005598D01*
X150854414Y-125959565D01*
X150841188Y-125850273D01*
X150840276Y-125842733D01*
X150784280Y-125694546D01*
X150694553Y-125563992D01*
X150576275Y-125458611D01*
X150568889Y-125454700D01*
X150442988Y-125388039D01*
X150442989Y-125388039D01*
X150436274Y-125384484D01*
X150282633Y-125345892D01*
X150275034Y-125345852D01*
X150275033Y-125345852D01*
X150209181Y-125345507D01*
X150124221Y-125345062D01*
X150116841Y-125346834D01*
X150116839Y-125346834D01*
X149977563Y-125380271D01*
X149977560Y-125380272D01*
X149970184Y-125382043D01*
X149829414Y-125454700D01*
X149710039Y-125558838D01*
X149618950Y-125688444D01*
X149561406Y-125836037D01*
X149544689Y-125963021D01*
X149543515Y-125971936D01*
X149514793Y-126036863D01*
X149455528Y-126075955D01*
X149383443Y-126076488D01*
X149380852Y-126075735D01*
X149369058Y-126072309D01*
X149362653Y-126071805D01*
X149362648Y-126071804D01*
X149335823Y-126069693D01*
X149335816Y-126069693D01*
X149333367Y-126069500D01*
X148895155Y-126069500D01*
X148456234Y-126069501D01*
X148453771Y-126069695D01*
X148453765Y-126069695D01*
X148439475Y-126070819D01*
X148369995Y-126056220D01*
X148319438Y-126006375D01*
X148304508Y-125960344D01*
X148296649Y-125895401D01*
X148290276Y-125842733D01*
X148234280Y-125694546D01*
X148144553Y-125563992D01*
X148026275Y-125458611D01*
X148018889Y-125454700D01*
X147892988Y-125388039D01*
X147892989Y-125388039D01*
X147886274Y-125384484D01*
X147732633Y-125345892D01*
X147725034Y-125345852D01*
X147725033Y-125345852D01*
X147659181Y-125345507D01*
X147574221Y-125345062D01*
X147566841Y-125346834D01*
X147566839Y-125346834D01*
X147427563Y-125380271D01*
X147427560Y-125380272D01*
X147420184Y-125382043D01*
X147279414Y-125454700D01*
X147160039Y-125558838D01*
X147068950Y-125688444D01*
X147011406Y-125836037D01*
X147010414Y-125843570D01*
X147010414Y-125843571D01*
X146993883Y-125969138D01*
X146965161Y-126034065D01*
X146905895Y-126073157D01*
X146841870Y-126073630D01*
X146841572Y-126075261D01*
X146835233Y-126074103D01*
X146829058Y-126072309D01*
X146822653Y-126071805D01*
X146822648Y-126071804D01*
X146795823Y-126069693D01*
X146795816Y-126069693D01*
X146793367Y-126069500D01*
X146355155Y-126069500D01*
X145916234Y-126069501D01*
X145893665Y-126071277D01*
X145886960Y-126071804D01*
X145886959Y-126071804D01*
X145880542Y-126072309D01*
X145874362Y-126074104D01*
X145874359Y-126074105D01*
X145735421Y-126114470D01*
X145735419Y-126114471D01*
X145727808Y-126116682D01*
X145720981Y-126120719D01*
X145720982Y-126120719D01*
X145597736Y-126193606D01*
X145597733Y-126193608D01*
X145590909Y-126197644D01*
X145478444Y-126310109D01*
X145474408Y-126316933D01*
X145474406Y-126316936D01*
X145441378Y-126372784D01*
X145397482Y-126447008D01*
X145395271Y-126454619D01*
X145395270Y-126454621D01*
X145380965Y-126503861D01*
X145353109Y-126599742D01*
X145352605Y-126606147D01*
X145352604Y-126606152D01*
X145350493Y-126632977D01*
X145350300Y-126635433D01*
X145350300Y-126637902D01*
X145350301Y-128144900D01*
X145330299Y-128213021D01*
X145276643Y-128259514D01*
X145224301Y-128270900D01*
X141843390Y-128270900D01*
X141775269Y-128250898D01*
X141728776Y-128197242D01*
X141718672Y-128126968D01*
X141748166Y-128062388D01*
X141808238Y-128023903D01*
X141943979Y-127984467D01*
X141958413Y-127978221D01*
X142081555Y-127905395D01*
X142093993Y-127895746D01*
X142195146Y-127794593D01*
X142204795Y-127782155D01*
X142277621Y-127659013D01*
X142283867Y-127644579D01*
X142324198Y-127505759D01*
X142326498Y-127493166D01*
X142328607Y-127466371D01*
X142328800Y-127461446D01*
X142328800Y-127297515D01*
X142324325Y-127282276D01*
X142322935Y-127281071D01*
X142315252Y-127279400D01*
X140446800Y-127279400D01*
X140443130Y-127278322D01*
X140448339Y-127289728D01*
X140653529Y-127494918D01*
X140687555Y-127557230D01*
X140682490Y-127628045D01*
X140653529Y-127673108D01*
X140472508Y-127854129D01*
X140410196Y-127888155D01*
X140339381Y-127883090D01*
X140294318Y-127854129D01*
X140118205Y-127678016D01*
X140084179Y-127615704D01*
X140081300Y-127588921D01*
X140081300Y-127226880D01*
X140101302Y-127158759D01*
X140154958Y-127112266D01*
X140225232Y-127102162D01*
X140289812Y-127131656D01*
X140296395Y-127137785D01*
X140307990Y-127149380D01*
X140321534Y-127156776D01*
X140320800Y-127153400D01*
X140320800Y-126906726D01*
X140317563Y-126895701D01*
X140310470Y-126898940D01*
X140296395Y-126913015D01*
X140234083Y-126947041D01*
X140163268Y-126941976D01*
X140106432Y-126899429D01*
X140081621Y-126832909D01*
X140081300Y-126823920D01*
X140081300Y-126753285D01*
X140828800Y-126753285D01*
X140833275Y-126768524D01*
X140834665Y-126769729D01*
X140842348Y-126771400D01*
X142310684Y-126771400D01*
X142325923Y-126766925D01*
X142327128Y-126765535D01*
X142328799Y-126757852D01*
X142328799Y-126589358D01*
X142328605Y-126584424D01*
X142326498Y-126557642D01*
X142324196Y-126545034D01*
X142283867Y-126406221D01*
X142277621Y-126391787D01*
X142204795Y-126268645D01*
X142195146Y-126256207D01*
X142093993Y-126155054D01*
X142081555Y-126145405D01*
X141958413Y-126072579D01*
X141943979Y-126066333D01*
X141805159Y-126026002D01*
X141792566Y-126023702D01*
X141765771Y-126021593D01*
X141760845Y-126021400D01*
X140846915Y-126021400D01*
X140831676Y-126025875D01*
X140830471Y-126027265D01*
X140828800Y-126034948D01*
X140828800Y-126753285D01*
X140081300Y-126753285D01*
X140081300Y-126461879D01*
X140101302Y-126393758D01*
X140118205Y-126372784D01*
X140307988Y-126183001D01*
X140320800Y-126159539D01*
X140320800Y-126039516D01*
X140316325Y-126024277D01*
X140314935Y-126023072D01*
X140307252Y-126021401D01*
X140207300Y-126021401D01*
X140139179Y-126001399D01*
X140092686Y-125947743D01*
X140081300Y-125895401D01*
X140081300Y-125615900D01*
X140101302Y-125547779D01*
X140154958Y-125501286D01*
X140207300Y-125489900D01*
X141730988Y-125489899D01*
X141763366Y-125489899D01*
X141785935Y-125488123D01*
X141792640Y-125487596D01*
X141792641Y-125487596D01*
X141799058Y-125487091D01*
X141805238Y-125485296D01*
X141805241Y-125485295D01*
X141944179Y-125444930D01*
X141944181Y-125444929D01*
X141951792Y-125442718D01*
X141979802Y-125426153D01*
X142081864Y-125365794D01*
X142081867Y-125365792D01*
X142088691Y-125361756D01*
X142201156Y-125249291D01*
X142205192Y-125242467D01*
X142205194Y-125242464D01*
X142278081Y-125119218D01*
X142282118Y-125112392D01*
X142326491Y-124959658D01*
X142326995Y-124953253D01*
X142326996Y-124953248D01*
X142329107Y-124926423D01*
X142329107Y-124926416D01*
X142329300Y-124923967D01*
X142329299Y-124046834D01*
X142326491Y-124011142D01*
X142282118Y-123858408D01*
X142257580Y-123816916D01*
X142205194Y-123728336D01*
X142205192Y-123728333D01*
X142201156Y-123721509D01*
X142088691Y-123609044D01*
X142081867Y-123605008D01*
X142081864Y-123605006D01*
X141958618Y-123532119D01*
X141958619Y-123532119D01*
X141951792Y-123528082D01*
X141944181Y-123525871D01*
X141944179Y-123525870D01*
X141852788Y-123499319D01*
X141799058Y-123483709D01*
X141792653Y-123483205D01*
X141792648Y-123483204D01*
X141765823Y-123481093D01*
X141765816Y-123481093D01*
X141763367Y-123480900D01*
X141731040Y-123480900D01*
X140207300Y-123480901D01*
X140139179Y-123460899D01*
X140092686Y-123407243D01*
X140081300Y-123354901D01*
X140081300Y-123193096D01*
X155190729Y-123193096D01*
X155208113Y-123350553D01*
X155210723Y-123357684D01*
X155210723Y-123357686D01*
X155256841Y-123483709D01*
X155262553Y-123499319D01*
X155266789Y-123505622D01*
X155266789Y-123505623D01*
X155280395Y-123525870D01*
X155350908Y-123630805D01*
X155356527Y-123635918D01*
X155356528Y-123635919D01*
X155367903Y-123646269D01*
X155468076Y-123737419D01*
X155607293Y-123813008D01*
X155760522Y-123853207D01*
X155844477Y-123854526D01*
X155911319Y-123855576D01*
X155911322Y-123855576D01*
X155918916Y-123855695D01*
X156073332Y-123820329D01*
X156143742Y-123784917D01*
X156208072Y-123752563D01*
X156208075Y-123752561D01*
X156214855Y-123749151D01*
X156220626Y-123744222D01*
X156220629Y-123744220D01*
X156329536Y-123651204D01*
X156329536Y-123651203D01*
X156335314Y-123646269D01*
X156427755Y-123517624D01*
X156486842Y-123370641D01*
X156509162Y-123213807D01*
X156509307Y-123200000D01*
X156490276Y-123042733D01*
X156434280Y-122894546D01*
X156344553Y-122763992D01*
X156226275Y-122658611D01*
X156218889Y-122654700D01*
X156092988Y-122588039D01*
X156092989Y-122588039D01*
X156086274Y-122584484D01*
X155932633Y-122545892D01*
X155925034Y-122545852D01*
X155925033Y-122545852D01*
X155859181Y-122545507D01*
X155774221Y-122545062D01*
X155766841Y-122546834D01*
X155766839Y-122546834D01*
X155627563Y-122580271D01*
X155627560Y-122580272D01*
X155620184Y-122582043D01*
X155479414Y-122654700D01*
X155360039Y-122758838D01*
X155268950Y-122888444D01*
X155246785Y-122945295D01*
X155216272Y-123023557D01*
X155211406Y-123036037D01*
X155190729Y-123193096D01*
X140081300Y-123193096D01*
X140081300Y-123075900D01*
X140101302Y-123007779D01*
X140154958Y-122961286D01*
X140207300Y-122949900D01*
X141730988Y-122949899D01*
X141763366Y-122949899D01*
X141785935Y-122948123D01*
X141792640Y-122947596D01*
X141792641Y-122947596D01*
X141799058Y-122947091D01*
X141805238Y-122945296D01*
X141805241Y-122945295D01*
X141944179Y-122904930D01*
X141944181Y-122904929D01*
X141951792Y-122902718D01*
X141986439Y-122882228D01*
X142081864Y-122825794D01*
X142081867Y-122825792D01*
X142088691Y-122821756D01*
X142201156Y-122709291D01*
X142205192Y-122702467D01*
X142205194Y-122702464D01*
X142278081Y-122579218D01*
X142282118Y-122572392D01*
X142290047Y-122545102D01*
X142324696Y-122425835D01*
X142326491Y-122419658D01*
X142326996Y-122413247D01*
X142326997Y-122413239D01*
X142327689Y-122404450D01*
X142352975Y-122338110D01*
X142357680Y-122332545D01*
X142362613Y-122328550D01*
X142373638Y-122313036D01*
X142387245Y-122296936D01*
X143381413Y-121302768D01*
X143385221Y-121299115D01*
X143424948Y-121262584D01*
X143424949Y-121262583D01*
X143431266Y-121256774D01*
X143454381Y-121219494D01*
X143461104Y-121209712D01*
X143482438Y-121181605D01*
X143487630Y-121174765D01*
X143493237Y-121160604D01*
X143503300Y-121140598D01*
X143506794Y-121134963D01*
X143506798Y-121134954D01*
X143511323Y-121127656D01*
X143523565Y-121085520D01*
X143527409Y-121074293D01*
X143531086Y-121065006D01*
X143543556Y-121033510D01*
X143545148Y-121018367D01*
X143549459Y-120996394D01*
X143550701Y-120992119D01*
X143553709Y-120981765D01*
X143554500Y-120970993D01*
X143554500Y-120935995D01*
X143555190Y-120922824D01*
X143558539Y-120890963D01*
X143559437Y-120882419D01*
X143556263Y-120863654D01*
X143554500Y-120842652D01*
X143554500Y-120143096D01*
X152640729Y-120143096D01*
X152644444Y-120176743D01*
X152656484Y-120285794D01*
X152658113Y-120300553D01*
X152660723Y-120307684D01*
X152660723Y-120307686D01*
X152698057Y-120409705D01*
X152712553Y-120449319D01*
X152716789Y-120455622D01*
X152716789Y-120455623D01*
X152724958Y-120467779D01*
X152800908Y-120580805D01*
X152806527Y-120585918D01*
X152806528Y-120585919D01*
X152817903Y-120596269D01*
X152918076Y-120687419D01*
X153057293Y-120763008D01*
X153210522Y-120803207D01*
X153294477Y-120804526D01*
X153361319Y-120805576D01*
X153361322Y-120805576D01*
X153368916Y-120805695D01*
X153523332Y-120770329D01*
X153593742Y-120734917D01*
X153658072Y-120702563D01*
X153658075Y-120702561D01*
X153664855Y-120699151D01*
X153670626Y-120694222D01*
X153670629Y-120694220D01*
X153779536Y-120601204D01*
X153779536Y-120601203D01*
X153785314Y-120596269D01*
X153877755Y-120467624D01*
X153936842Y-120320641D01*
X153959162Y-120163807D01*
X153959307Y-120150000D01*
X153940276Y-119992733D01*
X153884280Y-119844546D01*
X153794553Y-119713992D01*
X153676275Y-119608611D01*
X153668889Y-119604700D01*
X153542988Y-119538039D01*
X153542989Y-119538039D01*
X153536274Y-119534484D01*
X153382633Y-119495892D01*
X153375034Y-119495852D01*
X153375033Y-119495852D01*
X153309181Y-119495507D01*
X153224221Y-119495062D01*
X153216841Y-119496834D01*
X153216839Y-119496834D01*
X153077563Y-119530271D01*
X153077560Y-119530272D01*
X153070184Y-119532043D01*
X152929414Y-119604700D01*
X152810039Y-119708838D01*
X152718950Y-119838444D01*
X152661406Y-119986037D01*
X152660414Y-119993570D01*
X152660414Y-119993571D01*
X152647534Y-120091408D01*
X152640729Y-120143096D01*
X143554500Y-120143096D01*
X143554500Y-117743096D01*
X145240729Y-117743096D01*
X145244119Y-117773798D01*
X145255986Y-117881286D01*
X145258113Y-117900553D01*
X145260723Y-117907684D01*
X145260723Y-117907686D01*
X145293005Y-117995900D01*
X145312553Y-118049319D01*
X145400908Y-118180805D01*
X145406527Y-118185918D01*
X145406528Y-118185919D01*
X145417903Y-118196269D01*
X145518076Y-118287419D01*
X145657293Y-118363008D01*
X145810522Y-118403207D01*
X145894477Y-118404526D01*
X145961319Y-118405576D01*
X145961322Y-118405576D01*
X145968916Y-118405695D01*
X146123332Y-118370329D01*
X146209000Y-118327243D01*
X146258072Y-118302563D01*
X146258075Y-118302561D01*
X146264855Y-118299151D01*
X146270626Y-118294222D01*
X146270629Y-118294220D01*
X146379536Y-118201204D01*
X146379536Y-118201203D01*
X146385314Y-118196269D01*
X146477755Y-118067624D01*
X146536842Y-117920641D01*
X146544463Y-117867091D01*
X146558581Y-117767891D01*
X146558581Y-117767888D01*
X146559162Y-117763807D01*
X146559307Y-117750000D01*
X146540276Y-117592733D01*
X146484280Y-117444546D01*
X146483283Y-117443096D01*
X150340729Y-117443096D01*
X150345331Y-117484779D01*
X150357250Y-117592733D01*
X150358113Y-117600553D01*
X150360723Y-117607684D01*
X150360723Y-117607686D01*
X150407733Y-117736147D01*
X150412553Y-117749319D01*
X150416789Y-117755622D01*
X150416789Y-117755623D01*
X150491693Y-117867091D01*
X150500908Y-117880805D01*
X150506527Y-117885918D01*
X150506528Y-117885919D01*
X150517903Y-117896269D01*
X150618076Y-117987419D01*
X150757293Y-118063008D01*
X150910522Y-118103207D01*
X150994477Y-118104526D01*
X151061319Y-118105576D01*
X151061322Y-118105576D01*
X151068916Y-118105695D01*
X151223332Y-118070329D01*
X151293742Y-118034917D01*
X151358072Y-118002563D01*
X151358075Y-118002561D01*
X151364855Y-117999151D01*
X151370626Y-117994222D01*
X151370629Y-117994220D01*
X151479536Y-117901204D01*
X151479536Y-117901203D01*
X151485314Y-117896269D01*
X151577755Y-117767624D01*
X151636842Y-117620641D01*
X151646695Y-117551408D01*
X151658581Y-117467891D01*
X151658581Y-117467888D01*
X151659162Y-117463807D01*
X151659307Y-117450000D01*
X151640276Y-117292733D01*
X151584280Y-117144546D01*
X151494553Y-117013992D01*
X151376275Y-116908611D01*
X151368889Y-116904700D01*
X151242988Y-116838039D01*
X151242989Y-116838039D01*
X151236274Y-116834484D01*
X151082633Y-116795892D01*
X151075034Y-116795852D01*
X151075033Y-116795852D01*
X151009181Y-116795507D01*
X150924221Y-116795062D01*
X150916841Y-116796834D01*
X150916839Y-116796834D01*
X150777563Y-116830271D01*
X150777560Y-116830272D01*
X150770184Y-116832043D01*
X150629414Y-116904700D01*
X150510039Y-117008838D01*
X150418950Y-117138444D01*
X150361406Y-117286037D01*
X150360414Y-117293570D01*
X150360414Y-117293571D01*
X150342160Y-117432228D01*
X150340729Y-117443096D01*
X146483283Y-117443096D01*
X146394553Y-117313992D01*
X146386065Y-117306429D01*
X146281946Y-117213664D01*
X146276275Y-117208611D01*
X146268889Y-117204700D01*
X146142988Y-117138039D01*
X146142989Y-117138039D01*
X146136274Y-117134484D01*
X145982633Y-117095892D01*
X145975034Y-117095852D01*
X145975033Y-117095852D01*
X145909181Y-117095507D01*
X145824221Y-117095062D01*
X145816841Y-117096834D01*
X145816839Y-117096834D01*
X145677563Y-117130271D01*
X145677560Y-117130272D01*
X145670184Y-117132043D01*
X145529414Y-117204700D01*
X145410039Y-117308838D01*
X145318950Y-117438444D01*
X145261406Y-117586037D01*
X145260414Y-117593570D01*
X145260414Y-117593571D01*
X145255712Y-117629291D01*
X145240729Y-117743096D01*
X143554500Y-117743096D01*
X143554500Y-115743096D01*
X146290729Y-115743096D01*
X146294865Y-115780555D01*
X146307009Y-115890552D01*
X146308113Y-115900553D01*
X146310723Y-115907684D01*
X146310723Y-115907686D01*
X146352199Y-116021024D01*
X146362553Y-116049319D01*
X146366789Y-116055622D01*
X146366789Y-116055623D01*
X146437688Y-116161131D01*
X146450908Y-116180805D01*
X146456527Y-116185918D01*
X146456528Y-116185919D01*
X146514213Y-116238408D01*
X146568076Y-116287419D01*
X146707293Y-116363008D01*
X146860522Y-116403207D01*
X146944477Y-116404526D01*
X147011319Y-116405576D01*
X147011322Y-116405576D01*
X147018916Y-116405695D01*
X147173332Y-116370329D01*
X147261181Y-116326146D01*
X147276193Y-116318596D01*
X152990729Y-116318596D01*
X152998738Y-116391142D01*
X153005370Y-116451204D01*
X153008113Y-116476053D01*
X153010723Y-116483184D01*
X153010723Y-116483186D01*
X153058936Y-116614934D01*
X153062553Y-116624819D01*
X153150908Y-116756305D01*
X153156527Y-116761418D01*
X153156528Y-116761419D01*
X153234793Y-116832634D01*
X153268076Y-116862919D01*
X153407293Y-116938508D01*
X153560522Y-116978707D01*
X153644477Y-116980026D01*
X153711319Y-116981076D01*
X153711322Y-116981076D01*
X153718916Y-116981195D01*
X153873332Y-116945829D01*
X153977213Y-116893583D01*
X154008072Y-116878063D01*
X154008075Y-116878061D01*
X154014855Y-116874651D01*
X154020626Y-116869722D01*
X154020629Y-116869720D01*
X154129536Y-116776704D01*
X154129536Y-116776703D01*
X154135314Y-116771769D01*
X154227755Y-116643124D01*
X154286842Y-116496141D01*
X154309162Y-116339307D01*
X154309307Y-116325500D01*
X154307501Y-116310571D01*
X154294266Y-116201204D01*
X154290276Y-116168233D01*
X154234280Y-116020046D01*
X154220503Y-116000000D01*
X154215758Y-115993096D01*
X154590729Y-115993096D01*
X154608113Y-116150553D01*
X154610723Y-116157684D01*
X154610723Y-116157686D01*
X154619184Y-116180805D01*
X154662553Y-116299319D01*
X154666789Y-116305622D01*
X154666789Y-116305623D01*
X154746589Y-116424377D01*
X154750908Y-116430805D01*
X154756527Y-116435918D01*
X154756528Y-116435919D01*
X154767903Y-116446269D01*
X154868076Y-116537419D01*
X155007293Y-116613008D01*
X155160522Y-116653207D01*
X155244477Y-116654526D01*
X155311319Y-116655576D01*
X155311322Y-116655576D01*
X155318916Y-116655695D01*
X155473332Y-116620329D01*
X155543742Y-116584917D01*
X155608072Y-116552563D01*
X155608075Y-116552561D01*
X155614855Y-116549151D01*
X155620626Y-116544222D01*
X155620629Y-116544220D01*
X155729536Y-116451204D01*
X155729536Y-116451203D01*
X155735314Y-116446269D01*
X155827755Y-116317624D01*
X155886842Y-116170641D01*
X155903211Y-116055623D01*
X155908581Y-116017891D01*
X155908581Y-116017888D01*
X155909162Y-116013807D01*
X155909307Y-116000000D01*
X155890276Y-115842733D01*
X155834280Y-115694546D01*
X155744553Y-115563992D01*
X155626275Y-115458611D01*
X155618889Y-115454700D01*
X155492988Y-115388039D01*
X155492989Y-115388039D01*
X155486274Y-115384484D01*
X155332633Y-115345892D01*
X155325034Y-115345852D01*
X155325033Y-115345852D01*
X155259181Y-115345507D01*
X155174221Y-115345062D01*
X155166841Y-115346834D01*
X155166839Y-115346834D01*
X155027563Y-115380271D01*
X155027560Y-115380272D01*
X155020184Y-115382043D01*
X154879414Y-115454700D01*
X154760039Y-115558838D01*
X154668950Y-115688444D01*
X154611406Y-115836037D01*
X154610414Y-115843570D01*
X154610414Y-115843571D01*
X154600268Y-115920641D01*
X154590729Y-115993096D01*
X154215758Y-115993096D01*
X154148855Y-115895751D01*
X154148854Y-115895749D01*
X154144553Y-115889492D01*
X154026275Y-115784111D01*
X154018889Y-115780200D01*
X153980137Y-115759682D01*
X153886274Y-115709984D01*
X153732633Y-115671392D01*
X153725034Y-115671352D01*
X153725033Y-115671352D01*
X153659181Y-115671007D01*
X153574221Y-115670562D01*
X153566841Y-115672334D01*
X153566839Y-115672334D01*
X153427563Y-115705771D01*
X153427560Y-115705772D01*
X153420184Y-115707543D01*
X153279414Y-115780200D01*
X153273695Y-115785189D01*
X153269138Y-115789164D01*
X153160039Y-115884338D01*
X153068950Y-116013944D01*
X153055158Y-116049319D01*
X153016170Y-116149319D01*
X153011406Y-116161537D01*
X153010414Y-116169070D01*
X153010414Y-116169071D01*
X152991786Y-116310571D01*
X152990729Y-116318596D01*
X147276193Y-116318596D01*
X147308072Y-116302563D01*
X147308075Y-116302561D01*
X147314855Y-116299151D01*
X147320626Y-116294222D01*
X147320629Y-116294220D01*
X147429536Y-116201204D01*
X147429536Y-116201203D01*
X147435314Y-116196269D01*
X147527755Y-116067624D01*
X147586842Y-115920641D01*
X147595344Y-115860900D01*
X147608581Y-115767891D01*
X147608581Y-115767888D01*
X147609162Y-115763807D01*
X147609307Y-115750000D01*
X147590276Y-115592733D01*
X147534280Y-115444546D01*
X147495265Y-115387779D01*
X147448855Y-115320251D01*
X147448854Y-115320249D01*
X147444553Y-115313992D01*
X147326275Y-115208611D01*
X147318889Y-115204700D01*
X147192988Y-115138039D01*
X147192989Y-115138039D01*
X147186274Y-115134484D01*
X147105294Y-115114143D01*
X147034919Y-115096466D01*
X146973724Y-115060471D01*
X146950546Y-115014604D01*
X146915318Y-115070243D01*
X146861578Y-115098097D01*
X146727564Y-115130271D01*
X146727562Y-115130272D01*
X146720184Y-115132043D01*
X146579414Y-115204700D01*
X146460039Y-115308838D01*
X146368950Y-115438444D01*
X146360667Y-115459689D01*
X146317561Y-115570251D01*
X146311406Y-115586037D01*
X146310414Y-115593570D01*
X146310414Y-115593571D01*
X146291808Y-115734901D01*
X146290729Y-115743096D01*
X143554500Y-115743096D01*
X143554500Y-114193096D01*
X146290729Y-114193096D01*
X146308113Y-114350553D01*
X146310723Y-114357684D01*
X146310723Y-114357686D01*
X146314506Y-114368022D01*
X146362553Y-114499319D01*
X146450908Y-114630805D01*
X146456527Y-114635918D01*
X146456528Y-114635919D01*
X146467903Y-114646269D01*
X146568076Y-114737419D01*
X146707293Y-114813008D01*
X146735199Y-114820329D01*
X146860522Y-114853207D01*
X146859914Y-114855524D01*
X146914031Y-114879798D01*
X146948401Y-114932492D01*
X146949023Y-114926487D01*
X146993361Y-114871037D01*
X147037486Y-114851442D01*
X147165927Y-114822025D01*
X147173332Y-114820329D01*
X147243742Y-114784917D01*
X147308072Y-114752563D01*
X147308075Y-114752561D01*
X147314855Y-114749151D01*
X147320626Y-114744222D01*
X147320629Y-114744220D01*
X147429536Y-114651204D01*
X147429536Y-114651203D01*
X147435314Y-114646269D01*
X147527755Y-114517624D01*
X147586842Y-114370641D01*
X147595286Y-114311307D01*
X147608581Y-114217891D01*
X147608581Y-114217888D01*
X147609162Y-114213807D01*
X147609307Y-114200000D01*
X147590276Y-114042733D01*
X147534280Y-113894546D01*
X147444553Y-113763992D01*
X147326275Y-113658611D01*
X147318889Y-113654700D01*
X147192988Y-113588039D01*
X147192989Y-113588039D01*
X147186274Y-113584484D01*
X147032633Y-113545892D01*
X147025034Y-113545852D01*
X147025033Y-113545852D01*
X146959181Y-113545507D01*
X146874221Y-113545062D01*
X146866841Y-113546834D01*
X146866839Y-113546834D01*
X146727563Y-113580271D01*
X146727560Y-113580272D01*
X146720184Y-113582043D01*
X146579414Y-113654700D01*
X146460039Y-113758838D01*
X146368950Y-113888444D01*
X146311406Y-114036037D01*
X146290729Y-114193096D01*
X143554500Y-114193096D01*
X143554500Y-112093096D01*
X150640729Y-112093096D01*
X150649421Y-112171824D01*
X150655450Y-112226429D01*
X150658113Y-112250553D01*
X150660723Y-112257684D01*
X150660723Y-112257686D01*
X150663708Y-112265841D01*
X150712553Y-112399319D01*
X150716789Y-112405622D01*
X150716789Y-112405623D01*
X150725925Y-112419218D01*
X150800908Y-112530805D01*
X150806527Y-112535918D01*
X150806528Y-112535919D01*
X150912460Y-112632309D01*
X150918076Y-112637419D01*
X151057293Y-112713008D01*
X151210522Y-112753207D01*
X151294477Y-112754526D01*
X151361319Y-112755576D01*
X151361322Y-112755576D01*
X151368916Y-112755695D01*
X151523332Y-112720329D01*
X151639793Y-112661756D01*
X151658072Y-112652563D01*
X151658075Y-112652561D01*
X151664855Y-112649151D01*
X151670626Y-112644222D01*
X151670629Y-112644220D01*
X151779536Y-112551204D01*
X151779536Y-112551203D01*
X151785314Y-112546269D01*
X151877755Y-112417624D01*
X151936842Y-112270641D01*
X151959162Y-112113807D01*
X151959307Y-112100000D01*
X151940276Y-111942733D01*
X151884280Y-111794546D01*
X151794553Y-111663992D01*
X151676275Y-111558611D01*
X151668889Y-111554700D01*
X151542988Y-111488039D01*
X151542989Y-111488039D01*
X151536274Y-111484484D01*
X151382633Y-111445892D01*
X151375034Y-111445852D01*
X151375033Y-111445852D01*
X151309181Y-111445507D01*
X151224221Y-111445062D01*
X151216841Y-111446834D01*
X151216839Y-111446834D01*
X151077563Y-111480271D01*
X151077560Y-111480272D01*
X151070184Y-111482043D01*
X150929414Y-111554700D01*
X150810039Y-111658838D01*
X150718950Y-111788444D01*
X150661406Y-111936037D01*
X150640729Y-112093096D01*
X143554500Y-112093096D01*
X143554500Y-109337875D01*
X145220910Y-109337875D01*
X145238294Y-109495332D01*
X145292734Y-109644098D01*
X145296970Y-109650401D01*
X145296970Y-109650402D01*
X145339196Y-109713240D01*
X145381089Y-109775584D01*
X145386708Y-109780697D01*
X145386709Y-109780698D01*
X145487480Y-109872392D01*
X145498257Y-109882198D01*
X145637474Y-109957787D01*
X145790703Y-109997986D01*
X145874658Y-109999305D01*
X145941500Y-110000355D01*
X145941503Y-110000355D01*
X145949097Y-110000474D01*
X146103513Y-109965108D01*
X146173923Y-109929696D01*
X146238253Y-109897342D01*
X146238256Y-109897340D01*
X146245036Y-109893930D01*
X146250807Y-109889001D01*
X146250810Y-109888999D01*
X146359717Y-109795983D01*
X146359717Y-109795982D01*
X146365495Y-109791048D01*
X146457936Y-109662403D01*
X146517023Y-109515420D01*
X146539343Y-109358586D01*
X146539488Y-109344779D01*
X146520457Y-109187512D01*
X146464461Y-109039325D01*
X146374734Y-108908771D01*
X146256456Y-108803390D01*
X146249070Y-108799479D01*
X146123169Y-108732818D01*
X146123170Y-108732818D01*
X146116455Y-108729263D01*
X145962814Y-108690671D01*
X145955215Y-108690631D01*
X145955214Y-108690631D01*
X145889362Y-108690286D01*
X145804402Y-108689841D01*
X145797022Y-108691613D01*
X145797020Y-108691613D01*
X145657744Y-108725050D01*
X145657741Y-108725051D01*
X145650365Y-108726822D01*
X145509595Y-108799479D01*
X145390220Y-108903617D01*
X145299131Y-109033223D01*
X145241587Y-109180816D01*
X145240595Y-109188349D01*
X145240595Y-109188350D01*
X145239611Y-109195828D01*
X145220910Y-109337875D01*
X143554500Y-109337875D01*
X143554500Y-108142182D01*
X149990594Y-108142182D01*
X149993361Y-108167243D01*
X150006458Y-108285870D01*
X150007978Y-108299639D01*
X150010588Y-108306770D01*
X150010588Y-108306772D01*
X150031899Y-108365006D01*
X150062418Y-108448405D01*
X150066654Y-108454708D01*
X150066654Y-108454709D01*
X150129820Y-108548709D01*
X150150773Y-108579891D01*
X150156392Y-108585004D01*
X150156393Y-108585005D01*
X150262325Y-108681395D01*
X150267941Y-108686505D01*
X150407158Y-108762094D01*
X150560387Y-108802293D01*
X150644342Y-108803612D01*
X150711184Y-108804662D01*
X150711187Y-108804662D01*
X150718781Y-108804781D01*
X150873197Y-108769415D01*
X150953031Y-108729263D01*
X151007937Y-108701649D01*
X151007940Y-108701647D01*
X151014720Y-108698237D01*
X151020491Y-108693308D01*
X151020494Y-108693306D01*
X151129401Y-108600290D01*
X151129401Y-108600289D01*
X151135179Y-108595355D01*
X151227620Y-108466710D01*
X151286707Y-108319727D01*
X151297526Y-108243709D01*
X151308446Y-108166977D01*
X151308446Y-108166974D01*
X151309027Y-108162893D01*
X151309172Y-108149086D01*
X151290141Y-107991819D01*
X151234145Y-107843632D01*
X151155980Y-107729901D01*
X151148720Y-107719337D01*
X151148719Y-107719335D01*
X151144418Y-107713078D01*
X151135683Y-107705295D01*
X151031811Y-107612750D01*
X151026140Y-107607697D01*
X151018754Y-107603786D01*
X150892853Y-107537125D01*
X150892854Y-107537125D01*
X150886139Y-107533570D01*
X150732498Y-107494978D01*
X150724899Y-107494938D01*
X150724898Y-107494938D01*
X150659046Y-107494593D01*
X150574086Y-107494148D01*
X150566706Y-107495920D01*
X150566704Y-107495920D01*
X150427428Y-107529357D01*
X150427425Y-107529358D01*
X150420049Y-107531129D01*
X150279279Y-107603786D01*
X150159904Y-107707924D01*
X150068815Y-107837530D01*
X150011271Y-107985123D01*
X150010279Y-107992656D01*
X150010279Y-107992657D01*
X149994186Y-108114901D01*
X149990594Y-108142182D01*
X143554500Y-108142182D01*
X143554500Y-106193096D01*
X147540729Y-106193096D01*
X147558113Y-106350553D01*
X147612553Y-106499319D01*
X147700908Y-106630805D01*
X147706527Y-106635918D01*
X147706528Y-106635919D01*
X147717903Y-106646269D01*
X147818076Y-106737419D01*
X147957293Y-106813008D01*
X148110522Y-106853207D01*
X148194477Y-106854526D01*
X148261319Y-106855576D01*
X148261322Y-106855576D01*
X148268916Y-106855695D01*
X148423332Y-106820329D01*
X148525511Y-106768939D01*
X148558072Y-106752563D01*
X148558075Y-106752561D01*
X148564855Y-106749151D01*
X148570626Y-106744222D01*
X148570629Y-106744220D01*
X148679536Y-106651204D01*
X148679536Y-106651203D01*
X148685314Y-106646269D01*
X148777755Y-106517624D01*
X148836842Y-106370641D01*
X148851604Y-106266916D01*
X148858581Y-106217891D01*
X148858581Y-106217888D01*
X148859162Y-106213807D01*
X148859307Y-106200000D01*
X148840276Y-106042733D01*
X148784280Y-105894546D01*
X148694553Y-105763992D01*
X148576275Y-105658611D01*
X148568889Y-105654700D01*
X148546973Y-105643096D01*
X149390729Y-105643096D01*
X149394903Y-105680899D01*
X149404768Y-105770251D01*
X149408113Y-105800553D01*
X149410723Y-105807684D01*
X149410723Y-105807686D01*
X149420592Y-105834653D01*
X149462553Y-105949319D01*
X149466789Y-105955622D01*
X149466789Y-105955623D01*
X149525325Y-106042733D01*
X149550908Y-106080805D01*
X149556527Y-106085918D01*
X149556528Y-106085919D01*
X149567903Y-106096269D01*
X149668076Y-106187419D01*
X149807293Y-106263008D01*
X149960522Y-106303207D01*
X150044477Y-106304526D01*
X150111319Y-106305576D01*
X150111322Y-106305576D01*
X150118916Y-106305695D01*
X150273332Y-106270329D01*
X150343742Y-106234917D01*
X150408072Y-106202563D01*
X150408075Y-106202561D01*
X150414855Y-106199151D01*
X150420626Y-106194222D01*
X150420629Y-106194220D01*
X150529536Y-106101204D01*
X150529536Y-106101203D01*
X150535314Y-106096269D01*
X150627755Y-105967624D01*
X150686842Y-105820641D01*
X150703883Y-105700900D01*
X150708581Y-105667891D01*
X150708581Y-105667888D01*
X150709162Y-105663807D01*
X150709307Y-105650000D01*
X150708463Y-105643021D01*
X150691188Y-105500273D01*
X150690276Y-105492733D01*
X150634280Y-105344546D01*
X150600846Y-105295899D01*
X150548855Y-105220251D01*
X150548854Y-105220249D01*
X150544553Y-105213992D01*
X150426275Y-105108611D01*
X150418889Y-105104700D01*
X150292988Y-105038039D01*
X150292989Y-105038039D01*
X150286274Y-105034484D01*
X150132633Y-104995892D01*
X150125034Y-104995852D01*
X150125033Y-104995852D01*
X150059181Y-104995507D01*
X149974221Y-104995062D01*
X149966841Y-104996834D01*
X149966839Y-104996834D01*
X149827563Y-105030271D01*
X149827560Y-105030272D01*
X149820184Y-105032043D01*
X149679414Y-105104700D01*
X149560039Y-105208838D01*
X149468950Y-105338444D01*
X149411406Y-105486037D01*
X149410414Y-105493570D01*
X149410414Y-105493571D01*
X149398767Y-105582043D01*
X149390729Y-105643096D01*
X148546973Y-105643096D01*
X148442988Y-105588039D01*
X148442989Y-105588039D01*
X148436274Y-105584484D01*
X148282633Y-105545892D01*
X148275034Y-105545852D01*
X148275033Y-105545852D01*
X148209181Y-105545507D01*
X148124221Y-105545062D01*
X148116841Y-105546834D01*
X148116839Y-105546834D01*
X147977563Y-105580271D01*
X147977560Y-105580272D01*
X147970184Y-105582043D01*
X147829414Y-105654700D01*
X147710039Y-105758838D01*
X147618950Y-105888444D01*
X147595599Y-105948336D01*
X147572061Y-106008709D01*
X147561406Y-106036037D01*
X147560414Y-106043570D01*
X147560414Y-106043571D01*
X147552827Y-106101204D01*
X147540729Y-106193096D01*
X143554500Y-106193096D01*
X143554500Y-104493096D01*
X144040729Y-104493096D01*
X144043770Y-104520641D01*
X144056202Y-104633240D01*
X144058113Y-104650553D01*
X144060723Y-104657684D01*
X144060723Y-104657686D01*
X144109178Y-104790095D01*
X144112553Y-104799319D01*
X144200908Y-104930805D01*
X144206527Y-104935918D01*
X144206528Y-104935919D01*
X144310220Y-105030271D01*
X144318076Y-105037419D01*
X144457293Y-105113008D01*
X144610522Y-105153207D01*
X144694477Y-105154526D01*
X144761319Y-105155576D01*
X144761322Y-105155576D01*
X144768916Y-105155695D01*
X144923332Y-105120329D01*
X144993742Y-105084917D01*
X145058072Y-105052563D01*
X145058075Y-105052561D01*
X145064855Y-105049151D01*
X145070626Y-105044222D01*
X145070629Y-105044220D01*
X145179536Y-104951204D01*
X145179536Y-104951203D01*
X145185314Y-104946269D01*
X145277755Y-104817624D01*
X145336842Y-104670641D01*
X145357186Y-104527695D01*
X145358581Y-104517891D01*
X145358581Y-104517888D01*
X145359162Y-104513807D01*
X145359307Y-104500000D01*
X145340276Y-104342733D01*
X145284280Y-104194546D01*
X145194553Y-104063992D01*
X145180700Y-104051649D01*
X145081946Y-103963664D01*
X145076275Y-103958611D01*
X145068889Y-103954700D01*
X144992005Y-103913992D01*
X144936274Y-103884484D01*
X144782633Y-103845892D01*
X144775034Y-103845852D01*
X144775033Y-103845852D01*
X144709181Y-103845507D01*
X144624221Y-103845062D01*
X144616841Y-103846834D01*
X144616839Y-103846834D01*
X144477563Y-103880271D01*
X144477560Y-103880272D01*
X144470184Y-103882043D01*
X144329414Y-103954700D01*
X144210039Y-104058838D01*
X144118950Y-104188444D01*
X144061406Y-104336037D01*
X144060414Y-104343570D01*
X144060414Y-104343571D01*
X144059024Y-104354134D01*
X144040729Y-104493096D01*
X143554500Y-104493096D01*
X143554500Y-103568096D01*
X147840729Y-103568096D01*
X147844323Y-103600646D01*
X147856596Y-103711810D01*
X147858113Y-103725553D01*
X147860723Y-103732684D01*
X147860723Y-103732686D01*
X147902828Y-103847743D01*
X147912553Y-103874319D01*
X147916789Y-103880622D01*
X147916789Y-103880623D01*
X147972150Y-103963008D01*
X148000908Y-104005805D01*
X148006527Y-104010918D01*
X148006528Y-104010919D01*
X148112460Y-104107309D01*
X148118076Y-104112419D01*
X148257293Y-104188008D01*
X148410522Y-104228207D01*
X148494477Y-104229526D01*
X148561319Y-104230576D01*
X148561322Y-104230576D01*
X148568916Y-104230695D01*
X148723332Y-104195329D01*
X148831271Y-104141042D01*
X148858072Y-104127563D01*
X148858075Y-104127561D01*
X148864855Y-104124151D01*
X148870626Y-104119222D01*
X148870629Y-104119220D01*
X148979536Y-104026204D01*
X148979536Y-104026203D01*
X148985314Y-104021269D01*
X149077755Y-103892624D01*
X149136842Y-103745641D01*
X149158552Y-103593096D01*
X150990729Y-103593096D01*
X150991563Y-103600646D01*
X151006740Y-103738115D01*
X151008113Y-103750553D01*
X151010723Y-103757684D01*
X151010723Y-103757686D01*
X151057505Y-103885524D01*
X151062553Y-103899319D01*
X151066789Y-103905622D01*
X151066789Y-103905623D01*
X151134109Y-104005805D01*
X151150908Y-104030805D01*
X151156527Y-104035918D01*
X151156528Y-104035919D01*
X151257244Y-104127563D01*
X151268076Y-104137419D01*
X151407293Y-104213008D01*
X151560522Y-104253207D01*
X151644477Y-104254526D01*
X151711319Y-104255576D01*
X151711322Y-104255576D01*
X151718916Y-104255695D01*
X151873332Y-104220329D01*
X151955590Y-104178958D01*
X152008072Y-104152563D01*
X152008075Y-104152561D01*
X152014855Y-104149151D01*
X152020626Y-104144222D01*
X152020629Y-104144220D01*
X152129536Y-104051204D01*
X152129536Y-104051203D01*
X152135314Y-104046269D01*
X152227755Y-103917624D01*
X152286842Y-103770641D01*
X152287858Y-103763499D01*
X152324724Y-103703016D01*
X152388585Y-103671994D01*
X152459079Y-103680422D01*
X152514061Y-103725973D01*
X152546667Y-103774495D01*
X152546671Y-103774499D01*
X152550908Y-103780805D01*
X152556527Y-103785918D01*
X152556528Y-103785919D01*
X152587020Y-103813664D01*
X152668076Y-103887419D01*
X152777660Y-103946918D01*
X152784829Y-103950811D01*
X152835151Y-104000894D01*
X152850407Y-104070232D01*
X152842101Y-104107309D01*
X152811406Y-104186037D01*
X152810414Y-104193570D01*
X152810414Y-104193571D01*
X152802459Y-104253999D01*
X152790729Y-104343096D01*
X152808113Y-104500553D01*
X152810723Y-104507684D01*
X152810723Y-104507686D01*
X152859018Y-104639658D01*
X152862553Y-104649319D01*
X152866789Y-104655622D01*
X152866789Y-104655623D01*
X152871824Y-104663115D01*
X152950908Y-104780805D01*
X152956527Y-104785918D01*
X152956528Y-104785919D01*
X152991372Y-104817624D01*
X153068076Y-104887419D01*
X153207293Y-104963008D01*
X153360522Y-105003207D01*
X153444477Y-105004526D01*
X153511319Y-105005576D01*
X153511322Y-105005576D01*
X153518916Y-105005695D01*
X153673332Y-104970329D01*
X153743775Y-104934900D01*
X153808072Y-104902563D01*
X153808075Y-104902561D01*
X153814855Y-104899151D01*
X153820626Y-104894222D01*
X153820629Y-104894220D01*
X153929536Y-104801204D01*
X153929536Y-104801203D01*
X153935314Y-104796269D01*
X154027755Y-104667624D01*
X154086842Y-104520641D01*
X154109162Y-104363807D01*
X154109307Y-104350000D01*
X154090276Y-104192733D01*
X154034280Y-104044546D01*
X153972531Y-103954700D01*
X153948855Y-103920251D01*
X153948854Y-103920249D01*
X153944553Y-103913992D01*
X153927500Y-103898798D01*
X153900025Y-103874319D01*
X153826275Y-103808611D01*
X153716128Y-103750291D01*
X153665285Y-103700738D01*
X153649303Y-103631564D01*
X153658180Y-103591941D01*
X153684006Y-103527698D01*
X153684008Y-103527691D01*
X153686842Y-103520641D01*
X153699890Y-103428957D01*
X153708581Y-103367891D01*
X153708581Y-103367888D01*
X153709162Y-103363807D01*
X153709307Y-103350000D01*
X153690276Y-103192733D01*
X153634280Y-103044546D01*
X153615649Y-103017438D01*
X153548855Y-102920251D01*
X153548854Y-102920249D01*
X153544553Y-102913992D01*
X153426275Y-102808611D01*
X153418889Y-102804700D01*
X153292988Y-102738039D01*
X153292989Y-102738039D01*
X153286274Y-102734484D01*
X153132633Y-102695892D01*
X153125034Y-102695852D01*
X153125033Y-102695852D01*
X153059181Y-102695507D01*
X152974221Y-102695062D01*
X152966841Y-102696834D01*
X152966839Y-102696834D01*
X152827563Y-102730271D01*
X152827560Y-102730272D01*
X152820184Y-102732043D01*
X152679414Y-102804700D01*
X152560039Y-102908838D01*
X152468950Y-103038444D01*
X152449924Y-103087243D01*
X152417561Y-103170251D01*
X152411406Y-103186037D01*
X152411215Y-103187489D01*
X152376239Y-103246247D01*
X152312707Y-103277937D01*
X152242128Y-103270247D01*
X152186671Y-103225274D01*
X152148855Y-103170251D01*
X152148854Y-103170249D01*
X152144553Y-103163992D01*
X152026275Y-103058611D01*
X152018889Y-103054700D01*
X151892988Y-102988039D01*
X151892989Y-102988039D01*
X151886274Y-102984484D01*
X151732633Y-102945892D01*
X151725034Y-102945852D01*
X151725033Y-102945852D01*
X151659181Y-102945507D01*
X151574221Y-102945062D01*
X151566841Y-102946834D01*
X151566839Y-102946834D01*
X151427563Y-102980271D01*
X151427560Y-102980272D01*
X151420184Y-102982043D01*
X151279414Y-103054700D01*
X151160039Y-103158838D01*
X151068950Y-103288444D01*
X151066190Y-103295524D01*
X151015603Y-103425273D01*
X151011406Y-103436037D01*
X151010414Y-103443570D01*
X151010414Y-103443571D01*
X150991837Y-103584682D01*
X150990729Y-103593096D01*
X149158552Y-103593096D01*
X149159162Y-103588807D01*
X149159307Y-103575000D01*
X149140276Y-103417733D01*
X149084280Y-103269546D01*
X149012774Y-103165504D01*
X148998855Y-103145251D01*
X148998854Y-103145249D01*
X148994553Y-103138992D01*
X148988883Y-103133940D01*
X148988338Y-103133322D01*
X148958293Y-103068996D01*
X148967794Y-102998638D01*
X148985639Y-102971502D01*
X148985314Y-102971269D01*
X149034136Y-102903326D01*
X149077755Y-102842624D01*
X149136842Y-102695641D01*
X149146198Y-102629899D01*
X149158581Y-102542891D01*
X149158581Y-102542888D01*
X149159162Y-102538807D01*
X149159307Y-102525000D01*
X149140276Y-102367733D01*
X149093179Y-102243096D01*
X149640729Y-102243096D01*
X149648271Y-102311408D01*
X149656870Y-102389291D01*
X149658113Y-102400553D01*
X149660723Y-102407684D01*
X149660723Y-102407686D01*
X149707197Y-102534682D01*
X149712553Y-102549319D01*
X149716789Y-102555622D01*
X149716789Y-102555623D01*
X149766701Y-102629899D01*
X149800908Y-102680805D01*
X149806527Y-102685918D01*
X149806528Y-102685919D01*
X149859901Y-102734484D01*
X149918076Y-102787419D01*
X150057293Y-102863008D01*
X150210522Y-102903207D01*
X150294477Y-102904526D01*
X150361319Y-102905576D01*
X150361322Y-102905576D01*
X150368916Y-102905695D01*
X150523332Y-102870329D01*
X150614814Y-102824319D01*
X150658072Y-102802563D01*
X150658075Y-102802561D01*
X150664855Y-102799151D01*
X150670626Y-102794222D01*
X150670629Y-102794220D01*
X150779536Y-102701204D01*
X150779536Y-102701203D01*
X150785314Y-102696269D01*
X150877755Y-102567624D01*
X150936842Y-102420641D01*
X150959162Y-102263807D01*
X150959307Y-102250000D01*
X150940276Y-102092733D01*
X150884280Y-101944546D01*
X150794553Y-101813992D01*
X150676275Y-101708611D01*
X150668889Y-101704700D01*
X150599616Y-101668022D01*
X150536274Y-101634484D01*
X150382633Y-101595892D01*
X150375034Y-101595852D01*
X150375033Y-101595852D01*
X150309181Y-101595507D01*
X150224221Y-101595062D01*
X150216841Y-101596834D01*
X150216839Y-101596834D01*
X150077563Y-101630271D01*
X150077560Y-101630272D01*
X150070184Y-101632043D01*
X149929414Y-101704700D01*
X149810039Y-101808838D01*
X149718950Y-101938444D01*
X149716190Y-101945524D01*
X149664210Y-102078846D01*
X149661406Y-102086037D01*
X149660414Y-102093570D01*
X149660414Y-102093571D01*
X149643701Y-102220524D01*
X149640729Y-102243096D01*
X149093179Y-102243096D01*
X149084280Y-102219546D01*
X149006133Y-102105841D01*
X148998855Y-102095251D01*
X148998854Y-102095249D01*
X148994553Y-102088992D01*
X148876275Y-101983611D01*
X148868889Y-101979700D01*
X148830565Y-101959409D01*
X148736274Y-101909484D01*
X148582633Y-101870892D01*
X148575034Y-101870852D01*
X148575033Y-101870852D01*
X148509181Y-101870507D01*
X148424221Y-101870062D01*
X148416841Y-101871834D01*
X148416839Y-101871834D01*
X148277563Y-101905271D01*
X148277560Y-101905272D01*
X148270184Y-101907043D01*
X148129414Y-101979700D01*
X148010039Y-102083838D01*
X147918950Y-102213444D01*
X147900923Y-102259682D01*
X147875802Y-102324114D01*
X147861406Y-102361037D01*
X147860414Y-102368570D01*
X147860414Y-102368571D01*
X147842349Y-102505794D01*
X147840729Y-102518096D01*
X147846197Y-102567624D01*
X147854330Y-102641286D01*
X147858113Y-102675553D01*
X147860723Y-102682684D01*
X147860723Y-102682686D01*
X147906805Y-102808611D01*
X147912553Y-102824319D01*
X147916789Y-102830622D01*
X147916789Y-102830623D01*
X147995491Y-102947743D01*
X148000908Y-102955805D01*
X148006527Y-102960918D01*
X148011489Y-102966666D01*
X148009209Y-102968635D01*
X148038927Y-103017438D01*
X148037208Y-103088414D01*
X148012192Y-103131960D01*
X148010039Y-103133838D01*
X147918950Y-103263444D01*
X147909203Y-103288444D01*
X147865121Y-103401509D01*
X147861406Y-103411037D01*
X147860414Y-103418570D01*
X147860414Y-103418571D01*
X147846977Y-103520641D01*
X147840729Y-103568096D01*
X143554500Y-103568096D01*
X143554500Y-98843096D01*
X149840729Y-98843096D01*
X149858113Y-99000553D01*
X149860723Y-99007684D01*
X149860723Y-99007686D01*
X149899476Y-99113583D01*
X149912553Y-99149319D01*
X150000908Y-99280805D01*
X150006527Y-99285918D01*
X150006528Y-99285919D01*
X150017903Y-99296269D01*
X150118076Y-99387419D01*
X150257293Y-99463008D01*
X150410522Y-99503207D01*
X150494477Y-99504526D01*
X150561319Y-99505576D01*
X150561322Y-99505576D01*
X150568916Y-99505695D01*
X150723332Y-99470329D01*
X150793742Y-99434917D01*
X150858072Y-99402563D01*
X150858075Y-99402561D01*
X150864855Y-99399151D01*
X150870626Y-99394222D01*
X150870629Y-99394220D01*
X150979536Y-99301204D01*
X150979536Y-99301203D01*
X150985314Y-99296269D01*
X151077755Y-99167624D01*
X151136842Y-99020641D01*
X151159162Y-98863807D01*
X151159307Y-98850000D01*
X151140276Y-98692733D01*
X151084280Y-98544546D01*
X151075814Y-98532228D01*
X150998855Y-98420251D01*
X150998854Y-98420249D01*
X150994553Y-98413992D01*
X150876275Y-98308611D01*
X150868889Y-98304700D01*
X150742988Y-98238039D01*
X150742989Y-98238039D01*
X150736274Y-98234484D01*
X150582633Y-98195892D01*
X150575034Y-98195852D01*
X150575033Y-98195852D01*
X150509181Y-98195507D01*
X150424221Y-98195062D01*
X150416841Y-98196834D01*
X150416839Y-98196834D01*
X150277563Y-98230271D01*
X150277560Y-98230272D01*
X150270184Y-98232043D01*
X150129414Y-98304700D01*
X150010039Y-98408838D01*
X149918950Y-98538444D01*
X149916190Y-98545524D01*
X149876691Y-98646834D01*
X149861406Y-98686037D01*
X149840729Y-98843096D01*
X143554500Y-98843096D01*
X143554500Y-96593096D01*
X147090729Y-96593096D01*
X147108113Y-96750553D01*
X147162553Y-96899319D01*
X147166789Y-96905622D01*
X147166789Y-96905623D01*
X147243418Y-97019658D01*
X147250908Y-97030805D01*
X147256527Y-97035918D01*
X147256528Y-97035919D01*
X147267903Y-97046269D01*
X147368076Y-97137419D01*
X147507293Y-97213008D01*
X147660522Y-97253207D01*
X147744477Y-97254526D01*
X147811319Y-97255576D01*
X147811322Y-97255576D01*
X147818916Y-97255695D01*
X147973332Y-97220329D01*
X148068645Y-97172392D01*
X148108072Y-97152563D01*
X148108075Y-97152561D01*
X148114855Y-97149151D01*
X148120626Y-97144222D01*
X148120629Y-97144220D01*
X148229536Y-97051204D01*
X148229536Y-97051203D01*
X148235314Y-97046269D01*
X148327755Y-96917624D01*
X148386842Y-96770641D01*
X148409162Y-96613807D01*
X148409307Y-96600000D01*
X148390276Y-96442733D01*
X148334280Y-96294546D01*
X148244553Y-96163992D01*
X148126275Y-96058611D01*
X148118889Y-96054700D01*
X147992988Y-95988039D01*
X147992989Y-95988039D01*
X147986274Y-95984484D01*
X147832633Y-95945892D01*
X147825034Y-95945852D01*
X147825033Y-95945852D01*
X147759181Y-95945507D01*
X147674221Y-95945062D01*
X147666841Y-95946834D01*
X147666839Y-95946834D01*
X147527563Y-95980271D01*
X147527560Y-95980272D01*
X147520184Y-95982043D01*
X147379414Y-96054700D01*
X147260039Y-96158838D01*
X147168950Y-96288444D01*
X147111406Y-96436037D01*
X147110414Y-96443570D01*
X147110414Y-96443571D01*
X147093298Y-96573583D01*
X147090729Y-96593096D01*
X143554500Y-96593096D01*
X143554500Y-95193096D01*
X154790729Y-95193096D01*
X154808113Y-95350553D01*
X154810723Y-95357684D01*
X154810723Y-95357686D01*
X154856589Y-95483021D01*
X154862553Y-95499319D01*
X154866789Y-95505622D01*
X154866789Y-95505623D01*
X154892043Y-95543204D01*
X154950908Y-95630805D01*
X154956527Y-95635918D01*
X154956528Y-95635919D01*
X155062460Y-95732309D01*
X155068076Y-95737419D01*
X155207293Y-95813008D01*
X155360522Y-95853207D01*
X155444477Y-95854526D01*
X155511319Y-95855576D01*
X155511322Y-95855576D01*
X155518916Y-95855695D01*
X155673332Y-95820329D01*
X155761670Y-95775900D01*
X155808072Y-95752563D01*
X155808075Y-95752561D01*
X155814855Y-95749151D01*
X155820626Y-95744222D01*
X155820629Y-95744220D01*
X155929536Y-95651204D01*
X155929536Y-95651203D01*
X155935314Y-95646269D01*
X156027755Y-95517624D01*
X156086842Y-95370641D01*
X156109162Y-95213807D01*
X156109307Y-95200000D01*
X156090276Y-95042733D01*
X156034280Y-94894546D01*
X155980782Y-94816705D01*
X155948855Y-94770251D01*
X155948854Y-94770249D01*
X155944553Y-94763992D01*
X155826275Y-94658611D01*
X155818889Y-94654700D01*
X155692988Y-94588039D01*
X155692989Y-94588039D01*
X155686274Y-94584484D01*
X155532633Y-94545892D01*
X155525034Y-94545852D01*
X155525033Y-94545852D01*
X155459181Y-94545507D01*
X155374221Y-94545062D01*
X155366841Y-94546834D01*
X155366839Y-94546834D01*
X155227563Y-94580271D01*
X155227560Y-94580272D01*
X155220184Y-94582043D01*
X155079414Y-94654700D01*
X154960039Y-94758838D01*
X154868950Y-94888444D01*
X154866190Y-94895524D01*
X154821597Y-95009899D01*
X154811406Y-95036037D01*
X154790729Y-95193096D01*
X143554500Y-95193096D01*
X143554500Y-94043096D01*
X150690729Y-94043096D01*
X150708113Y-94200553D01*
X150710723Y-94207684D01*
X150710723Y-94207686D01*
X150759178Y-94340095D01*
X150762553Y-94349319D01*
X150766789Y-94355622D01*
X150766789Y-94355623D01*
X150845825Y-94473240D01*
X150850908Y-94480805D01*
X150856527Y-94485918D01*
X150856528Y-94485919D01*
X150960220Y-94580271D01*
X150968076Y-94587419D01*
X151107293Y-94663008D01*
X151260522Y-94703207D01*
X151344477Y-94704526D01*
X151411319Y-94705576D01*
X151411322Y-94705576D01*
X151418916Y-94705695D01*
X151573332Y-94670329D01*
X151663899Y-94624779D01*
X151708072Y-94602563D01*
X151708075Y-94602561D01*
X151714855Y-94599151D01*
X151720626Y-94594222D01*
X151720629Y-94594220D01*
X151829536Y-94501204D01*
X151829536Y-94501203D01*
X151835314Y-94496269D01*
X151870382Y-94447467D01*
X151926376Y-94403819D01*
X151997080Y-94397373D01*
X152057501Y-94427796D01*
X152068076Y-94437419D01*
X152207293Y-94513008D01*
X152360522Y-94553207D01*
X152444477Y-94554526D01*
X152511319Y-94555576D01*
X152511322Y-94555576D01*
X152518916Y-94555695D01*
X152673332Y-94520329D01*
X152743742Y-94484917D01*
X152808072Y-94452563D01*
X152808075Y-94452561D01*
X152814855Y-94449151D01*
X152820626Y-94444222D01*
X152820629Y-94444220D01*
X152929536Y-94351204D01*
X152929536Y-94351203D01*
X152935314Y-94346269D01*
X153027755Y-94217624D01*
X153086842Y-94070641D01*
X153109162Y-93913807D01*
X153109307Y-93900000D01*
X153090276Y-93742733D01*
X153034280Y-93594546D01*
X153015233Y-93566833D01*
X152948855Y-93470251D01*
X152948854Y-93470249D01*
X152944553Y-93463992D01*
X152826275Y-93358611D01*
X152818889Y-93354700D01*
X152717994Y-93301279D01*
X152686274Y-93284484D01*
X152532633Y-93245892D01*
X152525034Y-93245852D01*
X152525033Y-93245852D01*
X152459181Y-93245507D01*
X152374221Y-93245062D01*
X152366841Y-93246834D01*
X152366839Y-93246834D01*
X152227563Y-93280271D01*
X152227560Y-93280272D01*
X152220184Y-93282043D01*
X152079414Y-93354700D01*
X151960039Y-93458838D01*
X151955672Y-93465051D01*
X151955667Y-93465057D01*
X151929830Y-93501819D01*
X151874296Y-93546051D01*
X151803664Y-93553236D01*
X151742927Y-93523446D01*
X151731951Y-93513667D01*
X151731945Y-93513663D01*
X151726275Y-93508611D01*
X151718889Y-93504700D01*
X151632465Y-93458941D01*
X151586274Y-93434484D01*
X151432633Y-93395892D01*
X151425034Y-93395852D01*
X151425033Y-93395852D01*
X151359181Y-93395507D01*
X151274221Y-93395062D01*
X151266841Y-93396834D01*
X151266839Y-93396834D01*
X151127563Y-93430271D01*
X151127560Y-93430272D01*
X151120184Y-93432043D01*
X150979414Y-93504700D01*
X150860039Y-93608838D01*
X150768950Y-93738444D01*
X150711406Y-93886037D01*
X150710414Y-93893570D01*
X150710414Y-93893571D01*
X150695692Y-94005400D01*
X150690729Y-94043096D01*
X143554500Y-94043096D01*
X143554500Y-84206883D01*
X145090300Y-84206883D01*
X145105538Y-84337584D01*
X145165568Y-84502964D01*
X145262034Y-84650098D01*
X145293234Y-84679654D01*
X145352130Y-84735447D01*
X145387828Y-84796817D01*
X145384680Y-84867743D01*
X145361023Y-84907980D01*
X145360039Y-84908838D01*
X145355674Y-84915048D01*
X145355671Y-84915052D01*
X145328410Y-84953841D01*
X145268950Y-85038444D01*
X145211406Y-85186037D01*
X145210414Y-85193570D01*
X145210414Y-85193571D01*
X145193372Y-85323021D01*
X145190729Y-85343096D01*
X145197083Y-85400646D01*
X145207187Y-85492165D01*
X145208113Y-85500553D01*
X145210723Y-85507684D01*
X145210723Y-85507686D01*
X145258497Y-85638234D01*
X145262553Y-85649319D01*
X145266789Y-85655622D01*
X145266789Y-85655623D01*
X145340974Y-85766021D01*
X145350908Y-85780805D01*
X145356527Y-85785918D01*
X145356528Y-85785919D01*
X145462460Y-85882309D01*
X145468076Y-85887419D01*
X145607293Y-85963008D01*
X145760522Y-86003207D01*
X145844477Y-86004526D01*
X145911319Y-86005576D01*
X145911322Y-86005576D01*
X145918916Y-86005695D01*
X146073332Y-85970329D01*
X146204331Y-85904444D01*
X146274176Y-85891706D01*
X146339820Y-85918750D01*
X146380421Y-85976991D01*
X146385867Y-86033455D01*
X146382568Y-86058518D01*
X146377141Y-86099737D01*
X146389037Y-86207484D01*
X146394525Y-86257194D01*
X146392399Y-86257429D01*
X146389080Y-86317552D01*
X146347463Y-86375072D01*
X146281355Y-86400961D01*
X146247591Y-86398281D01*
X146247539Y-86398695D01*
X146240002Y-86397743D01*
X146232633Y-86395892D01*
X146225034Y-86395852D01*
X146225033Y-86395852D01*
X146159181Y-86395507D01*
X146074221Y-86395062D01*
X146066841Y-86396834D01*
X146066839Y-86396834D01*
X145927563Y-86430271D01*
X145927560Y-86430272D01*
X145920184Y-86432043D01*
X145779414Y-86504700D01*
X145660039Y-86608838D01*
X145568950Y-86738444D01*
X145554634Y-86775162D01*
X145521691Y-86859658D01*
X145511406Y-86886037D01*
X145510414Y-86893570D01*
X145510414Y-86893571D01*
X145493173Y-87024534D01*
X145490729Y-87043096D01*
X145499421Y-87121824D01*
X145507063Y-87191041D01*
X145508113Y-87200553D01*
X145510723Y-87207684D01*
X145510723Y-87207686D01*
X145558420Y-87338024D01*
X145562553Y-87349319D01*
X145566789Y-87355622D01*
X145566789Y-87355623D01*
X145631018Y-87451205D01*
X145650908Y-87480805D01*
X145656527Y-87485918D01*
X145656528Y-87485919D01*
X145735546Y-87557819D01*
X145768076Y-87587419D01*
X145907293Y-87663008D01*
X146060522Y-87703207D01*
X146144477Y-87704526D01*
X146211319Y-87705576D01*
X146211322Y-87705576D01*
X146218916Y-87705695D01*
X146373332Y-87670329D01*
X146456964Y-87628267D01*
X146508072Y-87602563D01*
X146508075Y-87602561D01*
X146514855Y-87599151D01*
X146520626Y-87594222D01*
X146520629Y-87594220D01*
X146629536Y-87501204D01*
X146629536Y-87501203D01*
X146635314Y-87496269D01*
X146727755Y-87367624D01*
X146786842Y-87220641D01*
X146798686Y-87137419D01*
X146808581Y-87067891D01*
X146808581Y-87067888D01*
X146809162Y-87063807D01*
X146809307Y-87050000D01*
X146808472Y-87043096D01*
X146790791Y-86896987D01*
X146802464Y-86826956D01*
X146850146Y-86774354D01*
X146918697Y-86755882D01*
X146932974Y-86757015D01*
X146939587Y-86757921D01*
X146946934Y-86759848D01*
X147027790Y-86761118D01*
X147097731Y-86762217D01*
X147097734Y-86762217D01*
X147105328Y-86762336D01*
X147259744Y-86726970D01*
X147325391Y-86693953D01*
X147395237Y-86681215D01*
X147460881Y-86708259D01*
X147501482Y-86766500D01*
X147507245Y-86792691D01*
X147508113Y-86800553D01*
X147510723Y-86807684D01*
X147510723Y-86807686D01*
X147553214Y-86923798D01*
X147562553Y-86949319D01*
X147566789Y-86955622D01*
X147566789Y-86955623D01*
X147625569Y-87043096D01*
X147650908Y-87080805D01*
X147656527Y-87085918D01*
X147656528Y-87085919D01*
X147749980Y-87170953D01*
X147768076Y-87187419D01*
X147907293Y-87263008D01*
X148060522Y-87303207D01*
X148144477Y-87304526D01*
X148211319Y-87305576D01*
X148211322Y-87305576D01*
X148218916Y-87305695D01*
X148373332Y-87270329D01*
X148469377Y-87222024D01*
X148508072Y-87202563D01*
X148508075Y-87202561D01*
X148514855Y-87199151D01*
X148520626Y-87194222D01*
X148520629Y-87194220D01*
X148629536Y-87101204D01*
X148629536Y-87101203D01*
X148635314Y-87096269D01*
X148727755Y-86967624D01*
X148786842Y-86820641D01*
X148796817Y-86750553D01*
X148808581Y-86667891D01*
X148808581Y-86667888D01*
X148809162Y-86663807D01*
X148809307Y-86650000D01*
X148790276Y-86492733D01*
X148734280Y-86344546D01*
X148691450Y-86282228D01*
X148648855Y-86220251D01*
X148648854Y-86220249D01*
X148644553Y-86213992D01*
X148628059Y-86199296D01*
X148608260Y-86181656D01*
X148526275Y-86108611D01*
X148518889Y-86104700D01*
X148392988Y-86038039D01*
X148392989Y-86038039D01*
X148386274Y-86034484D01*
X148232633Y-85995892D01*
X148225034Y-85995852D01*
X148225033Y-85995852D01*
X148159181Y-85995507D01*
X148074221Y-85995062D01*
X148066841Y-85996834D01*
X148066839Y-85996834D01*
X147927563Y-86030271D01*
X147927560Y-86030272D01*
X147920184Y-86032043D01*
X147882915Y-86051279D01*
X147861516Y-86062324D01*
X147791809Y-86075793D01*
X147725885Y-86049438D01*
X147684676Y-85991626D01*
X147678639Y-85965496D01*
X147677600Y-85956914D01*
X147676688Y-85949374D01*
X147620692Y-85801187D01*
X147558414Y-85710571D01*
X147535267Y-85676892D01*
X147535266Y-85676890D01*
X147530965Y-85670633D01*
X147507043Y-85649319D01*
X147494601Y-85638234D01*
X147412687Y-85565252D01*
X147405301Y-85561341D01*
X147303964Y-85507686D01*
X147272686Y-85491125D01*
X147119045Y-85452533D01*
X147111446Y-85452493D01*
X147111445Y-85452493D01*
X147045593Y-85452148D01*
X146960633Y-85451703D01*
X146953253Y-85453475D01*
X146953251Y-85453475D01*
X146813975Y-85486912D01*
X146813972Y-85486913D01*
X146806596Y-85488684D01*
X146683328Y-85552307D01*
X146613623Y-85565776D01*
X146547700Y-85539421D01*
X146506490Y-85481609D01*
X146500797Y-85422589D01*
X146508581Y-85367894D01*
X146508582Y-85367884D01*
X146509162Y-85363807D01*
X146509307Y-85350000D01*
X146490276Y-85192733D01*
X146434280Y-85044546D01*
X146344553Y-84913992D01*
X146338878Y-84908935D01*
X146337449Y-84907315D01*
X146307404Y-84842989D01*
X146316905Y-84772631D01*
X146352402Y-84728563D01*
X146351620Y-84727725D01*
X146356972Y-84722734D01*
X146362871Y-84718393D01*
X146476782Y-84584310D01*
X146503795Y-84531408D01*
X146553466Y-84434135D01*
X146553468Y-84434130D01*
X146556793Y-84427618D01*
X146561369Y-84408921D01*
X146584801Y-84313158D01*
X146598611Y-84256722D01*
X146599300Y-84245616D01*
X146599300Y-83535618D01*
X146619302Y-83467497D01*
X146672958Y-83421004D01*
X146743232Y-83410900D01*
X146807812Y-83440394D01*
X146825262Y-83458913D01*
X146861496Y-83506134D01*
X146982550Y-83599022D01*
X147123520Y-83657414D01*
X147236820Y-83672330D01*
X147312780Y-83672330D01*
X147426080Y-83657414D01*
X147567050Y-83599022D01*
X147688104Y-83506134D01*
X147780992Y-83385080D01*
X147839384Y-83244110D01*
X147859300Y-83092830D01*
X147843728Y-82974543D01*
X147840462Y-82949738D01*
X147839384Y-82941550D01*
X147780992Y-82800580D01*
X147688104Y-82679526D01*
X147567050Y-82586638D01*
X147426080Y-82528246D01*
X147312780Y-82513330D01*
X147236820Y-82513330D01*
X147123520Y-82528246D01*
X146982550Y-82586638D01*
X146861496Y-82679526D01*
X146768608Y-82800580D01*
X146768535Y-82800524D01*
X146720157Y-82846653D01*
X146650443Y-82860090D01*
X146584532Y-82833703D01*
X146543980Y-82777652D01*
X146526528Y-82729572D01*
X146526528Y-82729571D01*
X146524032Y-82722696D01*
X146519249Y-82715400D01*
X146467041Y-82635771D01*
X146427566Y-82575562D01*
X146299840Y-82454566D01*
X146147704Y-82366198D01*
X145979320Y-82315200D01*
X145803720Y-82304306D01*
X145796504Y-82305546D01*
X145796502Y-82305546D01*
X145637538Y-82332861D01*
X145637536Y-82332862D01*
X145630323Y-82334101D01*
X145468432Y-82402986D01*
X145326729Y-82507267D01*
X145212818Y-82641350D01*
X145209490Y-82647868D01*
X145136134Y-82791525D01*
X145136132Y-82791530D01*
X145132807Y-82798042D01*
X145131068Y-82805148D01*
X145131067Y-82805151D01*
X145121788Y-82843072D01*
X145090989Y-82968938D01*
X145090641Y-82974540D01*
X145090641Y-82974543D01*
X145090610Y-82975054D01*
X145090300Y-82980044D01*
X145090300Y-84206883D01*
X143554500Y-84206883D01*
X143554500Y-83931871D01*
X143574502Y-83863750D01*
X143591405Y-83842776D01*
X145542776Y-81891405D01*
X145605088Y-81857379D01*
X145631871Y-81854500D01*
X149019500Y-81854500D01*
X149087621Y-81874502D01*
X149134114Y-81928158D01*
X149145500Y-81980500D01*
X149145500Y-86334925D01*
X149145390Y-86340201D01*
X149142772Y-86402674D01*
X149144734Y-86411039D01*
X149152788Y-86445378D01*
X149154951Y-86457051D01*
X149160905Y-86500518D01*
X149164317Y-86508402D01*
X149166953Y-86514494D01*
X149173987Y-86535763D01*
X149177463Y-86550583D01*
X149198603Y-86589037D01*
X149203818Y-86599683D01*
X149217830Y-86632063D01*
X149217832Y-86632067D01*
X149221242Y-86639946D01*
X149226646Y-86646619D01*
X149226647Y-86646621D01*
X149230821Y-86651775D01*
X149243312Y-86670363D01*
X149250652Y-86683715D01*
X149257710Y-86691891D01*
X149282453Y-86716634D01*
X149291279Y-86726435D01*
X149311444Y-86751338D01*
X149311447Y-86751341D01*
X149316850Y-86758013D01*
X149332364Y-86769038D01*
X149348464Y-86782645D01*
X151297232Y-88731413D01*
X151300885Y-88735221D01*
X151343226Y-88781266D01*
X151350521Y-88785789D01*
X151350522Y-88785790D01*
X151380505Y-88804380D01*
X151390288Y-88811104D01*
X151418392Y-88832437D01*
X151418394Y-88832438D01*
X151425234Y-88837630D01*
X151433221Y-88840792D01*
X151435228Y-88841923D01*
X151484757Y-88892789D01*
X151498923Y-88962358D01*
X151473228Y-89028542D01*
X151415831Y-89070328D01*
X151402790Y-89074214D01*
X151377570Y-89080269D01*
X151377564Y-89080271D01*
X151370184Y-89082043D01*
X151229414Y-89154700D01*
X151110039Y-89258838D01*
X151018950Y-89388444D01*
X150961406Y-89536037D01*
X150960414Y-89543570D01*
X150960414Y-89543571D01*
X150942128Y-89682470D01*
X150940729Y-89693096D01*
X150945544Y-89736705D01*
X150952726Y-89801756D01*
X150958113Y-89850553D01*
X150960723Y-89857684D01*
X150960723Y-89857686D01*
X150994469Y-89949901D01*
X151012553Y-89999319D01*
X151100908Y-90130805D01*
X151106527Y-90135918D01*
X151106528Y-90135919D01*
X151117903Y-90146269D01*
X151218076Y-90237419D01*
X151357293Y-90313008D01*
X151510522Y-90353207D01*
X151594477Y-90354526D01*
X151661319Y-90355576D01*
X151661322Y-90355576D01*
X151668916Y-90355695D01*
X151823332Y-90320329D01*
X151893742Y-90284917D01*
X151958072Y-90252563D01*
X151958075Y-90252561D01*
X151964855Y-90249151D01*
X151970626Y-90244222D01*
X151970629Y-90244220D01*
X152079536Y-90151204D01*
X152079536Y-90151203D01*
X152085314Y-90146269D01*
X152177755Y-90017624D01*
X152236842Y-89870641D01*
X152259162Y-89713807D01*
X152259307Y-89700000D01*
X152240276Y-89542733D01*
X152184280Y-89394546D01*
X152094553Y-89263992D01*
X151976275Y-89158611D01*
X151944625Y-89141853D01*
X151893783Y-89092301D01*
X151877802Y-89023126D01*
X151901756Y-88956293D01*
X151958041Y-88913020D01*
X152003586Y-88904500D01*
X155217535Y-88904500D01*
X155277657Y-88919769D01*
X155357293Y-88963008D01*
X155510522Y-89003207D01*
X155594477Y-89004526D01*
X155661319Y-89005576D01*
X155661322Y-89005576D01*
X155668916Y-89005695D01*
X155823332Y-88970329D01*
X155893742Y-88934917D01*
X155958072Y-88902563D01*
X155958075Y-88902561D01*
X155964855Y-88899151D01*
X155970626Y-88894222D01*
X155970629Y-88894220D01*
X156079536Y-88801204D01*
X156079536Y-88801203D01*
X156085314Y-88796269D01*
X156177755Y-88667624D01*
X156236842Y-88520641D01*
X156259162Y-88363807D01*
X156259307Y-88350000D01*
X156240276Y-88192733D01*
X156184280Y-88044546D01*
X156177748Y-88035042D01*
X156098855Y-87920251D01*
X156098854Y-87920249D01*
X156094553Y-87913992D01*
X156088882Y-87908940D01*
X156088880Y-87908937D01*
X156050773Y-87874985D01*
X156013217Y-87814735D01*
X156014196Y-87743745D01*
X156053400Y-87684554D01*
X156118382Y-87655955D01*
X156166564Y-87659032D01*
X156214771Y-87671679D01*
X156214775Y-87671680D01*
X156222122Y-87673607D01*
X156306077Y-87674926D01*
X156372919Y-87675976D01*
X156372922Y-87675976D01*
X156380516Y-87676095D01*
X156534932Y-87640729D01*
X156610817Y-87602563D01*
X156669672Y-87572963D01*
X156669675Y-87572961D01*
X156676455Y-87569551D01*
X156682226Y-87564622D01*
X156682229Y-87564620D01*
X156791136Y-87471604D01*
X156791136Y-87471603D01*
X156796914Y-87466669D01*
X156889355Y-87338024D01*
X156948442Y-87191041D01*
X156961227Y-87101204D01*
X156970181Y-87038291D01*
X156970181Y-87038288D01*
X156970762Y-87034207D01*
X156970907Y-87020400D01*
X156951876Y-86863133D01*
X156895880Y-86714946D01*
X156827225Y-86615052D01*
X156810455Y-86590651D01*
X156810454Y-86590649D01*
X156806153Y-86584392D01*
X156687875Y-86479011D01*
X156680489Y-86475100D01*
X156620941Y-86443571D01*
X156547874Y-86404884D01*
X156394233Y-86366292D01*
X156386634Y-86366252D01*
X156386633Y-86366252D01*
X156320781Y-86365907D01*
X156235821Y-86365462D01*
X156228441Y-86367234D01*
X156228439Y-86367234D01*
X156089163Y-86400671D01*
X156089160Y-86400672D01*
X156081784Y-86402443D01*
X155941014Y-86475100D01*
X155821639Y-86579238D01*
X155730550Y-86708844D01*
X155710618Y-86759967D01*
X155676422Y-86847676D01*
X155673006Y-86856437D01*
X155672014Y-86863970D01*
X155672014Y-86863971D01*
X155653477Y-87004779D01*
X155652329Y-87013496D01*
X155658723Y-87071408D01*
X155667941Y-87154900D01*
X155669713Y-87170953D01*
X155672323Y-87178084D01*
X155672323Y-87178086D01*
X155718111Y-87303207D01*
X155724153Y-87319719D01*
X155728389Y-87326022D01*
X155728389Y-87326023D01*
X155760493Y-87373798D01*
X155812508Y-87451205D01*
X155855248Y-87490095D01*
X155862453Y-87496651D01*
X155899376Y-87557291D01*
X155897653Y-87628267D01*
X155857831Y-87687044D01*
X155792554Y-87714961D01*
X155746959Y-87712049D01*
X155690004Y-87697743D01*
X155690000Y-87697743D01*
X155682633Y-87695892D01*
X155675034Y-87695852D01*
X155675033Y-87695852D01*
X155609181Y-87695507D01*
X155524221Y-87695062D01*
X155516841Y-87696834D01*
X155516839Y-87696834D01*
X155377563Y-87730271D01*
X155377560Y-87730272D01*
X155370184Y-87732043D01*
X155363439Y-87735524D01*
X155363440Y-87735524D01*
X155274429Y-87781466D01*
X155216639Y-87795500D01*
X151981871Y-87795500D01*
X151913750Y-87775498D01*
X151892776Y-87758595D01*
X150727277Y-86593096D01*
X151540729Y-86593096D01*
X151547382Y-86653354D01*
X151556716Y-86737897D01*
X151558113Y-86750553D01*
X151560723Y-86757684D01*
X151560723Y-86757686D01*
X151607693Y-86886037D01*
X151612553Y-86899319D01*
X151616789Y-86905622D01*
X151616789Y-86905623D01*
X151691156Y-87016292D01*
X151700908Y-87030805D01*
X151706527Y-87035918D01*
X151706528Y-87035919D01*
X151778276Y-87101204D01*
X151818076Y-87137419D01*
X151957293Y-87213008D01*
X152110522Y-87253207D01*
X152194477Y-87254526D01*
X152261319Y-87255576D01*
X152261322Y-87255576D01*
X152268916Y-87255695D01*
X152423332Y-87220329D01*
X152507324Y-87178086D01*
X152558072Y-87152563D01*
X152558075Y-87152561D01*
X152564855Y-87149151D01*
X152570626Y-87144222D01*
X152570629Y-87144220D01*
X152679536Y-87051204D01*
X152679536Y-87051203D01*
X152685314Y-87046269D01*
X152777755Y-86917624D01*
X152825440Y-86799004D01*
X152869407Y-86743260D01*
X152936531Y-86720135D01*
X153002468Y-86735270D01*
X153133998Y-86806685D01*
X153287227Y-86846884D01*
X153371182Y-86848203D01*
X153438024Y-86849253D01*
X153438027Y-86849253D01*
X153445621Y-86849372D01*
X153600037Y-86814006D01*
X153670447Y-86778594D01*
X153734777Y-86746240D01*
X153734780Y-86746238D01*
X153741560Y-86742828D01*
X153747331Y-86737899D01*
X153747334Y-86737897D01*
X153856241Y-86644881D01*
X153856241Y-86644880D01*
X153862019Y-86639946D01*
X153954460Y-86511301D01*
X154013547Y-86364318D01*
X154020203Y-86317552D01*
X154035286Y-86211568D01*
X154035286Y-86211565D01*
X154035867Y-86207484D01*
X154036012Y-86193677D01*
X154026377Y-86114058D01*
X154038050Y-86044029D01*
X154085731Y-85991427D01*
X154154282Y-85972954D01*
X154211586Y-85988191D01*
X154257293Y-86013008D01*
X154410522Y-86053207D01*
X154494477Y-86054526D01*
X154561319Y-86055576D01*
X154561322Y-86055576D01*
X154568916Y-86055695D01*
X154723332Y-86020329D01*
X154829533Y-85966916D01*
X154858072Y-85952563D01*
X154858075Y-85952561D01*
X154864855Y-85949151D01*
X154870626Y-85944222D01*
X154870629Y-85944220D01*
X154979536Y-85851204D01*
X154979536Y-85851203D01*
X154985314Y-85846269D01*
X155077755Y-85717624D01*
X155136842Y-85570641D01*
X155146817Y-85500553D01*
X155158581Y-85417891D01*
X155158581Y-85417888D01*
X155159162Y-85413807D01*
X155159307Y-85400000D01*
X155140276Y-85242733D01*
X155084280Y-85094546D01*
X154994553Y-84963992D01*
X154988887Y-84958943D01*
X154988880Y-84958936D01*
X154963424Y-84936256D01*
X154925868Y-84876006D01*
X154926848Y-84805016D01*
X154966053Y-84745826D01*
X154972547Y-84740709D01*
X154992814Y-84725794D01*
X154996974Y-84722733D01*
X154996976Y-84722731D01*
X155002871Y-84718393D01*
X155116782Y-84584310D01*
X155143795Y-84531408D01*
X155193466Y-84434135D01*
X155193468Y-84434130D01*
X155196793Y-84427618D01*
X155201369Y-84408921D01*
X155224801Y-84313158D01*
X155232562Y-84281442D01*
X158000801Y-84281442D01*
X158000995Y-84286376D01*
X158003102Y-84313158D01*
X158005404Y-84325766D01*
X158045733Y-84464579D01*
X158051979Y-84479013D01*
X158124805Y-84602155D01*
X158134454Y-84614593D01*
X158235607Y-84715746D01*
X158248045Y-84725395D01*
X158371187Y-84798221D01*
X158385621Y-84804467D01*
X158524441Y-84844798D01*
X158537034Y-84847098D01*
X158563829Y-84849207D01*
X158568754Y-84849400D01*
X159482685Y-84849400D01*
X159497924Y-84844925D01*
X159499129Y-84843535D01*
X159500800Y-84835852D01*
X159500800Y-84117515D01*
X159496325Y-84102276D01*
X159494935Y-84101071D01*
X159487252Y-84099400D01*
X158018916Y-84099400D01*
X158003677Y-84103875D01*
X158002472Y-84105265D01*
X158000801Y-84112948D01*
X158000801Y-84281442D01*
X155232562Y-84281442D01*
X155238611Y-84256722D01*
X155239300Y-84245616D01*
X155239300Y-83573285D01*
X158000800Y-83573285D01*
X158005275Y-83588524D01*
X158006665Y-83589729D01*
X158014348Y-83591400D01*
X159482685Y-83591400D01*
X159497924Y-83586925D01*
X159499129Y-83585535D01*
X159500800Y-83577852D01*
X159500800Y-82859516D01*
X159496325Y-82844277D01*
X159494935Y-82843072D01*
X159487252Y-82841401D01*
X158568758Y-82841401D01*
X158563824Y-82841595D01*
X158537042Y-82843702D01*
X158524434Y-82846004D01*
X158385621Y-82886333D01*
X158371187Y-82892579D01*
X158248045Y-82965405D01*
X158235607Y-82975054D01*
X158134454Y-83076207D01*
X158124805Y-83088645D01*
X158051979Y-83211787D01*
X158045733Y-83226221D01*
X158005402Y-83365041D01*
X158003102Y-83377634D01*
X158000993Y-83404429D01*
X158000800Y-83409355D01*
X158000800Y-83573285D01*
X155239300Y-83573285D01*
X155239300Y-83018777D01*
X155224062Y-82888076D01*
X155213696Y-82859516D01*
X155166529Y-82729575D01*
X155164032Y-82722696D01*
X155159249Y-82715400D01*
X155107041Y-82635771D01*
X155067566Y-82575562D01*
X154939840Y-82454566D01*
X154787704Y-82366198D01*
X154619320Y-82315200D01*
X154443720Y-82304306D01*
X154436504Y-82305546D01*
X154436502Y-82305546D01*
X154277538Y-82332861D01*
X154277536Y-82332862D01*
X154270323Y-82334101D01*
X154108432Y-82402986D01*
X153966729Y-82507267D01*
X153852818Y-82641350D01*
X153829982Y-82686072D01*
X153777548Y-82788757D01*
X153728755Y-82840330D01*
X153659825Y-82857336D01*
X153592643Y-82834376D01*
X153561468Y-82800215D01*
X153560992Y-82800580D01*
X153560631Y-82800110D01*
X153468104Y-82679526D01*
X153347050Y-82586638D01*
X153206080Y-82528246D01*
X153092780Y-82513330D01*
X153016820Y-82513330D01*
X152903520Y-82528246D01*
X152762550Y-82586638D01*
X152641496Y-82679526D01*
X152548608Y-82800580D01*
X152490216Y-82941550D01*
X152489138Y-82949738D01*
X152485872Y-82974543D01*
X152470300Y-83092830D01*
X152490216Y-83244110D01*
X152548608Y-83385080D01*
X152641496Y-83506134D01*
X152762550Y-83599022D01*
X152903520Y-83657414D01*
X153016820Y-83672330D01*
X153092780Y-83672330D01*
X153206080Y-83657414D01*
X153347050Y-83599022D01*
X153468104Y-83506134D01*
X153504337Y-83458914D01*
X153561675Y-83417047D01*
X153632546Y-83412825D01*
X153694449Y-83447589D01*
X153727730Y-83510301D01*
X153730300Y-83535618D01*
X153730300Y-84206883D01*
X153745538Y-84337584D01*
X153805568Y-84502964D01*
X153902034Y-84650098D01*
X153997673Y-84740697D01*
X154022865Y-84764562D01*
X154058563Y-84825931D01*
X154055416Y-84896858D01*
X154019042Y-84950983D01*
X154015766Y-84953841D01*
X154015762Y-84953846D01*
X154010039Y-84958838D01*
X153918950Y-85088444D01*
X153916190Y-85095524D01*
X153883661Y-85178957D01*
X153861406Y-85236037D01*
X153860414Y-85243570D01*
X153860414Y-85243571D01*
X153841965Y-85383709D01*
X153840729Y-85393096D01*
X153850455Y-85481189D01*
X153838049Y-85551093D01*
X153789820Y-85603193D01*
X153721079Y-85620948D01*
X153666259Y-85606372D01*
X153612979Y-85578161D01*
X153459338Y-85539569D01*
X153451739Y-85539529D01*
X153451738Y-85539529D01*
X153385886Y-85539184D01*
X153300926Y-85538739D01*
X153293546Y-85540511D01*
X153293544Y-85540511D01*
X153154268Y-85573948D01*
X153154265Y-85573949D01*
X153146889Y-85575720D01*
X153006119Y-85648377D01*
X152886744Y-85752515D01*
X152795655Y-85882121D01*
X152792895Y-85889201D01*
X152792893Y-85889204D01*
X152752451Y-85992933D01*
X152709071Y-86049135D01*
X152642191Y-86072962D01*
X152576099Y-86058518D01*
X152570768Y-86055695D01*
X152436274Y-85984484D01*
X152282633Y-85945892D01*
X152275034Y-85945852D01*
X152275033Y-85945852D01*
X152209181Y-85945507D01*
X152124221Y-85945062D01*
X152116841Y-85946834D01*
X152116839Y-85946834D01*
X151977563Y-85980271D01*
X151977560Y-85980272D01*
X151970184Y-85982043D01*
X151829414Y-86054700D01*
X151710039Y-86158838D01*
X151618950Y-86288444D01*
X151592302Y-86356792D01*
X151573133Y-86405960D01*
X151561406Y-86436037D01*
X151560414Y-86443570D01*
X151560414Y-86443571D01*
X151541875Y-86584392D01*
X151540729Y-86593096D01*
X150727277Y-86593096D01*
X150291405Y-86157224D01*
X150257379Y-86094912D01*
X150254500Y-86068129D01*
X150254500Y-81980500D01*
X150274502Y-81912379D01*
X150328158Y-81865886D01*
X150380500Y-81854500D01*
X156505125Y-81854500D01*
X156510401Y-81854610D01*
X156572874Y-81857228D01*
X156615576Y-81847212D01*
X156627251Y-81845049D01*
X156642954Y-81842898D01*
X156670718Y-81839095D01*
X156684693Y-81833047D01*
X156705963Y-81826013D01*
X156712422Y-81824498D01*
X156720783Y-81822537D01*
X156759237Y-81801397D01*
X156769883Y-81796182D01*
X156802263Y-81782170D01*
X156802267Y-81782168D01*
X156810146Y-81778758D01*
X156816951Y-81773248D01*
X156821975Y-81769179D01*
X156840563Y-81756688D01*
X156853915Y-81749348D01*
X156859445Y-81744574D01*
X156860340Y-81743802D01*
X156860347Y-81743796D01*
X156862091Y-81742290D01*
X156886834Y-81717547D01*
X156896635Y-81708721D01*
X156921538Y-81688556D01*
X156921541Y-81688553D01*
X156928213Y-81683150D01*
X156939238Y-81667636D01*
X156952845Y-81651536D01*
X157785205Y-80819176D01*
X157847517Y-80785150D01*
X157918332Y-80790215D01*
G37*
%TD.AperFunction*%
%TD*%
M02*
