%TF.GenerationSoftware,KiCad,Pcbnew,6.0.11-2627ca5db0~126~ubuntu20.04.1*%
%TF.CreationDate,2023-02-28T16:59:54+07:00*%
%TF.ProjectId,Bluepill-USB-C,426c7565-7069-46c6-9c2d-5553422d432e,rev?*%
%TF.SameCoordinates,Original*%
%TF.FileFunction,Copper,L1,Top*%
%TF.FilePolarity,Positive*%
%FSLAX46Y46*%
G04 Gerber Fmt 4.6, Leading zero omitted, Abs format (unit mm)*
G04 Created by KiCad (PCBNEW 6.0.11-2627ca5db0~126~ubuntu20.04.1) date 2023-02-28 16:59:54*
%MOMM*%
%LPD*%
G01*
G04 APERTURE LIST*
G04 Aperture macros list*
%AMRoundRect*
0 Rectangle with rounded corners*
0 $1 Rounding radius*
0 $2 $3 $4 $5 $6 $7 $8 $9 X,Y pos of 4 corners*
0 Add a 4 corners polygon primitive as box body*
4,1,4,$2,$3,$4,$5,$6,$7,$8,$9,$2,$3,0*
0 Add four circle primitives for the rounded corners*
1,1,$1+$1,$2,$3*
1,1,$1+$1,$4,$5*
1,1,$1+$1,$6,$7*
1,1,$1+$1,$8,$9*
0 Add four rect primitives between the rounded corners*
20,1,$1+$1,$2,$3,$4,$5,0*
20,1,$1+$1,$4,$5,$6,$7,0*
20,1,$1+$1,$6,$7,$8,$9,0*
20,1,$1+$1,$8,$9,$2,$3,0*%
G04 Aperture macros list end*
%TA.AperFunction,SMDPad,CuDef*%
%ADD10R,0.450000X0.600000*%
%TD*%
%TA.AperFunction,SMDPad,CuDef*%
%ADD11RoundRect,0.140000X-0.140000X-0.170000X0.140000X-0.170000X0.140000X0.170000X-0.140000X0.170000X0*%
%TD*%
%TA.AperFunction,SMDPad,CuDef*%
%ADD12RoundRect,0.135000X0.185000X-0.135000X0.185000X0.135000X-0.185000X0.135000X-0.185000X-0.135000X0*%
%TD*%
%TA.AperFunction,ComponentPad*%
%ADD13C,1.500000*%
%TD*%
%TA.AperFunction,ComponentPad*%
%ADD14RoundRect,0.375000X0.375000X-1.125000X0.375000X1.125000X-0.375000X1.125000X-0.375000X-1.125000X0*%
%TD*%
%TA.AperFunction,SMDPad,CuDef*%
%ADD15RoundRect,0.135000X-0.185000X0.135000X-0.185000X-0.135000X0.185000X-0.135000X0.185000X0.135000X0*%
%TD*%
%TA.AperFunction,SMDPad,CuDef*%
%ADD16RoundRect,0.140000X0.021213X-0.219203X0.219203X-0.021213X-0.021213X0.219203X-0.219203X0.021213X0*%
%TD*%
%TA.AperFunction,SMDPad,CuDef*%
%ADD17RoundRect,0.147500X-0.172500X0.147500X-0.172500X-0.147500X0.172500X-0.147500X0.172500X0.147500X0*%
%TD*%
%TA.AperFunction,SMDPad,CuDef*%
%ADD18RoundRect,0.140000X0.140000X0.170000X-0.140000X0.170000X-0.140000X-0.170000X0.140000X-0.170000X0*%
%TD*%
%TA.AperFunction,SMDPad,CuDef*%
%ADD19R,1.000000X0.900000*%
%TD*%
%TA.AperFunction,SMDPad,CuDef*%
%ADD20RoundRect,0.140000X-0.170000X0.140000X-0.170000X-0.140000X0.170000X-0.140000X0.170000X0.140000X0*%
%TD*%
%TA.AperFunction,SMDPad,CuDef*%
%ADD21RoundRect,0.075000X0.521491X-0.415425X-0.415425X0.521491X-0.521491X0.415425X0.415425X-0.521491X0*%
%TD*%
%TA.AperFunction,SMDPad,CuDef*%
%ADD22RoundRect,0.075000X0.521491X0.415425X0.415425X0.521491X-0.521491X-0.415425X-0.415425X-0.521491X0*%
%TD*%
%TA.AperFunction,SMDPad,CuDef*%
%ADD23R,1.400000X1.200000*%
%TD*%
%TA.AperFunction,SMDPad,CuDef*%
%ADD24RoundRect,0.243750X-0.456250X0.243750X-0.456250X-0.243750X0.456250X-0.243750X0.456250X0.243750X0*%
%TD*%
%TA.AperFunction,SMDPad,CuDef*%
%ADD25RoundRect,0.140000X0.170000X-0.140000X0.170000X0.140000X-0.170000X0.140000X-0.170000X-0.140000X0*%
%TD*%
%TA.AperFunction,ComponentPad*%
%ADD26RoundRect,0.375000X-1.125000X-0.375000X1.125000X-0.375000X1.125000X0.375000X-1.125000X0.375000X0*%
%TD*%
%TA.AperFunction,SMDPad,CuDef*%
%ADD27R,0.600000X1.240000*%
%TD*%
%TA.AperFunction,SMDPad,CuDef*%
%ADD28R,0.300000X1.240000*%
%TD*%
%TA.AperFunction,ComponentPad*%
%ADD29O,1.000000X1.800000*%
%TD*%
%TA.AperFunction,ComponentPad*%
%ADD30O,1.000000X2.100000*%
%TD*%
%TA.AperFunction,SMDPad,CuDef*%
%ADD31RoundRect,0.135000X0.135000X0.185000X-0.135000X0.185000X-0.135000X-0.185000X0.135000X-0.185000X0*%
%TD*%
%TA.AperFunction,SMDPad,CuDef*%
%ADD32RoundRect,0.140000X-0.021213X0.219203X-0.219203X0.021213X0.021213X-0.219203X0.219203X-0.021213X0*%
%TD*%
%TA.AperFunction,SMDPad,CuDef*%
%ADD33R,1.000000X1.800000*%
%TD*%
%TA.AperFunction,SMDPad,CuDef*%
%ADD34RoundRect,0.140000X0.219203X0.021213X0.021213X0.219203X-0.219203X-0.021213X-0.021213X-0.219203X0*%
%TD*%
%TA.AperFunction,ComponentPad*%
%ADD35RoundRect,0.375000X1.125000X0.375000X-1.125000X0.375000X-1.125000X-0.375000X1.125000X-0.375000X0*%
%TD*%
%TA.AperFunction,SMDPad,CuDef*%
%ADD36RoundRect,0.150000X0.512500X0.150000X-0.512500X0.150000X-0.512500X-0.150000X0.512500X-0.150000X0*%
%TD*%
%TA.AperFunction,SMDPad,CuDef*%
%ADD37RoundRect,0.225000X0.250000X-0.225000X0.250000X0.225000X-0.250000X0.225000X-0.250000X-0.225000X0*%
%TD*%
%TA.AperFunction,SMDPad,CuDef*%
%ADD38RoundRect,0.150000X0.150000X-0.587500X0.150000X0.587500X-0.150000X0.587500X-0.150000X-0.587500X0*%
%TD*%
%TA.AperFunction,SMDPad,CuDef*%
%ADD39RoundRect,0.135000X-0.135000X-0.185000X0.135000X-0.185000X0.135000X0.185000X-0.135000X0.185000X0*%
%TD*%
%TA.AperFunction,SMDPad,CuDef*%
%ADD40RoundRect,0.225000X-0.250000X0.225000X-0.250000X-0.225000X0.250000X-0.225000X0.250000X0.225000X0*%
%TD*%
%TA.AperFunction,ViaPad*%
%ADD41C,0.800000*%
%TD*%
%TA.AperFunction,Conductor*%
%ADD42C,0.400000*%
%TD*%
%TA.AperFunction,Conductor*%
%ADD43C,0.600000*%
%TD*%
%TA.AperFunction,Conductor*%
%ADD44C,0.250000*%
%TD*%
%TA.AperFunction,Conductor*%
%ADD45C,0.200000*%
%TD*%
G04 APERTURE END LIST*
D10*
%TO.P,D1,1,K*%
%TO.N,VCC*%
X154152600Y-89950000D03*
%TO.P,D1,2,A*%
%TO.N,VBUS*%
X154152600Y-87850000D03*
%TD*%
D11*
%TO.P,C9,1*%
%TO.N,/VBAT*%
X152191200Y-118323200D03*
%TO.P,C9,2*%
%TO.N,GND*%
X153151200Y-118323200D03*
%TD*%
D12*
%TO.P,R9,1*%
%TO.N,/PB2*%
X155250000Y-97660000D03*
%TO.P,R9,2*%
%TO.N,GND*%
X155250000Y-96640000D03*
%TD*%
D13*
%TO.P,J2,1,Pin_1*%
%TO.N,GND*%
X146354800Y-128524000D03*
D14*
X146354800Y-127824000D03*
%TO.P,J2,2,Pin_2*%
%TO.N,/PA14*%
X148894800Y-127824000D03*
D13*
X148894800Y-128524000D03*
%TO.P,J2,3,Pin_3*%
%TO.N,/PA13*%
X151434800Y-128524000D03*
D14*
X151434800Y-127824000D03*
D13*
%TO.P,J2,4,Pin_4*%
%TO.N,+3V3*%
X153974800Y-128524000D03*
D14*
X153974800Y-127824000D03*
%TD*%
D15*
%TO.P,R6,1*%
%TO.N,/BOOT0*%
X148550000Y-96640000D03*
%TO.P,R6,2*%
%TO.N,GND*%
X148550000Y-97660000D03*
%TD*%
D16*
%TO.P,C10,1*%
%TO.N,+3V3*%
X143710589Y-102189411D03*
%TO.P,C10,2*%
%TO.N,GND*%
X144389411Y-101510589D03*
%TD*%
D17*
%TO.P,FB1,1*%
%TO.N,VDDA*%
X156250000Y-109365000D03*
%TO.P,FB1,2*%
%TO.N,+3V3*%
X156250000Y-110335000D03*
%TD*%
D18*
%TO.P,C2,1*%
%TO.N,GND*%
X155730000Y-111650000D03*
%TO.P,C2,2*%
%TO.N,/XOUT*%
X154770000Y-111650000D03*
%TD*%
D19*
%TO.P,SW3,1,1*%
%TO.N,Net-(R10-Pad2)*%
X149500000Y-118300000D03*
X149500000Y-122400000D03*
%TO.P,SW3,2,2*%
%TO.N,+3V3*%
X147900000Y-118300000D03*
X147900000Y-122400000D03*
%TD*%
D20*
%TO.P,C5,1*%
%TO.N,/~{NRST}*%
X149650000Y-96670000D03*
%TO.P,C5,2*%
%TO.N,GND*%
X149650000Y-97630000D03*
%TD*%
D21*
%TO.P,U3,1,VBAT*%
%TO.N,/VBAT*%
X151163588Y-109337876D03*
%TO.P,U3,2,PC13*%
%TO.N,/PC13*%
X151517142Y-108984322D03*
%TO.P,U3,3,PC14*%
%TO.N,/PC14*%
X151870695Y-108630769D03*
%TO.P,U3,4,PC15*%
%TO.N,/PC15*%
X152224249Y-108277215D03*
%TO.P,U3,5,PD0*%
%TO.N,/XIN*%
X152577802Y-107923662D03*
%TO.P,U3,6,PD1*%
%TO.N,/XOUT*%
X152931355Y-107570109D03*
%TO.P,U3,7,NRST*%
%TO.N,/~{NRST}*%
X153284909Y-107216555D03*
%TO.P,U3,8,VSSA*%
%TO.N,GND*%
X153638462Y-106863002D03*
%TO.P,U3,9,VDDA*%
%TO.N,VDDA*%
X153992015Y-106509449D03*
%TO.P,U3,10,PA0*%
%TO.N,/PA0*%
X154345569Y-106155895D03*
%TO.P,U3,11,PA1*%
%TO.N,/PA1*%
X154699122Y-105802342D03*
%TO.P,U3,12,PA2*%
%TO.N,/PA2*%
X155052676Y-105448788D03*
D22*
%TO.P,U3,13,PA3*%
%TO.N,/PA3*%
X155052676Y-103451212D03*
%TO.P,U3,14,PA4*%
%TO.N,/PA4*%
X154699122Y-103097658D03*
%TO.P,U3,15,PA5*%
%TO.N,/MEM_CLK*%
X154345569Y-102744105D03*
%TO.P,U3,16,PA6*%
%TO.N,/MEM_MISO*%
X153992015Y-102390551D03*
%TO.P,U3,17,PA7*%
%TO.N,/MEM_MOSI*%
X153638462Y-102036998D03*
%TO.P,U3,18,PB0*%
%TO.N,/PB0*%
X153284909Y-101683445D03*
%TO.P,U3,19,PB1*%
%TO.N,/PB1*%
X152931355Y-101329891D03*
%TO.P,U3,20,PB2*%
%TO.N,/PB2*%
X152577802Y-100976338D03*
%TO.P,U3,21,PB10*%
%TO.N,/PB10*%
X152224249Y-100622785D03*
%TO.P,U3,22,PB11*%
%TO.N,/PB11*%
X151870695Y-100269231D03*
%TO.P,U3,23,VSS*%
%TO.N,GND*%
X151517142Y-99915678D03*
%TO.P,U3,24,VDD*%
%TO.N,+3V3*%
X151163588Y-99562124D03*
D21*
%TO.P,U3,25,PB12*%
%TO.N,/PB12*%
X149166012Y-99562124D03*
%TO.P,U3,26,PB13*%
%TO.N,/PB13*%
X148812458Y-99915678D03*
%TO.P,U3,27,PB14*%
%TO.N,/PB14*%
X148458905Y-100269231D03*
%TO.P,U3,28,PB15*%
%TO.N,/PB15*%
X148105351Y-100622785D03*
%TO.P,U3,29,PA8*%
%TO.N,/PA8*%
X147751798Y-100976338D03*
%TO.P,U3,30,PA9*%
%TO.N,/PA9*%
X147398245Y-101329891D03*
%TO.P,U3,31,PA10*%
%TO.N,/PA10*%
X147044691Y-101683445D03*
%TO.P,U3,32,PA11*%
%TO.N,/PA11*%
X146691138Y-102036998D03*
%TO.P,U3,33,PA12*%
%TO.N,/PA12*%
X146337585Y-102390551D03*
%TO.P,U3,34,PA13*%
%TO.N,/PA13*%
X145984031Y-102744105D03*
%TO.P,U3,35,VSS*%
%TO.N,GND*%
X145630478Y-103097658D03*
%TO.P,U3,36,VDD*%
%TO.N,+3V3*%
X145276924Y-103451212D03*
D22*
%TO.P,U3,37,PA14*%
%TO.N,/PA14*%
X145276924Y-105448788D03*
%TO.P,U3,38,PA15*%
%TO.N,/PA15*%
X145630478Y-105802342D03*
%TO.P,U3,39,PB3*%
%TO.N,/PB3*%
X145984031Y-106155895D03*
%TO.P,U3,40,PB4*%
%TO.N,/PB4*%
X146337585Y-106509449D03*
%TO.P,U3,41,PB5*%
%TO.N,/PB5*%
X146691138Y-106863002D03*
%TO.P,U3,42,PB6*%
%TO.N,/PB6*%
X147044691Y-107216555D03*
%TO.P,U3,43,PB7*%
%TO.N,/PB7*%
X147398245Y-107570109D03*
%TO.P,U3,44,BOOT0*%
%TO.N,/BOOT0*%
X147751798Y-107923662D03*
%TO.P,U3,45,PB8*%
%TO.N,/PB8*%
X148105351Y-108277215D03*
%TO.P,U3,46,PB9*%
%TO.N,/PB9*%
X148458905Y-108630769D03*
%TO.P,U3,47,VSS*%
%TO.N,GND*%
X148812458Y-108984322D03*
%TO.P,U3,48,VDD*%
%TO.N,+3V3*%
X149166012Y-109337876D03*
%TD*%
D23*
%TO.P,Y2,1,1*%
%TO.N,/XIN*%
X153010000Y-114732000D03*
%TO.P,Y2,2,2*%
%TO.N,GND*%
X155210000Y-114732000D03*
%TO.P,Y2,3,3*%
%TO.N,/XOUT*%
X155210000Y-113032000D03*
%TO.P,Y2,4,4*%
%TO.N,GND*%
X153010000Y-113032000D03*
%TD*%
D19*
%TO.P,SW1,1,1*%
%TO.N,+3V3*%
X147364800Y-95400000D03*
X147364800Y-91300000D03*
%TO.P,SW1,2,2*%
%TO.N,/BOOT0*%
X148964800Y-95400000D03*
X148964800Y-91300000D03*
%TD*%
D24*
%TO.P,D3,1,K*%
%TO.N,GND*%
X154971200Y-118935700D03*
%TO.P,D3,2,A*%
%TO.N,Net-(D3-Pad2)*%
X154971200Y-120810700D03*
%TD*%
D25*
%TO.P,C11,1*%
%TO.N,+3V3*%
X151850000Y-97630000D03*
%TO.P,C11,2*%
%TO.N,GND*%
X151850000Y-96670000D03*
%TD*%
D19*
%TO.P,SW2,1,1*%
%TO.N,/~{NRST}*%
X151364800Y-95400000D03*
X151364800Y-91300000D03*
%TO.P,SW2,2,2*%
%TO.N,GND*%
X152964800Y-95400000D03*
X152964800Y-91300000D03*
%TD*%
D15*
%TO.P,R5,1*%
%TO.N,/~{NRST}*%
X150750000Y-96640000D03*
%TO.P,R5,2*%
%TO.N,+3V3*%
X150750000Y-97660000D03*
%TD*%
D26*
%TO.P,J3,1,Pin_1*%
%TO.N,/PB12*%
X140574800Y-78765400D03*
D13*
X139824800Y-78765400D03*
%TO.P,J3,2,Pin_2*%
%TO.N,/PB13*%
X139824800Y-81305400D03*
D26*
X140574800Y-81305400D03*
%TO.P,J3,3,Pin_3*%
%TO.N,/PB14*%
X140574800Y-83845400D03*
D13*
X139824800Y-83845400D03*
%TO.P,J3,4,Pin_4*%
%TO.N,/PB15*%
X139824800Y-86385400D03*
D26*
X140574800Y-86385400D03*
%TO.P,J3,5,Pin_5*%
%TO.N,/PA8*%
X140574800Y-88925400D03*
D13*
X139824800Y-88925400D03*
D26*
%TO.P,J3,6,Pin_6*%
%TO.N,/PA9*%
X140574800Y-91465400D03*
D13*
X139824800Y-91465400D03*
D26*
%TO.P,J3,7,Pin_7*%
%TO.N,/PA10*%
X140574800Y-94005400D03*
D13*
X139824800Y-94005400D03*
%TO.P,J3,8,Pin_8*%
%TO.N,/PA11*%
X139824800Y-96545400D03*
D26*
X140574800Y-96545400D03*
D13*
%TO.P,J3,9,Pin_9*%
%TO.N,/PA12*%
X139824800Y-99085400D03*
D26*
X140574800Y-99085400D03*
%TO.P,J3,10,Pin_10*%
%TO.N,/PA15*%
X140574800Y-101625400D03*
D13*
X139824800Y-101625400D03*
%TO.P,J3,11,Pin_11*%
%TO.N,/PB3*%
X139824800Y-104165400D03*
D26*
X140574800Y-104165400D03*
%TO.P,J3,12,Pin_12*%
%TO.N,/PB4*%
X140574800Y-106705400D03*
D13*
X139824800Y-106705400D03*
%TO.P,J3,13,Pin_13*%
%TO.N,/PB5*%
X139824800Y-109245400D03*
D26*
X140574800Y-109245400D03*
%TO.P,J3,14,Pin_14*%
%TO.N,/PB6*%
X140574800Y-111785400D03*
D13*
X139824800Y-111785400D03*
%TO.P,J3,15,Pin_15*%
%TO.N,/PB7*%
X139824800Y-114325400D03*
D26*
X140574800Y-114325400D03*
%TO.P,J3,16,Pin_16*%
%TO.N,/PB8*%
X140574800Y-116865400D03*
D13*
X139824800Y-116865400D03*
%TO.P,J3,17,Pin_17*%
%TO.N,/PB9*%
X139824800Y-119405400D03*
D26*
X140574800Y-119405400D03*
%TO.P,J3,18,Pin_18*%
%TO.N,VCC*%
X140574800Y-121945400D03*
D13*
X139824800Y-121945400D03*
%TO.P,J3,19,Pin_19*%
%TO.N,GND*%
X139824800Y-124485400D03*
D26*
X140574800Y-124485400D03*
D13*
%TO.P,J3,20,Pin_20*%
%TO.N,+3V3*%
X139824800Y-127025400D03*
D26*
X140574800Y-127025400D03*
%TD*%
D27*
%TO.P,J1,A1,GND*%
%TO.N,GND*%
X153364800Y-84212830D03*
%TO.P,J1,A4,VBUS*%
%TO.N,VBUS*%
X152564800Y-84212830D03*
D28*
%TO.P,J1,A5,CC1*%
%TO.N,Net-(J1-PadA5)*%
X151414800Y-84212830D03*
%TO.P,J1,A6,D+*%
%TO.N,/D+*%
X150414800Y-84212830D03*
%TO.P,J1,A7,D-*%
%TO.N,/D-*%
X149914800Y-84212830D03*
%TO.P,J1,A8,SBU1*%
%TO.N,unconnected-(J1-PadA8)*%
X148914800Y-84212830D03*
D27*
%TO.P,J1,A9,VBUS*%
%TO.N,VBUS*%
X147764800Y-84212830D03*
%TO.P,J1,A12,GND*%
%TO.N,GND*%
X146964800Y-84212830D03*
%TO.P,J1,B1,GND*%
X146964800Y-84212830D03*
%TO.P,J1,B4,VBUS*%
%TO.N,VBUS*%
X147764800Y-84212830D03*
D28*
%TO.P,J1,B5,CC2*%
%TO.N,Net-(J1-PadB5)*%
X148414800Y-84212830D03*
%TO.P,J1,B6,D+*%
%TO.N,/D+*%
X149414800Y-84212830D03*
%TO.P,J1,B7,D-*%
%TO.N,/D-*%
X150914800Y-84212830D03*
%TO.P,J1,B8,SBU2*%
%TO.N,unconnected-(J1-PadB8)*%
X151914800Y-84212830D03*
D27*
%TO.P,J1,B9,VBUS*%
%TO.N,VBUS*%
X152564800Y-84212830D03*
%TO.P,J1,B12,GND*%
%TO.N,GND*%
X153364800Y-84212830D03*
D29*
%TO.P,J1,S1,SHIELD*%
X145844800Y-79412830D03*
D30*
X145844800Y-83612830D03*
D29*
X154484800Y-79412830D03*
D30*
X154484800Y-83612830D03*
%TD*%
D12*
%TO.P,R2,1*%
%TO.N,Net-(J1-PadB5)*%
X144750000Y-81960000D03*
%TO.P,R2,2*%
%TO.N,GND*%
X144750000Y-80940000D03*
%TD*%
D15*
%TO.P,R8,1*%
%TO.N,Net-(D3-Pad2)*%
X154971200Y-122163200D03*
%TO.P,R8,2*%
%TO.N,/PC13*%
X154971200Y-123183200D03*
%TD*%
D31*
%TO.P,R3,1*%
%TO.N,/D-*%
X149710000Y-86050000D03*
%TO.P,R3,2*%
%TO.N,/PA12*%
X148690000Y-86050000D03*
%TD*%
D32*
%TO.P,C13,1*%
%TO.N,VDDA*%
X155689411Y-108360589D03*
%TO.P,C13,2*%
%TO.N,GND*%
X155010589Y-109039411D03*
%TD*%
D18*
%TO.P,C4,1*%
%TO.N,GND*%
X150830000Y-113250000D03*
%TO.P,C4,2*%
%TO.N,/PC15*%
X149870000Y-113250000D03*
%TD*%
D33*
%TO.P,Y1,1,1*%
%TO.N,/PC15*%
X150650000Y-114950000D03*
%TO.P,Y1,2,2*%
%TO.N,/PC14*%
X148150000Y-114950000D03*
%TD*%
D34*
%TO.P,C12,1*%
%TO.N,+3V3*%
X147939411Y-111389411D03*
%TO.P,C12,2*%
%TO.N,GND*%
X147260589Y-110710589D03*
%TD*%
D24*
%TO.P,D2,1,K*%
%TO.N,GND*%
X145821200Y-118935700D03*
%TO.P,D2,2,A*%
%TO.N,Net-(D2-Pad2)*%
X145821200Y-120810700D03*
%TD*%
D15*
%TO.P,R7,1*%
%TO.N,Net-(D2-Pad2)*%
X145821200Y-122163200D03*
%TO.P,R7,2*%
%TO.N,+3V3*%
X145821200Y-123183200D03*
%TD*%
D13*
%TO.P,J4,1,Pin_1*%
%TO.N,/VB*%
X160504800Y-127025400D03*
D35*
X159754800Y-127025400D03*
%TO.P,J4,2,Pin_2*%
%TO.N,/PC15*%
X159754800Y-124485400D03*
D13*
X160504800Y-124485400D03*
D35*
%TO.P,J4,3,Pin_3*%
%TO.N,/PC14*%
X159754800Y-121945400D03*
D13*
X160504800Y-121945400D03*
D35*
%TO.P,J4,4,Pin_4*%
%TO.N,/PC13*%
X159754800Y-119405400D03*
D13*
X160504800Y-119405400D03*
%TO.P,J4,5,Pin_5*%
%TO.N,/PA0*%
X160504800Y-116865400D03*
D35*
X159754800Y-116865400D03*
%TO.P,J4,6,Pin_6*%
%TO.N,/PA1*%
X159754800Y-114325400D03*
D13*
X160504800Y-114325400D03*
D35*
%TO.P,J4,7,Pin_7*%
%TO.N,/PA2*%
X159754800Y-111785400D03*
D13*
X160504800Y-111785400D03*
D35*
%TO.P,J4,8,Pin_8*%
%TO.N,/PA3*%
X159754800Y-109245400D03*
D13*
X160504800Y-109245400D03*
D35*
%TO.P,J4,9,Pin_9*%
%TO.N,/PA4*%
X159754800Y-106705400D03*
D13*
X160504800Y-106705400D03*
D35*
%TO.P,J4,10,Pin_10*%
%TO.N,/MEM_CLK*%
X159754800Y-104165400D03*
D13*
X160504800Y-104165400D03*
%TO.P,J4,11,Pin_11*%
%TO.N,/MEM_MISO*%
X160504800Y-101625400D03*
D35*
X159754800Y-101625400D03*
D13*
%TO.P,J4,12,Pin_12*%
%TO.N,/MEM_MOSI*%
X160504800Y-99085400D03*
D35*
X159754800Y-99085400D03*
D13*
%TO.P,J4,13,Pin_13*%
%TO.N,/PB0*%
X160504800Y-96545400D03*
D35*
X159754800Y-96545400D03*
%TO.P,J4,14,Pin_14*%
%TO.N,/PB1*%
X159754800Y-94005400D03*
D13*
X160504800Y-94005400D03*
%TO.P,J4,15,Pin_15*%
%TO.N,/PB10*%
X160504800Y-91465400D03*
D35*
X159754800Y-91465400D03*
%TO.P,J4,16,Pin_16*%
%TO.N,/PB11*%
X159754800Y-88925400D03*
D13*
X160504800Y-88925400D03*
D35*
%TO.P,J4,17,Pin_17*%
%TO.N,/~{NRST}*%
X159754800Y-86385400D03*
D13*
X160504800Y-86385400D03*
%TO.P,J4,18,Pin_18*%
%TO.N,+3V3*%
X160504800Y-83845400D03*
D35*
X159754800Y-83845400D03*
D13*
%TO.P,J4,19,Pin_19*%
%TO.N,GND*%
X160504800Y-81305400D03*
D35*
X159754800Y-81305400D03*
D13*
%TO.P,J4,20,Pin_20*%
%TO.N,VCC*%
X160504800Y-78765400D03*
D35*
X159754800Y-78765400D03*
%TD*%
D36*
%TO.P,U1,1,IN*%
%TO.N,VCC*%
X150187500Y-89850000D03*
%TO.P,U1,2,GND*%
%TO.N,GND*%
X150187500Y-88900000D03*
%TO.P,U1,3,EN*%
%TO.N,VCC*%
X150187500Y-87950000D03*
%TO.P,U1,4,BP*%
%TO.N,unconnected-(U1-Pad4)*%
X147912500Y-87950000D03*
%TO.P,U1,5,OUT*%
%TO.N,+3V3*%
X147912500Y-89850000D03*
%TD*%
D12*
%TO.P,R1,1*%
%TO.N,Net-(J1-PadA5)*%
X155550000Y-81960000D03*
%TO.P,R1,2*%
%TO.N,GND*%
X155550000Y-80940000D03*
%TD*%
D37*
%TO.P,C7,1*%
%TO.N,+3V3*%
X146150000Y-89675000D03*
%TO.P,C7,2*%
%TO.N,GND*%
X146150000Y-88125000D03*
%TD*%
D38*
%TO.P,D4,1*%
%TO.N,+3V3*%
X151221200Y-121910700D03*
%TO.P,D4,2*%
%TO.N,/VB*%
X153121200Y-121910700D03*
%TO.P,D4,3*%
%TO.N,/VBAT*%
X152171200Y-120035700D03*
%TD*%
D15*
%TO.P,R10,1*%
%TO.N,/PA0*%
X151021200Y-118313200D03*
%TO.P,R10,2*%
%TO.N,Net-(R10-Pad2)*%
X151021200Y-119333200D03*
%TD*%
D11*
%TO.P,C3,1*%
%TO.N,GND*%
X147920000Y-113250000D03*
%TO.P,C3,2*%
%TO.N,/PC14*%
X148880000Y-113250000D03*
%TD*%
%TO.P,C1,1*%
%TO.N,GND*%
X152540000Y-111650000D03*
%TO.P,C1,2*%
%TO.N,/XIN*%
X153500000Y-111650000D03*
%TD*%
D39*
%TO.P,R4,1*%
%TO.N,/D+*%
X150640000Y-86050000D03*
%TO.P,R4,2*%
%TO.N,/PA11*%
X151660000Y-86050000D03*
%TD*%
D40*
%TO.P,C6,1*%
%TO.N,VCC*%
X152450000Y-88125000D03*
%TO.P,C6,2*%
%TO.N,GND*%
X152450000Y-89675000D03*
%TD*%
D41*
%TO.N,GND*%
X154500000Y-85400000D03*
X144700000Y-104500000D03*
X145900000Y-117750000D03*
X146950000Y-114200000D03*
X156311600Y-87020400D03*
X150500000Y-98850000D03*
X151600000Y-89700000D03*
X146950000Y-115750000D03*
X152450000Y-93900000D03*
X150300000Y-102250000D03*
X157950000Y-123200000D03*
X150200000Y-126000000D03*
X153300000Y-120150000D03*
X155250000Y-116000000D03*
X147650000Y-126000000D03*
X146150000Y-87050000D03*
X151300000Y-112100000D03*
X145850000Y-85350000D03*
X152700000Y-126000000D03*
X157800000Y-92650000D03*
X155450000Y-95200000D03*
%TO.N,/PC15*%
X153650000Y-116325500D03*
%TO.N,/~{NRST}*%
X151650000Y-103600000D03*
X151350000Y-94050000D03*
%TO.N,VCC*%
X155600000Y-88350000D03*
%TO.N,+3V3*%
X150700000Y-120900000D03*
X146500000Y-95650000D03*
X152550000Y-97650000D03*
X146700000Y-111900000D03*
X144050000Y-103050000D03*
X155550000Y-110350000D03*
%TO.N,VBUS*%
X153376705Y-86193677D03*
X147036412Y-86106641D03*
%TO.N,/PA13*%
X150050000Y-105650000D03*
%TO.N,/PA14*%
X148200000Y-106200000D03*
%TO.N,/PA11*%
X152200000Y-86600000D03*
X148500000Y-102525000D03*
%TO.N,/MEM_MISO*%
X153050000Y-103350000D03*
%TO.N,/PA4*%
X153450000Y-104350000D03*
%TO.N,/PA0*%
X151000000Y-117450000D03*
%TO.N,/PC13*%
X150649865Y-108149086D03*
%TO.N,/BOOT0*%
X147750000Y-96600000D03*
X145880181Y-109344779D03*
%TO.N,/PC13*%
X155850000Y-123200000D03*
%TO.N,/D+*%
X147325000Y-80000000D03*
X151925000Y-80000000D03*
X147325000Y-80000000D03*
%TO.N,/D-*%
X148375000Y-80000000D03*
X148375000Y-80000000D03*
X152975000Y-80000000D03*
%TO.N,/PA12*%
X148150000Y-86650000D03*
X148500000Y-103575000D03*
%TD*%
D42*
%TO.N,VCC*%
X154152600Y-89950000D02*
X154152600Y-89585800D01*
X154152600Y-89585800D02*
X152691800Y-88125000D01*
X152691800Y-88125000D02*
X152450000Y-88125000D01*
X154152600Y-89950000D02*
X154601200Y-89950000D01*
X154601200Y-89950000D02*
X155600000Y-88951200D01*
X155600000Y-88951200D02*
X155600000Y-88350000D01*
%TO.N,VBUS*%
X154152600Y-87850000D02*
X154152600Y-86969572D01*
X154152600Y-86969572D02*
X153376705Y-86193677D01*
D43*
%TO.N,GND*%
X146964800Y-84935200D02*
X146550000Y-85350000D01*
D44*
X149600000Y-108200000D02*
X149600000Y-107700000D01*
D43*
X146550000Y-85350000D02*
X145850000Y-85350000D01*
D44*
X144389411Y-101871391D02*
X145615678Y-103097658D01*
X151550000Y-106650000D02*
X151550000Y-104700000D01*
X155730000Y-111650000D02*
X155730000Y-111555305D01*
X154650000Y-109400000D02*
X155010589Y-109039411D01*
X152964800Y-96364800D02*
X152964800Y-95400000D01*
X154650000Y-107874540D02*
X153638462Y-106863002D01*
X153613002Y-106863002D02*
X152950000Y-106200000D01*
X153500000Y-97900000D02*
X153500000Y-96900000D01*
X149600000Y-107700000D02*
X150050000Y-107250000D01*
X151517142Y-99882858D02*
X153500000Y-97900000D01*
D43*
X153364800Y-84212830D02*
X153364800Y-84964800D01*
D44*
X154650000Y-108678822D02*
X154650000Y-107874540D01*
X154650000Y-110475305D02*
X154650000Y-109400000D01*
D43*
X153800000Y-85400000D02*
X154500000Y-85400000D01*
D44*
X148812458Y-108984322D02*
X148815678Y-108984322D01*
D43*
X153364800Y-84964800D02*
X153800000Y-85400000D01*
D44*
X155010589Y-109039411D02*
X154650000Y-108678822D01*
X147260589Y-110536191D02*
X147260589Y-110710589D01*
D42*
X147650000Y-113250000D02*
X146950000Y-113950000D01*
D44*
X150300000Y-102250000D02*
X150300000Y-101132820D01*
X151517142Y-99915678D02*
X151517142Y-99882858D01*
X144389411Y-101510589D02*
X144389411Y-101871391D01*
X150050000Y-107250000D02*
X150950000Y-107250000D01*
X150300000Y-101132820D02*
X151517142Y-99915678D01*
X148815678Y-108984322D02*
X149600000Y-108200000D01*
X150300000Y-103450000D02*
X150300000Y-102250000D01*
X153500000Y-96900000D02*
X152964800Y-96364800D01*
X153638462Y-106863002D02*
X153613002Y-106863002D01*
X152950000Y-106200000D02*
X152950000Y-105600000D01*
X151550000Y-104700000D02*
X150300000Y-103450000D01*
D43*
X146964800Y-84212830D02*
X146964800Y-84935200D01*
D44*
X148812458Y-108984322D02*
X147260589Y-110536191D01*
X150950000Y-107250000D02*
X151550000Y-106650000D01*
X155730000Y-111555305D02*
X154650000Y-110475305D01*
D42*
X147920000Y-113250000D02*
X147650000Y-113250000D01*
X146950000Y-113950000D02*
X146950000Y-114200000D01*
D44*
%TO.N,/XIN*%
X153010000Y-114732000D02*
X153260000Y-114732000D01*
X154100000Y-112250000D02*
X153500000Y-111650000D01*
X153500000Y-108845860D02*
X153500000Y-111650000D01*
X153260000Y-114732000D02*
X154100000Y-113892000D01*
X154100000Y-113892000D02*
X154100000Y-112250000D01*
X152577802Y-107923662D02*
X153500000Y-108845860D01*
%TO.N,/XOUT*%
X153950000Y-110830000D02*
X154770000Y-111650000D01*
X155210000Y-113032000D02*
X154770000Y-112592000D01*
X152931355Y-107570109D02*
X153950000Y-108588754D01*
X154770000Y-112592000D02*
X154770000Y-111650000D01*
X153950000Y-108588754D02*
X153950000Y-110830000D01*
%TO.N,/PC14*%
X152550000Y-110100000D02*
X152085000Y-110565000D01*
X149000000Y-116250000D02*
X148150000Y-115400000D01*
X152085000Y-110565000D02*
X150835000Y-110565000D01*
X155750000Y-117050000D02*
X152386396Y-117050000D01*
X148880000Y-113250000D02*
X148880000Y-113820000D01*
X156850000Y-119740600D02*
X156850000Y-118150000D01*
X148880000Y-113820000D02*
X148150000Y-114550000D01*
X150835000Y-110565000D02*
X148880000Y-112520000D01*
X152550000Y-109310074D02*
X152550000Y-110100000D01*
X148150000Y-114550000D02*
X148150000Y-114950000D01*
X159054800Y-121945400D02*
X156850000Y-119740600D01*
X152386396Y-117050000D02*
X151586396Y-116250000D01*
X148880000Y-112520000D02*
X148880000Y-113250000D01*
X151586396Y-116250000D02*
X149000000Y-116250000D01*
X156850000Y-118150000D02*
X155750000Y-117050000D01*
X151870695Y-108630769D02*
X152550000Y-109310074D01*
X148150000Y-115400000D02*
X148150000Y-114950000D01*
%TO.N,/PC15*%
X149870000Y-113770000D02*
X150650000Y-114550000D01*
X151150000Y-115800000D02*
X150650000Y-115300000D01*
X150650000Y-114550000D02*
X150650000Y-114950000D01*
X149870000Y-113250000D02*
X149870000Y-113770000D01*
X151772792Y-115800000D02*
X151150000Y-115800000D01*
X153000000Y-110286396D02*
X152271396Y-111015000D01*
X151135000Y-111015000D02*
X149870000Y-112280000D01*
X150650000Y-115300000D02*
X150650000Y-114950000D01*
X153650000Y-116325500D02*
X152298292Y-116325500D01*
X152298292Y-116325500D02*
X151772792Y-115800000D01*
X149870000Y-112280000D02*
X149870000Y-113250000D01*
X152224249Y-108277215D02*
X153000000Y-109052966D01*
X152271396Y-111015000D02*
X151135000Y-111015000D01*
X153000000Y-109052966D02*
X153000000Y-110286396D01*
%TO.N,/~{NRST}*%
X152200000Y-104163604D02*
X151668198Y-103631802D01*
X151364800Y-91300000D02*
X152364800Y-92300000D01*
X149650000Y-96670000D02*
X150720000Y-96670000D01*
X151350000Y-95385200D02*
X151364800Y-95400000D01*
X150750000Y-96014800D02*
X151364800Y-95400000D01*
X152364800Y-92300000D02*
X154900000Y-92300000D01*
X151668198Y-103631802D02*
X151650000Y-103613604D01*
X150750000Y-96640000D02*
X150750000Y-96014800D01*
X152200000Y-105150000D02*
X152200000Y-104163604D01*
X151350000Y-94050000D02*
X151350000Y-95385200D01*
X154900000Y-92300000D02*
X157850000Y-89350000D01*
X152200000Y-106131646D02*
X152200000Y-105150000D01*
X151650000Y-103613604D02*
X151650000Y-103600000D01*
X153284909Y-107216555D02*
X152200000Y-106131646D01*
X151364800Y-91300000D02*
X151364800Y-95400000D01*
X150720000Y-96670000D02*
X150750000Y-96640000D01*
X157850000Y-89350000D02*
X157850000Y-87590200D01*
X157850000Y-87590200D02*
X159054800Y-86385400D01*
%TO.N,VCC*%
X149200000Y-88553249D02*
X149803249Y-87950000D01*
X150187500Y-89850000D02*
X149803249Y-89850000D01*
D42*
X152275000Y-87950000D02*
X152450000Y-88125000D01*
D44*
X149803249Y-89850000D02*
X149200000Y-89246751D01*
X149803249Y-87950000D02*
X150187500Y-87950000D01*
X149200000Y-89246751D02*
X149200000Y-88553249D01*
D42*
X150187500Y-87950000D02*
X152275000Y-87950000D01*
D43*
%TO.N,+3V3*%
X147364800Y-91300000D02*
X147364800Y-89850000D01*
D44*
X147250000Y-104150000D02*
X149600000Y-106500000D01*
X145276924Y-103451212D02*
X144825712Y-103000000D01*
X155565000Y-110335000D02*
X155550000Y-110350000D01*
D42*
X145821200Y-123183200D02*
X145833200Y-123183200D01*
D44*
X145950000Y-104019149D02*
X146080851Y-104150000D01*
X149400000Y-103400000D02*
X149400000Y-101325712D01*
X147900000Y-122400000D02*
X147900000Y-123700000D01*
X151148788Y-99562124D02*
X151850000Y-98860912D01*
X147944792Y-110559096D02*
X147944792Y-110881986D01*
X145844861Y-104019149D02*
X145950000Y-104019149D01*
X144825712Y-103000000D02*
X144100000Y-103000000D01*
X147900000Y-118300000D02*
X147900000Y-122400000D01*
D42*
X145833200Y-123183200D02*
X146350000Y-123700000D01*
D44*
X156250000Y-110335000D02*
X155565000Y-110335000D01*
D43*
X147912500Y-89850000D02*
X146325000Y-89850000D01*
D44*
X147939411Y-111389411D02*
X147428822Y-111900000D01*
X151850000Y-98860912D02*
X151850000Y-97630000D01*
X147428822Y-111900000D02*
X146700000Y-111900000D01*
X143710589Y-102189411D02*
X143710589Y-102710589D01*
X149400000Y-101325712D02*
X151163588Y-99562124D01*
X150500000Y-106500000D02*
X150950000Y-106050000D01*
X147944792Y-110881986D02*
X147939411Y-110887367D01*
X151850000Y-97630000D02*
X152530000Y-97630000D01*
X152530000Y-97630000D02*
X152550000Y-97650000D01*
D42*
X150350000Y-123700000D02*
X151221200Y-122828800D01*
X151221200Y-122828800D02*
X151221200Y-121910700D01*
D43*
X147364800Y-91300000D02*
X147364800Y-95400000D01*
D44*
X147939411Y-110887367D02*
X147939411Y-111389411D01*
X143710589Y-102710589D02*
X144050000Y-103050000D01*
D43*
X146325000Y-89850000D02*
X146150000Y-89675000D01*
X146750000Y-95400000D02*
X146500000Y-95650000D01*
D42*
X151221200Y-121421200D02*
X150700000Y-120900000D01*
X147900000Y-123700000D02*
X150350000Y-123700000D01*
X146350000Y-123700000D02*
X147900000Y-123700000D01*
D43*
X147364800Y-95400000D02*
X146750000Y-95400000D01*
D44*
X144100000Y-103000000D02*
X144050000Y-103050000D01*
X149600000Y-106500000D02*
X150500000Y-106500000D01*
D42*
X151221200Y-121910700D02*
X151221200Y-121421200D01*
D44*
X150950000Y-106050000D02*
X150950000Y-104950000D01*
X151820000Y-97660000D02*
X151850000Y-97630000D01*
X146080851Y-104150000D02*
X147250000Y-104150000D01*
X145276924Y-103451212D02*
X145844861Y-104019149D01*
X150750000Y-97660000D02*
X151820000Y-97660000D01*
X149166012Y-109337876D02*
X147944792Y-110559096D01*
D43*
X147364800Y-89850000D02*
X147912500Y-89850000D01*
D44*
X150950000Y-104950000D02*
X149400000Y-103400000D01*
%TO.N,/VBAT*%
X146100000Y-113865218D02*
X146100000Y-116050000D01*
X147565218Y-112400000D02*
X146100000Y-113865218D01*
X146750000Y-116700000D02*
X151400000Y-116700000D01*
D42*
X152171200Y-118343200D02*
X152191200Y-118323200D01*
D44*
X152191200Y-117491200D02*
X152191200Y-118323200D01*
D42*
X152171200Y-120035700D02*
X152171200Y-118343200D01*
D44*
X146100000Y-116050000D02*
X146750000Y-116700000D01*
X151400000Y-116700000D02*
X152191200Y-117491200D01*
X151163588Y-109337876D02*
X151163588Y-109600016D01*
X151163588Y-109600016D02*
X148363604Y-112400000D01*
X148363604Y-112400000D02*
X147565218Y-112400000D01*
%TO.N,VDDA*%
X156250000Y-108921178D02*
X156250000Y-109365000D01*
X155689411Y-108206845D02*
X153992015Y-106509449D01*
X155689411Y-108360589D02*
X156250000Y-108921178D01*
X155689411Y-108360589D02*
X155689411Y-108206845D01*
D43*
%TO.N,VBUS*%
X152564800Y-85381772D02*
X153376705Y-86193677D01*
X147764800Y-84212830D02*
X147764800Y-85378253D01*
X147764800Y-85378253D02*
X147036412Y-86106641D01*
X152564800Y-84212830D02*
X152564800Y-85381772D01*
D44*
%TO.N,Net-(D2-Pad2)*%
X145821200Y-122163200D02*
X145821200Y-120810700D01*
%TO.N,Net-(D3-Pad2)*%
X154971200Y-122163200D02*
X154971200Y-120810700D01*
D42*
%TO.N,/VB*%
X154100000Y-124550000D02*
X156579400Y-124550000D01*
X153121200Y-121910700D02*
X153121200Y-123571200D01*
X156579400Y-124550000D02*
X159054800Y-127025400D01*
X153121200Y-123571200D02*
X154100000Y-124550000D01*
D44*
%TO.N,Net-(J1-PadA5)*%
X152690000Y-81960000D02*
X155550000Y-81960000D01*
X151414800Y-84212830D02*
X151414800Y-83235200D01*
X151414800Y-83235200D02*
X152690000Y-81960000D01*
%TO.N,Net-(J1-PadB5)*%
X148414800Y-82814800D02*
X147560000Y-81960000D01*
X147560000Y-81960000D02*
X144750000Y-81960000D01*
X148414800Y-84212830D02*
X148414800Y-82814800D01*
%TO.N,/PA13*%
X146939926Y-103700000D02*
X147550000Y-103700000D01*
X149600000Y-105200000D02*
X150050000Y-105650000D01*
X145984031Y-102744105D02*
X146939926Y-103700000D01*
X147550000Y-103700000D02*
X149050000Y-105200000D01*
X149050000Y-105200000D02*
X149600000Y-105200000D01*
%TO.N,/PA14*%
X145276924Y-105448788D02*
X145301212Y-105448788D01*
X145950000Y-104800000D02*
X146800000Y-104800000D01*
X145301212Y-105448788D02*
X145950000Y-104800000D01*
X146800000Y-104800000D02*
X148200000Y-106200000D01*
%TO.N,/PB12*%
X142600000Y-80090600D02*
X141274800Y-78765400D01*
X145099800Y-84584556D02*
X142600000Y-82084756D01*
X142600000Y-82084756D02*
X142600000Y-80090600D01*
X149166012Y-99562124D02*
X145099800Y-95495912D01*
X145099800Y-95495912D02*
X145099800Y-84584556D01*
%TO.N,/PB13*%
X148812458Y-99915678D02*
X144649800Y-95753020D01*
X144649800Y-95753020D02*
X144649800Y-84770952D01*
X141274800Y-81395952D02*
X141274800Y-81305400D01*
X144649800Y-84770952D02*
X141274800Y-81395952D01*
%TO.N,/PB14*%
X148458905Y-100269231D02*
X144199800Y-96010126D01*
X144199800Y-96010126D02*
X144199800Y-86770400D01*
X144199800Y-86770400D02*
X141274800Y-83845400D01*
%TO.N,/PB15*%
X143749800Y-88860400D02*
X141274800Y-86385400D01*
X143749800Y-96282034D02*
X143749800Y-88860400D01*
X148105351Y-100622785D02*
X148090551Y-100622785D01*
X148090551Y-100622785D02*
X143749800Y-96282034D01*
%TO.N,/PA8*%
X143299800Y-96539140D02*
X143299800Y-90950400D01*
X143299800Y-90950400D02*
X141274800Y-88925400D01*
X143314600Y-96539140D02*
X143299800Y-96539140D01*
X147751798Y-100976338D02*
X143314600Y-96539140D01*
%TO.N,/PA9*%
X142849800Y-93040400D02*
X141274800Y-91465400D01*
X142849800Y-96781446D02*
X142849800Y-93040400D01*
X147398245Y-101329891D02*
X142849800Y-96781446D01*
%TO.N,/PA10*%
X142399800Y-97038554D02*
X142399800Y-95130400D01*
X142399800Y-95130400D02*
X141274800Y-94005400D01*
X147044691Y-101683445D02*
X142399800Y-97038554D01*
D45*
%TO.N,/PA11*%
X146691138Y-102036998D02*
X146691138Y-102072352D01*
X151660000Y-86050000D02*
X151660000Y-86060000D01*
D44*
X141274800Y-96545400D02*
X141274800Y-96620660D01*
D45*
X151660000Y-86060000D02*
X152200000Y-86600000D01*
X147443785Y-102824999D02*
X148200001Y-102824999D01*
X148200001Y-102824999D02*
X148500000Y-102525000D01*
X146691138Y-102072352D02*
X147443785Y-102824999D01*
D44*
X141274800Y-96620660D02*
X146691138Y-102036998D01*
%TO.N,/PA15*%
X142400000Y-102750600D02*
X141274800Y-101625400D01*
X145047741Y-106370279D02*
X144116075Y-106370279D01*
X145615678Y-105802342D02*
X145047741Y-106370279D01*
X144116075Y-106370279D02*
X142400000Y-104654204D01*
X142400000Y-104654204D02*
X142400000Y-102750600D01*
%TO.N,/PB3*%
X145969231Y-106155895D02*
X145304847Y-106820279D01*
X145304847Y-106820279D02*
X143929679Y-106820279D01*
X143929679Y-106820279D02*
X141274800Y-104165400D01*
%TO.N,/PB4*%
X141839679Y-107270279D02*
X141274800Y-106705400D01*
X146322785Y-106509449D02*
X145561955Y-107270279D01*
X145561955Y-107270279D02*
X141839679Y-107270279D01*
%TO.N,/PB5*%
X146676338Y-106863002D02*
X145819061Y-107720279D01*
X145819061Y-107720279D02*
X142799921Y-107720279D01*
X142799921Y-107720279D02*
X141274800Y-109245400D01*
%TO.N,/PB6*%
X146076167Y-108170279D02*
X144889921Y-108170279D01*
X144889921Y-108170279D02*
X141274800Y-111785400D01*
X147029891Y-107216555D02*
X146076167Y-108170279D01*
%TO.N,/PB7*%
X145079721Y-108620279D02*
X142650000Y-111050000D01*
X146348075Y-108620279D02*
X145079721Y-108620279D01*
X142650000Y-112950200D02*
X141274800Y-114325400D01*
X147398245Y-107570109D02*
X146348075Y-108620279D01*
X142650000Y-111050000D02*
X142650000Y-112950200D01*
%TO.N,/PB8*%
X143100000Y-115040200D02*
X141274800Y-116865400D01*
X148105351Y-108277215D02*
X143100000Y-113282566D01*
X143100000Y-113282566D02*
X143100000Y-115040200D01*
%TO.N,/PB9*%
X143550000Y-113539674D02*
X148458905Y-108630769D01*
X141274800Y-119405400D02*
X143550000Y-117130200D01*
X143550000Y-117130200D02*
X143550000Y-113539674D01*
%TO.N,/PB11*%
X154100000Y-98039926D02*
X154100000Y-93880200D01*
X151870695Y-100269231D02*
X154100000Y-98039926D01*
X154100000Y-93880200D02*
X159054800Y-88925400D01*
%TO.N,/PB10*%
X152224249Y-100622785D02*
X154550000Y-98297034D01*
X154550000Y-94066596D02*
X157151196Y-91465400D01*
X157151196Y-91465400D02*
X159054800Y-91465400D01*
X154550000Y-98297034D02*
X154550000Y-94066596D01*
%TO.N,/PB1*%
X152931355Y-101329891D02*
X157750000Y-96511246D01*
X157750000Y-96511246D02*
X157750000Y-95310200D01*
X157750000Y-95310200D02*
X159054800Y-94005400D01*
%TO.N,/PB0*%
X153284909Y-101683445D02*
X158422954Y-96545400D01*
X158422954Y-96545400D02*
X159054800Y-96545400D01*
X159054800Y-96948754D02*
X159054800Y-96545400D01*
%TO.N,/MEM_MOSI*%
X157625260Y-99085400D02*
X159054800Y-99085400D01*
X153638462Y-102036998D02*
X156590060Y-99085400D01*
X156590060Y-99085400D02*
X157625260Y-99085400D01*
%TO.N,/MEM_MISO*%
X158979400Y-101550000D02*
X159054800Y-101625400D01*
X154832566Y-101550000D02*
X158979400Y-101550000D01*
X153992015Y-102390551D02*
X154832566Y-101550000D01*
X153992015Y-102390551D02*
X153992015Y-102407985D01*
X153992015Y-102407985D02*
X153050000Y-103350000D01*
%TO.N,/MEM_CLK*%
X154345569Y-102744105D02*
X155089674Y-102000000D01*
X155089674Y-102000000D02*
X156889400Y-102000000D01*
X156889400Y-102000000D02*
X159054800Y-104165400D01*
%TO.N,/PA4*%
X157450000Y-103263604D02*
X157450000Y-105100600D01*
X153450000Y-104350000D02*
X153450000Y-104346780D01*
X153450000Y-104346780D02*
X154699122Y-103097658D01*
X156636396Y-102450000D02*
X157450000Y-103263604D01*
X157450000Y-105100600D02*
X159054800Y-106705400D01*
X154699122Y-103097658D02*
X155346780Y-102450000D01*
X155346780Y-102450000D02*
X156636396Y-102450000D01*
%TO.N,/PA3*%
X159054800Y-108814516D02*
X159054800Y-109245400D01*
X156450000Y-102900000D02*
X157000000Y-103450000D01*
X157000000Y-106759716D02*
X159054800Y-108814516D01*
X157000000Y-103450000D02*
X157000000Y-106759716D01*
X155603888Y-102900000D02*
X156450000Y-102900000D01*
X155052676Y-103451212D02*
X155603888Y-102900000D01*
%TO.N,/PA2*%
X155052676Y-105448788D02*
X157900000Y-108296112D01*
X157900000Y-108296112D02*
X157900000Y-110630600D01*
X157900000Y-110630600D02*
X159054800Y-111785400D01*
%TO.N,/PA1*%
X154699122Y-105802342D02*
X157450000Y-108553220D01*
X157450000Y-112720600D02*
X159054800Y-114325400D01*
X157450000Y-108553220D02*
X157450000Y-112720600D01*
%TO.N,/PA0*%
X151021200Y-118313200D02*
X151021200Y-117471200D01*
X151021200Y-117471200D02*
X151000000Y-117450000D01*
X157000000Y-114810600D02*
X159054800Y-116865400D01*
X154345569Y-106155895D02*
X157000000Y-108810326D01*
X157000000Y-108810326D02*
X157000000Y-114810600D01*
%TO.N,/PC13*%
X151485101Y-108984322D02*
X150649865Y-108149086D01*
X151517142Y-108984322D02*
X151485101Y-108984322D01*
%TO.N,/BOOT0*%
X148964800Y-91300000D02*
X148964800Y-95400000D01*
X148550000Y-96640000D02*
X147790000Y-96640000D01*
X148550000Y-95814800D02*
X148964800Y-95400000D01*
X147790000Y-96640000D02*
X147750000Y-96600000D01*
X146330681Y-109344779D02*
X147751798Y-107923662D01*
X145880181Y-109344779D02*
X146330681Y-109344779D01*
X148550000Y-96640000D02*
X148550000Y-95814800D01*
%TO.N,/PC13*%
X155833200Y-123183200D02*
X155850000Y-123200000D01*
%TO.N,/PB2*%
X152577802Y-100976338D02*
X155250000Y-98304140D01*
%TO.N,/PC13*%
X154971200Y-123183200D02*
X155833200Y-123183200D01*
%TO.N,/PB2*%
X155250000Y-98304140D02*
X155250000Y-97660000D01*
%TO.N,Net-(R10-Pad2)*%
X149500000Y-118300000D02*
X149500000Y-119300000D01*
X149500000Y-119300000D02*
X149500000Y-122400000D01*
X149533200Y-119333200D02*
X149500000Y-119300000D01*
X151021200Y-119333200D02*
X149533200Y-119333200D01*
D45*
%TO.N,/D+*%
X149414800Y-83282829D02*
X149439800Y-83257829D01*
X149439800Y-83257829D02*
X149439800Y-82708000D01*
X152224999Y-80706801D02*
X152224999Y-80299999D01*
X150439800Y-83257829D02*
X150439800Y-82492000D01*
X150414800Y-85824800D02*
X150640000Y-86050000D01*
X147624999Y-80893199D02*
X147624999Y-80299999D01*
X152224999Y-80299999D02*
X151925000Y-80000000D01*
X149414800Y-84212830D02*
X149414800Y-83282829D01*
X149439800Y-82708000D02*
X147624999Y-80893199D01*
X150414800Y-84212830D02*
X150414800Y-85824800D01*
X147624999Y-80299999D02*
X147325000Y-80000000D01*
X150414800Y-83282829D02*
X150439800Y-83257829D01*
X150414800Y-84212830D02*
X150414800Y-83282829D01*
X150439800Y-82492000D02*
X152224999Y-80706801D01*
%TO.N,/D-*%
X148075001Y-80299999D02*
X148375000Y-80000000D01*
X149914800Y-84212830D02*
X149914800Y-85845200D01*
X149889800Y-82521600D02*
X148075001Y-80706801D01*
X149914800Y-83282829D02*
X149889800Y-83257829D01*
X152675001Y-80893199D02*
X152675001Y-80299999D01*
X149914800Y-84212830D02*
X149914800Y-83282829D01*
X148075001Y-80706801D02*
X148075001Y-80299999D01*
X152675001Y-80299999D02*
X152975000Y-80000000D01*
X149914800Y-85845200D02*
X149710000Y-86050000D01*
X150889800Y-83257829D02*
X150889800Y-82678400D01*
X149889800Y-83257829D02*
X149889800Y-82521600D01*
X150889800Y-82678400D02*
X152675001Y-80893199D01*
X150914800Y-83282829D02*
X150889800Y-83257829D01*
X150914800Y-84212830D02*
X150914800Y-83282829D01*
%TO.N,/PA12*%
X148200001Y-103275001D02*
X148500000Y-103575000D01*
D44*
X141274800Y-99085400D02*
X143032434Y-99085400D01*
D45*
X148690000Y-86050000D02*
X148690000Y-86110000D01*
X146372939Y-102390551D02*
X147257389Y-103275001D01*
X146337585Y-102390551D02*
X146372939Y-102390551D01*
X148690000Y-86110000D02*
X148150000Y-86650000D01*
D44*
X143032434Y-99085400D02*
X146337585Y-102390551D01*
D45*
X147257389Y-103275001D02*
X148200001Y-103275001D01*
%TD*%
%TA.AperFunction,Conductor*%
%TO.N,GND*%
G36*
X145959711Y-111770823D02*
G01*
X146016547Y-111813370D01*
X146041358Y-111879890D01*
X146041566Y-111886735D01*
X146040729Y-111893096D01*
X146058113Y-112050553D01*
X146060723Y-112057684D01*
X146060723Y-112057686D01*
X146104569Y-112177501D01*
X146112553Y-112199319D01*
X146116789Y-112205622D01*
X146116789Y-112205623D01*
X146195378Y-112322575D01*
X146200908Y-112330805D01*
X146206527Y-112335918D01*
X146206528Y-112335919D01*
X146300321Y-112421263D01*
X146318076Y-112437419D01*
X146457293Y-112513008D01*
X146553645Y-112538285D01*
X146607910Y-112552522D01*
X146668725Y-112589156D01*
X146700080Y-112652853D01*
X146692021Y-112723391D01*
X146665031Y-112763493D01*
X145869784Y-113558740D01*
X145851036Y-113573882D01*
X145849811Y-113574997D01*
X145841060Y-113580647D01*
X145834613Y-113588825D01*
X145834611Y-113588827D01*
X145820271Y-113607018D01*
X145816325Y-113611459D01*
X145816398Y-113611521D01*
X145813039Y-113615485D01*
X145809362Y-113619162D01*
X145798108Y-113634910D01*
X145794602Y-113639580D01*
X145762844Y-113679865D01*
X145759812Y-113688499D01*
X145754486Y-113695952D01*
X145741790Y-113738406D01*
X145739799Y-113745062D01*
X145737964Y-113750710D01*
X145720982Y-113799069D01*
X145720500Y-113804634D01*
X145720500Y-113807342D01*
X145720386Y-113809976D01*
X145720357Y-113810074D01*
X145720193Y-113810067D01*
X145720149Y-113810771D01*
X145718287Y-113816996D01*
X145719962Y-113859622D01*
X145720403Y-113870853D01*
X145720500Y-113875800D01*
X145720500Y-115996080D01*
X145717951Y-116020028D01*
X145717872Y-116021693D01*
X145715680Y-116031876D01*
X145716904Y-116042217D01*
X145719627Y-116065223D01*
X145719977Y-116071154D01*
X145720072Y-116071146D01*
X145720500Y-116076324D01*
X145720500Y-116081524D01*
X145721354Y-116086653D01*
X145721354Y-116086656D01*
X145723669Y-116100565D01*
X145724506Y-116106443D01*
X145730530Y-116157341D01*
X145734493Y-116165593D01*
X145735996Y-116174626D01*
X145740943Y-116183795D01*
X145740944Y-116183797D01*
X145760334Y-116219732D01*
X145763031Y-116225025D01*
X145781785Y-116264082D01*
X145781788Y-116264086D01*
X145785219Y-116271232D01*
X145788814Y-116275508D01*
X145790737Y-116277431D01*
X145792509Y-116279363D01*
X145792552Y-116279442D01*
X145792428Y-116279555D01*
X145792904Y-116280095D01*
X145795990Y-116285814D01*
X145803635Y-116292881D01*
X145835586Y-116322416D01*
X145839152Y-116325846D01*
X146443522Y-116930216D01*
X146458664Y-116948964D01*
X146459779Y-116950189D01*
X146465429Y-116958940D01*
X146473607Y-116965387D01*
X146473609Y-116965389D01*
X146491800Y-116979729D01*
X146496241Y-116983675D01*
X146496303Y-116983602D01*
X146500267Y-116986961D01*
X146503944Y-116990638D01*
X146519692Y-117001892D01*
X146524362Y-117005398D01*
X146564647Y-117037156D01*
X146573281Y-117040188D01*
X146580734Y-117045514D01*
X146629850Y-117060203D01*
X146635492Y-117062036D01*
X146676367Y-117076390D01*
X146683851Y-117079018D01*
X146689416Y-117079500D01*
X146692124Y-117079500D01*
X146694758Y-117079614D01*
X146694856Y-117079643D01*
X146694849Y-117079807D01*
X146695553Y-117079851D01*
X146701778Y-117081713D01*
X146755635Y-117079597D01*
X146760582Y-117079500D01*
X150257568Y-117079500D01*
X150325689Y-117099502D01*
X150372182Y-117153158D01*
X150382286Y-117223432D01*
X150374961Y-117251269D01*
X150364167Y-117278954D01*
X150364166Y-117278958D01*
X150361406Y-117286037D01*
X150360414Y-117293570D01*
X150360414Y-117293571D01*
X150342519Y-117429500D01*
X150340729Y-117443096D01*
X150343545Y-117468601D01*
X150350198Y-117528863D01*
X150337792Y-117598767D01*
X150289563Y-117650868D01*
X150220822Y-117668622D01*
X150154956Y-117647454D01*
X150109621Y-117617161D01*
X150109618Y-117617160D01*
X150099301Y-117610266D01*
X150025067Y-117595500D01*
X149500085Y-117595500D01*
X148974934Y-117595501D01*
X148939182Y-117602612D01*
X148912874Y-117607844D01*
X148912872Y-117607845D01*
X148900699Y-117610266D01*
X148890379Y-117617161D01*
X148890378Y-117617162D01*
X148829985Y-117657516D01*
X148816516Y-117666516D01*
X148809623Y-117676832D01*
X148804764Y-117684104D01*
X148750286Y-117729630D01*
X148679843Y-117738477D01*
X148615800Y-117707835D01*
X148595236Y-117684104D01*
X148590377Y-117676832D01*
X148583484Y-117666516D01*
X148499301Y-117610266D01*
X148425067Y-117595500D01*
X147900085Y-117595500D01*
X147374934Y-117595501D01*
X147339182Y-117602612D01*
X147312874Y-117607844D01*
X147312872Y-117607845D01*
X147300699Y-117610266D01*
X147290379Y-117617161D01*
X147290378Y-117617162D01*
X147229985Y-117657516D01*
X147216516Y-117666516D01*
X147160266Y-117750699D01*
X147145500Y-117824933D01*
X147145501Y-118775066D01*
X147152233Y-118808915D01*
X147156889Y-118832321D01*
X147160266Y-118849301D01*
X147167161Y-118859621D01*
X147167162Y-118859622D01*
X147172247Y-118867232D01*
X147216516Y-118933484D01*
X147300699Y-118989734D01*
X147374933Y-119004500D01*
X147394500Y-119004500D01*
X147462621Y-119024502D01*
X147509114Y-119078158D01*
X147520500Y-119130500D01*
X147520500Y-121569501D01*
X147500498Y-121637622D01*
X147446842Y-121684115D01*
X147394500Y-121695501D01*
X147374934Y-121695501D01*
X147339182Y-121702612D01*
X147312874Y-121707844D01*
X147312872Y-121707845D01*
X147300699Y-121710266D01*
X147290379Y-121717161D01*
X147290378Y-121717162D01*
X147229985Y-121757516D01*
X147216516Y-121766516D01*
X147160266Y-121850699D01*
X147145500Y-121924933D01*
X147145501Y-122875066D01*
X147150198Y-122898681D01*
X147157648Y-122936136D01*
X147160266Y-122949301D01*
X147167161Y-122959621D01*
X147167162Y-122959622D01*
X147199340Y-123007779D01*
X147216516Y-123033484D01*
X147219705Y-123035615D01*
X147250886Y-123092717D01*
X147245821Y-123163532D01*
X147203274Y-123220368D01*
X147136754Y-123245179D01*
X147127765Y-123245500D01*
X146590450Y-123245500D01*
X146522329Y-123225498D01*
X146501355Y-123208595D01*
X146432604Y-123139844D01*
X146398578Y-123077532D01*
X146395699Y-123050749D01*
X146395699Y-123017548D01*
X146388591Y-122972668D01*
X146382806Y-122936136D01*
X146382805Y-122936134D01*
X146381254Y-122926338D01*
X146374165Y-122912424D01*
X146329740Y-122825236D01*
X146325240Y-122816404D01*
X146271131Y-122762295D01*
X146237105Y-122699983D01*
X146242170Y-122629168D01*
X146271131Y-122584105D01*
X146325240Y-122529996D01*
X146381254Y-122420062D01*
X146395700Y-122328853D01*
X146395699Y-121997548D01*
X146387440Y-121945400D01*
X146382806Y-121916136D01*
X146382805Y-121916134D01*
X146381254Y-121906338D01*
X146372344Y-121888850D01*
X146329740Y-121805236D01*
X146325240Y-121796404D01*
X146291311Y-121762475D01*
X146257285Y-121700163D01*
X146262350Y-121629348D01*
X146304897Y-121572512D01*
X146366798Y-121548117D01*
X146367311Y-121548061D01*
X146385542Y-121546081D01*
X146393020Y-121543278D01*
X146510774Y-121499135D01*
X146519182Y-121495983D01*
X146574382Y-121454613D01*
X146626208Y-121415771D01*
X146633389Y-121410389D01*
X146697760Y-121324500D01*
X146713599Y-121303366D01*
X146713599Y-121303365D01*
X146718983Y-121296182D01*
X146755093Y-121199857D01*
X146766308Y-121169940D01*
X146766309Y-121169938D01*
X146769081Y-121162542D01*
X146775700Y-121101615D01*
X146775699Y-120519786D01*
X146769081Y-120458858D01*
X146718983Y-120325218D01*
X146633389Y-120211011D01*
X146577723Y-120169291D01*
X146526366Y-120130801D01*
X146526365Y-120130801D01*
X146519182Y-120125417D01*
X146392945Y-120078094D01*
X146392940Y-120078092D01*
X146392938Y-120078091D01*
X146385542Y-120075319D01*
X146324615Y-120068700D01*
X145821274Y-120068700D01*
X145317786Y-120068701D01*
X145314392Y-120069070D01*
X145314386Y-120069070D01*
X145264717Y-120074465D01*
X145264714Y-120074466D01*
X145256858Y-120075319D01*
X145123218Y-120125417D01*
X145116035Y-120130801D01*
X145116034Y-120130801D01*
X145064677Y-120169291D01*
X145009011Y-120211011D01*
X144923417Y-120325218D01*
X144920265Y-120333626D01*
X144887404Y-120421286D01*
X144873319Y-120458858D01*
X144866700Y-120519785D01*
X144866701Y-121101614D01*
X144873319Y-121162542D01*
X144876094Y-121169944D01*
X144876094Y-121169945D01*
X144882164Y-121186137D01*
X144923417Y-121296182D01*
X144928801Y-121303365D01*
X144928801Y-121303366D01*
X144944640Y-121324500D01*
X145009011Y-121410389D01*
X145016192Y-121415771D01*
X145068019Y-121454613D01*
X145123218Y-121495983D01*
X145131626Y-121499135D01*
X145249460Y-121543308D01*
X145249462Y-121543309D01*
X145256858Y-121546081D01*
X145275600Y-121548117D01*
X145341163Y-121575358D01*
X145381590Y-121633720D01*
X145384046Y-121704675D01*
X145351089Y-121762475D01*
X145317160Y-121796404D01*
X145261146Y-121906338D01*
X145246700Y-121997547D01*
X145246701Y-122328852D01*
X145247476Y-122333743D01*
X145247476Y-122333746D01*
X145255820Y-122386429D01*
X145261146Y-122420062D01*
X145317160Y-122529996D01*
X145371269Y-122584105D01*
X145405295Y-122646417D01*
X145400230Y-122717232D01*
X145371269Y-122762295D01*
X145317160Y-122816404D01*
X145261146Y-122926338D01*
X145259596Y-122936127D01*
X145259595Y-122936129D01*
X145258143Y-122945296D01*
X145246700Y-123017547D01*
X145246701Y-123348852D01*
X145247476Y-123353745D01*
X145247476Y-123353746D01*
X145256028Y-123407743D01*
X145261146Y-123440062D01*
X145265649Y-123448899D01*
X145265649Y-123448900D01*
X145285197Y-123487265D01*
X145317160Y-123549996D01*
X145404404Y-123637240D01*
X145514338Y-123693254D01*
X145524127Y-123694804D01*
X145524129Y-123694805D01*
X145550621Y-123699001D01*
X145605547Y-123707700D01*
X145662750Y-123707700D01*
X145730871Y-123727702D01*
X145751845Y-123744605D01*
X146004251Y-123997011D01*
X146014106Y-124008100D01*
X146035359Y-124035059D01*
X146043106Y-124040413D01*
X146084094Y-124068742D01*
X146087287Y-124071024D01*
X146134924Y-124106209D01*
X146141797Y-124108623D01*
X146147789Y-124112764D01*
X146204270Y-124130626D01*
X146207999Y-124131871D01*
X146263874Y-124151493D01*
X146271078Y-124151776D01*
X146271249Y-124151809D01*
X146278097Y-124153975D01*
X146284768Y-124154500D01*
X146337939Y-124154500D01*
X146342885Y-124154597D01*
X146400438Y-124156858D01*
X146407593Y-124154961D01*
X146415968Y-124154500D01*
X150315544Y-124154500D01*
X150330354Y-124155373D01*
X150364438Y-124159407D01*
X150373702Y-124157715D01*
X150373705Y-124157715D01*
X150422680Y-124148771D01*
X150426582Y-124148122D01*
X150475836Y-124140716D01*
X150475839Y-124140715D01*
X150485151Y-124139315D01*
X150491718Y-124136162D01*
X150498883Y-124134853D01*
X150551467Y-124107538D01*
X150554957Y-124105795D01*
X150608353Y-124080154D01*
X150613648Y-124075259D01*
X150613787Y-124075166D01*
X150620166Y-124071852D01*
X150625254Y-124067506D01*
X150662836Y-124029924D01*
X150666402Y-124026494D01*
X150708712Y-123987383D01*
X150712430Y-123980983D01*
X150718037Y-123974723D01*
X151518211Y-123174549D01*
X151529300Y-123164694D01*
X151530774Y-123163532D01*
X151556259Y-123143441D01*
X151583173Y-123104500D01*
X151589942Y-123094706D01*
X151592224Y-123091513D01*
X151627409Y-123043876D01*
X151629823Y-123037003D01*
X151633964Y-123031011D01*
X151651829Y-122974522D01*
X151653080Y-122970773D01*
X151672693Y-122914926D01*
X151672976Y-122907722D01*
X151673009Y-122907551D01*
X151675175Y-122900703D01*
X151675700Y-122894032D01*
X151675700Y-122840862D01*
X151675797Y-122835914D01*
X151676907Y-122807671D01*
X151699803Y-122741646D01*
X151702526Y-122738923D01*
X151760698Y-122624755D01*
X151775700Y-122530034D01*
X151775700Y-121291366D01*
X151760698Y-121196645D01*
X151756197Y-121187811D01*
X151753132Y-121178378D01*
X151755963Y-121177458D01*
X151745802Y-121123351D01*
X151772502Y-121057566D01*
X151830530Y-121016660D01*
X151894451Y-121013920D01*
X151894645Y-121012698D01*
X151900678Y-121013654D01*
X151900680Y-121013654D01*
X151989366Y-121027700D01*
X152353034Y-121027700D01*
X152447755Y-121012698D01*
X152448220Y-121015635D01*
X152503269Y-121014067D01*
X152564064Y-121050735D01*
X152595383Y-121114450D01*
X152588087Y-121177994D01*
X152589268Y-121178378D01*
X152587373Y-121184212D01*
X152587284Y-121184983D01*
X152586747Y-121186137D01*
X152586203Y-121187811D01*
X152581702Y-121196645D01*
X152566700Y-121291366D01*
X152566700Y-122530034D01*
X152581702Y-122624755D01*
X152639874Y-122738923D01*
X152643522Y-122742571D01*
X152666494Y-122806950D01*
X152666700Y-122814146D01*
X152666700Y-123536744D01*
X152665827Y-123551553D01*
X152661793Y-123585638D01*
X152663485Y-123594902D01*
X152663485Y-123594905D01*
X152672429Y-123643880D01*
X152673078Y-123647782D01*
X152680149Y-123694805D01*
X152681885Y-123706351D01*
X152685038Y-123712918D01*
X152686347Y-123720083D01*
X152713662Y-123772667D01*
X152715405Y-123776157D01*
X152741046Y-123829553D01*
X152745941Y-123834848D01*
X152746034Y-123834987D01*
X152749348Y-123841366D01*
X152753694Y-123846454D01*
X152791276Y-123884036D01*
X152794706Y-123887601D01*
X152833817Y-123929912D01*
X152840217Y-123933630D01*
X152846477Y-123939237D01*
X153754251Y-124847011D01*
X153764106Y-124858100D01*
X153785359Y-124885059D01*
X153793106Y-124890413D01*
X153793110Y-124890417D01*
X153834072Y-124918728D01*
X153837292Y-124921029D01*
X153877342Y-124950610D01*
X153877344Y-124950611D01*
X153884923Y-124956209D01*
X153891798Y-124958623D01*
X153897789Y-124962764D01*
X153906769Y-124965604D01*
X153954255Y-124980622D01*
X153958008Y-124981874D01*
X154013874Y-125001492D01*
X154021074Y-125001775D01*
X154021248Y-125001809D01*
X154028097Y-125003975D01*
X154034768Y-125004500D01*
X154087949Y-125004500D01*
X154092895Y-125004597D01*
X154150437Y-125006858D01*
X154157592Y-125004961D01*
X154165967Y-125004500D01*
X156338950Y-125004500D01*
X156407071Y-125024502D01*
X156428045Y-125041405D01*
X157963395Y-126576755D01*
X157997421Y-126639067D01*
X158000300Y-126665850D01*
X158000301Y-127068022D01*
X158000301Y-127463966D01*
X158003109Y-127499658D01*
X158004904Y-127505835D01*
X158004905Y-127505841D01*
X158023545Y-127570000D01*
X158047482Y-127652392D01*
X158051519Y-127659218D01*
X158124406Y-127782464D01*
X158124408Y-127782467D01*
X158128444Y-127789291D01*
X158240909Y-127901756D01*
X158247733Y-127905792D01*
X158247736Y-127905794D01*
X158349798Y-127966153D01*
X158377808Y-127982718D01*
X158385419Y-127984929D01*
X158385421Y-127984930D01*
X158519569Y-128023903D01*
X158579404Y-128062116D01*
X158609082Y-128126612D01*
X158599179Y-128196914D01*
X158552839Y-128250703D01*
X158484416Y-128270900D01*
X155105300Y-128270900D01*
X155037179Y-128250898D01*
X154990686Y-128197242D01*
X154979300Y-128144900D01*
X154979299Y-126637907D01*
X154979299Y-126635434D01*
X154976491Y-126599742D01*
X154973460Y-126589307D01*
X154934330Y-126454621D01*
X154934329Y-126454619D01*
X154932118Y-126447008D01*
X154899339Y-126391582D01*
X154855194Y-126316936D01*
X154855192Y-126316933D01*
X154851156Y-126310109D01*
X154738691Y-126197644D01*
X154731867Y-126193608D01*
X154731864Y-126193606D01*
X154608618Y-126120719D01*
X154608619Y-126120719D01*
X154601792Y-126116682D01*
X154594181Y-126114471D01*
X154594179Y-126114470D01*
X154503466Y-126088116D01*
X154449058Y-126072309D01*
X154442653Y-126071805D01*
X154442648Y-126071804D01*
X154415823Y-126069693D01*
X154415816Y-126069693D01*
X154413367Y-126069500D01*
X153975155Y-126069500D01*
X153536234Y-126069501D01*
X153513665Y-126071277D01*
X153506960Y-126071804D01*
X153506959Y-126071804D01*
X153500542Y-126072309D01*
X153494362Y-126074104D01*
X153494359Y-126074105D01*
X153355421Y-126114470D01*
X153355419Y-126114471D01*
X153347808Y-126116682D01*
X153340981Y-126120719D01*
X153340982Y-126120719D01*
X153217736Y-126193606D01*
X153217733Y-126193608D01*
X153210909Y-126197644D01*
X153098444Y-126310109D01*
X153094408Y-126316933D01*
X153094406Y-126316936D01*
X153050261Y-126391582D01*
X153017482Y-126447008D01*
X152973109Y-126599742D01*
X152972605Y-126606147D01*
X152972604Y-126606152D01*
X152970493Y-126632977D01*
X152970300Y-126635433D01*
X152970300Y-126637902D01*
X152970301Y-128144900D01*
X152950299Y-128213021D01*
X152896643Y-128259514D01*
X152844301Y-128270900D01*
X152565300Y-128270900D01*
X152497179Y-128250898D01*
X152450686Y-128197242D01*
X152439300Y-128144900D01*
X152439299Y-126637907D01*
X152439299Y-126635434D01*
X152436491Y-126599742D01*
X152433460Y-126589307D01*
X152394330Y-126454621D01*
X152394329Y-126454619D01*
X152392118Y-126447008D01*
X152359339Y-126391582D01*
X152315194Y-126316936D01*
X152315192Y-126316933D01*
X152311156Y-126310109D01*
X152198691Y-126197644D01*
X152191867Y-126193608D01*
X152191864Y-126193606D01*
X152068618Y-126120719D01*
X152068619Y-126120719D01*
X152061792Y-126116682D01*
X152054181Y-126114471D01*
X152054179Y-126114470D01*
X151963466Y-126088116D01*
X151909058Y-126072309D01*
X151902653Y-126071805D01*
X151902648Y-126071804D01*
X151875823Y-126069693D01*
X151875816Y-126069693D01*
X151873367Y-126069500D01*
X151435155Y-126069500D01*
X150996234Y-126069501D01*
X150973665Y-126071277D01*
X150966960Y-126071804D01*
X150966959Y-126071804D01*
X150960542Y-126072309D01*
X150954362Y-126074104D01*
X150954359Y-126074105D01*
X150815421Y-126114470D01*
X150815419Y-126114471D01*
X150807808Y-126116682D01*
X150800981Y-126120719D01*
X150800982Y-126120719D01*
X150677736Y-126193606D01*
X150677733Y-126193608D01*
X150670909Y-126197644D01*
X150558444Y-126310109D01*
X150554408Y-126316933D01*
X150554406Y-126316936D01*
X150510261Y-126391582D01*
X150477482Y-126447008D01*
X150433109Y-126599742D01*
X150432605Y-126606147D01*
X150432604Y-126606152D01*
X150430493Y-126632977D01*
X150430300Y-126635433D01*
X150430300Y-126637902D01*
X150430301Y-128144900D01*
X150410299Y-128213021D01*
X150356643Y-128259514D01*
X150304301Y-128270900D01*
X150025300Y-128270900D01*
X149957179Y-128250898D01*
X149910686Y-128197242D01*
X149899300Y-128144900D01*
X149899299Y-126637907D01*
X149899299Y-126635434D01*
X149896491Y-126599742D01*
X149893460Y-126589307D01*
X149854330Y-126454621D01*
X149854329Y-126454619D01*
X149852118Y-126447008D01*
X149819339Y-126391582D01*
X149775194Y-126316936D01*
X149775192Y-126316933D01*
X149771156Y-126310109D01*
X149658691Y-126197644D01*
X149651867Y-126193608D01*
X149651864Y-126193606D01*
X149528618Y-126120719D01*
X149528619Y-126120719D01*
X149521792Y-126116682D01*
X149514181Y-126114471D01*
X149514179Y-126114470D01*
X149423466Y-126088116D01*
X149369058Y-126072309D01*
X149362653Y-126071805D01*
X149362648Y-126071804D01*
X149335823Y-126069693D01*
X149335816Y-126069693D01*
X149333367Y-126069500D01*
X148895155Y-126069500D01*
X148456234Y-126069501D01*
X148433665Y-126071277D01*
X148426960Y-126071804D01*
X148426959Y-126071804D01*
X148420542Y-126072309D01*
X148414362Y-126074104D01*
X148414359Y-126074105D01*
X148275421Y-126114470D01*
X148275419Y-126114471D01*
X148267808Y-126116682D01*
X148260981Y-126120719D01*
X148260982Y-126120719D01*
X148137736Y-126193606D01*
X148137733Y-126193608D01*
X148130909Y-126197644D01*
X148018444Y-126310109D01*
X148014408Y-126316933D01*
X148014406Y-126316936D01*
X147970261Y-126391582D01*
X147937482Y-126447008D01*
X147893109Y-126599742D01*
X147892605Y-126606147D01*
X147892604Y-126606152D01*
X147890493Y-126632977D01*
X147890300Y-126635433D01*
X147890300Y-126637902D01*
X147890301Y-128144900D01*
X147870299Y-128213021D01*
X147816643Y-128259514D01*
X147764301Y-128270900D01*
X147484800Y-128270900D01*
X147416679Y-128250898D01*
X147370186Y-128197242D01*
X147358800Y-128144900D01*
X147358800Y-128096115D01*
X147354325Y-128080876D01*
X147352935Y-128079671D01*
X147345252Y-128078000D01*
X147178126Y-128078000D01*
X147152481Y-128085530D01*
X147004016Y-128233995D01*
X146941704Y-128268021D01*
X146914921Y-128270900D01*
X146542805Y-128270900D01*
X146474684Y-128250898D01*
X146428191Y-128197242D01*
X146418087Y-128126968D01*
X146432218Y-128084514D01*
X146434288Y-128080723D01*
X146426986Y-128078000D01*
X146286125Y-128078000D01*
X146275100Y-128081237D01*
X146280269Y-128092556D01*
X146290374Y-128162829D01*
X146260882Y-128227411D01*
X146201156Y-128265795D01*
X146165656Y-128270900D01*
X145794679Y-128270900D01*
X145726558Y-128250898D01*
X145705584Y-128233995D01*
X145562401Y-128090812D01*
X145538939Y-128078000D01*
X145368916Y-128078000D01*
X145353677Y-128082475D01*
X145352472Y-128083865D01*
X145350801Y-128091548D01*
X145350801Y-128144900D01*
X145330799Y-128213021D01*
X145277143Y-128259514D01*
X145224801Y-128270900D01*
X141845184Y-128270900D01*
X141777063Y-128250898D01*
X141730570Y-128197242D01*
X141720466Y-128126968D01*
X141749960Y-128062388D01*
X141810031Y-128023903D01*
X141944179Y-127984930D01*
X141944181Y-127984929D01*
X141951792Y-127982718D01*
X141979802Y-127966153D01*
X142081864Y-127905794D01*
X142081867Y-127905792D01*
X142088691Y-127901756D01*
X142201156Y-127789291D01*
X142205192Y-127782467D01*
X142205194Y-127782464D01*
X142278081Y-127659218D01*
X142282118Y-127652392D01*
X142326491Y-127499658D01*
X142326995Y-127493253D01*
X142326996Y-127493248D01*
X142329107Y-127466423D01*
X142329107Y-127466416D01*
X142329300Y-127463967D01*
X142329299Y-126637954D01*
X145350800Y-126637954D01*
X145350801Y-127551885D01*
X145355276Y-127567124D01*
X145356666Y-127568329D01*
X145364349Y-127570000D01*
X146082685Y-127570000D01*
X146097924Y-127565525D01*
X146099129Y-127564135D01*
X146100800Y-127556452D01*
X146100800Y-127551885D01*
X146608800Y-127551885D01*
X146613275Y-127567124D01*
X146614665Y-127568329D01*
X146622348Y-127570000D01*
X147340685Y-127570000D01*
X147355924Y-127565525D01*
X147357129Y-127564135D01*
X147358800Y-127556452D01*
X147358799Y-126637958D01*
X147358605Y-126633024D01*
X147356498Y-126606242D01*
X147354196Y-126593634D01*
X147313867Y-126454821D01*
X147307621Y-126440387D01*
X147234795Y-126317245D01*
X147225146Y-126304807D01*
X147123993Y-126203654D01*
X147111555Y-126194005D01*
X146988413Y-126121179D01*
X146973979Y-126114933D01*
X146835159Y-126074602D01*
X146822566Y-126072302D01*
X146795771Y-126070193D01*
X146790845Y-126070000D01*
X146626915Y-126070000D01*
X146611676Y-126074475D01*
X146610471Y-126075865D01*
X146608800Y-126083548D01*
X146608800Y-127551885D01*
X146100800Y-127551885D01*
X146100800Y-126088116D01*
X146096325Y-126072877D01*
X146094935Y-126071672D01*
X146087252Y-126070001D01*
X145918758Y-126070001D01*
X145913824Y-126070195D01*
X145887042Y-126072302D01*
X145874434Y-126074604D01*
X145735621Y-126114933D01*
X145721187Y-126121179D01*
X145598045Y-126194005D01*
X145585607Y-126203654D01*
X145484454Y-126304807D01*
X145474805Y-126317245D01*
X145401979Y-126440387D01*
X145395733Y-126454821D01*
X145355402Y-126593641D01*
X145353102Y-126606234D01*
X145350993Y-126633029D01*
X145350800Y-126637954D01*
X142329299Y-126637954D01*
X142329299Y-126586834D01*
X142326491Y-126551142D01*
X142298508Y-126454821D01*
X142284330Y-126406021D01*
X142284329Y-126406019D01*
X142282118Y-126398408D01*
X142265553Y-126370398D01*
X142205194Y-126268336D01*
X142205192Y-126268333D01*
X142201156Y-126261509D01*
X142088691Y-126149044D01*
X142081867Y-126145008D01*
X142081864Y-126145006D01*
X141961976Y-126074105D01*
X141951792Y-126068082D01*
X141944181Y-126065871D01*
X141944179Y-126065870D01*
X141894939Y-126051565D01*
X141799058Y-126023709D01*
X141792653Y-126023205D01*
X141792648Y-126023204D01*
X141765823Y-126021093D01*
X141765816Y-126021093D01*
X141763367Y-126020900D01*
X141731040Y-126020900D01*
X140207300Y-126020901D01*
X140139179Y-126000899D01*
X140092686Y-125947243D01*
X140081300Y-125894901D01*
X140081300Y-125615400D01*
X140101302Y-125547279D01*
X140154958Y-125500786D01*
X140207300Y-125489400D01*
X140302685Y-125489400D01*
X140317924Y-125484925D01*
X140319129Y-125483535D01*
X140320800Y-125475852D01*
X140320800Y-125471284D01*
X140828800Y-125471284D01*
X140833275Y-125486523D01*
X140834665Y-125487728D01*
X140842348Y-125489399D01*
X141760842Y-125489399D01*
X141765776Y-125489205D01*
X141792558Y-125487098D01*
X141805166Y-125484796D01*
X141943979Y-125444467D01*
X141958413Y-125438221D01*
X142081555Y-125365395D01*
X142093993Y-125355746D01*
X142195146Y-125254593D01*
X142204795Y-125242155D01*
X142277621Y-125119013D01*
X142283867Y-125104579D01*
X142324198Y-124965759D01*
X142326498Y-124953166D01*
X142328607Y-124926371D01*
X142328800Y-124921446D01*
X142328800Y-124757515D01*
X142324325Y-124742276D01*
X142322935Y-124741071D01*
X142315252Y-124739400D01*
X140846915Y-124739400D01*
X140831676Y-124743875D01*
X140830471Y-124745265D01*
X140828800Y-124752948D01*
X140828800Y-125471284D01*
X140320800Y-125471284D01*
X140320800Y-125358726D01*
X140313270Y-125333081D01*
X140118205Y-125138016D01*
X140084179Y-125075704D01*
X140081300Y-125048921D01*
X140081300Y-124686880D01*
X140101302Y-124618759D01*
X140154958Y-124572266D01*
X140225232Y-124562162D01*
X140289812Y-124591656D01*
X140296395Y-124597785D01*
X140307990Y-124609380D01*
X140318076Y-124614887D01*
X140320800Y-124607583D01*
X140320800Y-124366726D01*
X140317563Y-124355701D01*
X140310470Y-124358940D01*
X140296395Y-124373015D01*
X140234083Y-124407041D01*
X140163268Y-124401976D01*
X140106432Y-124359429D01*
X140081621Y-124292909D01*
X140081300Y-124283920D01*
X140081300Y-124213285D01*
X140828800Y-124213285D01*
X140833275Y-124228524D01*
X140834665Y-124229729D01*
X140842348Y-124231400D01*
X142310684Y-124231400D01*
X142325923Y-124226925D01*
X142327128Y-124225535D01*
X142328799Y-124217852D01*
X142328799Y-124049358D01*
X142328605Y-124044424D01*
X142326498Y-124017642D01*
X142324196Y-124005034D01*
X142283867Y-123866221D01*
X142277621Y-123851787D01*
X142204795Y-123728645D01*
X142195146Y-123716207D01*
X142093993Y-123615054D01*
X142081555Y-123605405D01*
X141958413Y-123532579D01*
X141943979Y-123526333D01*
X141805159Y-123486002D01*
X141792566Y-123483702D01*
X141765771Y-123481593D01*
X141760845Y-123481400D01*
X140846915Y-123481400D01*
X140831676Y-123485875D01*
X140830471Y-123487265D01*
X140828800Y-123494948D01*
X140828800Y-124213285D01*
X140081300Y-124213285D01*
X140081300Y-123921879D01*
X140101302Y-123853758D01*
X140118205Y-123832784D01*
X140307988Y-123643001D01*
X140320800Y-123619539D01*
X140320800Y-123499516D01*
X140316325Y-123484277D01*
X140314935Y-123483072D01*
X140307252Y-123481401D01*
X140207300Y-123481401D01*
X140139179Y-123461399D01*
X140092686Y-123407743D01*
X140081300Y-123355401D01*
X140081300Y-123075900D01*
X140101302Y-123007779D01*
X140154958Y-122961286D01*
X140207300Y-122949900D01*
X141730988Y-122949899D01*
X141763366Y-122949899D01*
X141785935Y-122948123D01*
X141792640Y-122947596D01*
X141792641Y-122947596D01*
X141799058Y-122947091D01*
X141805238Y-122945296D01*
X141805241Y-122945295D01*
X141944179Y-122904930D01*
X141944181Y-122904929D01*
X141951792Y-122902718D01*
X142009014Y-122868877D01*
X142081864Y-122825794D01*
X142081867Y-122825792D01*
X142088691Y-122821756D01*
X142201156Y-122709291D01*
X142205192Y-122702467D01*
X142205194Y-122702464D01*
X142278081Y-122579218D01*
X142282118Y-122572392D01*
X142284772Y-122563259D01*
X142323807Y-122428895D01*
X142326491Y-122419658D01*
X142326995Y-122413253D01*
X142326996Y-122413248D01*
X142329107Y-122386423D01*
X142329107Y-122386416D01*
X142329300Y-122383967D01*
X142329299Y-121506834D01*
X142326491Y-121471142D01*
X142317747Y-121441042D01*
X142284330Y-121326021D01*
X142284329Y-121326019D01*
X142282118Y-121318408D01*
X142211689Y-121199319D01*
X142205194Y-121188336D01*
X142205192Y-121188333D01*
X142201156Y-121181509D01*
X142088691Y-121069044D01*
X142081867Y-121065008D01*
X142081864Y-121065006D01*
X141958618Y-120992119D01*
X141958619Y-120992119D01*
X141951792Y-120988082D01*
X141944181Y-120985871D01*
X141944179Y-120985870D01*
X141894939Y-120971565D01*
X141799058Y-120943709D01*
X141792653Y-120943205D01*
X141792648Y-120943204D01*
X141765823Y-120941093D01*
X141765816Y-120941093D01*
X141763367Y-120940900D01*
X141731040Y-120940900D01*
X140207300Y-120940901D01*
X140139179Y-120920899D01*
X140092686Y-120867243D01*
X140081300Y-120814901D01*
X140081300Y-120535900D01*
X140101302Y-120467779D01*
X140154958Y-120421286D01*
X140207300Y-120409900D01*
X141730988Y-120409899D01*
X141763366Y-120409899D01*
X141785935Y-120408123D01*
X141792640Y-120407596D01*
X141792641Y-120407596D01*
X141799058Y-120407091D01*
X141805238Y-120405296D01*
X141805241Y-120405295D01*
X141944179Y-120364930D01*
X141944181Y-120364929D01*
X141951792Y-120362718D01*
X142025497Y-120319129D01*
X142081864Y-120285794D01*
X142081867Y-120285792D01*
X142088691Y-120281756D01*
X142201156Y-120169291D01*
X142205192Y-120162467D01*
X142205194Y-120162464D01*
X142278081Y-120039218D01*
X142278083Y-120039214D01*
X142282118Y-120032392D01*
X142326491Y-119879658D01*
X142326995Y-119873253D01*
X142326996Y-119873248D01*
X142329107Y-119846423D01*
X142329107Y-119846416D01*
X142329300Y-119843967D01*
X142329299Y-119223142D01*
X144867201Y-119223142D01*
X144867570Y-119229960D01*
X144872959Y-119279576D01*
X144876588Y-119294835D01*
X144920711Y-119412535D01*
X144929243Y-119428120D01*
X145003987Y-119527850D01*
X145016550Y-119540413D01*
X145116280Y-119615157D01*
X145131865Y-119623689D01*
X145249571Y-119667815D01*
X145264817Y-119671440D01*
X145314442Y-119676831D01*
X145321256Y-119677200D01*
X145549085Y-119677200D01*
X145564324Y-119672725D01*
X145565529Y-119671335D01*
X145567200Y-119663652D01*
X145567200Y-119659084D01*
X146075200Y-119659084D01*
X146079675Y-119674323D01*
X146081065Y-119675528D01*
X146088748Y-119677199D01*
X146321142Y-119677199D01*
X146327960Y-119676830D01*
X146377576Y-119671441D01*
X146392835Y-119667812D01*
X146510535Y-119623689D01*
X146526120Y-119615157D01*
X146625850Y-119540413D01*
X146638413Y-119527850D01*
X146713157Y-119428120D01*
X146721689Y-119412535D01*
X146765815Y-119294829D01*
X146769440Y-119279583D01*
X146774831Y-119229958D01*
X146775200Y-119223144D01*
X146775200Y-119207815D01*
X146770725Y-119192576D01*
X146769335Y-119191371D01*
X146761652Y-119189700D01*
X146093315Y-119189700D01*
X146078076Y-119194175D01*
X146076871Y-119195565D01*
X146075200Y-119203248D01*
X146075200Y-119659084D01*
X145567200Y-119659084D01*
X145567200Y-119207815D01*
X145562725Y-119192576D01*
X145561335Y-119191371D01*
X145553652Y-119189700D01*
X144885316Y-119189700D01*
X144870077Y-119194175D01*
X144868872Y-119195565D01*
X144867201Y-119203248D01*
X144867201Y-119223142D01*
X142329299Y-119223142D01*
X142329299Y-118966834D01*
X142328075Y-118951280D01*
X142342672Y-118881801D01*
X142364592Y-118852302D01*
X142553309Y-118663585D01*
X144867200Y-118663585D01*
X144871675Y-118678824D01*
X144873065Y-118680029D01*
X144880748Y-118681700D01*
X145549085Y-118681700D01*
X145564324Y-118677225D01*
X145565529Y-118675835D01*
X145567200Y-118668152D01*
X145567200Y-118663585D01*
X146075200Y-118663585D01*
X146079675Y-118678824D01*
X146081065Y-118680029D01*
X146088748Y-118681700D01*
X146757084Y-118681700D01*
X146772323Y-118677225D01*
X146773528Y-118675835D01*
X146775199Y-118668152D01*
X146775199Y-118648258D01*
X146774830Y-118641440D01*
X146769441Y-118591824D01*
X146765812Y-118576565D01*
X146721689Y-118458865D01*
X146713157Y-118443280D01*
X146638413Y-118343550D01*
X146625850Y-118330987D01*
X146526120Y-118256243D01*
X146510535Y-118247711D01*
X146392829Y-118203585D01*
X146377583Y-118199960D01*
X146327958Y-118194569D01*
X146321144Y-118194200D01*
X146093315Y-118194200D01*
X146078076Y-118198675D01*
X146076871Y-118200065D01*
X146075200Y-118207748D01*
X146075200Y-118663585D01*
X145567200Y-118663585D01*
X145567200Y-118212316D01*
X145562725Y-118197077D01*
X145561335Y-118195872D01*
X145553652Y-118194201D01*
X145321258Y-118194201D01*
X145314440Y-118194570D01*
X145264824Y-118199959D01*
X145249565Y-118203588D01*
X145131865Y-118247711D01*
X145116280Y-118256243D01*
X145016550Y-118330987D01*
X145003987Y-118343550D01*
X144929243Y-118443280D01*
X144920711Y-118458865D01*
X144876585Y-118576571D01*
X144872960Y-118591817D01*
X144867569Y-118641442D01*
X144867200Y-118648256D01*
X144867200Y-118663585D01*
X142553309Y-118663585D01*
X143780216Y-117436678D01*
X143798964Y-117421536D01*
X143800189Y-117420421D01*
X143808940Y-117414771D01*
X143815387Y-117406593D01*
X143815389Y-117406591D01*
X143829729Y-117388400D01*
X143833675Y-117383959D01*
X143833602Y-117383897D01*
X143836961Y-117379933D01*
X143840638Y-117376256D01*
X143851892Y-117360508D01*
X143855398Y-117355838D01*
X143887156Y-117315553D01*
X143890188Y-117306919D01*
X143895514Y-117299466D01*
X143910203Y-117250350D01*
X143912036Y-117244708D01*
X143926390Y-117203833D01*
X143926390Y-117203832D01*
X143929018Y-117196349D01*
X143929500Y-117190784D01*
X143929500Y-117188076D01*
X143929614Y-117185442D01*
X143929643Y-117185344D01*
X143929807Y-117185351D01*
X143929851Y-117184647D01*
X143931713Y-117178422D01*
X143929597Y-117124565D01*
X143929500Y-117119618D01*
X143929500Y-113749058D01*
X143949502Y-113680937D01*
X143966405Y-113659963D01*
X145826584Y-111799784D01*
X145888896Y-111765758D01*
X145959711Y-111770823D01*
G37*
%TD.AperFunction*%
%TA.AperFunction,Conductor*%
G36*
X155608737Y-117449502D02*
G01*
X155629711Y-117466405D01*
X156433595Y-118270289D01*
X156467621Y-118332601D01*
X156470500Y-118359384D01*
X156470500Y-119686680D01*
X156467951Y-119710628D01*
X156467872Y-119712293D01*
X156465680Y-119722476D01*
X156466904Y-119732817D01*
X156469627Y-119755823D01*
X156469977Y-119761754D01*
X156470072Y-119761746D01*
X156470500Y-119766924D01*
X156470500Y-119772124D01*
X156471354Y-119777253D01*
X156471354Y-119777256D01*
X156473669Y-119791165D01*
X156474506Y-119797043D01*
X156480530Y-119847941D01*
X156484493Y-119856193D01*
X156485996Y-119865226D01*
X156490943Y-119874395D01*
X156490944Y-119874397D01*
X156510334Y-119910332D01*
X156513031Y-119915625D01*
X156531785Y-119954682D01*
X156531788Y-119954686D01*
X156535219Y-119961832D01*
X156538814Y-119966108D01*
X156540737Y-119968031D01*
X156542509Y-119969963D01*
X156542552Y-119970042D01*
X156542428Y-119970155D01*
X156542904Y-119970695D01*
X156545990Y-119976414D01*
X156553635Y-119983481D01*
X156585586Y-120013016D01*
X156589152Y-120016446D01*
X157965007Y-121392301D01*
X157999033Y-121454613D01*
X158001524Y-121491282D01*
X158000300Y-121506833D01*
X158000301Y-122383966D01*
X158003109Y-122419658D01*
X158004904Y-122425835D01*
X158004905Y-122425841D01*
X158045270Y-122564779D01*
X158047482Y-122572392D01*
X158051519Y-122579218D01*
X158124406Y-122702464D01*
X158124408Y-122702467D01*
X158128444Y-122709291D01*
X158240909Y-122821756D01*
X158247733Y-122825792D01*
X158247736Y-122825794D01*
X158320586Y-122868877D01*
X158377808Y-122902718D01*
X158385419Y-122904929D01*
X158385421Y-122904930D01*
X158428764Y-122917522D01*
X158530542Y-122947091D01*
X158536947Y-122947595D01*
X158536952Y-122947596D01*
X158563777Y-122949707D01*
X158563784Y-122949707D01*
X158566233Y-122949900D01*
X158598560Y-122949900D01*
X160122300Y-122949899D01*
X160190421Y-122969901D01*
X160236914Y-123023557D01*
X160248300Y-123075899D01*
X160248300Y-123354900D01*
X160228298Y-123423021D01*
X160174642Y-123469514D01*
X160122300Y-123480900D01*
X158598612Y-123480901D01*
X158566234Y-123480901D01*
X158543665Y-123482677D01*
X158536960Y-123483204D01*
X158536959Y-123483204D01*
X158530542Y-123483709D01*
X158524362Y-123485504D01*
X158524359Y-123485505D01*
X158385421Y-123525870D01*
X158385419Y-123525871D01*
X158377808Y-123528082D01*
X158355688Y-123541164D01*
X158247736Y-123605006D01*
X158247733Y-123605008D01*
X158240909Y-123609044D01*
X158128444Y-123721509D01*
X158124408Y-123728333D01*
X158124406Y-123728336D01*
X158072020Y-123816916D01*
X158047482Y-123858408D01*
X158003109Y-124011142D01*
X158002605Y-124017547D01*
X158002604Y-124017552D01*
X158000805Y-124040413D01*
X158000300Y-124046833D01*
X158000301Y-124923966D01*
X158003109Y-124959658D01*
X158004906Y-124965842D01*
X158004906Y-124965844D01*
X158018240Y-125011741D01*
X158018037Y-125082737D01*
X157979483Y-125142353D01*
X157914818Y-125171661D01*
X157844573Y-125161356D01*
X157808148Y-125135988D01*
X156925149Y-124252989D01*
X156915294Y-124241900D01*
X156904749Y-124228524D01*
X156894041Y-124214941D01*
X156869162Y-124197746D01*
X156845306Y-124181258D01*
X156842113Y-124178976D01*
X156794476Y-124143791D01*
X156787603Y-124141377D01*
X156781611Y-124137236D01*
X156725122Y-124119371D01*
X156721401Y-124118129D01*
X156665526Y-124098507D01*
X156658322Y-124098224D01*
X156658151Y-124098191D01*
X156651303Y-124096025D01*
X156644632Y-124095500D01*
X156591462Y-124095500D01*
X156586516Y-124095403D01*
X156585624Y-124095368D01*
X156528963Y-124093142D01*
X156521808Y-124095039D01*
X156513433Y-124095500D01*
X155986408Y-124095500D01*
X155918287Y-124075498D01*
X155871794Y-124021842D01*
X155861690Y-123951568D01*
X155891184Y-123886988D01*
X155950910Y-123848604D01*
X155958278Y-123846680D01*
X156065929Y-123822025D01*
X156065933Y-123822024D01*
X156073332Y-123820329D01*
X156161133Y-123776170D01*
X156208072Y-123752563D01*
X156208075Y-123752561D01*
X156214855Y-123749151D01*
X156220626Y-123744222D01*
X156220629Y-123744220D01*
X156329536Y-123651204D01*
X156329536Y-123651203D01*
X156335314Y-123646269D01*
X156427755Y-123517624D01*
X156486842Y-123370641D01*
X156509162Y-123213807D01*
X156509307Y-123200000D01*
X156490276Y-123042733D01*
X156434280Y-122894546D01*
X156425064Y-122881137D01*
X156348855Y-122770251D01*
X156348854Y-122770249D01*
X156344553Y-122763992D01*
X156226275Y-122658611D01*
X156218889Y-122654700D01*
X156092988Y-122588039D01*
X156092989Y-122588039D01*
X156086274Y-122584484D01*
X155932633Y-122545892D01*
X155925034Y-122545852D01*
X155925033Y-122545852D01*
X155859181Y-122545507D01*
X155774221Y-122545062D01*
X155766841Y-122546834D01*
X155766839Y-122546834D01*
X155683650Y-122566806D01*
X155612742Y-122563259D01*
X155555008Y-122521939D01*
X155528778Y-122455965D01*
X155532743Y-122420298D01*
X155531254Y-122420062D01*
X155537362Y-122381498D01*
X155545700Y-122328853D01*
X155545699Y-121997548D01*
X155537440Y-121945400D01*
X155532806Y-121916136D01*
X155532805Y-121916134D01*
X155531254Y-121906338D01*
X155522344Y-121888850D01*
X155479740Y-121805236D01*
X155475240Y-121796404D01*
X155441311Y-121762475D01*
X155407285Y-121700163D01*
X155412350Y-121629348D01*
X155454897Y-121572512D01*
X155516798Y-121548117D01*
X155517311Y-121548061D01*
X155535542Y-121546081D01*
X155543020Y-121543278D01*
X155660774Y-121499135D01*
X155669182Y-121495983D01*
X155724382Y-121454613D01*
X155776208Y-121415771D01*
X155783389Y-121410389D01*
X155847760Y-121324500D01*
X155863599Y-121303366D01*
X155863599Y-121303365D01*
X155868983Y-121296182D01*
X155905093Y-121199857D01*
X155916308Y-121169940D01*
X155916309Y-121169938D01*
X155919081Y-121162542D01*
X155925700Y-121101615D01*
X155925699Y-120519786D01*
X155919081Y-120458858D01*
X155868983Y-120325218D01*
X155783389Y-120211011D01*
X155727723Y-120169291D01*
X155676366Y-120130801D01*
X155676365Y-120130801D01*
X155669182Y-120125417D01*
X155542945Y-120078094D01*
X155542940Y-120078092D01*
X155542938Y-120078091D01*
X155535542Y-120075319D01*
X155474615Y-120068700D01*
X154971274Y-120068700D01*
X154467786Y-120068701D01*
X154464392Y-120069070D01*
X154464386Y-120069070D01*
X154414717Y-120074465D01*
X154414714Y-120074466D01*
X154406858Y-120075319D01*
X154273218Y-120125417D01*
X154266035Y-120130801D01*
X154266034Y-120130801D01*
X154214677Y-120169291D01*
X154159011Y-120211011D01*
X154073417Y-120325218D01*
X154070265Y-120333626D01*
X154037404Y-120421286D01*
X154023319Y-120458858D01*
X154016700Y-120519785D01*
X154016701Y-121101614D01*
X154023319Y-121162542D01*
X154026094Y-121169944D01*
X154026094Y-121169945D01*
X154032164Y-121186137D01*
X154073417Y-121296182D01*
X154078801Y-121303365D01*
X154078801Y-121303366D01*
X154094640Y-121324500D01*
X154159011Y-121410389D01*
X154166192Y-121415771D01*
X154218019Y-121454613D01*
X154273218Y-121495983D01*
X154281626Y-121499135D01*
X154399460Y-121543308D01*
X154399462Y-121543309D01*
X154406858Y-121546081D01*
X154425600Y-121548117D01*
X154491163Y-121575358D01*
X154531590Y-121633720D01*
X154534046Y-121704675D01*
X154501089Y-121762475D01*
X154467160Y-121796404D01*
X154411146Y-121906338D01*
X154396700Y-121997547D01*
X154396701Y-122328852D01*
X154397476Y-122333743D01*
X154397476Y-122333746D01*
X154405820Y-122386429D01*
X154411146Y-122420062D01*
X154467160Y-122529996D01*
X154521269Y-122584105D01*
X154555295Y-122646417D01*
X154550230Y-122717232D01*
X154521269Y-122762295D01*
X154467160Y-122816404D01*
X154411146Y-122926338D01*
X154409596Y-122936127D01*
X154409595Y-122936129D01*
X154408143Y-122945296D01*
X154396700Y-123017547D01*
X154396701Y-123348852D01*
X154397476Y-123353745D01*
X154397476Y-123353746D01*
X154406028Y-123407743D01*
X154411146Y-123440062D01*
X154415649Y-123448899D01*
X154415649Y-123448900D01*
X154435197Y-123487265D01*
X154467160Y-123549996D01*
X154554404Y-123637240D01*
X154664338Y-123693254D01*
X154674127Y-123694804D01*
X154674129Y-123694805D01*
X154700621Y-123699001D01*
X154755547Y-123707700D01*
X154971156Y-123707700D01*
X155186852Y-123707699D01*
X155193912Y-123706581D01*
X155254181Y-123697036D01*
X155278062Y-123693254D01*
X155291165Y-123686578D01*
X155360941Y-123673475D01*
X155426725Y-123700177D01*
X155433164Y-123705652D01*
X155443111Y-123714703D01*
X155468076Y-123737419D01*
X155607293Y-123813008D01*
X155690744Y-123834901D01*
X155739241Y-123847624D01*
X155800056Y-123884258D01*
X155831411Y-123947955D01*
X155823352Y-124018493D01*
X155778436Y-124073476D01*
X155707267Y-124095500D01*
X154340450Y-124095500D01*
X154272329Y-124075498D01*
X154251355Y-124058595D01*
X153612605Y-123419845D01*
X153578579Y-123357533D01*
X153575700Y-123330750D01*
X153575700Y-122814146D01*
X153595702Y-122746025D01*
X153596303Y-122745146D01*
X153602526Y-122738923D01*
X153660698Y-122624755D01*
X153675700Y-122530034D01*
X153675700Y-121291366D01*
X153660698Y-121196645D01*
X153602526Y-121082477D01*
X153511923Y-120991874D01*
X153397755Y-120933702D01*
X153303034Y-120918700D01*
X152939366Y-120918700D01*
X152844645Y-120933702D01*
X152844180Y-120930765D01*
X152789131Y-120932333D01*
X152728336Y-120895665D01*
X152697017Y-120831950D01*
X152704313Y-120768406D01*
X152703132Y-120768022D01*
X152705027Y-120762188D01*
X152705116Y-120761417D01*
X152705653Y-120760263D01*
X152706197Y-120758589D01*
X152710698Y-120749755D01*
X152725700Y-120655034D01*
X152725700Y-119416366D01*
X152710698Y-119321645D01*
X152660508Y-119223142D01*
X154017201Y-119223142D01*
X154017570Y-119229960D01*
X154022959Y-119279576D01*
X154026588Y-119294835D01*
X154070711Y-119412535D01*
X154079243Y-119428120D01*
X154153987Y-119527850D01*
X154166550Y-119540413D01*
X154266280Y-119615157D01*
X154281865Y-119623689D01*
X154399571Y-119667815D01*
X154414817Y-119671440D01*
X154464442Y-119676831D01*
X154471256Y-119677200D01*
X154699085Y-119677200D01*
X154714324Y-119672725D01*
X154715529Y-119671335D01*
X154717200Y-119663652D01*
X154717200Y-119659084D01*
X155225200Y-119659084D01*
X155229675Y-119674323D01*
X155231065Y-119675528D01*
X155238748Y-119677199D01*
X155471142Y-119677199D01*
X155477960Y-119676830D01*
X155527576Y-119671441D01*
X155542835Y-119667812D01*
X155660535Y-119623689D01*
X155676120Y-119615157D01*
X155775850Y-119540413D01*
X155788413Y-119527850D01*
X155863157Y-119428120D01*
X155871689Y-119412535D01*
X155915815Y-119294829D01*
X155919440Y-119279583D01*
X155924831Y-119229958D01*
X155925200Y-119223144D01*
X155925200Y-119207815D01*
X155920725Y-119192576D01*
X155919335Y-119191371D01*
X155911652Y-119189700D01*
X155243315Y-119189700D01*
X155228076Y-119194175D01*
X155226871Y-119195565D01*
X155225200Y-119203248D01*
X155225200Y-119659084D01*
X154717200Y-119659084D01*
X154717200Y-119207815D01*
X154712725Y-119192576D01*
X154711335Y-119191371D01*
X154703652Y-119189700D01*
X154035316Y-119189700D01*
X154020077Y-119194175D01*
X154018872Y-119195565D01*
X154017201Y-119203248D01*
X154017201Y-119223142D01*
X152660508Y-119223142D01*
X152652526Y-119207477D01*
X152648878Y-119203829D01*
X152625906Y-119139450D01*
X152625700Y-119132254D01*
X152625700Y-118944588D01*
X152645702Y-118876467D01*
X152699358Y-118829974D01*
X152769632Y-118819870D01*
X152808903Y-118832321D01*
X152879093Y-118868085D01*
X152886062Y-118870349D01*
X152892989Y-118869453D01*
X152897062Y-118855940D01*
X153405200Y-118855940D01*
X153409087Y-118869176D01*
X153416734Y-118870220D01*
X153423307Y-118868085D01*
X153516842Y-118820426D01*
X153532685Y-118808915D01*
X153606915Y-118734685D01*
X153618426Y-118718842D01*
X153646581Y-118663585D01*
X154017200Y-118663585D01*
X154021675Y-118678824D01*
X154023065Y-118680029D01*
X154030748Y-118681700D01*
X154699085Y-118681700D01*
X154714324Y-118677225D01*
X154715529Y-118675835D01*
X154717200Y-118668152D01*
X154717200Y-118663585D01*
X155225200Y-118663585D01*
X155229675Y-118678824D01*
X155231065Y-118680029D01*
X155238748Y-118681700D01*
X155907084Y-118681700D01*
X155922323Y-118677225D01*
X155923528Y-118675835D01*
X155925199Y-118668152D01*
X155925199Y-118648258D01*
X155924830Y-118641440D01*
X155919441Y-118591824D01*
X155915812Y-118576565D01*
X155871689Y-118458865D01*
X155863157Y-118443280D01*
X155788413Y-118343550D01*
X155775850Y-118330987D01*
X155676120Y-118256243D01*
X155660535Y-118247711D01*
X155542829Y-118203585D01*
X155527583Y-118199960D01*
X155477958Y-118194569D01*
X155471144Y-118194200D01*
X155243315Y-118194200D01*
X155228076Y-118198675D01*
X155226871Y-118200065D01*
X155225200Y-118207748D01*
X155225200Y-118663585D01*
X154717200Y-118663585D01*
X154717200Y-118212316D01*
X154712725Y-118197077D01*
X154711335Y-118195872D01*
X154703652Y-118194201D01*
X154471258Y-118194201D01*
X154464440Y-118194570D01*
X154414824Y-118199959D01*
X154399565Y-118203588D01*
X154281865Y-118247711D01*
X154266280Y-118256243D01*
X154166550Y-118330987D01*
X154153987Y-118343550D01*
X154079243Y-118443280D01*
X154070711Y-118458865D01*
X154026585Y-118576571D01*
X154022960Y-118591817D01*
X154017569Y-118641442D01*
X154017200Y-118648256D01*
X154017200Y-118663585D01*
X153646581Y-118663585D01*
X153666086Y-118625303D01*
X153672138Y-118606678D01*
X153673973Y-118595092D01*
X153672205Y-118581411D01*
X153658233Y-118577200D01*
X153423315Y-118577200D01*
X153408076Y-118581675D01*
X153406871Y-118583065D01*
X153405200Y-118590748D01*
X153405200Y-118855940D01*
X152897062Y-118855940D01*
X152897200Y-118855481D01*
X152897200Y-118051085D01*
X153405200Y-118051085D01*
X153409675Y-118066324D01*
X153411065Y-118067529D01*
X153418748Y-118069200D01*
X153658691Y-118069200D01*
X153671927Y-118065313D01*
X153673901Y-118050855D01*
X153672138Y-118039727D01*
X153666085Y-118021093D01*
X153618426Y-117927558D01*
X153606915Y-117911715D01*
X153532685Y-117837485D01*
X153516842Y-117825974D01*
X153423307Y-117778315D01*
X153416338Y-117776051D01*
X153409411Y-117776947D01*
X153405200Y-117790919D01*
X153405200Y-118051085D01*
X152897200Y-118051085D01*
X152897200Y-117790460D01*
X152893313Y-117777224D01*
X152885666Y-117776180D01*
X152879093Y-117778315D01*
X152785562Y-117825972D01*
X152770764Y-117836724D01*
X152703897Y-117860584D01*
X152634745Y-117844506D01*
X152585263Y-117793594D01*
X152570700Y-117734790D01*
X152570700Y-117555500D01*
X152590702Y-117487379D01*
X152644358Y-117440886D01*
X152696700Y-117429500D01*
X155540616Y-117429500D01*
X155608737Y-117449502D01*
G37*
%TD.AperFunction*%
%TA.AperFunction,Conductor*%
G36*
X156545202Y-110890328D02*
G01*
X156599515Y-110936051D01*
X156620500Y-111005677D01*
X156620500Y-114756680D01*
X156617951Y-114780628D01*
X156617872Y-114782293D01*
X156615680Y-114792476D01*
X156616904Y-114802817D01*
X156619627Y-114825823D01*
X156619977Y-114831754D01*
X156620072Y-114831746D01*
X156620500Y-114836924D01*
X156620500Y-114842124D01*
X156621354Y-114847253D01*
X156621354Y-114847256D01*
X156623669Y-114861165D01*
X156624506Y-114867043D01*
X156630530Y-114917941D01*
X156634493Y-114926193D01*
X156635996Y-114935226D01*
X156640943Y-114944395D01*
X156640944Y-114944397D01*
X156660334Y-114980332D01*
X156663031Y-114985625D01*
X156681785Y-115024682D01*
X156681788Y-115024686D01*
X156685219Y-115031832D01*
X156688814Y-115036108D01*
X156690737Y-115038031D01*
X156692509Y-115039963D01*
X156692552Y-115040042D01*
X156692428Y-115040155D01*
X156692904Y-115040695D01*
X156695990Y-115046414D01*
X156703635Y-115053481D01*
X156735586Y-115083016D01*
X156739152Y-115086446D01*
X157965007Y-116312301D01*
X157999033Y-116374613D01*
X158001524Y-116411281D01*
X158000300Y-116426833D01*
X158000301Y-117303966D01*
X158003109Y-117339658D01*
X158004904Y-117345835D01*
X158004905Y-117345841D01*
X158032518Y-117440886D01*
X158047482Y-117492392D01*
X158051517Y-117499214D01*
X158051519Y-117499218D01*
X158124406Y-117622464D01*
X158124408Y-117622467D01*
X158128444Y-117629291D01*
X158240909Y-117741756D01*
X158247733Y-117745792D01*
X158247736Y-117745794D01*
X158303707Y-117778895D01*
X158377808Y-117822718D01*
X158385419Y-117824929D01*
X158385421Y-117824930D01*
X158389008Y-117825972D01*
X158530542Y-117867091D01*
X158536947Y-117867595D01*
X158536952Y-117867596D01*
X158563777Y-117869707D01*
X158563784Y-117869707D01*
X158566233Y-117869900D01*
X158598560Y-117869900D01*
X160122300Y-117869899D01*
X160190421Y-117889901D01*
X160236914Y-117943557D01*
X160248300Y-117995899D01*
X160248300Y-118274900D01*
X160228298Y-118343021D01*
X160174642Y-118389514D01*
X160122300Y-118400900D01*
X158598612Y-118400901D01*
X158566234Y-118400901D01*
X158543665Y-118402677D01*
X158536960Y-118403204D01*
X158536959Y-118403204D01*
X158530542Y-118403709D01*
X158524362Y-118405504D01*
X158524359Y-118405505D01*
X158385421Y-118445870D01*
X158385419Y-118445871D01*
X158377808Y-118448082D01*
X158370981Y-118452119D01*
X158370982Y-118452119D01*
X158247736Y-118525006D01*
X158247733Y-118525008D01*
X158240909Y-118529044D01*
X158128444Y-118641509D01*
X158124408Y-118648333D01*
X158124406Y-118648336D01*
X158082709Y-118718842D01*
X158047482Y-118778408D01*
X158003109Y-118931142D01*
X158002605Y-118937547D01*
X158002604Y-118937552D01*
X158000493Y-118964376D01*
X158000300Y-118966833D01*
X158000301Y-119843966D01*
X158003109Y-119879658D01*
X158004904Y-119885835D01*
X158004905Y-119885841D01*
X158033272Y-119983481D01*
X158047482Y-120032392D01*
X158073846Y-120076970D01*
X158091305Y-120145785D01*
X158068789Y-120213116D01*
X158013444Y-120257585D01*
X157942844Y-120265074D01*
X157876297Y-120230203D01*
X157266405Y-119620311D01*
X157232379Y-119557999D01*
X157229500Y-119531216D01*
X157229500Y-118203920D01*
X157232049Y-118179972D01*
X157232128Y-118178307D01*
X157234320Y-118168124D01*
X157230373Y-118134777D01*
X157230023Y-118128846D01*
X157229928Y-118128854D01*
X157229500Y-118123676D01*
X157229500Y-118118476D01*
X157228646Y-118113344D01*
X157226331Y-118099435D01*
X157225494Y-118093557D01*
X157220694Y-118052999D01*
X157220694Y-118052998D01*
X157219470Y-118042659D01*
X157215507Y-118034407D01*
X157214004Y-118025374D01*
X157189665Y-117980266D01*
X157186969Y-117974975D01*
X157168215Y-117935918D01*
X157168212Y-117935914D01*
X157164781Y-117928768D01*
X157161186Y-117924492D01*
X157159263Y-117922569D01*
X157157491Y-117920637D01*
X157157448Y-117920558D01*
X157157572Y-117920445D01*
X157157096Y-117919905D01*
X157154010Y-117914186D01*
X157114413Y-117877583D01*
X157110848Y-117874154D01*
X156056478Y-116819784D01*
X156041336Y-116801036D01*
X156040221Y-116799811D01*
X156034571Y-116791060D01*
X156026393Y-116784613D01*
X156026391Y-116784611D01*
X156008200Y-116770271D01*
X156003759Y-116766325D01*
X156003697Y-116766398D01*
X155999733Y-116763039D01*
X155996056Y-116759362D01*
X155980308Y-116748108D01*
X155975638Y-116744602D01*
X155935353Y-116712844D01*
X155926719Y-116709812D01*
X155919266Y-116704486D01*
X155870150Y-116689797D01*
X155864508Y-116687964D01*
X155823633Y-116673610D01*
X155823632Y-116673610D01*
X155816149Y-116670982D01*
X155810584Y-116670500D01*
X155807876Y-116670500D01*
X155805242Y-116670386D01*
X155805144Y-116670357D01*
X155805151Y-116670193D01*
X155804447Y-116670149D01*
X155798222Y-116668287D01*
X155744365Y-116670403D01*
X155739418Y-116670500D01*
X154403201Y-116670500D01*
X154335080Y-116650498D01*
X154288587Y-116596842D01*
X154278483Y-116526568D01*
X154282746Y-116510715D01*
X154282042Y-116510526D01*
X154284006Y-116503195D01*
X154286842Y-116496141D01*
X154301785Y-116391142D01*
X154308581Y-116343391D01*
X154308581Y-116343388D01*
X154309162Y-116339307D01*
X154309307Y-116325500D01*
X154306282Y-116300498D01*
X154297148Y-116225025D01*
X154290276Y-116168233D01*
X154234280Y-116020046D01*
X154192752Y-115959622D01*
X154148855Y-115895751D01*
X154148854Y-115895749D01*
X154144553Y-115889492D01*
X154135176Y-115881137D01*
X154047499Y-115803021D01*
X154026275Y-115784111D01*
X154018889Y-115780200D01*
X153933332Y-115734900D01*
X153912343Y-115723787D01*
X153861500Y-115674235D01*
X153845518Y-115605060D01*
X153869472Y-115538226D01*
X153882207Y-115523338D01*
X153883168Y-115522377D01*
X153893484Y-115515484D01*
X153949734Y-115431301D01*
X153964500Y-115357067D01*
X153964500Y-115350828D01*
X154256001Y-115350828D01*
X154257209Y-115363088D01*
X154268315Y-115418931D01*
X154277633Y-115441427D01*
X154319983Y-115504808D01*
X154337192Y-115522017D01*
X154400575Y-115564368D01*
X154423066Y-115573684D01*
X154478915Y-115584793D01*
X154491170Y-115586000D01*
X154937885Y-115586000D01*
X154953124Y-115581525D01*
X154954329Y-115580135D01*
X154956000Y-115572452D01*
X154956000Y-115567884D01*
X155464000Y-115567884D01*
X155468475Y-115583123D01*
X155469865Y-115584328D01*
X155477548Y-115585999D01*
X155928828Y-115585999D01*
X155941088Y-115584791D01*
X155996931Y-115573685D01*
X156019427Y-115564367D01*
X156082808Y-115522017D01*
X156100017Y-115504808D01*
X156142368Y-115441425D01*
X156151684Y-115418934D01*
X156162793Y-115363085D01*
X156164000Y-115350830D01*
X156164000Y-115004115D01*
X156159525Y-114988876D01*
X156158135Y-114987671D01*
X156150452Y-114986000D01*
X155482115Y-114986000D01*
X155466876Y-114990475D01*
X155465671Y-114991865D01*
X155464000Y-114999548D01*
X155464000Y-115567884D01*
X154956000Y-115567884D01*
X154956000Y-115004115D01*
X154951525Y-114988876D01*
X154950135Y-114987671D01*
X154942452Y-114986000D01*
X154274116Y-114986000D01*
X154258877Y-114990475D01*
X154257672Y-114991865D01*
X154256001Y-114999548D01*
X154256001Y-115350828D01*
X153964500Y-115350828D01*
X153964499Y-114616385D01*
X153984501Y-114548264D01*
X154001404Y-114527290D01*
X154066672Y-114462022D01*
X154128984Y-114427996D01*
X154199799Y-114433061D01*
X154238279Y-114455892D01*
X154261865Y-114476329D01*
X154269548Y-114478000D01*
X156145884Y-114478000D01*
X156161123Y-114473525D01*
X156162328Y-114472135D01*
X156163999Y-114464452D01*
X156163999Y-114113172D01*
X156162791Y-114100912D01*
X156151685Y-114045069D01*
X156142367Y-114022573D01*
X156095513Y-113952451D01*
X156074298Y-113884698D01*
X156095512Y-113812449D01*
X156149734Y-113731301D01*
X156164500Y-113657067D01*
X156164499Y-112406934D01*
X156149734Y-112332699D01*
X156112962Y-112277666D01*
X156091746Y-112209915D01*
X156110528Y-112141448D01*
X156128631Y-112118569D01*
X156185715Y-112061485D01*
X156197226Y-112045642D01*
X156244886Y-111952103D01*
X156250938Y-111933478D01*
X156252773Y-111921892D01*
X156251005Y-111908211D01*
X156237033Y-111904000D01*
X155602000Y-111904000D01*
X155533879Y-111883998D01*
X155487386Y-111830342D01*
X155476000Y-111778000D01*
X155476000Y-111522000D01*
X155496002Y-111453879D01*
X155549658Y-111407386D01*
X155602000Y-111396000D01*
X156237491Y-111396000D01*
X156250727Y-111392113D01*
X156252701Y-111377655D01*
X156250938Y-111366527D01*
X156244885Y-111347893D01*
X156197226Y-111254358D01*
X156185715Y-111238515D01*
X156111485Y-111164285D01*
X156095642Y-111152774D01*
X156036750Y-111122767D01*
X155985135Y-111074019D01*
X155968069Y-111005104D01*
X155990970Y-110937902D01*
X156046567Y-110893750D01*
X156093953Y-110884500D01*
X156416006Y-110884499D01*
X156454136Y-110884499D01*
X156459028Y-110883724D01*
X156459031Y-110883724D01*
X156474791Y-110881228D01*
X156545202Y-110890328D01*
G37*
%TD.AperFunction*%
%TA.AperFunction,Conductor*%
G36*
X147304033Y-113302045D02*
G01*
X147360869Y-113344592D01*
X147385680Y-113411112D01*
X147386001Y-113420101D01*
X147386001Y-113446051D01*
X147386776Y-113455900D01*
X147399061Y-113533472D01*
X147405116Y-113552108D01*
X147452774Y-113645642D01*
X147464285Y-113661485D01*
X147480533Y-113677733D01*
X147514559Y-113740045D01*
X147509494Y-113810860D01*
X147480532Y-113855925D01*
X147476838Y-113859619D01*
X147466516Y-113866516D01*
X147459621Y-113876835D01*
X147459620Y-113876836D01*
X147451287Y-113889307D01*
X147410266Y-113950699D01*
X147395500Y-114024933D01*
X147395501Y-115875066D01*
X147399615Y-115895751D01*
X147406370Y-115929711D01*
X147410266Y-115949301D01*
X147466516Y-116033484D01*
X147476832Y-116040377D01*
X147550699Y-116089734D01*
X147548735Y-116092673D01*
X147589032Y-116130157D01*
X147606621Y-116198940D01*
X147584230Y-116266314D01*
X147528970Y-116310887D01*
X147480699Y-116320500D01*
X146959386Y-116320500D01*
X146891265Y-116300498D01*
X146870291Y-116283596D01*
X146516405Y-115929711D01*
X146482380Y-115867398D01*
X146479500Y-115840615D01*
X146479500Y-114074602D01*
X146499502Y-114006481D01*
X146516405Y-113985507D01*
X147170906Y-113331006D01*
X147233218Y-113296980D01*
X147304033Y-113302045D01*
G37*
%TD.AperFunction*%
%TA.AperFunction,Conductor*%
G36*
X152019588Y-111396000D02*
G01*
X152224443Y-111396000D01*
X152232678Y-111396877D01*
X152232689Y-111396637D01*
X152243090Y-111397128D01*
X152253272Y-111399320D01*
X152263613Y-111398096D01*
X152273946Y-111396873D01*
X152288756Y-111396000D01*
X152668000Y-111396000D01*
X152736121Y-111416002D01*
X152782614Y-111469658D01*
X152794000Y-111522000D01*
X152794000Y-111778000D01*
X152773998Y-111846121D01*
X152720342Y-111892614D01*
X152668000Y-111904000D01*
X152032509Y-111904000D01*
X152019273Y-111907887D01*
X152017299Y-111922345D01*
X152019062Y-111933473D01*
X152025115Y-111952107D01*
X152072774Y-112045642D01*
X152084285Y-112061485D01*
X152111893Y-112089093D01*
X152145919Y-112151405D01*
X152140854Y-112222220D01*
X152124661Y-112247396D01*
X152126876Y-112248876D01*
X152077632Y-112322575D01*
X152068316Y-112345066D01*
X152057207Y-112400915D01*
X152056000Y-112413170D01*
X152056000Y-112759885D01*
X152060475Y-112775124D01*
X152061865Y-112776329D01*
X152069548Y-112778000D01*
X153138000Y-112778000D01*
X153206121Y-112798002D01*
X153252614Y-112851658D01*
X153264000Y-112904000D01*
X153264000Y-113160000D01*
X153243998Y-113228121D01*
X153190342Y-113274614D01*
X153138000Y-113286000D01*
X152074116Y-113286000D01*
X152058877Y-113290475D01*
X152057672Y-113291865D01*
X152056001Y-113299548D01*
X152056001Y-113650828D01*
X152057209Y-113663088D01*
X152068315Y-113718931D01*
X152077633Y-113741427D01*
X152124487Y-113811549D01*
X152145702Y-113879302D01*
X152124488Y-113951551D01*
X152070266Y-114032699D01*
X152055500Y-114106933D01*
X152055500Y-114113120D01*
X152055501Y-115319217D01*
X152035499Y-115387338D01*
X151981843Y-115433831D01*
X151911569Y-115443935D01*
X151893447Y-115439948D01*
X151892967Y-115439804D01*
X151887300Y-115437964D01*
X151846425Y-115423610D01*
X151846424Y-115423610D01*
X151838941Y-115420982D01*
X151833376Y-115420500D01*
X151830668Y-115420500D01*
X151828034Y-115420386D01*
X151827936Y-115420357D01*
X151827943Y-115420193D01*
X151827239Y-115420149D01*
X151821014Y-115418287D01*
X151767157Y-115420403D01*
X151762210Y-115420500D01*
X151530500Y-115420500D01*
X151462379Y-115400498D01*
X151415886Y-115346842D01*
X151404500Y-115294500D01*
X151404499Y-114031123D01*
X151404499Y-114024934D01*
X151389734Y-113950699D01*
X151382734Y-113940222D01*
X151340377Y-113876832D01*
X151333484Y-113866516D01*
X151317634Y-113855925D01*
X151309595Y-113850553D01*
X151264069Y-113796075D01*
X151255223Y-113725632D01*
X151282847Y-113671657D01*
X151279887Y-113669506D01*
X151297226Y-113645642D01*
X151344886Y-113552103D01*
X151350938Y-113533478D01*
X151352773Y-113521892D01*
X151351005Y-113508211D01*
X151337033Y-113504000D01*
X150702000Y-113504000D01*
X150633879Y-113483998D01*
X150587386Y-113430342D01*
X150576000Y-113378000D01*
X150576000Y-112977885D01*
X151084000Y-112977885D01*
X151088475Y-112993124D01*
X151089865Y-112994329D01*
X151097548Y-112996000D01*
X151337491Y-112996000D01*
X151350727Y-112992113D01*
X151352701Y-112977655D01*
X151350938Y-112966527D01*
X151344885Y-112947893D01*
X151297226Y-112854358D01*
X151285715Y-112838515D01*
X151211485Y-112764285D01*
X151195642Y-112752774D01*
X151102107Y-112705115D01*
X151095138Y-112702851D01*
X151088211Y-112703747D01*
X151084000Y-112717719D01*
X151084000Y-112977885D01*
X150576000Y-112977885D01*
X150576000Y-112717260D01*
X150572113Y-112704024D01*
X150564466Y-112702980D01*
X150557893Y-112705115D01*
X150464362Y-112752772D01*
X150449564Y-112763524D01*
X150382697Y-112787384D01*
X150313545Y-112771306D01*
X150264063Y-112720394D01*
X150249500Y-112661590D01*
X150249500Y-112489384D01*
X150269502Y-112421263D01*
X150286405Y-112400289D01*
X151255289Y-111431405D01*
X151317601Y-111397379D01*
X151344384Y-111394500D01*
X152009419Y-111394500D01*
X152019588Y-111396000D01*
G37*
%TD.AperFunction*%
%TA.AperFunction,Conductor*%
G36*
X150970611Y-100395961D02*
G01*
X151027447Y-100438508D01*
X151052258Y-100505028D01*
X151044980Y-100557112D01*
X151030006Y-100598252D01*
X151000700Y-100644252D01*
X150938317Y-100706635D01*
X150931436Y-100719236D01*
X150936161Y-100725627D01*
X150943740Y-100729786D01*
X150970649Y-100739579D01*
X151027822Y-100781672D01*
X151045956Y-100814883D01*
X151059447Y-100851948D01*
X151088912Y-100890348D01*
X151249578Y-101051014D01*
X151287978Y-101080479D01*
X151297039Y-101083777D01*
X151297041Y-101083778D01*
X151324428Y-101093746D01*
X151381600Y-101135841D01*
X151399734Y-101169052D01*
X151399776Y-101169166D01*
X151413001Y-101205502D01*
X151442466Y-101243902D01*
X151603132Y-101404568D01*
X151641532Y-101434033D01*
X151650593Y-101437331D01*
X151677982Y-101447300D01*
X151735153Y-101489396D01*
X151753287Y-101522605D01*
X151763256Y-101549994D01*
X151766554Y-101559055D01*
X151796019Y-101597455D01*
X151956685Y-101758121D01*
X151995085Y-101787586D01*
X152004146Y-101790884D01*
X152031535Y-101800853D01*
X152088706Y-101842949D01*
X152106840Y-101876158D01*
X152120107Y-101912608D01*
X152149572Y-101951008D01*
X152310238Y-102111674D01*
X152348638Y-102141139D01*
X152357699Y-102144437D01*
X152357701Y-102144438D01*
X152385088Y-102154406D01*
X152442260Y-102196501D01*
X152460394Y-102229712D01*
X152467703Y-102249792D01*
X152473661Y-102266162D01*
X152503126Y-102304562D01*
X152663792Y-102465228D01*
X152702192Y-102494693D01*
X152711253Y-102497991D01*
X152738642Y-102507960D01*
X152795813Y-102550056D01*
X152813946Y-102583264D01*
X152822593Y-102607020D01*
X152827098Y-102677874D01*
X152792581Y-102739915D01*
X152761984Y-102762082D01*
X152679414Y-102804700D01*
X152560039Y-102908838D01*
X152468950Y-103038444D01*
X152460667Y-103059689D01*
X152415029Y-103176745D01*
X152411406Y-103186037D01*
X152411215Y-103187489D01*
X152376239Y-103246247D01*
X152312707Y-103277937D01*
X152242128Y-103270247D01*
X152186671Y-103225274D01*
X152148855Y-103170251D01*
X152148854Y-103170249D01*
X152144553Y-103163992D01*
X152026275Y-103058611D01*
X152018889Y-103054700D01*
X151892988Y-102988039D01*
X151892989Y-102988039D01*
X151886274Y-102984484D01*
X151732633Y-102945892D01*
X151725034Y-102945852D01*
X151725033Y-102945852D01*
X151659181Y-102945507D01*
X151574221Y-102945062D01*
X151566841Y-102946834D01*
X151566839Y-102946834D01*
X151427563Y-102980271D01*
X151427560Y-102980272D01*
X151420184Y-102982043D01*
X151279414Y-103054700D01*
X151160039Y-103158838D01*
X151068950Y-103288444D01*
X151011406Y-103436037D01*
X151010414Y-103443570D01*
X151010414Y-103443571D01*
X150997929Y-103538408D01*
X150990729Y-103593096D01*
X150998448Y-103663008D01*
X151004833Y-103720840D01*
X151008113Y-103750553D01*
X151010723Y-103757684D01*
X151010723Y-103757686D01*
X151019184Y-103780805D01*
X151062553Y-103899319D01*
X151150908Y-104030805D01*
X151156527Y-104035918D01*
X151156528Y-104035919D01*
X151257244Y-104127563D01*
X151268076Y-104137419D01*
X151407293Y-104213008D01*
X151560522Y-104253207D01*
X151627978Y-104254267D01*
X151696479Y-104255343D01*
X151764277Y-104276412D01*
X151809922Y-104330792D01*
X151820500Y-104381327D01*
X151820500Y-106077726D01*
X151817951Y-106101674D01*
X151817872Y-106103339D01*
X151815680Y-106113522D01*
X151816904Y-106123863D01*
X151819627Y-106146869D01*
X151819977Y-106152800D01*
X151820072Y-106152792D01*
X151820500Y-106157970D01*
X151820500Y-106163170D01*
X151821354Y-106168299D01*
X151821354Y-106168302D01*
X151823669Y-106182211D01*
X151824506Y-106188089D01*
X151828755Y-106223986D01*
X151830530Y-106238987D01*
X151834493Y-106247239D01*
X151835996Y-106256272D01*
X151840943Y-106265441D01*
X151840944Y-106265443D01*
X151860334Y-106301378D01*
X151863031Y-106306671D01*
X151881785Y-106345728D01*
X151881788Y-106345732D01*
X151885219Y-106352878D01*
X151888814Y-106357154D01*
X151890737Y-106359077D01*
X151892509Y-106361009D01*
X151892552Y-106361088D01*
X151892428Y-106361201D01*
X151892904Y-106361741D01*
X151895990Y-106367460D01*
X151903635Y-106374527D01*
X151935586Y-106404062D01*
X151939152Y-106407492D01*
X152226017Y-106694357D01*
X152260043Y-106756669D01*
X152254978Y-106827484D01*
X152226017Y-106872547D01*
X152149572Y-106948992D01*
X152120107Y-106987392D01*
X152116809Y-106996453D01*
X152106840Y-107023842D01*
X152064744Y-107081013D01*
X152031535Y-107099147D01*
X151995085Y-107112414D01*
X151956685Y-107141879D01*
X151796019Y-107302545D01*
X151766554Y-107340945D01*
X151763256Y-107350006D01*
X151753287Y-107377395D01*
X151711191Y-107434566D01*
X151677982Y-107452700D01*
X151641532Y-107465967D01*
X151603132Y-107495432D01*
X151442466Y-107656098D01*
X151413001Y-107694498D01*
X151409703Y-107703559D01*
X151409702Y-107703561D01*
X151399734Y-107730948D01*
X151357639Y-107788120D01*
X151324455Y-107806244D01*
X151323362Y-107806642D01*
X151252511Y-107811160D01*
X151190463Y-107776656D01*
X151176403Y-107759617D01*
X151148720Y-107719337D01*
X151148719Y-107719335D01*
X151144418Y-107713078D01*
X151135683Y-107705295D01*
X151084145Y-107659377D01*
X151026140Y-107607697D01*
X151018754Y-107603786D01*
X150892853Y-107537125D01*
X150892854Y-107537125D01*
X150886139Y-107533570D01*
X150732498Y-107494978D01*
X150724899Y-107494938D01*
X150724898Y-107494938D01*
X150659046Y-107494593D01*
X150574086Y-107494148D01*
X150566706Y-107495920D01*
X150566704Y-107495920D01*
X150427428Y-107529357D01*
X150427425Y-107529358D01*
X150420049Y-107531129D01*
X150279279Y-107603786D01*
X150159904Y-107707924D01*
X150068815Y-107837530D01*
X150058154Y-107864874D01*
X150021386Y-107959180D01*
X150011271Y-107985123D01*
X150010279Y-107992656D01*
X150010279Y-107992657D01*
X149994186Y-108114901D01*
X149990594Y-108142182D01*
X149997419Y-108203996D01*
X150006562Y-108286812D01*
X150007978Y-108299639D01*
X150010588Y-108306770D01*
X150010588Y-108306772D01*
X150055417Y-108429273D01*
X150062418Y-108448405D01*
X150066654Y-108454708D01*
X150066654Y-108454709D01*
X150123728Y-108539644D01*
X150136137Y-108578914D01*
X150167351Y-108594976D01*
X150193103Y-108618408D01*
X150267941Y-108686505D01*
X150274622Y-108690132D01*
X150276929Y-108691772D01*
X150320871Y-108747536D01*
X150327688Y-108818205D01*
X150322345Y-108837569D01*
X150312597Y-108864351D01*
X150312597Y-108980550D01*
X150352340Y-109089742D01*
X150381805Y-109128142D01*
X150651192Y-109397529D01*
X150685218Y-109459841D01*
X150680153Y-109530656D01*
X150651192Y-109575719D01*
X148768208Y-111458702D01*
X148705896Y-111492728D01*
X148635080Y-111487663D01*
X148578245Y-111445116D01*
X148553434Y-111378596D01*
X148553113Y-111369607D01*
X148553113Y-111305715D01*
X148544620Y-111279574D01*
X148517562Y-111196300D01*
X148514497Y-111186867D01*
X148459520Y-111111196D01*
X148363242Y-111014918D01*
X148329217Y-110952607D01*
X148328224Y-110930140D01*
X148326505Y-110930208D01*
X148324389Y-110876346D01*
X148324292Y-110871400D01*
X148324292Y-110768480D01*
X148344294Y-110700359D01*
X148361197Y-110679385D01*
X148856586Y-110183996D01*
X148902584Y-110154690D01*
X148917878Y-110149124D01*
X148956278Y-110119659D01*
X149947795Y-109128142D01*
X149977260Y-109089742D01*
X150017003Y-108980550D01*
X150017003Y-108864351D01*
X150000089Y-108817881D01*
X149980558Y-108764219D01*
X149980557Y-108764217D01*
X149977260Y-108755159D01*
X149971974Y-108748270D01*
X149965414Y-108718401D01*
X149938600Y-108706813D01*
X149930051Y-108699015D01*
X149787129Y-108556093D01*
X149748729Y-108526628D01*
X149711666Y-108513138D01*
X149654495Y-108471043D01*
X149636360Y-108437832D01*
X149626564Y-108410919D01*
X149622567Y-108403634D01*
X149615663Y-108398593D01*
X149603687Y-108405225D01*
X149541030Y-108467882D01*
X149495031Y-108497188D01*
X149441664Y-108516612D01*
X149370812Y-108521115D01*
X149308772Y-108486598D01*
X149275241Y-108424018D01*
X149280169Y-108355117D01*
X149299594Y-108301747D01*
X149328900Y-108255748D01*
X149391283Y-108193365D01*
X149398164Y-108180764D01*
X149393439Y-108174373D01*
X149385860Y-108170214D01*
X149358951Y-108160421D01*
X149301778Y-108118328D01*
X149283644Y-108085117D01*
X149270153Y-108048052D01*
X149240688Y-108009652D01*
X149080022Y-107848986D01*
X149041622Y-107819521D01*
X149032561Y-107816223D01*
X149032559Y-107816222D01*
X149005172Y-107806254D01*
X148948000Y-107764159D01*
X148929866Y-107730948D01*
X148919898Y-107703561D01*
X148919897Y-107703559D01*
X148916599Y-107694498D01*
X148887134Y-107656098D01*
X148726468Y-107495432D01*
X148688068Y-107465967D01*
X148651618Y-107452700D01*
X148594447Y-107410604D01*
X148576313Y-107377395D01*
X148566344Y-107350006D01*
X148563046Y-107340945D01*
X148533581Y-107302545D01*
X148372915Y-107141879D01*
X148334515Y-107112414D01*
X148298065Y-107099147D01*
X148240894Y-107057051D01*
X148222760Y-107023842D01*
X148218616Y-107012457D01*
X148214112Y-106941604D01*
X148248630Y-106879563D01*
X148308887Y-106846541D01*
X148415929Y-106822025D01*
X148415933Y-106822024D01*
X148423332Y-106820329D01*
X148525511Y-106768939D01*
X148558072Y-106752563D01*
X148558075Y-106752561D01*
X148564855Y-106749151D01*
X148570626Y-106744222D01*
X148570629Y-106744220D01*
X148679536Y-106651204D01*
X148679536Y-106651203D01*
X148685314Y-106646269D01*
X148777755Y-106517624D01*
X148793547Y-106478341D01*
X148837514Y-106422597D01*
X148904639Y-106399472D01*
X148973611Y-106416309D01*
X148999549Y-106436243D01*
X149293522Y-106730216D01*
X149308664Y-106748964D01*
X149309779Y-106750189D01*
X149315429Y-106758940D01*
X149323607Y-106765387D01*
X149323609Y-106765389D01*
X149341800Y-106779729D01*
X149346241Y-106783675D01*
X149346303Y-106783602D01*
X149350267Y-106786961D01*
X149353944Y-106790638D01*
X149369692Y-106801892D01*
X149374362Y-106805398D01*
X149414647Y-106837156D01*
X149423281Y-106840188D01*
X149430734Y-106845514D01*
X149479850Y-106860203D01*
X149485492Y-106862036D01*
X149526199Y-106876331D01*
X149533851Y-106879018D01*
X149539416Y-106879500D01*
X149542124Y-106879500D01*
X149544758Y-106879614D01*
X149544856Y-106879643D01*
X149544849Y-106879807D01*
X149545553Y-106879851D01*
X149551778Y-106881713D01*
X149605635Y-106879597D01*
X149610582Y-106879500D01*
X150446080Y-106879500D01*
X150470028Y-106882049D01*
X150471693Y-106882128D01*
X150481876Y-106884320D01*
X150492217Y-106883096D01*
X150515223Y-106880373D01*
X150521154Y-106880023D01*
X150521146Y-106879928D01*
X150526324Y-106879500D01*
X150531524Y-106879500D01*
X150536653Y-106878646D01*
X150536656Y-106878646D01*
X150550565Y-106876331D01*
X150556443Y-106875494D01*
X150597001Y-106870694D01*
X150597002Y-106870694D01*
X150607341Y-106869470D01*
X150615593Y-106865507D01*
X150624626Y-106864004D01*
X150633795Y-106859057D01*
X150633797Y-106859056D01*
X150669732Y-106839666D01*
X150675025Y-106836969D01*
X150714082Y-106818215D01*
X150714086Y-106818212D01*
X150721232Y-106814781D01*
X150725508Y-106811186D01*
X150727431Y-106809263D01*
X150729363Y-106807491D01*
X150729442Y-106807448D01*
X150729555Y-106807572D01*
X150730095Y-106807096D01*
X150735814Y-106804010D01*
X150772417Y-106764413D01*
X150775846Y-106760848D01*
X151180216Y-106356478D01*
X151198964Y-106341336D01*
X151200189Y-106340221D01*
X151208940Y-106334571D01*
X151215387Y-106326393D01*
X151215389Y-106326391D01*
X151229729Y-106308200D01*
X151233675Y-106303759D01*
X151233602Y-106303697D01*
X151236961Y-106299733D01*
X151240638Y-106296056D01*
X151251892Y-106280308D01*
X151255398Y-106275638D01*
X151287156Y-106235353D01*
X151290188Y-106226719D01*
X151295514Y-106219266D01*
X151310203Y-106170150D01*
X151312036Y-106164508D01*
X151326390Y-106123633D01*
X151326390Y-106123632D01*
X151329018Y-106116149D01*
X151329500Y-106110584D01*
X151329500Y-106107876D01*
X151329614Y-106105242D01*
X151329643Y-106105144D01*
X151329807Y-106105151D01*
X151329851Y-106104447D01*
X151331713Y-106098222D01*
X151329597Y-106044365D01*
X151329500Y-106039418D01*
X151329500Y-105003920D01*
X151332049Y-104979972D01*
X151332128Y-104978307D01*
X151334320Y-104968124D01*
X151330373Y-104934777D01*
X151330023Y-104928846D01*
X151329928Y-104928854D01*
X151329500Y-104923676D01*
X151329500Y-104918476D01*
X151327983Y-104909362D01*
X151326331Y-104899435D01*
X151325494Y-104893557D01*
X151320694Y-104852999D01*
X151320694Y-104852998D01*
X151319470Y-104842659D01*
X151315507Y-104834407D01*
X151314004Y-104825374D01*
X151294969Y-104790095D01*
X151289666Y-104780268D01*
X151286969Y-104774975D01*
X151268215Y-104735918D01*
X151268212Y-104735914D01*
X151264781Y-104728768D01*
X151261186Y-104724492D01*
X151259263Y-104722569D01*
X151257491Y-104720637D01*
X151257448Y-104720558D01*
X151257572Y-104720445D01*
X151257096Y-104719905D01*
X151254010Y-104714186D01*
X151214413Y-104677583D01*
X151210848Y-104674154D01*
X149816405Y-103279711D01*
X149782379Y-103217399D01*
X149779500Y-103190616D01*
X149779500Y-101535096D01*
X149799502Y-101466975D01*
X149816405Y-101446001D01*
X150837484Y-100424922D01*
X150899796Y-100390896D01*
X150970611Y-100395961D01*
G37*
%TD.AperFunction*%
%TA.AperFunction,Conductor*%
G36*
X154273994Y-107343643D02*
G01*
X154318123Y-107372251D01*
X155057175Y-108111304D01*
X155091200Y-108173616D01*
X155087912Y-108239334D01*
X155087403Y-108240901D01*
X155075709Y-108276893D01*
X155075709Y-108300208D01*
X155055707Y-108368329D01*
X155002051Y-108414822D01*
X154949709Y-108426208D01*
X154936890Y-108426208D01*
X154917539Y-108429273D01*
X154817699Y-108461714D01*
X154811181Y-108465035D01*
X154806913Y-108470568D01*
X154813815Y-108483426D01*
X155069432Y-108739044D01*
X155566898Y-109236509D01*
X155609885Y-109259981D01*
X155660088Y-109310182D01*
X155675501Y-109370567D01*
X155675501Y-109544136D01*
X155676277Y-109549034D01*
X155676277Y-109549038D01*
X155676392Y-109549767D01*
X155676356Y-109550046D01*
X155676664Y-109553961D01*
X155675841Y-109554026D01*
X155667288Y-109620177D01*
X155621561Y-109674488D01*
X155551282Y-109695466D01*
X155474221Y-109695062D01*
X155466841Y-109696834D01*
X155466839Y-109696834D01*
X155372242Y-109719545D01*
X155301334Y-109715998D01*
X155243600Y-109674678D01*
X155225548Y-109629275D01*
X155207363Y-109595396D01*
X155023397Y-109411430D01*
X155009459Y-109403819D01*
X155007623Y-109403950D01*
X155001009Y-109408201D01*
X154831346Y-109577864D01*
X154824733Y-109589975D01*
X154833560Y-109601593D01*
X154842676Y-109608216D01*
X154860134Y-109617111D01*
X154959966Y-109649549D01*
X154979318Y-109652614D01*
X155017645Y-109652614D01*
X155085766Y-109672616D01*
X155132259Y-109726272D01*
X155142363Y-109796546D01*
X155112869Y-109861126D01*
X155100475Y-109873562D01*
X155065766Y-109903841D01*
X155065762Y-109903846D01*
X155060039Y-109908838D01*
X154968950Y-110038444D01*
X154966190Y-110045524D01*
X154915181Y-110176355D01*
X154911406Y-110186037D01*
X154910414Y-110193570D01*
X154910414Y-110193571D01*
X154894686Y-110313040D01*
X154890729Y-110343096D01*
X154908113Y-110500553D01*
X154962553Y-110649319D01*
X154966789Y-110655622D01*
X154966789Y-110655623D01*
X155026173Y-110743995D01*
X155050908Y-110780805D01*
X155056527Y-110785918D01*
X155056528Y-110785919D01*
X155162455Y-110882305D01*
X155162458Y-110882307D01*
X155168076Y-110887419D01*
X155173941Y-110890603D01*
X155217636Y-110946061D01*
X155224450Y-111016730D01*
X155191976Y-111079864D01*
X155130525Y-111115420D01*
X155059605Y-111112107D01*
X155043497Y-111105263D01*
X155033427Y-111100132D01*
X155023637Y-111098581D01*
X155023636Y-111098581D01*
X154997899Y-111094505D01*
X154941045Y-111085500D01*
X154923810Y-111085500D01*
X154794385Y-111085501D01*
X154726265Y-111065499D01*
X154705290Y-111048596D01*
X154366405Y-110709711D01*
X154332379Y-110647399D01*
X154329500Y-110620616D01*
X154329500Y-109352479D01*
X154349502Y-109284358D01*
X154403158Y-109237865D01*
X154451727Y-109229460D01*
X154472460Y-109218330D01*
X154638567Y-109052223D01*
X154646181Y-109038279D01*
X154646050Y-109036446D01*
X154641800Y-109029832D01*
X154454278Y-108842311D01*
X154419091Y-108823097D01*
X154395114Y-108817881D01*
X154344912Y-108767678D01*
X154329500Y-108707294D01*
X154329500Y-108642679D01*
X154332050Y-108618721D01*
X154332128Y-108617062D01*
X154334321Y-108606878D01*
X154333097Y-108596536D01*
X154333097Y-108596533D01*
X154330374Y-108573533D01*
X154330024Y-108567602D01*
X154329928Y-108567610D01*
X154329500Y-108562434D01*
X154329500Y-108557230D01*
X154326327Y-108538166D01*
X154325496Y-108532320D01*
X154320694Y-108491755D01*
X154319470Y-108481413D01*
X154315507Y-108473161D01*
X154314004Y-108464128D01*
X154305521Y-108448405D01*
X154295197Y-108429273D01*
X154289656Y-108419002D01*
X154286982Y-108413756D01*
X154264781Y-108367523D01*
X154261187Y-108363247D01*
X154259247Y-108361307D01*
X154257493Y-108359395D01*
X154257445Y-108359306D01*
X154257568Y-108359194D01*
X154257095Y-108358658D01*
X154254010Y-108352940D01*
X154214413Y-108316337D01*
X154210848Y-108312908D01*
X153990247Y-108092307D01*
X153956221Y-108029995D01*
X153961286Y-107959180D01*
X153990247Y-107914117D01*
X154066692Y-107837672D01*
X154096157Y-107799272D01*
X154109647Y-107762210D01*
X154151739Y-107705040D01*
X154184955Y-107686903D01*
X154211864Y-107677110D01*
X154219150Y-107673112D01*
X154224191Y-107666207D01*
X154217559Y-107654231D01*
X154154904Y-107591576D01*
X154125598Y-107545576D01*
X154110626Y-107504441D01*
X154106123Y-107433587D01*
X154140641Y-107371547D01*
X154203221Y-107338017D01*
X154273994Y-107343643D01*
G37*
%TD.AperFunction*%
%TA.AperFunction,Conductor*%
G36*
X156308736Y-103299502D02*
G01*
X156329711Y-103316405D01*
X156583596Y-103570291D01*
X156617621Y-103632603D01*
X156620500Y-103659386D01*
X156620500Y-106175728D01*
X156600498Y-106243849D01*
X156546842Y-106290342D01*
X156476568Y-106300446D01*
X156411988Y-106270952D01*
X156405405Y-106264823D01*
X155898796Y-105758214D01*
X155869490Y-105712215D01*
X155867222Y-105705983D01*
X155863924Y-105696922D01*
X155834459Y-105658522D01*
X154842942Y-104667005D01*
X154804542Y-104637540D01*
X154731168Y-104610834D01*
X154705711Y-104601568D01*
X154705710Y-104601568D01*
X154695350Y-104597797D01*
X154579151Y-104597797D01*
X154568791Y-104601568D01*
X154568790Y-104601568D01*
X154543333Y-104610834D01*
X154469959Y-104637540D01*
X154431559Y-104667005D01*
X154270893Y-104827671D01*
X154241428Y-104866071D01*
X154238130Y-104875132D01*
X154238129Y-104875134D01*
X154228161Y-104902521D01*
X154186066Y-104959693D01*
X154152855Y-104977827D01*
X154125468Y-104987795D01*
X154125466Y-104987796D01*
X154116405Y-104991094D01*
X154078005Y-105020559D01*
X153917339Y-105181225D01*
X153887874Y-105219625D01*
X153884576Y-105228686D01*
X153874607Y-105256075D01*
X153832511Y-105313246D01*
X153799302Y-105331380D01*
X153762852Y-105344647D01*
X153724452Y-105374112D01*
X153563786Y-105534778D01*
X153534321Y-105573178D01*
X153531023Y-105582239D01*
X153531022Y-105582241D01*
X153521054Y-105609628D01*
X153478959Y-105666800D01*
X153445748Y-105684934D01*
X153418361Y-105694902D01*
X153418359Y-105694903D01*
X153409298Y-105698201D01*
X153370898Y-105727666D01*
X153210232Y-105888332D01*
X153180767Y-105926732D01*
X153167277Y-105963794D01*
X153125185Y-106020964D01*
X153091969Y-106039101D01*
X153065060Y-106048894D01*
X153057774Y-106052892D01*
X153052733Y-106059797D01*
X153059365Y-106071773D01*
X153122020Y-106134428D01*
X153151326Y-106180428D01*
X153166299Y-106221565D01*
X153170802Y-106292418D01*
X153136285Y-106354459D01*
X153073705Y-106387989D01*
X153002931Y-106382363D01*
X152958803Y-106353755D01*
X152616405Y-106011357D01*
X152582379Y-105949045D01*
X152579500Y-105922262D01*
X152579500Y-104586792D01*
X152599502Y-104518671D01*
X152653158Y-104472178D01*
X152723432Y-104462074D01*
X152788012Y-104491568D01*
X152823826Y-104543491D01*
X152859018Y-104639658D01*
X152862553Y-104649319D01*
X152866789Y-104655622D01*
X152866789Y-104655623D01*
X152915941Y-104728768D01*
X152950908Y-104780805D01*
X152956527Y-104785918D01*
X152956528Y-104785919D01*
X153054575Y-104875134D01*
X153068076Y-104887419D01*
X153207293Y-104963008D01*
X153360522Y-105003207D01*
X153444477Y-105004526D01*
X153511319Y-105005576D01*
X153511322Y-105005576D01*
X153518916Y-105005695D01*
X153673332Y-104970329D01*
X153758686Y-104927401D01*
X153808072Y-104902563D01*
X153808075Y-104902561D01*
X153814855Y-104899151D01*
X153820626Y-104894222D01*
X153820629Y-104894220D01*
X153929536Y-104801204D01*
X153929536Y-104801203D01*
X153935314Y-104796269D01*
X154027755Y-104667624D01*
X154086842Y-104520641D01*
X154099126Y-104434328D01*
X154108581Y-104367891D01*
X154108581Y-104367888D01*
X154109162Y-104363807D01*
X154109241Y-104356305D01*
X154109264Y-104354125D01*
X154109264Y-104354120D01*
X154109307Y-104350000D01*
X154103090Y-104298622D01*
X154114764Y-104228592D01*
X154139083Y-104194391D01*
X154176924Y-104156550D01*
X154239236Y-104122524D01*
X154310051Y-104127589D01*
X154355114Y-104156550D01*
X154431559Y-104232995D01*
X154469959Y-104262460D01*
X154579151Y-104302203D01*
X154695350Y-104302203D01*
X154804542Y-104262460D01*
X154842942Y-104232995D01*
X155759532Y-103316405D01*
X155821844Y-103282379D01*
X155848627Y-103279500D01*
X156240615Y-103279500D01*
X156308736Y-103299502D01*
G37*
%TD.AperFunction*%
%TA.AperFunction,Conductor*%
G36*
X142891171Y-99484902D02*
G01*
X142912145Y-99501805D01*
X144179840Y-100769500D01*
X144213866Y-100831812D01*
X144208801Y-100902627D01*
X144190521Y-100935542D01*
X144185736Y-100941747D01*
X144192637Y-100954604D01*
X144446443Y-101208411D01*
X144945719Y-101707686D01*
X144957827Y-101714298D01*
X144965052Y-101708808D01*
X145031392Y-101683521D01*
X145100873Y-101698114D01*
X145130377Y-101720037D01*
X145278693Y-101868353D01*
X145312719Y-101930665D01*
X145307654Y-102001480D01*
X145278693Y-102046543D01*
X145202248Y-102122988D01*
X145172783Y-102161388D01*
X145159293Y-102198450D01*
X145117201Y-102255620D01*
X145083985Y-102273757D01*
X145057076Y-102283550D01*
X145049790Y-102287548D01*
X145044749Y-102294453D01*
X145051381Y-102306429D01*
X145114036Y-102369084D01*
X145143342Y-102415083D01*
X145162767Y-102468453D01*
X145167270Y-102539305D01*
X145132753Y-102601346D01*
X145070173Y-102634876D01*
X145001272Y-102629948D01*
X144947905Y-102610524D01*
X144901906Y-102581218D01*
X144839521Y-102518833D01*
X144826920Y-102511952D01*
X144820530Y-102516676D01*
X144816374Y-102524252D01*
X144811516Y-102537597D01*
X144769420Y-102594767D01*
X144703098Y-102620104D01*
X144693115Y-102620500D01*
X144599847Y-102620500D01*
X144531726Y-102600498D01*
X144516029Y-102588577D01*
X144431951Y-102513667D01*
X144431945Y-102513663D01*
X144426275Y-102508611D01*
X144367575Y-102477531D01*
X144316732Y-102427978D01*
X144300751Y-102358803D01*
X144306702Y-102327241D01*
X144321226Y-102282541D01*
X144321226Y-102282539D01*
X144324291Y-102273107D01*
X144324291Y-102249792D01*
X144344293Y-102181671D01*
X144397949Y-102135178D01*
X144450291Y-102123792D01*
X144463110Y-102123792D01*
X144482461Y-102120727D01*
X144582301Y-102088286D01*
X144588819Y-102084965D01*
X144593087Y-102079432D01*
X144586185Y-102066574D01*
X144088462Y-101568850D01*
X143833103Y-101313492D01*
X143820995Y-101306881D01*
X143814844Y-101311555D01*
X143811714Y-101317699D01*
X143779273Y-101417539D01*
X143776208Y-101436890D01*
X143776208Y-101449709D01*
X143756206Y-101517830D01*
X143702550Y-101564323D01*
X143650208Y-101575709D01*
X143626893Y-101575709D01*
X143617461Y-101578774D01*
X143617459Y-101578774D01*
X143550963Y-101600380D01*
X143508045Y-101614325D01*
X143432374Y-101669302D01*
X143190482Y-101911196D01*
X143135503Y-101986867D01*
X143132438Y-101996300D01*
X143102321Y-102088992D01*
X143096887Y-102105715D01*
X143096887Y-102230681D01*
X143099952Y-102240113D01*
X143099952Y-102240115D01*
X143106158Y-102259214D01*
X143135503Y-102349529D01*
X143141332Y-102357552D01*
X143141333Y-102357554D01*
X143166327Y-102391955D01*
X143190480Y-102425199D01*
X143259975Y-102494693D01*
X143294184Y-102528902D01*
X143328209Y-102591214D01*
X143331089Y-102617998D01*
X143331089Y-102656669D01*
X143328540Y-102680617D01*
X143328461Y-102682282D01*
X143326269Y-102692465D01*
X143327493Y-102702806D01*
X143330216Y-102725812D01*
X143330566Y-102731743D01*
X143330661Y-102731735D01*
X143331089Y-102736913D01*
X143331089Y-102742113D01*
X143331943Y-102747242D01*
X143331943Y-102747245D01*
X143334258Y-102761154D01*
X143335095Y-102767032D01*
X143336698Y-102780572D01*
X143341119Y-102817930D01*
X143345082Y-102826182D01*
X143346585Y-102835215D01*
X143351532Y-102844384D01*
X143351533Y-102844386D01*
X143370923Y-102880321D01*
X143373612Y-102885597D01*
X143382098Y-102903269D01*
X143387087Y-102913660D01*
X143398424Y-102984645D01*
X143391808Y-103034901D01*
X143390729Y-103043096D01*
X143393000Y-103063664D01*
X143407016Y-103190616D01*
X143408113Y-103200553D01*
X143410723Y-103207684D01*
X143410723Y-103207686D01*
X143444323Y-103299502D01*
X143462553Y-103349319D01*
X143466789Y-103355622D01*
X143466789Y-103355623D01*
X143525325Y-103442733D01*
X143550908Y-103480805D01*
X143668076Y-103587419D01*
X143807293Y-103663008D01*
X143960522Y-103703207D01*
X144044477Y-103704526D01*
X144111319Y-103705576D01*
X144111322Y-103705576D01*
X144118916Y-103705695D01*
X144273332Y-103670329D01*
X144343742Y-103634917D01*
X144408072Y-103602563D01*
X144408075Y-103602561D01*
X144414855Y-103599151D01*
X144420626Y-103594222D01*
X144420629Y-103594220D01*
X144529542Y-103501199D01*
X144529543Y-103501198D01*
X144535314Y-103496269D01*
X144539743Y-103490105D01*
X144544889Y-103484509D01*
X144546267Y-103485776D01*
X144594509Y-103448177D01*
X144665213Y-103441737D01*
X144729923Y-103476260D01*
X145486658Y-104232995D01*
X145489937Y-104235511D01*
X145517407Y-104256589D01*
X145525058Y-104262460D01*
X145534119Y-104265758D01*
X145534667Y-104265958D01*
X145569571Y-104285405D01*
X145586670Y-104298885D01*
X145591105Y-104302826D01*
X145591167Y-104302753D01*
X145595124Y-104306106D01*
X145598805Y-104309787D01*
X145614515Y-104321014D01*
X145619234Y-104324556D01*
X145658590Y-104355581D01*
X145699703Y-104413461D01*
X145702997Y-104484381D01*
X145669679Y-104543626D01*
X145624536Y-104588769D01*
X145578537Y-104618075D01*
X145525058Y-104637540D01*
X145486658Y-104667005D01*
X144495141Y-105658522D01*
X144465676Y-105696922D01*
X144425933Y-105806114D01*
X144425933Y-105839253D01*
X144405931Y-105907374D01*
X144352275Y-105953867D01*
X144282001Y-105963971D01*
X144217421Y-105934477D01*
X144210838Y-105928348D01*
X142816405Y-104533915D01*
X142782379Y-104471603D01*
X142779500Y-104444820D01*
X142779500Y-102804520D01*
X142782049Y-102780572D01*
X142782128Y-102778907D01*
X142784320Y-102768724D01*
X142780373Y-102735377D01*
X142780023Y-102729446D01*
X142779928Y-102729454D01*
X142779500Y-102724276D01*
X142779500Y-102719076D01*
X142776792Y-102702806D01*
X142776331Y-102700035D01*
X142775494Y-102694157D01*
X142770694Y-102653599D01*
X142770694Y-102653598D01*
X142769470Y-102643259D01*
X142765507Y-102635007D01*
X142764004Y-102625974D01*
X142750716Y-102601346D01*
X142739666Y-102580868D01*
X142736969Y-102575575D01*
X142718215Y-102536518D01*
X142718212Y-102536514D01*
X142714781Y-102529368D01*
X142711186Y-102525092D01*
X142709263Y-102523169D01*
X142707491Y-102521237D01*
X142707448Y-102521158D01*
X142707572Y-102521045D01*
X142707096Y-102520505D01*
X142704010Y-102514786D01*
X142664413Y-102478183D01*
X142660848Y-102474754D01*
X142364593Y-102178499D01*
X142330567Y-102116187D01*
X142328076Y-102079517D01*
X142329107Y-102066421D01*
X142329107Y-102066418D01*
X142329300Y-102063967D01*
X142329299Y-101186834D01*
X142326491Y-101151142D01*
X142323359Y-101140359D01*
X142284330Y-101006021D01*
X142284329Y-101006019D01*
X142282118Y-100998408D01*
X142244939Y-100935542D01*
X142205194Y-100868336D01*
X142205192Y-100868333D01*
X142201156Y-100861509D01*
X142088691Y-100749044D01*
X142081867Y-100745008D01*
X142081864Y-100745006D01*
X141958618Y-100672119D01*
X141958619Y-100672119D01*
X141951792Y-100668082D01*
X141944181Y-100665871D01*
X141944179Y-100665870D01*
X141869768Y-100644252D01*
X141799058Y-100623709D01*
X141792653Y-100623205D01*
X141792648Y-100623204D01*
X141765823Y-100621093D01*
X141765816Y-100621093D01*
X141763367Y-100620900D01*
X141731040Y-100620900D01*
X140207300Y-100620901D01*
X140139179Y-100600899D01*
X140092686Y-100547243D01*
X140081300Y-100494901D01*
X140081300Y-100215900D01*
X140101302Y-100147779D01*
X140154958Y-100101286D01*
X140207300Y-100089900D01*
X141730988Y-100089899D01*
X141763366Y-100089899D01*
X141785935Y-100088123D01*
X141792640Y-100087596D01*
X141792641Y-100087596D01*
X141799058Y-100087091D01*
X141805238Y-100085296D01*
X141805241Y-100085295D01*
X141944179Y-100044930D01*
X141944181Y-100044929D01*
X141951792Y-100042718D01*
X142026065Y-99998793D01*
X142081864Y-99965794D01*
X142081867Y-99965792D01*
X142088691Y-99961756D01*
X142201156Y-99849291D01*
X142205192Y-99842467D01*
X142205194Y-99842464D01*
X142278081Y-99719218D01*
X142282118Y-99712392D01*
X142326491Y-99559658D01*
X142328318Y-99560189D01*
X142356162Y-99504850D01*
X142417295Y-99468750D01*
X142448202Y-99464900D01*
X142823050Y-99464900D01*
X142891171Y-99484902D01*
G37*
%TD.AperFunction*%
%TA.AperFunction,Conductor*%
G36*
X149846121Y-97396002D02*
G01*
X149892614Y-97449658D01*
X149904000Y-97502000D01*
X149904000Y-98137491D01*
X149907887Y-98150727D01*
X149922345Y-98152701D01*
X149933473Y-98150938D01*
X149952107Y-98144885D01*
X150045642Y-98097226D01*
X150061485Y-98085715D01*
X150094087Y-98053113D01*
X150156399Y-98019087D01*
X150227214Y-98024152D01*
X150272277Y-98053113D01*
X150333204Y-98114040D01*
X150443138Y-98170054D01*
X150452927Y-98171604D01*
X150452929Y-98171605D01*
X150479421Y-98175801D01*
X150534347Y-98184500D01*
X150749956Y-98184500D01*
X150965652Y-98184499D01*
X150970546Y-98183724D01*
X151047064Y-98171606D01*
X151047066Y-98171605D01*
X151056862Y-98170054D01*
X151094380Y-98150938D01*
X151157964Y-98118540D01*
X151157963Y-98118540D01*
X151166796Y-98114040D01*
X151204431Y-98076405D01*
X151266743Y-98042379D01*
X151293526Y-98039500D01*
X151339404Y-98039500D01*
X151407525Y-98059502D01*
X151428499Y-98076405D01*
X151433595Y-98081501D01*
X151467621Y-98143813D01*
X151470500Y-98170596D01*
X151470500Y-98645711D01*
X151450498Y-98713832D01*
X151411333Y-98750369D01*
X151411722Y-98750876D01*
X151406472Y-98754904D01*
X151406469Y-98754906D01*
X151404078Y-98756742D01*
X151404077Y-98756742D01*
X151381948Y-98773722D01*
X151373322Y-98780341D01*
X150381805Y-99771858D01*
X150352340Y-99810258D01*
X150349042Y-99819319D01*
X150346774Y-99825551D01*
X150317468Y-99871550D01*
X150224251Y-99964767D01*
X150161939Y-99998793D01*
X150091124Y-99993728D01*
X150034288Y-99951181D01*
X150016755Y-99918767D01*
X149980559Y-99819321D01*
X149980558Y-99819319D01*
X149977260Y-99810258D01*
X149947795Y-99771858D01*
X148956278Y-98780341D01*
X148917878Y-98750876D01*
X148902584Y-98745310D01*
X148856586Y-98716004D01*
X148332905Y-98192323D01*
X148315149Y-98159806D01*
X148804000Y-98159806D01*
X148807886Y-98173042D01*
X148822345Y-98175015D01*
X148846914Y-98171124D01*
X148865539Y-98165072D01*
X148957667Y-98118131D01*
X148973510Y-98106620D01*
X149027370Y-98052760D01*
X149089682Y-98018734D01*
X149160497Y-98023799D01*
X149205560Y-98052760D01*
X149238515Y-98085715D01*
X149254358Y-98097226D01*
X149347897Y-98144886D01*
X149366522Y-98150938D01*
X149378108Y-98152773D01*
X149391789Y-98151005D01*
X149396000Y-98137033D01*
X149396000Y-97902115D01*
X149391525Y-97886876D01*
X149390135Y-97885671D01*
X149382452Y-97884000D01*
X149182115Y-97884000D01*
X149144071Y-97895171D01*
X149122716Y-97908895D01*
X149087216Y-97914000D01*
X148822115Y-97914000D01*
X148806876Y-97918475D01*
X148805671Y-97919865D01*
X148804000Y-97927548D01*
X148804000Y-98159806D01*
X148315149Y-98159806D01*
X148298879Y-98130011D01*
X148296000Y-98103228D01*
X148296000Y-97532000D01*
X148316002Y-97463879D01*
X148369658Y-97417386D01*
X148422000Y-97406000D01*
X149027885Y-97406000D01*
X149065929Y-97394829D01*
X149087284Y-97381105D01*
X149122784Y-97376000D01*
X149778000Y-97376000D01*
X149846121Y-97396002D01*
G37*
%TD.AperFunction*%
%TA.AperFunction,Conductor*%
G36*
X151952812Y-92425160D02*
G01*
X151959395Y-92431289D01*
X152058322Y-92530216D01*
X152073464Y-92548964D01*
X152074579Y-92550189D01*
X152080229Y-92558940D01*
X152088407Y-92565387D01*
X152088409Y-92565389D01*
X152106600Y-92579729D01*
X152111042Y-92583676D01*
X152111104Y-92583603D01*
X152115067Y-92586961D01*
X152118744Y-92590638D01*
X152122973Y-92593660D01*
X152134446Y-92601859D01*
X152139192Y-92605422D01*
X152157651Y-92619973D01*
X152179447Y-92637156D01*
X152188083Y-92640189D01*
X152195535Y-92645514D01*
X152242200Y-92659470D01*
X152244655Y-92660204D01*
X152250302Y-92662039D01*
X152291170Y-92676391D01*
X152291172Y-92676391D01*
X152298651Y-92679018D01*
X152304216Y-92679500D01*
X152306923Y-92679500D01*
X152309555Y-92679614D01*
X152309656Y-92679644D01*
X152309649Y-92679807D01*
X152310349Y-92679851D01*
X152316578Y-92681714D01*
X152367359Y-92679718D01*
X152370450Y-92679597D01*
X152375398Y-92679500D01*
X154459816Y-92679500D01*
X154527937Y-92699502D01*
X154574430Y-92753158D01*
X154584534Y-92823432D01*
X154555040Y-92888012D01*
X154548911Y-92894595D01*
X153869784Y-93573722D01*
X153851036Y-93588864D01*
X153849811Y-93589979D01*
X153841060Y-93595629D01*
X153834613Y-93603807D01*
X153834611Y-93603809D01*
X153820271Y-93622000D01*
X153816325Y-93626441D01*
X153816398Y-93626503D01*
X153813039Y-93630467D01*
X153809362Y-93634144D01*
X153798108Y-93649892D01*
X153794602Y-93654562D01*
X153762844Y-93694847D01*
X153759812Y-93703481D01*
X153754486Y-93710934D01*
X153751501Y-93720915D01*
X153739799Y-93760044D01*
X153737964Y-93765692D01*
X153720982Y-93814051D01*
X153720500Y-93819616D01*
X153720500Y-93822324D01*
X153720386Y-93824958D01*
X153720357Y-93825056D01*
X153720193Y-93825049D01*
X153720149Y-93825753D01*
X153718287Y-93831978D01*
X153718696Y-93842383D01*
X153720403Y-93885835D01*
X153720500Y-93890782D01*
X153720500Y-94589649D01*
X153700498Y-94657770D01*
X153646842Y-94704263D01*
X153576568Y-94714367D01*
X153561838Y-94710326D01*
X153495885Y-94697207D01*
X153483630Y-94696000D01*
X153236915Y-94696000D01*
X153221676Y-94700475D01*
X153220471Y-94701865D01*
X153218800Y-94709548D01*
X153218800Y-96085884D01*
X153223275Y-96101123D01*
X153224665Y-96102328D01*
X153232348Y-96103999D01*
X153483628Y-96103999D01*
X153495888Y-96102791D01*
X153563906Y-96089263D01*
X153564448Y-96091988D01*
X153616880Y-96086355D01*
X153680365Y-96118138D01*
X153716588Y-96179199D01*
X153720500Y-96210351D01*
X153720500Y-97830542D01*
X153700498Y-97898663D01*
X153683595Y-97919637D01*
X152323013Y-99280219D01*
X152260701Y-99314245D01*
X152189886Y-99309180D01*
X152133050Y-99266633D01*
X152108239Y-99200113D01*
X152123330Y-99130739D01*
X152137462Y-99110144D01*
X152140638Y-99106968D01*
X152143660Y-99102739D01*
X152151859Y-99091266D01*
X152155422Y-99086520D01*
X152180707Y-99054445D01*
X152187156Y-99046265D01*
X152190189Y-99037629D01*
X152195514Y-99030177D01*
X152210204Y-98981057D01*
X152212039Y-98975410D01*
X152226391Y-98934542D01*
X152226391Y-98934540D01*
X152229018Y-98927061D01*
X152229500Y-98921496D01*
X152229500Y-98918789D01*
X152229614Y-98916157D01*
X152229644Y-98916056D01*
X152229807Y-98916063D01*
X152229851Y-98915363D01*
X152231714Y-98909134D01*
X152229597Y-98855262D01*
X152229500Y-98850314D01*
X152229500Y-98405919D01*
X152249502Y-98337798D01*
X152303158Y-98291305D01*
X152373432Y-98281201D01*
X152387471Y-98284042D01*
X152460522Y-98303207D01*
X152544477Y-98304526D01*
X152611319Y-98305576D01*
X152611322Y-98305576D01*
X152618916Y-98305695D01*
X152773332Y-98270329D01*
X152871870Y-98220770D01*
X152908072Y-98202563D01*
X152908075Y-98202561D01*
X152914855Y-98199151D01*
X152920626Y-98194222D01*
X152920629Y-98194220D01*
X153009717Y-98118131D01*
X153035314Y-98096269D01*
X153127755Y-97967624D01*
X153186842Y-97820641D01*
X153192965Y-97777615D01*
X153208581Y-97667891D01*
X153208581Y-97667888D01*
X153209162Y-97663807D01*
X153209307Y-97650000D01*
X153190276Y-97492733D01*
X153134280Y-97344546D01*
X153105064Y-97302036D01*
X153048855Y-97220251D01*
X153048854Y-97220249D01*
X153044553Y-97213992D01*
X152926275Y-97108611D01*
X152918889Y-97104700D01*
X152792988Y-97038039D01*
X152792989Y-97038039D01*
X152786274Y-97034484D01*
X152632633Y-96995892D01*
X152625034Y-96995852D01*
X152625033Y-96995852D01*
X152581521Y-96995624D01*
X152512146Y-96995261D01*
X152444132Y-96974903D01*
X152416416Y-96950409D01*
X152398231Y-96928807D01*
X152382281Y-96924000D01*
X151722000Y-96924000D01*
X151653879Y-96903998D01*
X151607386Y-96850342D01*
X151596000Y-96798000D01*
X151596000Y-96542000D01*
X151616002Y-96473879D01*
X151669658Y-96427386D01*
X151722000Y-96416000D01*
X152382740Y-96416000D01*
X152395976Y-96412113D01*
X152397020Y-96404466D01*
X152394885Y-96397893D01*
X152347227Y-96304359D01*
X152347010Y-96304061D01*
X152346859Y-96303637D01*
X152342726Y-96295526D01*
X152343774Y-96294992D01*
X152323151Y-96237193D01*
X152339232Y-96168042D01*
X152390146Y-96118561D01*
X152448946Y-96104000D01*
X152692685Y-96104000D01*
X152707924Y-96099525D01*
X152709129Y-96098135D01*
X152710800Y-96090452D01*
X152710800Y-94714116D01*
X152706325Y-94698877D01*
X152704935Y-94697672D01*
X152697252Y-94696001D01*
X152445972Y-94696001D01*
X152433712Y-94697209D01*
X152377869Y-94708315D01*
X152355373Y-94717633D01*
X152291992Y-94759983D01*
X152274782Y-94777193D01*
X152269864Y-94784553D01*
X152215387Y-94830080D01*
X152144944Y-94838927D01*
X152080900Y-94808286D01*
X152060336Y-94784553D01*
X152048284Y-94766516D01*
X151964101Y-94710266D01*
X151931996Y-94703880D01*
X151907816Y-94699070D01*
X151844906Y-94666162D01*
X151809775Y-94604467D01*
X151813576Y-94533572D01*
X151835796Y-94496615D01*
X151835314Y-94496269D01*
X151839749Y-94490098D01*
X151839751Y-94490095D01*
X151881535Y-94431946D01*
X151927755Y-94367624D01*
X151986842Y-94220641D01*
X152009162Y-94063807D01*
X152009307Y-94050000D01*
X151990276Y-93892733D01*
X151934280Y-93744546D01*
X151918039Y-93720915D01*
X151848855Y-93620251D01*
X151848854Y-93620249D01*
X151844553Y-93613992D01*
X151786480Y-93562252D01*
X151748926Y-93502003D01*
X151744300Y-93468176D01*
X151744300Y-92520384D01*
X151764302Y-92452263D01*
X151817958Y-92405770D01*
X151888232Y-92395666D01*
X151952812Y-92425160D01*
G37*
%TD.AperFunction*%
%TA.AperFunction,Conductor*%
G36*
X157949519Y-91864902D02*
G01*
X157996012Y-91918558D01*
X158002681Y-91939782D01*
X158003109Y-91939658D01*
X158043347Y-92078158D01*
X158047482Y-92092392D01*
X158051519Y-92099218D01*
X158124406Y-92222464D01*
X158124408Y-92222467D01*
X158128444Y-92229291D01*
X158240909Y-92341756D01*
X158247733Y-92345792D01*
X158247736Y-92345794D01*
X158280618Y-92365240D01*
X158377808Y-92422718D01*
X158385419Y-92424929D01*
X158385421Y-92424930D01*
X158434661Y-92439235D01*
X158530542Y-92467091D01*
X158536947Y-92467595D01*
X158536952Y-92467596D01*
X158563777Y-92469707D01*
X158563784Y-92469707D01*
X158566233Y-92469900D01*
X158598560Y-92469900D01*
X160122300Y-92469899D01*
X160190421Y-92489901D01*
X160236914Y-92543557D01*
X160248300Y-92595899D01*
X160248300Y-92874900D01*
X160228298Y-92943021D01*
X160174642Y-92989514D01*
X160122300Y-93000900D01*
X158598612Y-93000901D01*
X158566234Y-93000901D01*
X158543665Y-93002677D01*
X158536960Y-93003204D01*
X158536959Y-93003204D01*
X158530542Y-93003709D01*
X158524362Y-93005504D01*
X158524359Y-93005505D01*
X158385421Y-93045870D01*
X158385419Y-93045871D01*
X158377808Y-93048082D01*
X158370981Y-93052119D01*
X158370982Y-93052119D01*
X158247736Y-93125006D01*
X158247733Y-93125008D01*
X158240909Y-93129044D01*
X158128444Y-93241509D01*
X158124408Y-93248333D01*
X158124406Y-93248336D01*
X158064047Y-93350398D01*
X158047482Y-93378408D01*
X158003109Y-93531142D01*
X158002605Y-93537547D01*
X158002604Y-93537552D01*
X158000660Y-93562253D01*
X158000300Y-93566833D01*
X158000301Y-94443966D01*
X158001525Y-94459519D01*
X157986928Y-94528999D01*
X157965008Y-94558498D01*
X157519784Y-95003722D01*
X157501036Y-95018864D01*
X157499811Y-95019979D01*
X157491060Y-95025629D01*
X157484613Y-95033807D01*
X157484611Y-95033809D01*
X157470271Y-95052000D01*
X157466325Y-95056441D01*
X157466398Y-95056503D01*
X157463039Y-95060467D01*
X157459362Y-95064144D01*
X157448108Y-95079892D01*
X157444602Y-95084562D01*
X157412844Y-95124847D01*
X157409812Y-95133481D01*
X157404486Y-95140934D01*
X157401501Y-95150915D01*
X157389799Y-95190044D01*
X157387964Y-95195692D01*
X157373610Y-95236567D01*
X157370982Y-95244051D01*
X157370500Y-95249616D01*
X157370500Y-95252324D01*
X157370386Y-95254958D01*
X157370357Y-95255056D01*
X157370193Y-95255049D01*
X157370149Y-95255753D01*
X157368287Y-95261978D01*
X157370292Y-95313001D01*
X157370403Y-95315835D01*
X157370500Y-95320782D01*
X157370500Y-96301862D01*
X157350498Y-96369983D01*
X157333595Y-96390957D01*
X156039594Y-97684958D01*
X155977282Y-97718984D01*
X155906467Y-97713919D01*
X155849631Y-97671372D01*
X155824820Y-97604852D01*
X155824499Y-97595863D01*
X155824499Y-97494348D01*
X155823724Y-97489454D01*
X155811606Y-97412936D01*
X155811605Y-97412934D01*
X155810054Y-97403138D01*
X155754040Y-97293204D01*
X155699578Y-97238742D01*
X155665552Y-97176430D01*
X155670617Y-97105615D01*
X155699578Y-97060552D01*
X155746620Y-97013510D01*
X155758131Y-96997667D01*
X155805074Y-96905535D01*
X155805984Y-96902737D01*
X155805400Y-96898214D01*
X155791421Y-96894000D01*
X155122000Y-96894000D01*
X155053879Y-96873998D01*
X155007386Y-96820342D01*
X154996000Y-96768000D01*
X154996000Y-96367885D01*
X155504000Y-96367885D01*
X155508475Y-96383124D01*
X155509865Y-96384329D01*
X155517548Y-96386000D01*
X155791887Y-96386000D01*
X155805119Y-96382115D01*
X155805841Y-96376824D01*
X155805074Y-96374465D01*
X155758131Y-96282333D01*
X155746620Y-96266490D01*
X155673510Y-96193380D01*
X155657667Y-96181869D01*
X155565539Y-96134928D01*
X155546914Y-96128876D01*
X155521892Y-96124913D01*
X155508211Y-96126681D01*
X155504000Y-96140653D01*
X155504000Y-96367885D01*
X154996000Y-96367885D01*
X154996000Y-96140194D01*
X154991525Y-96124955D01*
X154972987Y-96108891D01*
X154934604Y-96049165D01*
X154929500Y-96013667D01*
X154929500Y-94275980D01*
X154949502Y-94207859D01*
X154966405Y-94186885D01*
X157271485Y-91881805D01*
X157333797Y-91847779D01*
X157360580Y-91844900D01*
X157881398Y-91844900D01*
X157949519Y-91864902D01*
G37*
%TD.AperFunction*%
%TA.AperFunction,Conductor*%
G36*
X158552537Y-77539902D02*
G01*
X158599030Y-77593558D01*
X158609134Y-77663832D01*
X158579640Y-77728412D01*
X158519569Y-77766897D01*
X158385421Y-77805870D01*
X158385419Y-77805871D01*
X158377808Y-77808082D01*
X158370981Y-77812119D01*
X158370982Y-77812119D01*
X158247736Y-77885006D01*
X158247733Y-77885008D01*
X158240909Y-77889044D01*
X158128444Y-78001509D01*
X158124408Y-78008333D01*
X158124406Y-78008336D01*
X158064047Y-78110398D01*
X158047482Y-78138408D01*
X158003109Y-78291142D01*
X158002605Y-78297547D01*
X158002604Y-78297552D01*
X158000493Y-78324377D01*
X158000300Y-78326833D01*
X158000301Y-79203966D01*
X158003109Y-79239658D01*
X158004904Y-79245838D01*
X158004905Y-79245841D01*
X158045270Y-79384779D01*
X158047482Y-79392392D01*
X158051519Y-79399218D01*
X158124406Y-79522464D01*
X158124408Y-79522467D01*
X158128444Y-79529291D01*
X158240909Y-79641756D01*
X158247733Y-79645792D01*
X158247736Y-79645794D01*
X158342182Y-79701649D01*
X158377808Y-79722718D01*
X158385419Y-79724929D01*
X158385421Y-79724930D01*
X158434661Y-79739235D01*
X158530542Y-79767091D01*
X158536947Y-79767595D01*
X158536952Y-79767596D01*
X158563777Y-79769707D01*
X158563784Y-79769707D01*
X158566233Y-79769900D01*
X158598560Y-79769900D01*
X160122300Y-79769899D01*
X160190421Y-79789901D01*
X160236914Y-79843557D01*
X160248300Y-79895899D01*
X160248300Y-80175400D01*
X160228298Y-80243521D01*
X160174642Y-80290014D01*
X160122300Y-80301400D01*
X160026915Y-80301400D01*
X160011676Y-80305875D01*
X160010471Y-80307265D01*
X160008800Y-80314948D01*
X160008800Y-80432074D01*
X160016330Y-80457719D01*
X160211395Y-80652784D01*
X160245421Y-80715096D01*
X160248300Y-80741879D01*
X160248300Y-81103920D01*
X160228298Y-81172041D01*
X160174642Y-81218534D01*
X160104368Y-81228638D01*
X160039788Y-81199144D01*
X160033205Y-81193015D01*
X160021610Y-81181420D01*
X160011524Y-81175913D01*
X160008800Y-81183217D01*
X160008800Y-81424074D01*
X160012037Y-81435099D01*
X160019130Y-81431860D01*
X160033205Y-81417785D01*
X160095517Y-81383759D01*
X160166332Y-81388824D01*
X160223168Y-81431371D01*
X160247979Y-81497891D01*
X160248300Y-81506880D01*
X160248300Y-81868921D01*
X160228298Y-81937042D01*
X160211395Y-81958016D01*
X160021612Y-82147799D01*
X160008800Y-82171261D01*
X160008800Y-82291284D01*
X160013275Y-82306523D01*
X160014665Y-82307728D01*
X160022348Y-82309399D01*
X160122300Y-82309399D01*
X160190421Y-82329401D01*
X160236914Y-82383057D01*
X160248300Y-82435399D01*
X160248300Y-82714900D01*
X160228298Y-82783021D01*
X160174642Y-82829514D01*
X160122300Y-82840900D01*
X158598612Y-82840901D01*
X158566234Y-82840901D01*
X158543665Y-82842677D01*
X158536960Y-82843204D01*
X158536959Y-82843204D01*
X158530542Y-82843709D01*
X158524362Y-82845504D01*
X158524359Y-82845505D01*
X158385421Y-82885870D01*
X158385419Y-82885871D01*
X158377808Y-82888082D01*
X158370981Y-82892119D01*
X158370982Y-82892119D01*
X158247736Y-82965006D01*
X158247733Y-82965008D01*
X158240909Y-82969044D01*
X158128444Y-83081509D01*
X158124408Y-83088333D01*
X158124406Y-83088336D01*
X158078133Y-83166580D01*
X158047482Y-83218408D01*
X158045271Y-83226019D01*
X158045270Y-83226021D01*
X158033645Y-83266034D01*
X158003109Y-83371142D01*
X158002605Y-83377547D01*
X158002604Y-83377552D01*
X158000493Y-83404377D01*
X158000300Y-83406833D01*
X158000301Y-84283966D01*
X158003109Y-84319658D01*
X158004904Y-84325838D01*
X158004905Y-84325841D01*
X158026014Y-84398499D01*
X158047482Y-84472392D01*
X158051519Y-84479218D01*
X158124406Y-84602464D01*
X158124408Y-84602467D01*
X158128444Y-84609291D01*
X158240909Y-84721756D01*
X158247733Y-84725792D01*
X158247736Y-84725794D01*
X158349798Y-84786153D01*
X158377808Y-84802718D01*
X158385419Y-84804929D01*
X158385421Y-84804930D01*
X158417870Y-84814357D01*
X158530542Y-84847091D01*
X158536947Y-84847595D01*
X158536952Y-84847596D01*
X158563777Y-84849707D01*
X158563784Y-84849707D01*
X158566233Y-84849900D01*
X158598560Y-84849900D01*
X160122300Y-84849899D01*
X160190421Y-84869901D01*
X160236914Y-84923557D01*
X160248300Y-84975899D01*
X160248300Y-85254900D01*
X160228298Y-85323021D01*
X160174642Y-85369514D01*
X160122300Y-85380900D01*
X158598612Y-85380901D01*
X158566234Y-85380901D01*
X158543665Y-85382677D01*
X158536960Y-85383204D01*
X158536959Y-85383204D01*
X158530542Y-85383709D01*
X158524362Y-85385504D01*
X158524359Y-85385505D01*
X158385421Y-85425870D01*
X158385419Y-85425871D01*
X158377808Y-85428082D01*
X158367047Y-85434446D01*
X158247736Y-85505006D01*
X158247733Y-85505008D01*
X158240909Y-85509044D01*
X158128444Y-85621509D01*
X158124408Y-85628333D01*
X158124406Y-85628336D01*
X158112344Y-85648732D01*
X158047482Y-85758408D01*
X158045271Y-85766019D01*
X158045270Y-85766021D01*
X158033384Y-85806934D01*
X158003109Y-85911142D01*
X158002605Y-85917547D01*
X158002604Y-85917552D01*
X158000493Y-85944377D01*
X158000300Y-85946833D01*
X158000301Y-86823966D01*
X158001525Y-86839519D01*
X157986928Y-86908999D01*
X157965008Y-86938498D01*
X157619784Y-87283722D01*
X157601036Y-87298864D01*
X157599811Y-87299979D01*
X157591060Y-87305629D01*
X157584613Y-87313807D01*
X157584611Y-87313809D01*
X157570271Y-87332000D01*
X157566325Y-87336441D01*
X157566398Y-87336503D01*
X157563039Y-87340467D01*
X157559362Y-87344144D01*
X157548108Y-87359892D01*
X157544602Y-87364562D01*
X157512844Y-87404847D01*
X157509812Y-87413481D01*
X157504486Y-87420934D01*
X157492302Y-87461676D01*
X157489799Y-87470044D01*
X157487964Y-87475692D01*
X157470982Y-87524051D01*
X157470500Y-87529616D01*
X157470500Y-87532324D01*
X157470386Y-87534958D01*
X157470357Y-87535056D01*
X157470193Y-87535049D01*
X157470149Y-87535753D01*
X157468287Y-87541978D01*
X157468696Y-87552383D01*
X157470403Y-87595835D01*
X157470500Y-87600782D01*
X157470500Y-89140616D01*
X157450498Y-89208737D01*
X157433595Y-89229711D01*
X154779711Y-91883595D01*
X154717399Y-91917621D01*
X154690616Y-91920500D01*
X153842881Y-91920500D01*
X153774760Y-91900498D01*
X153728267Y-91846842D01*
X153717488Y-91782149D01*
X153718800Y-91768829D01*
X153718800Y-91572115D01*
X153714325Y-91556876D01*
X153712935Y-91555671D01*
X153705252Y-91554000D01*
X152836800Y-91554000D01*
X152768679Y-91533998D01*
X152722186Y-91480342D01*
X152710800Y-91428000D01*
X152710800Y-91027885D01*
X153218800Y-91027885D01*
X153223275Y-91043124D01*
X153224665Y-91044329D01*
X153232348Y-91046000D01*
X153700684Y-91046000D01*
X153715923Y-91041525D01*
X153717128Y-91040135D01*
X153718799Y-91032452D01*
X153718799Y-90831172D01*
X153717591Y-90818912D01*
X153706485Y-90763069D01*
X153697167Y-90740573D01*
X153654817Y-90677192D01*
X153645143Y-90667518D01*
X153629893Y-90639590D01*
X153597418Y-90632526D01*
X153587802Y-90626703D01*
X153574228Y-90617633D01*
X153551734Y-90608316D01*
X153495885Y-90597207D01*
X153483630Y-90596000D01*
X153236915Y-90596000D01*
X153221676Y-90600475D01*
X153220471Y-90601865D01*
X153218800Y-90609548D01*
X153218800Y-91027885D01*
X152710800Y-91027885D01*
X152710800Y-90614116D01*
X152706326Y-90598878D01*
X152703622Y-90596535D01*
X152665238Y-90536809D01*
X152665238Y-90465813D01*
X152703621Y-90406086D01*
X152772526Y-90376047D01*
X152796066Y-90373490D01*
X152811311Y-90369865D01*
X152923988Y-90327625D01*
X152939575Y-90319092D01*
X153035010Y-90247566D01*
X153047566Y-90235010D01*
X153119092Y-90139575D01*
X153127625Y-90123988D01*
X153169865Y-90011311D01*
X153173490Y-89996066D01*
X153178631Y-89948741D01*
X153178763Y-89946307D01*
X153174525Y-89931876D01*
X153173135Y-89930671D01*
X153165452Y-89929000D01*
X151739115Y-89929000D01*
X151723876Y-89933475D01*
X151722671Y-89934865D01*
X151721027Y-89942424D01*
X151721369Y-89948741D01*
X151726510Y-89996066D01*
X151730135Y-90011311D01*
X151772375Y-90123988D01*
X151780908Y-90139575D01*
X151852434Y-90235010D01*
X151864990Y-90247566D01*
X151960425Y-90319092D01*
X151976012Y-90327625D01*
X152088689Y-90369865D01*
X152103934Y-90373490D01*
X152151259Y-90378631D01*
X152158073Y-90379000D01*
X152298039Y-90379000D01*
X152366160Y-90399002D01*
X152412653Y-90452658D01*
X152422757Y-90522932D01*
X152393263Y-90587512D01*
X152364185Y-90608479D01*
X152365694Y-90610737D01*
X152291992Y-90659983D01*
X152274782Y-90677193D01*
X152269864Y-90684553D01*
X152215387Y-90730080D01*
X152144944Y-90738927D01*
X152080900Y-90708286D01*
X152060336Y-90684553D01*
X152048284Y-90666516D01*
X151964101Y-90610266D01*
X151889867Y-90595500D01*
X151832639Y-90595500D01*
X150947079Y-90595501D01*
X150878958Y-90575499D01*
X150832465Y-90521843D01*
X150822361Y-90451569D01*
X150851854Y-90386989D01*
X150889876Y-90357234D01*
X150905445Y-90349301D01*
X150940723Y-90331326D01*
X151031326Y-90240723D01*
X151089498Y-90126555D01*
X151104500Y-90031834D01*
X151104500Y-89668166D01*
X151089498Y-89573445D01*
X151031326Y-89459277D01*
X151024311Y-89452262D01*
X151021675Y-89448634D01*
X150997815Y-89381767D01*
X151013893Y-89312615D01*
X151021674Y-89300508D01*
X151035418Y-89281592D01*
X151084516Y-89185231D01*
X151089479Y-89169955D01*
X151087962Y-89158212D01*
X151073988Y-89154000D01*
X150059500Y-89154000D01*
X149991379Y-89133998D01*
X149944886Y-89080342D01*
X149933500Y-89028000D01*
X149933500Y-88772000D01*
X149953502Y-88703879D01*
X150007158Y-88657386D01*
X150059500Y-88646000D01*
X151074448Y-88646000D01*
X151087684Y-88642113D01*
X151089375Y-88629727D01*
X151084514Y-88614766D01*
X151070725Y-88587703D01*
X151057621Y-88517926D01*
X151084321Y-88452142D01*
X151142349Y-88411235D01*
X151182992Y-88404500D01*
X151620977Y-88404500D01*
X151689098Y-88424502D01*
X151735591Y-88478158D01*
X151738949Y-88486246D01*
X151775083Y-88582635D01*
X151780463Y-88589814D01*
X151780465Y-88589817D01*
X151852077Y-88685367D01*
X151857456Y-88692544D01*
X151864633Y-88697923D01*
X151960183Y-88769535D01*
X151960186Y-88769537D01*
X151967365Y-88774917D01*
X151987020Y-88782285D01*
X152043784Y-88824927D01*
X152068484Y-88891488D01*
X152053276Y-88960837D01*
X152002990Y-89010955D01*
X151987018Y-89018249D01*
X151976014Y-89022374D01*
X151960425Y-89030908D01*
X151864990Y-89102434D01*
X151852434Y-89114990D01*
X151780908Y-89210425D01*
X151772375Y-89226012D01*
X151730135Y-89338689D01*
X151726510Y-89353934D01*
X151721369Y-89401259D01*
X151721237Y-89403693D01*
X151725475Y-89418124D01*
X151726865Y-89419329D01*
X151734548Y-89421000D01*
X153160885Y-89421000D01*
X153194119Y-89411241D01*
X153223561Y-89392319D01*
X153294558Y-89392317D01*
X153348159Y-89424119D01*
X153636195Y-89712155D01*
X153670221Y-89774467D01*
X153673100Y-89801250D01*
X153673101Y-90036726D01*
X153673101Y-90275066D01*
X153676992Y-90294630D01*
X153685399Y-90336897D01*
X153687866Y-90349301D01*
X153694761Y-90359621D01*
X153694762Y-90359622D01*
X153725809Y-90406086D01*
X153744116Y-90433484D01*
X153749047Y-90436779D01*
X153762148Y-90460771D01*
X153794623Y-90467835D01*
X153804229Y-90473651D01*
X153828299Y-90489734D01*
X153902533Y-90504500D01*
X154152559Y-90504500D01*
X154402666Y-90504499D01*
X154438418Y-90497388D01*
X154464726Y-90492156D01*
X154464728Y-90492155D01*
X154476901Y-90489734D01*
X154487221Y-90482839D01*
X154487222Y-90482838D01*
X154561084Y-90433484D01*
X154562581Y-90435724D01*
X154609120Y-90410311D01*
X154615657Y-90409504D01*
X154615639Y-90409407D01*
X154673880Y-90398771D01*
X154677782Y-90398122D01*
X154727036Y-90390716D01*
X154727039Y-90390715D01*
X154736351Y-90389315D01*
X154742918Y-90386162D01*
X154750083Y-90384853D01*
X154802667Y-90357538D01*
X154806157Y-90355795D01*
X154859553Y-90330154D01*
X154864848Y-90325259D01*
X154864987Y-90325166D01*
X154871366Y-90321852D01*
X154876454Y-90317506D01*
X154914036Y-90279924D01*
X154917602Y-90276494D01*
X154952998Y-90243774D01*
X154959912Y-90237383D01*
X154963630Y-90230983D01*
X154969237Y-90224723D01*
X155897011Y-89296949D01*
X155908100Y-89287094D01*
X155915079Y-89281592D01*
X155935059Y-89265841D01*
X155961903Y-89227001D01*
X155968742Y-89217106D01*
X155971024Y-89213913D01*
X156006209Y-89166276D01*
X156008623Y-89159403D01*
X156012764Y-89153411D01*
X156030629Y-89096922D01*
X156031880Y-89093173D01*
X156033150Y-89089557D01*
X156051493Y-89037326D01*
X156051776Y-89030122D01*
X156051809Y-89029951D01*
X156053975Y-89023103D01*
X156054500Y-89016432D01*
X156054500Y-88963276D01*
X156054597Y-88958329D01*
X156055891Y-88925400D01*
X156056859Y-88900762D01*
X156054962Y-88893606D01*
X156054500Y-88885218D01*
X156054500Y-88877556D01*
X156074502Y-88809435D01*
X156083408Y-88797897D01*
X156085314Y-88796269D01*
X156098394Y-88778067D01*
X156165005Y-88685367D01*
X156177755Y-88667624D01*
X156236842Y-88520641D01*
X156248913Y-88435826D01*
X156258581Y-88367891D01*
X156258581Y-88367888D01*
X156259162Y-88363807D01*
X156259307Y-88350000D01*
X156240276Y-88192733D01*
X156184280Y-88044546D01*
X156129163Y-87964350D01*
X156098855Y-87920251D01*
X156098854Y-87920249D01*
X156094553Y-87913992D01*
X155976275Y-87808611D01*
X155968889Y-87804700D01*
X155890649Y-87763274D01*
X155836274Y-87734484D01*
X155682633Y-87695892D01*
X155675034Y-87695852D01*
X155675033Y-87695852D01*
X155609181Y-87695507D01*
X155524221Y-87695062D01*
X155516841Y-87696834D01*
X155516839Y-87696834D01*
X155377563Y-87730271D01*
X155377560Y-87730272D01*
X155370184Y-87732043D01*
X155229414Y-87804700D01*
X155110039Y-87908838D01*
X155018950Y-88038444D01*
X155001631Y-88082865D01*
X154972284Y-88158137D01*
X154961406Y-88186037D01*
X154960414Y-88193570D01*
X154960414Y-88193571D01*
X154942395Y-88330442D01*
X154940729Y-88343096D01*
X154946372Y-88394206D01*
X154957064Y-88491049D01*
X154958113Y-88500553D01*
X154960723Y-88507684D01*
X154960723Y-88507686D01*
X155001676Y-88619595D01*
X155012553Y-88649319D01*
X155016789Y-88655622D01*
X155016789Y-88655623D01*
X155053822Y-88710734D01*
X155075214Y-88778431D01*
X155056610Y-88846947D01*
X155038335Y-88870105D01*
X154648591Y-89259849D01*
X154586279Y-89293875D01*
X154515464Y-89288810D01*
X154466972Y-89256284D01*
X154446375Y-89234002D01*
X154446372Y-89234000D01*
X154439983Y-89227088D01*
X154433583Y-89223370D01*
X154427323Y-89217763D01*
X153829155Y-88619595D01*
X153795129Y-88557283D01*
X153800194Y-88486468D01*
X153842741Y-88429632D01*
X153909261Y-88404821D01*
X153918250Y-88404500D01*
X154261366Y-88404499D01*
X154402666Y-88404499D01*
X154438418Y-88397388D01*
X154464726Y-88392156D01*
X154464728Y-88392155D01*
X154476901Y-88389734D01*
X154487221Y-88382839D01*
X154487222Y-88382838D01*
X154550768Y-88340377D01*
X154561084Y-88333484D01*
X154617334Y-88249301D01*
X154632100Y-88175067D01*
X154632099Y-87524934D01*
X154623166Y-87480021D01*
X154619755Y-87462870D01*
X154619754Y-87462867D01*
X154617334Y-87450699D01*
X154615066Y-87447305D01*
X154607100Y-87407257D01*
X154607100Y-87004028D01*
X154607973Y-86989219D01*
X154610900Y-86964487D01*
X154612007Y-86955134D01*
X154601368Y-86896879D01*
X154600718Y-86892976D01*
X154593315Y-86843733D01*
X154591915Y-86834421D01*
X154588762Y-86827855D01*
X154587453Y-86820688D01*
X154560160Y-86768146D01*
X154558392Y-86764609D01*
X154555180Y-86757920D01*
X154532754Y-86711219D01*
X154527858Y-86705923D01*
X154527766Y-86705787D01*
X154524452Y-86699406D01*
X154520106Y-86694318D01*
X154482524Y-86656736D01*
X154479094Y-86653170D01*
X154446374Y-86617774D01*
X154439983Y-86610860D01*
X154433583Y-86607142D01*
X154427323Y-86601535D01*
X154069055Y-86243267D01*
X154035029Y-86180955D01*
X154033063Y-86169309D01*
X154020820Y-86068137D01*
X154016981Y-86036410D01*
X153960985Y-85888223D01*
X153871258Y-85757669D01*
X153752980Y-85652288D01*
X153612979Y-85578161D01*
X153583226Y-85570688D01*
X153556464Y-85563965D01*
X153498065Y-85530856D01*
X153156205Y-85188996D01*
X153122179Y-85126684D01*
X153119300Y-85099901D01*
X153119300Y-84174773D01*
X153119299Y-84174769D01*
X153119299Y-83776234D01*
X153139301Y-83708113D01*
X153192957Y-83661620D01*
X153203835Y-83657710D01*
X153206080Y-83657414D01*
X153347050Y-83599022D01*
X153353603Y-83593994D01*
X153353606Y-83593992D01*
X153416096Y-83546042D01*
X153482316Y-83520441D01*
X153551865Y-83534706D01*
X153602661Y-83584307D01*
X153618800Y-83646004D01*
X153618800Y-85068714D01*
X153623275Y-85083953D01*
X153624665Y-85085158D01*
X153632348Y-85086829D01*
X153683628Y-85086829D01*
X153695888Y-85085621D01*
X153751731Y-85074515D01*
X153774227Y-85065197D01*
X153837608Y-85022847D01*
X153854817Y-85005638D01*
X153897168Y-84942255D01*
X153906484Y-84919764D01*
X153911466Y-84894718D01*
X153944374Y-84831809D01*
X154006069Y-84796677D01*
X154076964Y-84800477D01*
X154098330Y-84810346D01*
X154175766Y-84855324D01*
X154189104Y-84861124D01*
X154213462Y-84868501D01*
X154227564Y-84868621D01*
X154230800Y-84861691D01*
X154230800Y-84856084D01*
X154738800Y-84856084D01*
X154742773Y-84869615D01*
X154747856Y-84870346D01*
X154854188Y-84825101D01*
X154866812Y-84817901D01*
X154996633Y-84722363D01*
X155007264Y-84712449D01*
X155111628Y-84589605D01*
X155119690Y-84577517D01*
X155192995Y-84433959D01*
X155198062Y-84420334D01*
X155236777Y-84262114D01*
X155238460Y-84251055D01*
X155238680Y-84247509D01*
X155238800Y-84243631D01*
X155238800Y-83884945D01*
X155234325Y-83869706D01*
X155232935Y-83868501D01*
X155225252Y-83866830D01*
X154756915Y-83866830D01*
X154741676Y-83871305D01*
X154740471Y-83872695D01*
X154738800Y-83880378D01*
X154738800Y-84856084D01*
X154230800Y-84856084D01*
X154230800Y-83484830D01*
X154250802Y-83416709D01*
X154304458Y-83370216D01*
X154356800Y-83358830D01*
X155220685Y-83358830D01*
X155235924Y-83354355D01*
X155237129Y-83352965D01*
X155238800Y-83345282D01*
X155238800Y-83022467D01*
X155238375Y-83015163D01*
X155224420Y-82895464D01*
X155221075Y-82881311D01*
X155166079Y-82729800D01*
X155159570Y-82716801D01*
X155125449Y-82664759D01*
X155104826Y-82596824D01*
X155124206Y-82528524D01*
X155177435Y-82481543D01*
X155250532Y-82471225D01*
X155334347Y-82484500D01*
X155549956Y-82484500D01*
X155765652Y-82484499D01*
X155770546Y-82483724D01*
X155847064Y-82471606D01*
X155847066Y-82471605D01*
X155856862Y-82470054D01*
X155866499Y-82465144D01*
X155924876Y-82435399D01*
X155966796Y-82414040D01*
X156054040Y-82326796D01*
X156110054Y-82216862D01*
X156124500Y-82125653D01*
X156124499Y-81794348D01*
X156116120Y-81741442D01*
X158000801Y-81741442D01*
X158000995Y-81746376D01*
X158003102Y-81773158D01*
X158005404Y-81785766D01*
X158045733Y-81924579D01*
X158051979Y-81939013D01*
X158124805Y-82062155D01*
X158134454Y-82074593D01*
X158235607Y-82175746D01*
X158248045Y-82185395D01*
X158371187Y-82258221D01*
X158385621Y-82264467D01*
X158524441Y-82304798D01*
X158537034Y-82307098D01*
X158563829Y-82309207D01*
X158568754Y-82309400D01*
X159482685Y-82309400D01*
X159497924Y-82304925D01*
X159499129Y-82303535D01*
X159500800Y-82295852D01*
X159500800Y-81577515D01*
X159496325Y-81562276D01*
X159494935Y-81561071D01*
X159487252Y-81559400D01*
X158018916Y-81559400D01*
X158003677Y-81563875D01*
X158002472Y-81565265D01*
X158000801Y-81572948D01*
X158000801Y-81741442D01*
X156116120Y-81741442D01*
X156110054Y-81703138D01*
X156096060Y-81675672D01*
X156058540Y-81602036D01*
X156054040Y-81593204D01*
X155999578Y-81538742D01*
X155965552Y-81476430D01*
X155970617Y-81405615D01*
X155999578Y-81360552D01*
X156046620Y-81313510D01*
X156058131Y-81297667D01*
X156105074Y-81205535D01*
X156105984Y-81202737D01*
X156105400Y-81198214D01*
X156091421Y-81194000D01*
X155008113Y-81194000D01*
X154994881Y-81197885D01*
X154994159Y-81203176D01*
X154994926Y-81205535D01*
X155041869Y-81297667D01*
X155053380Y-81313510D01*
X155100422Y-81360552D01*
X155134448Y-81422864D01*
X155129383Y-81493679D01*
X155100422Y-81538742D01*
X155095569Y-81543595D01*
X155033257Y-81577621D01*
X155006474Y-81580500D01*
X152793229Y-81580500D01*
X152725108Y-81560498D01*
X152678615Y-81506842D01*
X152668511Y-81436568D01*
X152698005Y-81371988D01*
X152704134Y-81365405D01*
X152889424Y-81180115D01*
X152904910Y-81167607D01*
X152908135Y-81164673D01*
X152916883Y-81159024D01*
X152936004Y-81134769D01*
X152939560Y-81130768D01*
X152939460Y-81130683D01*
X152942813Y-81126726D01*
X152946495Y-81123044D01*
X152956883Y-81108508D01*
X152960402Y-81103821D01*
X152989947Y-81066342D01*
X152992780Y-81058274D01*
X152997754Y-81051314D01*
X153003146Y-81033285D01*
X158000800Y-81033285D01*
X158005275Y-81048524D01*
X158006665Y-81049729D01*
X158014348Y-81051400D01*
X159482685Y-81051400D01*
X159497924Y-81046925D01*
X159499129Y-81045535D01*
X159500800Y-81037852D01*
X159500800Y-80319516D01*
X159496325Y-80304277D01*
X159494935Y-80303072D01*
X159487252Y-80301401D01*
X158568758Y-80301401D01*
X158563824Y-80301595D01*
X158537042Y-80303702D01*
X158524434Y-80306004D01*
X158385621Y-80346333D01*
X158371187Y-80352579D01*
X158248045Y-80425405D01*
X158235607Y-80435054D01*
X158134454Y-80536207D01*
X158124805Y-80548645D01*
X158051979Y-80671787D01*
X158045733Y-80686221D01*
X158005402Y-80825041D01*
X158003102Y-80837634D01*
X158000993Y-80864429D01*
X158000800Y-80869355D01*
X158000800Y-81033285D01*
X153003146Y-81033285D01*
X153011414Y-81005639D01*
X153013248Y-80999996D01*
X153026423Y-80962476D01*
X153026424Y-80962472D01*
X153029051Y-80954991D01*
X153029501Y-80949795D01*
X153029501Y-80947088D01*
X153029598Y-80944830D01*
X153029740Y-80944358D01*
X153029786Y-80944360D01*
X153029799Y-80944161D01*
X153031568Y-80938244D01*
X153029598Y-80888100D01*
X153029501Y-80883154D01*
X153029501Y-80759401D01*
X153049503Y-80691280D01*
X153103159Y-80644787D01*
X153127372Y-80636581D01*
X153190928Y-80622025D01*
X153190930Y-80622024D01*
X153198332Y-80620329D01*
X153281952Y-80578273D01*
X153333072Y-80552563D01*
X153333075Y-80552561D01*
X153339855Y-80549151D01*
X153345626Y-80544222D01*
X153345629Y-80544220D01*
X153454536Y-80451204D01*
X153454536Y-80451203D01*
X153460314Y-80446269D01*
X153552755Y-80317624D01*
X153600117Y-80199808D01*
X153644084Y-80144064D01*
X153711209Y-80120939D01*
X153780180Y-80137776D01*
X153822396Y-80177720D01*
X153898408Y-80293656D01*
X153907732Y-80304808D01*
X154024747Y-80415658D01*
X154036392Y-80424370D01*
X154175766Y-80505324D01*
X154189104Y-80511124D01*
X154213462Y-80518501D01*
X154227564Y-80518621D01*
X154230800Y-80511691D01*
X154230800Y-80506084D01*
X154738800Y-80506084D01*
X154742773Y-80519615D01*
X154747856Y-80520346D01*
X154844608Y-80479177D01*
X154915121Y-80470911D01*
X154978910Y-80502079D01*
X155015722Y-80562787D01*
X155013870Y-80633759D01*
X155006209Y-80652319D01*
X154994926Y-80674464D01*
X154994016Y-80677263D01*
X154994600Y-80681786D01*
X155008579Y-80686000D01*
X155277885Y-80686000D01*
X155293124Y-80681525D01*
X155294329Y-80680135D01*
X155296000Y-80672452D01*
X155296000Y-80667885D01*
X155804000Y-80667885D01*
X155808475Y-80683124D01*
X155809865Y-80684329D01*
X155817548Y-80686000D01*
X156091887Y-80686000D01*
X156105119Y-80682115D01*
X156105841Y-80676824D01*
X156105074Y-80674465D01*
X156058131Y-80582333D01*
X156046620Y-80566490D01*
X155973510Y-80493380D01*
X155957667Y-80481869D01*
X155865539Y-80434928D01*
X155846914Y-80428876D01*
X155821892Y-80424913D01*
X155808211Y-80426681D01*
X155804000Y-80440653D01*
X155804000Y-80667885D01*
X155296000Y-80667885D01*
X155296000Y-80440194D01*
X155292114Y-80426958D01*
X155277655Y-80424985D01*
X155243294Y-80430427D01*
X155242938Y-80428176D01*
X155185455Y-80429814D01*
X155124659Y-80393148D01*
X155093338Y-80329434D01*
X155101436Y-80258900D01*
X155112668Y-80238045D01*
X155119693Y-80227512D01*
X155192995Y-80083959D01*
X155198062Y-80070334D01*
X155236777Y-79912114D01*
X155238460Y-79901055D01*
X155238680Y-79897509D01*
X155238800Y-79893631D01*
X155238800Y-79684945D01*
X155234325Y-79669706D01*
X155232935Y-79668501D01*
X155225252Y-79666830D01*
X154756915Y-79666830D01*
X154741676Y-79671305D01*
X154740471Y-79672695D01*
X154738800Y-79680378D01*
X154738800Y-80506084D01*
X154230800Y-80506084D01*
X154230800Y-79684945D01*
X154226325Y-79669706D01*
X154224935Y-79668501D01*
X154217252Y-79666830D01*
X153748915Y-79666830D01*
X153732830Y-79671553D01*
X153674528Y-79709022D01*
X153603532Y-79709022D01*
X153543805Y-79670639D01*
X153535189Y-79659493D01*
X153473855Y-79570251D01*
X153473854Y-79570249D01*
X153469553Y-79563992D01*
X153351275Y-79458611D01*
X153343889Y-79454700D01*
X153305565Y-79434409D01*
X153211274Y-79384484D01*
X153057633Y-79345892D01*
X153050034Y-79345852D01*
X153050033Y-79345852D01*
X152984181Y-79345507D01*
X152899221Y-79345062D01*
X152891841Y-79346834D01*
X152891839Y-79346834D01*
X152752563Y-79380271D01*
X152752560Y-79380272D01*
X152745184Y-79382043D01*
X152604414Y-79454700D01*
X152598697Y-79459687D01*
X152598690Y-79459692D01*
X152532736Y-79517228D01*
X152468254Y-79546936D01*
X152397947Y-79537066D01*
X152366089Y-79516356D01*
X152306951Y-79463667D01*
X152306945Y-79463663D01*
X152301275Y-79458611D01*
X152293889Y-79454700D01*
X152255565Y-79434409D01*
X152161274Y-79384484D01*
X152007633Y-79345892D01*
X152000034Y-79345852D01*
X152000033Y-79345852D01*
X151934181Y-79345507D01*
X151849221Y-79345062D01*
X151841841Y-79346834D01*
X151841839Y-79346834D01*
X151702563Y-79380271D01*
X151702560Y-79380272D01*
X151695184Y-79382043D01*
X151554414Y-79454700D01*
X151435039Y-79558838D01*
X151343950Y-79688444D01*
X151341190Y-79695524D01*
X151289626Y-79827779D01*
X151286406Y-79836037D01*
X151285414Y-79843570D01*
X151285414Y-79843571D01*
X151266942Y-79983885D01*
X151265729Y-79993096D01*
X151270588Y-80037107D01*
X151280967Y-80131111D01*
X151283113Y-80150553D01*
X151285723Y-80157684D01*
X151285723Y-80157686D01*
X151321938Y-80256648D01*
X151337553Y-80299319D01*
X151341789Y-80305622D01*
X151341789Y-80305623D01*
X151415730Y-80415658D01*
X151425908Y-80430805D01*
X151431527Y-80435918D01*
X151431528Y-80435919D01*
X151524313Y-80520346D01*
X151543076Y-80537419D01*
X151621607Y-80580058D01*
X151671927Y-80630139D01*
X151687184Y-80699477D01*
X151662532Y-80766056D01*
X151650579Y-80779883D01*
X150239095Y-82191367D01*
X150176783Y-82225393D01*
X150105968Y-82220328D01*
X150060908Y-82191369D01*
X148649471Y-80779933D01*
X148615445Y-80717621D01*
X148620510Y-80646806D01*
X148663057Y-80589970D01*
X148681952Y-80578273D01*
X148733071Y-80552563D01*
X148739855Y-80549151D01*
X148745626Y-80544222D01*
X148745629Y-80544220D01*
X148854536Y-80451204D01*
X148854536Y-80451203D01*
X148860314Y-80446269D01*
X148952755Y-80317624D01*
X149011842Y-80170641D01*
X149020654Y-80108724D01*
X149033581Y-80017891D01*
X149033581Y-80017888D01*
X149034162Y-80013807D01*
X149034307Y-80000000D01*
X149033533Y-79993599D01*
X149024414Y-79918251D01*
X149015276Y-79842733D01*
X148959280Y-79694546D01*
X148869553Y-79563992D01*
X148751275Y-79458611D01*
X148743889Y-79454700D01*
X148705565Y-79434409D01*
X148611274Y-79384484D01*
X148457633Y-79345892D01*
X148450034Y-79345852D01*
X148450033Y-79345852D01*
X148384181Y-79345507D01*
X148299221Y-79345062D01*
X148291841Y-79346834D01*
X148291839Y-79346834D01*
X148152563Y-79380271D01*
X148152560Y-79380272D01*
X148145184Y-79382043D01*
X148004414Y-79454700D01*
X147998697Y-79459687D01*
X147998690Y-79459692D01*
X147932736Y-79517228D01*
X147868254Y-79546936D01*
X147797947Y-79537066D01*
X147766089Y-79516356D01*
X147706951Y-79463667D01*
X147706945Y-79463663D01*
X147701275Y-79458611D01*
X147693889Y-79454700D01*
X147655565Y-79434409D01*
X147561274Y-79384484D01*
X147407633Y-79345892D01*
X147400034Y-79345852D01*
X147400033Y-79345852D01*
X147334181Y-79345507D01*
X147249221Y-79345062D01*
X147241841Y-79346834D01*
X147241839Y-79346834D01*
X147102563Y-79380271D01*
X147102560Y-79380272D01*
X147095184Y-79382043D01*
X146954414Y-79454700D01*
X146835039Y-79558838D01*
X146830672Y-79565052D01*
X146775699Y-79643270D01*
X146720164Y-79687501D01*
X146649532Y-79694687D01*
X146597061Y-79669399D01*
X146585252Y-79666830D01*
X146116915Y-79666830D01*
X146101676Y-79671305D01*
X146100471Y-79672695D01*
X146098800Y-79680378D01*
X146098800Y-80506084D01*
X146102773Y-80519615D01*
X146107856Y-80520346D01*
X146214188Y-80475101D01*
X146226812Y-80467901D01*
X146356633Y-80372363D01*
X146367264Y-80362449D01*
X146471628Y-80239605D01*
X146479690Y-80227517D01*
X146483283Y-80220481D01*
X146532076Y-80168908D01*
X146601006Y-80151902D01*
X146668188Y-80174862D01*
X146713826Y-80234481D01*
X146737553Y-80299319D01*
X146741789Y-80305622D01*
X146741789Y-80305623D01*
X146815730Y-80415658D01*
X146825908Y-80430805D01*
X146831527Y-80435918D01*
X146831528Y-80435919D01*
X146924313Y-80520346D01*
X146943076Y-80537419D01*
X147082293Y-80613008D01*
X147142326Y-80628757D01*
X147176473Y-80637716D01*
X147237288Y-80674350D01*
X147268643Y-80738048D01*
X147270499Y-80759592D01*
X147270499Y-80841942D01*
X147268393Y-80861736D01*
X147268188Y-80866089D01*
X147265996Y-80876269D01*
X147269626Y-80906936D01*
X147269941Y-80912282D01*
X147270071Y-80912271D01*
X147270499Y-80917451D01*
X147270499Y-80922650D01*
X147271352Y-80927774D01*
X147271353Y-80927787D01*
X147273426Y-80940240D01*
X147274263Y-80946115D01*
X147279868Y-80993469D01*
X147283569Y-81001177D01*
X147284974Y-81009616D01*
X147307628Y-81051600D01*
X147310309Y-81056863D01*
X147330954Y-81099857D01*
X147334310Y-81103849D01*
X147336257Y-81105796D01*
X147337747Y-81107421D01*
X147337980Y-81107853D01*
X147337944Y-81107886D01*
X147338083Y-81108044D01*
X147341016Y-81113479D01*
X147348663Y-81120548D01*
X147377880Y-81147556D01*
X147381446Y-81150985D01*
X147595866Y-81365405D01*
X147629892Y-81427717D01*
X147624827Y-81498532D01*
X147582280Y-81555368D01*
X147515760Y-81580179D01*
X147506771Y-81580500D01*
X145293526Y-81580500D01*
X145225405Y-81560498D01*
X145204431Y-81543595D01*
X145199578Y-81538742D01*
X145165552Y-81476430D01*
X145170617Y-81405615D01*
X145199578Y-81360552D01*
X145246620Y-81313510D01*
X145258131Y-81297667D01*
X145305074Y-81205535D01*
X145305984Y-81202737D01*
X145305400Y-81198214D01*
X145291421Y-81194000D01*
X144208113Y-81194000D01*
X144194881Y-81197885D01*
X144194159Y-81203176D01*
X144194926Y-81205535D01*
X144241869Y-81297667D01*
X144253380Y-81313510D01*
X144300422Y-81360552D01*
X144334448Y-81422864D01*
X144329383Y-81493679D01*
X144300422Y-81538742D01*
X144245960Y-81593204D01*
X144189946Y-81703138D01*
X144175500Y-81794347D01*
X144175501Y-82125652D01*
X144176276Y-82130543D01*
X144176276Y-82130546D01*
X144184963Y-82185395D01*
X144189946Y-82216862D01*
X144245960Y-82326796D01*
X144333204Y-82414040D01*
X144443138Y-82470054D01*
X144452927Y-82471604D01*
X144452929Y-82471605D01*
X144479421Y-82475801D01*
X144534347Y-82484500D01*
X144749956Y-82484500D01*
X144965652Y-82484499D01*
X144970546Y-82483724D01*
X145047071Y-82471605D01*
X145047073Y-82471604D01*
X145056862Y-82470054D01*
X145062629Y-82467116D01*
X145131688Y-82465144D01*
X145192485Y-82501809D01*
X145223808Y-82565522D01*
X145215713Y-82636056D01*
X145211870Y-82644305D01*
X145136605Y-82791701D01*
X145131538Y-82805326D01*
X145092823Y-82963546D01*
X145091140Y-82974605D01*
X145090920Y-82978151D01*
X145090800Y-82982029D01*
X145090800Y-83340715D01*
X145095275Y-83355954D01*
X145096665Y-83357159D01*
X145104348Y-83358830D01*
X145972800Y-83358830D01*
X146040921Y-83378832D01*
X146087414Y-83432488D01*
X146098800Y-83484830D01*
X146098800Y-84856084D01*
X146102773Y-84869615D01*
X146107856Y-84870346D01*
X146214188Y-84825101D01*
X146233024Y-84814357D01*
X146302106Y-84797980D01*
X146369075Y-84821551D01*
X146412670Y-84877587D01*
X146419031Y-84899225D01*
X146423115Y-84919761D01*
X146432433Y-84942257D01*
X146474783Y-85005638D01*
X146491992Y-85022847D01*
X146555375Y-85065198D01*
X146577866Y-85074514D01*
X146633715Y-85085623D01*
X146645970Y-85086830D01*
X146692685Y-85086830D01*
X146707924Y-85082355D01*
X146709129Y-85080965D01*
X146710800Y-85073282D01*
X146710800Y-84484945D01*
X146706325Y-84469706D01*
X146704935Y-84468501D01*
X146697252Y-84466830D01*
X146496800Y-84466830D01*
X146428679Y-84446828D01*
X146382186Y-84393172D01*
X146370800Y-84340830D01*
X146370800Y-84084830D01*
X146390802Y-84016709D01*
X146444458Y-83970216D01*
X146496800Y-83958830D01*
X146692685Y-83958830D01*
X146707924Y-83954355D01*
X146709129Y-83952965D01*
X146710800Y-83945282D01*
X146710800Y-83646004D01*
X146730802Y-83577883D01*
X146784458Y-83531390D01*
X146854732Y-83521286D01*
X146913504Y-83546042D01*
X146975994Y-83593992D01*
X146975997Y-83593994D01*
X146982550Y-83599022D01*
X147123520Y-83657414D01*
X147123143Y-83658325D01*
X147177534Y-83691479D01*
X147208555Y-83755339D01*
X147210300Y-83776234D01*
X147210300Y-85096382D01*
X147190298Y-85164503D01*
X147173395Y-85185477D01*
X146915407Y-85443465D01*
X146855726Y-85476889D01*
X146813975Y-85486912D01*
X146813971Y-85486913D01*
X146806596Y-85488684D01*
X146665826Y-85561341D01*
X146546451Y-85665479D01*
X146455362Y-85795085D01*
X146440054Y-85834348D01*
X146412522Y-85904965D01*
X146397818Y-85942678D01*
X146396826Y-85950211D01*
X146396826Y-85950212D01*
X146378540Y-86089111D01*
X146377141Y-86099737D01*
X146379901Y-86124734D01*
X146389288Y-86209756D01*
X146394525Y-86257194D01*
X146397135Y-86264325D01*
X146397135Y-86264327D01*
X146431037Y-86356968D01*
X146448965Y-86405960D01*
X146537320Y-86537446D01*
X146542939Y-86542559D01*
X146542940Y-86542560D01*
X146632992Y-86624500D01*
X146654488Y-86644060D01*
X146793705Y-86719649D01*
X146946934Y-86759848D01*
X147030889Y-86761167D01*
X147097731Y-86762217D01*
X147097734Y-86762217D01*
X147105328Y-86762336D01*
X147259744Y-86726970D01*
X147301695Y-86705871D01*
X147325392Y-86693953D01*
X147395237Y-86681215D01*
X147460881Y-86708259D01*
X147501482Y-86766500D01*
X147507245Y-86792691D01*
X147508113Y-86800553D01*
X147510723Y-86807684D01*
X147510723Y-86807686D01*
X147553214Y-86923798D01*
X147562553Y-86949319D01*
X147566789Y-86955622D01*
X147566789Y-86955623D01*
X147613073Y-87024500D01*
X147650908Y-87080805D01*
X147656527Y-87085918D01*
X147656528Y-87085919D01*
X147755863Y-87176306D01*
X147792786Y-87236946D01*
X147791063Y-87307922D01*
X147751241Y-87366699D01*
X147685964Y-87394616D01*
X147671064Y-87395500D01*
X147368166Y-87395500D01*
X147273445Y-87410502D01*
X147159277Y-87468674D01*
X147068674Y-87559277D01*
X147064174Y-87568109D01*
X147064173Y-87568110D01*
X147028796Y-87637541D01*
X146980047Y-87689156D01*
X146911132Y-87706222D01*
X146843931Y-87683321D01*
X146815703Y-87655904D01*
X146747566Y-87564990D01*
X146735010Y-87552434D01*
X146639575Y-87480908D01*
X146623988Y-87472375D01*
X146511311Y-87430135D01*
X146496066Y-87426510D01*
X146448741Y-87421369D01*
X146441927Y-87421000D01*
X146422115Y-87421000D01*
X146406876Y-87425475D01*
X146405671Y-87426865D01*
X146404000Y-87434548D01*
X146404000Y-88253000D01*
X146383998Y-88321121D01*
X146330342Y-88367614D01*
X146278000Y-88379000D01*
X146022000Y-88379000D01*
X145953879Y-88358998D01*
X145907386Y-88305342D01*
X145896000Y-88253000D01*
X145896000Y-87439115D01*
X145891525Y-87423876D01*
X145890135Y-87422671D01*
X145882452Y-87421000D01*
X145858073Y-87421000D01*
X145851259Y-87421369D01*
X145803934Y-87426510D01*
X145788689Y-87430135D01*
X145676009Y-87472376D01*
X145665806Y-87477962D01*
X145596449Y-87493130D01*
X145529901Y-87468392D01*
X145487293Y-87411602D01*
X145479300Y-87367441D01*
X145479300Y-84994775D01*
X145499302Y-84926654D01*
X145552958Y-84880161D01*
X145580312Y-84874333D01*
X145586811Y-84870234D01*
X145590800Y-84861691D01*
X145590800Y-83884945D01*
X145586325Y-83869706D01*
X145584935Y-83868501D01*
X145577252Y-83866830D01*
X145108915Y-83866830D01*
X145079754Y-83875392D01*
X145043454Y-83898722D01*
X144972457Y-83898723D01*
X144918859Y-83866921D01*
X143016405Y-81964467D01*
X142982379Y-81902155D01*
X142979500Y-81875372D01*
X142979500Y-80677263D01*
X144194016Y-80677263D01*
X144194600Y-80681786D01*
X144208579Y-80686000D01*
X144477885Y-80686000D01*
X144493124Y-80681525D01*
X144494329Y-80680135D01*
X144496000Y-80672452D01*
X144496000Y-80667885D01*
X145004000Y-80667885D01*
X145008475Y-80683124D01*
X145009865Y-80684329D01*
X145017548Y-80686000D01*
X145291887Y-80686000D01*
X145305119Y-80682115D01*
X145305841Y-80676824D01*
X145305074Y-80674465D01*
X145279736Y-80624736D01*
X145266632Y-80554959D01*
X145293332Y-80489175D01*
X145351359Y-80448268D01*
X145422291Y-80445227D01*
X145455288Y-80458579D01*
X145535766Y-80505324D01*
X145549104Y-80511124D01*
X145573462Y-80518501D01*
X145587564Y-80518621D01*
X145590800Y-80511691D01*
X145590800Y-79684945D01*
X145586325Y-79669706D01*
X145584935Y-79668501D01*
X145577252Y-79666830D01*
X145108915Y-79666830D01*
X145093676Y-79671305D01*
X145092471Y-79672695D01*
X145090800Y-79680378D01*
X145090800Y-79853193D01*
X145091225Y-79860497D01*
X145105180Y-79980196D01*
X145108525Y-79994349D01*
X145163521Y-80145860D01*
X145170031Y-80158859D01*
X145234144Y-80256648D01*
X145254767Y-80324583D01*
X145235387Y-80392884D01*
X145182158Y-80439864D01*
X145111979Y-80450609D01*
X145071570Y-80438000D01*
X145065542Y-80434929D01*
X145046914Y-80428876D01*
X145021892Y-80424913D01*
X145008211Y-80426681D01*
X145004000Y-80440653D01*
X145004000Y-80667885D01*
X144496000Y-80667885D01*
X144496000Y-80440194D01*
X144492114Y-80426958D01*
X144477655Y-80424985D01*
X144453086Y-80428876D01*
X144434461Y-80434928D01*
X144342333Y-80481869D01*
X144326490Y-80493380D01*
X144253380Y-80566490D01*
X144241869Y-80582333D01*
X144194926Y-80674465D01*
X144194016Y-80677263D01*
X142979500Y-80677263D01*
X142979500Y-80144520D01*
X142982049Y-80120572D01*
X142982128Y-80118907D01*
X142984320Y-80108724D01*
X142980373Y-80075377D01*
X142980023Y-80069446D01*
X142979928Y-80069454D01*
X142979500Y-80064276D01*
X142979500Y-80059076D01*
X142978646Y-80053944D01*
X142976331Y-80040035D01*
X142975494Y-80034157D01*
X142970694Y-79993599D01*
X142970694Y-79993598D01*
X142969470Y-79983259D01*
X142965507Y-79975007D01*
X142964004Y-79965974D01*
X142939665Y-79920866D01*
X142936969Y-79915575D01*
X142918213Y-79876513D01*
X142918209Y-79876507D01*
X142914781Y-79869368D01*
X142911187Y-79865092D01*
X142909248Y-79863153D01*
X142907492Y-79861238D01*
X142907445Y-79861152D01*
X142907567Y-79861039D01*
X142907095Y-79860504D01*
X142904010Y-79854786D01*
X142891863Y-79843557D01*
X142864427Y-79818196D01*
X142860861Y-79814766D01*
X142364593Y-79318498D01*
X142330567Y-79256186D01*
X142328077Y-79219516D01*
X142329106Y-79206446D01*
X142329107Y-79206418D01*
X142329300Y-79203967D01*
X142329300Y-79140715D01*
X145090800Y-79140715D01*
X145095275Y-79155954D01*
X145096665Y-79157159D01*
X145104348Y-79158830D01*
X145572685Y-79158830D01*
X145587924Y-79154355D01*
X145589129Y-79152965D01*
X145590800Y-79145282D01*
X145590800Y-79140715D01*
X146098800Y-79140715D01*
X146103275Y-79155954D01*
X146104665Y-79157159D01*
X146112348Y-79158830D01*
X146580685Y-79158830D01*
X146595924Y-79154355D01*
X146597129Y-79152965D01*
X146598800Y-79145282D01*
X146598800Y-79140715D01*
X153730800Y-79140715D01*
X153735275Y-79155954D01*
X153736665Y-79157159D01*
X153744348Y-79158830D01*
X154212685Y-79158830D01*
X154227924Y-79154355D01*
X154229129Y-79152965D01*
X154230800Y-79145282D01*
X154230800Y-79140715D01*
X154738800Y-79140715D01*
X154743275Y-79155954D01*
X154744665Y-79157159D01*
X154752348Y-79158830D01*
X155220685Y-79158830D01*
X155235924Y-79154355D01*
X155237129Y-79152965D01*
X155238800Y-79145282D01*
X155238800Y-78972467D01*
X155238375Y-78965163D01*
X155224420Y-78845464D01*
X155221075Y-78831311D01*
X155166079Y-78679800D01*
X155159569Y-78666801D01*
X155071192Y-78532004D01*
X155061868Y-78520852D01*
X154944853Y-78410002D01*
X154933208Y-78401290D01*
X154793834Y-78320336D01*
X154780496Y-78314536D01*
X154756138Y-78307159D01*
X154742036Y-78307039D01*
X154738800Y-78313969D01*
X154738800Y-79140715D01*
X154230800Y-79140715D01*
X154230800Y-78319576D01*
X154226827Y-78306045D01*
X154221744Y-78305314D01*
X154115412Y-78350559D01*
X154102788Y-78357759D01*
X153972967Y-78453297D01*
X153962336Y-78463211D01*
X153857972Y-78586055D01*
X153849910Y-78598143D01*
X153776605Y-78741701D01*
X153771538Y-78755326D01*
X153732823Y-78913546D01*
X153731140Y-78924605D01*
X153730920Y-78928151D01*
X153730800Y-78932029D01*
X153730800Y-79140715D01*
X146598800Y-79140715D01*
X146598800Y-78972467D01*
X146598375Y-78965163D01*
X146584420Y-78845464D01*
X146581075Y-78831311D01*
X146526079Y-78679800D01*
X146519569Y-78666801D01*
X146431192Y-78532004D01*
X146421868Y-78520852D01*
X146304853Y-78410002D01*
X146293208Y-78401290D01*
X146153834Y-78320336D01*
X146140496Y-78314536D01*
X146116138Y-78307159D01*
X146102036Y-78307039D01*
X146098800Y-78313969D01*
X146098800Y-79140715D01*
X145590800Y-79140715D01*
X145590800Y-78319576D01*
X145586827Y-78306045D01*
X145581744Y-78305314D01*
X145475412Y-78350559D01*
X145462788Y-78357759D01*
X145332967Y-78453297D01*
X145322336Y-78463211D01*
X145217972Y-78586055D01*
X145209910Y-78598143D01*
X145136605Y-78741701D01*
X145131538Y-78755326D01*
X145092823Y-78913546D01*
X145091140Y-78924605D01*
X145090920Y-78928151D01*
X145090800Y-78932029D01*
X145090800Y-79140715D01*
X142329300Y-79140715D01*
X142329299Y-78326834D01*
X142326491Y-78291142D01*
X142282118Y-78138408D01*
X142265553Y-78110398D01*
X142205194Y-78008336D01*
X142205192Y-78008333D01*
X142201156Y-78001509D01*
X142088691Y-77889044D01*
X142081867Y-77885008D01*
X142081864Y-77885006D01*
X141958618Y-77812119D01*
X141958619Y-77812119D01*
X141951792Y-77808082D01*
X141944181Y-77805871D01*
X141944179Y-77805870D01*
X141810031Y-77766897D01*
X141750196Y-77728684D01*
X141720518Y-77664188D01*
X141730421Y-77593886D01*
X141776761Y-77540097D01*
X141845184Y-77519900D01*
X158484416Y-77519900D01*
X158552537Y-77539902D01*
G37*
%TD.AperFunction*%
%TD*%
M02*
