%TF.GenerationSoftware,KiCad,Pcbnew,8.0.1*%
%TF.CreationDate,2024-05-13T17:31:10+07:00*%
%TF.ProjectId,greenpill-f411,67726565-6e70-4696-9c6c-2d663431312e,rev?*%
%TF.SameCoordinates,Original*%
%TF.FileFunction,Copper,L3,Inr*%
%TF.FilePolarity,Positive*%
%FSLAX46Y46*%
G04 Gerber Fmt 4.6, Leading zero omitted, Abs format (unit mm)*
G04 Created by KiCad (PCBNEW 8.0.1) date 2024-05-13 17:31:10*
%MOMM*%
%LPD*%
G01*
G04 APERTURE LIST*
%TA.AperFunction,ComponentPad*%
%ADD10R,1.700000X1.700000*%
%TD*%
%TA.AperFunction,ComponentPad*%
%ADD11O,1.700000X1.700000*%
%TD*%
%TA.AperFunction,ComponentPad*%
%ADD12O,1.000000X2.100000*%
%TD*%
%TA.AperFunction,ComponentPad*%
%ADD13O,1.000000X1.800000*%
%TD*%
%TA.AperFunction,ViaPad*%
%ADD14C,0.800000*%
%TD*%
%TA.AperFunction,Conductor*%
%ADD15C,0.250000*%
%TD*%
%TA.AperFunction,Conductor*%
%ADD16C,0.500000*%
%TD*%
%TA.AperFunction,Conductor*%
%ADD17C,0.600000*%
%TD*%
%TA.AperFunction,Conductor*%
%ADD18C,0.200000*%
%TD*%
G04 APERTURE END LIST*
D10*
%TO.N,+3V3*%
%TO.C,J7*%
X153974800Y-127124000D03*
D11*
%TO.N,/PA13*%
X151434800Y-127124000D03*
%TO.N,/PA14*%
X148894800Y-127124000D03*
%TO.N,GND*%
X146354800Y-127124000D03*
%TD*%
D12*
%TO.N,GND*%
%TO.C,J1*%
X154484800Y-83612830D03*
D13*
X154484800Y-79412830D03*
D12*
X145844800Y-83612830D03*
D13*
X145844800Y-79412830D03*
%TD*%
D10*
%TO.N,/PB12*%
%TO.C,J5*%
X142519400Y-78765400D03*
D11*
%TO.N,/PB13*%
X142519400Y-81305400D03*
%TO.N,/PB14*%
X142519400Y-83845400D03*
%TO.N,/PB15*%
X142519400Y-86385400D03*
%TO.N,/PA8*%
X142519400Y-88925400D03*
%TO.N,/PA9*%
X142519400Y-91465400D03*
%TO.N,/PA10*%
X142519400Y-94005400D03*
%TO.N,/USB_DN*%
X142519400Y-96545400D03*
%TO.N,/USB_DP*%
X142519400Y-99085400D03*
%TO.N,/PA15*%
X142519400Y-101625400D03*
%TO.N,/PB3*%
X142519400Y-104165400D03*
%TO.N,/PB4*%
X142519400Y-106705400D03*
%TO.N,/PB5*%
X142519400Y-109245400D03*
%TO.N,/PB6*%
X142519400Y-111785400D03*
%TO.N,/PB7*%
X142519400Y-114325400D03*
%TO.N,/PB8*%
X142519400Y-116865400D03*
%TO.N,/PB9*%
X142519400Y-119405400D03*
%TO.N,VCC*%
X142519400Y-121945400D03*
%TO.N,GND*%
X142519400Y-124485400D03*
%TO.N,+3V3*%
X142519400Y-127025400D03*
%TD*%
D10*
%TO.N,VCC*%
%TO.C,J6*%
X157784800Y-78765400D03*
D11*
%TO.N,GND*%
X157784800Y-81305400D03*
%TO.N,+3V3*%
X157784800Y-83845400D03*
%TO.N,/PB10*%
X157784800Y-86385400D03*
%TO.N,/PB2*%
X157784800Y-88925400D03*
%TO.N,/PB1*%
X157784800Y-91465400D03*
%TO.N,/PB0*%
X157784800Y-94005400D03*
%TO.N,/MEM_MOSI*%
X157784800Y-96545400D03*
%TO.N,/MEM_MISO*%
X157784800Y-99085400D03*
%TO.N,/MEM_CLK*%
X157784800Y-101625400D03*
%TO.N,/PA4*%
X157784800Y-104165400D03*
%TO.N,/PA3*%
X157784800Y-106705400D03*
%TO.N,/PA2*%
X157784800Y-109245400D03*
%TO.N,/PA1*%
X157784800Y-111785400D03*
%TO.N,/PA0*%
X157784800Y-114325400D03*
%TO.N,/~{NRST}*%
X157784800Y-116865400D03*
%TO.N,/PC15*%
X157784800Y-119405400D03*
%TO.N,/PC14*%
X157784800Y-121945400D03*
%TO.N,/PC13*%
X157784800Y-124485400D03*
%TO.N,/VB*%
X157784800Y-127025400D03*
%TD*%
D14*
%TO.N,GND*%
X151358600Y-105435400D03*
X158597600Y-113055399D03*
X155041600Y-124358400D03*
X148971000Y-105435400D03*
X158597600Y-82575399D03*
X158597600Y-110515399D03*
X158597600Y-125755399D03*
X158597600Y-105435399D03*
X150164800Y-106654600D03*
X141706600Y-110515399D03*
X143814800Y-127787400D03*
X141706600Y-102895399D03*
X141706600Y-87655399D03*
X158597600Y-107975399D03*
X152755600Y-97129600D03*
X158597600Y-92735399D03*
X141503400Y-80213200D03*
X158597600Y-87655399D03*
X149098000Y-99009200D03*
X158597600Y-85115399D03*
X141706600Y-95275399D03*
X141706600Y-118135399D03*
X141706600Y-82575399D03*
X143967200Y-102031800D03*
X158597600Y-123215399D03*
X158597600Y-90195399D03*
X141706600Y-107975399D03*
X141706600Y-120675399D03*
X141706600Y-97815399D03*
X158597600Y-97815399D03*
X158597600Y-118135399D03*
X158826200Y-80238600D03*
X158597600Y-95275399D03*
X151257000Y-87350600D03*
X151434800Y-113284000D03*
X158597600Y-115595399D03*
X141706600Y-105435399D03*
X141706600Y-90195399D03*
X158597600Y-102895399D03*
X158597600Y-100355399D03*
X153466800Y-119888000D03*
X141706600Y-100355399D03*
X141706600Y-113055399D03*
X141706600Y-125755399D03*
X141706600Y-115595399D03*
X156260800Y-126822200D03*
X158597600Y-120675399D03*
X152095200Y-93395800D03*
X141706600Y-123215399D03*
X141706600Y-92735399D03*
X141706600Y-85115399D03*
X150164800Y-104216200D03*
%TO.N,/~{NRST}*%
X151332800Y-94919800D03*
X154292600Y-109956600D03*
%TO.N,VCC*%
X152425400Y-87833200D03*
%TO.N,+3V3*%
X148971000Y-110464600D03*
X150749000Y-99034600D03*
X146118269Y-90885001D03*
X152831800Y-94615000D03*
X145131928Y-104441416D03*
X156006800Y-111125000D03*
%TO.N,VBAT*%
X152196800Y-117424200D03*
X149758400Y-111328200D03*
%TO.N,VBUS*%
X147764800Y-85598000D03*
X152564800Y-85598000D03*
%TO.N,/PA13*%
X145318841Y-103347159D03*
%TO.N,/PA14*%
X144529442Y-105239549D03*
%TO.N,/MEM_MISO*%
X155879305Y-86126149D03*
%TO.N,/PA4*%
X155883941Y-87126141D03*
%TO.N,/PA0*%
X155534800Y-107322800D03*
X151028400Y-117398800D03*
%TO.N,/PC13*%
X151645917Y-110381341D03*
%TO.N,/BOOT0*%
X150063200Y-96088200D03*
X146446818Y-109613800D03*
%TO.N,/D+*%
X151367000Y-80848200D03*
X147894473Y-80844136D03*
%TO.N,/D-*%
X148944473Y-80844136D03*
X152417000Y-80848200D03*
%TO.N,/USB_DP*%
X149140000Y-87350600D03*
X143620000Y-100355400D03*
%TO.N,/USB_DN*%
X144670000Y-100355400D03*
X150190200Y-87350600D03*
%TD*%
D15*
%TO.N,/~{NRST}*%
X157784800Y-116865400D02*
X154292600Y-113373200D01*
X154292600Y-113373200D02*
X154292600Y-109956600D01*
D16*
%TO.N,VCC*%
X152425400Y-87833200D02*
X155575000Y-84683600D01*
X144424400Y-120040400D02*
X142519400Y-121945400D01*
X155575000Y-80975200D02*
X157784800Y-78765400D01*
X144424400Y-107899200D02*
X144424400Y-120040400D01*
X155575000Y-84683600D02*
X155575000Y-80975200D01*
X146761200Y-105562400D02*
X144424400Y-107899200D01*
X152425400Y-87833200D02*
X146761200Y-93497400D01*
X146761200Y-93497400D02*
X146761200Y-105562400D01*
D17*
%TO.N,VBUS*%
X147764800Y-85598000D02*
X152564800Y-85598000D01*
D18*
%TO.N,/MEM_MISO*%
X156583941Y-87416091D02*
X156283941Y-87716091D01*
X155879305Y-86126149D02*
X156583941Y-86830785D01*
X156583941Y-86830785D02*
X156583941Y-87416091D01*
X156283941Y-87716091D02*
X156283941Y-97584541D01*
X156283941Y-97584541D02*
X157784800Y-99085400D01*
%TO.N,/PA4*%
X155883941Y-87126141D02*
X155883941Y-102264541D01*
X155883941Y-102264541D02*
X157784800Y-104165400D01*
%TD*%
%TA.AperFunction,Conductor*%
%TO.N,+3V3*%
G36*
X160444921Y-77285402D02*
G01*
X160491414Y-77339058D01*
X160502800Y-77391400D01*
X160502800Y-128399400D01*
X160482798Y-128467521D01*
X160429142Y-128514014D01*
X160376800Y-128525400D01*
X144301001Y-128525400D01*
X144232880Y-128505398D01*
X144186387Y-128451742D01*
X144176283Y-128381468D01*
X144205777Y-128316888D01*
X144217443Y-128305091D01*
X144308298Y-128224601D01*
X144398587Y-128093795D01*
X144454949Y-127945182D01*
X144454949Y-127945181D01*
X144454950Y-127945179D01*
X144474107Y-127787403D01*
X144474107Y-127787396D01*
X144454950Y-127629620D01*
X144439895Y-127589925D01*
X144398587Y-127481005D01*
X144308298Y-127350199D01*
X144189329Y-127244801D01*
X144189328Y-127244800D01*
X144189325Y-127244798D01*
X144048597Y-127170939D01*
X144048595Y-127170938D01*
X144048593Y-127170937D01*
X144048591Y-127170936D01*
X144048590Y-127170936D01*
X143894272Y-127132900D01*
X143894271Y-127132900D01*
X143735329Y-127132900D01*
X143735327Y-127132900D01*
X143581009Y-127170936D01*
X143581002Y-127170939D01*
X143440274Y-127244798D01*
X143440269Y-127244802D01*
X143436983Y-127247714D01*
X143434063Y-127249086D01*
X143433997Y-127249132D01*
X143433989Y-127249120D01*
X143372729Y-127277913D01*
X143353431Y-127279400D01*
X142950103Y-127279400D01*
X142985325Y-127218393D01*
X143010617Y-127124004D01*
X145245568Y-127124004D01*
X145264454Y-127327819D01*
X145308038Y-127481001D01*
X145320472Y-127524701D01*
X145411712Y-127707935D01*
X145411713Y-127707936D01*
X145535066Y-127871284D01*
X145686336Y-128009185D01*
X145860366Y-128116940D01*
X145860368Y-128116940D01*
X145860373Y-128116944D01*
X146051244Y-128190888D01*
X146252453Y-128228500D01*
X146252455Y-128228500D01*
X146457145Y-128228500D01*
X146457147Y-128228500D01*
X146658356Y-128190888D01*
X146849227Y-128116944D01*
X147023262Y-128009186D01*
X147174532Y-127871285D01*
X147297888Y-127707935D01*
X147389128Y-127524701D01*
X147445145Y-127327821D01*
X147457932Y-127189826D01*
X147464032Y-127124004D01*
X147785568Y-127124004D01*
X147804454Y-127327819D01*
X147848038Y-127481001D01*
X147860472Y-127524701D01*
X147951712Y-127707935D01*
X147951713Y-127707936D01*
X148075066Y-127871284D01*
X148226336Y-128009185D01*
X148400366Y-128116940D01*
X148400368Y-128116940D01*
X148400373Y-128116944D01*
X148591244Y-128190888D01*
X148792453Y-128228500D01*
X148792455Y-128228500D01*
X148997145Y-128228500D01*
X148997147Y-128228500D01*
X149198356Y-128190888D01*
X149389227Y-128116944D01*
X149563262Y-128009186D01*
X149714532Y-127871285D01*
X149837888Y-127707935D01*
X149929128Y-127524701D01*
X149985145Y-127327821D01*
X149997932Y-127189826D01*
X150004032Y-127124004D01*
X150325568Y-127124004D01*
X150344454Y-127327819D01*
X150388038Y-127481001D01*
X150400472Y-127524701D01*
X150491712Y-127707935D01*
X150491713Y-127707936D01*
X150615066Y-127871284D01*
X150766336Y-128009185D01*
X150940366Y-128116940D01*
X150940368Y-128116940D01*
X150940373Y-128116944D01*
X151131244Y-128190888D01*
X151332453Y-128228500D01*
X151332455Y-128228500D01*
X151537145Y-128228500D01*
X151537147Y-128228500D01*
X151738356Y-128190888D01*
X151929227Y-128116944D01*
X152103262Y-128009186D01*
X152254532Y-127871285D01*
X152377888Y-127707935D01*
X152469128Y-127524701D01*
X152525145Y-127327821D01*
X152537932Y-127189826D01*
X152544032Y-127124004D01*
X152544032Y-127123995D01*
X152525145Y-126920180D01*
X152510868Y-126870000D01*
X152870800Y-126870000D01*
X153544097Y-126870000D01*
X153508875Y-126931007D01*
X153474800Y-127058174D01*
X153474800Y-127189826D01*
X153508875Y-127316993D01*
X153544097Y-127378000D01*
X152870801Y-127378000D01*
X152870801Y-127999022D01*
X152885537Y-128073105D01*
X152885537Y-128073107D01*
X152941675Y-128157124D01*
X153025693Y-128213262D01*
X153025694Y-128213263D01*
X153099780Y-128227999D01*
X153720800Y-128227999D01*
X153720800Y-127554702D01*
X153781807Y-127589925D01*
X153908974Y-127624000D01*
X154040626Y-127624000D01*
X154167793Y-127589925D01*
X154228800Y-127554702D01*
X154228800Y-128227999D01*
X154849814Y-128227999D01*
X154849822Y-128227998D01*
X154923905Y-128213262D01*
X154923907Y-128213262D01*
X155007924Y-128157124D01*
X155064062Y-128073106D01*
X155064063Y-128073105D01*
X155078799Y-127999022D01*
X155078800Y-127999015D01*
X155078800Y-127378000D01*
X154405503Y-127378000D01*
X154440725Y-127316993D01*
X154474800Y-127189826D01*
X154474800Y-127058174D01*
X154440725Y-126931007D01*
X154405503Y-126870000D01*
X155078799Y-126870000D01*
X155078799Y-126248986D01*
X155078798Y-126248977D01*
X155064062Y-126174894D01*
X155064062Y-126174892D01*
X155007924Y-126090875D01*
X154923906Y-126034737D01*
X154923905Y-126034736D01*
X154849822Y-126020000D01*
X154228800Y-126020000D01*
X154228800Y-126693297D01*
X154167793Y-126658075D01*
X154040626Y-126624000D01*
X153908974Y-126624000D01*
X153781807Y-126658075D01*
X153720800Y-126693297D01*
X153720800Y-126020000D01*
X153099786Y-126020000D01*
X153099776Y-126020001D01*
X153025694Y-126034737D01*
X153025692Y-126034737D01*
X152941675Y-126090875D01*
X152885537Y-126174893D01*
X152885536Y-126174894D01*
X152870800Y-126248977D01*
X152870800Y-126870000D01*
X152510868Y-126870000D01*
X152469128Y-126723299D01*
X152377888Y-126540065D01*
X152288452Y-126421632D01*
X152254533Y-126376715D01*
X152103263Y-126238814D01*
X151929233Y-126131059D01*
X151929228Y-126131057D01*
X151929227Y-126131056D01*
X151825508Y-126090875D01*
X151738359Y-126057113D01*
X151738360Y-126057113D01*
X151738357Y-126057112D01*
X151738356Y-126057112D01*
X151537147Y-126019500D01*
X151332453Y-126019500D01*
X151131244Y-126057112D01*
X151131239Y-126057113D01*
X150940377Y-126131054D01*
X150940366Y-126131059D01*
X150766336Y-126238814D01*
X150615066Y-126376715D01*
X150491713Y-126540063D01*
X150400471Y-126723301D01*
X150344454Y-126920180D01*
X150325568Y-127123995D01*
X150325568Y-127124004D01*
X150004032Y-127124004D01*
X150004032Y-127123995D01*
X149985145Y-126920180D01*
X149970868Y-126870000D01*
X149929128Y-126723299D01*
X149837888Y-126540065D01*
X149748452Y-126421632D01*
X149714533Y-126376715D01*
X149563263Y-126238814D01*
X149389233Y-126131059D01*
X149389228Y-126131057D01*
X149389227Y-126131056D01*
X149285508Y-126090875D01*
X149198359Y-126057113D01*
X149198360Y-126057113D01*
X149198357Y-126057112D01*
X149198356Y-126057112D01*
X148997147Y-126019500D01*
X148792453Y-126019500D01*
X148591244Y-126057112D01*
X148591239Y-126057113D01*
X148400377Y-126131054D01*
X148400366Y-126131059D01*
X148226336Y-126238814D01*
X148075066Y-126376715D01*
X147951713Y-126540063D01*
X147860471Y-126723301D01*
X147804454Y-126920180D01*
X147785568Y-127123995D01*
X147785568Y-127124004D01*
X147464032Y-127124004D01*
X147464032Y-127123995D01*
X147445145Y-126920180D01*
X147430868Y-126870000D01*
X147389128Y-126723299D01*
X147297888Y-126540065D01*
X147208452Y-126421632D01*
X147174533Y-126376715D01*
X147023263Y-126238814D01*
X146849233Y-126131059D01*
X146849228Y-126131057D01*
X146849227Y-126131056D01*
X146745508Y-126090875D01*
X146658359Y-126057113D01*
X146658360Y-126057113D01*
X146658357Y-126057112D01*
X146658356Y-126057112D01*
X146457147Y-126019500D01*
X146252453Y-126019500D01*
X146051244Y-126057112D01*
X146051239Y-126057113D01*
X145860377Y-126131054D01*
X145860366Y-126131059D01*
X145686336Y-126238814D01*
X145535066Y-126376715D01*
X145411713Y-126540063D01*
X145320471Y-126723301D01*
X145264454Y-126920180D01*
X145245568Y-127123995D01*
X145245568Y-127124004D01*
X143010617Y-127124004D01*
X143019400Y-127091226D01*
X143019400Y-126959574D01*
X142985325Y-126832407D01*
X142950103Y-126771400D01*
X143594949Y-126771400D01*
X143594949Y-126771399D01*
X143553261Y-126624885D01*
X143553259Y-126624880D01*
X143462059Y-126441727D01*
X143338762Y-126278453D01*
X143187561Y-126140615D01*
X143013603Y-126032906D01*
X143013596Y-126032903D01*
X142822824Y-125958996D01*
X142773400Y-125949757D01*
X142773400Y-126594697D01*
X142712393Y-126559475D01*
X142585226Y-126525400D01*
X142453574Y-126525400D01*
X142326407Y-126559475D01*
X142265400Y-126594697D01*
X142265400Y-126137257D01*
X142285402Y-126069136D01*
X142287706Y-126065678D01*
X142290387Y-126061794D01*
X142346749Y-125913181D01*
X142346749Y-125913180D01*
X142346750Y-125913178D01*
X142365907Y-125755402D01*
X142365907Y-125755400D01*
X142365906Y-125755395D01*
X142362955Y-125731085D01*
X142374602Y-125661051D01*
X142422263Y-125608430D01*
X142488037Y-125589900D01*
X142621745Y-125589900D01*
X142621747Y-125589900D01*
X142822956Y-125552288D01*
X143013827Y-125478344D01*
X143187862Y-125370586D01*
X143339132Y-125232685D01*
X143462488Y-125069335D01*
X143553728Y-124886101D01*
X143609745Y-124689221D01*
X143628632Y-124485400D01*
X143616864Y-124358403D01*
X154382293Y-124358403D01*
X154401449Y-124516179D01*
X154450047Y-124644319D01*
X154457813Y-124664795D01*
X154548102Y-124795601D01*
X154667071Y-124900999D01*
X154667072Y-124900999D01*
X154667074Y-124901001D01*
X154741800Y-124940220D01*
X154807807Y-124974863D01*
X154962129Y-125012900D01*
X154962130Y-125012900D01*
X155121070Y-125012900D01*
X155121071Y-125012900D01*
X155275393Y-124974863D01*
X155416129Y-124900999D01*
X155535098Y-124795601D01*
X155625387Y-124664795D01*
X155681749Y-124516182D01*
X155681749Y-124516181D01*
X155681750Y-124516179D01*
X155700907Y-124358403D01*
X155700907Y-124358396D01*
X155681750Y-124200620D01*
X155637787Y-124084701D01*
X155625387Y-124052005D01*
X155535098Y-123921199D01*
X155416129Y-123815801D01*
X155416128Y-123815800D01*
X155416125Y-123815798D01*
X155275397Y-123741939D01*
X155275395Y-123741938D01*
X155275393Y-123741937D01*
X155275391Y-123741936D01*
X155275390Y-123741936D01*
X155121072Y-123703900D01*
X155121071Y-123703900D01*
X154962129Y-123703900D01*
X154962127Y-123703900D01*
X154807809Y-123741936D01*
X154807802Y-123741939D01*
X154667074Y-123815798D01*
X154667069Y-123815802D01*
X154548101Y-123921200D01*
X154457815Y-124052001D01*
X154457812Y-124052007D01*
X154401449Y-124200620D01*
X154382293Y-124358396D01*
X154382293Y-124358403D01*
X143616864Y-124358403D01*
X143609745Y-124281579D01*
X143553728Y-124084699D01*
X143462488Y-123901465D01*
X143409926Y-123831862D01*
X143339133Y-123738115D01*
X143187863Y-123600214D01*
X143013833Y-123492459D01*
X143013828Y-123492457D01*
X143013827Y-123492456D01*
X142822959Y-123418513D01*
X142822960Y-123418513D01*
X142822957Y-123418512D01*
X142822956Y-123418512D01*
X142621747Y-123380900D01*
X142488036Y-123380900D01*
X142419915Y-123360898D01*
X142373422Y-123307242D01*
X142362955Y-123239712D01*
X142365907Y-123215401D01*
X142365907Y-123215400D01*
X142365906Y-123215395D01*
X142362955Y-123191085D01*
X142374602Y-123121051D01*
X142422263Y-123068430D01*
X142488037Y-123049900D01*
X142621745Y-123049900D01*
X142621747Y-123049900D01*
X142822956Y-123012288D01*
X143013827Y-122938344D01*
X143187862Y-122830586D01*
X143339132Y-122692685D01*
X143462488Y-122529335D01*
X143553728Y-122346101D01*
X143609745Y-122149221D01*
X143628632Y-121945400D01*
X143609745Y-121741579D01*
X143591676Y-121678073D01*
X143592272Y-121607081D01*
X143623767Y-121554502D01*
X144828101Y-120350170D01*
X144862502Y-120290585D01*
X144870208Y-120277238D01*
X144870208Y-120277237D01*
X144894519Y-120235130D01*
X144928900Y-120106819D01*
X144928900Y-119888003D01*
X152807493Y-119888003D01*
X152826649Y-120045779D01*
X152859653Y-120132800D01*
X152883013Y-120194395D01*
X152973302Y-120325201D01*
X153092271Y-120430599D01*
X153092272Y-120430599D01*
X153092274Y-120430601D01*
X153167000Y-120469820D01*
X153233007Y-120504463D01*
X153387329Y-120542500D01*
X153387330Y-120542500D01*
X153546270Y-120542500D01*
X153546271Y-120542500D01*
X153700593Y-120504463D01*
X153841329Y-120430599D01*
X153960298Y-120325201D01*
X154050587Y-120194395D01*
X154106949Y-120045782D01*
X154106949Y-120045781D01*
X154106950Y-120045779D01*
X154126107Y-119888003D01*
X154126107Y-119887996D01*
X154106950Y-119730220D01*
X154061060Y-119609221D01*
X154050587Y-119581605D01*
X153960298Y-119450799D01*
X153841329Y-119345401D01*
X153841328Y-119345400D01*
X153841325Y-119345398D01*
X153700597Y-119271539D01*
X153700595Y-119271538D01*
X153700593Y-119271537D01*
X153700591Y-119271536D01*
X153700590Y-119271536D01*
X153546272Y-119233500D01*
X153546271Y-119233500D01*
X153387329Y-119233500D01*
X153387327Y-119233500D01*
X153233009Y-119271536D01*
X153233002Y-119271539D01*
X153092274Y-119345398D01*
X153092269Y-119345402D01*
X152973301Y-119450800D01*
X152883015Y-119581601D01*
X152883012Y-119581607D01*
X152826649Y-119730220D01*
X152807493Y-119887996D01*
X152807493Y-119888003D01*
X144928900Y-119888003D01*
X144928900Y-117398803D01*
X150369093Y-117398803D01*
X150388249Y-117556579D01*
X150444612Y-117705192D01*
X150444615Y-117705198D01*
X150458771Y-117725706D01*
X150534902Y-117836001D01*
X150653871Y-117941399D01*
X150653872Y-117941399D01*
X150653874Y-117941401D01*
X150702270Y-117966801D01*
X150794607Y-118015263D01*
X150948929Y-118053300D01*
X150948930Y-118053300D01*
X151107870Y-118053300D01*
X151107871Y-118053300D01*
X151262193Y-118015263D01*
X151402929Y-117941399D01*
X151517131Y-117840223D01*
X151581382Y-117810024D01*
X151651762Y-117819355D01*
X151696971Y-117856823D01*
X151698246Y-117855694D01*
X151703299Y-117861397D01*
X151703302Y-117861401D01*
X151822271Y-117966799D01*
X151822272Y-117966799D01*
X151822274Y-117966801D01*
X151863485Y-117988430D01*
X151963007Y-118040663D01*
X152117329Y-118078700D01*
X152117330Y-118078700D01*
X152276270Y-118078700D01*
X152276271Y-118078700D01*
X152430593Y-118040663D01*
X152571329Y-117966799D01*
X152690298Y-117861401D01*
X152780587Y-117730595D01*
X152836949Y-117581982D01*
X152836949Y-117581981D01*
X152836950Y-117581979D01*
X152856107Y-117424203D01*
X152856107Y-117424196D01*
X152836950Y-117266420D01*
X152823338Y-117230531D01*
X152780587Y-117117805D01*
X152690298Y-116986999D01*
X152571329Y-116881601D01*
X152571328Y-116881600D01*
X152571325Y-116881598D01*
X152430597Y-116807739D01*
X152430595Y-116807738D01*
X152430593Y-116807737D01*
X152430591Y-116807736D01*
X152430590Y-116807736D01*
X152276272Y-116769700D01*
X152276271Y-116769700D01*
X152117329Y-116769700D01*
X152117327Y-116769700D01*
X151963009Y-116807736D01*
X151963002Y-116807739D01*
X151822274Y-116881598D01*
X151822270Y-116881602D01*
X151708069Y-116982775D01*
X151643816Y-117012975D01*
X151573436Y-117003644D01*
X151528229Y-116966176D01*
X151526954Y-116967306D01*
X151521899Y-116961601D01*
X151521898Y-116961599D01*
X151402929Y-116856201D01*
X151402928Y-116856200D01*
X151402925Y-116856198D01*
X151262197Y-116782339D01*
X151262195Y-116782338D01*
X151262193Y-116782337D01*
X151262191Y-116782336D01*
X151262190Y-116782336D01*
X151107872Y-116744300D01*
X151107871Y-116744300D01*
X150948929Y-116744300D01*
X150948927Y-116744300D01*
X150794609Y-116782336D01*
X150794602Y-116782339D01*
X150653874Y-116856198D01*
X150653869Y-116856202D01*
X150534901Y-116961600D01*
X150444615Y-117092401D01*
X150444612Y-117092407D01*
X150388249Y-117241020D01*
X150369093Y-117398796D01*
X150369093Y-117398803D01*
X144928900Y-117398803D01*
X144928900Y-113284003D01*
X150775493Y-113284003D01*
X150794649Y-113441779D01*
X150824194Y-113519680D01*
X150851013Y-113590395D01*
X150941302Y-113721201D01*
X151060271Y-113826599D01*
X151060272Y-113826599D01*
X151060274Y-113826601D01*
X151135000Y-113865820D01*
X151201007Y-113900463D01*
X151355329Y-113938500D01*
X151355330Y-113938500D01*
X151514270Y-113938500D01*
X151514271Y-113938500D01*
X151668593Y-113900463D01*
X151809329Y-113826599D01*
X151928298Y-113721201D01*
X152018587Y-113590395D01*
X152074949Y-113441782D01*
X152074949Y-113441781D01*
X152074950Y-113441779D01*
X152094107Y-113284003D01*
X152094107Y-113283996D01*
X152074950Y-113126220D01*
X152048091Y-113055400D01*
X152018587Y-112977605D01*
X151928298Y-112846799D01*
X151809329Y-112741401D01*
X151809328Y-112741400D01*
X151809325Y-112741398D01*
X151668597Y-112667539D01*
X151668595Y-112667538D01*
X151668593Y-112667537D01*
X151668591Y-112667536D01*
X151668590Y-112667536D01*
X151514272Y-112629500D01*
X151514271Y-112629500D01*
X151355329Y-112629500D01*
X151355327Y-112629500D01*
X151201009Y-112667536D01*
X151201002Y-112667539D01*
X151060274Y-112741398D01*
X151060269Y-112741402D01*
X150941301Y-112846800D01*
X150851015Y-112977601D01*
X150851012Y-112977607D01*
X150794649Y-113126220D01*
X150775493Y-113283996D01*
X150775493Y-113284003D01*
X144928900Y-113284003D01*
X144928900Y-111328203D01*
X149099093Y-111328203D01*
X149118249Y-111485979D01*
X149154506Y-111581579D01*
X149174613Y-111634595D01*
X149264902Y-111765401D01*
X149383871Y-111870799D01*
X149383872Y-111870799D01*
X149383874Y-111870801D01*
X149458600Y-111910020D01*
X149524607Y-111944663D01*
X149678929Y-111982700D01*
X149678930Y-111982700D01*
X149837870Y-111982700D01*
X149837871Y-111982700D01*
X149992193Y-111944663D01*
X150132929Y-111870799D01*
X150251898Y-111765401D01*
X150342187Y-111634595D01*
X150398549Y-111485982D01*
X150398549Y-111485981D01*
X150398550Y-111485979D01*
X150417707Y-111328203D01*
X150417707Y-111328196D01*
X150398550Y-111170420D01*
X150383990Y-111132030D01*
X150342187Y-111021805D01*
X150251898Y-110890999D01*
X150132929Y-110785601D01*
X150132928Y-110785600D01*
X150132925Y-110785598D01*
X149992197Y-110711739D01*
X149992195Y-110711738D01*
X149992193Y-110711737D01*
X149992191Y-110711736D01*
X149992190Y-110711736D01*
X149837872Y-110673700D01*
X149837871Y-110673700D01*
X149678929Y-110673700D01*
X149678927Y-110673700D01*
X149524609Y-110711736D01*
X149524602Y-110711739D01*
X149383874Y-110785598D01*
X149383869Y-110785602D01*
X149264901Y-110891000D01*
X149174615Y-111021801D01*
X149174612Y-111021807D01*
X149118249Y-111170420D01*
X149099093Y-111328196D01*
X149099093Y-111328203D01*
X144928900Y-111328203D01*
X144928900Y-110381344D01*
X150986610Y-110381344D01*
X151005766Y-110539120D01*
X151031602Y-110607242D01*
X151062130Y-110687736D01*
X151152419Y-110818542D01*
X151271388Y-110923940D01*
X151271389Y-110923940D01*
X151271391Y-110923942D01*
X151325991Y-110952598D01*
X151412124Y-110997804D01*
X151566446Y-111035841D01*
X151566447Y-111035841D01*
X151725387Y-111035841D01*
X151725388Y-111035841D01*
X151879710Y-110997804D01*
X152020446Y-110923940D01*
X152139415Y-110818542D01*
X152229704Y-110687736D01*
X152286066Y-110539123D01*
X152286066Y-110539122D01*
X152286067Y-110539120D01*
X152305224Y-110381344D01*
X152305224Y-110381337D01*
X152286067Y-110223561D01*
X152260595Y-110156399D01*
X152229704Y-110074946D01*
X152139415Y-109944140D01*
X152020446Y-109838742D01*
X152020445Y-109838741D01*
X152020442Y-109838739D01*
X151879714Y-109764880D01*
X151879712Y-109764879D01*
X151879710Y-109764878D01*
X151879708Y-109764877D01*
X151879707Y-109764877D01*
X151725389Y-109726841D01*
X151725388Y-109726841D01*
X151566446Y-109726841D01*
X151566444Y-109726841D01*
X151412126Y-109764877D01*
X151412119Y-109764880D01*
X151271391Y-109838739D01*
X151271386Y-109838743D01*
X151152418Y-109944141D01*
X151062132Y-110074942D01*
X151062129Y-110074948D01*
X151005766Y-110223561D01*
X150986610Y-110381337D01*
X150986610Y-110381344D01*
X144928900Y-110381344D01*
X144928900Y-109613803D01*
X145787511Y-109613803D01*
X145806667Y-109771579D01*
X145832140Y-109838743D01*
X145863031Y-109920195D01*
X145953320Y-110051001D01*
X146072289Y-110156399D01*
X146072290Y-110156399D01*
X146072292Y-110156401D01*
X146147018Y-110195620D01*
X146213025Y-110230263D01*
X146367347Y-110268300D01*
X146367348Y-110268300D01*
X146526288Y-110268300D01*
X146526289Y-110268300D01*
X146680611Y-110230263D01*
X146821347Y-110156399D01*
X146940316Y-110051001D01*
X147030605Y-109920195D01*
X147086967Y-109771582D01*
X147086967Y-109771581D01*
X147086968Y-109771579D01*
X147106125Y-109613803D01*
X147106125Y-109613796D01*
X147086968Y-109456020D01*
X147043019Y-109340139D01*
X147030605Y-109307405D01*
X146940316Y-109176599D01*
X146821347Y-109071201D01*
X146821346Y-109071200D01*
X146821343Y-109071198D01*
X146680615Y-108997339D01*
X146680613Y-108997338D01*
X146680611Y-108997337D01*
X146680609Y-108997336D01*
X146680608Y-108997336D01*
X146526290Y-108959300D01*
X146526289Y-108959300D01*
X146367347Y-108959300D01*
X146367345Y-108959300D01*
X146213027Y-108997336D01*
X146213020Y-108997339D01*
X146072292Y-109071198D01*
X146072287Y-109071202D01*
X145953319Y-109176600D01*
X145863033Y-109307401D01*
X145863030Y-109307407D01*
X145806667Y-109456020D01*
X145787511Y-109613796D01*
X145787511Y-109613803D01*
X144928900Y-109613803D01*
X144928900Y-108160361D01*
X144948902Y-108092240D01*
X144965805Y-108071266D01*
X145714268Y-107322803D01*
X154875493Y-107322803D01*
X154894649Y-107480579D01*
X154916502Y-107538198D01*
X154951013Y-107629195D01*
X155041302Y-107760001D01*
X155160271Y-107865399D01*
X155160272Y-107865399D01*
X155160274Y-107865401D01*
X155190093Y-107881051D01*
X155301007Y-107939263D01*
X155455329Y-107977300D01*
X155455330Y-107977300D01*
X155614270Y-107977300D01*
X155614271Y-107977300D01*
X155768593Y-107939263D01*
X155909329Y-107865399D01*
X156028298Y-107760001D01*
X156118587Y-107629195D01*
X156174949Y-107480582D01*
X156174949Y-107480581D01*
X156174950Y-107480579D01*
X156194107Y-107322803D01*
X156194107Y-107322796D01*
X156174950Y-107165020D01*
X156161338Y-107129131D01*
X156118587Y-107016405D01*
X156028298Y-106885599D01*
X155909329Y-106780201D01*
X155909328Y-106780200D01*
X155909325Y-106780198D01*
X155768597Y-106706339D01*
X155768595Y-106706338D01*
X155768593Y-106706337D01*
X155768591Y-106706336D01*
X155768590Y-106706336D01*
X155614272Y-106668300D01*
X155614271Y-106668300D01*
X155455329Y-106668300D01*
X155455327Y-106668300D01*
X155301009Y-106706336D01*
X155301002Y-106706339D01*
X155160274Y-106780198D01*
X155160269Y-106780202D01*
X155041301Y-106885600D01*
X154951015Y-107016401D01*
X154951012Y-107016407D01*
X154894649Y-107165020D01*
X154875493Y-107322796D01*
X154875493Y-107322803D01*
X145714268Y-107322803D01*
X146382468Y-106654603D01*
X149505493Y-106654603D01*
X149524649Y-106812379D01*
X149573247Y-106940519D01*
X149581013Y-106960995D01*
X149671302Y-107091801D01*
X149790271Y-107197199D01*
X149790272Y-107197199D01*
X149790274Y-107197201D01*
X149865000Y-107236420D01*
X149931007Y-107271063D01*
X150085329Y-107309100D01*
X150085330Y-107309100D01*
X150244270Y-107309100D01*
X150244271Y-107309100D01*
X150398593Y-107271063D01*
X150539329Y-107197199D01*
X150658298Y-107091801D01*
X150748587Y-106960995D01*
X150804949Y-106812382D01*
X150804949Y-106812381D01*
X150804950Y-106812379D01*
X150824107Y-106654603D01*
X150824107Y-106654596D01*
X150804950Y-106496820D01*
X150791338Y-106460931D01*
X150748587Y-106348205D01*
X150658298Y-106217399D01*
X150539329Y-106112001D01*
X150539328Y-106112000D01*
X150539325Y-106111998D01*
X150398597Y-106038139D01*
X150398595Y-106038138D01*
X150398593Y-106038137D01*
X150398591Y-106038136D01*
X150398590Y-106038136D01*
X150244272Y-106000100D01*
X150244271Y-106000100D01*
X150085329Y-106000100D01*
X150085327Y-106000100D01*
X149931009Y-106038136D01*
X149931002Y-106038139D01*
X149790274Y-106111998D01*
X149790269Y-106112002D01*
X149671301Y-106217400D01*
X149581015Y-106348201D01*
X149581012Y-106348207D01*
X149524649Y-106496820D01*
X149505493Y-106654596D01*
X149505493Y-106654603D01*
X146382468Y-106654603D01*
X147164895Y-105872176D01*
X147164901Y-105872170D01*
X147231319Y-105757130D01*
X147243289Y-105712456D01*
X147265700Y-105628819D01*
X147265700Y-105435403D01*
X148311693Y-105435403D01*
X148330849Y-105593179D01*
X148362544Y-105676750D01*
X148387213Y-105741795D01*
X148477502Y-105872601D01*
X148596471Y-105977999D01*
X148596472Y-105977999D01*
X148596474Y-105978001D01*
X148638581Y-106000100D01*
X148737207Y-106051863D01*
X148891529Y-106089900D01*
X148891530Y-106089900D01*
X149050470Y-106089900D01*
X149050471Y-106089900D01*
X149204793Y-106051863D01*
X149345529Y-105977999D01*
X149464498Y-105872601D01*
X149554787Y-105741795D01*
X149611149Y-105593182D01*
X149611149Y-105593181D01*
X149611150Y-105593179D01*
X149630307Y-105435403D01*
X150699293Y-105435403D01*
X150718449Y-105593179D01*
X150750144Y-105676750D01*
X150774813Y-105741795D01*
X150865102Y-105872601D01*
X150984071Y-105977999D01*
X150984072Y-105977999D01*
X150984074Y-105978001D01*
X151026181Y-106000100D01*
X151124807Y-106051863D01*
X151279129Y-106089900D01*
X151279130Y-106089900D01*
X151438070Y-106089900D01*
X151438071Y-106089900D01*
X151592393Y-106051863D01*
X151733129Y-105977999D01*
X151852098Y-105872601D01*
X151942387Y-105741795D01*
X151998749Y-105593182D01*
X151998749Y-105593181D01*
X151998750Y-105593179D01*
X152017907Y-105435403D01*
X152017907Y-105435396D01*
X151998750Y-105277620D01*
X151953514Y-105158345D01*
X151942387Y-105129005D01*
X151852098Y-104998199D01*
X151733129Y-104892801D01*
X151733128Y-104892800D01*
X151733125Y-104892798D01*
X151592397Y-104818939D01*
X151592395Y-104818938D01*
X151592393Y-104818937D01*
X151592391Y-104818936D01*
X151592390Y-104818936D01*
X151438072Y-104780900D01*
X151438071Y-104780900D01*
X151279129Y-104780900D01*
X151279127Y-104780900D01*
X151124809Y-104818936D01*
X151124802Y-104818939D01*
X150984074Y-104892798D01*
X150984069Y-104892802D01*
X150865101Y-104998200D01*
X150774815Y-105129001D01*
X150774812Y-105129007D01*
X150718449Y-105277620D01*
X150699293Y-105435396D01*
X150699293Y-105435403D01*
X149630307Y-105435403D01*
X149630307Y-105435396D01*
X149611150Y-105277620D01*
X149565914Y-105158345D01*
X149554787Y-105129005D01*
X149464498Y-104998199D01*
X149345529Y-104892801D01*
X149345528Y-104892800D01*
X149345525Y-104892798D01*
X149204797Y-104818939D01*
X149204795Y-104818938D01*
X149204793Y-104818937D01*
X149204791Y-104818936D01*
X149204790Y-104818936D01*
X149050472Y-104780900D01*
X149050471Y-104780900D01*
X148891529Y-104780900D01*
X148891527Y-104780900D01*
X148737209Y-104818936D01*
X148737202Y-104818939D01*
X148596474Y-104892798D01*
X148596469Y-104892802D01*
X148477501Y-104998200D01*
X148387215Y-105129001D01*
X148387212Y-105129007D01*
X148330849Y-105277620D01*
X148311693Y-105435396D01*
X148311693Y-105435403D01*
X147265700Y-105435403D01*
X147265700Y-104216203D01*
X149505493Y-104216203D01*
X149524649Y-104373979D01*
X149573247Y-104502119D01*
X149581013Y-104522595D01*
X149671302Y-104653401D01*
X149790271Y-104758799D01*
X149790272Y-104758799D01*
X149790274Y-104758801D01*
X149832381Y-104780900D01*
X149931007Y-104832663D01*
X150085329Y-104870700D01*
X150085330Y-104870700D01*
X150244270Y-104870700D01*
X150244271Y-104870700D01*
X150398593Y-104832663D01*
X150539329Y-104758799D01*
X150658298Y-104653401D01*
X150748587Y-104522595D01*
X150804949Y-104373982D01*
X150804949Y-104373981D01*
X150804950Y-104373979D01*
X150824107Y-104216203D01*
X150824107Y-104216196D01*
X150804950Y-104058420D01*
X150783423Y-104001659D01*
X150748587Y-103909805D01*
X150658298Y-103778999D01*
X150539329Y-103673601D01*
X150539328Y-103673600D01*
X150539325Y-103673598D01*
X150398597Y-103599739D01*
X150398595Y-103599738D01*
X150398593Y-103599737D01*
X150398591Y-103599736D01*
X150398590Y-103599736D01*
X150244272Y-103561700D01*
X150244271Y-103561700D01*
X150085329Y-103561700D01*
X150085327Y-103561700D01*
X149931009Y-103599736D01*
X149931002Y-103599739D01*
X149790274Y-103673598D01*
X149790269Y-103673602D01*
X149671301Y-103779000D01*
X149581015Y-103909801D01*
X149581012Y-103909807D01*
X149524649Y-104058420D01*
X149505493Y-104216196D01*
X149505493Y-104216203D01*
X147265700Y-104216203D01*
X147265700Y-99009203D01*
X148438693Y-99009203D01*
X148457849Y-99166979D01*
X148504210Y-99289219D01*
X148514213Y-99315595D01*
X148604502Y-99446401D01*
X148723471Y-99551799D01*
X148723472Y-99551799D01*
X148723474Y-99551801D01*
X148760122Y-99571035D01*
X148864207Y-99625663D01*
X149018529Y-99663700D01*
X149018530Y-99663700D01*
X149177470Y-99663700D01*
X149177471Y-99663700D01*
X149331793Y-99625663D01*
X149472529Y-99551799D01*
X149591498Y-99446401D01*
X149681787Y-99315595D01*
X149738149Y-99166982D01*
X149738149Y-99166981D01*
X149738150Y-99166979D01*
X149757307Y-99009203D01*
X149757307Y-99009196D01*
X149738150Y-98851420D01*
X149724538Y-98815531D01*
X149681787Y-98702805D01*
X149591498Y-98571999D01*
X149472529Y-98466601D01*
X149472528Y-98466600D01*
X149472525Y-98466598D01*
X149331797Y-98392739D01*
X149331795Y-98392738D01*
X149331793Y-98392737D01*
X149331791Y-98392736D01*
X149331790Y-98392736D01*
X149177472Y-98354700D01*
X149177471Y-98354700D01*
X149018529Y-98354700D01*
X149018527Y-98354700D01*
X148864209Y-98392736D01*
X148864202Y-98392739D01*
X148723474Y-98466598D01*
X148723469Y-98466602D01*
X148604501Y-98572000D01*
X148514215Y-98702801D01*
X148514212Y-98702807D01*
X148457849Y-98851420D01*
X148438693Y-99009196D01*
X148438693Y-99009203D01*
X147265700Y-99009203D01*
X147265700Y-97129603D01*
X152096293Y-97129603D01*
X152115449Y-97287379D01*
X152152667Y-97385512D01*
X152171813Y-97435995D01*
X152262102Y-97566801D01*
X152381071Y-97672199D01*
X152381072Y-97672199D01*
X152381074Y-97672201D01*
X152455800Y-97711420D01*
X152521807Y-97746063D01*
X152676129Y-97784100D01*
X152676130Y-97784100D01*
X152835070Y-97784100D01*
X152835071Y-97784100D01*
X152989393Y-97746063D01*
X153130129Y-97672199D01*
X153249098Y-97566801D01*
X153339387Y-97435995D01*
X153395749Y-97287382D01*
X153395749Y-97287381D01*
X153395750Y-97287379D01*
X153414907Y-97129603D01*
X153414907Y-97129596D01*
X153395750Y-96971820D01*
X153382138Y-96935931D01*
X153339387Y-96823205D01*
X153249098Y-96692399D01*
X153130129Y-96587001D01*
X153130128Y-96587000D01*
X153130125Y-96586998D01*
X152989397Y-96513139D01*
X152989395Y-96513138D01*
X152989393Y-96513137D01*
X152989391Y-96513136D01*
X152989390Y-96513136D01*
X152835072Y-96475100D01*
X152835071Y-96475100D01*
X152676129Y-96475100D01*
X152676127Y-96475100D01*
X152521809Y-96513136D01*
X152521802Y-96513139D01*
X152381074Y-96586998D01*
X152381069Y-96587002D01*
X152262101Y-96692400D01*
X152171815Y-96823201D01*
X152171812Y-96823207D01*
X152115449Y-96971820D01*
X152096293Y-97129596D01*
X152096293Y-97129603D01*
X147265700Y-97129603D01*
X147265700Y-96088203D01*
X149403893Y-96088203D01*
X149423049Y-96245979D01*
X149459306Y-96341579D01*
X149479413Y-96394595D01*
X149569702Y-96525401D01*
X149688671Y-96630799D01*
X149688672Y-96630799D01*
X149688674Y-96630801D01*
X149763400Y-96670020D01*
X149829407Y-96704663D01*
X149983729Y-96742700D01*
X149983730Y-96742700D01*
X150142670Y-96742700D01*
X150142671Y-96742700D01*
X150296993Y-96704663D01*
X150437729Y-96630799D01*
X150556698Y-96525401D01*
X150646987Y-96394595D01*
X150703349Y-96245982D01*
X150703349Y-96245981D01*
X150703350Y-96245979D01*
X150722507Y-96088203D01*
X150722507Y-96088196D01*
X150703350Y-95930420D01*
X150688790Y-95892030D01*
X150646987Y-95781805D01*
X150556698Y-95650999D01*
X150437729Y-95545601D01*
X150437728Y-95545600D01*
X150437725Y-95545598D01*
X150296997Y-95471739D01*
X150296995Y-95471738D01*
X150296993Y-95471737D01*
X150296991Y-95471736D01*
X150296990Y-95471736D01*
X150142672Y-95433700D01*
X150142671Y-95433700D01*
X149983729Y-95433700D01*
X149983727Y-95433700D01*
X149829409Y-95471736D01*
X149829402Y-95471739D01*
X149688674Y-95545598D01*
X149688669Y-95545602D01*
X149569701Y-95651000D01*
X149479415Y-95781801D01*
X149479412Y-95781807D01*
X149423049Y-95930420D01*
X149403893Y-96088196D01*
X149403893Y-96088203D01*
X147265700Y-96088203D01*
X147265700Y-94919803D01*
X150673493Y-94919803D01*
X150692649Y-95077579D01*
X150731892Y-95181051D01*
X150749013Y-95226195D01*
X150839302Y-95357001D01*
X150958271Y-95462399D01*
X150958272Y-95462399D01*
X150958274Y-95462401D01*
X151033000Y-95501620D01*
X151099007Y-95536263D01*
X151253329Y-95574300D01*
X151253330Y-95574300D01*
X151412270Y-95574300D01*
X151412271Y-95574300D01*
X151566593Y-95536263D01*
X151707329Y-95462399D01*
X151826298Y-95357001D01*
X151916587Y-95226195D01*
X151972949Y-95077582D01*
X151972949Y-95077581D01*
X151972950Y-95077579D01*
X151992107Y-94919803D01*
X151992107Y-94919796D01*
X151972950Y-94762020D01*
X151947947Y-94696093D01*
X151916587Y-94613405D01*
X151826298Y-94482599D01*
X151707329Y-94377201D01*
X151707328Y-94377200D01*
X151707325Y-94377198D01*
X151566597Y-94303339D01*
X151566595Y-94303338D01*
X151566593Y-94303337D01*
X151566591Y-94303336D01*
X151566590Y-94303336D01*
X151412272Y-94265300D01*
X151412271Y-94265300D01*
X151253329Y-94265300D01*
X151253327Y-94265300D01*
X151099009Y-94303336D01*
X151099002Y-94303339D01*
X150958274Y-94377198D01*
X150958269Y-94377202D01*
X150839301Y-94482600D01*
X150749015Y-94613401D01*
X150749012Y-94613407D01*
X150692649Y-94762020D01*
X150673493Y-94919796D01*
X150673493Y-94919803D01*
X147265700Y-94919803D01*
X147265700Y-93758560D01*
X147285702Y-93690439D01*
X147302605Y-93669465D01*
X147576267Y-93395803D01*
X151435893Y-93395803D01*
X151455049Y-93553579D01*
X151474438Y-93604701D01*
X151511413Y-93702195D01*
X151601702Y-93833001D01*
X151720671Y-93938399D01*
X151720672Y-93938399D01*
X151720674Y-93938401D01*
X151795400Y-93977620D01*
X151861407Y-94012263D01*
X152015729Y-94050300D01*
X152015730Y-94050300D01*
X152174670Y-94050300D01*
X152174671Y-94050300D01*
X152328993Y-94012263D01*
X152469729Y-93938399D01*
X152588698Y-93833001D01*
X152678987Y-93702195D01*
X152735349Y-93553582D01*
X152735349Y-93553581D01*
X152735350Y-93553579D01*
X152754507Y-93395803D01*
X152754507Y-93395796D01*
X152735350Y-93238020D01*
X152690671Y-93120214D01*
X152678987Y-93089405D01*
X152588698Y-92958599D01*
X152469729Y-92853201D01*
X152469728Y-92853200D01*
X152469725Y-92853198D01*
X152328997Y-92779339D01*
X152328995Y-92779338D01*
X152328993Y-92779337D01*
X152328991Y-92779336D01*
X152328990Y-92779336D01*
X152174672Y-92741300D01*
X152174671Y-92741300D01*
X152015729Y-92741300D01*
X152015727Y-92741300D01*
X151861409Y-92779336D01*
X151861402Y-92779339D01*
X151720674Y-92853198D01*
X151720669Y-92853202D01*
X151601701Y-92958600D01*
X151511415Y-93089401D01*
X151511412Y-93089407D01*
X151455049Y-93238020D01*
X151435893Y-93395796D01*
X151435893Y-93395803D01*
X147576267Y-93395803D01*
X149710491Y-91261579D01*
X152452827Y-88519242D01*
X152511766Y-88486000D01*
X152659193Y-88449663D01*
X152799929Y-88375799D01*
X152918898Y-88270401D01*
X153009187Y-88139595D01*
X153065549Y-87990982D01*
X153071980Y-87938008D01*
X153100045Y-87872800D01*
X153107955Y-87864114D01*
X155013508Y-85958562D01*
X155075819Y-85924537D01*
X155146635Y-85929602D01*
X155203470Y-85972149D01*
X155228281Y-86038669D01*
X155227684Y-86062844D01*
X155219998Y-86126151D01*
X155219998Y-86126152D01*
X155239154Y-86283928D01*
X155295517Y-86432541D01*
X155295520Y-86432547D01*
X155382063Y-86557927D01*
X155404299Y-86625352D01*
X155386552Y-86694095D01*
X155382063Y-86701079D01*
X155300156Y-86819742D01*
X155300153Y-86819748D01*
X155243790Y-86968361D01*
X155224634Y-87126137D01*
X155224634Y-87126144D01*
X155243790Y-87283920D01*
X155300153Y-87432533D01*
X155300156Y-87432539D01*
X155390441Y-87563340D01*
X155390442Y-87563341D01*
X155390443Y-87563342D01*
X155486996Y-87648881D01*
X155524720Y-87709023D01*
X155529441Y-87743191D01*
X155529441Y-102311215D01*
X155553600Y-102401374D01*
X155600267Y-102482205D01*
X155600275Y-102482215D01*
X156730341Y-103612280D01*
X156764366Y-103674592D01*
X156759302Y-103745407D01*
X156754040Y-103757531D01*
X156750474Y-103764692D01*
X156750471Y-103764701D01*
X156694454Y-103961580D01*
X156675568Y-104165395D01*
X156675568Y-104165404D01*
X156694454Y-104369219D01*
X156738094Y-104522598D01*
X156750472Y-104566101D01*
X156841712Y-104749335D01*
X156856863Y-104769398D01*
X156965066Y-104912684D01*
X157116336Y-105050585D01*
X157290366Y-105158340D01*
X157290368Y-105158340D01*
X157290373Y-105158344D01*
X157481244Y-105232288D01*
X157682453Y-105269900D01*
X157682455Y-105269900D01*
X157816163Y-105269900D01*
X157884284Y-105289902D01*
X157930777Y-105343558D01*
X157941245Y-105411085D01*
X157938294Y-105435395D01*
X157938293Y-105435400D01*
X157938293Y-105435401D01*
X157941245Y-105459712D01*
X157929600Y-105529747D01*
X157881940Y-105582368D01*
X157816164Y-105600900D01*
X157682453Y-105600900D01*
X157533098Y-105628819D01*
X157481239Y-105638513D01*
X157290377Y-105712454D01*
X157290366Y-105712459D01*
X157116336Y-105820214D01*
X156965066Y-105958115D01*
X156841713Y-106121463D01*
X156750471Y-106304701D01*
X156694454Y-106501580D01*
X156675568Y-106705395D01*
X156675568Y-106705404D01*
X156694454Y-106909219D01*
X156724950Y-107016401D01*
X156750472Y-107106101D01*
X156841712Y-107289335D01*
X156841713Y-107289336D01*
X156965066Y-107452684D01*
X157116336Y-107590585D01*
X157290366Y-107698340D01*
X157290368Y-107698340D01*
X157290373Y-107698344D01*
X157481244Y-107772288D01*
X157682453Y-107809900D01*
X157682455Y-107809900D01*
X157816163Y-107809900D01*
X157884284Y-107829902D01*
X157930777Y-107883558D01*
X157941245Y-107951085D01*
X157938294Y-107975395D01*
X157938293Y-107975400D01*
X157938293Y-107975401D01*
X157941245Y-107999712D01*
X157929600Y-108069747D01*
X157881940Y-108122368D01*
X157816164Y-108140900D01*
X157682453Y-108140900D01*
X157481244Y-108178512D01*
X157481239Y-108178513D01*
X157290377Y-108252454D01*
X157290366Y-108252459D01*
X157116336Y-108360214D01*
X156965066Y-108498115D01*
X156841713Y-108661463D01*
X156750471Y-108844701D01*
X156694454Y-109041580D01*
X156675568Y-109245395D01*
X156675568Y-109245404D01*
X156694454Y-109449219D01*
X156741282Y-109613803D01*
X156750472Y-109646101D01*
X156841712Y-109829335D01*
X156841713Y-109829336D01*
X156965066Y-109992684D01*
X157116336Y-110130585D01*
X157290366Y-110238340D01*
X157290368Y-110238340D01*
X157290373Y-110238344D01*
X157481244Y-110312288D01*
X157682453Y-110349900D01*
X157682455Y-110349900D01*
X157816163Y-110349900D01*
X157884284Y-110369902D01*
X157930777Y-110423558D01*
X157941245Y-110491085D01*
X157938294Y-110515395D01*
X157938293Y-110515400D01*
X157938293Y-110515401D01*
X157941245Y-110539712D01*
X157929600Y-110609747D01*
X157881940Y-110662368D01*
X157816164Y-110680900D01*
X157682453Y-110680900D01*
X157517488Y-110711737D01*
X157481239Y-110718513D01*
X157290377Y-110792454D01*
X157290366Y-110792459D01*
X157116336Y-110900214D01*
X156965066Y-111038115D01*
X156841713Y-111201463D01*
X156750471Y-111384701D01*
X156694454Y-111581580D01*
X156675568Y-111785395D01*
X156675568Y-111785404D01*
X156694454Y-111989219D01*
X156694455Y-111989221D01*
X156750472Y-112186101D01*
X156841712Y-112369335D01*
X156841713Y-112369336D01*
X156965066Y-112532684D01*
X157116336Y-112670585D01*
X157290366Y-112778340D01*
X157290368Y-112778340D01*
X157290373Y-112778344D01*
X157481244Y-112852288D01*
X157682453Y-112889900D01*
X157682455Y-112889900D01*
X157816163Y-112889900D01*
X157884284Y-112909902D01*
X157930777Y-112963558D01*
X157941245Y-113031085D01*
X157938294Y-113055395D01*
X157938293Y-113055400D01*
X157938293Y-113055401D01*
X157941245Y-113079712D01*
X157929600Y-113149747D01*
X157881940Y-113202368D01*
X157816164Y-113220900D01*
X157682453Y-113220900D01*
X157481244Y-113258512D01*
X157481239Y-113258513D01*
X157290377Y-113332454D01*
X157290366Y-113332459D01*
X157116336Y-113440214D01*
X156965066Y-113578115D01*
X156841713Y-113741463D01*
X156750471Y-113924701D01*
X156694454Y-114121580D01*
X156675568Y-114325395D01*
X156675568Y-114325404D01*
X156694454Y-114529219D01*
X156694455Y-114529221D01*
X156750472Y-114726101D01*
X156841712Y-114909335D01*
X156841713Y-114909336D01*
X156965066Y-115072684D01*
X157116336Y-115210585D01*
X157290366Y-115318340D01*
X157290368Y-115318340D01*
X157290373Y-115318344D01*
X157481244Y-115392288D01*
X157682453Y-115429900D01*
X157682455Y-115429900D01*
X157816163Y-115429900D01*
X157884284Y-115449902D01*
X157930777Y-115503558D01*
X157941245Y-115571085D01*
X157938294Y-115595395D01*
X157938293Y-115595400D01*
X157938293Y-115595401D01*
X157941245Y-115619712D01*
X157929600Y-115689747D01*
X157881940Y-115742368D01*
X157816164Y-115760900D01*
X157682453Y-115760900D01*
X157481244Y-115798512D01*
X157481242Y-115798512D01*
X157481240Y-115798513D01*
X157394444Y-115832137D01*
X157323697Y-115838093D01*
X157260962Y-115804855D01*
X157259834Y-115803740D01*
X154709005Y-113252911D01*
X154674979Y-113190599D01*
X154672100Y-113163816D01*
X154672100Y-110551502D01*
X154692102Y-110483381D01*
X154714542Y-110457193D01*
X154786098Y-110393801D01*
X154876387Y-110262995D01*
X154932749Y-110114382D01*
X154932749Y-110114381D01*
X154932750Y-110114379D01*
X154951907Y-109956603D01*
X154951907Y-109956596D01*
X154932750Y-109798820D01*
X154905451Y-109726841D01*
X154876387Y-109650205D01*
X154786098Y-109519399D01*
X154667129Y-109414001D01*
X154667128Y-109414000D01*
X154667125Y-109413998D01*
X154526397Y-109340139D01*
X154526395Y-109340138D01*
X154526393Y-109340137D01*
X154526391Y-109340136D01*
X154526390Y-109340136D01*
X154372072Y-109302100D01*
X154372071Y-109302100D01*
X154213129Y-109302100D01*
X154213127Y-109302100D01*
X154058809Y-109340136D01*
X154058802Y-109340139D01*
X153918074Y-109413998D01*
X153918069Y-109414002D01*
X153799101Y-109519400D01*
X153708815Y-109650201D01*
X153708812Y-109650207D01*
X153652449Y-109798820D01*
X153633293Y-109956596D01*
X153633293Y-109956603D01*
X153652449Y-110114379D01*
X153708812Y-110262992D01*
X153708815Y-110262998D01*
X153799100Y-110393799D01*
X153799101Y-110393800D01*
X153799102Y-110393801D01*
X153870655Y-110457192D01*
X153908379Y-110517334D01*
X153913100Y-110551502D01*
X153913100Y-113315503D01*
X153913099Y-113315521D01*
X153913099Y-113423165D01*
X153933496Y-113499284D01*
X153933497Y-113499286D01*
X153938961Y-113519680D01*
X153988921Y-113606215D01*
X153988929Y-113606225D01*
X154066756Y-113684052D01*
X154066770Y-113684064D01*
X156719584Y-116336878D01*
X156753610Y-116399190D01*
X156751679Y-116460454D01*
X156694454Y-116661580D01*
X156675568Y-116865395D01*
X156675568Y-116865404D01*
X156694454Y-117069219D01*
X156694455Y-117069221D01*
X156750472Y-117266101D01*
X156841712Y-117449335D01*
X156841713Y-117449336D01*
X156965066Y-117612684D01*
X157116336Y-117750585D01*
X157290366Y-117858340D01*
X157290368Y-117858340D01*
X157290373Y-117858344D01*
X157481244Y-117932288D01*
X157682453Y-117969900D01*
X157682455Y-117969900D01*
X157816163Y-117969900D01*
X157884284Y-117989902D01*
X157930777Y-118043558D01*
X157941245Y-118111085D01*
X157938294Y-118135395D01*
X157938293Y-118135400D01*
X157938293Y-118135401D01*
X157941245Y-118159712D01*
X157929600Y-118229747D01*
X157881940Y-118282368D01*
X157816164Y-118300900D01*
X157682453Y-118300900D01*
X157481244Y-118338512D01*
X157481239Y-118338513D01*
X157290377Y-118412454D01*
X157290366Y-118412459D01*
X157116336Y-118520214D01*
X156965066Y-118658115D01*
X156841713Y-118821463D01*
X156750471Y-119004701D01*
X156694454Y-119201580D01*
X156675568Y-119405395D01*
X156675568Y-119405404D01*
X156694454Y-119609219D01*
X156694455Y-119609221D01*
X156750472Y-119806101D01*
X156841712Y-119989335D01*
X156841713Y-119989336D01*
X156965066Y-120152684D01*
X157116336Y-120290585D01*
X157290366Y-120398340D01*
X157290368Y-120398340D01*
X157290373Y-120398344D01*
X157481244Y-120472288D01*
X157682453Y-120509900D01*
X157682455Y-120509900D01*
X157816163Y-120509900D01*
X157884284Y-120529902D01*
X157930777Y-120583558D01*
X157941245Y-120651085D01*
X157938294Y-120675395D01*
X157938293Y-120675400D01*
X157938293Y-120675401D01*
X157941245Y-120699712D01*
X157929600Y-120769747D01*
X157881940Y-120822368D01*
X157816164Y-120840900D01*
X157682453Y-120840900D01*
X157481244Y-120878512D01*
X157481239Y-120878513D01*
X157290377Y-120952454D01*
X157290366Y-120952459D01*
X157116336Y-121060214D01*
X156965066Y-121198115D01*
X156841713Y-121361463D01*
X156750471Y-121544701D01*
X156694454Y-121741580D01*
X156675568Y-121945395D01*
X156675568Y-121945404D01*
X156694454Y-122149219D01*
X156694455Y-122149221D01*
X156750472Y-122346101D01*
X156841712Y-122529335D01*
X156841713Y-122529336D01*
X156965066Y-122692684D01*
X157116336Y-122830585D01*
X157290366Y-122938340D01*
X157290368Y-122938340D01*
X157290373Y-122938344D01*
X157481244Y-123012288D01*
X157682453Y-123049900D01*
X157682455Y-123049900D01*
X157816163Y-123049900D01*
X157884284Y-123069902D01*
X157930777Y-123123558D01*
X157941245Y-123191085D01*
X157938294Y-123215395D01*
X157938293Y-123215400D01*
X157938293Y-123215401D01*
X157941245Y-123239712D01*
X157929600Y-123309747D01*
X157881940Y-123362368D01*
X157816164Y-123380900D01*
X157682453Y-123380900D01*
X157481244Y-123418512D01*
X157481239Y-123418513D01*
X157290377Y-123492454D01*
X157290366Y-123492459D01*
X157116336Y-123600214D01*
X156965066Y-123738115D01*
X156841713Y-123901463D01*
X156750471Y-124084701D01*
X156694454Y-124281580D01*
X156675568Y-124485395D01*
X156675568Y-124485404D01*
X156694454Y-124689219D01*
X156750471Y-124886098D01*
X156750472Y-124886101D01*
X156841712Y-125069335D01*
X156841713Y-125069336D01*
X156965066Y-125232684D01*
X157116336Y-125370585D01*
X157290366Y-125478340D01*
X157290368Y-125478340D01*
X157290373Y-125478344D01*
X157481244Y-125552288D01*
X157682453Y-125589900D01*
X157682455Y-125589900D01*
X157816163Y-125589900D01*
X157884284Y-125609902D01*
X157930777Y-125663558D01*
X157941245Y-125731085D01*
X157938294Y-125755395D01*
X157938293Y-125755400D01*
X157938293Y-125755401D01*
X157941245Y-125779712D01*
X157929600Y-125849747D01*
X157881940Y-125902368D01*
X157816164Y-125920900D01*
X157682453Y-125920900D01*
X157528080Y-125949757D01*
X157481239Y-125958513D01*
X157290377Y-126032454D01*
X157290366Y-126032459D01*
X157116336Y-126140214D01*
X156965066Y-126278115D01*
X156914334Y-126345296D01*
X156857320Y-126387604D01*
X156786483Y-126392371D01*
X156730231Y-126363676D01*
X156635334Y-126279605D01*
X156635325Y-126279598D01*
X156494597Y-126205739D01*
X156494595Y-126205738D01*
X156494593Y-126205737D01*
X156494591Y-126205736D01*
X156494590Y-126205736D01*
X156340272Y-126167700D01*
X156340271Y-126167700D01*
X156181329Y-126167700D01*
X156181327Y-126167700D01*
X156027009Y-126205736D01*
X156027002Y-126205739D01*
X155886274Y-126279598D01*
X155886269Y-126279602D01*
X155767301Y-126385000D01*
X155677015Y-126515801D01*
X155677012Y-126515807D01*
X155620649Y-126664420D01*
X155601493Y-126822196D01*
X155601493Y-126822203D01*
X155620649Y-126979979D01*
X155662841Y-127091226D01*
X155675268Y-127123995D01*
X155677012Y-127128592D01*
X155677015Y-127128598D01*
X155691171Y-127149106D01*
X155767302Y-127259401D01*
X155886271Y-127364799D01*
X155886272Y-127364799D01*
X155886274Y-127364801D01*
X155955938Y-127401363D01*
X156027007Y-127438663D01*
X156181329Y-127476700D01*
X156181330Y-127476700D01*
X156340270Y-127476700D01*
X156340271Y-127476700D01*
X156494593Y-127438663D01*
X156588443Y-127389406D01*
X156658055Y-127375460D01*
X156724157Y-127401363D01*
X156759787Y-127444810D01*
X156841711Y-127609334D01*
X156841712Y-127609335D01*
X156965066Y-127772684D01*
X157116336Y-127910585D01*
X157290366Y-128018340D01*
X157290368Y-128018340D01*
X157290373Y-128018344D01*
X157481244Y-128092288D01*
X157682453Y-128129900D01*
X157682455Y-128129900D01*
X157887145Y-128129900D01*
X157887147Y-128129900D01*
X158088356Y-128092288D01*
X158279227Y-128018344D01*
X158453262Y-127910586D01*
X158604532Y-127772685D01*
X158727888Y-127609335D01*
X158819128Y-127426101D01*
X158875145Y-127229221D01*
X158884469Y-127128598D01*
X158894032Y-127025404D01*
X158894032Y-127025395D01*
X158875203Y-126822203D01*
X158875145Y-126821579D01*
X158819128Y-126624699D01*
X158776833Y-126539761D01*
X158764374Y-126469867D01*
X158791681Y-126404332D01*
X158831070Y-126372030D01*
X158831387Y-126371863D01*
X158831393Y-126371862D01*
X158972129Y-126297998D01*
X159091098Y-126192600D01*
X159181387Y-126061794D01*
X159237749Y-125913181D01*
X159237749Y-125913180D01*
X159237750Y-125913178D01*
X159256907Y-125755402D01*
X159256907Y-125755395D01*
X159237750Y-125597619D01*
X159220557Y-125552286D01*
X159181387Y-125449004D01*
X159091098Y-125318198D01*
X158972129Y-125212800D01*
X158972128Y-125212799D01*
X158972125Y-125212797D01*
X158831070Y-125138766D01*
X158780047Y-125089398D01*
X158763815Y-125020282D01*
X158776835Y-124971036D01*
X158819128Y-124886101D01*
X158875145Y-124689221D01*
X158894032Y-124485400D01*
X158875145Y-124281579D01*
X158819128Y-124084699D01*
X158776833Y-123999761D01*
X158764374Y-123929867D01*
X158791681Y-123864332D01*
X158831070Y-123832030D01*
X158831387Y-123831863D01*
X158831393Y-123831862D01*
X158972129Y-123757998D01*
X159091098Y-123652600D01*
X159181387Y-123521794D01*
X159237749Y-123373181D01*
X159237749Y-123373180D01*
X159237750Y-123373178D01*
X159256907Y-123215402D01*
X159256907Y-123215395D01*
X159237750Y-123057619D01*
X159220557Y-123012286D01*
X159181387Y-122909004D01*
X159091098Y-122778198D01*
X158972129Y-122672800D01*
X158972128Y-122672799D01*
X158972125Y-122672797D01*
X158831070Y-122598766D01*
X158780047Y-122549398D01*
X158763815Y-122480282D01*
X158776835Y-122431036D01*
X158819128Y-122346101D01*
X158875145Y-122149221D01*
X158894032Y-121945400D01*
X158875145Y-121741579D01*
X158819128Y-121544699D01*
X158776833Y-121459761D01*
X158764374Y-121389867D01*
X158791681Y-121324332D01*
X158831070Y-121292030D01*
X158831387Y-121291863D01*
X158831393Y-121291862D01*
X158972129Y-121217998D01*
X159091098Y-121112600D01*
X159181387Y-120981794D01*
X159237749Y-120833181D01*
X159237749Y-120833180D01*
X159237750Y-120833178D01*
X159256907Y-120675402D01*
X159256907Y-120675395D01*
X159237750Y-120517619D01*
X159204746Y-120430597D01*
X159181387Y-120369004D01*
X159091098Y-120238198D01*
X158972129Y-120132800D01*
X158972128Y-120132799D01*
X158972125Y-120132797D01*
X158831070Y-120058766D01*
X158780047Y-120009398D01*
X158763815Y-119940282D01*
X158776835Y-119891036D01*
X158819128Y-119806101D01*
X158875145Y-119609221D01*
X158894032Y-119405400D01*
X158888472Y-119345402D01*
X158875145Y-119201580D01*
X158819128Y-119004699D01*
X158819127Y-119004697D01*
X158776834Y-118919762D01*
X158764374Y-118849867D01*
X158791681Y-118784332D01*
X158831070Y-118752030D01*
X158831387Y-118751863D01*
X158831393Y-118751862D01*
X158972129Y-118677998D01*
X159091098Y-118572600D01*
X159181387Y-118441794D01*
X159237749Y-118293181D01*
X159237749Y-118293180D01*
X159237750Y-118293178D01*
X159256907Y-118135402D01*
X159256907Y-118135395D01*
X159237750Y-117977619D01*
X159220557Y-117932286D01*
X159181387Y-117829004D01*
X159091098Y-117698198D01*
X158972129Y-117592800D01*
X158972128Y-117592799D01*
X158972125Y-117592797D01*
X158831070Y-117518766D01*
X158780047Y-117469398D01*
X158763815Y-117400282D01*
X158776835Y-117351036D01*
X158819128Y-117266101D01*
X158875145Y-117069221D01*
X158882764Y-116986999D01*
X158894032Y-116865404D01*
X158894032Y-116865395D01*
X158875145Y-116661580D01*
X158819128Y-116464699D01*
X158819127Y-116464697D01*
X158817014Y-116460454D01*
X158776833Y-116379761D01*
X158764374Y-116309867D01*
X158791681Y-116244332D01*
X158831070Y-116212030D01*
X158831387Y-116211863D01*
X158831393Y-116211862D01*
X158972129Y-116137998D01*
X159091098Y-116032600D01*
X159181387Y-115901794D01*
X159237749Y-115753181D01*
X159237749Y-115753180D01*
X159237750Y-115753178D01*
X159256907Y-115595402D01*
X159256907Y-115595395D01*
X159237750Y-115437619D01*
X159220557Y-115392286D01*
X159181387Y-115289004D01*
X159091098Y-115158198D01*
X158972129Y-115052800D01*
X158972128Y-115052799D01*
X158972125Y-115052797D01*
X158831070Y-114978766D01*
X158780047Y-114929398D01*
X158763815Y-114860282D01*
X158776835Y-114811036D01*
X158819128Y-114726101D01*
X158875145Y-114529221D01*
X158894032Y-114325400D01*
X158875145Y-114121579D01*
X158819128Y-113924699D01*
X158776833Y-113839761D01*
X158764374Y-113769867D01*
X158791681Y-113704332D01*
X158831070Y-113672030D01*
X158831387Y-113671863D01*
X158831393Y-113671862D01*
X158972129Y-113597998D01*
X159091098Y-113492600D01*
X159181387Y-113361794D01*
X159237749Y-113213181D01*
X159237749Y-113213180D01*
X159237750Y-113213178D01*
X159256907Y-113055402D01*
X159256907Y-113055395D01*
X159237750Y-112897619D01*
X159218476Y-112846799D01*
X159181387Y-112749004D01*
X159091098Y-112618198D01*
X158972129Y-112512800D01*
X158972128Y-112512799D01*
X158972125Y-112512797D01*
X158831070Y-112438766D01*
X158780047Y-112389398D01*
X158763815Y-112320282D01*
X158776835Y-112271036D01*
X158819128Y-112186101D01*
X158875145Y-111989221D01*
X158894032Y-111785400D01*
X158875145Y-111581579D01*
X158819128Y-111384699D01*
X158776833Y-111299761D01*
X158764374Y-111229867D01*
X158791681Y-111164332D01*
X158831070Y-111132030D01*
X158831387Y-111131863D01*
X158831393Y-111131862D01*
X158972129Y-111057998D01*
X159091098Y-110952600D01*
X159181387Y-110821794D01*
X159237749Y-110673181D01*
X159237749Y-110673180D01*
X159237750Y-110673178D01*
X159256907Y-110515402D01*
X159256907Y-110515395D01*
X159237750Y-110357619D01*
X159203875Y-110268300D01*
X159181387Y-110209004D01*
X159091098Y-110078198D01*
X158972129Y-109972800D01*
X158972128Y-109972799D01*
X158972125Y-109972797D01*
X158831070Y-109898766D01*
X158780047Y-109849398D01*
X158763815Y-109780282D01*
X158776835Y-109731036D01*
X158819128Y-109646101D01*
X158875145Y-109449221D01*
X158888286Y-109307407D01*
X158894032Y-109245404D01*
X158894032Y-109245395D01*
X158875145Y-109041580D01*
X158862557Y-108997339D01*
X158819128Y-108844699D01*
X158776833Y-108759761D01*
X158764374Y-108689867D01*
X158791681Y-108624332D01*
X158831070Y-108592030D01*
X158831387Y-108591863D01*
X158831393Y-108591862D01*
X158972129Y-108517998D01*
X159091098Y-108412600D01*
X159181387Y-108281794D01*
X159237749Y-108133181D01*
X159237749Y-108133180D01*
X159237750Y-108133178D01*
X159256907Y-107975402D01*
X159256907Y-107975395D01*
X159237750Y-107817619D01*
X159194838Y-107704472D01*
X159181387Y-107669004D01*
X159091098Y-107538198D01*
X158972129Y-107432800D01*
X158972128Y-107432799D01*
X158972125Y-107432797D01*
X158831070Y-107358766D01*
X158780047Y-107309398D01*
X158763815Y-107240282D01*
X158776835Y-107191036D01*
X158819128Y-107106101D01*
X158875145Y-106909221D01*
X158884119Y-106812379D01*
X158894032Y-106705404D01*
X158894032Y-106705395D01*
X158875145Y-106501580D01*
X158819128Y-106304699D01*
X158819127Y-106304697D01*
X158776834Y-106219762D01*
X158764374Y-106149867D01*
X158791681Y-106084332D01*
X158831070Y-106052030D01*
X158831387Y-106051863D01*
X158831393Y-106051862D01*
X158972129Y-105977998D01*
X159091098Y-105872600D01*
X159181387Y-105741794D01*
X159237749Y-105593181D01*
X159237749Y-105593180D01*
X159237750Y-105593178D01*
X159256907Y-105435402D01*
X159256907Y-105435395D01*
X159237750Y-105277619D01*
X159220557Y-105232286D01*
X159181387Y-105129004D01*
X159091098Y-104998198D01*
X158972129Y-104892800D01*
X158972128Y-104892799D01*
X158972125Y-104892797D01*
X158831070Y-104818766D01*
X158780047Y-104769398D01*
X158763815Y-104700282D01*
X158776835Y-104651036D01*
X158819128Y-104566101D01*
X158875145Y-104369221D01*
X158881440Y-104301280D01*
X158894032Y-104165404D01*
X158894032Y-104165395D01*
X158875145Y-103961580D01*
X158860414Y-103909807D01*
X158819128Y-103764699D01*
X158776833Y-103679761D01*
X158764374Y-103609867D01*
X158791681Y-103544332D01*
X158831070Y-103512030D01*
X158831387Y-103511863D01*
X158831393Y-103511862D01*
X158972129Y-103437998D01*
X159091098Y-103332600D01*
X159181387Y-103201794D01*
X159237749Y-103053181D01*
X159237749Y-103053180D01*
X159237750Y-103053178D01*
X159256907Y-102895402D01*
X159256907Y-102895395D01*
X159237750Y-102737619D01*
X159224138Y-102701730D01*
X159181387Y-102589004D01*
X159091098Y-102458198D01*
X158972129Y-102352800D01*
X158972128Y-102352799D01*
X158972125Y-102352797D01*
X158831070Y-102278766D01*
X158780047Y-102229398D01*
X158763815Y-102160282D01*
X158776835Y-102111036D01*
X158819128Y-102026101D01*
X158875145Y-101829221D01*
X158884765Y-101725405D01*
X158894032Y-101625404D01*
X158894032Y-101625395D01*
X158875145Y-101421580D01*
X158873369Y-101415339D01*
X158819128Y-101224699D01*
X158776833Y-101139761D01*
X158764374Y-101069867D01*
X158791681Y-101004332D01*
X158831070Y-100972030D01*
X158831387Y-100971863D01*
X158831393Y-100971862D01*
X158972129Y-100897998D01*
X159091098Y-100792600D01*
X159181387Y-100661794D01*
X159237749Y-100513181D01*
X159237749Y-100513180D01*
X159237750Y-100513178D01*
X159256907Y-100355402D01*
X159256907Y-100355395D01*
X159237750Y-100197619D01*
X159220557Y-100152286D01*
X159181387Y-100049004D01*
X159091098Y-99918198D01*
X158972129Y-99812800D01*
X158972128Y-99812799D01*
X158972125Y-99812797D01*
X158831070Y-99738766D01*
X158780047Y-99689398D01*
X158763815Y-99620282D01*
X158776835Y-99571036D01*
X158819128Y-99486101D01*
X158875145Y-99289221D01*
X158894032Y-99085400D01*
X158875145Y-98881579D01*
X158819128Y-98684699D01*
X158776833Y-98599761D01*
X158764374Y-98529867D01*
X158791681Y-98464332D01*
X158831070Y-98432030D01*
X158831387Y-98431863D01*
X158831393Y-98431862D01*
X158972129Y-98357998D01*
X159091098Y-98252600D01*
X159181387Y-98121794D01*
X159237749Y-97973181D01*
X159237749Y-97973180D01*
X159237750Y-97973178D01*
X159256907Y-97815402D01*
X159256907Y-97815395D01*
X159237750Y-97657619D01*
X159220557Y-97612286D01*
X159181387Y-97509004D01*
X159091098Y-97378198D01*
X158972129Y-97272800D01*
X158972128Y-97272799D01*
X158972125Y-97272797D01*
X158831070Y-97198766D01*
X158780047Y-97149398D01*
X158763815Y-97080282D01*
X158776835Y-97031036D01*
X158819128Y-96946101D01*
X158875145Y-96749221D01*
X158890177Y-96587001D01*
X158894032Y-96545404D01*
X158894032Y-96545395D01*
X158875145Y-96341580D01*
X158847944Y-96245979D01*
X158819128Y-96144699D01*
X158776833Y-96059761D01*
X158764374Y-95989867D01*
X158791681Y-95924332D01*
X158831070Y-95892030D01*
X158831387Y-95891863D01*
X158831393Y-95891862D01*
X158972129Y-95817998D01*
X159091098Y-95712600D01*
X159181387Y-95581794D01*
X159237749Y-95433181D01*
X159237749Y-95433180D01*
X159237750Y-95433178D01*
X159256907Y-95275402D01*
X159256907Y-95275395D01*
X159237750Y-95117619D01*
X159220557Y-95072286D01*
X159181387Y-94969004D01*
X159091098Y-94838198D01*
X158972129Y-94732800D01*
X158972128Y-94732799D01*
X158972125Y-94732797D01*
X158831070Y-94658766D01*
X158780047Y-94609398D01*
X158763815Y-94540282D01*
X158776835Y-94491036D01*
X158819128Y-94406101D01*
X158875145Y-94209221D01*
X158881440Y-94141280D01*
X158894032Y-94005404D01*
X158894032Y-94005395D01*
X158875145Y-93801580D01*
X158819128Y-93604699D01*
X158819127Y-93604697D01*
X158776834Y-93519762D01*
X158764374Y-93449867D01*
X158791681Y-93384332D01*
X158831070Y-93352030D01*
X158831387Y-93351863D01*
X158831393Y-93351862D01*
X158972129Y-93277998D01*
X159091098Y-93172600D01*
X159181387Y-93041794D01*
X159237749Y-92893181D01*
X159237749Y-92893180D01*
X159237750Y-92893178D01*
X159256907Y-92735402D01*
X159256907Y-92735395D01*
X159237750Y-92577619D01*
X159220557Y-92532286D01*
X159181387Y-92429004D01*
X159091098Y-92298198D01*
X158972129Y-92192800D01*
X158972128Y-92192799D01*
X158972125Y-92192797D01*
X158831070Y-92118766D01*
X158780047Y-92069398D01*
X158763815Y-92000282D01*
X158776835Y-91951036D01*
X158819128Y-91866101D01*
X158875145Y-91669221D01*
X158894032Y-91465400D01*
X158875145Y-91261579D01*
X158819128Y-91064699D01*
X158776833Y-90979761D01*
X158764374Y-90909867D01*
X158791681Y-90844332D01*
X158831070Y-90812030D01*
X158831387Y-90811863D01*
X158831393Y-90811862D01*
X158972129Y-90737998D01*
X159091098Y-90632600D01*
X159181387Y-90501794D01*
X159237749Y-90353181D01*
X159237749Y-90353180D01*
X159237750Y-90353178D01*
X159256907Y-90195402D01*
X159256907Y-90195395D01*
X159237750Y-90037619D01*
X159220557Y-89992286D01*
X159181387Y-89889004D01*
X159091098Y-89758198D01*
X158972129Y-89652800D01*
X158972128Y-89652799D01*
X158972125Y-89652797D01*
X158831070Y-89578766D01*
X158780047Y-89529398D01*
X158763815Y-89460282D01*
X158776835Y-89411036D01*
X158819128Y-89326101D01*
X158875145Y-89129221D01*
X158894032Y-88925400D01*
X158875145Y-88721579D01*
X158819128Y-88524699D01*
X158776833Y-88439761D01*
X158764374Y-88369867D01*
X158791681Y-88304332D01*
X158831070Y-88272030D01*
X158831387Y-88271863D01*
X158831393Y-88271862D01*
X158972129Y-88197998D01*
X159091098Y-88092600D01*
X159181387Y-87961794D01*
X159237749Y-87813181D01*
X159237749Y-87813180D01*
X159237750Y-87813178D01*
X159256907Y-87655402D01*
X159256907Y-87655395D01*
X159237750Y-87497619D01*
X159220557Y-87452286D01*
X159181387Y-87349004D01*
X159091098Y-87218198D01*
X158972129Y-87112800D01*
X158972128Y-87112799D01*
X158972125Y-87112797D01*
X158831070Y-87038766D01*
X158780047Y-86989398D01*
X158763815Y-86920282D01*
X158776835Y-86871036D01*
X158819128Y-86786101D01*
X158875145Y-86589221D01*
X158889663Y-86432547D01*
X158894032Y-86385404D01*
X158894032Y-86385395D01*
X158875145Y-86181580D01*
X158870977Y-86166932D01*
X158819128Y-85984699D01*
X158776833Y-85899761D01*
X158764374Y-85829867D01*
X158791681Y-85764332D01*
X158831070Y-85732030D01*
X158831387Y-85731863D01*
X158831393Y-85731862D01*
X158972129Y-85657998D01*
X159091098Y-85552600D01*
X159181387Y-85421794D01*
X159237749Y-85273181D01*
X159237749Y-85273180D01*
X159237750Y-85273178D01*
X159256907Y-85115402D01*
X159256907Y-85115395D01*
X159237750Y-84957619D01*
X159216001Y-84900274D01*
X159181387Y-84809004D01*
X159091098Y-84678198D01*
X158972129Y-84572800D01*
X158972128Y-84572799D01*
X158972125Y-84572797D01*
X158830627Y-84498534D01*
X158779604Y-84449166D01*
X158763372Y-84380050D01*
X158776392Y-84330803D01*
X158818658Y-84245923D01*
X158818661Y-84245914D01*
X158860349Y-84099400D01*
X158215503Y-84099400D01*
X158250725Y-84038393D01*
X158284800Y-83911226D01*
X158284800Y-83779574D01*
X158250725Y-83652407D01*
X158215503Y-83591400D01*
X158860349Y-83591400D01*
X158860349Y-83591399D01*
X158818661Y-83444885D01*
X158818658Y-83444876D01*
X158776391Y-83359994D01*
X158763931Y-83290099D01*
X158791238Y-83224564D01*
X158830627Y-83192262D01*
X158831385Y-83191863D01*
X158831393Y-83191862D01*
X158972129Y-83117998D01*
X159091098Y-83012600D01*
X159181387Y-82881794D01*
X159237749Y-82733181D01*
X159237749Y-82733180D01*
X159237750Y-82733178D01*
X159256907Y-82575402D01*
X159256907Y-82575395D01*
X159237750Y-82417619D01*
X159220557Y-82372286D01*
X159181387Y-82269004D01*
X159091098Y-82138198D01*
X158972129Y-82032800D01*
X158972128Y-82032799D01*
X158972125Y-82032797D01*
X158831070Y-81958766D01*
X158780047Y-81909398D01*
X158763815Y-81840282D01*
X158776835Y-81791036D01*
X158819128Y-81706101D01*
X158875145Y-81509221D01*
X158894032Y-81305400D01*
X158893653Y-81301314D01*
X158875145Y-81101582D01*
X158875145Y-81101579D01*
X158857444Y-81039366D01*
X158858040Y-80968375D01*
X158896924Y-80908973D01*
X158948479Y-80882548D01*
X159059993Y-80855063D01*
X159200729Y-80781199D01*
X159319698Y-80675801D01*
X159409987Y-80544995D01*
X159466349Y-80396382D01*
X159466349Y-80396381D01*
X159466350Y-80396379D01*
X159485507Y-80238603D01*
X159485507Y-80238596D01*
X159466350Y-80080820D01*
X159440944Y-80013831D01*
X159409987Y-79932205D01*
X159319698Y-79801399D01*
X159200729Y-79696001D01*
X159200728Y-79696000D01*
X159200725Y-79695998D01*
X159059997Y-79622139D01*
X159059996Y-79622138D01*
X159059993Y-79622137D01*
X159059989Y-79622136D01*
X159059984Y-79622134D01*
X158985144Y-79603687D01*
X158923790Y-79567964D01*
X158891489Y-79504741D01*
X158889299Y-79481359D01*
X158889299Y-77890334D01*
X158889298Y-77890330D01*
X158889298Y-77890326D01*
X158874534Y-77816099D01*
X158818283Y-77731915D01*
X158734102Y-77675666D01*
X158659867Y-77660900D01*
X156909736Y-77660900D01*
X156909726Y-77660901D01*
X156835499Y-77675665D01*
X156751315Y-77731916D01*
X156695066Y-77816097D01*
X156680300Y-77890330D01*
X156680300Y-79104238D01*
X156660298Y-79172359D01*
X156643395Y-79193333D01*
X155171305Y-80665422D01*
X155171300Y-80665428D01*
X155171299Y-80665430D01*
X155156871Y-80690420D01*
X155140174Y-80719341D01*
X155104883Y-80780465D01*
X155104880Y-80780472D01*
X155070500Y-80908782D01*
X155070500Y-82311023D01*
X155050498Y-82379144D01*
X154996842Y-82425637D01*
X154926568Y-82435741D01*
X154874499Y-82415789D01*
X154843634Y-82395166D01*
X154842190Y-82394201D01*
X154805839Y-82379144D01*
X154704885Y-82337327D01*
X154704880Y-82337325D01*
X154559114Y-82308330D01*
X154559112Y-82308330D01*
X154410488Y-82308330D01*
X154410485Y-82308330D01*
X154264719Y-82337325D01*
X154264714Y-82337327D01*
X154127410Y-82394201D01*
X154003832Y-82476772D01*
X154003826Y-82476777D01*
X153898747Y-82581856D01*
X153898742Y-82581862D01*
X153816170Y-82705440D01*
X153816168Y-82705445D01*
X153780061Y-82792613D01*
X153735512Y-82847894D01*
X153668149Y-82870314D01*
X153599358Y-82852755D01*
X153554534Y-82807394D01*
X153515317Y-82739468D01*
X153515316Y-82739466D01*
X153515315Y-82739465D01*
X153515313Y-82739463D01*
X153515309Y-82739458D01*
X153408171Y-82632320D01*
X153408161Y-82632312D01*
X153276939Y-82556551D01*
X153276936Y-82556550D01*
X153276935Y-82556549D01*
X153276933Y-82556548D01*
X153276932Y-82556548D01*
X153237711Y-82546039D01*
X153130566Y-82517330D01*
X152979034Y-82517330D01*
X152900598Y-82538346D01*
X152832667Y-82556548D01*
X152832660Y-82556551D01*
X152701438Y-82632312D01*
X152701428Y-82632320D01*
X152594290Y-82739458D01*
X152594282Y-82739468D01*
X152518521Y-82870690D01*
X152518518Y-82870697D01*
X152515544Y-82881797D01*
X152479300Y-83017064D01*
X152479300Y-83168596D01*
X152495726Y-83229899D01*
X152518518Y-83314962D01*
X152518521Y-83314969D01*
X152594282Y-83446191D01*
X152594290Y-83446201D01*
X152701428Y-83553339D01*
X152701433Y-83553343D01*
X152701435Y-83553345D01*
X152832665Y-83629111D01*
X152979034Y-83668330D01*
X152979036Y-83668330D01*
X153130564Y-83668330D01*
X153130566Y-83668330D01*
X153276935Y-83629111D01*
X153408165Y-83553345D01*
X153435098Y-83526412D01*
X153515205Y-83446306D01*
X153577517Y-83412280D01*
X153648332Y-83417345D01*
X153705168Y-83459892D01*
X153729979Y-83526412D01*
X153730300Y-83535401D01*
X153730300Y-84237144D01*
X153751834Y-84345400D01*
X153759295Y-84382910D01*
X153816171Y-84520220D01*
X153898741Y-84643796D01*
X153898742Y-84643797D01*
X153898747Y-84643803D01*
X154003826Y-84748882D01*
X154003832Y-84748887D01*
X154003834Y-84748889D01*
X154127410Y-84831459D01*
X154264720Y-84888335D01*
X154360545Y-84907395D01*
X154423454Y-84940302D01*
X154458586Y-85001997D01*
X154454786Y-85072892D01*
X154425058Y-85120069D01*
X152397973Y-87147155D01*
X152339033Y-87180398D01*
X152191615Y-87216734D01*
X152191608Y-87216736D01*
X152188821Y-87218199D01*
X152078501Y-87276099D01*
X152008890Y-87290045D01*
X151942787Y-87264141D01*
X151901183Y-87206612D01*
X151897609Y-87194683D01*
X151897149Y-87192820D01*
X151897149Y-87192818D01*
X151840787Y-87044205D01*
X151750498Y-86913399D01*
X151631529Y-86808001D01*
X151631528Y-86808000D01*
X151631525Y-86807998D01*
X151490797Y-86734139D01*
X151490795Y-86734138D01*
X151490793Y-86734137D01*
X151490791Y-86734136D01*
X151490790Y-86734136D01*
X151336472Y-86696100D01*
X151336471Y-86696100D01*
X151177529Y-86696100D01*
X151177527Y-86696100D01*
X151023209Y-86734136D01*
X151023202Y-86734139D01*
X150882474Y-86807998D01*
X150882464Y-86808005D01*
X150807153Y-86874726D01*
X150742900Y-86904927D01*
X150672520Y-86895596D01*
X150640047Y-86874726D01*
X150564735Y-86808005D01*
X150564725Y-86807998D01*
X150423997Y-86734139D01*
X150423995Y-86734138D01*
X150423993Y-86734137D01*
X150423991Y-86734136D01*
X150423990Y-86734136D01*
X150269672Y-86696100D01*
X150269671Y-86696100D01*
X150110729Y-86696100D01*
X150110727Y-86696100D01*
X149956409Y-86734136D01*
X149956402Y-86734139D01*
X149815674Y-86807998D01*
X149815665Y-86808005D01*
X149748653Y-86867373D01*
X149684400Y-86897574D01*
X149614020Y-86888243D01*
X149581547Y-86867373D01*
X149514534Y-86808005D01*
X149514525Y-86807998D01*
X149373797Y-86734139D01*
X149373795Y-86734138D01*
X149373793Y-86734137D01*
X149373791Y-86734136D01*
X149373790Y-86734136D01*
X149219472Y-86696100D01*
X149219471Y-86696100D01*
X149060529Y-86696100D01*
X149060527Y-86696100D01*
X148906209Y-86734136D01*
X148906202Y-86734139D01*
X148765474Y-86807998D01*
X148765469Y-86808002D01*
X148646501Y-86913400D01*
X148556215Y-87044201D01*
X148556212Y-87044207D01*
X148499849Y-87192820D01*
X148480693Y-87350596D01*
X148480693Y-87350603D01*
X148499849Y-87508379D01*
X148546387Y-87631085D01*
X148556213Y-87656995D01*
X148646502Y-87787801D01*
X148765471Y-87893199D01*
X148765472Y-87893199D01*
X148765474Y-87893201D01*
X148807238Y-87915120D01*
X148906207Y-87967063D01*
X149060529Y-88005100D01*
X149060530Y-88005100D01*
X149219470Y-88005100D01*
X149219471Y-88005100D01*
X149373793Y-87967063D01*
X149514529Y-87893199D01*
X149581547Y-87833825D01*
X149645799Y-87803625D01*
X149716179Y-87812956D01*
X149748650Y-87833824D01*
X149815671Y-87893199D01*
X149815672Y-87893199D01*
X149815674Y-87893201D01*
X149857438Y-87915120D01*
X149956407Y-87967063D01*
X150110729Y-88005100D01*
X150110730Y-88005100D01*
X150269670Y-88005100D01*
X150269671Y-88005100D01*
X150423993Y-87967063D01*
X150564729Y-87893199D01*
X150640047Y-87826472D01*
X150704299Y-87796272D01*
X150774680Y-87805603D01*
X150807151Y-87826471D01*
X150882471Y-87893199D01*
X150882472Y-87893199D01*
X150882474Y-87893201D01*
X150924238Y-87915120D01*
X151023207Y-87967063D01*
X151177529Y-88005100D01*
X151177530Y-88005100D01*
X151235839Y-88005100D01*
X151303960Y-88025102D01*
X151350453Y-88078758D01*
X151360557Y-88149032D01*
X151331063Y-88213612D01*
X151324934Y-88220195D01*
X146357505Y-93187622D01*
X146357498Y-93187632D01*
X146328408Y-93238018D01*
X146291083Y-93302665D01*
X146291081Y-93302670D01*
X146259251Y-93421463D01*
X146256700Y-93430982D01*
X146256700Y-105301238D01*
X146236698Y-105369359D01*
X146219795Y-105390333D01*
X144020702Y-107589425D01*
X144020700Y-107589428D01*
X144017222Y-107595452D01*
X143998213Y-107628378D01*
X143954283Y-107704465D01*
X143954281Y-107704470D01*
X143920672Y-107829902D01*
X143919900Y-107832782D01*
X143919900Y-119779238D01*
X143899898Y-119847359D01*
X143882995Y-119868333D01*
X143711621Y-120039707D01*
X143649309Y-120073733D01*
X143578494Y-120068668D01*
X143521658Y-120026121D01*
X143496847Y-119959601D01*
X143509736Y-119894448D01*
X143511435Y-119891036D01*
X143553728Y-119806101D01*
X143609745Y-119609221D01*
X143628632Y-119405400D01*
X143623072Y-119345402D01*
X143609745Y-119201580D01*
X143609745Y-119201579D01*
X143553728Y-119004699D01*
X143462488Y-118821465D01*
X143409926Y-118751862D01*
X143339133Y-118658115D01*
X143187863Y-118520214D01*
X143013833Y-118412459D01*
X143013828Y-118412457D01*
X143013827Y-118412456D01*
X142822959Y-118338513D01*
X142822960Y-118338513D01*
X142822957Y-118338512D01*
X142822956Y-118338512D01*
X142621747Y-118300900D01*
X142488036Y-118300900D01*
X142419915Y-118280898D01*
X142373422Y-118227242D01*
X142362955Y-118159712D01*
X142365907Y-118135401D01*
X142365907Y-118135400D01*
X142365906Y-118135395D01*
X142362955Y-118111085D01*
X142374602Y-118041051D01*
X142422263Y-117988430D01*
X142488037Y-117969900D01*
X142621745Y-117969900D01*
X142621747Y-117969900D01*
X142822956Y-117932288D01*
X143013827Y-117858344D01*
X143187862Y-117750586D01*
X143339132Y-117612685D01*
X143462488Y-117449335D01*
X143553728Y-117266101D01*
X143609745Y-117069221D01*
X143617364Y-116986999D01*
X143628632Y-116865404D01*
X143628632Y-116865395D01*
X143609745Y-116661580D01*
X143609745Y-116661579D01*
X143553728Y-116464699D01*
X143462488Y-116281465D01*
X143409926Y-116211862D01*
X143339133Y-116118115D01*
X143187863Y-115980214D01*
X143013833Y-115872459D01*
X143013828Y-115872457D01*
X143013827Y-115872456D01*
X142909752Y-115832137D01*
X142822959Y-115798513D01*
X142822960Y-115798513D01*
X142822957Y-115798512D01*
X142822956Y-115798512D01*
X142621747Y-115760900D01*
X142488036Y-115760900D01*
X142419915Y-115740898D01*
X142373422Y-115687242D01*
X142362955Y-115619712D01*
X142365907Y-115595401D01*
X142365907Y-115595400D01*
X142365906Y-115595395D01*
X142362955Y-115571085D01*
X142374602Y-115501051D01*
X142422263Y-115448430D01*
X142488037Y-115429900D01*
X142621745Y-115429900D01*
X142621747Y-115429900D01*
X142822956Y-115392288D01*
X143013827Y-115318344D01*
X143187862Y-115210586D01*
X143339132Y-115072685D01*
X143462488Y-114909335D01*
X143553728Y-114726101D01*
X143609745Y-114529221D01*
X143628632Y-114325400D01*
X143609745Y-114121579D01*
X143553728Y-113924699D01*
X143462488Y-113741465D01*
X143419132Y-113684052D01*
X143339133Y-113578115D01*
X143187863Y-113440214D01*
X143013833Y-113332459D01*
X143013828Y-113332457D01*
X143013827Y-113332456D01*
X142990033Y-113323238D01*
X142822959Y-113258513D01*
X142822960Y-113258513D01*
X142822957Y-113258512D01*
X142822956Y-113258512D01*
X142621747Y-113220900D01*
X142488036Y-113220900D01*
X142419915Y-113200898D01*
X142373422Y-113147242D01*
X142362955Y-113079712D01*
X142365907Y-113055401D01*
X142365907Y-113055400D01*
X142365906Y-113055395D01*
X142362955Y-113031085D01*
X142374602Y-112961051D01*
X142422263Y-112908430D01*
X142488037Y-112889900D01*
X142621745Y-112889900D01*
X142621747Y-112889900D01*
X142822956Y-112852288D01*
X143013827Y-112778344D01*
X143187862Y-112670586D01*
X143339132Y-112532685D01*
X143462488Y-112369335D01*
X143553728Y-112186101D01*
X143609745Y-111989221D01*
X143628632Y-111785400D01*
X143609745Y-111581579D01*
X143553728Y-111384699D01*
X143462488Y-111201465D01*
X143409926Y-111131862D01*
X143339133Y-111038115D01*
X143187863Y-110900214D01*
X143013833Y-110792459D01*
X143013828Y-110792457D01*
X143013827Y-110792456D01*
X142822959Y-110718513D01*
X142822960Y-110718513D01*
X142822957Y-110718512D01*
X142822956Y-110718512D01*
X142621747Y-110680900D01*
X142488036Y-110680900D01*
X142419915Y-110660898D01*
X142373422Y-110607242D01*
X142362955Y-110539712D01*
X142365907Y-110515401D01*
X142365907Y-110515400D01*
X142365906Y-110515395D01*
X142362955Y-110491085D01*
X142374602Y-110421051D01*
X142422263Y-110368430D01*
X142488037Y-110349900D01*
X142621745Y-110349900D01*
X142621747Y-110349900D01*
X142822956Y-110312288D01*
X143013827Y-110238344D01*
X143187862Y-110130586D01*
X143339132Y-109992685D01*
X143462488Y-109829335D01*
X143553728Y-109646101D01*
X143609745Y-109449221D01*
X143622886Y-109307407D01*
X143628632Y-109245404D01*
X143628632Y-109245395D01*
X143609745Y-109041580D01*
X143609745Y-109041579D01*
X143553728Y-108844699D01*
X143462488Y-108661465D01*
X143409926Y-108591862D01*
X143339133Y-108498115D01*
X143187863Y-108360214D01*
X143013833Y-108252459D01*
X143013828Y-108252457D01*
X143013827Y-108252456D01*
X142822959Y-108178513D01*
X142822960Y-108178513D01*
X142822957Y-108178512D01*
X142822956Y-108178512D01*
X142621747Y-108140900D01*
X142488036Y-108140900D01*
X142419915Y-108120898D01*
X142373422Y-108067242D01*
X142362955Y-107999712D01*
X142365907Y-107975401D01*
X142365907Y-107975400D01*
X142365906Y-107975395D01*
X142362955Y-107951085D01*
X142374602Y-107881051D01*
X142422263Y-107828430D01*
X142488037Y-107809900D01*
X142621745Y-107809900D01*
X142621747Y-107809900D01*
X142822956Y-107772288D01*
X143013827Y-107698344D01*
X143187862Y-107590586D01*
X143339132Y-107452685D01*
X143462488Y-107289335D01*
X143553728Y-107106101D01*
X143609745Y-106909221D01*
X143618719Y-106812379D01*
X143628632Y-106705404D01*
X143628632Y-106705395D01*
X143609745Y-106501580D01*
X143566105Y-106348201D01*
X143553728Y-106304699D01*
X143462488Y-106121465D01*
X143370838Y-106000100D01*
X143339133Y-105958115D01*
X143187863Y-105820214D01*
X143013833Y-105712459D01*
X143013828Y-105712457D01*
X143013827Y-105712456D01*
X143013814Y-105712451D01*
X142822959Y-105638513D01*
X142822960Y-105638513D01*
X142822957Y-105638512D01*
X142822956Y-105638512D01*
X142621747Y-105600900D01*
X142488036Y-105600900D01*
X142419915Y-105580898D01*
X142373422Y-105527242D01*
X142362955Y-105459712D01*
X142365907Y-105435401D01*
X142365907Y-105435400D01*
X142365906Y-105435395D01*
X142362955Y-105411085D01*
X142374602Y-105341051D01*
X142422263Y-105288430D01*
X142488037Y-105269900D01*
X142621745Y-105269900D01*
X142621747Y-105269900D01*
X142784097Y-105239552D01*
X143870135Y-105239552D01*
X143889291Y-105397328D01*
X143912951Y-105459712D01*
X143945655Y-105545944D01*
X144035944Y-105676750D01*
X144154913Y-105782148D01*
X144154914Y-105782148D01*
X144154916Y-105782150D01*
X144227442Y-105820214D01*
X144295649Y-105856012D01*
X144449971Y-105894049D01*
X144449972Y-105894049D01*
X144608912Y-105894049D01*
X144608913Y-105894049D01*
X144763235Y-105856012D01*
X144903971Y-105782148D01*
X145022940Y-105676750D01*
X145113229Y-105545944D01*
X145169591Y-105397331D01*
X145169591Y-105397330D01*
X145169592Y-105397328D01*
X145188749Y-105239552D01*
X145188749Y-105239545D01*
X145169592Y-105081769D01*
X145137898Y-104998200D01*
X145113229Y-104933154D01*
X145022940Y-104802348D01*
X144903971Y-104696950D01*
X144903970Y-104696949D01*
X144903967Y-104696947D01*
X144763239Y-104623088D01*
X144763237Y-104623087D01*
X144763235Y-104623086D01*
X144763233Y-104623085D01*
X144763232Y-104623085D01*
X144608914Y-104585049D01*
X144608913Y-104585049D01*
X144449971Y-104585049D01*
X144449969Y-104585049D01*
X144295651Y-104623085D01*
X144295644Y-104623088D01*
X144154916Y-104696947D01*
X144154911Y-104696951D01*
X144035943Y-104802349D01*
X143945657Y-104933150D01*
X143945654Y-104933156D01*
X143889291Y-105081769D01*
X143870135Y-105239545D01*
X143870135Y-105239552D01*
X142784097Y-105239552D01*
X142822956Y-105232288D01*
X143013827Y-105158344D01*
X143187862Y-105050586D01*
X143339132Y-104912685D01*
X143462488Y-104749335D01*
X143553728Y-104566101D01*
X143609745Y-104369221D01*
X143616040Y-104301280D01*
X143628632Y-104165404D01*
X143628632Y-104165395D01*
X143609745Y-103961580D01*
X143609745Y-103961579D01*
X143553728Y-103764699D01*
X143462488Y-103581465D01*
X143404698Y-103504938D01*
X143339133Y-103418115D01*
X143261301Y-103347162D01*
X144659534Y-103347162D01*
X144678690Y-103504938D01*
X144719401Y-103612280D01*
X144735054Y-103653554D01*
X144825343Y-103784360D01*
X144944312Y-103889758D01*
X144944313Y-103889758D01*
X144944315Y-103889760D01*
X144982508Y-103909805D01*
X145085048Y-103963622D01*
X145239370Y-104001659D01*
X145239371Y-104001659D01*
X145398311Y-104001659D01*
X145398312Y-104001659D01*
X145552634Y-103963622D01*
X145693370Y-103889758D01*
X145812339Y-103784360D01*
X145902628Y-103653554D01*
X145958990Y-103504941D01*
X145958990Y-103504940D01*
X145958991Y-103504938D01*
X145978148Y-103347162D01*
X145978148Y-103347155D01*
X145958991Y-103189379D01*
X145930256Y-103113613D01*
X145902628Y-103040764D01*
X145812339Y-102909958D01*
X145693370Y-102804560D01*
X145693369Y-102804559D01*
X145693366Y-102804557D01*
X145552638Y-102730698D01*
X145552636Y-102730697D01*
X145552634Y-102730696D01*
X145552632Y-102730695D01*
X145552631Y-102730695D01*
X145398313Y-102692659D01*
X145398312Y-102692659D01*
X145239370Y-102692659D01*
X145239368Y-102692659D01*
X145085050Y-102730695D01*
X145085043Y-102730698D01*
X144944315Y-102804557D01*
X144944310Y-102804561D01*
X144825342Y-102909959D01*
X144735056Y-103040760D01*
X144735053Y-103040766D01*
X144678690Y-103189379D01*
X144659534Y-103347155D01*
X144659534Y-103347162D01*
X143261301Y-103347162D01*
X143187863Y-103280214D01*
X143013833Y-103172459D01*
X143013828Y-103172457D01*
X143013827Y-103172456D01*
X142822959Y-103098513D01*
X142822960Y-103098513D01*
X142822957Y-103098512D01*
X142822956Y-103098512D01*
X142621747Y-103060900D01*
X142488036Y-103060900D01*
X142419915Y-103040898D01*
X142373422Y-102987242D01*
X142362955Y-102919712D01*
X142365907Y-102895401D01*
X142365907Y-102895400D01*
X142365906Y-102895395D01*
X142362955Y-102871085D01*
X142374602Y-102801051D01*
X142422263Y-102748430D01*
X142488037Y-102729900D01*
X142621745Y-102729900D01*
X142621747Y-102729900D01*
X142822956Y-102692288D01*
X143013827Y-102618344D01*
X143187862Y-102510586D01*
X143274301Y-102431785D01*
X143338116Y-102400675D01*
X143408622Y-102409004D01*
X143462881Y-102453324D01*
X143473702Y-102469001D01*
X143592671Y-102574399D01*
X143592672Y-102574399D01*
X143592674Y-102574401D01*
X143620498Y-102589004D01*
X143733407Y-102648263D01*
X143887729Y-102686300D01*
X143887730Y-102686300D01*
X144046670Y-102686300D01*
X144046671Y-102686300D01*
X144200993Y-102648263D01*
X144341729Y-102574399D01*
X144460698Y-102469001D01*
X144550987Y-102338195D01*
X144607349Y-102189582D01*
X144607349Y-102189581D01*
X144607350Y-102189579D01*
X144626507Y-102031803D01*
X144626507Y-102031796D01*
X144607350Y-101874020D01*
X144590359Y-101829219D01*
X144550987Y-101725405D01*
X144460698Y-101594599D01*
X144341729Y-101489201D01*
X144341728Y-101489200D01*
X144341725Y-101489198D01*
X144200997Y-101415339D01*
X144200995Y-101415338D01*
X144200993Y-101415337D01*
X144200991Y-101415336D01*
X144200990Y-101415336D01*
X144046672Y-101377300D01*
X144046671Y-101377300D01*
X143887729Y-101377300D01*
X143887725Y-101377300D01*
X143734254Y-101415127D01*
X143663326Y-101412008D01*
X143605344Y-101371038D01*
X143582912Y-101327271D01*
X143553728Y-101224699D01*
X143537476Y-101192062D01*
X143525019Y-101122168D01*
X143552326Y-101056633D01*
X143610729Y-101016265D01*
X143650268Y-101009900D01*
X143699470Y-101009900D01*
X143699471Y-101009900D01*
X143853793Y-100971863D01*
X143994529Y-100897999D01*
X144061446Y-100838714D01*
X144125699Y-100808514D01*
X144196080Y-100817845D01*
X144228552Y-100838714D01*
X144295471Y-100897999D01*
X144295472Y-100897999D01*
X144295474Y-100898001D01*
X144370200Y-100937220D01*
X144436207Y-100971863D01*
X144590529Y-101009900D01*
X144590530Y-101009900D01*
X144749470Y-101009900D01*
X144749471Y-101009900D01*
X144903793Y-100971863D01*
X145044529Y-100897999D01*
X145163498Y-100792601D01*
X145253787Y-100661795D01*
X145310149Y-100513182D01*
X145310149Y-100513181D01*
X145310150Y-100513179D01*
X145329307Y-100355403D01*
X145329307Y-100355396D01*
X145310150Y-100197620D01*
X145264914Y-100078345D01*
X145253787Y-100049005D01*
X145163498Y-99918199D01*
X145044529Y-99812801D01*
X145044528Y-99812800D01*
X145044525Y-99812798D01*
X144903797Y-99738939D01*
X144903795Y-99738938D01*
X144903793Y-99738937D01*
X144903791Y-99738936D01*
X144903790Y-99738936D01*
X144749472Y-99700900D01*
X144749471Y-99700900D01*
X144590529Y-99700900D01*
X144590527Y-99700900D01*
X144436209Y-99738936D01*
X144436202Y-99738939D01*
X144295474Y-99812798D01*
X144295469Y-99812802D01*
X144228554Y-99872085D01*
X144164301Y-99902286D01*
X144093920Y-99892955D01*
X144061446Y-99872085D01*
X143994530Y-99812802D01*
X143994525Y-99812798D01*
X143853797Y-99738939D01*
X143853795Y-99738938D01*
X143853793Y-99738937D01*
X143853791Y-99738936D01*
X143853790Y-99738936D01*
X143699472Y-99700900D01*
X143699471Y-99700900D01*
X143650268Y-99700900D01*
X143582147Y-99680898D01*
X143535654Y-99627242D01*
X143525550Y-99556968D01*
X143537477Y-99518737D01*
X143553728Y-99486101D01*
X143609745Y-99289221D01*
X143628632Y-99085400D01*
X143609745Y-98881579D01*
X143553728Y-98684699D01*
X143462488Y-98501465D01*
X143409926Y-98431862D01*
X143339133Y-98338115D01*
X143187863Y-98200214D01*
X143013833Y-98092459D01*
X143013828Y-98092457D01*
X143013827Y-98092456D01*
X142822959Y-98018513D01*
X142822960Y-98018513D01*
X142822957Y-98018512D01*
X142822956Y-98018512D01*
X142621747Y-97980900D01*
X142488036Y-97980900D01*
X142419915Y-97960898D01*
X142373422Y-97907242D01*
X142362955Y-97839712D01*
X142365907Y-97815401D01*
X142365907Y-97815400D01*
X142365906Y-97815395D01*
X142362955Y-97791085D01*
X142374602Y-97721051D01*
X142422263Y-97668430D01*
X142488037Y-97649900D01*
X142621745Y-97649900D01*
X142621747Y-97649900D01*
X142822956Y-97612288D01*
X143013827Y-97538344D01*
X143187862Y-97430586D01*
X143339132Y-97292685D01*
X143462488Y-97129335D01*
X143553728Y-96946101D01*
X143609745Y-96749221D01*
X143624777Y-96587001D01*
X143628632Y-96545404D01*
X143628632Y-96545395D01*
X143609745Y-96341580D01*
X143582545Y-96245982D01*
X143553728Y-96144699D01*
X143462488Y-95961465D01*
X143401703Y-95880972D01*
X143339133Y-95798115D01*
X143187863Y-95660214D01*
X143013833Y-95552459D01*
X143013828Y-95552457D01*
X143013827Y-95552456D01*
X142972028Y-95536263D01*
X142822959Y-95478513D01*
X142822960Y-95478513D01*
X142822957Y-95478512D01*
X142822956Y-95478512D01*
X142621747Y-95440900D01*
X142488036Y-95440900D01*
X142419915Y-95420898D01*
X142373422Y-95367242D01*
X142362955Y-95299712D01*
X142365907Y-95275401D01*
X142365907Y-95275400D01*
X142365906Y-95275395D01*
X142362955Y-95251085D01*
X142374602Y-95181051D01*
X142422263Y-95128430D01*
X142488037Y-95109900D01*
X142621745Y-95109900D01*
X142621747Y-95109900D01*
X142822956Y-95072288D01*
X143013827Y-94998344D01*
X143187862Y-94890586D01*
X143339132Y-94752685D01*
X143462488Y-94589335D01*
X143553728Y-94406101D01*
X143609745Y-94209221D01*
X143616040Y-94141280D01*
X143628632Y-94005404D01*
X143628632Y-94005395D01*
X143609745Y-93801580D01*
X143597505Y-93758560D01*
X143553728Y-93604699D01*
X143462488Y-93421465D01*
X143401703Y-93340972D01*
X143339133Y-93258115D01*
X143187863Y-93120214D01*
X143013833Y-93012459D01*
X143013828Y-93012457D01*
X143013827Y-93012456D01*
X142874809Y-92958600D01*
X142822959Y-92938513D01*
X142822960Y-92938513D01*
X142822957Y-92938512D01*
X142822956Y-92938512D01*
X142621747Y-92900900D01*
X142488036Y-92900900D01*
X142419915Y-92880898D01*
X142373422Y-92827242D01*
X142362955Y-92759712D01*
X142365907Y-92735401D01*
X142365907Y-92735400D01*
X142365906Y-92735395D01*
X142362955Y-92711085D01*
X142374602Y-92641051D01*
X142422263Y-92588430D01*
X142488037Y-92569900D01*
X142621745Y-92569900D01*
X142621747Y-92569900D01*
X142822956Y-92532288D01*
X143013827Y-92458344D01*
X143187862Y-92350586D01*
X143339132Y-92212685D01*
X143462488Y-92049335D01*
X143553728Y-91866101D01*
X143609745Y-91669221D01*
X143628632Y-91465400D01*
X143609745Y-91261579D01*
X143553728Y-91064699D01*
X143462488Y-90881465D01*
X143401703Y-90800972D01*
X143339133Y-90718115D01*
X143187863Y-90580214D01*
X143013833Y-90472459D01*
X143013828Y-90472457D01*
X143013827Y-90472456D01*
X142822959Y-90398513D01*
X142822960Y-90398513D01*
X142822957Y-90398512D01*
X142822956Y-90398512D01*
X142621747Y-90360900D01*
X142488036Y-90360900D01*
X142419915Y-90340898D01*
X142373422Y-90287242D01*
X142362955Y-90219712D01*
X142365907Y-90195401D01*
X142365907Y-90195400D01*
X142365906Y-90195395D01*
X142362955Y-90171085D01*
X142374602Y-90101051D01*
X142422263Y-90048430D01*
X142488037Y-90029900D01*
X142621745Y-90029900D01*
X142621747Y-90029900D01*
X142822956Y-89992288D01*
X143013827Y-89918344D01*
X143187862Y-89810586D01*
X143339132Y-89672685D01*
X143462488Y-89509335D01*
X143553728Y-89326101D01*
X143609745Y-89129221D01*
X143628632Y-88925400D01*
X143609745Y-88721579D01*
X143553728Y-88524699D01*
X143462488Y-88341465D01*
X143401703Y-88260972D01*
X143339133Y-88178115D01*
X143187863Y-88040214D01*
X143013833Y-87932459D01*
X143013828Y-87932457D01*
X143013827Y-87932456D01*
X142969078Y-87915120D01*
X142822959Y-87858513D01*
X142822960Y-87858513D01*
X142822957Y-87858512D01*
X142822956Y-87858512D01*
X142621747Y-87820900D01*
X142488036Y-87820900D01*
X142419915Y-87800898D01*
X142373422Y-87747242D01*
X142362955Y-87679712D01*
X142365907Y-87655401D01*
X142365907Y-87655400D01*
X142365906Y-87655395D01*
X142363280Y-87633761D01*
X142362955Y-87631085D01*
X142374602Y-87561051D01*
X142422263Y-87508430D01*
X142488037Y-87489900D01*
X142621745Y-87489900D01*
X142621747Y-87489900D01*
X142822956Y-87452288D01*
X143013827Y-87378344D01*
X143187862Y-87270586D01*
X143339132Y-87132685D01*
X143462488Y-86969335D01*
X143553728Y-86786101D01*
X143609745Y-86589221D01*
X143624263Y-86432547D01*
X143628632Y-86385404D01*
X143628632Y-86385395D01*
X143609745Y-86181580D01*
X143609745Y-86181579D01*
X143553728Y-85984699D01*
X143462488Y-85801465D01*
X143409926Y-85731862D01*
X143339133Y-85638115D01*
X143295132Y-85598003D01*
X147105493Y-85598003D01*
X147124649Y-85755779D01*
X147148913Y-85819756D01*
X147181013Y-85904395D01*
X147271302Y-86035201D01*
X147390271Y-86140599D01*
X147390272Y-86140599D01*
X147390274Y-86140601D01*
X147412946Y-86152500D01*
X147531007Y-86214463D01*
X147685329Y-86252500D01*
X147685330Y-86252500D01*
X147844270Y-86252500D01*
X147844271Y-86252500D01*
X147998593Y-86214463D01*
X148061248Y-86181579D01*
X148089157Y-86166932D01*
X148147711Y-86152500D01*
X152181889Y-86152500D01*
X152240443Y-86166932D01*
X152268353Y-86181580D01*
X152331007Y-86214463D01*
X152485329Y-86252500D01*
X152485330Y-86252500D01*
X152644270Y-86252500D01*
X152644271Y-86252500D01*
X152798593Y-86214463D01*
X152939329Y-86140599D01*
X153058298Y-86035201D01*
X153148587Y-85904395D01*
X153204949Y-85755782D01*
X153204949Y-85755781D01*
X153204950Y-85755779D01*
X153224107Y-85598003D01*
X153224107Y-85597996D01*
X153204950Y-85440220D01*
X153186834Y-85392454D01*
X153148587Y-85291605D01*
X153058298Y-85160799D01*
X152939329Y-85055401D01*
X152939328Y-85055400D01*
X152939325Y-85055398D01*
X152798597Y-84981539D01*
X152798595Y-84981538D01*
X152798593Y-84981537D01*
X152798591Y-84981536D01*
X152798590Y-84981536D01*
X152644272Y-84943500D01*
X152644271Y-84943500D01*
X152485329Y-84943500D01*
X152485327Y-84943500D01*
X152331008Y-84981536D01*
X152240443Y-85029068D01*
X152181889Y-85043500D01*
X148147711Y-85043500D01*
X148089157Y-85029068D01*
X147998591Y-84981536D01*
X147844272Y-84943500D01*
X147844271Y-84943500D01*
X147685329Y-84943500D01*
X147685327Y-84943500D01*
X147531009Y-84981536D01*
X147531002Y-84981539D01*
X147390274Y-85055398D01*
X147390269Y-85055402D01*
X147271301Y-85160800D01*
X147181015Y-85291601D01*
X147181012Y-85291607D01*
X147124649Y-85440220D01*
X147105493Y-85597996D01*
X147105493Y-85598003D01*
X143295132Y-85598003D01*
X143187863Y-85500214D01*
X143013833Y-85392459D01*
X143013828Y-85392457D01*
X143013827Y-85392456D01*
X142822959Y-85318513D01*
X142822960Y-85318513D01*
X142822957Y-85318512D01*
X142822956Y-85318512D01*
X142621747Y-85280900D01*
X142488036Y-85280900D01*
X142419915Y-85260898D01*
X142373422Y-85207242D01*
X142362955Y-85139712D01*
X142365907Y-85115401D01*
X142365907Y-85115400D01*
X142365906Y-85115395D01*
X142362955Y-85091085D01*
X142374602Y-85021051D01*
X142422263Y-84968430D01*
X142488037Y-84949900D01*
X142621745Y-84949900D01*
X142621747Y-84949900D01*
X142822956Y-84912288D01*
X143013827Y-84838344D01*
X143187862Y-84730586D01*
X143339132Y-84592685D01*
X143462488Y-84429335D01*
X143553728Y-84246101D01*
X143556276Y-84237144D01*
X145090300Y-84237144D01*
X145111834Y-84345400D01*
X145119295Y-84382910D01*
X145176171Y-84520220D01*
X145258741Y-84643796D01*
X145258742Y-84643797D01*
X145258747Y-84643803D01*
X145363826Y-84748882D01*
X145363832Y-84748887D01*
X145363834Y-84748889D01*
X145487410Y-84831459D01*
X145624720Y-84888335D01*
X145770488Y-84917330D01*
X145770489Y-84917330D01*
X145919111Y-84917330D01*
X145919112Y-84917330D01*
X146064880Y-84888335D01*
X146202190Y-84831459D01*
X146325766Y-84748889D01*
X146430859Y-84643796D01*
X146513429Y-84520220D01*
X146570305Y-84382910D01*
X146599300Y-84237142D01*
X146599300Y-83535401D01*
X146619302Y-83467280D01*
X146672958Y-83420787D01*
X146743232Y-83410683D01*
X146807812Y-83440177D01*
X146814395Y-83446306D01*
X146921428Y-83553339D01*
X146921433Y-83553343D01*
X146921435Y-83553345D01*
X147052665Y-83629111D01*
X147199034Y-83668330D01*
X147199036Y-83668330D01*
X147350564Y-83668330D01*
X147350566Y-83668330D01*
X147496935Y-83629111D01*
X147628165Y-83553345D01*
X147735315Y-83446195D01*
X147811081Y-83314965D01*
X147850300Y-83168596D01*
X147850300Y-83017064D01*
X147811081Y-82870695D01*
X147758138Y-82778996D01*
X147735317Y-82739468D01*
X147735316Y-82739466D01*
X147735315Y-82739465D01*
X147735313Y-82739463D01*
X147735309Y-82739458D01*
X147628171Y-82632320D01*
X147628161Y-82632312D01*
X147496939Y-82556551D01*
X147496936Y-82556550D01*
X147496935Y-82556549D01*
X147496933Y-82556548D01*
X147496932Y-82556548D01*
X147457711Y-82546039D01*
X147350566Y-82517330D01*
X147199034Y-82517330D01*
X147120598Y-82538346D01*
X147052667Y-82556548D01*
X147052660Y-82556551D01*
X146921438Y-82632312D01*
X146921428Y-82632320D01*
X146814290Y-82739458D01*
X146814284Y-82739466D01*
X146775065Y-82807395D01*
X146723681Y-82856388D01*
X146653968Y-82869823D01*
X146588057Y-82843436D01*
X146549537Y-82792612D01*
X146543697Y-82778513D01*
X146513429Y-82705440D01*
X146430859Y-82581864D01*
X146430857Y-82581862D01*
X146430852Y-82581856D01*
X146325773Y-82476777D01*
X146325767Y-82476772D01*
X146325766Y-82476771D01*
X146202190Y-82394201D01*
X146064880Y-82337325D01*
X145919114Y-82308330D01*
X145919112Y-82308330D01*
X145770488Y-82308330D01*
X145770485Y-82308330D01*
X145624719Y-82337325D01*
X145624714Y-82337327D01*
X145487410Y-82394201D01*
X145363832Y-82476772D01*
X145363826Y-82476777D01*
X145258747Y-82581856D01*
X145258742Y-82581862D01*
X145176171Y-82705440D01*
X145119297Y-82842744D01*
X145119295Y-82842749D01*
X145090300Y-82988515D01*
X145090300Y-84237144D01*
X143556276Y-84237144D01*
X143609745Y-84049221D01*
X143628632Y-83845400D01*
X143622532Y-83779574D01*
X143609745Y-83641580D01*
X143609745Y-83641579D01*
X143553728Y-83444699D01*
X143462488Y-83261465D01*
X143421938Y-83207768D01*
X143339133Y-83098115D01*
X143187863Y-82960214D01*
X143013833Y-82852459D01*
X143013828Y-82852457D01*
X143013827Y-82852456D01*
X142988773Y-82842750D01*
X142822959Y-82778513D01*
X142822960Y-82778513D01*
X142822957Y-82778512D01*
X142822956Y-82778512D01*
X142621747Y-82740900D01*
X142488036Y-82740900D01*
X142419915Y-82720898D01*
X142373422Y-82667242D01*
X142362955Y-82599712D01*
X142365907Y-82575401D01*
X142365907Y-82575400D01*
X142365906Y-82575395D01*
X142364865Y-82566822D01*
X142362955Y-82551085D01*
X142374602Y-82481051D01*
X142422263Y-82428430D01*
X142488037Y-82409900D01*
X142621745Y-82409900D01*
X142621747Y-82409900D01*
X142822956Y-82372288D01*
X143013827Y-82298344D01*
X143187862Y-82190586D01*
X143339132Y-82052685D01*
X143462488Y-81889335D01*
X143553728Y-81706101D01*
X143609745Y-81509221D01*
X143628632Y-81305400D01*
X143628253Y-81301314D01*
X143609745Y-81101580D01*
X143609745Y-81101579D01*
X143553728Y-80904699D01*
X143523573Y-80844139D01*
X147235166Y-80844139D01*
X147254322Y-81001915D01*
X147257306Y-81009782D01*
X147310686Y-81150531D01*
X147400975Y-81281337D01*
X147519944Y-81386735D01*
X147519945Y-81386735D01*
X147519947Y-81386737D01*
X147594673Y-81425956D01*
X147660680Y-81460599D01*
X147815002Y-81498636D01*
X147815003Y-81498636D01*
X147973943Y-81498636D01*
X147973944Y-81498636D01*
X148128266Y-81460599D01*
X148269002Y-81386735D01*
X148335919Y-81327450D01*
X148400172Y-81297250D01*
X148470553Y-81306581D01*
X148503025Y-81327450D01*
X148569944Y-81386735D01*
X148569945Y-81386735D01*
X148569947Y-81386737D01*
X148644673Y-81425956D01*
X148710680Y-81460599D01*
X148865002Y-81498636D01*
X148865003Y-81498636D01*
X149023943Y-81498636D01*
X149023944Y-81498636D01*
X149178266Y-81460599D01*
X149319002Y-81386735D01*
X149437971Y-81281337D01*
X149528260Y-81150531D01*
X149584622Y-81001918D01*
X149584622Y-81001917D01*
X149584623Y-81001915D01*
X149603287Y-80848203D01*
X150707693Y-80848203D01*
X150726849Y-81005979D01*
X150775447Y-81134119D01*
X150783213Y-81154595D01*
X150873502Y-81285401D01*
X150992471Y-81390799D01*
X150992472Y-81390799D01*
X150992474Y-81390801D01*
X151067200Y-81430020D01*
X151133207Y-81464663D01*
X151287529Y-81502700D01*
X151287530Y-81502700D01*
X151446470Y-81502700D01*
X151446471Y-81502700D01*
X151600793Y-81464663D01*
X151741529Y-81390799D01*
X151808446Y-81331514D01*
X151872699Y-81301314D01*
X151943080Y-81310645D01*
X151975552Y-81331514D01*
X152042471Y-81390799D01*
X152042472Y-81390799D01*
X152042474Y-81390801D01*
X152117200Y-81430020D01*
X152183207Y-81464663D01*
X152337529Y-81502700D01*
X152337530Y-81502700D01*
X152496470Y-81502700D01*
X152496471Y-81502700D01*
X152650793Y-81464663D01*
X152791529Y-81390799D01*
X152910498Y-81285401D01*
X153000787Y-81154595D01*
X153057149Y-81005982D01*
X153057149Y-81005981D01*
X153057150Y-81005979D01*
X153076307Y-80848203D01*
X153076307Y-80848196D01*
X153057150Y-80690420D01*
X153010467Y-80567330D01*
X153000787Y-80541805D01*
X152910498Y-80410999D01*
X152791529Y-80305601D01*
X152791528Y-80305600D01*
X152791525Y-80305598D01*
X152650797Y-80231739D01*
X152650795Y-80231738D01*
X152650793Y-80231737D01*
X152650791Y-80231736D01*
X152650790Y-80231736D01*
X152496472Y-80193700D01*
X152496471Y-80193700D01*
X152337529Y-80193700D01*
X152337527Y-80193700D01*
X152183209Y-80231736D01*
X152183202Y-80231739D01*
X152042474Y-80305598D01*
X152042469Y-80305602D01*
X151975554Y-80364885D01*
X151911301Y-80395086D01*
X151840920Y-80385755D01*
X151808446Y-80364885D01*
X151754534Y-80317123D01*
X151741529Y-80305601D01*
X151741528Y-80305600D01*
X151741525Y-80305598D01*
X151600797Y-80231739D01*
X151600795Y-80231738D01*
X151600793Y-80231737D01*
X151600791Y-80231736D01*
X151600790Y-80231736D01*
X151446472Y-80193700D01*
X151446471Y-80193700D01*
X151287529Y-80193700D01*
X151287527Y-80193700D01*
X151133209Y-80231736D01*
X151133202Y-80231739D01*
X150992474Y-80305598D01*
X150992469Y-80305602D01*
X150873501Y-80411000D01*
X150783215Y-80541801D01*
X150783212Y-80541807D01*
X150726849Y-80690420D01*
X150707693Y-80848196D01*
X150707693Y-80848203D01*
X149603287Y-80848203D01*
X149603780Y-80844139D01*
X149603780Y-80844132D01*
X149584623Y-80686356D01*
X149565929Y-80637065D01*
X149528260Y-80537741D01*
X149437971Y-80406935D01*
X149319002Y-80301537D01*
X149319001Y-80301536D01*
X149318998Y-80301534D01*
X149178270Y-80227675D01*
X149178268Y-80227674D01*
X149178266Y-80227673D01*
X149178264Y-80227672D01*
X149178263Y-80227672D01*
X149023945Y-80189636D01*
X149023944Y-80189636D01*
X148865002Y-80189636D01*
X148865000Y-80189636D01*
X148710682Y-80227672D01*
X148710675Y-80227675D01*
X148569947Y-80301534D01*
X148569942Y-80301538D01*
X148503027Y-80360821D01*
X148438774Y-80391022D01*
X148368393Y-80381691D01*
X148335919Y-80360821D01*
X148281324Y-80312454D01*
X148269002Y-80301537D01*
X148269001Y-80301536D01*
X148268998Y-80301534D01*
X148128270Y-80227675D01*
X148128268Y-80227674D01*
X148128266Y-80227673D01*
X148128264Y-80227672D01*
X148128263Y-80227672D01*
X147973945Y-80189636D01*
X147973944Y-80189636D01*
X147815002Y-80189636D01*
X147815000Y-80189636D01*
X147660682Y-80227672D01*
X147660675Y-80227675D01*
X147519947Y-80301534D01*
X147519942Y-80301538D01*
X147400974Y-80406936D01*
X147310688Y-80537737D01*
X147310685Y-80537743D01*
X147254322Y-80686356D01*
X147235166Y-80844132D01*
X147235166Y-80844139D01*
X143523573Y-80844139D01*
X143462488Y-80721465D01*
X143398752Y-80637065D01*
X143339133Y-80558115D01*
X143187863Y-80420214D01*
X143013833Y-80312459D01*
X143013828Y-80312457D01*
X143013827Y-80312456D01*
X142996125Y-80305598D01*
X142822959Y-80238513D01*
X142822960Y-80238513D01*
X142822957Y-80238512D01*
X142822956Y-80238512D01*
X142621747Y-80200900D01*
X142417053Y-80200900D01*
X142351253Y-80213200D01*
X142298933Y-80222980D01*
X142228296Y-80215835D01*
X142172736Y-80171636D01*
X142150700Y-80114314D01*
X142143549Y-80055418D01*
X142143548Y-80055416D01*
X142143548Y-80055413D01*
X142137922Y-80040578D01*
X142132468Y-79969791D01*
X142166151Y-79907293D01*
X142202575Y-79887144D01*
X145090300Y-79887144D01*
X145106740Y-79969791D01*
X145119295Y-80032910D01*
X145176171Y-80170220D01*
X145258741Y-80293796D01*
X145258742Y-80293797D01*
X145258747Y-80293803D01*
X145363826Y-80398882D01*
X145363832Y-80398887D01*
X145363834Y-80398889D01*
X145487410Y-80481459D01*
X145624720Y-80538335D01*
X145770488Y-80567330D01*
X145770489Y-80567330D01*
X145919111Y-80567330D01*
X145919112Y-80567330D01*
X146064880Y-80538335D01*
X146202190Y-80481459D01*
X146325766Y-80398889D01*
X146430859Y-80293796D01*
X146513429Y-80170220D01*
X146570305Y-80032910D01*
X146599300Y-79887144D01*
X153730300Y-79887144D01*
X153746740Y-79969791D01*
X153759295Y-80032910D01*
X153816171Y-80170220D01*
X153898741Y-80293796D01*
X153898742Y-80293797D01*
X153898747Y-80293803D01*
X154003826Y-80398882D01*
X154003832Y-80398887D01*
X154003834Y-80398889D01*
X154127410Y-80481459D01*
X154264720Y-80538335D01*
X154410488Y-80567330D01*
X154410489Y-80567330D01*
X154559111Y-80567330D01*
X154559112Y-80567330D01*
X154704880Y-80538335D01*
X154842190Y-80481459D01*
X154965766Y-80398889D01*
X155070859Y-80293796D01*
X155153429Y-80170220D01*
X155210305Y-80032910D01*
X155239300Y-79887142D01*
X155239300Y-78938518D01*
X155210305Y-78792750D01*
X155153429Y-78655440D01*
X155070859Y-78531864D01*
X155070857Y-78531862D01*
X155070852Y-78531856D01*
X154965773Y-78426777D01*
X154965767Y-78426772D01*
X154965766Y-78426771D01*
X154842190Y-78344201D01*
X154704880Y-78287325D01*
X154559114Y-78258330D01*
X154559112Y-78258330D01*
X154410488Y-78258330D01*
X154410485Y-78258330D01*
X154264719Y-78287325D01*
X154264714Y-78287327D01*
X154127410Y-78344201D01*
X154003832Y-78426772D01*
X154003826Y-78426777D01*
X153898747Y-78531856D01*
X153898742Y-78531862D01*
X153816171Y-78655440D01*
X153759297Y-78792744D01*
X153759295Y-78792749D01*
X153730300Y-78938515D01*
X153730300Y-79887144D01*
X146599300Y-79887144D01*
X146599300Y-79887142D01*
X146599300Y-78938518D01*
X146570305Y-78792750D01*
X146513429Y-78655440D01*
X146430859Y-78531864D01*
X146430857Y-78531862D01*
X146430852Y-78531856D01*
X146325773Y-78426777D01*
X146325767Y-78426772D01*
X146325766Y-78426771D01*
X146202190Y-78344201D01*
X146064880Y-78287325D01*
X145919114Y-78258330D01*
X145919112Y-78258330D01*
X145770488Y-78258330D01*
X145770485Y-78258330D01*
X145624719Y-78287325D01*
X145624714Y-78287327D01*
X145487410Y-78344201D01*
X145363832Y-78426772D01*
X145363826Y-78426777D01*
X145258747Y-78531856D01*
X145258742Y-78531862D01*
X145176171Y-78655440D01*
X145119297Y-78792744D01*
X145119295Y-78792749D01*
X145090300Y-78938515D01*
X145090300Y-79887144D01*
X142202575Y-79887144D01*
X142228276Y-79872927D01*
X142255734Y-79869899D01*
X143394464Y-79869899D01*
X143394466Y-79869899D01*
X143394469Y-79869898D01*
X143394472Y-79869898D01*
X143431063Y-79862619D01*
X143468701Y-79855134D01*
X143552884Y-79798884D01*
X143609134Y-79714701D01*
X143623900Y-79640467D01*
X143623899Y-77890334D01*
X143623898Y-77890330D01*
X143623898Y-77890326D01*
X143609134Y-77816099D01*
X143552883Y-77731915D01*
X143468702Y-77675666D01*
X143394467Y-77660900D01*
X141644336Y-77660900D01*
X141644326Y-77660901D01*
X141570099Y-77675665D01*
X141485915Y-77731916D01*
X141429666Y-77816097D01*
X141414900Y-77890330D01*
X141414900Y-79462210D01*
X141394898Y-79530331D01*
X141341242Y-79576824D01*
X141319055Y-79584548D01*
X141269615Y-79596734D01*
X141269602Y-79596739D01*
X141128874Y-79670598D01*
X141128869Y-79670602D01*
X141009901Y-79776000D01*
X140919615Y-79906801D01*
X140919612Y-79906807D01*
X140863249Y-80055420D01*
X140844093Y-80213196D01*
X140844093Y-80213203D01*
X140863249Y-80370979D01*
X140895736Y-80456637D01*
X140919613Y-80519595D01*
X141009902Y-80650401D01*
X141128871Y-80755799D01*
X141128872Y-80755799D01*
X141128874Y-80755801D01*
X141177270Y-80781201D01*
X141269607Y-80829663D01*
X141269608Y-80829663D01*
X141269610Y-80829664D01*
X141311148Y-80839901D01*
X141364136Y-80852962D01*
X141425491Y-80888685D01*
X141457792Y-80951908D01*
X141455173Y-81009782D01*
X141429054Y-81101580D01*
X141410168Y-81305395D01*
X141410168Y-81305404D01*
X141429054Y-81509219D01*
X141429055Y-81509221D01*
X141485072Y-81706101D01*
X141527365Y-81791036D01*
X141539824Y-81860931D01*
X141512517Y-81926466D01*
X141473130Y-81958766D01*
X141332071Y-82032799D01*
X141332069Y-82032801D01*
X141213101Y-82138199D01*
X141122815Y-82269000D01*
X141122812Y-82269006D01*
X141066449Y-82417619D01*
X141047293Y-82575395D01*
X141047293Y-82575402D01*
X141066449Y-82733178D01*
X141109956Y-82847894D01*
X141122813Y-82881794D01*
X141213102Y-83012600D01*
X141332071Y-83117998D01*
X141472807Y-83191862D01*
X141472812Y-83191863D01*
X141473130Y-83192030D01*
X141524152Y-83241398D01*
X141540385Y-83310514D01*
X141527366Y-83359761D01*
X141485071Y-83444700D01*
X141429054Y-83641580D01*
X141410168Y-83845395D01*
X141410168Y-83845404D01*
X141429054Y-84049219D01*
X141485071Y-84246098D01*
X141527365Y-84331036D01*
X141539824Y-84400931D01*
X141512517Y-84466466D01*
X141473130Y-84498766D01*
X141332071Y-84572799D01*
X141332069Y-84572801D01*
X141213101Y-84678199D01*
X141122815Y-84809000D01*
X141122812Y-84809006D01*
X141066449Y-84957619D01*
X141047293Y-85115395D01*
X141047293Y-85115402D01*
X141066449Y-85273178D01*
X141111686Y-85392454D01*
X141122813Y-85421794D01*
X141213102Y-85552600D01*
X141332071Y-85657998D01*
X141472807Y-85731862D01*
X141472812Y-85731863D01*
X141473130Y-85732030D01*
X141524152Y-85781398D01*
X141540385Y-85850514D01*
X141527366Y-85899761D01*
X141485071Y-85984700D01*
X141429054Y-86181580D01*
X141410168Y-86385395D01*
X141410168Y-86385404D01*
X141429054Y-86589219D01*
X141485071Y-86786098D01*
X141485072Y-86786101D01*
X141527365Y-86871036D01*
X141539824Y-86940931D01*
X141512517Y-87006466D01*
X141473130Y-87038766D01*
X141332071Y-87112799D01*
X141332069Y-87112801D01*
X141213101Y-87218199D01*
X141122815Y-87349000D01*
X141122812Y-87349006D01*
X141066449Y-87497619D01*
X141047293Y-87655395D01*
X141047293Y-87655402D01*
X141066449Y-87813178D01*
X141096797Y-87893197D01*
X141122813Y-87961794D01*
X141213102Y-88092600D01*
X141332071Y-88197998D01*
X141472807Y-88271862D01*
X141472812Y-88271863D01*
X141473130Y-88272030D01*
X141524152Y-88321398D01*
X141540385Y-88390514D01*
X141527366Y-88439761D01*
X141485071Y-88524700D01*
X141429054Y-88721580D01*
X141410168Y-88925395D01*
X141410168Y-88925404D01*
X141429054Y-89129219D01*
X141429055Y-89129221D01*
X141485072Y-89326101D01*
X141527365Y-89411036D01*
X141539824Y-89480931D01*
X141512517Y-89546466D01*
X141473130Y-89578766D01*
X141332071Y-89652799D01*
X141332069Y-89652801D01*
X141213101Y-89758199D01*
X141122815Y-89889000D01*
X141122812Y-89889006D01*
X141066449Y-90037619D01*
X141047293Y-90195395D01*
X141047293Y-90195402D01*
X141066449Y-90353178D01*
X141083643Y-90398513D01*
X141122813Y-90501794D01*
X141213102Y-90632600D01*
X141332071Y-90737998D01*
X141472807Y-90811862D01*
X141472812Y-90811863D01*
X141473130Y-90812030D01*
X141524152Y-90861398D01*
X141540385Y-90930514D01*
X141527366Y-90979761D01*
X141485071Y-91064700D01*
X141429054Y-91261580D01*
X141410168Y-91465395D01*
X141410168Y-91465404D01*
X141429054Y-91669219D01*
X141429055Y-91669221D01*
X141485072Y-91866101D01*
X141527365Y-91951036D01*
X141539824Y-92020931D01*
X141512517Y-92086466D01*
X141473130Y-92118766D01*
X141332071Y-92192799D01*
X141332069Y-92192801D01*
X141213101Y-92298199D01*
X141122815Y-92429000D01*
X141122812Y-92429006D01*
X141066449Y-92577619D01*
X141047293Y-92735395D01*
X141047293Y-92735402D01*
X141066449Y-92893178D01*
X141083643Y-92938513D01*
X141122813Y-93041794D01*
X141213102Y-93172600D01*
X141332071Y-93277998D01*
X141472807Y-93351862D01*
X141472812Y-93351863D01*
X141473130Y-93352030D01*
X141524152Y-93401398D01*
X141540385Y-93470514D01*
X141527366Y-93519761D01*
X141485071Y-93604700D01*
X141429054Y-93801580D01*
X141410168Y-94005395D01*
X141410168Y-94005404D01*
X141429054Y-94209219D01*
X141485071Y-94406098D01*
X141485072Y-94406101D01*
X141527365Y-94491036D01*
X141539824Y-94560931D01*
X141512517Y-94626466D01*
X141473130Y-94658766D01*
X141332071Y-94732799D01*
X141332069Y-94732801D01*
X141213101Y-94838199D01*
X141122815Y-94969000D01*
X141122812Y-94969006D01*
X141066449Y-95117619D01*
X141047293Y-95275395D01*
X141047293Y-95275402D01*
X141066449Y-95433178D01*
X141109087Y-95545601D01*
X141122813Y-95581794D01*
X141213102Y-95712600D01*
X141332071Y-95817998D01*
X141472807Y-95891862D01*
X141472812Y-95891863D01*
X141473130Y-95892030D01*
X141524152Y-95941398D01*
X141540385Y-96010514D01*
X141527366Y-96059761D01*
X141485071Y-96144700D01*
X141429054Y-96341580D01*
X141410168Y-96545395D01*
X141410168Y-96545404D01*
X141429054Y-96749219D01*
X141485071Y-96946098D01*
X141485072Y-96946101D01*
X141527365Y-97031036D01*
X141539824Y-97100931D01*
X141512517Y-97166466D01*
X141473130Y-97198766D01*
X141332071Y-97272799D01*
X141332069Y-97272801D01*
X141213101Y-97378199D01*
X141122815Y-97509000D01*
X141122812Y-97509006D01*
X141066449Y-97657619D01*
X141047293Y-97815395D01*
X141047293Y-97815402D01*
X141066449Y-97973178D01*
X141111388Y-98091668D01*
X141122813Y-98121794D01*
X141213102Y-98252600D01*
X141332071Y-98357998D01*
X141472807Y-98431862D01*
X141472812Y-98431863D01*
X141473130Y-98432030D01*
X141524152Y-98481398D01*
X141540385Y-98550514D01*
X141527366Y-98599761D01*
X141485071Y-98684700D01*
X141429054Y-98881580D01*
X141410168Y-99085395D01*
X141410168Y-99085404D01*
X141429054Y-99289219D01*
X141473776Y-99446399D01*
X141485072Y-99486101D01*
X141527365Y-99571036D01*
X141539824Y-99640931D01*
X141512517Y-99706466D01*
X141473130Y-99738766D01*
X141332071Y-99812799D01*
X141332069Y-99812801D01*
X141213101Y-99918199D01*
X141122815Y-100049000D01*
X141122812Y-100049006D01*
X141066449Y-100197619D01*
X141047293Y-100355395D01*
X141047293Y-100355402D01*
X141066449Y-100513178D01*
X141111686Y-100632454D01*
X141122813Y-100661794D01*
X141213102Y-100792600D01*
X141332071Y-100897998D01*
X141472807Y-100971862D01*
X141472812Y-100971863D01*
X141473130Y-100972030D01*
X141524152Y-101021398D01*
X141540385Y-101090514D01*
X141527366Y-101139761D01*
X141485071Y-101224700D01*
X141429054Y-101421580D01*
X141410168Y-101625395D01*
X141410168Y-101625404D01*
X141429054Y-101829219D01*
X141441801Y-101874020D01*
X141485072Y-102026101D01*
X141527365Y-102111036D01*
X141539824Y-102180931D01*
X141512517Y-102246466D01*
X141473130Y-102278766D01*
X141332071Y-102352799D01*
X141332069Y-102352801D01*
X141213101Y-102458199D01*
X141122815Y-102589000D01*
X141122812Y-102589006D01*
X141066449Y-102737619D01*
X141047293Y-102895395D01*
X141047293Y-102895402D01*
X141066449Y-103053178D01*
X141111388Y-103171668D01*
X141122813Y-103201794D01*
X141213102Y-103332600D01*
X141332071Y-103437998D01*
X141472807Y-103511862D01*
X141472812Y-103511863D01*
X141473130Y-103512030D01*
X141524152Y-103561398D01*
X141540385Y-103630514D01*
X141527366Y-103679761D01*
X141485071Y-103764700D01*
X141429054Y-103961580D01*
X141410168Y-104165395D01*
X141410168Y-104165404D01*
X141429054Y-104369219D01*
X141472694Y-104522598D01*
X141485072Y-104566101D01*
X141527365Y-104651036D01*
X141539824Y-104720931D01*
X141512517Y-104786466D01*
X141473130Y-104818766D01*
X141332071Y-104892799D01*
X141332069Y-104892801D01*
X141213101Y-104998199D01*
X141122815Y-105129000D01*
X141122812Y-105129006D01*
X141066449Y-105277619D01*
X141047293Y-105435395D01*
X141047293Y-105435402D01*
X141066449Y-105593178D01*
X141083643Y-105638513D01*
X141122813Y-105741794D01*
X141213102Y-105872600D01*
X141332071Y-105977998D01*
X141472807Y-106051862D01*
X141472812Y-106051863D01*
X141473130Y-106052030D01*
X141524152Y-106101398D01*
X141540385Y-106170514D01*
X141527366Y-106219761D01*
X141485071Y-106304700D01*
X141429054Y-106501580D01*
X141410168Y-106705395D01*
X141410168Y-106705404D01*
X141429054Y-106909219D01*
X141459550Y-107016401D01*
X141485072Y-107106101D01*
X141527365Y-107191036D01*
X141539824Y-107260931D01*
X141512517Y-107326466D01*
X141473130Y-107358766D01*
X141332071Y-107432799D01*
X141332069Y-107432801D01*
X141213101Y-107538199D01*
X141122815Y-107669000D01*
X141122812Y-107669006D01*
X141066449Y-107817619D01*
X141047293Y-107975395D01*
X141047293Y-107975402D01*
X141066449Y-108133178D01*
X141083643Y-108178513D01*
X141122813Y-108281794D01*
X141213102Y-108412600D01*
X141332071Y-108517998D01*
X141472807Y-108591862D01*
X141472812Y-108591863D01*
X141473130Y-108592030D01*
X141524152Y-108641398D01*
X141540385Y-108710514D01*
X141527366Y-108759761D01*
X141485071Y-108844700D01*
X141429054Y-109041580D01*
X141410168Y-109245395D01*
X141410168Y-109245404D01*
X141429054Y-109449219D01*
X141475882Y-109613803D01*
X141485072Y-109646101D01*
X141527365Y-109731036D01*
X141539824Y-109800931D01*
X141512517Y-109866466D01*
X141473130Y-109898766D01*
X141332071Y-109972799D01*
X141332069Y-109972801D01*
X141243803Y-110050999D01*
X141216771Y-110074948D01*
X141213101Y-110078199D01*
X141122815Y-110209000D01*
X141122812Y-110209006D01*
X141066449Y-110357619D01*
X141047293Y-110515395D01*
X141047293Y-110515402D01*
X141066449Y-110673178D01*
X141109087Y-110785601D01*
X141122813Y-110821794D01*
X141213102Y-110952600D01*
X141332071Y-111057998D01*
X141472807Y-111131862D01*
X141472812Y-111131863D01*
X141473130Y-111132030D01*
X141524152Y-111181398D01*
X141540385Y-111250514D01*
X141527366Y-111299761D01*
X141485071Y-111384700D01*
X141429054Y-111581580D01*
X141410168Y-111785395D01*
X141410168Y-111785404D01*
X141429054Y-111989219D01*
X141429055Y-111989221D01*
X141485072Y-112186101D01*
X141527365Y-112271036D01*
X141539824Y-112340931D01*
X141512517Y-112406466D01*
X141473130Y-112438766D01*
X141332071Y-112512799D01*
X141332069Y-112512801D01*
X141213101Y-112618199D01*
X141122815Y-112749000D01*
X141122812Y-112749006D01*
X141066449Y-112897619D01*
X141047293Y-113055395D01*
X141047293Y-113055402D01*
X141066449Y-113213178D01*
X141111686Y-113332454D01*
X141122813Y-113361794D01*
X141213102Y-113492600D01*
X141332071Y-113597998D01*
X141472807Y-113671862D01*
X141472812Y-113671863D01*
X141473130Y-113672030D01*
X141524152Y-113721398D01*
X141540385Y-113790514D01*
X141527366Y-113839761D01*
X141485071Y-113924700D01*
X141429054Y-114121580D01*
X141410168Y-114325395D01*
X141410168Y-114325404D01*
X141429054Y-114529219D01*
X141429055Y-114529221D01*
X141485072Y-114726101D01*
X141527365Y-114811036D01*
X141539824Y-114880931D01*
X141512517Y-114946466D01*
X141473130Y-114978766D01*
X141332071Y-115052799D01*
X141332069Y-115052801D01*
X141213101Y-115158199D01*
X141122815Y-115289000D01*
X141122812Y-115289006D01*
X141066449Y-115437619D01*
X141047293Y-115595395D01*
X141047293Y-115595402D01*
X141066449Y-115753178D01*
X141096395Y-115832137D01*
X141122813Y-115901794D01*
X141213102Y-116032600D01*
X141332071Y-116137998D01*
X141472807Y-116211862D01*
X141472812Y-116211863D01*
X141473130Y-116212030D01*
X141524152Y-116261398D01*
X141540385Y-116330514D01*
X141527366Y-116379761D01*
X141485071Y-116464700D01*
X141429054Y-116661580D01*
X141410168Y-116865395D01*
X141410168Y-116865404D01*
X141429054Y-117069219D01*
X141429055Y-117069221D01*
X141485072Y-117266101D01*
X141527365Y-117351036D01*
X141539824Y-117420931D01*
X141512517Y-117486466D01*
X141473130Y-117518766D01*
X141332071Y-117592799D01*
X141332069Y-117592801D01*
X141213101Y-117698199D01*
X141122815Y-117829000D01*
X141122812Y-117829006D01*
X141066449Y-117977619D01*
X141047293Y-118135395D01*
X141047293Y-118135402D01*
X141066449Y-118293178D01*
X141083643Y-118338513D01*
X141122813Y-118441794D01*
X141213102Y-118572600D01*
X141332071Y-118677998D01*
X141472807Y-118751862D01*
X141472812Y-118751863D01*
X141473130Y-118752030D01*
X141524152Y-118801398D01*
X141540385Y-118870514D01*
X141527366Y-118919761D01*
X141485071Y-119004700D01*
X141429054Y-119201580D01*
X141410168Y-119405395D01*
X141410168Y-119405404D01*
X141429054Y-119609219D01*
X141429055Y-119609221D01*
X141485072Y-119806101D01*
X141527365Y-119891036D01*
X141539824Y-119960931D01*
X141512517Y-120026466D01*
X141473130Y-120058766D01*
X141332071Y-120132799D01*
X141332069Y-120132801D01*
X141213101Y-120238199D01*
X141122815Y-120369000D01*
X141122812Y-120369006D01*
X141066449Y-120517619D01*
X141047293Y-120675395D01*
X141047293Y-120675402D01*
X141066449Y-120833178D01*
X141111686Y-120952454D01*
X141122813Y-120981794D01*
X141213102Y-121112600D01*
X141332071Y-121217998D01*
X141472807Y-121291862D01*
X141472812Y-121291863D01*
X141473130Y-121292030D01*
X141524152Y-121341398D01*
X141540385Y-121410514D01*
X141527366Y-121459761D01*
X141485071Y-121544700D01*
X141429054Y-121741580D01*
X141410168Y-121945395D01*
X141410168Y-121945404D01*
X141429054Y-122149219D01*
X141429055Y-122149221D01*
X141485072Y-122346101D01*
X141527365Y-122431036D01*
X141539824Y-122500931D01*
X141512517Y-122566466D01*
X141473130Y-122598766D01*
X141332071Y-122672799D01*
X141332069Y-122672801D01*
X141213101Y-122778199D01*
X141122815Y-122909000D01*
X141122812Y-122909006D01*
X141066449Y-123057619D01*
X141047293Y-123215395D01*
X141047293Y-123215402D01*
X141066449Y-123373178D01*
X141083643Y-123418513D01*
X141122813Y-123521794D01*
X141213102Y-123652600D01*
X141332071Y-123757998D01*
X141472807Y-123831862D01*
X141472812Y-123831863D01*
X141473130Y-123832030D01*
X141524152Y-123881398D01*
X141540385Y-123950514D01*
X141527366Y-123999761D01*
X141485071Y-124084700D01*
X141429054Y-124281580D01*
X141410168Y-124485395D01*
X141410168Y-124485404D01*
X141429054Y-124689219D01*
X141485071Y-124886098D01*
X141485072Y-124886101D01*
X141527365Y-124971036D01*
X141539824Y-125040931D01*
X141512517Y-125106466D01*
X141473130Y-125138766D01*
X141332071Y-125212799D01*
X141332069Y-125212801D01*
X141213101Y-125318199D01*
X141122815Y-125449000D01*
X141122812Y-125449006D01*
X141066449Y-125597619D01*
X141047293Y-125755395D01*
X141047293Y-125755402D01*
X141066449Y-125913178D01*
X141115047Y-126041318D01*
X141122813Y-126061794D01*
X141213102Y-126192600D01*
X141332071Y-126297998D01*
X141332072Y-126297998D01*
X141332074Y-126298000D01*
X141473573Y-126372264D01*
X141524596Y-126421632D01*
X141540828Y-126490748D01*
X141527809Y-126539994D01*
X141485540Y-126624880D01*
X141485538Y-126624885D01*
X141443850Y-126771399D01*
X141443851Y-126771400D01*
X142088697Y-126771400D01*
X142053475Y-126832407D01*
X142019400Y-126959574D01*
X142019400Y-127091226D01*
X142053475Y-127218393D01*
X142088697Y-127279400D01*
X141443851Y-127279400D01*
X141485538Y-127425914D01*
X141485540Y-127425919D01*
X141576740Y-127609072D01*
X141700037Y-127772346D01*
X141851238Y-127910184D01*
X142025196Y-128017893D01*
X142025203Y-128017896D01*
X142215982Y-128091805D01*
X142265399Y-128101042D01*
X142265400Y-128101042D01*
X142265400Y-127456102D01*
X142326407Y-127491325D01*
X142453574Y-127525400D01*
X142585226Y-127525400D01*
X142712393Y-127491325D01*
X142773400Y-127456102D01*
X142773400Y-128101042D01*
X142822817Y-128091805D01*
X142822818Y-128091805D01*
X143013597Y-128017896D01*
X143013606Y-128017891D01*
X143036408Y-128003773D01*
X143104855Y-127984916D01*
X143172631Y-128006057D01*
X143218217Y-128060485D01*
X143220553Y-128066216D01*
X143223167Y-128073107D01*
X143231013Y-128093795D01*
X143321302Y-128224601D01*
X143412153Y-128305089D01*
X143449878Y-128365232D01*
X143449098Y-128436225D01*
X143410060Y-128495525D01*
X143345159Y-128524307D01*
X143328599Y-128525400D01*
X139952800Y-128525400D01*
X139884679Y-128505398D01*
X139838186Y-128451742D01*
X139826800Y-128399400D01*
X139826800Y-77391400D01*
X139846802Y-77323279D01*
X139900458Y-77276786D01*
X139952800Y-77265400D01*
X160376800Y-77265400D01*
X160444921Y-77285402D01*
G37*
%TD.AperFunction*%
%TA.AperFunction,Conductor*%
G36*
X156725706Y-80642130D02*
G01*
X156782542Y-80684677D01*
X156807353Y-80751197D01*
X156794465Y-80816349D01*
X156750471Y-80904701D01*
X156694454Y-81101580D01*
X156675568Y-81305395D01*
X156675568Y-81305404D01*
X156694454Y-81509219D01*
X156694455Y-81509221D01*
X156750472Y-81706101D01*
X156841712Y-81889335D01*
X156841713Y-81889336D01*
X156965066Y-82052684D01*
X157116336Y-82190585D01*
X157290366Y-82298340D01*
X157290368Y-82298340D01*
X157290373Y-82298344D01*
X157481244Y-82372288D01*
X157682453Y-82409900D01*
X157682455Y-82409900D01*
X157816163Y-82409900D01*
X157884284Y-82429902D01*
X157930777Y-82483558D01*
X157941245Y-82551085D01*
X157939334Y-82566822D01*
X157938294Y-82575395D01*
X157938293Y-82575400D01*
X157938293Y-82575402D01*
X157957449Y-82733178D01*
X157985597Y-82807395D01*
X158013813Y-82881794D01*
X158013814Y-82881795D01*
X158016494Y-82885678D01*
X158038731Y-82953102D01*
X158038800Y-82957257D01*
X158038800Y-83414697D01*
X157977793Y-83379475D01*
X157850626Y-83345400D01*
X157718974Y-83345400D01*
X157591807Y-83379475D01*
X157530800Y-83414697D01*
X157530800Y-82769757D01*
X157481375Y-82778996D01*
X157290603Y-82852903D01*
X157290596Y-82852906D01*
X157116638Y-82960615D01*
X156965437Y-83098453D01*
X156842140Y-83261727D01*
X156750940Y-83444880D01*
X156750938Y-83444885D01*
X156709250Y-83591399D01*
X156709251Y-83591400D01*
X157354097Y-83591400D01*
X157318875Y-83652407D01*
X157284800Y-83779574D01*
X157284800Y-83911226D01*
X157318875Y-84038393D01*
X157354097Y-84099400D01*
X156709251Y-84099400D01*
X156750938Y-84245914D01*
X156750940Y-84245919D01*
X156842140Y-84429072D01*
X156965437Y-84592346D01*
X157116638Y-84730184D01*
X157290596Y-84837893D01*
X157290603Y-84837896D01*
X157481382Y-84911805D01*
X157530799Y-84921042D01*
X157530800Y-84921042D01*
X157530800Y-84276102D01*
X157591807Y-84311325D01*
X157718974Y-84345400D01*
X157850626Y-84345400D01*
X157977793Y-84311325D01*
X158038800Y-84276102D01*
X158038800Y-84733540D01*
X158018798Y-84801661D01*
X158016496Y-84805117D01*
X158013813Y-84809002D01*
X157957449Y-84957619D01*
X157938293Y-85115395D01*
X157938293Y-85115401D01*
X157941245Y-85139712D01*
X157929600Y-85209747D01*
X157881940Y-85262368D01*
X157816164Y-85280900D01*
X157682453Y-85280900D01*
X157481244Y-85318512D01*
X157481239Y-85318513D01*
X157290377Y-85392454D01*
X157290366Y-85392459D01*
X157116336Y-85500214D01*
X156965066Y-85638115D01*
X156841712Y-85801464D01*
X156841711Y-85801465D01*
X156751279Y-85983076D01*
X156703010Y-86035139D01*
X156634256Y-86052841D01*
X156566845Y-86030561D01*
X156522181Y-85975374D01*
X156520677Y-85971593D01*
X156519454Y-85968367D01*
X156463092Y-85819754D01*
X156372803Y-85688948D01*
X156253834Y-85583550D01*
X156253833Y-85583549D01*
X156253830Y-85583547D01*
X156113102Y-85509688D01*
X156113100Y-85509687D01*
X156113098Y-85509686D01*
X156113096Y-85509685D01*
X156113095Y-85509685D01*
X155958777Y-85471649D01*
X155958776Y-85471649D01*
X155804613Y-85471649D01*
X155736492Y-85451647D01*
X155689999Y-85397991D01*
X155679895Y-85327717D01*
X155709389Y-85263137D01*
X155715518Y-85256554D01*
X155978695Y-84993376D01*
X155978695Y-84993375D01*
X155978701Y-84993370D01*
X156007493Y-84943500D01*
X156025513Y-84912289D01*
X156045116Y-84878335D01*
X156045115Y-84878335D01*
X156045119Y-84878330D01*
X156079500Y-84750019D01*
X156079500Y-81236360D01*
X156099502Y-81168239D01*
X156116400Y-81147270D01*
X156592580Y-80671090D01*
X156654891Y-80637065D01*
X156725706Y-80642130D01*
G37*
%TD.AperFunction*%
%TD*%
M02*
