%TF.GenerationSoftware,KiCad,Pcbnew,6.0.11-2627ca5db0~126~ubuntu20.04.1*%
%TF.CreationDate,2023-02-28T16:59:55+07:00*%
%TF.ProjectId,Bluepill-USB-C,426c7565-7069-46c6-9c2d-5553422d432e,rev?*%
%TF.SameCoordinates,Original*%
%TF.FileFunction,Legend,Bot*%
%TF.FilePolarity,Positive*%
%FSLAX46Y46*%
G04 Gerber Fmt 4.6, Leading zero omitted, Abs format (unit mm)*
G04 Created by KiCad (PCBNEW 6.0.11-2627ca5db0~126~ubuntu20.04.1) date 2023-02-28 16:59:55*
%MOMM*%
%LPD*%
G01*
G04 APERTURE LIST*
%ADD10C,0.150000*%
%ADD11C,0.120000*%
G04 APERTURE END LIST*
D10*
X157233333Y-109730000D02*
X157233333Y-109396666D01*
X157033333Y-109796666D02*
X157733333Y-109563333D01*
X157033333Y-109330000D01*
X157733333Y-109163333D02*
X157733333Y-108730000D01*
X157466666Y-108963333D01*
X157466666Y-108863333D01*
X157433333Y-108796666D01*
X157400000Y-108763333D01*
X157333333Y-108730000D01*
X157166666Y-108730000D01*
X157100000Y-108763333D01*
X157066666Y-108796666D01*
X157033333Y-108863333D01*
X157033333Y-109063333D01*
X157066666Y-109130000D01*
X157100000Y-109163333D01*
X143016666Y-90950000D02*
X143016666Y-91283333D01*
X143216666Y-90883333D02*
X142516666Y-91116666D01*
X143216666Y-91350000D01*
X143216666Y-91616666D02*
X143216666Y-91750000D01*
X143183333Y-91816666D01*
X143150000Y-91850000D01*
X143050000Y-91916666D01*
X142916666Y-91950000D01*
X142650000Y-91950000D01*
X142583333Y-91916666D01*
X142550000Y-91883333D01*
X142516666Y-91816666D01*
X142516666Y-91683333D01*
X142550000Y-91616666D01*
X142583333Y-91583333D01*
X142650000Y-91550000D01*
X142816666Y-91550000D01*
X142883333Y-91583333D01*
X142916666Y-91616666D01*
X142950000Y-91683333D01*
X142950000Y-91816666D01*
X142916666Y-91883333D01*
X142883333Y-91916666D01*
X142816666Y-91950000D01*
X157733333Y-78883333D02*
X157733333Y-79216666D01*
X157400000Y-79250000D01*
X157433333Y-79216666D01*
X157466666Y-79150000D01*
X157466666Y-78983333D01*
X157433333Y-78916666D01*
X157400000Y-78883333D01*
X157333333Y-78850000D01*
X157166666Y-78850000D01*
X157100000Y-78883333D01*
X157066666Y-78916666D01*
X157033333Y-78983333D01*
X157033333Y-79150000D01*
X157066666Y-79216666D01*
X157100000Y-79250000D01*
X157733333Y-78650000D02*
X157033333Y-78416666D01*
X157733333Y-78183333D01*
X148670000Y-125466666D02*
X148636666Y-125500000D01*
X148603333Y-125600000D01*
X148603333Y-125666666D01*
X148636666Y-125766666D01*
X148703333Y-125833333D01*
X148770000Y-125866666D01*
X148903333Y-125900000D01*
X149003333Y-125900000D01*
X149136666Y-125866666D01*
X149203333Y-125833333D01*
X149270000Y-125766666D01*
X149303333Y-125666666D01*
X149303333Y-125600000D01*
X149270000Y-125500000D01*
X149236666Y-125466666D01*
X148603333Y-124833333D02*
X148603333Y-125166666D01*
X149303333Y-125166666D01*
X148603333Y-124600000D02*
X149303333Y-124600000D01*
X148603333Y-124200000D02*
X149003333Y-124500000D01*
X149303333Y-124200000D02*
X148903333Y-124600000D01*
X154383333Y-125916666D02*
X154383333Y-125483333D01*
X154116666Y-125716666D01*
X154116666Y-125616666D01*
X154083333Y-125550000D01*
X154050000Y-125516666D01*
X153983333Y-125483333D01*
X153816666Y-125483333D01*
X153750000Y-125516666D01*
X153716666Y-125550000D01*
X153683333Y-125616666D01*
X153683333Y-125816666D01*
X153716666Y-125883333D01*
X153750000Y-125916666D01*
X154383333Y-125283333D02*
X153683333Y-125050000D01*
X154383333Y-124816666D01*
X154383333Y-124650000D02*
X154383333Y-124216666D01*
X154116666Y-124450000D01*
X154116666Y-124350000D01*
X154083333Y-124283333D01*
X154050000Y-124250000D01*
X153983333Y-124216666D01*
X153816666Y-124216666D01*
X153750000Y-124250000D01*
X153716666Y-124283333D01*
X153683333Y-124350000D01*
X153683333Y-124550000D01*
X153716666Y-124616666D01*
X153750000Y-124650000D01*
X142550000Y-123936666D02*
X142516666Y-123870000D01*
X142516666Y-123770000D01*
X142550000Y-123670000D01*
X142616666Y-123603333D01*
X142683333Y-123570000D01*
X142816666Y-123536666D01*
X142916666Y-123536666D01*
X143050000Y-123570000D01*
X143116666Y-123603333D01*
X143183333Y-123670000D01*
X143216666Y-123770000D01*
X143216666Y-123836666D01*
X143183333Y-123936666D01*
X143150000Y-123970000D01*
X142916666Y-123970000D01*
X142916666Y-123836666D01*
X143216666Y-124270000D02*
X142516666Y-124270000D01*
X143216666Y-124670000D01*
X142516666Y-124670000D01*
X143216666Y-125003333D02*
X142516666Y-125003333D01*
X142516666Y-125170000D01*
X142550000Y-125270000D01*
X142616666Y-125336666D01*
X142683333Y-125370000D01*
X142816666Y-125403333D01*
X142916666Y-125403333D01*
X143050000Y-125370000D01*
X143116666Y-125336666D01*
X143183333Y-125270000D01*
X143216666Y-125170000D01*
X143216666Y-125003333D01*
X157400000Y-89526666D02*
X157366666Y-89426666D01*
X157333333Y-89393333D01*
X157266666Y-89360000D01*
X157166666Y-89360000D01*
X157100000Y-89393333D01*
X157066666Y-89426666D01*
X157033333Y-89493333D01*
X157033333Y-89760000D01*
X157733333Y-89760000D01*
X157733333Y-89526666D01*
X157700000Y-89460000D01*
X157666666Y-89426666D01*
X157600000Y-89393333D01*
X157533333Y-89393333D01*
X157466666Y-89426666D01*
X157433333Y-89460000D01*
X157400000Y-89526666D01*
X157400000Y-89760000D01*
X157033333Y-88693333D02*
X157033333Y-89093333D01*
X157033333Y-88893333D02*
X157733333Y-88893333D01*
X157633333Y-88960000D01*
X157566666Y-89026666D01*
X157533333Y-89093333D01*
X157033333Y-88026666D02*
X157033333Y-88426666D01*
X157033333Y-88226666D02*
X157733333Y-88226666D01*
X157633333Y-88293333D01*
X157566666Y-88360000D01*
X157533333Y-88426666D01*
X146730000Y-125583333D02*
X146763333Y-125650000D01*
X146763333Y-125750000D01*
X146730000Y-125850000D01*
X146663333Y-125916666D01*
X146596666Y-125950000D01*
X146463333Y-125983333D01*
X146363333Y-125983333D01*
X146230000Y-125950000D01*
X146163333Y-125916666D01*
X146096666Y-125850000D01*
X146063333Y-125750000D01*
X146063333Y-125683333D01*
X146096666Y-125583333D01*
X146130000Y-125550000D01*
X146363333Y-125550000D01*
X146363333Y-125683333D01*
X146063333Y-125250000D02*
X146763333Y-125250000D01*
X146063333Y-124850000D01*
X146763333Y-124850000D01*
X146063333Y-124516666D02*
X146763333Y-124516666D01*
X146763333Y-124350000D01*
X146730000Y-124250000D01*
X146663333Y-124183333D01*
X146596666Y-124150000D01*
X146463333Y-124116666D01*
X146363333Y-124116666D01*
X146230000Y-124150000D01*
X146163333Y-124183333D01*
X146096666Y-124250000D01*
X146063333Y-124350000D01*
X146063333Y-124516666D01*
X157233333Y-104650000D02*
X157233333Y-104316666D01*
X157033333Y-104716666D02*
X157733333Y-104483333D01*
X157033333Y-104250000D01*
X157733333Y-103683333D02*
X157733333Y-104016666D01*
X157400000Y-104050000D01*
X157433333Y-104016666D01*
X157466666Y-103950000D01*
X157466666Y-103783333D01*
X157433333Y-103716666D01*
X157400000Y-103683333D01*
X157333333Y-103650000D01*
X157166666Y-103650000D01*
X157100000Y-103683333D01*
X157066666Y-103716666D01*
X157033333Y-103783333D01*
X157033333Y-103950000D01*
X157066666Y-104016666D01*
X157100000Y-104050000D01*
X143016666Y-88410000D02*
X143016666Y-88743333D01*
X143216666Y-88343333D02*
X142516666Y-88576666D01*
X143216666Y-88810000D01*
X142816666Y-89143333D02*
X142783333Y-89076666D01*
X142750000Y-89043333D01*
X142683333Y-89010000D01*
X142650000Y-89010000D01*
X142583333Y-89043333D01*
X142550000Y-89076666D01*
X142516666Y-89143333D01*
X142516666Y-89276666D01*
X142550000Y-89343333D01*
X142583333Y-89376666D01*
X142650000Y-89410000D01*
X142683333Y-89410000D01*
X142750000Y-89376666D01*
X142783333Y-89343333D01*
X142816666Y-89276666D01*
X142816666Y-89143333D01*
X142850000Y-89076666D01*
X142883333Y-89043333D01*
X142950000Y-89010000D01*
X143083333Y-89010000D01*
X143150000Y-89043333D01*
X143183333Y-89076666D01*
X143216666Y-89143333D01*
X143216666Y-89276666D01*
X143183333Y-89343333D01*
X143150000Y-89376666D01*
X143083333Y-89410000D01*
X142950000Y-89410000D01*
X142883333Y-89376666D01*
X142850000Y-89343333D01*
X142816666Y-89276666D01*
X157100000Y-119840000D02*
X157066666Y-119873333D01*
X157033333Y-119973333D01*
X157033333Y-120040000D01*
X157066666Y-120140000D01*
X157133333Y-120206666D01*
X157200000Y-120240000D01*
X157333333Y-120273333D01*
X157433333Y-120273333D01*
X157566666Y-120240000D01*
X157633333Y-120206666D01*
X157700000Y-120140000D01*
X157733333Y-120040000D01*
X157733333Y-119973333D01*
X157700000Y-119873333D01*
X157666666Y-119840000D01*
X157033333Y-119173333D02*
X157033333Y-119573333D01*
X157033333Y-119373333D02*
X157733333Y-119373333D01*
X157633333Y-119440000D01*
X157566666Y-119506666D01*
X157533333Y-119573333D01*
X157733333Y-118940000D02*
X157733333Y-118506666D01*
X157466666Y-118740000D01*
X157466666Y-118640000D01*
X157433333Y-118573333D01*
X157400000Y-118540000D01*
X157333333Y-118506666D01*
X157166666Y-118506666D01*
X157100000Y-118540000D01*
X157066666Y-118573333D01*
X157033333Y-118640000D01*
X157033333Y-118840000D01*
X157066666Y-118906666D01*
X157100000Y-118940000D01*
X157233333Y-117350000D02*
X157233333Y-117016666D01*
X157033333Y-117416666D02*
X157733333Y-117183333D01*
X157033333Y-116950000D01*
X157733333Y-116583333D02*
X157733333Y-116516666D01*
X157700000Y-116450000D01*
X157666666Y-116416666D01*
X157600000Y-116383333D01*
X157466666Y-116350000D01*
X157300000Y-116350000D01*
X157166666Y-116383333D01*
X157100000Y-116416666D01*
X157066666Y-116450000D01*
X157033333Y-116516666D01*
X157033333Y-116583333D01*
X157066666Y-116650000D01*
X157100000Y-116683333D01*
X157166666Y-116716666D01*
X157300000Y-116750000D01*
X157466666Y-116750000D01*
X157600000Y-116716666D01*
X157666666Y-116683333D01*
X157700000Y-116650000D01*
X157733333Y-116583333D01*
X142850000Y-78133333D02*
X142883333Y-78233333D01*
X142916666Y-78266666D01*
X142983333Y-78300000D01*
X143083333Y-78300000D01*
X143150000Y-78266666D01*
X143183333Y-78233333D01*
X143216666Y-78166666D01*
X143216666Y-77900000D01*
X142516666Y-77900000D01*
X142516666Y-78133333D01*
X142550000Y-78200000D01*
X142583333Y-78233333D01*
X142650000Y-78266666D01*
X142716666Y-78266666D01*
X142783333Y-78233333D01*
X142816666Y-78200000D01*
X142850000Y-78133333D01*
X142850000Y-77900000D01*
X143216666Y-78966666D02*
X143216666Y-78566666D01*
X143216666Y-78766666D02*
X142516666Y-78766666D01*
X142616666Y-78700000D01*
X142683333Y-78633333D01*
X142716666Y-78566666D01*
X142583333Y-79233333D02*
X142550000Y-79266666D01*
X142516666Y-79333333D01*
X142516666Y-79500000D01*
X142550000Y-79566666D01*
X142583333Y-79600000D01*
X142650000Y-79633333D01*
X142716666Y-79633333D01*
X142816666Y-79600000D01*
X143216666Y-79200000D01*
X143216666Y-79633333D01*
X157400000Y-92066666D02*
X157366666Y-91966666D01*
X157333333Y-91933333D01*
X157266666Y-91900000D01*
X157166666Y-91900000D01*
X157100000Y-91933333D01*
X157066666Y-91966666D01*
X157033333Y-92033333D01*
X157033333Y-92300000D01*
X157733333Y-92300000D01*
X157733333Y-92066666D01*
X157700000Y-92000000D01*
X157666666Y-91966666D01*
X157600000Y-91933333D01*
X157533333Y-91933333D01*
X157466666Y-91966666D01*
X157433333Y-92000000D01*
X157400000Y-92066666D01*
X157400000Y-92300000D01*
X157033333Y-91233333D02*
X157033333Y-91633333D01*
X157033333Y-91433333D02*
X157733333Y-91433333D01*
X157633333Y-91500000D01*
X157566666Y-91566666D01*
X157533333Y-91633333D01*
X157733333Y-90800000D02*
X157733333Y-90733333D01*
X157700000Y-90666666D01*
X157666666Y-90633333D01*
X157600000Y-90600000D01*
X157466666Y-90566666D01*
X157300000Y-90566666D01*
X157166666Y-90600000D01*
X157100000Y-90633333D01*
X157066666Y-90666666D01*
X157033333Y-90733333D01*
X157033333Y-90800000D01*
X157066666Y-90866666D01*
X157100000Y-90900000D01*
X157166666Y-90933333D01*
X157300000Y-90966666D01*
X157466666Y-90966666D01*
X157600000Y-90933333D01*
X157666666Y-90900000D01*
X157700000Y-90866666D01*
X157733333Y-90800000D01*
X143016666Y-95696666D02*
X143016666Y-96030000D01*
X143216666Y-95630000D02*
X142516666Y-95863333D01*
X143216666Y-96096666D01*
X143216666Y-96696666D02*
X143216666Y-96296666D01*
X143216666Y-96496666D02*
X142516666Y-96496666D01*
X142616666Y-96430000D01*
X142683333Y-96363333D01*
X142716666Y-96296666D01*
X143216666Y-97363333D02*
X143216666Y-96963333D01*
X143216666Y-97163333D02*
X142516666Y-97163333D01*
X142616666Y-97096666D01*
X142683333Y-97030000D01*
X142716666Y-96963333D01*
X151143333Y-125766666D02*
X151843333Y-125766666D01*
X151843333Y-125600000D01*
X151810000Y-125500000D01*
X151743333Y-125433333D01*
X151676666Y-125400000D01*
X151543333Y-125366666D01*
X151443333Y-125366666D01*
X151310000Y-125400000D01*
X151243333Y-125433333D01*
X151176666Y-125500000D01*
X151143333Y-125600000D01*
X151143333Y-125766666D01*
X151143333Y-125066666D02*
X151843333Y-125066666D01*
X151843333Y-124600000D02*
X151843333Y-124466666D01*
X151810000Y-124400000D01*
X151743333Y-124333333D01*
X151610000Y-124300000D01*
X151376666Y-124300000D01*
X151243333Y-124333333D01*
X151176666Y-124400000D01*
X151143333Y-124466666D01*
X151143333Y-124600000D01*
X151176666Y-124666666D01*
X151243333Y-124733333D01*
X151376666Y-124766666D01*
X151610000Y-124766666D01*
X151743333Y-124733333D01*
X151810000Y-124666666D01*
X151843333Y-124600000D01*
X143016666Y-98236666D02*
X143016666Y-98570000D01*
X143216666Y-98170000D02*
X142516666Y-98403333D01*
X143216666Y-98636666D01*
X143216666Y-99236666D02*
X143216666Y-98836666D01*
X143216666Y-99036666D02*
X142516666Y-99036666D01*
X142616666Y-98970000D01*
X142683333Y-98903333D01*
X142716666Y-98836666D01*
X142583333Y-99503333D02*
X142550000Y-99536666D01*
X142516666Y-99603333D01*
X142516666Y-99770000D01*
X142550000Y-99836666D01*
X142583333Y-99870000D01*
X142650000Y-99903333D01*
X142716666Y-99903333D01*
X142816666Y-99870000D01*
X143216666Y-99470000D01*
X143216666Y-99903333D01*
X142850000Y-108946666D02*
X142883333Y-109046666D01*
X142916666Y-109080000D01*
X142983333Y-109113333D01*
X143083333Y-109113333D01*
X143150000Y-109080000D01*
X143183333Y-109046666D01*
X143216666Y-108980000D01*
X143216666Y-108713333D01*
X142516666Y-108713333D01*
X142516666Y-108946666D01*
X142550000Y-109013333D01*
X142583333Y-109046666D01*
X142650000Y-109080000D01*
X142716666Y-109080000D01*
X142783333Y-109046666D01*
X142816666Y-109013333D01*
X142850000Y-108946666D01*
X142850000Y-108713333D01*
X142516666Y-109746666D02*
X142516666Y-109413333D01*
X142850000Y-109380000D01*
X142816666Y-109413333D01*
X142783333Y-109480000D01*
X142783333Y-109646666D01*
X142816666Y-109713333D01*
X142850000Y-109746666D01*
X142916666Y-109780000D01*
X143083333Y-109780000D01*
X143150000Y-109746666D01*
X143183333Y-109713333D01*
X143216666Y-109646666D01*
X143216666Y-109480000D01*
X143183333Y-109413333D01*
X143150000Y-109380000D01*
X142850000Y-111486666D02*
X142883333Y-111586666D01*
X142916666Y-111620000D01*
X142983333Y-111653333D01*
X143083333Y-111653333D01*
X143150000Y-111620000D01*
X143183333Y-111586666D01*
X143216666Y-111520000D01*
X143216666Y-111253333D01*
X142516666Y-111253333D01*
X142516666Y-111486666D01*
X142550000Y-111553333D01*
X142583333Y-111586666D01*
X142650000Y-111620000D01*
X142716666Y-111620000D01*
X142783333Y-111586666D01*
X142816666Y-111553333D01*
X142850000Y-111486666D01*
X142850000Y-111253333D01*
X142516666Y-112253333D02*
X142516666Y-112120000D01*
X142550000Y-112053333D01*
X142583333Y-112020000D01*
X142683333Y-111953333D01*
X142816666Y-111920000D01*
X143083333Y-111920000D01*
X143150000Y-111953333D01*
X143183333Y-111986666D01*
X143216666Y-112053333D01*
X143216666Y-112186666D01*
X143183333Y-112253333D01*
X143150000Y-112286666D01*
X143083333Y-112320000D01*
X142916666Y-112320000D01*
X142850000Y-112286666D01*
X142816666Y-112253333D01*
X142783333Y-112186666D01*
X142783333Y-112053333D01*
X142816666Y-111986666D01*
X142850000Y-111953333D01*
X142916666Y-111920000D01*
X157733333Y-84696666D02*
X157733333Y-84263333D01*
X157466666Y-84496666D01*
X157466666Y-84396666D01*
X157433333Y-84330000D01*
X157400000Y-84296666D01*
X157333333Y-84263333D01*
X157166666Y-84263333D01*
X157100000Y-84296666D01*
X157066666Y-84330000D01*
X157033333Y-84396666D01*
X157033333Y-84596666D01*
X157066666Y-84663333D01*
X157100000Y-84696666D01*
X157733333Y-84063333D02*
X157033333Y-83830000D01*
X157733333Y-83596666D01*
X157733333Y-83430000D02*
X157733333Y-82996666D01*
X157466666Y-83230000D01*
X157466666Y-83130000D01*
X157433333Y-83063333D01*
X157400000Y-83030000D01*
X157333333Y-82996666D01*
X157166666Y-82996666D01*
X157100000Y-83030000D01*
X157066666Y-83063333D01*
X157033333Y-83130000D01*
X157033333Y-83330000D01*
X157066666Y-83396666D01*
X157100000Y-83430000D01*
X157233333Y-107190000D02*
X157233333Y-106856666D01*
X157033333Y-107256666D02*
X157733333Y-107023333D01*
X157033333Y-106790000D01*
X157500000Y-106256666D02*
X157033333Y-106256666D01*
X157766666Y-106423333D02*
X157266666Y-106590000D01*
X157266666Y-106156666D01*
X142516666Y-126143333D02*
X142516666Y-126576666D01*
X142783333Y-126343333D01*
X142783333Y-126443333D01*
X142816666Y-126510000D01*
X142850000Y-126543333D01*
X142916666Y-126576666D01*
X143083333Y-126576666D01*
X143150000Y-126543333D01*
X143183333Y-126510000D01*
X143216666Y-126443333D01*
X143216666Y-126243333D01*
X143183333Y-126176666D01*
X143150000Y-126143333D01*
X142516666Y-126776666D02*
X143216666Y-127010000D01*
X142516666Y-127243333D01*
X142516666Y-127410000D02*
X142516666Y-127843333D01*
X142783333Y-127610000D01*
X142783333Y-127710000D01*
X142816666Y-127776666D01*
X142850000Y-127810000D01*
X142916666Y-127843333D01*
X143083333Y-127843333D01*
X143150000Y-127810000D01*
X143183333Y-127776666D01*
X143216666Y-127710000D01*
X143216666Y-127510000D01*
X143183333Y-127443333D01*
X143150000Y-127410000D01*
X143016666Y-93156666D02*
X143016666Y-93490000D01*
X143216666Y-93090000D02*
X142516666Y-93323333D01*
X143216666Y-93556666D01*
X143216666Y-94156666D02*
X143216666Y-93756666D01*
X143216666Y-93956666D02*
X142516666Y-93956666D01*
X142616666Y-93890000D01*
X142683333Y-93823333D01*
X142716666Y-93756666D01*
X142516666Y-94590000D02*
X142516666Y-94656666D01*
X142550000Y-94723333D01*
X142583333Y-94756666D01*
X142650000Y-94790000D01*
X142783333Y-94823333D01*
X142950000Y-94823333D01*
X143083333Y-94790000D01*
X143150000Y-94756666D01*
X143183333Y-94723333D01*
X143216666Y-94656666D01*
X143216666Y-94590000D01*
X143183333Y-94523333D01*
X143150000Y-94490000D01*
X143083333Y-94456666D01*
X142950000Y-94423333D01*
X142783333Y-94423333D01*
X142650000Y-94456666D01*
X142583333Y-94490000D01*
X142550000Y-94523333D01*
X142516666Y-94590000D01*
X157233333Y-112270000D02*
X157233333Y-111936666D01*
X157033333Y-112336666D02*
X157733333Y-112103333D01*
X157033333Y-111870000D01*
X157666666Y-111670000D02*
X157700000Y-111636666D01*
X157733333Y-111570000D01*
X157733333Y-111403333D01*
X157700000Y-111336666D01*
X157666666Y-111303333D01*
X157600000Y-111270000D01*
X157533333Y-111270000D01*
X157433333Y-111303333D01*
X157033333Y-111703333D01*
X157033333Y-111270000D01*
X157100000Y-124920000D02*
X157066666Y-124953333D01*
X157033333Y-125053333D01*
X157033333Y-125120000D01*
X157066666Y-125220000D01*
X157133333Y-125286666D01*
X157200000Y-125320000D01*
X157333333Y-125353333D01*
X157433333Y-125353333D01*
X157566666Y-125320000D01*
X157633333Y-125286666D01*
X157700000Y-125220000D01*
X157733333Y-125120000D01*
X157733333Y-125053333D01*
X157700000Y-124953333D01*
X157666666Y-124920000D01*
X157033333Y-124253333D02*
X157033333Y-124653333D01*
X157033333Y-124453333D02*
X157733333Y-124453333D01*
X157633333Y-124520000D01*
X157566666Y-124586666D01*
X157533333Y-124653333D01*
X157733333Y-123620000D02*
X157733333Y-123953333D01*
X157400000Y-123986666D01*
X157433333Y-123953333D01*
X157466666Y-123886666D01*
X157466666Y-123720000D01*
X157433333Y-123653333D01*
X157400000Y-123620000D01*
X157333333Y-123586666D01*
X157166666Y-123586666D01*
X157100000Y-123620000D01*
X157066666Y-123653333D01*
X157033333Y-123720000D01*
X157033333Y-123886666D01*
X157066666Y-123953333D01*
X157100000Y-123986666D01*
X142516666Y-121796666D02*
X142516666Y-121463333D01*
X142850000Y-121430000D01*
X142816666Y-121463333D01*
X142783333Y-121530000D01*
X142783333Y-121696666D01*
X142816666Y-121763333D01*
X142850000Y-121796666D01*
X142916666Y-121830000D01*
X143083333Y-121830000D01*
X143150000Y-121796666D01*
X143183333Y-121763333D01*
X143216666Y-121696666D01*
X143216666Y-121530000D01*
X143183333Y-121463333D01*
X143150000Y-121430000D01*
X142516666Y-122030000D02*
X143216666Y-122263333D01*
X142516666Y-122496666D01*
X142850000Y-85753333D02*
X142883333Y-85853333D01*
X142916666Y-85886666D01*
X142983333Y-85920000D01*
X143083333Y-85920000D01*
X143150000Y-85886666D01*
X143183333Y-85853333D01*
X143216666Y-85786666D01*
X143216666Y-85520000D01*
X142516666Y-85520000D01*
X142516666Y-85753333D01*
X142550000Y-85820000D01*
X142583333Y-85853333D01*
X142650000Y-85886666D01*
X142716666Y-85886666D01*
X142783333Y-85853333D01*
X142816666Y-85820000D01*
X142850000Y-85753333D01*
X142850000Y-85520000D01*
X143216666Y-86586666D02*
X143216666Y-86186666D01*
X143216666Y-86386666D02*
X142516666Y-86386666D01*
X142616666Y-86320000D01*
X142683333Y-86253333D01*
X142716666Y-86186666D01*
X142516666Y-87220000D02*
X142516666Y-86886666D01*
X142850000Y-86853333D01*
X142816666Y-86886666D01*
X142783333Y-86953333D01*
X142783333Y-87120000D01*
X142816666Y-87186666D01*
X142850000Y-87220000D01*
X142916666Y-87253333D01*
X143083333Y-87253333D01*
X143150000Y-87220000D01*
X143183333Y-87186666D01*
X143216666Y-87120000D01*
X143216666Y-86953333D01*
X143183333Y-86886666D01*
X143150000Y-86853333D01*
X157233333Y-102110000D02*
X157233333Y-101776666D01*
X157033333Y-102176666D02*
X157733333Y-101943333D01*
X157033333Y-101710000D01*
X157733333Y-101176666D02*
X157733333Y-101310000D01*
X157700000Y-101376666D01*
X157666666Y-101410000D01*
X157566666Y-101476666D01*
X157433333Y-101510000D01*
X157166666Y-101510000D01*
X157100000Y-101476666D01*
X157066666Y-101443333D01*
X157033333Y-101376666D01*
X157033333Y-101243333D01*
X157066666Y-101176666D01*
X157100000Y-101143333D01*
X157166666Y-101110000D01*
X157333333Y-101110000D01*
X157400000Y-101143333D01*
X157433333Y-101176666D01*
X157466666Y-101243333D01*
X157466666Y-101376666D01*
X157433333Y-101443333D01*
X157400000Y-101476666D01*
X157333333Y-101510000D01*
X157233333Y-99570000D02*
X157233333Y-99236666D01*
X157033333Y-99636666D02*
X157733333Y-99403333D01*
X157033333Y-99170000D01*
X157733333Y-99003333D02*
X157733333Y-98536666D01*
X157033333Y-98836666D01*
X142850000Y-83213333D02*
X142883333Y-83313333D01*
X142916666Y-83346666D01*
X142983333Y-83380000D01*
X143083333Y-83380000D01*
X143150000Y-83346666D01*
X143183333Y-83313333D01*
X143216666Y-83246666D01*
X143216666Y-82980000D01*
X142516666Y-82980000D01*
X142516666Y-83213333D01*
X142550000Y-83280000D01*
X142583333Y-83313333D01*
X142650000Y-83346666D01*
X142716666Y-83346666D01*
X142783333Y-83313333D01*
X142816666Y-83280000D01*
X142850000Y-83213333D01*
X142850000Y-82980000D01*
X143216666Y-84046666D02*
X143216666Y-83646666D01*
X143216666Y-83846666D02*
X142516666Y-83846666D01*
X142616666Y-83780000D01*
X142683333Y-83713333D01*
X142716666Y-83646666D01*
X142750000Y-84646666D02*
X143216666Y-84646666D01*
X142483333Y-84480000D02*
X142983333Y-84313333D01*
X142983333Y-84746666D01*
X157400000Y-94273333D02*
X157366666Y-94173333D01*
X157333333Y-94140000D01*
X157266666Y-94106666D01*
X157166666Y-94106666D01*
X157100000Y-94140000D01*
X157066666Y-94173333D01*
X157033333Y-94240000D01*
X157033333Y-94506666D01*
X157733333Y-94506666D01*
X157733333Y-94273333D01*
X157700000Y-94206666D01*
X157666666Y-94173333D01*
X157600000Y-94140000D01*
X157533333Y-94140000D01*
X157466666Y-94173333D01*
X157433333Y-94206666D01*
X157400000Y-94273333D01*
X157400000Y-94506666D01*
X157033333Y-93440000D02*
X157033333Y-93840000D01*
X157033333Y-93640000D02*
X157733333Y-93640000D01*
X157633333Y-93706666D01*
X157566666Y-93773333D01*
X157533333Y-93840000D01*
X142850000Y-80673333D02*
X142883333Y-80773333D01*
X142916666Y-80806666D01*
X142983333Y-80840000D01*
X143083333Y-80840000D01*
X143150000Y-80806666D01*
X143183333Y-80773333D01*
X143216666Y-80706666D01*
X143216666Y-80440000D01*
X142516666Y-80440000D01*
X142516666Y-80673333D01*
X142550000Y-80740000D01*
X142583333Y-80773333D01*
X142650000Y-80806666D01*
X142716666Y-80806666D01*
X142783333Y-80773333D01*
X142816666Y-80740000D01*
X142850000Y-80673333D01*
X142850000Y-80440000D01*
X143216666Y-81506666D02*
X143216666Y-81106666D01*
X143216666Y-81306666D02*
X142516666Y-81306666D01*
X142616666Y-81240000D01*
X142683333Y-81173333D01*
X142716666Y-81106666D01*
X142516666Y-81740000D02*
X142516666Y-82173333D01*
X142783333Y-81940000D01*
X142783333Y-82040000D01*
X142816666Y-82106666D01*
X142850000Y-82140000D01*
X142916666Y-82173333D01*
X143083333Y-82173333D01*
X143150000Y-82140000D01*
X143183333Y-82106666D01*
X143216666Y-82040000D01*
X143216666Y-81840000D01*
X143183333Y-81773333D01*
X143150000Y-81740000D01*
X157400000Y-96813333D02*
X157366666Y-96713333D01*
X157333333Y-96680000D01*
X157266666Y-96646666D01*
X157166666Y-96646666D01*
X157100000Y-96680000D01*
X157066666Y-96713333D01*
X157033333Y-96780000D01*
X157033333Y-97046666D01*
X157733333Y-97046666D01*
X157733333Y-96813333D01*
X157700000Y-96746666D01*
X157666666Y-96713333D01*
X157600000Y-96680000D01*
X157533333Y-96680000D01*
X157466666Y-96713333D01*
X157433333Y-96746666D01*
X157400000Y-96813333D01*
X157400000Y-97046666D01*
X157733333Y-96213333D02*
X157733333Y-96146666D01*
X157700000Y-96080000D01*
X157666666Y-96046666D01*
X157600000Y-96013333D01*
X157466666Y-95980000D01*
X157300000Y-95980000D01*
X157166666Y-96013333D01*
X157100000Y-96046666D01*
X157066666Y-96080000D01*
X157033333Y-96146666D01*
X157033333Y-96213333D01*
X157066666Y-96280000D01*
X157100000Y-96313333D01*
X157166666Y-96346666D01*
X157300000Y-96380000D01*
X157466666Y-96380000D01*
X157600000Y-96346666D01*
X157666666Y-96313333D01*
X157700000Y-96280000D01*
X157733333Y-96213333D01*
X142850000Y-103866666D02*
X142883333Y-103966666D01*
X142916666Y-104000000D01*
X142983333Y-104033333D01*
X143083333Y-104033333D01*
X143150000Y-104000000D01*
X143183333Y-103966666D01*
X143216666Y-103900000D01*
X143216666Y-103633333D01*
X142516666Y-103633333D01*
X142516666Y-103866666D01*
X142550000Y-103933333D01*
X142583333Y-103966666D01*
X142650000Y-104000000D01*
X142716666Y-104000000D01*
X142783333Y-103966666D01*
X142816666Y-103933333D01*
X142850000Y-103866666D01*
X142850000Y-103633333D01*
X142516666Y-104266666D02*
X142516666Y-104700000D01*
X142783333Y-104466666D01*
X142783333Y-104566666D01*
X142816666Y-104633333D01*
X142850000Y-104666666D01*
X142916666Y-104700000D01*
X143083333Y-104700000D01*
X143150000Y-104666666D01*
X143183333Y-104633333D01*
X143216666Y-104566666D01*
X143216666Y-104366666D01*
X143183333Y-104300000D01*
X143150000Y-104266666D01*
X142850000Y-116566666D02*
X142883333Y-116666666D01*
X142916666Y-116700000D01*
X142983333Y-116733333D01*
X143083333Y-116733333D01*
X143150000Y-116700000D01*
X143183333Y-116666666D01*
X143216666Y-116600000D01*
X143216666Y-116333333D01*
X142516666Y-116333333D01*
X142516666Y-116566666D01*
X142550000Y-116633333D01*
X142583333Y-116666666D01*
X142650000Y-116700000D01*
X142716666Y-116700000D01*
X142783333Y-116666666D01*
X142816666Y-116633333D01*
X142850000Y-116566666D01*
X142850000Y-116333333D01*
X142816666Y-117133333D02*
X142783333Y-117066666D01*
X142750000Y-117033333D01*
X142683333Y-117000000D01*
X142650000Y-117000000D01*
X142583333Y-117033333D01*
X142550000Y-117066666D01*
X142516666Y-117133333D01*
X142516666Y-117266666D01*
X142550000Y-117333333D01*
X142583333Y-117366666D01*
X142650000Y-117400000D01*
X142683333Y-117400000D01*
X142750000Y-117366666D01*
X142783333Y-117333333D01*
X142816666Y-117266666D01*
X142816666Y-117133333D01*
X142850000Y-117066666D01*
X142883333Y-117033333D01*
X142950000Y-117000000D01*
X143083333Y-117000000D01*
X143150000Y-117033333D01*
X143183333Y-117066666D01*
X143216666Y-117133333D01*
X143216666Y-117266666D01*
X143183333Y-117333333D01*
X143150000Y-117366666D01*
X143083333Y-117400000D01*
X142950000Y-117400000D01*
X142883333Y-117366666D01*
X142850000Y-117333333D01*
X142816666Y-117266666D01*
X142850000Y-114026666D02*
X142883333Y-114126666D01*
X142916666Y-114160000D01*
X142983333Y-114193333D01*
X143083333Y-114193333D01*
X143150000Y-114160000D01*
X143183333Y-114126666D01*
X143216666Y-114060000D01*
X143216666Y-113793333D01*
X142516666Y-113793333D01*
X142516666Y-114026666D01*
X142550000Y-114093333D01*
X142583333Y-114126666D01*
X142650000Y-114160000D01*
X142716666Y-114160000D01*
X142783333Y-114126666D01*
X142816666Y-114093333D01*
X142850000Y-114026666D01*
X142850000Y-113793333D01*
X142516666Y-114426666D02*
X142516666Y-114893333D01*
X143216666Y-114593333D01*
X157733333Y-127593333D02*
X157033333Y-127360000D01*
X157733333Y-127126666D01*
X157400000Y-126660000D02*
X157366666Y-126560000D01*
X157333333Y-126526666D01*
X157266666Y-126493333D01*
X157166666Y-126493333D01*
X157100000Y-126526666D01*
X157066666Y-126560000D01*
X157033333Y-126626666D01*
X157033333Y-126893333D01*
X157733333Y-126893333D01*
X157733333Y-126660000D01*
X157700000Y-126593333D01*
X157666666Y-126560000D01*
X157600000Y-126526666D01*
X157533333Y-126526666D01*
X157466666Y-126560000D01*
X157433333Y-126593333D01*
X157400000Y-126660000D01*
X157400000Y-126893333D01*
X143016666Y-100776666D02*
X143016666Y-101110000D01*
X143216666Y-100710000D02*
X142516666Y-100943333D01*
X143216666Y-101176666D01*
X143216666Y-101776666D02*
X143216666Y-101376666D01*
X143216666Y-101576666D02*
X142516666Y-101576666D01*
X142616666Y-101510000D01*
X142683333Y-101443333D01*
X142716666Y-101376666D01*
X142516666Y-102410000D02*
X142516666Y-102076666D01*
X142850000Y-102043333D01*
X142816666Y-102076666D01*
X142783333Y-102143333D01*
X142783333Y-102310000D01*
X142816666Y-102376666D01*
X142850000Y-102410000D01*
X142916666Y-102443333D01*
X143083333Y-102443333D01*
X143150000Y-102410000D01*
X143183333Y-102376666D01*
X143216666Y-102310000D01*
X143216666Y-102143333D01*
X143183333Y-102076666D01*
X143150000Y-102043333D01*
X157100000Y-122380000D02*
X157066666Y-122413333D01*
X157033333Y-122513333D01*
X157033333Y-122580000D01*
X157066666Y-122680000D01*
X157133333Y-122746666D01*
X157200000Y-122780000D01*
X157333333Y-122813333D01*
X157433333Y-122813333D01*
X157566666Y-122780000D01*
X157633333Y-122746666D01*
X157700000Y-122680000D01*
X157733333Y-122580000D01*
X157733333Y-122513333D01*
X157700000Y-122413333D01*
X157666666Y-122380000D01*
X157033333Y-121713333D02*
X157033333Y-122113333D01*
X157033333Y-121913333D02*
X157733333Y-121913333D01*
X157633333Y-121980000D01*
X157566666Y-122046666D01*
X157533333Y-122113333D01*
X157500000Y-121113333D02*
X157033333Y-121113333D01*
X157766666Y-121280000D02*
X157266666Y-121446666D01*
X157266666Y-121013333D01*
X157931000Y-87320000D02*
X157931000Y-86620000D01*
X157033333Y-86753333D02*
X157366666Y-86986666D01*
X157033333Y-87153333D02*
X157733333Y-87153333D01*
X157733333Y-86886666D01*
X157700000Y-86820000D01*
X157666666Y-86786666D01*
X157600000Y-86753333D01*
X157500000Y-86753333D01*
X157433333Y-86786666D01*
X157400000Y-86820000D01*
X157366666Y-86886666D01*
X157366666Y-87153333D01*
X157931000Y-86620000D02*
X157931000Y-85953333D01*
X157066666Y-86486666D02*
X157033333Y-86386666D01*
X157033333Y-86220000D01*
X157066666Y-86153333D01*
X157100000Y-86120000D01*
X157166666Y-86086666D01*
X157233333Y-86086666D01*
X157300000Y-86120000D01*
X157333333Y-86153333D01*
X157366666Y-86220000D01*
X157400000Y-86353333D01*
X157433333Y-86420000D01*
X157466666Y-86453333D01*
X157533333Y-86486666D01*
X157600000Y-86486666D01*
X157666666Y-86453333D01*
X157700000Y-86420000D01*
X157733333Y-86353333D01*
X157733333Y-86186666D01*
X157700000Y-86086666D01*
X157931000Y-85953333D02*
X157931000Y-85420000D01*
X157733333Y-85886666D02*
X157733333Y-85486666D01*
X157033333Y-85686666D02*
X157733333Y-85686666D01*
X157233333Y-114810000D02*
X157233333Y-114476666D01*
X157033333Y-114876666D02*
X157733333Y-114643333D01*
X157033333Y-114410000D01*
X157033333Y-113810000D02*
X157033333Y-114210000D01*
X157033333Y-114010000D02*
X157733333Y-114010000D01*
X157633333Y-114076666D01*
X157566666Y-114143333D01*
X157533333Y-114210000D01*
X157700000Y-81823333D02*
X157733333Y-81890000D01*
X157733333Y-81990000D01*
X157700000Y-82090000D01*
X157633333Y-82156666D01*
X157566666Y-82190000D01*
X157433333Y-82223333D01*
X157333333Y-82223333D01*
X157200000Y-82190000D01*
X157133333Y-82156666D01*
X157066666Y-82090000D01*
X157033333Y-81990000D01*
X157033333Y-81923333D01*
X157066666Y-81823333D01*
X157100000Y-81790000D01*
X157333333Y-81790000D01*
X157333333Y-81923333D01*
X157033333Y-81490000D02*
X157733333Y-81490000D01*
X157033333Y-81090000D01*
X157733333Y-81090000D01*
X157033333Y-80756666D02*
X157733333Y-80756666D01*
X157733333Y-80590000D01*
X157700000Y-80490000D01*
X157633333Y-80423333D01*
X157566666Y-80390000D01*
X157433333Y-80356666D01*
X157333333Y-80356666D01*
X157200000Y-80390000D01*
X157133333Y-80423333D01*
X157066666Y-80490000D01*
X157033333Y-80590000D01*
X157033333Y-80756666D01*
X142850000Y-106406666D02*
X142883333Y-106506666D01*
X142916666Y-106540000D01*
X142983333Y-106573333D01*
X143083333Y-106573333D01*
X143150000Y-106540000D01*
X143183333Y-106506666D01*
X143216666Y-106440000D01*
X143216666Y-106173333D01*
X142516666Y-106173333D01*
X142516666Y-106406666D01*
X142550000Y-106473333D01*
X142583333Y-106506666D01*
X142650000Y-106540000D01*
X142716666Y-106540000D01*
X142783333Y-106506666D01*
X142816666Y-106473333D01*
X142850000Y-106406666D01*
X142850000Y-106173333D01*
X142750000Y-107173333D02*
X143216666Y-107173333D01*
X142483333Y-107006666D02*
X142983333Y-106840000D01*
X142983333Y-107273333D01*
X142850000Y-119106666D02*
X142883333Y-119206666D01*
X142916666Y-119240000D01*
X142983333Y-119273333D01*
X143083333Y-119273333D01*
X143150000Y-119240000D01*
X143183333Y-119206666D01*
X143216666Y-119140000D01*
X143216666Y-118873333D01*
X142516666Y-118873333D01*
X142516666Y-119106666D01*
X142550000Y-119173333D01*
X142583333Y-119206666D01*
X142650000Y-119240000D01*
X142716666Y-119240000D01*
X142783333Y-119206666D01*
X142816666Y-119173333D01*
X142850000Y-119106666D01*
X142850000Y-118873333D01*
X143216666Y-119606666D02*
X143216666Y-119740000D01*
X143183333Y-119806666D01*
X143150000Y-119840000D01*
X143050000Y-119906666D01*
X142916666Y-119940000D01*
X142650000Y-119940000D01*
X142583333Y-119906666D01*
X142550000Y-119873333D01*
X142516666Y-119806666D01*
X142516666Y-119673333D01*
X142550000Y-119606666D01*
X142583333Y-119573333D01*
X142650000Y-119540000D01*
X142816666Y-119540000D01*
X142883333Y-119573333D01*
X142916666Y-119606666D01*
X142950000Y-119673333D01*
X142950000Y-119806666D01*
X142916666Y-119873333D01*
X142883333Y-119906666D01*
X142816666Y-119940000D01*
D11*
%TO.C,C8*%
X154110000Y-95207836D02*
X154110000Y-94992164D01*
X153390000Y-95207836D02*
X153390000Y-94992164D01*
%TO.C,U2*%
X150150000Y-88425000D02*
X152875000Y-88425000D01*
X152875000Y-93875000D02*
X152875000Y-93615000D01*
X147425000Y-93875000D02*
X147425000Y-93615000D01*
X147425000Y-88425000D02*
X147425000Y-88685000D01*
X152875000Y-88425000D02*
X152875000Y-88685000D01*
X150150000Y-88425000D02*
X147425000Y-88425000D01*
X150150000Y-93875000D02*
X152875000Y-93875000D01*
X147425000Y-93615000D02*
X145750000Y-93615000D01*
X150150000Y-93875000D02*
X147425000Y-93875000D01*
%TD*%
M02*
