%TF.GenerationSoftware,KiCad,Pcbnew,8.0.1*%
%TF.CreationDate,2024-05-13T17:31:10+07:00*%
%TF.ProjectId,greenpill-f411,67726565-6e70-4696-9c6c-2d663431312e,rev?*%
%TF.SameCoordinates,Original*%
%TF.FileFunction,Legend,Bot*%
%TF.FilePolarity,Positive*%
%FSLAX46Y46*%
G04 Gerber Fmt 4.6, Leading zero omitted, Abs format (unit mm)*
G04 Created by KiCad (PCBNEW 8.0.1) date 2024-05-13 17:31:10*
%MOMM*%
%LPD*%
G01*
G04 APERTURE LIST*
%ADD10C,0.150000*%
%ADD11C,0.120000*%
%ADD12C,0.000000*%
G04 APERTURE END LIST*
D10*
X159958233Y-106190000D02*
X159958233Y-106523333D01*
X160158233Y-106123333D02*
X159458233Y-106356667D01*
X159458233Y-106356667D02*
X160158233Y-106590000D01*
X159458233Y-106756667D02*
X159458233Y-107190000D01*
X159458233Y-107190000D02*
X159724900Y-106956667D01*
X159724900Y-106956667D02*
X159724900Y-107056667D01*
X159724900Y-107056667D02*
X159758233Y-107123333D01*
X159758233Y-107123333D02*
X159791566Y-107156667D01*
X159791566Y-107156667D02*
X159858233Y-107190000D01*
X159858233Y-107190000D02*
X160024900Y-107190000D01*
X160024900Y-107190000D02*
X160091566Y-107156667D01*
X160091566Y-107156667D02*
X160124900Y-107123333D01*
X160124900Y-107123333D02*
X160158233Y-107056667D01*
X160158233Y-107056667D02*
X160158233Y-106856667D01*
X160158233Y-106856667D02*
X160124900Y-106790000D01*
X160124900Y-106790000D02*
X160091566Y-106756667D01*
X140628833Y-90940000D02*
X140628833Y-91273333D01*
X140828833Y-90873333D02*
X140128833Y-91106667D01*
X140128833Y-91106667D02*
X140828833Y-91340000D01*
X140828833Y-91606667D02*
X140828833Y-91740000D01*
X140828833Y-91740000D02*
X140795500Y-91806667D01*
X140795500Y-91806667D02*
X140762166Y-91840000D01*
X140762166Y-91840000D02*
X140662166Y-91906667D01*
X140662166Y-91906667D02*
X140528833Y-91940000D01*
X140528833Y-91940000D02*
X140262166Y-91940000D01*
X140262166Y-91940000D02*
X140195500Y-91906667D01*
X140195500Y-91906667D02*
X140162166Y-91873333D01*
X140162166Y-91873333D02*
X140128833Y-91806667D01*
X140128833Y-91806667D02*
X140128833Y-91673333D01*
X140128833Y-91673333D02*
X140162166Y-91606667D01*
X140162166Y-91606667D02*
X140195500Y-91573333D01*
X140195500Y-91573333D02*
X140262166Y-91540000D01*
X140262166Y-91540000D02*
X140428833Y-91540000D01*
X140428833Y-91540000D02*
X140495500Y-91573333D01*
X140495500Y-91573333D02*
X140528833Y-91606667D01*
X140528833Y-91606667D02*
X140562166Y-91673333D01*
X140562166Y-91673333D02*
X140562166Y-91806667D01*
X140562166Y-91806667D02*
X140528833Y-91873333D01*
X140528833Y-91873333D02*
X140495500Y-91906667D01*
X140495500Y-91906667D02*
X140428833Y-91940000D01*
X159458233Y-78616667D02*
X159458233Y-78283333D01*
X159458233Y-78283333D02*
X159791566Y-78250000D01*
X159791566Y-78250000D02*
X159758233Y-78283333D01*
X159758233Y-78283333D02*
X159724900Y-78350000D01*
X159724900Y-78350000D02*
X159724900Y-78516667D01*
X159724900Y-78516667D02*
X159758233Y-78583333D01*
X159758233Y-78583333D02*
X159791566Y-78616667D01*
X159791566Y-78616667D02*
X159858233Y-78650000D01*
X159858233Y-78650000D02*
X160024900Y-78650000D01*
X160024900Y-78650000D02*
X160091566Y-78616667D01*
X160091566Y-78616667D02*
X160124900Y-78583333D01*
X160124900Y-78583333D02*
X160158233Y-78516667D01*
X160158233Y-78516667D02*
X160158233Y-78350000D01*
X160158233Y-78350000D02*
X160124900Y-78283333D01*
X160124900Y-78283333D02*
X160091566Y-78250000D01*
X159458233Y-78850000D02*
X160158233Y-79083334D01*
X160158233Y-79083334D02*
X159458233Y-79316667D01*
X149169366Y-124144933D02*
X149202700Y-124111600D01*
X149202700Y-124111600D02*
X149236033Y-124011600D01*
X149236033Y-124011600D02*
X149236033Y-123944933D01*
X149236033Y-123944933D02*
X149202700Y-123844933D01*
X149202700Y-123844933D02*
X149136033Y-123778267D01*
X149136033Y-123778267D02*
X149069366Y-123744933D01*
X149069366Y-123744933D02*
X148936033Y-123711600D01*
X148936033Y-123711600D02*
X148836033Y-123711600D01*
X148836033Y-123711600D02*
X148702700Y-123744933D01*
X148702700Y-123744933D02*
X148636033Y-123778267D01*
X148636033Y-123778267D02*
X148569366Y-123844933D01*
X148569366Y-123844933D02*
X148536033Y-123944933D01*
X148536033Y-123944933D02*
X148536033Y-124011600D01*
X148536033Y-124011600D02*
X148569366Y-124111600D01*
X148569366Y-124111600D02*
X148602700Y-124144933D01*
X149236033Y-124778267D02*
X149236033Y-124444933D01*
X149236033Y-124444933D02*
X148536033Y-124444933D01*
X149236033Y-125011600D02*
X148536033Y-125011600D01*
X149236033Y-125411600D02*
X148836033Y-125111600D01*
X148536033Y-125411600D02*
X148936033Y-125011600D01*
X153616033Y-123694933D02*
X153616033Y-124128266D01*
X153616033Y-124128266D02*
X153882700Y-123894933D01*
X153882700Y-123894933D02*
X153882700Y-123994933D01*
X153882700Y-123994933D02*
X153916033Y-124061599D01*
X153916033Y-124061599D02*
X153949366Y-124094933D01*
X153949366Y-124094933D02*
X154016033Y-124128266D01*
X154016033Y-124128266D02*
X154182700Y-124128266D01*
X154182700Y-124128266D02*
X154249366Y-124094933D01*
X154249366Y-124094933D02*
X154282700Y-124061599D01*
X154282700Y-124061599D02*
X154316033Y-123994933D01*
X154316033Y-123994933D02*
X154316033Y-123794933D01*
X154316033Y-123794933D02*
X154282700Y-123728266D01*
X154282700Y-123728266D02*
X154249366Y-123694933D01*
X153616033Y-124328266D02*
X154316033Y-124561600D01*
X154316033Y-124561600D02*
X153616033Y-124794933D01*
X153616033Y-124961600D02*
X153616033Y-125394933D01*
X153616033Y-125394933D02*
X153882700Y-125161600D01*
X153882700Y-125161600D02*
X153882700Y-125261600D01*
X153882700Y-125261600D02*
X153916033Y-125328266D01*
X153916033Y-125328266D02*
X153949366Y-125361600D01*
X153949366Y-125361600D02*
X154016033Y-125394933D01*
X154016033Y-125394933D02*
X154182700Y-125394933D01*
X154182700Y-125394933D02*
X154249366Y-125361600D01*
X154249366Y-125361600D02*
X154282700Y-125328266D01*
X154282700Y-125328266D02*
X154316033Y-125261600D01*
X154316033Y-125261600D02*
X154316033Y-125061600D01*
X154316033Y-125061600D02*
X154282700Y-124994933D01*
X154282700Y-124994933D02*
X154249366Y-124961600D01*
X140162166Y-123926667D02*
X140128833Y-123860000D01*
X140128833Y-123860000D02*
X140128833Y-123760000D01*
X140128833Y-123760000D02*
X140162166Y-123660000D01*
X140162166Y-123660000D02*
X140228833Y-123593334D01*
X140228833Y-123593334D02*
X140295500Y-123560000D01*
X140295500Y-123560000D02*
X140428833Y-123526667D01*
X140428833Y-123526667D02*
X140528833Y-123526667D01*
X140528833Y-123526667D02*
X140662166Y-123560000D01*
X140662166Y-123560000D02*
X140728833Y-123593334D01*
X140728833Y-123593334D02*
X140795500Y-123660000D01*
X140795500Y-123660000D02*
X140828833Y-123760000D01*
X140828833Y-123760000D02*
X140828833Y-123826667D01*
X140828833Y-123826667D02*
X140795500Y-123926667D01*
X140795500Y-123926667D02*
X140762166Y-123960000D01*
X140762166Y-123960000D02*
X140528833Y-123960000D01*
X140528833Y-123960000D02*
X140528833Y-123826667D01*
X140828833Y-124260000D02*
X140128833Y-124260000D01*
X140128833Y-124260000D02*
X140828833Y-124660000D01*
X140828833Y-124660000D02*
X140128833Y-124660000D01*
X140828833Y-124993333D02*
X140128833Y-124993333D01*
X140128833Y-124993333D02*
X140128833Y-125160000D01*
X140128833Y-125160000D02*
X140162166Y-125260000D01*
X140162166Y-125260000D02*
X140228833Y-125326667D01*
X140228833Y-125326667D02*
X140295500Y-125360000D01*
X140295500Y-125360000D02*
X140428833Y-125393333D01*
X140428833Y-125393333D02*
X140528833Y-125393333D01*
X140528833Y-125393333D02*
X140662166Y-125360000D01*
X140662166Y-125360000D02*
X140728833Y-125326667D01*
X140728833Y-125326667D02*
X140795500Y-125260000D01*
X140795500Y-125260000D02*
X140828833Y-125160000D01*
X140828833Y-125160000D02*
X140828833Y-124993333D01*
X159791566Y-85753333D02*
X159824900Y-85853333D01*
X159824900Y-85853333D02*
X159858233Y-85886666D01*
X159858233Y-85886666D02*
X159924900Y-85919999D01*
X159924900Y-85919999D02*
X160024900Y-85919999D01*
X160024900Y-85919999D02*
X160091566Y-85886666D01*
X160091566Y-85886666D02*
X160124900Y-85853333D01*
X160124900Y-85853333D02*
X160158233Y-85786666D01*
X160158233Y-85786666D02*
X160158233Y-85519999D01*
X160158233Y-85519999D02*
X159458233Y-85519999D01*
X159458233Y-85519999D02*
X159458233Y-85753333D01*
X159458233Y-85753333D02*
X159491566Y-85819999D01*
X159491566Y-85819999D02*
X159524900Y-85853333D01*
X159524900Y-85853333D02*
X159591566Y-85886666D01*
X159591566Y-85886666D02*
X159658233Y-85886666D01*
X159658233Y-85886666D02*
X159724900Y-85853333D01*
X159724900Y-85853333D02*
X159758233Y-85819999D01*
X159758233Y-85819999D02*
X159791566Y-85753333D01*
X159791566Y-85753333D02*
X159791566Y-85519999D01*
X160158233Y-86586666D02*
X160158233Y-86186666D01*
X160158233Y-86386666D02*
X159458233Y-86386666D01*
X159458233Y-86386666D02*
X159558233Y-86319999D01*
X159558233Y-86319999D02*
X159624900Y-86253333D01*
X159624900Y-86253333D02*
X159658233Y-86186666D01*
X160158233Y-87253333D02*
X160158233Y-86853333D01*
X160158233Y-87053333D02*
X159458233Y-87053333D01*
X159458233Y-87053333D02*
X159558233Y-86986666D01*
X159558233Y-86986666D02*
X159624900Y-86920000D01*
X159624900Y-86920000D02*
X159658233Y-86853333D01*
X146029366Y-124028267D02*
X145996033Y-123961600D01*
X145996033Y-123961600D02*
X145996033Y-123861600D01*
X145996033Y-123861600D02*
X146029366Y-123761600D01*
X146029366Y-123761600D02*
X146096033Y-123694934D01*
X146096033Y-123694934D02*
X146162700Y-123661600D01*
X146162700Y-123661600D02*
X146296033Y-123628267D01*
X146296033Y-123628267D02*
X146396033Y-123628267D01*
X146396033Y-123628267D02*
X146529366Y-123661600D01*
X146529366Y-123661600D02*
X146596033Y-123694934D01*
X146596033Y-123694934D02*
X146662700Y-123761600D01*
X146662700Y-123761600D02*
X146696033Y-123861600D01*
X146696033Y-123861600D02*
X146696033Y-123928267D01*
X146696033Y-123928267D02*
X146662700Y-124028267D01*
X146662700Y-124028267D02*
X146629366Y-124061600D01*
X146629366Y-124061600D02*
X146396033Y-124061600D01*
X146396033Y-124061600D02*
X146396033Y-123928267D01*
X146696033Y-124361600D02*
X145996033Y-124361600D01*
X145996033Y-124361600D02*
X146696033Y-124761600D01*
X146696033Y-124761600D02*
X145996033Y-124761600D01*
X146696033Y-125094933D02*
X145996033Y-125094933D01*
X145996033Y-125094933D02*
X145996033Y-125261600D01*
X145996033Y-125261600D02*
X146029366Y-125361600D01*
X146029366Y-125361600D02*
X146096033Y-125428267D01*
X146096033Y-125428267D02*
X146162700Y-125461600D01*
X146162700Y-125461600D02*
X146296033Y-125494933D01*
X146296033Y-125494933D02*
X146396033Y-125494933D01*
X146396033Y-125494933D02*
X146529366Y-125461600D01*
X146529366Y-125461600D02*
X146596033Y-125428267D01*
X146596033Y-125428267D02*
X146662700Y-125361600D01*
X146662700Y-125361600D02*
X146696033Y-125261600D01*
X146696033Y-125261600D02*
X146696033Y-125094933D01*
X159958233Y-101110000D02*
X159958233Y-101443333D01*
X160158233Y-101043333D02*
X159458233Y-101276667D01*
X159458233Y-101276667D02*
X160158233Y-101510000D01*
X159458233Y-102076667D02*
X159458233Y-101743333D01*
X159458233Y-101743333D02*
X159791566Y-101710000D01*
X159791566Y-101710000D02*
X159758233Y-101743333D01*
X159758233Y-101743333D02*
X159724900Y-101810000D01*
X159724900Y-101810000D02*
X159724900Y-101976667D01*
X159724900Y-101976667D02*
X159758233Y-102043333D01*
X159758233Y-102043333D02*
X159791566Y-102076667D01*
X159791566Y-102076667D02*
X159858233Y-102110000D01*
X159858233Y-102110000D02*
X160024900Y-102110000D01*
X160024900Y-102110000D02*
X160091566Y-102076667D01*
X160091566Y-102076667D02*
X160124900Y-102043333D01*
X160124900Y-102043333D02*
X160158233Y-101976667D01*
X160158233Y-101976667D02*
X160158233Y-101810000D01*
X160158233Y-101810000D02*
X160124900Y-101743333D01*
X160124900Y-101743333D02*
X160091566Y-101710000D01*
X140628833Y-88400000D02*
X140628833Y-88733333D01*
X140828833Y-88333333D02*
X140128833Y-88566667D01*
X140128833Y-88566667D02*
X140828833Y-88800000D01*
X140428833Y-89133333D02*
X140395500Y-89066667D01*
X140395500Y-89066667D02*
X140362166Y-89033333D01*
X140362166Y-89033333D02*
X140295500Y-89000000D01*
X140295500Y-89000000D02*
X140262166Y-89000000D01*
X140262166Y-89000000D02*
X140195500Y-89033333D01*
X140195500Y-89033333D02*
X140162166Y-89066667D01*
X140162166Y-89066667D02*
X140128833Y-89133333D01*
X140128833Y-89133333D02*
X140128833Y-89266667D01*
X140128833Y-89266667D02*
X140162166Y-89333333D01*
X140162166Y-89333333D02*
X140195500Y-89366667D01*
X140195500Y-89366667D02*
X140262166Y-89400000D01*
X140262166Y-89400000D02*
X140295500Y-89400000D01*
X140295500Y-89400000D02*
X140362166Y-89366667D01*
X140362166Y-89366667D02*
X140395500Y-89333333D01*
X140395500Y-89333333D02*
X140428833Y-89266667D01*
X140428833Y-89266667D02*
X140428833Y-89133333D01*
X140428833Y-89133333D02*
X140462166Y-89066667D01*
X140462166Y-89066667D02*
X140495500Y-89033333D01*
X140495500Y-89033333D02*
X140562166Y-89000000D01*
X140562166Y-89000000D02*
X140695500Y-89000000D01*
X140695500Y-89000000D02*
X140762166Y-89033333D01*
X140762166Y-89033333D02*
X140795500Y-89066667D01*
X140795500Y-89066667D02*
X140828833Y-89133333D01*
X140828833Y-89133333D02*
X140828833Y-89266667D01*
X140828833Y-89266667D02*
X140795500Y-89333333D01*
X140795500Y-89333333D02*
X140762166Y-89366667D01*
X140762166Y-89366667D02*
X140695500Y-89400000D01*
X140695500Y-89400000D02*
X140562166Y-89400000D01*
X140562166Y-89400000D02*
X140495500Y-89366667D01*
X140495500Y-89366667D02*
X140462166Y-89333333D01*
X140462166Y-89333333D02*
X140428833Y-89266667D01*
X160091566Y-123999999D02*
X160124900Y-123966666D01*
X160124900Y-123966666D02*
X160158233Y-123866666D01*
X160158233Y-123866666D02*
X160158233Y-123799999D01*
X160158233Y-123799999D02*
X160124900Y-123699999D01*
X160124900Y-123699999D02*
X160058233Y-123633333D01*
X160058233Y-123633333D02*
X159991566Y-123599999D01*
X159991566Y-123599999D02*
X159858233Y-123566666D01*
X159858233Y-123566666D02*
X159758233Y-123566666D01*
X159758233Y-123566666D02*
X159624900Y-123599999D01*
X159624900Y-123599999D02*
X159558233Y-123633333D01*
X159558233Y-123633333D02*
X159491566Y-123699999D01*
X159491566Y-123699999D02*
X159458233Y-123799999D01*
X159458233Y-123799999D02*
X159458233Y-123866666D01*
X159458233Y-123866666D02*
X159491566Y-123966666D01*
X159491566Y-123966666D02*
X159524900Y-123999999D01*
X160158233Y-124666666D02*
X160158233Y-124266666D01*
X160158233Y-124466666D02*
X159458233Y-124466666D01*
X159458233Y-124466666D02*
X159558233Y-124399999D01*
X159558233Y-124399999D02*
X159624900Y-124333333D01*
X159624900Y-124333333D02*
X159658233Y-124266666D01*
X159458233Y-124900000D02*
X159458233Y-125333333D01*
X159458233Y-125333333D02*
X159724900Y-125100000D01*
X159724900Y-125100000D02*
X159724900Y-125200000D01*
X159724900Y-125200000D02*
X159758233Y-125266666D01*
X159758233Y-125266666D02*
X159791566Y-125300000D01*
X159791566Y-125300000D02*
X159858233Y-125333333D01*
X159858233Y-125333333D02*
X160024900Y-125333333D01*
X160024900Y-125333333D02*
X160091566Y-125300000D01*
X160091566Y-125300000D02*
X160124900Y-125266666D01*
X160124900Y-125266666D02*
X160158233Y-125200000D01*
X160158233Y-125200000D02*
X160158233Y-125000000D01*
X160158233Y-125000000D02*
X160124900Y-124933333D01*
X160124900Y-124933333D02*
X160091566Y-124900000D01*
X159958233Y-113810000D02*
X159958233Y-114143333D01*
X160158233Y-113743333D02*
X159458233Y-113976667D01*
X159458233Y-113976667D02*
X160158233Y-114210000D01*
X159458233Y-114576667D02*
X159458233Y-114643333D01*
X159458233Y-114643333D02*
X159491566Y-114710000D01*
X159491566Y-114710000D02*
X159524900Y-114743333D01*
X159524900Y-114743333D02*
X159591566Y-114776667D01*
X159591566Y-114776667D02*
X159724900Y-114810000D01*
X159724900Y-114810000D02*
X159891566Y-114810000D01*
X159891566Y-114810000D02*
X160024900Y-114776667D01*
X160024900Y-114776667D02*
X160091566Y-114743333D01*
X160091566Y-114743333D02*
X160124900Y-114710000D01*
X160124900Y-114710000D02*
X160158233Y-114643333D01*
X160158233Y-114643333D02*
X160158233Y-114576667D01*
X160158233Y-114576667D02*
X160124900Y-114510000D01*
X160124900Y-114510000D02*
X160091566Y-114476667D01*
X160091566Y-114476667D02*
X160024900Y-114443333D01*
X160024900Y-114443333D02*
X159891566Y-114410000D01*
X159891566Y-114410000D02*
X159724900Y-114410000D01*
X159724900Y-114410000D02*
X159591566Y-114443333D01*
X159591566Y-114443333D02*
X159524900Y-114476667D01*
X159524900Y-114476667D02*
X159491566Y-114510000D01*
X159491566Y-114510000D02*
X159458233Y-114576667D01*
X140462166Y-78123333D02*
X140495500Y-78223333D01*
X140495500Y-78223333D02*
X140528833Y-78256666D01*
X140528833Y-78256666D02*
X140595500Y-78289999D01*
X140595500Y-78289999D02*
X140695500Y-78289999D01*
X140695500Y-78289999D02*
X140762166Y-78256666D01*
X140762166Y-78256666D02*
X140795500Y-78223333D01*
X140795500Y-78223333D02*
X140828833Y-78156666D01*
X140828833Y-78156666D02*
X140828833Y-77889999D01*
X140828833Y-77889999D02*
X140128833Y-77889999D01*
X140128833Y-77889999D02*
X140128833Y-78123333D01*
X140128833Y-78123333D02*
X140162166Y-78189999D01*
X140162166Y-78189999D02*
X140195500Y-78223333D01*
X140195500Y-78223333D02*
X140262166Y-78256666D01*
X140262166Y-78256666D02*
X140328833Y-78256666D01*
X140328833Y-78256666D02*
X140395500Y-78223333D01*
X140395500Y-78223333D02*
X140428833Y-78189999D01*
X140428833Y-78189999D02*
X140462166Y-78123333D01*
X140462166Y-78123333D02*
X140462166Y-77889999D01*
X140828833Y-78956666D02*
X140828833Y-78556666D01*
X140828833Y-78756666D02*
X140128833Y-78756666D01*
X140128833Y-78756666D02*
X140228833Y-78689999D01*
X140228833Y-78689999D02*
X140295500Y-78623333D01*
X140295500Y-78623333D02*
X140328833Y-78556666D01*
X140195500Y-79223333D02*
X140162166Y-79256666D01*
X140162166Y-79256666D02*
X140128833Y-79323333D01*
X140128833Y-79323333D02*
X140128833Y-79490000D01*
X140128833Y-79490000D02*
X140162166Y-79556666D01*
X140162166Y-79556666D02*
X140195500Y-79590000D01*
X140195500Y-79590000D02*
X140262166Y-79623333D01*
X140262166Y-79623333D02*
X140328833Y-79623333D01*
X140328833Y-79623333D02*
X140428833Y-79590000D01*
X140428833Y-79590000D02*
X140828833Y-79190000D01*
X140828833Y-79190000D02*
X140828833Y-79623333D01*
X159791566Y-88293333D02*
X159824900Y-88393333D01*
X159824900Y-88393333D02*
X159858233Y-88426666D01*
X159858233Y-88426666D02*
X159924900Y-88459999D01*
X159924900Y-88459999D02*
X160024900Y-88459999D01*
X160024900Y-88459999D02*
X160091566Y-88426666D01*
X160091566Y-88426666D02*
X160124900Y-88393333D01*
X160124900Y-88393333D02*
X160158233Y-88326666D01*
X160158233Y-88326666D02*
X160158233Y-88059999D01*
X160158233Y-88059999D02*
X159458233Y-88059999D01*
X159458233Y-88059999D02*
X159458233Y-88293333D01*
X159458233Y-88293333D02*
X159491566Y-88359999D01*
X159491566Y-88359999D02*
X159524900Y-88393333D01*
X159524900Y-88393333D02*
X159591566Y-88426666D01*
X159591566Y-88426666D02*
X159658233Y-88426666D01*
X159658233Y-88426666D02*
X159724900Y-88393333D01*
X159724900Y-88393333D02*
X159758233Y-88359999D01*
X159758233Y-88359999D02*
X159791566Y-88293333D01*
X159791566Y-88293333D02*
X159791566Y-88059999D01*
X160158233Y-89126666D02*
X160158233Y-88726666D01*
X160158233Y-88926666D02*
X159458233Y-88926666D01*
X159458233Y-88926666D02*
X159558233Y-88859999D01*
X159558233Y-88859999D02*
X159624900Y-88793333D01*
X159624900Y-88793333D02*
X159658233Y-88726666D01*
X159458233Y-89560000D02*
X159458233Y-89626666D01*
X159458233Y-89626666D02*
X159491566Y-89693333D01*
X159491566Y-89693333D02*
X159524900Y-89726666D01*
X159524900Y-89726666D02*
X159591566Y-89760000D01*
X159591566Y-89760000D02*
X159724900Y-89793333D01*
X159724900Y-89793333D02*
X159891566Y-89793333D01*
X159891566Y-89793333D02*
X160024900Y-89760000D01*
X160024900Y-89760000D02*
X160091566Y-89726666D01*
X160091566Y-89726666D02*
X160124900Y-89693333D01*
X160124900Y-89693333D02*
X160158233Y-89626666D01*
X160158233Y-89626666D02*
X160158233Y-89560000D01*
X160158233Y-89560000D02*
X160124900Y-89493333D01*
X160124900Y-89493333D02*
X160091566Y-89460000D01*
X160091566Y-89460000D02*
X160024900Y-89426666D01*
X160024900Y-89426666D02*
X159891566Y-89393333D01*
X159891566Y-89393333D02*
X159724900Y-89393333D01*
X159724900Y-89393333D02*
X159591566Y-89426666D01*
X159591566Y-89426666D02*
X159524900Y-89460000D01*
X159524900Y-89460000D02*
X159491566Y-89493333D01*
X159491566Y-89493333D02*
X159458233Y-89560000D01*
X140628833Y-95686666D02*
X140628833Y-96019999D01*
X140828833Y-95619999D02*
X140128833Y-95853333D01*
X140128833Y-95853333D02*
X140828833Y-96086666D01*
X140828833Y-96686666D02*
X140828833Y-96286666D01*
X140828833Y-96486666D02*
X140128833Y-96486666D01*
X140128833Y-96486666D02*
X140228833Y-96419999D01*
X140228833Y-96419999D02*
X140295500Y-96353333D01*
X140295500Y-96353333D02*
X140328833Y-96286666D01*
X140828833Y-97353333D02*
X140828833Y-96953333D01*
X140828833Y-97153333D02*
X140128833Y-97153333D01*
X140128833Y-97153333D02*
X140228833Y-97086666D01*
X140228833Y-97086666D02*
X140295500Y-97020000D01*
X140295500Y-97020000D02*
X140328833Y-96953333D01*
X151776033Y-123844933D02*
X151076033Y-123844933D01*
X151076033Y-123844933D02*
X151076033Y-124011600D01*
X151076033Y-124011600D02*
X151109366Y-124111600D01*
X151109366Y-124111600D02*
X151176033Y-124178267D01*
X151176033Y-124178267D02*
X151242700Y-124211600D01*
X151242700Y-124211600D02*
X151376033Y-124244933D01*
X151376033Y-124244933D02*
X151476033Y-124244933D01*
X151476033Y-124244933D02*
X151609366Y-124211600D01*
X151609366Y-124211600D02*
X151676033Y-124178267D01*
X151676033Y-124178267D02*
X151742700Y-124111600D01*
X151742700Y-124111600D02*
X151776033Y-124011600D01*
X151776033Y-124011600D02*
X151776033Y-123844933D01*
X151776033Y-124544933D02*
X151076033Y-124544933D01*
X151076033Y-125011600D02*
X151076033Y-125144933D01*
X151076033Y-125144933D02*
X151109366Y-125211600D01*
X151109366Y-125211600D02*
X151176033Y-125278266D01*
X151176033Y-125278266D02*
X151309366Y-125311600D01*
X151309366Y-125311600D02*
X151542700Y-125311600D01*
X151542700Y-125311600D02*
X151676033Y-125278266D01*
X151676033Y-125278266D02*
X151742700Y-125211600D01*
X151742700Y-125211600D02*
X151776033Y-125144933D01*
X151776033Y-125144933D02*
X151776033Y-125011600D01*
X151776033Y-125011600D02*
X151742700Y-124944933D01*
X151742700Y-124944933D02*
X151676033Y-124878266D01*
X151676033Y-124878266D02*
X151542700Y-124844933D01*
X151542700Y-124844933D02*
X151309366Y-124844933D01*
X151309366Y-124844933D02*
X151176033Y-124878266D01*
X151176033Y-124878266D02*
X151109366Y-124944933D01*
X151109366Y-124944933D02*
X151076033Y-125011600D01*
X140628833Y-98226666D02*
X140628833Y-98559999D01*
X140828833Y-98159999D02*
X140128833Y-98393333D01*
X140128833Y-98393333D02*
X140828833Y-98626666D01*
X140828833Y-99226666D02*
X140828833Y-98826666D01*
X140828833Y-99026666D02*
X140128833Y-99026666D01*
X140128833Y-99026666D02*
X140228833Y-98959999D01*
X140228833Y-98959999D02*
X140295500Y-98893333D01*
X140295500Y-98893333D02*
X140328833Y-98826666D01*
X140195500Y-99493333D02*
X140162166Y-99526666D01*
X140162166Y-99526666D02*
X140128833Y-99593333D01*
X140128833Y-99593333D02*
X140128833Y-99760000D01*
X140128833Y-99760000D02*
X140162166Y-99826666D01*
X140162166Y-99826666D02*
X140195500Y-99860000D01*
X140195500Y-99860000D02*
X140262166Y-99893333D01*
X140262166Y-99893333D02*
X140328833Y-99893333D01*
X140328833Y-99893333D02*
X140428833Y-99860000D01*
X140428833Y-99860000D02*
X140828833Y-99460000D01*
X140828833Y-99460000D02*
X140828833Y-99893333D01*
X140462166Y-108936667D02*
X140495500Y-109036667D01*
X140495500Y-109036667D02*
X140528833Y-109070000D01*
X140528833Y-109070000D02*
X140595500Y-109103333D01*
X140595500Y-109103333D02*
X140695500Y-109103333D01*
X140695500Y-109103333D02*
X140762166Y-109070000D01*
X140762166Y-109070000D02*
X140795500Y-109036667D01*
X140795500Y-109036667D02*
X140828833Y-108970000D01*
X140828833Y-108970000D02*
X140828833Y-108703333D01*
X140828833Y-108703333D02*
X140128833Y-108703333D01*
X140128833Y-108703333D02*
X140128833Y-108936667D01*
X140128833Y-108936667D02*
X140162166Y-109003333D01*
X140162166Y-109003333D02*
X140195500Y-109036667D01*
X140195500Y-109036667D02*
X140262166Y-109070000D01*
X140262166Y-109070000D02*
X140328833Y-109070000D01*
X140328833Y-109070000D02*
X140395500Y-109036667D01*
X140395500Y-109036667D02*
X140428833Y-109003333D01*
X140428833Y-109003333D02*
X140462166Y-108936667D01*
X140462166Y-108936667D02*
X140462166Y-108703333D01*
X140128833Y-109736667D02*
X140128833Y-109403333D01*
X140128833Y-109403333D02*
X140462166Y-109370000D01*
X140462166Y-109370000D02*
X140428833Y-109403333D01*
X140428833Y-109403333D02*
X140395500Y-109470000D01*
X140395500Y-109470000D02*
X140395500Y-109636667D01*
X140395500Y-109636667D02*
X140428833Y-109703333D01*
X140428833Y-109703333D02*
X140462166Y-109736667D01*
X140462166Y-109736667D02*
X140528833Y-109770000D01*
X140528833Y-109770000D02*
X140695500Y-109770000D01*
X140695500Y-109770000D02*
X140762166Y-109736667D01*
X140762166Y-109736667D02*
X140795500Y-109703333D01*
X140795500Y-109703333D02*
X140828833Y-109636667D01*
X140828833Y-109636667D02*
X140828833Y-109470000D01*
X140828833Y-109470000D02*
X140795500Y-109403333D01*
X140795500Y-109403333D02*
X140762166Y-109370000D01*
X140462166Y-111476667D02*
X140495500Y-111576667D01*
X140495500Y-111576667D02*
X140528833Y-111610000D01*
X140528833Y-111610000D02*
X140595500Y-111643333D01*
X140595500Y-111643333D02*
X140695500Y-111643333D01*
X140695500Y-111643333D02*
X140762166Y-111610000D01*
X140762166Y-111610000D02*
X140795500Y-111576667D01*
X140795500Y-111576667D02*
X140828833Y-111510000D01*
X140828833Y-111510000D02*
X140828833Y-111243333D01*
X140828833Y-111243333D02*
X140128833Y-111243333D01*
X140128833Y-111243333D02*
X140128833Y-111476667D01*
X140128833Y-111476667D02*
X140162166Y-111543333D01*
X140162166Y-111543333D02*
X140195500Y-111576667D01*
X140195500Y-111576667D02*
X140262166Y-111610000D01*
X140262166Y-111610000D02*
X140328833Y-111610000D01*
X140328833Y-111610000D02*
X140395500Y-111576667D01*
X140395500Y-111576667D02*
X140428833Y-111543333D01*
X140428833Y-111543333D02*
X140462166Y-111476667D01*
X140462166Y-111476667D02*
X140462166Y-111243333D01*
X140128833Y-112243333D02*
X140128833Y-112110000D01*
X140128833Y-112110000D02*
X140162166Y-112043333D01*
X140162166Y-112043333D02*
X140195500Y-112010000D01*
X140195500Y-112010000D02*
X140295500Y-111943333D01*
X140295500Y-111943333D02*
X140428833Y-111910000D01*
X140428833Y-111910000D02*
X140695500Y-111910000D01*
X140695500Y-111910000D02*
X140762166Y-111943333D01*
X140762166Y-111943333D02*
X140795500Y-111976667D01*
X140795500Y-111976667D02*
X140828833Y-112043333D01*
X140828833Y-112043333D02*
X140828833Y-112176667D01*
X140828833Y-112176667D02*
X140795500Y-112243333D01*
X140795500Y-112243333D02*
X140762166Y-112276667D01*
X140762166Y-112276667D02*
X140695500Y-112310000D01*
X140695500Y-112310000D02*
X140528833Y-112310000D01*
X140528833Y-112310000D02*
X140462166Y-112276667D01*
X140462166Y-112276667D02*
X140428833Y-112243333D01*
X140428833Y-112243333D02*
X140395500Y-112176667D01*
X140395500Y-112176667D02*
X140395500Y-112043333D01*
X140395500Y-112043333D02*
X140428833Y-111976667D01*
X140428833Y-111976667D02*
X140462166Y-111943333D01*
X140462166Y-111943333D02*
X140528833Y-111910000D01*
X159458233Y-82963333D02*
X159458233Y-83396666D01*
X159458233Y-83396666D02*
X159724900Y-83163333D01*
X159724900Y-83163333D02*
X159724900Y-83263333D01*
X159724900Y-83263333D02*
X159758233Y-83329999D01*
X159758233Y-83329999D02*
X159791566Y-83363333D01*
X159791566Y-83363333D02*
X159858233Y-83396666D01*
X159858233Y-83396666D02*
X160024900Y-83396666D01*
X160024900Y-83396666D02*
X160091566Y-83363333D01*
X160091566Y-83363333D02*
X160124900Y-83329999D01*
X160124900Y-83329999D02*
X160158233Y-83263333D01*
X160158233Y-83263333D02*
X160158233Y-83063333D01*
X160158233Y-83063333D02*
X160124900Y-82996666D01*
X160124900Y-82996666D02*
X160091566Y-82963333D01*
X159458233Y-83596666D02*
X160158233Y-83830000D01*
X160158233Y-83830000D02*
X159458233Y-84063333D01*
X159458233Y-84230000D02*
X159458233Y-84663333D01*
X159458233Y-84663333D02*
X159724900Y-84430000D01*
X159724900Y-84430000D02*
X159724900Y-84530000D01*
X159724900Y-84530000D02*
X159758233Y-84596666D01*
X159758233Y-84596666D02*
X159791566Y-84630000D01*
X159791566Y-84630000D02*
X159858233Y-84663333D01*
X159858233Y-84663333D02*
X160024900Y-84663333D01*
X160024900Y-84663333D02*
X160091566Y-84630000D01*
X160091566Y-84630000D02*
X160124900Y-84596666D01*
X160124900Y-84596666D02*
X160158233Y-84530000D01*
X160158233Y-84530000D02*
X160158233Y-84330000D01*
X160158233Y-84330000D02*
X160124900Y-84263333D01*
X160124900Y-84263333D02*
X160091566Y-84230000D01*
X159958233Y-103650000D02*
X159958233Y-103983333D01*
X160158233Y-103583333D02*
X159458233Y-103816667D01*
X159458233Y-103816667D02*
X160158233Y-104050000D01*
X159691566Y-104583333D02*
X160158233Y-104583333D01*
X159424900Y-104416667D02*
X159924900Y-104250000D01*
X159924900Y-104250000D02*
X159924900Y-104683333D01*
X140128833Y-126133333D02*
X140128833Y-126566666D01*
X140128833Y-126566666D02*
X140395500Y-126333333D01*
X140395500Y-126333333D02*
X140395500Y-126433333D01*
X140395500Y-126433333D02*
X140428833Y-126499999D01*
X140428833Y-126499999D02*
X140462166Y-126533333D01*
X140462166Y-126533333D02*
X140528833Y-126566666D01*
X140528833Y-126566666D02*
X140695500Y-126566666D01*
X140695500Y-126566666D02*
X140762166Y-126533333D01*
X140762166Y-126533333D02*
X140795500Y-126499999D01*
X140795500Y-126499999D02*
X140828833Y-126433333D01*
X140828833Y-126433333D02*
X140828833Y-126233333D01*
X140828833Y-126233333D02*
X140795500Y-126166666D01*
X140795500Y-126166666D02*
X140762166Y-126133333D01*
X140128833Y-126766666D02*
X140828833Y-127000000D01*
X140828833Y-127000000D02*
X140128833Y-127233333D01*
X140128833Y-127400000D02*
X140128833Y-127833333D01*
X140128833Y-127833333D02*
X140395500Y-127600000D01*
X140395500Y-127600000D02*
X140395500Y-127700000D01*
X140395500Y-127700000D02*
X140428833Y-127766666D01*
X140428833Y-127766666D02*
X140462166Y-127800000D01*
X140462166Y-127800000D02*
X140528833Y-127833333D01*
X140528833Y-127833333D02*
X140695500Y-127833333D01*
X140695500Y-127833333D02*
X140762166Y-127800000D01*
X140762166Y-127800000D02*
X140795500Y-127766666D01*
X140795500Y-127766666D02*
X140828833Y-127700000D01*
X140828833Y-127700000D02*
X140828833Y-127500000D01*
X140828833Y-127500000D02*
X140795500Y-127433333D01*
X140795500Y-127433333D02*
X140762166Y-127400000D01*
X140628833Y-93146666D02*
X140628833Y-93479999D01*
X140828833Y-93079999D02*
X140128833Y-93313333D01*
X140128833Y-93313333D02*
X140828833Y-93546666D01*
X140828833Y-94146666D02*
X140828833Y-93746666D01*
X140828833Y-93946666D02*
X140128833Y-93946666D01*
X140128833Y-93946666D02*
X140228833Y-93879999D01*
X140228833Y-93879999D02*
X140295500Y-93813333D01*
X140295500Y-93813333D02*
X140328833Y-93746666D01*
X140128833Y-94580000D02*
X140128833Y-94646666D01*
X140128833Y-94646666D02*
X140162166Y-94713333D01*
X140162166Y-94713333D02*
X140195500Y-94746666D01*
X140195500Y-94746666D02*
X140262166Y-94780000D01*
X140262166Y-94780000D02*
X140395500Y-94813333D01*
X140395500Y-94813333D02*
X140562166Y-94813333D01*
X140562166Y-94813333D02*
X140695500Y-94780000D01*
X140695500Y-94780000D02*
X140762166Y-94746666D01*
X140762166Y-94746666D02*
X140795500Y-94713333D01*
X140795500Y-94713333D02*
X140828833Y-94646666D01*
X140828833Y-94646666D02*
X140828833Y-94580000D01*
X140828833Y-94580000D02*
X140795500Y-94513333D01*
X140795500Y-94513333D02*
X140762166Y-94480000D01*
X140762166Y-94480000D02*
X140695500Y-94446666D01*
X140695500Y-94446666D02*
X140562166Y-94413333D01*
X140562166Y-94413333D02*
X140395500Y-94413333D01*
X140395500Y-94413333D02*
X140262166Y-94446666D01*
X140262166Y-94446666D02*
X140195500Y-94480000D01*
X140195500Y-94480000D02*
X140162166Y-94513333D01*
X140162166Y-94513333D02*
X140128833Y-94580000D01*
X159958233Y-108730000D02*
X159958233Y-109063333D01*
X160158233Y-108663333D02*
X159458233Y-108896667D01*
X159458233Y-108896667D02*
X160158233Y-109130000D01*
X159524900Y-109330000D02*
X159491566Y-109363333D01*
X159491566Y-109363333D02*
X159458233Y-109430000D01*
X159458233Y-109430000D02*
X159458233Y-109596667D01*
X159458233Y-109596667D02*
X159491566Y-109663333D01*
X159491566Y-109663333D02*
X159524900Y-109696667D01*
X159524900Y-109696667D02*
X159591566Y-109730000D01*
X159591566Y-109730000D02*
X159658233Y-109730000D01*
X159658233Y-109730000D02*
X159758233Y-109696667D01*
X159758233Y-109696667D02*
X160158233Y-109296667D01*
X160158233Y-109296667D02*
X160158233Y-109730000D01*
X160091566Y-118919999D02*
X160124900Y-118886666D01*
X160124900Y-118886666D02*
X160158233Y-118786666D01*
X160158233Y-118786666D02*
X160158233Y-118719999D01*
X160158233Y-118719999D02*
X160124900Y-118619999D01*
X160124900Y-118619999D02*
X160058233Y-118553333D01*
X160058233Y-118553333D02*
X159991566Y-118519999D01*
X159991566Y-118519999D02*
X159858233Y-118486666D01*
X159858233Y-118486666D02*
X159758233Y-118486666D01*
X159758233Y-118486666D02*
X159624900Y-118519999D01*
X159624900Y-118519999D02*
X159558233Y-118553333D01*
X159558233Y-118553333D02*
X159491566Y-118619999D01*
X159491566Y-118619999D02*
X159458233Y-118719999D01*
X159458233Y-118719999D02*
X159458233Y-118786666D01*
X159458233Y-118786666D02*
X159491566Y-118886666D01*
X159491566Y-118886666D02*
X159524900Y-118919999D01*
X160158233Y-119586666D02*
X160158233Y-119186666D01*
X160158233Y-119386666D02*
X159458233Y-119386666D01*
X159458233Y-119386666D02*
X159558233Y-119319999D01*
X159558233Y-119319999D02*
X159624900Y-119253333D01*
X159624900Y-119253333D02*
X159658233Y-119186666D01*
X159458233Y-120220000D02*
X159458233Y-119886666D01*
X159458233Y-119886666D02*
X159791566Y-119853333D01*
X159791566Y-119853333D02*
X159758233Y-119886666D01*
X159758233Y-119886666D02*
X159724900Y-119953333D01*
X159724900Y-119953333D02*
X159724900Y-120120000D01*
X159724900Y-120120000D02*
X159758233Y-120186666D01*
X159758233Y-120186666D02*
X159791566Y-120220000D01*
X159791566Y-120220000D02*
X159858233Y-120253333D01*
X159858233Y-120253333D02*
X160024900Y-120253333D01*
X160024900Y-120253333D02*
X160091566Y-120220000D01*
X160091566Y-120220000D02*
X160124900Y-120186666D01*
X160124900Y-120186666D02*
X160158233Y-120120000D01*
X160158233Y-120120000D02*
X160158233Y-119953333D01*
X160158233Y-119953333D02*
X160124900Y-119886666D01*
X160124900Y-119886666D02*
X160091566Y-119853333D01*
X140128833Y-121786667D02*
X140128833Y-121453333D01*
X140128833Y-121453333D02*
X140462166Y-121420000D01*
X140462166Y-121420000D02*
X140428833Y-121453333D01*
X140428833Y-121453333D02*
X140395500Y-121520000D01*
X140395500Y-121520000D02*
X140395500Y-121686667D01*
X140395500Y-121686667D02*
X140428833Y-121753333D01*
X140428833Y-121753333D02*
X140462166Y-121786667D01*
X140462166Y-121786667D02*
X140528833Y-121820000D01*
X140528833Y-121820000D02*
X140695500Y-121820000D01*
X140695500Y-121820000D02*
X140762166Y-121786667D01*
X140762166Y-121786667D02*
X140795500Y-121753333D01*
X140795500Y-121753333D02*
X140828833Y-121686667D01*
X140828833Y-121686667D02*
X140828833Y-121520000D01*
X140828833Y-121520000D02*
X140795500Y-121453333D01*
X140795500Y-121453333D02*
X140762166Y-121420000D01*
X140128833Y-122020000D02*
X140828833Y-122253334D01*
X140828833Y-122253334D02*
X140128833Y-122486667D01*
X140462166Y-85743333D02*
X140495500Y-85843333D01*
X140495500Y-85843333D02*
X140528833Y-85876666D01*
X140528833Y-85876666D02*
X140595500Y-85909999D01*
X140595500Y-85909999D02*
X140695500Y-85909999D01*
X140695500Y-85909999D02*
X140762166Y-85876666D01*
X140762166Y-85876666D02*
X140795500Y-85843333D01*
X140795500Y-85843333D02*
X140828833Y-85776666D01*
X140828833Y-85776666D02*
X140828833Y-85509999D01*
X140828833Y-85509999D02*
X140128833Y-85509999D01*
X140128833Y-85509999D02*
X140128833Y-85743333D01*
X140128833Y-85743333D02*
X140162166Y-85809999D01*
X140162166Y-85809999D02*
X140195500Y-85843333D01*
X140195500Y-85843333D02*
X140262166Y-85876666D01*
X140262166Y-85876666D02*
X140328833Y-85876666D01*
X140328833Y-85876666D02*
X140395500Y-85843333D01*
X140395500Y-85843333D02*
X140428833Y-85809999D01*
X140428833Y-85809999D02*
X140462166Y-85743333D01*
X140462166Y-85743333D02*
X140462166Y-85509999D01*
X140828833Y-86576666D02*
X140828833Y-86176666D01*
X140828833Y-86376666D02*
X140128833Y-86376666D01*
X140128833Y-86376666D02*
X140228833Y-86309999D01*
X140228833Y-86309999D02*
X140295500Y-86243333D01*
X140295500Y-86243333D02*
X140328833Y-86176666D01*
X140128833Y-87210000D02*
X140128833Y-86876666D01*
X140128833Y-86876666D02*
X140462166Y-86843333D01*
X140462166Y-86843333D02*
X140428833Y-86876666D01*
X140428833Y-86876666D02*
X140395500Y-86943333D01*
X140395500Y-86943333D02*
X140395500Y-87110000D01*
X140395500Y-87110000D02*
X140428833Y-87176666D01*
X140428833Y-87176666D02*
X140462166Y-87210000D01*
X140462166Y-87210000D02*
X140528833Y-87243333D01*
X140528833Y-87243333D02*
X140695500Y-87243333D01*
X140695500Y-87243333D02*
X140762166Y-87210000D01*
X140762166Y-87210000D02*
X140795500Y-87176666D01*
X140795500Y-87176666D02*
X140828833Y-87110000D01*
X140828833Y-87110000D02*
X140828833Y-86943333D01*
X140828833Y-86943333D02*
X140795500Y-86876666D01*
X140795500Y-86876666D02*
X140762166Y-86843333D01*
X159958233Y-98570000D02*
X159958233Y-98903333D01*
X160158233Y-98503333D02*
X159458233Y-98736667D01*
X159458233Y-98736667D02*
X160158233Y-98970000D01*
X159458233Y-99503333D02*
X159458233Y-99370000D01*
X159458233Y-99370000D02*
X159491566Y-99303333D01*
X159491566Y-99303333D02*
X159524900Y-99270000D01*
X159524900Y-99270000D02*
X159624900Y-99203333D01*
X159624900Y-99203333D02*
X159758233Y-99170000D01*
X159758233Y-99170000D02*
X160024900Y-99170000D01*
X160024900Y-99170000D02*
X160091566Y-99203333D01*
X160091566Y-99203333D02*
X160124900Y-99236667D01*
X160124900Y-99236667D02*
X160158233Y-99303333D01*
X160158233Y-99303333D02*
X160158233Y-99436667D01*
X160158233Y-99436667D02*
X160124900Y-99503333D01*
X160124900Y-99503333D02*
X160091566Y-99536667D01*
X160091566Y-99536667D02*
X160024900Y-99570000D01*
X160024900Y-99570000D02*
X159858233Y-99570000D01*
X159858233Y-99570000D02*
X159791566Y-99536667D01*
X159791566Y-99536667D02*
X159758233Y-99503333D01*
X159758233Y-99503333D02*
X159724900Y-99436667D01*
X159724900Y-99436667D02*
X159724900Y-99303333D01*
X159724900Y-99303333D02*
X159758233Y-99236667D01*
X159758233Y-99236667D02*
X159791566Y-99203333D01*
X159791566Y-99203333D02*
X159858233Y-99170000D01*
X159958233Y-96030000D02*
X159958233Y-96363333D01*
X160158233Y-95963333D02*
X159458233Y-96196667D01*
X159458233Y-96196667D02*
X160158233Y-96430000D01*
X159458233Y-96596667D02*
X159458233Y-97063333D01*
X159458233Y-97063333D02*
X160158233Y-96763333D01*
X140462166Y-83203333D02*
X140495500Y-83303333D01*
X140495500Y-83303333D02*
X140528833Y-83336666D01*
X140528833Y-83336666D02*
X140595500Y-83369999D01*
X140595500Y-83369999D02*
X140695500Y-83369999D01*
X140695500Y-83369999D02*
X140762166Y-83336666D01*
X140762166Y-83336666D02*
X140795500Y-83303333D01*
X140795500Y-83303333D02*
X140828833Y-83236666D01*
X140828833Y-83236666D02*
X140828833Y-82969999D01*
X140828833Y-82969999D02*
X140128833Y-82969999D01*
X140128833Y-82969999D02*
X140128833Y-83203333D01*
X140128833Y-83203333D02*
X140162166Y-83269999D01*
X140162166Y-83269999D02*
X140195500Y-83303333D01*
X140195500Y-83303333D02*
X140262166Y-83336666D01*
X140262166Y-83336666D02*
X140328833Y-83336666D01*
X140328833Y-83336666D02*
X140395500Y-83303333D01*
X140395500Y-83303333D02*
X140428833Y-83269999D01*
X140428833Y-83269999D02*
X140462166Y-83203333D01*
X140462166Y-83203333D02*
X140462166Y-82969999D01*
X140828833Y-84036666D02*
X140828833Y-83636666D01*
X140828833Y-83836666D02*
X140128833Y-83836666D01*
X140128833Y-83836666D02*
X140228833Y-83769999D01*
X140228833Y-83769999D02*
X140295500Y-83703333D01*
X140295500Y-83703333D02*
X140328833Y-83636666D01*
X140362166Y-84636666D02*
X140828833Y-84636666D01*
X140095500Y-84470000D02*
X140595500Y-84303333D01*
X140595500Y-84303333D02*
X140595500Y-84736666D01*
X159791566Y-91166667D02*
X159824900Y-91266667D01*
X159824900Y-91266667D02*
X159858233Y-91300000D01*
X159858233Y-91300000D02*
X159924900Y-91333333D01*
X159924900Y-91333333D02*
X160024900Y-91333333D01*
X160024900Y-91333333D02*
X160091566Y-91300000D01*
X160091566Y-91300000D02*
X160124900Y-91266667D01*
X160124900Y-91266667D02*
X160158233Y-91200000D01*
X160158233Y-91200000D02*
X160158233Y-90933333D01*
X160158233Y-90933333D02*
X159458233Y-90933333D01*
X159458233Y-90933333D02*
X159458233Y-91166667D01*
X159458233Y-91166667D02*
X159491566Y-91233333D01*
X159491566Y-91233333D02*
X159524900Y-91266667D01*
X159524900Y-91266667D02*
X159591566Y-91300000D01*
X159591566Y-91300000D02*
X159658233Y-91300000D01*
X159658233Y-91300000D02*
X159724900Y-91266667D01*
X159724900Y-91266667D02*
X159758233Y-91233333D01*
X159758233Y-91233333D02*
X159791566Y-91166667D01*
X159791566Y-91166667D02*
X159791566Y-90933333D01*
X160158233Y-92000000D02*
X160158233Y-91600000D01*
X160158233Y-91800000D02*
X159458233Y-91800000D01*
X159458233Y-91800000D02*
X159558233Y-91733333D01*
X159558233Y-91733333D02*
X159624900Y-91666667D01*
X159624900Y-91666667D02*
X159658233Y-91600000D01*
X140462166Y-80663333D02*
X140495500Y-80763333D01*
X140495500Y-80763333D02*
X140528833Y-80796666D01*
X140528833Y-80796666D02*
X140595500Y-80829999D01*
X140595500Y-80829999D02*
X140695500Y-80829999D01*
X140695500Y-80829999D02*
X140762166Y-80796666D01*
X140762166Y-80796666D02*
X140795500Y-80763333D01*
X140795500Y-80763333D02*
X140828833Y-80696666D01*
X140828833Y-80696666D02*
X140828833Y-80429999D01*
X140828833Y-80429999D02*
X140128833Y-80429999D01*
X140128833Y-80429999D02*
X140128833Y-80663333D01*
X140128833Y-80663333D02*
X140162166Y-80729999D01*
X140162166Y-80729999D02*
X140195500Y-80763333D01*
X140195500Y-80763333D02*
X140262166Y-80796666D01*
X140262166Y-80796666D02*
X140328833Y-80796666D01*
X140328833Y-80796666D02*
X140395500Y-80763333D01*
X140395500Y-80763333D02*
X140428833Y-80729999D01*
X140428833Y-80729999D02*
X140462166Y-80663333D01*
X140462166Y-80663333D02*
X140462166Y-80429999D01*
X140828833Y-81496666D02*
X140828833Y-81096666D01*
X140828833Y-81296666D02*
X140128833Y-81296666D01*
X140128833Y-81296666D02*
X140228833Y-81229999D01*
X140228833Y-81229999D02*
X140295500Y-81163333D01*
X140295500Y-81163333D02*
X140328833Y-81096666D01*
X140128833Y-81730000D02*
X140128833Y-82163333D01*
X140128833Y-82163333D02*
X140395500Y-81930000D01*
X140395500Y-81930000D02*
X140395500Y-82030000D01*
X140395500Y-82030000D02*
X140428833Y-82096666D01*
X140428833Y-82096666D02*
X140462166Y-82130000D01*
X140462166Y-82130000D02*
X140528833Y-82163333D01*
X140528833Y-82163333D02*
X140695500Y-82163333D01*
X140695500Y-82163333D02*
X140762166Y-82130000D01*
X140762166Y-82130000D02*
X140795500Y-82096666D01*
X140795500Y-82096666D02*
X140828833Y-82030000D01*
X140828833Y-82030000D02*
X140828833Y-81830000D01*
X140828833Y-81830000D02*
X140795500Y-81763333D01*
X140795500Y-81763333D02*
X140762166Y-81730000D01*
X159791566Y-93706667D02*
X159824900Y-93806667D01*
X159824900Y-93806667D02*
X159858233Y-93840000D01*
X159858233Y-93840000D02*
X159924900Y-93873333D01*
X159924900Y-93873333D02*
X160024900Y-93873333D01*
X160024900Y-93873333D02*
X160091566Y-93840000D01*
X160091566Y-93840000D02*
X160124900Y-93806667D01*
X160124900Y-93806667D02*
X160158233Y-93740000D01*
X160158233Y-93740000D02*
X160158233Y-93473333D01*
X160158233Y-93473333D02*
X159458233Y-93473333D01*
X159458233Y-93473333D02*
X159458233Y-93706667D01*
X159458233Y-93706667D02*
X159491566Y-93773333D01*
X159491566Y-93773333D02*
X159524900Y-93806667D01*
X159524900Y-93806667D02*
X159591566Y-93840000D01*
X159591566Y-93840000D02*
X159658233Y-93840000D01*
X159658233Y-93840000D02*
X159724900Y-93806667D01*
X159724900Y-93806667D02*
X159758233Y-93773333D01*
X159758233Y-93773333D02*
X159791566Y-93706667D01*
X159791566Y-93706667D02*
X159791566Y-93473333D01*
X159458233Y-94306667D02*
X159458233Y-94373333D01*
X159458233Y-94373333D02*
X159491566Y-94440000D01*
X159491566Y-94440000D02*
X159524900Y-94473333D01*
X159524900Y-94473333D02*
X159591566Y-94506667D01*
X159591566Y-94506667D02*
X159724900Y-94540000D01*
X159724900Y-94540000D02*
X159891566Y-94540000D01*
X159891566Y-94540000D02*
X160024900Y-94506667D01*
X160024900Y-94506667D02*
X160091566Y-94473333D01*
X160091566Y-94473333D02*
X160124900Y-94440000D01*
X160124900Y-94440000D02*
X160158233Y-94373333D01*
X160158233Y-94373333D02*
X160158233Y-94306667D01*
X160158233Y-94306667D02*
X160124900Y-94240000D01*
X160124900Y-94240000D02*
X160091566Y-94206667D01*
X160091566Y-94206667D02*
X160024900Y-94173333D01*
X160024900Y-94173333D02*
X159891566Y-94140000D01*
X159891566Y-94140000D02*
X159724900Y-94140000D01*
X159724900Y-94140000D02*
X159591566Y-94173333D01*
X159591566Y-94173333D02*
X159524900Y-94206667D01*
X159524900Y-94206667D02*
X159491566Y-94240000D01*
X159491566Y-94240000D02*
X159458233Y-94306667D01*
X140462166Y-103856667D02*
X140495500Y-103956667D01*
X140495500Y-103956667D02*
X140528833Y-103990000D01*
X140528833Y-103990000D02*
X140595500Y-104023333D01*
X140595500Y-104023333D02*
X140695500Y-104023333D01*
X140695500Y-104023333D02*
X140762166Y-103990000D01*
X140762166Y-103990000D02*
X140795500Y-103956667D01*
X140795500Y-103956667D02*
X140828833Y-103890000D01*
X140828833Y-103890000D02*
X140828833Y-103623333D01*
X140828833Y-103623333D02*
X140128833Y-103623333D01*
X140128833Y-103623333D02*
X140128833Y-103856667D01*
X140128833Y-103856667D02*
X140162166Y-103923333D01*
X140162166Y-103923333D02*
X140195500Y-103956667D01*
X140195500Y-103956667D02*
X140262166Y-103990000D01*
X140262166Y-103990000D02*
X140328833Y-103990000D01*
X140328833Y-103990000D02*
X140395500Y-103956667D01*
X140395500Y-103956667D02*
X140428833Y-103923333D01*
X140428833Y-103923333D02*
X140462166Y-103856667D01*
X140462166Y-103856667D02*
X140462166Y-103623333D01*
X140128833Y-104256667D02*
X140128833Y-104690000D01*
X140128833Y-104690000D02*
X140395500Y-104456667D01*
X140395500Y-104456667D02*
X140395500Y-104556667D01*
X140395500Y-104556667D02*
X140428833Y-104623333D01*
X140428833Y-104623333D02*
X140462166Y-104656667D01*
X140462166Y-104656667D02*
X140528833Y-104690000D01*
X140528833Y-104690000D02*
X140695500Y-104690000D01*
X140695500Y-104690000D02*
X140762166Y-104656667D01*
X140762166Y-104656667D02*
X140795500Y-104623333D01*
X140795500Y-104623333D02*
X140828833Y-104556667D01*
X140828833Y-104556667D02*
X140828833Y-104356667D01*
X140828833Y-104356667D02*
X140795500Y-104290000D01*
X140795500Y-104290000D02*
X140762166Y-104256667D01*
X140462166Y-116556667D02*
X140495500Y-116656667D01*
X140495500Y-116656667D02*
X140528833Y-116690000D01*
X140528833Y-116690000D02*
X140595500Y-116723333D01*
X140595500Y-116723333D02*
X140695500Y-116723333D01*
X140695500Y-116723333D02*
X140762166Y-116690000D01*
X140762166Y-116690000D02*
X140795500Y-116656667D01*
X140795500Y-116656667D02*
X140828833Y-116590000D01*
X140828833Y-116590000D02*
X140828833Y-116323333D01*
X140828833Y-116323333D02*
X140128833Y-116323333D01*
X140128833Y-116323333D02*
X140128833Y-116556667D01*
X140128833Y-116556667D02*
X140162166Y-116623333D01*
X140162166Y-116623333D02*
X140195500Y-116656667D01*
X140195500Y-116656667D02*
X140262166Y-116690000D01*
X140262166Y-116690000D02*
X140328833Y-116690000D01*
X140328833Y-116690000D02*
X140395500Y-116656667D01*
X140395500Y-116656667D02*
X140428833Y-116623333D01*
X140428833Y-116623333D02*
X140462166Y-116556667D01*
X140462166Y-116556667D02*
X140462166Y-116323333D01*
X140428833Y-117123333D02*
X140395500Y-117056667D01*
X140395500Y-117056667D02*
X140362166Y-117023333D01*
X140362166Y-117023333D02*
X140295500Y-116990000D01*
X140295500Y-116990000D02*
X140262166Y-116990000D01*
X140262166Y-116990000D02*
X140195500Y-117023333D01*
X140195500Y-117023333D02*
X140162166Y-117056667D01*
X140162166Y-117056667D02*
X140128833Y-117123333D01*
X140128833Y-117123333D02*
X140128833Y-117256667D01*
X140128833Y-117256667D02*
X140162166Y-117323333D01*
X140162166Y-117323333D02*
X140195500Y-117356667D01*
X140195500Y-117356667D02*
X140262166Y-117390000D01*
X140262166Y-117390000D02*
X140295500Y-117390000D01*
X140295500Y-117390000D02*
X140362166Y-117356667D01*
X140362166Y-117356667D02*
X140395500Y-117323333D01*
X140395500Y-117323333D02*
X140428833Y-117256667D01*
X140428833Y-117256667D02*
X140428833Y-117123333D01*
X140428833Y-117123333D02*
X140462166Y-117056667D01*
X140462166Y-117056667D02*
X140495500Y-117023333D01*
X140495500Y-117023333D02*
X140562166Y-116990000D01*
X140562166Y-116990000D02*
X140695500Y-116990000D01*
X140695500Y-116990000D02*
X140762166Y-117023333D01*
X140762166Y-117023333D02*
X140795500Y-117056667D01*
X140795500Y-117056667D02*
X140828833Y-117123333D01*
X140828833Y-117123333D02*
X140828833Y-117256667D01*
X140828833Y-117256667D02*
X140795500Y-117323333D01*
X140795500Y-117323333D02*
X140762166Y-117356667D01*
X140762166Y-117356667D02*
X140695500Y-117390000D01*
X140695500Y-117390000D02*
X140562166Y-117390000D01*
X140562166Y-117390000D02*
X140495500Y-117356667D01*
X140495500Y-117356667D02*
X140462166Y-117323333D01*
X140462166Y-117323333D02*
X140428833Y-117256667D01*
X140462166Y-114016667D02*
X140495500Y-114116667D01*
X140495500Y-114116667D02*
X140528833Y-114150000D01*
X140528833Y-114150000D02*
X140595500Y-114183333D01*
X140595500Y-114183333D02*
X140695500Y-114183333D01*
X140695500Y-114183333D02*
X140762166Y-114150000D01*
X140762166Y-114150000D02*
X140795500Y-114116667D01*
X140795500Y-114116667D02*
X140828833Y-114050000D01*
X140828833Y-114050000D02*
X140828833Y-113783333D01*
X140828833Y-113783333D02*
X140128833Y-113783333D01*
X140128833Y-113783333D02*
X140128833Y-114016667D01*
X140128833Y-114016667D02*
X140162166Y-114083333D01*
X140162166Y-114083333D02*
X140195500Y-114116667D01*
X140195500Y-114116667D02*
X140262166Y-114150000D01*
X140262166Y-114150000D02*
X140328833Y-114150000D01*
X140328833Y-114150000D02*
X140395500Y-114116667D01*
X140395500Y-114116667D02*
X140428833Y-114083333D01*
X140428833Y-114083333D02*
X140462166Y-114016667D01*
X140462166Y-114016667D02*
X140462166Y-113783333D01*
X140128833Y-114416667D02*
X140128833Y-114883333D01*
X140128833Y-114883333D02*
X140828833Y-114583333D01*
X159458233Y-126426666D02*
X160158233Y-126660000D01*
X160158233Y-126660000D02*
X159458233Y-126893333D01*
X159791566Y-127360000D02*
X159824900Y-127460000D01*
X159824900Y-127460000D02*
X159858233Y-127493333D01*
X159858233Y-127493333D02*
X159924900Y-127526666D01*
X159924900Y-127526666D02*
X160024900Y-127526666D01*
X160024900Y-127526666D02*
X160091566Y-127493333D01*
X160091566Y-127493333D02*
X160124900Y-127460000D01*
X160124900Y-127460000D02*
X160158233Y-127393333D01*
X160158233Y-127393333D02*
X160158233Y-127126666D01*
X160158233Y-127126666D02*
X159458233Y-127126666D01*
X159458233Y-127126666D02*
X159458233Y-127360000D01*
X159458233Y-127360000D02*
X159491566Y-127426666D01*
X159491566Y-127426666D02*
X159524900Y-127460000D01*
X159524900Y-127460000D02*
X159591566Y-127493333D01*
X159591566Y-127493333D02*
X159658233Y-127493333D01*
X159658233Y-127493333D02*
X159724900Y-127460000D01*
X159724900Y-127460000D02*
X159758233Y-127426666D01*
X159758233Y-127426666D02*
X159791566Y-127360000D01*
X159791566Y-127360000D02*
X159791566Y-127126666D01*
X140628833Y-100766666D02*
X140628833Y-101099999D01*
X140828833Y-100699999D02*
X140128833Y-100933333D01*
X140128833Y-100933333D02*
X140828833Y-101166666D01*
X140828833Y-101766666D02*
X140828833Y-101366666D01*
X140828833Y-101566666D02*
X140128833Y-101566666D01*
X140128833Y-101566666D02*
X140228833Y-101499999D01*
X140228833Y-101499999D02*
X140295500Y-101433333D01*
X140295500Y-101433333D02*
X140328833Y-101366666D01*
X140128833Y-102400000D02*
X140128833Y-102066666D01*
X140128833Y-102066666D02*
X140462166Y-102033333D01*
X140462166Y-102033333D02*
X140428833Y-102066666D01*
X140428833Y-102066666D02*
X140395500Y-102133333D01*
X140395500Y-102133333D02*
X140395500Y-102300000D01*
X140395500Y-102300000D02*
X140428833Y-102366666D01*
X140428833Y-102366666D02*
X140462166Y-102400000D01*
X140462166Y-102400000D02*
X140528833Y-102433333D01*
X140528833Y-102433333D02*
X140695500Y-102433333D01*
X140695500Y-102433333D02*
X140762166Y-102400000D01*
X140762166Y-102400000D02*
X140795500Y-102366666D01*
X140795500Y-102366666D02*
X140828833Y-102300000D01*
X140828833Y-102300000D02*
X140828833Y-102133333D01*
X140828833Y-102133333D02*
X140795500Y-102066666D01*
X140795500Y-102066666D02*
X140762166Y-102033333D01*
X160091566Y-121459999D02*
X160124900Y-121426666D01*
X160124900Y-121426666D02*
X160158233Y-121326666D01*
X160158233Y-121326666D02*
X160158233Y-121259999D01*
X160158233Y-121259999D02*
X160124900Y-121159999D01*
X160124900Y-121159999D02*
X160058233Y-121093333D01*
X160058233Y-121093333D02*
X159991566Y-121059999D01*
X159991566Y-121059999D02*
X159858233Y-121026666D01*
X159858233Y-121026666D02*
X159758233Y-121026666D01*
X159758233Y-121026666D02*
X159624900Y-121059999D01*
X159624900Y-121059999D02*
X159558233Y-121093333D01*
X159558233Y-121093333D02*
X159491566Y-121159999D01*
X159491566Y-121159999D02*
X159458233Y-121259999D01*
X159458233Y-121259999D02*
X159458233Y-121326666D01*
X159458233Y-121326666D02*
X159491566Y-121426666D01*
X159491566Y-121426666D02*
X159524900Y-121459999D01*
X160158233Y-122126666D02*
X160158233Y-121726666D01*
X160158233Y-121926666D02*
X159458233Y-121926666D01*
X159458233Y-121926666D02*
X159558233Y-121859999D01*
X159558233Y-121859999D02*
X159624900Y-121793333D01*
X159624900Y-121793333D02*
X159658233Y-121726666D01*
X159691566Y-122726666D02*
X160158233Y-122726666D01*
X159424900Y-122560000D02*
X159924900Y-122393333D01*
X159924900Y-122393333D02*
X159924900Y-122826666D01*
X160259833Y-116482066D02*
X159926500Y-116248733D01*
X160259833Y-116082066D02*
X159559833Y-116082066D01*
X159559833Y-116082066D02*
X159559833Y-116348733D01*
X159559833Y-116348733D02*
X159593166Y-116415400D01*
X159593166Y-116415400D02*
X159626500Y-116448733D01*
X159626500Y-116448733D02*
X159693166Y-116482066D01*
X159693166Y-116482066D02*
X159793166Y-116482066D01*
X159793166Y-116482066D02*
X159859833Y-116448733D01*
X159859833Y-116448733D02*
X159893166Y-116415400D01*
X159893166Y-116415400D02*
X159926500Y-116348733D01*
X159926500Y-116348733D02*
X159926500Y-116082066D01*
X160226500Y-116748733D02*
X160259833Y-116848733D01*
X160259833Y-116848733D02*
X160259833Y-117015400D01*
X160259833Y-117015400D02*
X160226500Y-117082066D01*
X160226500Y-117082066D02*
X160193166Y-117115400D01*
X160193166Y-117115400D02*
X160126500Y-117148733D01*
X160126500Y-117148733D02*
X160059833Y-117148733D01*
X160059833Y-117148733D02*
X159993166Y-117115400D01*
X159993166Y-117115400D02*
X159959833Y-117082066D01*
X159959833Y-117082066D02*
X159926500Y-117015400D01*
X159926500Y-117015400D02*
X159893166Y-116882066D01*
X159893166Y-116882066D02*
X159859833Y-116815400D01*
X159859833Y-116815400D02*
X159826500Y-116782066D01*
X159826500Y-116782066D02*
X159759833Y-116748733D01*
X159759833Y-116748733D02*
X159693166Y-116748733D01*
X159693166Y-116748733D02*
X159626500Y-116782066D01*
X159626500Y-116782066D02*
X159593166Y-116815400D01*
X159593166Y-116815400D02*
X159559833Y-116882066D01*
X159559833Y-116882066D02*
X159559833Y-117048733D01*
X159559833Y-117048733D02*
X159593166Y-117148733D01*
X159559833Y-117348733D02*
X159559833Y-117748733D01*
X160259833Y-117548733D02*
X159559833Y-117548733D01*
X159365500Y-115985400D02*
X159365500Y-117745400D01*
X159958233Y-111270000D02*
X159958233Y-111603333D01*
X160158233Y-111203333D02*
X159458233Y-111436667D01*
X159458233Y-111436667D02*
X160158233Y-111670000D01*
X160158233Y-112270000D02*
X160158233Y-111870000D01*
X160158233Y-112070000D02*
X159458233Y-112070000D01*
X159458233Y-112070000D02*
X159558233Y-112003333D01*
X159558233Y-112003333D02*
X159624900Y-111936667D01*
X159624900Y-111936667D02*
X159658233Y-111870000D01*
X159491566Y-80756667D02*
X159458233Y-80690000D01*
X159458233Y-80690000D02*
X159458233Y-80590000D01*
X159458233Y-80590000D02*
X159491566Y-80490000D01*
X159491566Y-80490000D02*
X159558233Y-80423334D01*
X159558233Y-80423334D02*
X159624900Y-80390000D01*
X159624900Y-80390000D02*
X159758233Y-80356667D01*
X159758233Y-80356667D02*
X159858233Y-80356667D01*
X159858233Y-80356667D02*
X159991566Y-80390000D01*
X159991566Y-80390000D02*
X160058233Y-80423334D01*
X160058233Y-80423334D02*
X160124900Y-80490000D01*
X160124900Y-80490000D02*
X160158233Y-80590000D01*
X160158233Y-80590000D02*
X160158233Y-80656667D01*
X160158233Y-80656667D02*
X160124900Y-80756667D01*
X160124900Y-80756667D02*
X160091566Y-80790000D01*
X160091566Y-80790000D02*
X159858233Y-80790000D01*
X159858233Y-80790000D02*
X159858233Y-80656667D01*
X160158233Y-81090000D02*
X159458233Y-81090000D01*
X159458233Y-81090000D02*
X160158233Y-81490000D01*
X160158233Y-81490000D02*
X159458233Y-81490000D01*
X160158233Y-81823333D02*
X159458233Y-81823333D01*
X159458233Y-81823333D02*
X159458233Y-81990000D01*
X159458233Y-81990000D02*
X159491566Y-82090000D01*
X159491566Y-82090000D02*
X159558233Y-82156667D01*
X159558233Y-82156667D02*
X159624900Y-82190000D01*
X159624900Y-82190000D02*
X159758233Y-82223333D01*
X159758233Y-82223333D02*
X159858233Y-82223333D01*
X159858233Y-82223333D02*
X159991566Y-82190000D01*
X159991566Y-82190000D02*
X160058233Y-82156667D01*
X160058233Y-82156667D02*
X160124900Y-82090000D01*
X160124900Y-82090000D02*
X160158233Y-81990000D01*
X160158233Y-81990000D02*
X160158233Y-81823333D01*
X140462166Y-106396667D02*
X140495500Y-106496667D01*
X140495500Y-106496667D02*
X140528833Y-106530000D01*
X140528833Y-106530000D02*
X140595500Y-106563333D01*
X140595500Y-106563333D02*
X140695500Y-106563333D01*
X140695500Y-106563333D02*
X140762166Y-106530000D01*
X140762166Y-106530000D02*
X140795500Y-106496667D01*
X140795500Y-106496667D02*
X140828833Y-106430000D01*
X140828833Y-106430000D02*
X140828833Y-106163333D01*
X140828833Y-106163333D02*
X140128833Y-106163333D01*
X140128833Y-106163333D02*
X140128833Y-106396667D01*
X140128833Y-106396667D02*
X140162166Y-106463333D01*
X140162166Y-106463333D02*
X140195500Y-106496667D01*
X140195500Y-106496667D02*
X140262166Y-106530000D01*
X140262166Y-106530000D02*
X140328833Y-106530000D01*
X140328833Y-106530000D02*
X140395500Y-106496667D01*
X140395500Y-106496667D02*
X140428833Y-106463333D01*
X140428833Y-106463333D02*
X140462166Y-106396667D01*
X140462166Y-106396667D02*
X140462166Y-106163333D01*
X140362166Y-107163333D02*
X140828833Y-107163333D01*
X140095500Y-106996667D02*
X140595500Y-106830000D01*
X140595500Y-106830000D02*
X140595500Y-107263333D01*
X140462166Y-119096667D02*
X140495500Y-119196667D01*
X140495500Y-119196667D02*
X140528833Y-119230000D01*
X140528833Y-119230000D02*
X140595500Y-119263333D01*
X140595500Y-119263333D02*
X140695500Y-119263333D01*
X140695500Y-119263333D02*
X140762166Y-119230000D01*
X140762166Y-119230000D02*
X140795500Y-119196667D01*
X140795500Y-119196667D02*
X140828833Y-119130000D01*
X140828833Y-119130000D02*
X140828833Y-118863333D01*
X140828833Y-118863333D02*
X140128833Y-118863333D01*
X140128833Y-118863333D02*
X140128833Y-119096667D01*
X140128833Y-119096667D02*
X140162166Y-119163333D01*
X140162166Y-119163333D02*
X140195500Y-119196667D01*
X140195500Y-119196667D02*
X140262166Y-119230000D01*
X140262166Y-119230000D02*
X140328833Y-119230000D01*
X140328833Y-119230000D02*
X140395500Y-119196667D01*
X140395500Y-119196667D02*
X140428833Y-119163333D01*
X140428833Y-119163333D02*
X140462166Y-119096667D01*
X140462166Y-119096667D02*
X140462166Y-118863333D01*
X140828833Y-119596667D02*
X140828833Y-119730000D01*
X140828833Y-119730000D02*
X140795500Y-119796667D01*
X140795500Y-119796667D02*
X140762166Y-119830000D01*
X140762166Y-119830000D02*
X140662166Y-119896667D01*
X140662166Y-119896667D02*
X140528833Y-119930000D01*
X140528833Y-119930000D02*
X140262166Y-119930000D01*
X140262166Y-119930000D02*
X140195500Y-119896667D01*
X140195500Y-119896667D02*
X140162166Y-119863333D01*
X140162166Y-119863333D02*
X140128833Y-119796667D01*
X140128833Y-119796667D02*
X140128833Y-119663333D01*
X140128833Y-119663333D02*
X140162166Y-119596667D01*
X140162166Y-119596667D02*
X140195500Y-119563333D01*
X140195500Y-119563333D02*
X140262166Y-119530000D01*
X140262166Y-119530000D02*
X140428833Y-119530000D01*
X140428833Y-119530000D02*
X140495500Y-119563333D01*
X140495500Y-119563333D02*
X140528833Y-119596667D01*
X140528833Y-119596667D02*
X140562166Y-119663333D01*
X140562166Y-119663333D02*
X140562166Y-119796667D01*
X140562166Y-119796667D02*
X140528833Y-119863333D01*
X140528833Y-119863333D02*
X140495500Y-119896667D01*
X140495500Y-119896667D02*
X140428833Y-119930000D01*
D11*
%TO.C,C8*%
X153390000Y-95207836D02*
X153390000Y-94992164D01*
X154110000Y-95207836D02*
X154110000Y-94992164D01*
D12*
%TO.C,kibuzzard-663AE55A*%
G36*
X152633550Y-115616119D02*
G01*
X152698654Y-115710738D01*
X152760286Y-115810564D01*
X152812369Y-115909522D01*
X152569314Y-115909522D01*
X152569314Y-115531050D01*
X152633550Y-115616119D01*
G37*
G36*
X151838845Y-115445764D02*
G01*
X151895703Y-115518029D01*
X151921744Y-115592007D01*
X151937369Y-115685467D01*
X151942578Y-115798411D01*
X151937369Y-115912319D01*
X151921744Y-116006359D01*
X151895703Y-116080529D01*
X151838845Y-116152795D01*
X151762022Y-116176883D01*
X151760286Y-116176347D01*
X151684114Y-116152795D01*
X151627474Y-116080529D01*
X151601914Y-116006359D01*
X151586579Y-115912319D01*
X151581467Y-115798411D01*
X151582253Y-115781050D01*
X151664800Y-115781050D01*
X151691710Y-115861779D01*
X151760286Y-115895633D01*
X151831467Y-115861779D01*
X151857508Y-115781050D01*
X151831467Y-115699453D01*
X151760286Y-115664731D01*
X151691710Y-115699453D01*
X151664800Y-115781050D01*
X151582253Y-115781050D01*
X151586579Y-115685467D01*
X151601914Y-115592007D01*
X151627474Y-115518029D01*
X151684114Y-115445764D01*
X151762022Y-115421675D01*
X151838845Y-115445764D01*
G37*
G36*
X153263781Y-114840453D02*
G01*
X153364674Y-114855419D01*
X153463614Y-114880202D01*
X153559649Y-114914564D01*
X153651854Y-114958174D01*
X153739339Y-115010611D01*
X153821264Y-115071370D01*
X153896839Y-115139867D01*
X153965336Y-115215442D01*
X154026096Y-115297367D01*
X154078533Y-115384853D01*
X154122142Y-115477057D01*
X154156504Y-115573092D01*
X154181287Y-115672033D01*
X154196254Y-115772926D01*
X154201258Y-115874800D01*
X154196254Y-115976674D01*
X154181287Y-116077567D01*
X154156504Y-116176508D01*
X154122142Y-116272543D01*
X154078533Y-116364747D01*
X154026096Y-116452233D01*
X153965336Y-116534158D01*
X153896839Y-116609733D01*
X153821264Y-116678230D01*
X153739339Y-116738989D01*
X153651854Y-116791426D01*
X153559649Y-116835036D01*
X153463614Y-116869398D01*
X153364674Y-116894181D01*
X153263781Y-116909147D01*
X153161906Y-116914152D01*
X153017231Y-116914152D01*
X152355772Y-116914152D01*
X151762022Y-116914152D01*
X150531119Y-116914152D01*
X150024175Y-116914152D01*
X147312369Y-116914152D01*
X147167694Y-116914152D01*
X147065819Y-116909147D01*
X146964926Y-116894181D01*
X146865986Y-116869398D01*
X146769951Y-116835036D01*
X146677746Y-116791426D01*
X146590261Y-116738989D01*
X146508336Y-116678230D01*
X146432761Y-116609733D01*
X146364264Y-116534158D01*
X146303504Y-116452233D01*
X146251067Y-116364747D01*
X146207458Y-116272543D01*
X146173096Y-116176508D01*
X146148313Y-116077567D01*
X146133346Y-115976674D01*
X146128342Y-115874800D01*
X146133346Y-115772926D01*
X146148313Y-115672033D01*
X146173096Y-115573092D01*
X146207458Y-115477057D01*
X146251067Y-115384853D01*
X146303504Y-115297367D01*
X146364264Y-115215442D01*
X146432761Y-115139867D01*
X146449385Y-115124800D01*
X147312369Y-115124800D01*
X147312369Y-116624800D01*
X147527647Y-116624800D01*
X147527647Y-116201189D01*
X149869661Y-116201189D01*
X149916536Y-116317508D01*
X150024175Y-116357439D01*
X150083203Y-116347022D01*
X150097339Y-116338342D01*
X150531119Y-116338342D01*
X151183897Y-116338342D01*
X151183897Y-116161258D01*
X150958203Y-116161258D01*
X150958203Y-115798411D01*
X151388758Y-115798411D01*
X151394726Y-115931658D01*
X151412630Y-116046675D01*
X151442469Y-116143463D01*
X151484244Y-116222022D01*
X151557547Y-116299183D01*
X151650140Y-116345479D01*
X151762022Y-116360911D01*
X151873905Y-116345479D01*
X151966498Y-116299183D01*
X152039800Y-116222022D01*
X152081575Y-116143463D01*
X152099640Y-116084869D01*
X152239453Y-116084869D01*
X152355772Y-116084869D01*
X152355772Y-116338342D01*
X152569314Y-116338342D01*
X152569314Y-116084869D01*
X153017231Y-116084869D01*
X153017231Y-115928619D01*
X152979470Y-115856354D01*
X152932161Y-115774974D01*
X152877474Y-115687951D01*
X152817578Y-115598758D01*
X152753342Y-115509132D01*
X152685633Y-115420807D01*
X152616189Y-115337691D01*
X152546744Y-115263689D01*
X152355772Y-115263689D01*
X152355772Y-115909522D01*
X152239453Y-115909522D01*
X152239453Y-116084869D01*
X152099640Y-116084869D01*
X152111415Y-116046675D01*
X152129318Y-115931658D01*
X152135286Y-115798411D01*
X152129210Y-115666684D01*
X152110981Y-115552751D01*
X152080599Y-115456614D01*
X152038064Y-115378272D01*
X151964183Y-115301112D01*
X151872169Y-115254815D01*
X151762022Y-115239383D01*
X151650140Y-115254719D01*
X151557547Y-115300726D01*
X151484244Y-115377404D01*
X151442469Y-115455475D01*
X151412630Y-115551666D01*
X151394726Y-115665978D01*
X151388758Y-115798411D01*
X150958203Y-115798411D01*
X150958203Y-115560564D01*
X151069314Y-115622196D01*
X151175217Y-115664731D01*
X151244661Y-115487647D01*
X151154383Y-115447717D01*
X151057161Y-115393897D01*
X150965147Y-115331397D01*
X150890494Y-115263689D01*
X150744661Y-115263689D01*
X150744661Y-116161258D01*
X150531119Y-116161258D01*
X150531119Y-116338342D01*
X150097339Y-116338342D01*
X150132682Y-116316640D01*
X150167404Y-116268029D01*
X150180425Y-116201189D01*
X150167404Y-116136085D01*
X150132682Y-116088342D01*
X150083203Y-116058828D01*
X150024175Y-116048411D01*
X149916536Y-116088342D01*
X149869661Y-116201189D01*
X147527647Y-116201189D01*
X147527647Y-115675147D01*
X149869661Y-115675147D01*
X149916536Y-115791467D01*
X150024175Y-115831397D01*
X150083203Y-115820981D01*
X150132682Y-115790599D01*
X150167404Y-115741988D01*
X150180425Y-115675147D01*
X150167404Y-115610043D01*
X150132682Y-115562300D01*
X150083203Y-115532786D01*
X150024175Y-115522369D01*
X149916536Y-115562300D01*
X149869661Y-115675147D01*
X147527647Y-115675147D01*
X147527647Y-115124800D01*
X147312369Y-115124800D01*
X146449385Y-115124800D01*
X146508336Y-115071370D01*
X146590261Y-115010611D01*
X146677746Y-114958174D01*
X146769951Y-114914564D01*
X146865986Y-114880202D01*
X146964926Y-114855419D01*
X147065819Y-114840453D01*
X147167694Y-114835448D01*
X147312369Y-114835448D01*
X153017231Y-114835448D01*
X153161906Y-114835448D01*
X153263781Y-114840453D01*
G37*
D11*
%TO.C,J5*%
X141189400Y-80035400D02*
X141189400Y-128355400D01*
X143849400Y-77435400D02*
X142519400Y-77435400D01*
X143849400Y-78765400D02*
X143849400Y-77435400D01*
X143849400Y-80035400D02*
X141189400Y-80035400D01*
X143849400Y-80035400D02*
X143849400Y-128355400D01*
X143849400Y-128355400D02*
X141189400Y-128355400D01*
%TO.C,J6*%
X156454800Y-80035400D02*
X156454800Y-128355400D01*
X159114800Y-77435400D02*
X157784800Y-77435400D01*
X159114800Y-78765400D02*
X159114800Y-77435400D01*
X159114800Y-80035400D02*
X156454800Y-80035400D01*
X159114800Y-80035400D02*
X159114800Y-128355400D01*
X159114800Y-128355400D02*
X156454800Y-128355400D01*
%TO.C,U2*%
X147425000Y-88425000D02*
X147425000Y-88685000D01*
X147425000Y-93615000D02*
X145750000Y-93615000D01*
X147425000Y-93875000D02*
X147425000Y-93615000D01*
X150150000Y-88425000D02*
X147425000Y-88425000D01*
X150150000Y-88425000D02*
X152875000Y-88425000D01*
X150150000Y-93875000D02*
X147425000Y-93875000D01*
X150150000Y-93875000D02*
X152875000Y-93875000D01*
X152875000Y-88425000D02*
X152875000Y-88685000D01*
X152875000Y-93875000D02*
X152875000Y-93615000D01*
D12*
%TO.C,kibuzzard-663AE56E*%
G36*
X152633550Y-113330119D02*
G01*
X152698654Y-113424738D01*
X152760286Y-113524564D01*
X152812369Y-113623522D01*
X152569314Y-113623522D01*
X152569314Y-113245050D01*
X152633550Y-113330119D01*
G37*
G36*
X153263781Y-112554453D02*
G01*
X153364674Y-112569419D01*
X153463614Y-112594202D01*
X153559649Y-112628564D01*
X153651854Y-112672174D01*
X153739339Y-112724611D01*
X153821264Y-112785370D01*
X153896839Y-112853867D01*
X153965336Y-112929442D01*
X154026096Y-113011367D01*
X154078533Y-113098853D01*
X154122142Y-113191057D01*
X154156504Y-113287092D01*
X154181287Y-113386033D01*
X154196254Y-113486926D01*
X154201258Y-113588800D01*
X154196254Y-113690674D01*
X154181287Y-113791567D01*
X154156504Y-113890508D01*
X154122142Y-113986543D01*
X154078533Y-114078747D01*
X154026096Y-114166233D01*
X153965336Y-114248158D01*
X153896839Y-114323733D01*
X153821264Y-114392230D01*
X153739339Y-114452989D01*
X153651854Y-114505426D01*
X153559649Y-114549036D01*
X153463614Y-114583398D01*
X153364674Y-114608181D01*
X153263781Y-114623147D01*
X153161906Y-114628152D01*
X153017231Y-114628152D01*
X152355772Y-114628152D01*
X151399175Y-114628152D01*
X150531119Y-114628152D01*
X150024175Y-114628152D01*
X147312369Y-114628152D01*
X147167694Y-114628152D01*
X147065819Y-114623147D01*
X146964926Y-114608181D01*
X146865986Y-114583398D01*
X146769951Y-114549036D01*
X146677746Y-114505426D01*
X146590261Y-114452989D01*
X146508336Y-114392230D01*
X146432761Y-114323733D01*
X146364264Y-114248158D01*
X146303504Y-114166233D01*
X146251067Y-114078747D01*
X146207458Y-113986543D01*
X146173096Y-113890508D01*
X146148313Y-113791567D01*
X146133346Y-113690674D01*
X146128342Y-113588800D01*
X146133346Y-113486926D01*
X146148313Y-113386033D01*
X146173096Y-113287092D01*
X146207458Y-113191057D01*
X146251067Y-113098853D01*
X146303504Y-113011367D01*
X146364264Y-112929442D01*
X146432761Y-112853867D01*
X146449385Y-112838800D01*
X147312369Y-112838800D01*
X147312369Y-114338800D01*
X147527647Y-114338800D01*
X147527647Y-113915189D01*
X149869661Y-113915189D01*
X149916536Y-114031508D01*
X150024175Y-114071439D01*
X150083203Y-114061022D01*
X150097339Y-114052342D01*
X150531119Y-114052342D01*
X151183897Y-114052342D01*
X151399175Y-114052342D01*
X152051953Y-114052342D01*
X152051953Y-113875258D01*
X151826258Y-113875258D01*
X151826258Y-113798869D01*
X152239453Y-113798869D01*
X152355772Y-113798869D01*
X152355772Y-114052342D01*
X152569314Y-114052342D01*
X152569314Y-113798869D01*
X153017231Y-113798869D01*
X153017231Y-113642619D01*
X152979470Y-113570354D01*
X152932161Y-113488974D01*
X152877474Y-113401951D01*
X152817578Y-113312758D01*
X152753342Y-113223132D01*
X152685633Y-113134807D01*
X152616189Y-113051691D01*
X152546744Y-112977689D01*
X152355772Y-112977689D01*
X152355772Y-113623522D01*
X152239453Y-113623522D01*
X152239453Y-113798869D01*
X151826258Y-113798869D01*
X151826258Y-113274564D01*
X151937369Y-113336196D01*
X152043272Y-113378731D01*
X152112717Y-113201647D01*
X152022439Y-113161717D01*
X151925217Y-113107897D01*
X151833203Y-113045397D01*
X151758550Y-112977689D01*
X151612717Y-112977689D01*
X151612717Y-113875258D01*
X151399175Y-113875258D01*
X151399175Y-114052342D01*
X151183897Y-114052342D01*
X151183897Y-113875258D01*
X150958203Y-113875258D01*
X150958203Y-113274564D01*
X151069314Y-113336196D01*
X151175217Y-113378731D01*
X151244661Y-113201647D01*
X151154383Y-113161717D01*
X151057161Y-113107897D01*
X150965147Y-113045397D01*
X150890494Y-112977689D01*
X150744661Y-112977689D01*
X150744661Y-113875258D01*
X150531119Y-113875258D01*
X150531119Y-114052342D01*
X150097339Y-114052342D01*
X150132682Y-114030640D01*
X150167404Y-113982029D01*
X150180425Y-113915189D01*
X150167404Y-113850085D01*
X150132682Y-113802342D01*
X150083203Y-113772828D01*
X150024175Y-113762411D01*
X149916536Y-113802342D01*
X149869661Y-113915189D01*
X147527647Y-113915189D01*
X147527647Y-113389147D01*
X149869661Y-113389147D01*
X149916536Y-113505467D01*
X150024175Y-113545397D01*
X150083203Y-113534981D01*
X150132682Y-113504599D01*
X150167404Y-113455988D01*
X150180425Y-113389147D01*
X150167404Y-113324043D01*
X150132682Y-113276300D01*
X150083203Y-113246786D01*
X150024175Y-113236369D01*
X149916536Y-113276300D01*
X149869661Y-113389147D01*
X147527647Y-113389147D01*
X147527647Y-112838800D01*
X147312369Y-112838800D01*
X146449385Y-112838800D01*
X146508336Y-112785370D01*
X146590261Y-112724611D01*
X146677746Y-112672174D01*
X146769951Y-112628564D01*
X146865986Y-112594202D01*
X146964926Y-112569419D01*
X147065819Y-112554453D01*
X147167694Y-112549448D01*
X147312369Y-112549448D01*
X153017231Y-112549448D01*
X153161906Y-112549448D01*
X153263781Y-112554453D01*
G37*
%TD*%
M02*
