M48
; DRILL file {KiCad 6.0.11-2627ca5db0~126~ubuntu20.04.1} date Tue 28 Feb 2023 04:59:52 PM WIB
; FORMAT={-:-/ absolute / inch / decimal}
; #@! TF.CreationDate,2023-02-28T16:59:52+07:00
; #@! TF.GenerationSoftware,Kicad,Pcbnew,6.0.11-2627ca5db0~126~ubuntu20.04.1
; #@! TF.FileFunction,Plated,1,4,PTH
FMAT,2
INCH
; #@! TA.AperFunction,Plated,PTH,ViaDrill
T1C0.0157
; #@! TA.AperFunction,Plated,PTH,ComponentDrill
T2C0.0236
; #@! TA.AperFunction,Plated,PTH,ComponentDrill
T3C0.0394
%
G90
G05
T1
X5.6713Y-4.0571
X5.6969Y-4.1142
X5.7421Y-3.3602
X5.7433Y-4.3049
X5.7441Y-4.6358
X5.7539Y-3.4272
X5.7677Y-3.7657
X5.7756Y-4.4055
X5.7854Y-4.4961
X5.7854Y-4.5571
X5.7888Y-3.39
X5.8002Y-3.1496
X5.8002Y-3.1496
X5.813Y-4.9606
X5.8169Y-3.8031
X5.8327Y-3.4114
X5.8346Y-4.1811
X5.8415Y-3.1496
X5.8415Y-3.1496
X5.8465Y-4.0364
X5.8465Y-4.0778
X5.9075Y-4.1594
X5.9134Y-4.9606
X5.9173Y-4.0256
X5.9252Y-3.8917
X5.9311Y-4.2578
X5.9331Y-4.7598
X5.9449Y-4.624
X5.9567Y-4.4134
X5.9587Y-3.7028
X5.9685Y-3.5315
X5.9705Y-4.0787
X5.9813Y-3.1496
X5.9921Y-3.4094
X6.002Y-3.6969
X6.0059Y-3.8445
X6.0118Y-4.9606
X6.0226Y-3.1496
X6.0256Y-4.0689
X6.0354Y-4.7303
X6.0385Y-3.3935
X6.0413Y-4.1083
X6.0492Y-4.5797
X6.0827Y-3.3622
X6.1122Y-4.5669
X6.1201Y-3.748
X6.124Y-4.3445
X6.126Y-3.4783
X6.1358Y-4.8504
X6.154Y-3.426
X6.2126Y-3.6476
X6.2185Y-4.8504
T3
X5.5049Y-3.101
X5.5049Y-3.201
X5.5049Y-3.301
X5.5049Y-3.401
X5.5049Y-3.501
X5.5049Y-3.601
X5.5049Y-3.701
X5.5049Y-3.801
X5.5049Y-3.901
X5.5049Y-4.001
X5.5049Y-4.101
X5.5049Y-4.201
X5.5049Y-4.301
X5.5049Y-4.401
X5.5049Y-4.501
X5.5049Y-4.601
X5.5049Y-4.701
X5.5049Y-4.801
X5.5049Y-4.901
X5.5049Y-5.001
X5.562Y-3.101
X5.562Y-3.201
X5.562Y-3.301
X5.562Y-3.401
X5.562Y-3.501
X5.562Y-3.601
X5.562Y-3.701
X5.562Y-3.801
X5.562Y-3.901
X5.562Y-4.001
X5.562Y-4.101
X5.562Y-4.201
X5.562Y-4.301
X5.562Y-4.401
X5.562Y-4.501
X5.562Y-4.601
X5.562Y-4.701
X5.562Y-4.801
X5.562Y-4.901
X5.562Y-5.001
X5.762Y-5.0049
X5.762Y-5.06
X5.862Y-5.0049
X5.862Y-5.06
X5.962Y-5.0049
X5.962Y-5.06
X6.062Y-5.0049
X6.062Y-5.06
X6.262Y-3.101
X6.262Y-3.201
X6.262Y-3.301
X6.262Y-3.401
X6.262Y-3.501
X6.262Y-3.601
X6.262Y-3.701
X6.262Y-3.801
X6.262Y-3.901
X6.262Y-4.001
X6.262Y-4.101
X6.262Y-4.201
X6.262Y-4.301
X6.262Y-4.401
X6.262Y-4.501
X6.262Y-4.601
X6.262Y-4.701
X6.262Y-4.801
X6.262Y-4.901
X6.262Y-5.001
X6.3191Y-3.101
X6.3191Y-3.201
X6.3191Y-3.301
X6.3191Y-3.401
X6.3191Y-3.501
X6.3191Y-3.601
X6.3191Y-3.701
X6.3191Y-3.801
X6.3191Y-3.901
X6.3191Y-4.001
X6.3191Y-4.101
X6.3191Y-4.201
X6.3191Y-4.301
X6.3191Y-4.401
X6.3191Y-4.501
X6.3191Y-4.601
X6.3191Y-4.701
X6.3191Y-4.801
X6.3191Y-4.901
X6.3191Y-5.001
T2
G00X5.7419Y-3.1422
M15
G01X5.7419Y-3.1107
M16
G05
G00X5.7419Y-3.3135
M15
G01X5.7419Y-3.2702
M16
G05
G00X6.0821Y-3.1422
M15
G01X6.0821Y-3.1107
M16
G05
G00X6.0821Y-3.3135
M15
G01X6.0821Y-3.2702
M16
G05
T0
M30
