%TF.GenerationSoftware,KiCad,Pcbnew,8.0.1*%
%TF.CreationDate,2024-05-13T17:31:10+07:00*%
%TF.ProjectId,greenpill-f411,67726565-6e70-4696-9c6c-2d663431312e,rev?*%
%TF.SameCoordinates,Original*%
%TF.FileFunction,Copper,L4,Bot*%
%TF.FilePolarity,Positive*%
%FSLAX46Y46*%
G04 Gerber Fmt 4.6, Leading zero omitted, Abs format (unit mm)*
G04 Created by KiCad (PCBNEW 8.0.1) date 2024-05-13 17:31:10*
%MOMM*%
%LPD*%
G01*
G04 APERTURE LIST*
G04 Aperture macros list*
%AMRoundRect*
0 Rectangle with rounded corners*
0 $1 Rounding radius*
0 $2 $3 $4 $5 $6 $7 $8 $9 X,Y pos of 4 corners*
0 Add a 4 corners polygon primitive as box body*
4,1,4,$2,$3,$4,$5,$6,$7,$8,$9,$2,$3,0*
0 Add four circle primitives for the rounded corners*
1,1,$1+$1,$2,$3*
1,1,$1+$1,$4,$5*
1,1,$1+$1,$6,$7*
1,1,$1+$1,$8,$9*
0 Add four rect primitives between the rounded corners*
20,1,$1+$1,$2,$3,$4,$5,0*
20,1,$1+$1,$4,$5,$6,$7,0*
20,1,$1+$1,$6,$7,$8,$9,0*
20,1,$1+$1,$8,$9,$2,$3,0*%
G04 Aperture macros list end*
%TA.AperFunction,ComponentPad*%
%ADD10R,1.700000X1.700000*%
%TD*%
%TA.AperFunction,ComponentPad*%
%ADD11O,1.700000X1.700000*%
%TD*%
%TA.AperFunction,ComponentPad*%
%ADD12O,1.000000X2.100000*%
%TD*%
%TA.AperFunction,ComponentPad*%
%ADD13O,1.000000X1.800000*%
%TD*%
%TA.AperFunction,SMDPad,CuDef*%
%ADD14RoundRect,0.140000X0.170000X-0.140000X0.170000X0.140000X-0.170000X0.140000X-0.170000X-0.140000X0*%
%TD*%
%TA.AperFunction,SMDPad,CuDef*%
%ADD15RoundRect,0.150000X-0.650000X-0.150000X0.650000X-0.150000X0.650000X0.150000X-0.650000X0.150000X0*%
%TD*%
%TA.AperFunction,ViaPad*%
%ADD16C,0.800000*%
%TD*%
%TA.AperFunction,Conductor*%
%ADD17C,0.200000*%
%TD*%
%TA.AperFunction,Conductor*%
%ADD18C,0.300000*%
%TD*%
%TA.AperFunction,Conductor*%
%ADD19C,0.250000*%
%TD*%
G04 APERTURE END LIST*
D10*
%TO.P,J7,1,Pin_1*%
%TO.N,+3V3*%
X153974800Y-127124000D03*
D11*
%TO.P,J7,2,Pin_2*%
%TO.N,/PA13*%
X151434800Y-127124000D03*
%TO.P,J7,3,Pin_3*%
%TO.N,/PA14*%
X148894800Y-127124000D03*
%TO.P,J7,4,Pin_4*%
%TO.N,GND*%
X146354800Y-127124000D03*
%TD*%
D12*
%TO.P,J1,S1,SHIELD*%
%TO.N,GND*%
X154484800Y-83612830D03*
D13*
X154484800Y-79412830D03*
D12*
X145844800Y-83612830D03*
D13*
X145844800Y-79412830D03*
%TD*%
D14*
%TO.P,C8,1*%
%TO.N,GND*%
X153750000Y-95580000D03*
%TO.P,C8,2*%
%TO.N,+3V3*%
X153750000Y-94620000D03*
%TD*%
D10*
%TO.P,J5,1,Pin_1*%
%TO.N,/PB12*%
X142519400Y-78765400D03*
D11*
%TO.P,J5,2,Pin_2*%
%TO.N,/PB13*%
X142519400Y-81305400D03*
%TO.P,J5,3,Pin_3*%
%TO.N,/PB14*%
X142519400Y-83845400D03*
%TO.P,J5,4,Pin_4*%
%TO.N,/PB15*%
X142519400Y-86385400D03*
%TO.P,J5,5,Pin_5*%
%TO.N,/PA8*%
X142519400Y-88925400D03*
%TO.P,J5,6,Pin_6*%
%TO.N,/PA9*%
X142519400Y-91465400D03*
%TO.P,J5,7,Pin_7*%
%TO.N,/PA10*%
X142519400Y-94005400D03*
%TO.P,J5,8,Pin_8*%
%TO.N,/USB_DN*%
X142519400Y-96545400D03*
%TO.P,J5,9,Pin_9*%
%TO.N,/USB_DP*%
X142519400Y-99085400D03*
%TO.P,J5,10,Pin_10*%
%TO.N,/PA15*%
X142519400Y-101625400D03*
%TO.P,J5,11,Pin_11*%
%TO.N,/PB3*%
X142519400Y-104165400D03*
%TO.P,J5,12,Pin_12*%
%TO.N,/PB4*%
X142519400Y-106705400D03*
%TO.P,J5,13,Pin_13*%
%TO.N,/PB5*%
X142519400Y-109245400D03*
%TO.P,J5,14,Pin_14*%
%TO.N,/PB6*%
X142519400Y-111785400D03*
%TO.P,J5,15,Pin_15*%
%TO.N,/PB7*%
X142519400Y-114325400D03*
%TO.P,J5,16,Pin_16*%
%TO.N,/PB8*%
X142519400Y-116865400D03*
%TO.P,J5,17,Pin_17*%
%TO.N,/PB9*%
X142519400Y-119405400D03*
%TO.P,J5,18,Pin_18*%
%TO.N,VCC*%
X142519400Y-121945400D03*
%TO.P,J5,19,Pin_19*%
%TO.N,GND*%
X142519400Y-124485400D03*
%TO.P,J5,20,Pin_20*%
%TO.N,+3V3*%
X142519400Y-127025400D03*
%TD*%
D10*
%TO.P,J6,1,Pin_1*%
%TO.N,VCC*%
X157784800Y-78765400D03*
D11*
%TO.P,J6,2,Pin_2*%
%TO.N,GND*%
X157784800Y-81305400D03*
%TO.P,J6,3,Pin_3*%
%TO.N,+3V3*%
X157784800Y-83845400D03*
%TO.P,J6,4,Pin_4*%
%TO.N,/PB10*%
X157784800Y-86385400D03*
%TO.P,J6,5,Pin_5*%
%TO.N,/PB2*%
X157784800Y-88925400D03*
%TO.P,J6,6,Pin_6*%
%TO.N,/PB1*%
X157784800Y-91465400D03*
%TO.P,J6,7,Pin_7*%
%TO.N,/PB0*%
X157784800Y-94005400D03*
%TO.P,J6,8,Pin_8*%
%TO.N,/MEM_MOSI*%
X157784800Y-96545400D03*
%TO.P,J6,9,Pin_9*%
%TO.N,/MEM_MISO*%
X157784800Y-99085400D03*
%TO.P,J6,10,Pin_10*%
%TO.N,/MEM_CLK*%
X157784800Y-101625400D03*
%TO.P,J6,11,Pin_11*%
%TO.N,/PA4*%
X157784800Y-104165400D03*
%TO.P,J6,12,Pin_12*%
%TO.N,/PA3*%
X157784800Y-106705400D03*
%TO.P,J6,13,Pin_13*%
%TO.N,/PA2*%
X157784800Y-109245400D03*
%TO.P,J6,14,Pin_14*%
%TO.N,/PA1*%
X157784800Y-111785400D03*
%TO.P,J6,15,Pin_15*%
%TO.N,/PA0*%
X157784800Y-114325400D03*
%TO.P,J6,16,Pin_16*%
%TO.N,/~{NRST}*%
X157784800Y-116865400D03*
%TO.P,J6,17,Pin_17*%
%TO.N,/PC15*%
X157784800Y-119405400D03*
%TO.P,J6,18,Pin_18*%
%TO.N,/PC14*%
X157784800Y-121945400D03*
%TO.P,J6,19,Pin_19*%
%TO.N,/PC13*%
X157784800Y-124485400D03*
%TO.P,J6,20,Pin_20*%
%TO.N,/VB*%
X157784800Y-127025400D03*
%TD*%
D15*
%TO.P,U2,1,~{CS}*%
%TO.N,/PA4*%
X146550000Y-93055000D03*
%TO.P,U2,2,DO(IO1)*%
%TO.N,/MEM_MISO*%
X146550000Y-91785000D03*
%TO.P,U2,3,IO2*%
%TO.N,+3V3*%
X146550000Y-90515000D03*
%TO.P,U2,4,GND*%
%TO.N,GND*%
X146550000Y-89245000D03*
%TO.P,U2,5,DI(IO0)*%
%TO.N,/MEM_MOSI*%
X153750000Y-89245000D03*
%TO.P,U2,6,CLK*%
%TO.N,/MEM_CLK*%
X153750000Y-90515000D03*
%TO.P,U2,7,IO3*%
%TO.N,+3V3*%
X153750000Y-91785000D03*
%TO.P,U2,8,VCC*%
X153750000Y-93055000D03*
%TD*%
D16*
%TO.N,GND*%
X151358600Y-105435400D03*
X158597600Y-113055399D03*
X155041600Y-124358400D03*
X148971000Y-105435400D03*
X158597600Y-82575399D03*
X158597600Y-110515399D03*
X158597600Y-125755399D03*
X158597600Y-105435399D03*
X150164800Y-106654600D03*
X141706600Y-110515399D03*
X143814800Y-127787400D03*
X141706600Y-102895399D03*
X141706600Y-87655399D03*
X158597600Y-107975399D03*
X152755600Y-97129600D03*
X158597600Y-92735399D03*
X141503400Y-80213200D03*
X158597600Y-87655399D03*
X149098000Y-99009200D03*
X158597600Y-85115399D03*
X141706600Y-95275399D03*
X141706600Y-118135399D03*
X141706600Y-82575399D03*
X143967200Y-102031800D03*
X158597600Y-123215399D03*
X158597600Y-90195399D03*
X141706600Y-107975399D03*
X141706600Y-120675399D03*
X141706600Y-97815399D03*
X158597600Y-97815399D03*
X158597600Y-118135399D03*
X158826200Y-80238600D03*
X158597600Y-95275399D03*
X151257000Y-87350600D03*
X151434800Y-113284000D03*
X158597600Y-115595399D03*
X141706600Y-105435399D03*
X141706600Y-90195399D03*
X158597600Y-102895399D03*
X158597600Y-100355399D03*
X153466800Y-119888000D03*
X141706600Y-100355399D03*
X141706600Y-113055399D03*
X141706600Y-125755399D03*
X141706600Y-115595399D03*
X156260800Y-126822200D03*
X158597600Y-120675399D03*
X152095200Y-93395800D03*
X141706600Y-123215399D03*
X141706600Y-92735399D03*
X141706600Y-85115399D03*
X150164800Y-104216200D03*
%TO.N,/~{NRST}*%
X151332800Y-94919800D03*
X154292600Y-109956600D03*
%TO.N,VCC*%
X152425400Y-87833200D03*
%TO.N,+3V3*%
X148971000Y-110464600D03*
X150749000Y-99034600D03*
X146118269Y-90885001D03*
X152831800Y-94615000D03*
X145131928Y-104441416D03*
X156006800Y-111125000D03*
%TO.N,VBAT*%
X152196800Y-117424200D03*
X149758400Y-111328200D03*
%TO.N,VBUS*%
X147764800Y-85598000D03*
X152564800Y-85598000D03*
%TO.N,/PA13*%
X145318841Y-103347159D03*
%TO.N,/PA14*%
X144529442Y-105239549D03*
%TO.N,/MEM_MISO*%
X155879305Y-86126149D03*
%TO.N,/PA4*%
X155883941Y-87126141D03*
%TO.N,/PA0*%
X155534800Y-107322800D03*
X151028400Y-117398800D03*
%TO.N,/PC13*%
X151645917Y-110381341D03*
%TO.N,/BOOT0*%
X150063200Y-96088200D03*
X146446818Y-109613800D03*
%TO.N,/D+*%
X151367000Y-80848200D03*
X147894473Y-80844136D03*
%TO.N,/D-*%
X148944473Y-80844136D03*
X152417000Y-80848200D03*
%TO.N,/USB_DP*%
X149140000Y-87350600D03*
X143620000Y-100355400D03*
%TO.N,/USB_DN*%
X144670000Y-100355400D03*
X150190200Y-87350600D03*
%TD*%
D17*
%TO.N,/~{NRST}*%
X151849000Y-99855200D02*
X151849000Y-97308314D01*
X151332800Y-96792114D02*
X151332800Y-94919800D01*
X154292600Y-109956600D02*
X154292600Y-102298800D01*
X154292600Y-102298800D02*
X151849000Y-99855200D01*
X151849000Y-97308314D02*
X151332800Y-96792114D01*
D18*
%TO.N,+3V3*%
X152836800Y-94620000D02*
X152831800Y-94615000D01*
X153750000Y-94620000D02*
X152836800Y-94620000D01*
X153750000Y-93055000D02*
X153750000Y-91785000D01*
X153750000Y-94620000D02*
X153750000Y-93055000D01*
D17*
%TO.N,VBAT*%
X149758400Y-114985800D02*
X152196800Y-117424200D01*
X149758400Y-111328200D02*
X149758400Y-114985800D01*
D19*
%TO.N,/PA13*%
X144979442Y-105870958D02*
X144979442Y-115183846D01*
X149344800Y-125034000D02*
X151434800Y-127124000D01*
X145856928Y-103885246D02*
X145856928Y-104993472D01*
X149344800Y-119549204D02*
X149344800Y-125034000D01*
X144979442Y-115183846D02*
X149344800Y-119549204D01*
X145856928Y-104993472D02*
X144979442Y-105870958D01*
X145318841Y-103347159D02*
X145856928Y-103885246D01*
%TO.N,/PA14*%
X148894800Y-127124000D02*
X148894800Y-119735600D01*
X148894800Y-119735600D02*
X144529442Y-115370242D01*
X144529442Y-115370242D02*
X144529442Y-105239549D01*
D17*
%TO.N,/MEM_MOSI*%
X156362400Y-90728800D02*
X156362400Y-95123000D01*
X156362400Y-95123000D02*
X157784800Y-96545400D01*
X154878600Y-89245000D02*
X156362400Y-90728800D01*
X153750000Y-89245000D02*
X154878600Y-89245000D01*
%TO.N,/MEM_MISO*%
X145865600Y-91983170D02*
X146235485Y-91613285D01*
X152246685Y-86250600D02*
X152729286Y-86733200D01*
X152729286Y-86733200D02*
X155272254Y-86733200D01*
X148596400Y-90951000D02*
X148596400Y-88362636D01*
X147762400Y-91785000D02*
X148596400Y-90951000D01*
X155272254Y-86733200D02*
X155879305Y-86126149D01*
X148040000Y-87806235D02*
X148040000Y-86894964D01*
X146550000Y-91785000D02*
X147762400Y-91785000D01*
X148596400Y-88362636D02*
X148040000Y-87806235D01*
X148684365Y-86250600D02*
X152246685Y-86250600D01*
X148040000Y-86894964D02*
X148684365Y-86250600D01*
%TO.N,/MEM_CLK*%
X155158000Y-90515000D02*
X155962400Y-91319400D01*
X155962400Y-91319400D02*
X155962400Y-99803000D01*
X153750000Y-90515000D02*
X155158000Y-90515000D01*
X155962400Y-99803000D02*
X157784800Y-101625400D01*
%TO.N,/PA4*%
X148996400Y-88196950D02*
X148440000Y-87640550D01*
X155876882Y-87133200D02*
X155883941Y-87126141D01*
X152563600Y-87133200D02*
X154646400Y-87133200D01*
X148440000Y-87060650D02*
X148850050Y-86650600D01*
X148850050Y-86650600D02*
X152081000Y-86650600D01*
X146550000Y-93055000D02*
X147800500Y-93055000D01*
X147800500Y-93055000D02*
X148996400Y-91859100D01*
X154646400Y-87133200D02*
X155876882Y-87133200D01*
X148440000Y-87640550D02*
X148440000Y-87060650D01*
X152081000Y-86650600D02*
X152563600Y-87133200D01*
X148996400Y-91859100D02*
X148996400Y-88196950D01*
%TO.N,/PA0*%
X152896800Y-117714150D02*
X152486750Y-118124200D01*
X155534800Y-107322800D02*
X155534800Y-109361800D01*
X150749000Y-111327550D02*
X150158400Y-111918150D01*
X155092400Y-111633000D02*
X157784800Y-114325400D01*
X150158400Y-111918150D02*
X150158400Y-114820114D01*
X150749000Y-110109000D02*
X150749000Y-111327550D01*
X151176659Y-109681341D02*
X150749000Y-110109000D01*
X151753800Y-118124200D02*
X151028400Y-117398800D01*
X152679400Y-110133654D02*
X152227087Y-109681341D01*
X152486750Y-116724200D02*
X152896800Y-117134250D01*
X155092400Y-109804200D02*
X155092400Y-111633000D01*
X150158400Y-114820114D02*
X152062486Y-116724200D01*
X155092400Y-111633000D02*
X153463262Y-111633000D01*
X152679400Y-110849138D02*
X152679400Y-110133654D01*
X152062486Y-116724200D02*
X152486750Y-116724200D01*
X152227087Y-109681341D02*
X151176659Y-109681341D01*
X152896800Y-117134250D02*
X152896800Y-117714150D01*
X155534800Y-109361800D02*
X155092400Y-109804200D01*
X152486750Y-118124200D02*
X151753800Y-118124200D01*
X153463262Y-111633000D02*
X152679400Y-110849138D01*
%TO.N,/PC13*%
X156311600Y-115047024D02*
X156311600Y-123012200D01*
X156311600Y-123012200D02*
X157784800Y-124485400D01*
X151645917Y-110381341D02*
X156311600Y-115047024D01*
%TO.N,/BOOT0*%
X151449000Y-97474000D02*
X151449000Y-100087200D01*
X150063200Y-96088200D02*
X151449000Y-97474000D01*
X151449000Y-100087200D02*
X146446818Y-105089382D01*
X146446818Y-105089382D02*
X146446818Y-109613800D01*
%TO.N,/D+*%
X149886405Y-82461500D02*
X150364400Y-81983505D01*
X151666999Y-80052399D02*
X151440933Y-79826333D01*
X151666999Y-80548201D02*
X151666999Y-80052399D01*
X151367000Y-80848200D02*
X151666999Y-80548201D01*
X148792900Y-82461500D02*
X149886405Y-82461500D01*
X150362426Y-80054374D02*
X150362426Y-80708330D01*
X151440933Y-79826333D02*
X150590467Y-79826333D01*
X150364400Y-81983505D02*
X150364400Y-80772000D01*
X150590467Y-79826333D02*
X150362426Y-80054374D01*
X148194472Y-81863072D02*
X148792900Y-82461500D01*
X147894473Y-80844136D02*
X148194472Y-81144135D01*
X148194472Y-81144135D02*
X148194472Y-81863072D01*
%TO.N,/D-*%
X148644474Y-81144135D02*
X148644474Y-81676674D01*
X149700005Y-82011500D02*
X149914400Y-81797105D01*
X152417000Y-80848200D02*
X152117001Y-80548201D01*
X152117001Y-80548201D02*
X152117001Y-79866001D01*
X149912426Y-79867974D02*
X149912426Y-80708330D01*
X148944473Y-80844136D02*
X148644474Y-81144135D01*
X148644474Y-81676674D02*
X148979300Y-82011500D01*
X152117001Y-79866001D02*
X151627333Y-79376333D01*
X148979300Y-82011500D02*
X149700005Y-82011500D01*
X150404067Y-79376333D02*
X149912426Y-79867974D01*
X149914400Y-81797105D02*
X149914400Y-80772000D01*
X151627333Y-79376333D02*
X150404067Y-79376333D01*
%TO.N,/USB_DP*%
X143620000Y-100355400D02*
X143919999Y-100055401D01*
X149440099Y-87650699D02*
X149140000Y-87350600D01*
X149440099Y-93167301D02*
X149440099Y-87650699D01*
X143919999Y-100055401D02*
X143919999Y-98687401D01*
X143919999Y-98687401D02*
X149440099Y-93167301D01*
%TO.N,/USB_DN*%
X144670000Y-100355400D02*
X144370001Y-100055401D01*
X144370001Y-98873799D02*
X149890101Y-93353699D01*
X149890101Y-93353699D02*
X149890101Y-87650699D01*
X149890101Y-87650699D02*
X150190200Y-87350600D01*
X144370001Y-100055401D02*
X144370001Y-98873799D01*
%TD*%
%TA.AperFunction,Conductor*%
%TO.N,GND*%
G36*
X160444921Y-77285402D02*
G01*
X160491414Y-77339058D01*
X160502800Y-77391400D01*
X160502800Y-128399400D01*
X160482798Y-128467521D01*
X160429142Y-128514014D01*
X160376800Y-128525400D01*
X139952800Y-128525400D01*
X139884679Y-128505398D01*
X139838186Y-128451742D01*
X139826800Y-128399400D01*
X139826800Y-127025404D01*
X141410168Y-127025404D01*
X141429054Y-127229219D01*
X141429055Y-127229221D01*
X141485072Y-127426101D01*
X141576312Y-127609335D01*
X141596586Y-127636183D01*
X141699666Y-127772684D01*
X141850936Y-127910585D01*
X142024966Y-128018340D01*
X142024968Y-128018340D01*
X142024973Y-128018344D01*
X142215844Y-128092288D01*
X142417053Y-128129900D01*
X142417055Y-128129900D01*
X142621745Y-128129900D01*
X142621747Y-128129900D01*
X142822956Y-128092288D01*
X143013827Y-128018344D01*
X143187862Y-127910586D01*
X143339132Y-127772685D01*
X143462488Y-127609335D01*
X143553728Y-127426101D01*
X143609745Y-127229221D01*
X143628632Y-127025400D01*
X143614232Y-126869999D01*
X145279250Y-126869999D01*
X145279251Y-126870000D01*
X145924097Y-126870000D01*
X145888875Y-126931007D01*
X145854800Y-127058174D01*
X145854800Y-127189826D01*
X145888875Y-127316993D01*
X145924097Y-127378000D01*
X145279251Y-127378000D01*
X145320938Y-127524514D01*
X145320940Y-127524519D01*
X145412140Y-127707672D01*
X145535437Y-127870946D01*
X145686638Y-128008784D01*
X145860596Y-128116493D01*
X145860603Y-128116496D01*
X146051382Y-128190405D01*
X146100799Y-128199642D01*
X146100800Y-128199642D01*
X146100800Y-127554702D01*
X146161807Y-127589925D01*
X146288974Y-127624000D01*
X146420626Y-127624000D01*
X146547793Y-127589925D01*
X146608800Y-127554702D01*
X146608800Y-128199642D01*
X146658217Y-128190405D01*
X146658218Y-128190405D01*
X146848996Y-128116496D01*
X146849003Y-128116493D01*
X147022961Y-128008784D01*
X147174162Y-127870946D01*
X147297459Y-127707672D01*
X147388659Y-127524519D01*
X147388661Y-127524514D01*
X147430349Y-127378000D01*
X146785503Y-127378000D01*
X146820725Y-127316993D01*
X146854800Y-127189826D01*
X146854800Y-127058174D01*
X146820725Y-126931007D01*
X146785503Y-126870000D01*
X147430349Y-126870000D01*
X147430349Y-126869999D01*
X147388661Y-126723485D01*
X147388659Y-126723480D01*
X147297459Y-126540327D01*
X147174162Y-126377053D01*
X147022961Y-126239215D01*
X146849003Y-126131506D01*
X146848996Y-126131503D01*
X146658224Y-126057596D01*
X146608800Y-126048357D01*
X146608800Y-126693297D01*
X146547793Y-126658075D01*
X146420626Y-126624000D01*
X146288974Y-126624000D01*
X146161807Y-126658075D01*
X146100800Y-126693297D01*
X146100800Y-126048357D01*
X146051375Y-126057596D01*
X145860603Y-126131503D01*
X145860596Y-126131506D01*
X145686638Y-126239215D01*
X145535437Y-126377053D01*
X145412140Y-126540327D01*
X145320940Y-126723480D01*
X145320938Y-126723485D01*
X145279250Y-126869999D01*
X143614232Y-126869999D01*
X143609745Y-126821579D01*
X143553728Y-126624699D01*
X143462488Y-126441465D01*
X143413591Y-126376715D01*
X143339133Y-126278115D01*
X143187863Y-126140214D01*
X143013833Y-126032459D01*
X143013828Y-126032457D01*
X143013827Y-126032456D01*
X143013822Y-126032454D01*
X142822959Y-125958513D01*
X142822960Y-125958513D01*
X142822957Y-125958512D01*
X142822956Y-125958512D01*
X142621747Y-125920900D01*
X142417053Y-125920900D01*
X142215844Y-125958512D01*
X142215839Y-125958513D01*
X142024977Y-126032454D01*
X142024966Y-126032459D01*
X141850936Y-126140214D01*
X141699666Y-126278115D01*
X141576313Y-126441463D01*
X141485071Y-126624701D01*
X141429054Y-126821580D01*
X141410168Y-127025395D01*
X141410168Y-127025404D01*
X139826800Y-127025404D01*
X139826800Y-124231399D01*
X141443850Y-124231399D01*
X141443851Y-124231400D01*
X142088697Y-124231400D01*
X142053475Y-124292407D01*
X142019400Y-124419574D01*
X142019400Y-124551226D01*
X142053475Y-124678393D01*
X142088697Y-124739400D01*
X141443851Y-124739400D01*
X141485538Y-124885914D01*
X141485540Y-124885919D01*
X141576740Y-125069072D01*
X141700037Y-125232346D01*
X141851238Y-125370184D01*
X142025196Y-125477893D01*
X142025203Y-125477896D01*
X142215982Y-125551805D01*
X142265399Y-125561042D01*
X142265400Y-125561042D01*
X142265400Y-124916102D01*
X142326407Y-124951325D01*
X142453574Y-124985400D01*
X142585226Y-124985400D01*
X142712393Y-124951325D01*
X142773400Y-124916102D01*
X142773400Y-125561042D01*
X142822817Y-125551805D01*
X142822818Y-125551805D01*
X143013596Y-125477896D01*
X143013603Y-125477893D01*
X143187561Y-125370184D01*
X143338762Y-125232346D01*
X143462059Y-125069072D01*
X143553259Y-124885919D01*
X143553261Y-124885914D01*
X143594949Y-124739400D01*
X142950103Y-124739400D01*
X142985325Y-124678393D01*
X143019400Y-124551226D01*
X143019400Y-124419574D01*
X142985325Y-124292407D01*
X142950103Y-124231400D01*
X143594949Y-124231400D01*
X143594949Y-124231399D01*
X143553261Y-124084885D01*
X143553259Y-124084880D01*
X143462059Y-123901727D01*
X143338762Y-123738453D01*
X143187561Y-123600615D01*
X143013603Y-123492906D01*
X143013596Y-123492903D01*
X142822824Y-123418996D01*
X142773400Y-123409757D01*
X142773400Y-124054697D01*
X142712393Y-124019475D01*
X142585226Y-123985400D01*
X142453574Y-123985400D01*
X142326407Y-124019475D01*
X142265400Y-124054697D01*
X142265400Y-123409757D01*
X142215975Y-123418996D01*
X142025203Y-123492903D01*
X142025196Y-123492906D01*
X141851238Y-123600615D01*
X141700037Y-123738453D01*
X141576740Y-123901727D01*
X141485540Y-124084880D01*
X141485538Y-124084885D01*
X141443850Y-124231399D01*
X139826800Y-124231399D01*
X139826800Y-121945404D01*
X141410168Y-121945404D01*
X141429054Y-122149219D01*
X141429055Y-122149221D01*
X141485072Y-122346101D01*
X141576312Y-122529335D01*
X141576313Y-122529336D01*
X141699666Y-122692684D01*
X141850936Y-122830585D01*
X142024966Y-122938340D01*
X142024968Y-122938340D01*
X142024973Y-122938344D01*
X142215844Y-123012288D01*
X142417053Y-123049900D01*
X142417055Y-123049900D01*
X142621745Y-123049900D01*
X142621747Y-123049900D01*
X142822956Y-123012288D01*
X143013827Y-122938344D01*
X143187862Y-122830586D01*
X143339132Y-122692685D01*
X143462488Y-122529335D01*
X143553728Y-122346101D01*
X143609745Y-122149221D01*
X143628632Y-121945400D01*
X143609745Y-121741579D01*
X143553728Y-121544699D01*
X143462488Y-121361465D01*
X143411549Y-121294011D01*
X143339133Y-121198115D01*
X143187863Y-121060214D01*
X143013833Y-120952459D01*
X143013828Y-120952457D01*
X143013827Y-120952456D01*
X142822959Y-120878513D01*
X142822960Y-120878513D01*
X142822957Y-120878512D01*
X142822956Y-120878512D01*
X142621747Y-120840900D01*
X142417053Y-120840900D01*
X142215844Y-120878512D01*
X142215839Y-120878513D01*
X142024977Y-120952454D01*
X142024966Y-120952459D01*
X141850936Y-121060214D01*
X141699666Y-121198115D01*
X141576313Y-121361463D01*
X141485071Y-121544701D01*
X141429054Y-121741580D01*
X141410168Y-121945395D01*
X141410168Y-121945404D01*
X139826800Y-121945404D01*
X139826800Y-119405404D01*
X141410168Y-119405404D01*
X141429054Y-119609219D01*
X141429055Y-119609221D01*
X141485072Y-119806101D01*
X141576312Y-119989335D01*
X141576313Y-119989336D01*
X141699666Y-120152684D01*
X141850936Y-120290585D01*
X142024966Y-120398340D01*
X142024968Y-120398340D01*
X142024973Y-120398344D01*
X142215844Y-120472288D01*
X142417053Y-120509900D01*
X142417055Y-120509900D01*
X142621745Y-120509900D01*
X142621747Y-120509900D01*
X142822956Y-120472288D01*
X143013827Y-120398344D01*
X143187862Y-120290586D01*
X143339132Y-120152685D01*
X143462488Y-119989335D01*
X143553728Y-119806101D01*
X143609745Y-119609221D01*
X143628632Y-119405400D01*
X143628383Y-119402717D01*
X143609745Y-119201580D01*
X143609745Y-119201579D01*
X143553728Y-119004699D01*
X143462488Y-118821465D01*
X143411549Y-118754011D01*
X143339133Y-118658115D01*
X143187863Y-118520214D01*
X143013833Y-118412459D01*
X143013828Y-118412457D01*
X143013827Y-118412456D01*
X142822959Y-118338513D01*
X142822960Y-118338513D01*
X142822957Y-118338512D01*
X142822956Y-118338512D01*
X142621747Y-118300900D01*
X142417053Y-118300900D01*
X142215844Y-118338512D01*
X142215839Y-118338513D01*
X142024977Y-118412454D01*
X142024966Y-118412459D01*
X141850936Y-118520214D01*
X141699666Y-118658115D01*
X141576313Y-118821463D01*
X141485071Y-119004701D01*
X141429054Y-119201580D01*
X141410168Y-119405395D01*
X141410168Y-119405404D01*
X139826800Y-119405404D01*
X139826800Y-116865404D01*
X141410168Y-116865404D01*
X141429054Y-117069219D01*
X141429055Y-117069221D01*
X141485072Y-117266101D01*
X141576312Y-117449335D01*
X141576313Y-117449336D01*
X141699666Y-117612684D01*
X141850936Y-117750585D01*
X142024966Y-117858340D01*
X142024968Y-117858340D01*
X142024973Y-117858344D01*
X142215844Y-117932288D01*
X142417053Y-117969900D01*
X142417055Y-117969900D01*
X142621745Y-117969900D01*
X142621747Y-117969900D01*
X142822956Y-117932288D01*
X143013827Y-117858344D01*
X143187862Y-117750586D01*
X143339132Y-117612685D01*
X143462488Y-117449335D01*
X143553728Y-117266101D01*
X143609745Y-117069221D01*
X143623889Y-116916582D01*
X143628632Y-116865404D01*
X143628632Y-116865395D01*
X143609745Y-116661580D01*
X143584633Y-116573319D01*
X143553728Y-116464699D01*
X143462488Y-116281465D01*
X143411549Y-116214011D01*
X143339133Y-116118115D01*
X143187863Y-115980214D01*
X143013833Y-115872459D01*
X143013828Y-115872457D01*
X143013827Y-115872456D01*
X142822959Y-115798513D01*
X142822960Y-115798513D01*
X142822957Y-115798512D01*
X142822956Y-115798512D01*
X142621747Y-115760900D01*
X142417053Y-115760900D01*
X142215844Y-115798512D01*
X142215839Y-115798513D01*
X142024977Y-115872454D01*
X142024966Y-115872459D01*
X141850936Y-115980214D01*
X141699666Y-116118115D01*
X141576313Y-116281463D01*
X141485071Y-116464701D01*
X141429054Y-116661580D01*
X141410168Y-116865395D01*
X141410168Y-116865404D01*
X139826800Y-116865404D01*
X139826800Y-114325404D01*
X141410168Y-114325404D01*
X141429054Y-114529219D01*
X141429055Y-114529221D01*
X141485072Y-114726101D01*
X141576312Y-114909335D01*
X141576313Y-114909336D01*
X141699666Y-115072684D01*
X141850936Y-115210585D01*
X142024966Y-115318340D01*
X142024968Y-115318340D01*
X142024973Y-115318344D01*
X142215844Y-115392288D01*
X142417053Y-115429900D01*
X142417055Y-115429900D01*
X142621745Y-115429900D01*
X142621747Y-115429900D01*
X142822956Y-115392288D01*
X143013827Y-115318344D01*
X143187862Y-115210586D01*
X143339132Y-115072685D01*
X143462488Y-114909335D01*
X143553728Y-114726101D01*
X143609745Y-114529221D01*
X143628632Y-114325400D01*
X143609745Y-114121579D01*
X143553728Y-113924699D01*
X143462488Y-113741465D01*
X143421938Y-113687768D01*
X143339133Y-113578115D01*
X143187863Y-113440214D01*
X143013833Y-113332459D01*
X143013828Y-113332457D01*
X143013827Y-113332456D01*
X142822959Y-113258513D01*
X142822960Y-113258513D01*
X142822957Y-113258512D01*
X142822956Y-113258512D01*
X142621747Y-113220900D01*
X142417053Y-113220900D01*
X142215844Y-113258512D01*
X142215839Y-113258513D01*
X142024977Y-113332454D01*
X142024966Y-113332459D01*
X141850936Y-113440214D01*
X141699666Y-113578115D01*
X141576313Y-113741463D01*
X141485071Y-113924701D01*
X141429054Y-114121580D01*
X141410168Y-114325395D01*
X141410168Y-114325404D01*
X139826800Y-114325404D01*
X139826800Y-111785404D01*
X141410168Y-111785404D01*
X141429054Y-111989219D01*
X141485071Y-112186098D01*
X141485072Y-112186101D01*
X141576312Y-112369335D01*
X141576313Y-112369336D01*
X141699666Y-112532684D01*
X141850936Y-112670585D01*
X142024966Y-112778340D01*
X142024968Y-112778340D01*
X142024973Y-112778344D01*
X142215844Y-112852288D01*
X142417053Y-112889900D01*
X142417055Y-112889900D01*
X142621745Y-112889900D01*
X142621747Y-112889900D01*
X142822956Y-112852288D01*
X143013827Y-112778344D01*
X143187862Y-112670586D01*
X143339132Y-112532685D01*
X143462488Y-112369335D01*
X143553728Y-112186101D01*
X143609745Y-111989221D01*
X143616986Y-111911082D01*
X143628632Y-111785404D01*
X143628632Y-111785395D01*
X143609745Y-111581580D01*
X143604576Y-111563413D01*
X143553728Y-111384699D01*
X143462488Y-111201465D01*
X143415394Y-111139102D01*
X143339133Y-111038115D01*
X143187863Y-110900214D01*
X143013833Y-110792459D01*
X143013828Y-110792457D01*
X143013827Y-110792456D01*
X142996125Y-110785598D01*
X142822959Y-110718513D01*
X142822960Y-110718513D01*
X142822957Y-110718512D01*
X142822956Y-110718512D01*
X142621747Y-110680900D01*
X142417053Y-110680900D01*
X142252088Y-110711737D01*
X142215839Y-110718513D01*
X142024977Y-110792454D01*
X142024966Y-110792459D01*
X141850936Y-110900214D01*
X141699666Y-111038115D01*
X141576313Y-111201463D01*
X141485071Y-111384701D01*
X141429054Y-111581580D01*
X141410168Y-111785395D01*
X141410168Y-111785404D01*
X139826800Y-111785404D01*
X139826800Y-109245404D01*
X141410168Y-109245404D01*
X141429054Y-109449219D01*
X141475882Y-109613803D01*
X141485072Y-109646101D01*
X141576312Y-109829335D01*
X141576313Y-109829336D01*
X141699666Y-109992684D01*
X141850936Y-110130585D01*
X142024966Y-110238340D01*
X142024968Y-110238340D01*
X142024973Y-110238344D01*
X142215844Y-110312288D01*
X142417053Y-110349900D01*
X142417055Y-110349900D01*
X142621745Y-110349900D01*
X142621747Y-110349900D01*
X142822956Y-110312288D01*
X143013827Y-110238344D01*
X143187862Y-110130586D01*
X143339132Y-109992685D01*
X143462488Y-109829335D01*
X143553728Y-109646101D01*
X143609745Y-109449221D01*
X143622886Y-109307407D01*
X143628632Y-109245404D01*
X143628632Y-109245395D01*
X143609745Y-109041580D01*
X143606711Y-109030916D01*
X143553728Y-108844699D01*
X143462488Y-108661465D01*
X143421938Y-108607768D01*
X143339133Y-108498115D01*
X143187863Y-108360214D01*
X143013833Y-108252459D01*
X143013828Y-108252457D01*
X143013827Y-108252456D01*
X142822959Y-108178513D01*
X142822960Y-108178513D01*
X142822957Y-108178512D01*
X142822956Y-108178512D01*
X142621747Y-108140900D01*
X142417053Y-108140900D01*
X142215844Y-108178512D01*
X142215839Y-108178513D01*
X142024977Y-108252454D01*
X142024966Y-108252459D01*
X141850936Y-108360214D01*
X141699666Y-108498115D01*
X141576313Y-108661463D01*
X141485071Y-108844701D01*
X141429054Y-109041580D01*
X141410168Y-109245395D01*
X141410168Y-109245404D01*
X139826800Y-109245404D01*
X139826800Y-106705404D01*
X141410168Y-106705404D01*
X141429054Y-106909219D01*
X141429055Y-106909221D01*
X141485072Y-107106101D01*
X141576312Y-107289335D01*
X141576313Y-107289336D01*
X141699666Y-107452684D01*
X141850936Y-107590585D01*
X142024966Y-107698340D01*
X142024968Y-107698340D01*
X142024973Y-107698344D01*
X142215844Y-107772288D01*
X142417053Y-107809900D01*
X142417055Y-107809900D01*
X142621745Y-107809900D01*
X142621747Y-107809900D01*
X142822956Y-107772288D01*
X143013827Y-107698344D01*
X143187862Y-107590586D01*
X143339132Y-107452685D01*
X143462488Y-107289335D01*
X143553728Y-107106101D01*
X143609745Y-106909221D01*
X143616040Y-106841280D01*
X143628632Y-106705404D01*
X143628632Y-106705395D01*
X143609745Y-106501580D01*
X143609745Y-106501579D01*
X143553728Y-106304699D01*
X143462488Y-106121465D01*
X143421938Y-106067768D01*
X143339133Y-105958115D01*
X143187863Y-105820214D01*
X143013833Y-105712459D01*
X143013828Y-105712457D01*
X143013827Y-105712456D01*
X143013822Y-105712454D01*
X142822959Y-105638513D01*
X142822960Y-105638513D01*
X142822957Y-105638512D01*
X142822956Y-105638512D01*
X142621747Y-105600900D01*
X142417053Y-105600900D01*
X142215844Y-105638512D01*
X142215839Y-105638513D01*
X142024977Y-105712454D01*
X142024966Y-105712459D01*
X141850936Y-105820214D01*
X141699666Y-105958115D01*
X141576313Y-106121463D01*
X141485071Y-106304701D01*
X141429054Y-106501580D01*
X141410168Y-106705395D01*
X141410168Y-106705404D01*
X139826800Y-106705404D01*
X139826800Y-104165404D01*
X141410168Y-104165404D01*
X141429054Y-104369219D01*
X141467184Y-104503232D01*
X141485072Y-104566101D01*
X141576312Y-104749335D01*
X141576313Y-104749336D01*
X141699666Y-104912684D01*
X141850936Y-105050585D01*
X142024966Y-105158340D01*
X142024968Y-105158340D01*
X142024973Y-105158344D01*
X142215844Y-105232288D01*
X142417053Y-105269900D01*
X142417055Y-105269900D01*
X142621745Y-105269900D01*
X142621747Y-105269900D01*
X142784097Y-105239552D01*
X143870135Y-105239552D01*
X143889291Y-105397328D01*
X143945654Y-105545941D01*
X143945657Y-105545947D01*
X144035942Y-105676748D01*
X144035943Y-105676749D01*
X144035944Y-105676750D01*
X144107497Y-105740141D01*
X144145221Y-105800283D01*
X144149942Y-105834451D01*
X144149942Y-115312545D01*
X144149941Y-115312563D01*
X144149941Y-115420207D01*
X144167979Y-115487522D01*
X144175804Y-115516724D01*
X144225763Y-115603257D01*
X144225771Y-115603267D01*
X144303598Y-115681094D01*
X144303612Y-115681106D01*
X148478395Y-119855889D01*
X148512421Y-119918201D01*
X148515300Y-119944984D01*
X148515300Y-126000220D01*
X148495298Y-126068341D01*
X148441642Y-126114834D01*
X148434819Y-126117711D01*
X148400372Y-126131056D01*
X148400369Y-126131058D01*
X148226336Y-126238814D01*
X148075066Y-126376715D01*
X147951713Y-126540063D01*
X147860471Y-126723301D01*
X147804454Y-126920180D01*
X147785568Y-127123995D01*
X147785568Y-127124004D01*
X147804454Y-127327819D01*
X147804455Y-127327821D01*
X147860472Y-127524701D01*
X147951712Y-127707935D01*
X147951713Y-127707936D01*
X148075066Y-127871284D01*
X148226336Y-128009185D01*
X148400366Y-128116940D01*
X148400368Y-128116940D01*
X148400373Y-128116944D01*
X148591244Y-128190888D01*
X148792453Y-128228500D01*
X148792455Y-128228500D01*
X148997145Y-128228500D01*
X148997147Y-128228500D01*
X149198356Y-128190888D01*
X149389227Y-128116944D01*
X149563262Y-128009186D01*
X149714532Y-127871285D01*
X149837888Y-127707935D01*
X149929128Y-127524701D01*
X149985145Y-127327821D01*
X150004032Y-127124000D01*
X149997932Y-127058174D01*
X149985145Y-126920180D01*
X149970868Y-126870000D01*
X149929128Y-126723299D01*
X149837888Y-126540065D01*
X149763429Y-126441465D01*
X149714533Y-126376715D01*
X149563263Y-126238814D01*
X149389230Y-126131058D01*
X149389227Y-126131056D01*
X149354781Y-126117711D01*
X149298487Y-126074450D01*
X149274518Y-126007622D01*
X149274300Y-126000220D01*
X149274300Y-125804384D01*
X149294302Y-125736263D01*
X149347958Y-125689770D01*
X149418232Y-125679666D01*
X149482812Y-125709160D01*
X149489395Y-125715289D01*
X150369584Y-126595478D01*
X150403610Y-126657790D01*
X150401679Y-126719054D01*
X150344454Y-126920180D01*
X150325568Y-127123995D01*
X150325568Y-127124004D01*
X150344454Y-127327819D01*
X150344455Y-127327821D01*
X150400472Y-127524701D01*
X150491712Y-127707935D01*
X150491713Y-127707936D01*
X150615066Y-127871284D01*
X150766336Y-128009185D01*
X150940366Y-128116940D01*
X150940368Y-128116940D01*
X150940373Y-128116944D01*
X151131244Y-128190888D01*
X151332453Y-128228500D01*
X151332455Y-128228500D01*
X151537145Y-128228500D01*
X151537147Y-128228500D01*
X151738356Y-128190888D01*
X151929227Y-128116944D01*
X152103262Y-128009186D01*
X152114366Y-127999063D01*
X152870300Y-127999063D01*
X152870301Y-127999073D01*
X152885065Y-128073300D01*
X152941316Y-128157484D01*
X153025497Y-128213733D01*
X153025499Y-128213734D01*
X153099733Y-128228500D01*
X154849866Y-128228499D01*
X154849869Y-128228498D01*
X154849873Y-128228498D01*
X154899126Y-128218701D01*
X154924101Y-128213734D01*
X155008284Y-128157484D01*
X155064534Y-128073301D01*
X155079300Y-127999067D01*
X155079299Y-127025404D01*
X156675568Y-127025404D01*
X156694454Y-127229219D01*
X156694455Y-127229221D01*
X156750472Y-127426101D01*
X156841712Y-127609335D01*
X156861986Y-127636183D01*
X156965066Y-127772684D01*
X157116336Y-127910585D01*
X157290366Y-128018340D01*
X157290368Y-128018340D01*
X157290373Y-128018344D01*
X157481244Y-128092288D01*
X157682453Y-128129900D01*
X157682455Y-128129900D01*
X157887145Y-128129900D01*
X157887147Y-128129900D01*
X158088356Y-128092288D01*
X158279227Y-128018344D01*
X158453262Y-127910586D01*
X158604532Y-127772685D01*
X158727888Y-127609335D01*
X158819128Y-127426101D01*
X158875145Y-127229221D01*
X158894032Y-127025400D01*
X158875145Y-126821579D01*
X158819128Y-126624699D01*
X158727888Y-126441465D01*
X158678991Y-126376715D01*
X158604533Y-126278115D01*
X158453263Y-126140214D01*
X158279233Y-126032459D01*
X158279228Y-126032457D01*
X158279227Y-126032456D01*
X158279222Y-126032454D01*
X158088359Y-125958513D01*
X158088360Y-125958513D01*
X158088357Y-125958512D01*
X158088356Y-125958512D01*
X157887147Y-125920900D01*
X157682453Y-125920900D01*
X157481244Y-125958512D01*
X157481239Y-125958513D01*
X157290377Y-126032454D01*
X157290366Y-126032459D01*
X157116336Y-126140214D01*
X156965066Y-126278115D01*
X156841713Y-126441463D01*
X156750471Y-126624701D01*
X156694454Y-126821580D01*
X156675568Y-127025395D01*
X156675568Y-127025404D01*
X155079299Y-127025404D01*
X155079299Y-126248934D01*
X155079298Y-126248930D01*
X155079298Y-126248926D01*
X155064534Y-126174699D01*
X155064533Y-126174697D01*
X155008284Y-126090516D01*
X154984240Y-126074450D01*
X154924102Y-126034266D01*
X154849867Y-126019500D01*
X153099736Y-126019500D01*
X153099726Y-126019501D01*
X153025499Y-126034265D01*
X152941315Y-126090516D01*
X152885066Y-126174697D01*
X152870300Y-126248930D01*
X152870300Y-127999063D01*
X152114366Y-127999063D01*
X152254532Y-127871285D01*
X152377888Y-127707935D01*
X152469128Y-127524701D01*
X152525145Y-127327821D01*
X152544032Y-127124000D01*
X152537932Y-127058174D01*
X152525145Y-126920180D01*
X152510868Y-126870000D01*
X152469128Y-126723299D01*
X152377888Y-126540065D01*
X152303429Y-126441465D01*
X152254533Y-126376715D01*
X152103263Y-126238814D01*
X151929233Y-126131059D01*
X151929228Y-126131057D01*
X151929227Y-126131056D01*
X151894780Y-126117711D01*
X151738359Y-126057113D01*
X151738360Y-126057113D01*
X151738357Y-126057112D01*
X151738356Y-126057112D01*
X151537147Y-126019500D01*
X151332453Y-126019500D01*
X151131244Y-126057112D01*
X151131242Y-126057112D01*
X151131240Y-126057113D01*
X151044444Y-126090737D01*
X150973697Y-126096693D01*
X150910962Y-126063455D01*
X150909834Y-126062340D01*
X149761205Y-124913711D01*
X149727179Y-124851399D01*
X149724300Y-124824616D01*
X149724300Y-119499243D01*
X149724300Y-119499242D01*
X149698438Y-119402722D01*
X149698436Y-119402719D01*
X149698436Y-119402717D01*
X149648478Y-119316188D01*
X149648470Y-119316178D01*
X149573430Y-119241138D01*
X149573407Y-119241117D01*
X145395847Y-115063557D01*
X145361821Y-115001245D01*
X145358942Y-114974462D01*
X145358942Y-106080342D01*
X145378944Y-106012221D01*
X145395847Y-105991247D01*
X145877223Y-105509871D01*
X145939535Y-105475845D01*
X146010350Y-105480910D01*
X146067186Y-105523457D01*
X146091997Y-105589977D01*
X146092318Y-105598966D01*
X146092318Y-108996749D01*
X146072316Y-109064870D01*
X146049872Y-109091060D01*
X145953320Y-109176599D01*
X145953319Y-109176600D01*
X145863033Y-109307401D01*
X145863030Y-109307407D01*
X145806667Y-109456020D01*
X145787511Y-109613796D01*
X145787511Y-109613803D01*
X145806667Y-109771579D01*
X145863030Y-109920192D01*
X145863033Y-109920198D01*
X145864278Y-109922001D01*
X145953320Y-110051001D01*
X146072289Y-110156399D01*
X146072290Y-110156399D01*
X146072292Y-110156401D01*
X146147018Y-110195620D01*
X146213025Y-110230263D01*
X146367347Y-110268300D01*
X146367348Y-110268300D01*
X146526288Y-110268300D01*
X146526289Y-110268300D01*
X146680611Y-110230263D01*
X146821347Y-110156399D01*
X146940316Y-110051001D01*
X147030605Y-109920195D01*
X147086967Y-109771582D01*
X147086967Y-109771581D01*
X147086968Y-109771579D01*
X147106125Y-109613803D01*
X147106125Y-109613796D01*
X147086968Y-109456020D01*
X147064837Y-109397667D01*
X147030605Y-109307405D01*
X146940316Y-109176599D01*
X146843763Y-109091060D01*
X146806039Y-109030916D01*
X146801318Y-108996749D01*
X146801318Y-105288411D01*
X146821320Y-105220290D01*
X146838223Y-105199316D01*
X151675905Y-100361634D01*
X151738217Y-100327608D01*
X151809032Y-100332673D01*
X151854095Y-100361634D01*
X153901195Y-102408734D01*
X153935221Y-102471046D01*
X153938100Y-102497829D01*
X153938100Y-109339549D01*
X153918098Y-109407670D01*
X153895654Y-109433860D01*
X153840286Y-109482913D01*
X153799101Y-109519400D01*
X153708815Y-109650201D01*
X153708812Y-109650207D01*
X153652449Y-109798820D01*
X153633293Y-109956596D01*
X153633293Y-109956603D01*
X153652449Y-110114379D01*
X153699464Y-110238344D01*
X153708813Y-110262995D01*
X153799102Y-110393801D01*
X153918071Y-110499199D01*
X153918072Y-110499199D01*
X153918074Y-110499201D01*
X153945022Y-110513344D01*
X154058807Y-110573063D01*
X154213129Y-110611100D01*
X154213130Y-110611100D01*
X154372070Y-110611100D01*
X154372071Y-110611100D01*
X154526393Y-110573063D01*
X154553344Y-110558917D01*
X154622956Y-110544970D01*
X154689059Y-110570872D01*
X154730664Y-110628400D01*
X154737900Y-110670484D01*
X154737900Y-111152500D01*
X154717898Y-111220621D01*
X154664242Y-111267114D01*
X154611900Y-111278500D01*
X153662291Y-111278500D01*
X153594170Y-111258498D01*
X153573196Y-111241595D01*
X153070805Y-110739204D01*
X153036779Y-110676892D01*
X153033900Y-110650109D01*
X153033900Y-110086983D01*
X153033899Y-110086979D01*
X153017934Y-110027399D01*
X153009741Y-109996822D01*
X152974111Y-109935108D01*
X152963073Y-109915989D01*
X152963069Y-109915984D01*
X152938415Y-109891330D01*
X152897068Y-109849983D01*
X152444755Y-109397670D01*
X152444753Y-109397669D01*
X152444751Y-109397667D01*
X152363920Y-109351000D01*
X152273761Y-109326841D01*
X152273758Y-109326841D01*
X151223330Y-109326841D01*
X151129988Y-109326841D01*
X151129984Y-109326841D01*
X151039825Y-109351000D01*
X150958994Y-109397667D01*
X150958988Y-109397672D01*
X150850003Y-109506658D01*
X150531332Y-109825329D01*
X150508525Y-109848136D01*
X150465330Y-109891330D01*
X150465326Y-109891335D01*
X150418659Y-109972166D01*
X150394500Y-110062325D01*
X150394500Y-110737372D01*
X150374498Y-110805493D01*
X150320842Y-110851986D01*
X150250568Y-110862090D01*
X150185988Y-110832596D01*
X150184947Y-110831685D01*
X150170185Y-110818607D01*
X150132929Y-110785601D01*
X150132926Y-110785599D01*
X150132925Y-110785598D01*
X149992197Y-110711739D01*
X149992195Y-110711738D01*
X149992193Y-110711737D01*
X149992191Y-110711736D01*
X149992190Y-110711736D01*
X149837872Y-110673700D01*
X149837871Y-110673700D01*
X149747143Y-110673700D01*
X149679022Y-110653698D01*
X149632529Y-110600042D01*
X149622062Y-110532514D01*
X149630307Y-110464605D01*
X149630307Y-110464596D01*
X149611150Y-110306820D01*
X149582114Y-110230260D01*
X149554787Y-110158205D01*
X149464498Y-110027399D01*
X149345529Y-109922001D01*
X149345528Y-109922000D01*
X149345525Y-109921998D01*
X149204797Y-109848139D01*
X149204795Y-109848138D01*
X149204793Y-109848137D01*
X149204791Y-109848136D01*
X149204790Y-109848136D01*
X149050472Y-109810100D01*
X149050471Y-109810100D01*
X148891529Y-109810100D01*
X148891527Y-109810100D01*
X148737209Y-109848136D01*
X148737202Y-109848139D01*
X148596474Y-109921998D01*
X148596469Y-109922002D01*
X148477501Y-110027400D01*
X148387215Y-110158201D01*
X148387212Y-110158207D01*
X148330849Y-110306820D01*
X148311693Y-110464596D01*
X148311693Y-110464603D01*
X148330849Y-110622379D01*
X148367309Y-110718513D01*
X148387213Y-110770995D01*
X148477502Y-110901801D01*
X148596471Y-111007199D01*
X148596472Y-111007199D01*
X148596474Y-111007201D01*
X148623279Y-111021269D01*
X148737207Y-111081063D01*
X148891529Y-111119100D01*
X148891530Y-111119100D01*
X148982257Y-111119100D01*
X149050378Y-111139102D01*
X149096871Y-111192758D01*
X149107338Y-111260286D01*
X149099093Y-111328194D01*
X149099093Y-111328203D01*
X149118249Y-111485979D01*
X149174612Y-111634592D01*
X149174615Y-111634598D01*
X149264900Y-111765399D01*
X149264901Y-111765400D01*
X149264902Y-111765401D01*
X149361455Y-111850940D01*
X149399179Y-111911082D01*
X149403900Y-111945250D01*
X149403900Y-115032474D01*
X149428059Y-115122633D01*
X149474726Y-115203464D01*
X149474728Y-115203466D01*
X149474729Y-115203468D01*
X150844583Y-116573321D01*
X150878607Y-116635632D01*
X150873543Y-116706447D01*
X150830996Y-116763283D01*
X150800179Y-116780223D01*
X150794605Y-116782337D01*
X150653874Y-116856198D01*
X150653869Y-116856202D01*
X150534901Y-116961600D01*
X150444615Y-117092401D01*
X150444612Y-117092407D01*
X150388249Y-117241020D01*
X150369093Y-117398796D01*
X150369093Y-117398803D01*
X150388249Y-117556579D01*
X150409528Y-117612685D01*
X150444613Y-117705195D01*
X150534902Y-117836001D01*
X150653871Y-117941399D01*
X150653872Y-117941399D01*
X150653874Y-117941401D01*
X150708175Y-117969900D01*
X150794607Y-118015263D01*
X150948929Y-118053300D01*
X150948930Y-118053300D01*
X151107867Y-118053300D01*
X151107871Y-118053300D01*
X151107874Y-118053299D01*
X151112664Y-118052717D01*
X151182701Y-118064353D01*
X151216959Y-118088698D01*
X151536132Y-118407871D01*
X151616969Y-118454542D01*
X151616971Y-118454542D01*
X151616972Y-118454543D01*
X151707125Y-118478700D01*
X151707129Y-118478701D01*
X151808190Y-118478701D01*
X151808206Y-118478700D01*
X152533421Y-118478700D01*
X152623582Y-118454541D01*
X152704418Y-118407871D01*
X153180471Y-117931818D01*
X153227141Y-117850982D01*
X153251300Y-117760821D01*
X153251300Y-117667479D01*
X153251300Y-117087579D01*
X153227141Y-116997418D01*
X153180471Y-116916582D01*
X153114468Y-116850579D01*
X152704418Y-116440529D01*
X152704416Y-116440528D01*
X152704414Y-116440526D01*
X152623583Y-116393859D01*
X152533424Y-116369700D01*
X152533421Y-116369700D01*
X152261515Y-116369700D01*
X152193394Y-116349698D01*
X152172420Y-116332795D01*
X150549805Y-114710180D01*
X150515779Y-114647868D01*
X150512900Y-114621085D01*
X150512900Y-112117179D01*
X150532902Y-112049058D01*
X150549800Y-112028088D01*
X151032671Y-111545218D01*
X151079342Y-111464381D01*
X151103501Y-111374221D01*
X151103501Y-111280878D01*
X151103501Y-111273161D01*
X151103500Y-111273143D01*
X151103500Y-111044254D01*
X151123502Y-110976133D01*
X151177158Y-110929640D01*
X151247432Y-110919536D01*
X151288050Y-110932685D01*
X151412124Y-110997804D01*
X151566446Y-111035841D01*
X151566447Y-111035841D01*
X151725384Y-111035841D01*
X151725388Y-111035841D01*
X151725391Y-111035840D01*
X151730181Y-111035258D01*
X151800218Y-111046894D01*
X151834479Y-111071242D01*
X155920195Y-115156958D01*
X155954221Y-115219270D01*
X155957100Y-115246053D01*
X155957100Y-123058874D01*
X155981259Y-123149033D01*
X156027926Y-123229864D01*
X156027928Y-123229866D01*
X156027929Y-123229868D01*
X156398676Y-123600615D01*
X156730341Y-123932279D01*
X156764366Y-123994592D01*
X156759302Y-124065407D01*
X156754042Y-124077527D01*
X156750476Y-124084689D01*
X156750469Y-124084707D01*
X156694454Y-124281580D01*
X156675568Y-124485395D01*
X156675568Y-124485404D01*
X156694454Y-124689219D01*
X156694455Y-124689221D01*
X156750472Y-124886101D01*
X156841712Y-125069335D01*
X156841713Y-125069336D01*
X156965066Y-125232684D01*
X157116336Y-125370585D01*
X157290366Y-125478340D01*
X157290368Y-125478340D01*
X157290373Y-125478344D01*
X157481244Y-125552288D01*
X157682453Y-125589900D01*
X157682455Y-125589900D01*
X157887145Y-125589900D01*
X157887147Y-125589900D01*
X158088356Y-125552288D01*
X158279227Y-125478344D01*
X158453262Y-125370586D01*
X158604532Y-125232685D01*
X158727888Y-125069335D01*
X158819128Y-124886101D01*
X158875145Y-124689221D01*
X158894032Y-124485400D01*
X158887932Y-124419574D01*
X158875145Y-124281580D01*
X158860868Y-124231400D01*
X158819128Y-124084699D01*
X158727888Y-123901465D01*
X158687338Y-123847768D01*
X158604533Y-123738115D01*
X158453263Y-123600214D01*
X158279233Y-123492459D01*
X158279228Y-123492457D01*
X158279227Y-123492456D01*
X158216009Y-123467965D01*
X158088359Y-123418513D01*
X158088360Y-123418513D01*
X158088357Y-123418512D01*
X158088356Y-123418512D01*
X157887147Y-123380900D01*
X157682453Y-123380900D01*
X157481244Y-123418512D01*
X157481242Y-123418512D01*
X157481240Y-123418513D01*
X157368961Y-123462009D01*
X157298215Y-123467965D01*
X157235479Y-123434727D01*
X157234350Y-123433612D01*
X156703004Y-122902265D01*
X156668979Y-122839953D01*
X156666100Y-122813170D01*
X156666100Y-122672720D01*
X156686102Y-122604599D01*
X156739758Y-122558106D01*
X156810032Y-122548002D01*
X156874612Y-122577496D01*
X156892651Y-122596789D01*
X156965067Y-122692685D01*
X157116336Y-122830585D01*
X157290366Y-122938340D01*
X157290368Y-122938340D01*
X157290373Y-122938344D01*
X157481244Y-123012288D01*
X157682453Y-123049900D01*
X157682455Y-123049900D01*
X157887145Y-123049900D01*
X157887147Y-123049900D01*
X158088356Y-123012288D01*
X158279227Y-122938344D01*
X158453262Y-122830586D01*
X158604532Y-122692685D01*
X158727888Y-122529335D01*
X158819128Y-122346101D01*
X158875145Y-122149221D01*
X158894032Y-121945400D01*
X158875145Y-121741579D01*
X158819128Y-121544699D01*
X158727888Y-121361465D01*
X158676949Y-121294011D01*
X158604533Y-121198115D01*
X158453263Y-121060214D01*
X158279233Y-120952459D01*
X158279228Y-120952457D01*
X158279227Y-120952456D01*
X158088359Y-120878513D01*
X158088360Y-120878513D01*
X158088357Y-120878512D01*
X158088356Y-120878512D01*
X157887147Y-120840900D01*
X157682453Y-120840900D01*
X157481244Y-120878512D01*
X157481239Y-120878513D01*
X157290377Y-120952454D01*
X157290366Y-120952459D01*
X157116336Y-121060214D01*
X156965066Y-121198115D01*
X156892650Y-121294011D01*
X156835636Y-121336319D01*
X156764800Y-121341086D01*
X156702631Y-121306800D01*
X156668868Y-121244345D01*
X156666100Y-121218079D01*
X156666100Y-120132720D01*
X156686102Y-120064599D01*
X156739758Y-120018106D01*
X156810032Y-120008002D01*
X156874612Y-120037496D01*
X156892651Y-120056789D01*
X156965067Y-120152685D01*
X157116336Y-120290585D01*
X157290366Y-120398340D01*
X157290368Y-120398340D01*
X157290373Y-120398344D01*
X157481244Y-120472288D01*
X157682453Y-120509900D01*
X157682455Y-120509900D01*
X157887145Y-120509900D01*
X157887147Y-120509900D01*
X158088356Y-120472288D01*
X158279227Y-120398344D01*
X158453262Y-120290586D01*
X158604532Y-120152685D01*
X158727888Y-119989335D01*
X158819128Y-119806101D01*
X158875145Y-119609221D01*
X158894032Y-119405400D01*
X158893783Y-119402717D01*
X158875145Y-119201580D01*
X158875145Y-119201579D01*
X158819128Y-119004699D01*
X158727888Y-118821465D01*
X158676949Y-118754011D01*
X158604533Y-118658115D01*
X158453263Y-118520214D01*
X158279233Y-118412459D01*
X158279228Y-118412457D01*
X158279227Y-118412456D01*
X158088359Y-118338513D01*
X158088360Y-118338513D01*
X158088357Y-118338512D01*
X158088356Y-118338512D01*
X157887147Y-118300900D01*
X157682453Y-118300900D01*
X157481244Y-118338512D01*
X157481239Y-118338513D01*
X157290377Y-118412454D01*
X157290366Y-118412459D01*
X157116336Y-118520214D01*
X156965066Y-118658115D01*
X156892650Y-118754011D01*
X156835636Y-118796319D01*
X156764800Y-118801086D01*
X156702631Y-118766800D01*
X156668868Y-118704345D01*
X156666100Y-118678079D01*
X156666100Y-117592720D01*
X156686102Y-117524599D01*
X156739758Y-117478106D01*
X156810032Y-117468002D01*
X156874612Y-117497496D01*
X156892651Y-117516789D01*
X156965067Y-117612685D01*
X157116336Y-117750585D01*
X157290366Y-117858340D01*
X157290368Y-117858340D01*
X157290373Y-117858344D01*
X157481244Y-117932288D01*
X157682453Y-117969900D01*
X157682455Y-117969900D01*
X157887145Y-117969900D01*
X157887147Y-117969900D01*
X158088356Y-117932288D01*
X158279227Y-117858344D01*
X158453262Y-117750586D01*
X158604532Y-117612685D01*
X158727888Y-117449335D01*
X158819128Y-117266101D01*
X158875145Y-117069221D01*
X158889289Y-116916582D01*
X158894032Y-116865404D01*
X158894032Y-116865395D01*
X158875145Y-116661580D01*
X158850033Y-116573319D01*
X158819128Y-116464699D01*
X158727888Y-116281465D01*
X158676949Y-116214011D01*
X158604533Y-116118115D01*
X158453263Y-115980214D01*
X158279233Y-115872459D01*
X158279228Y-115872457D01*
X158279227Y-115872456D01*
X158088359Y-115798513D01*
X158088360Y-115798513D01*
X158088357Y-115798512D01*
X158088356Y-115798512D01*
X157887147Y-115760900D01*
X157682453Y-115760900D01*
X157481244Y-115798512D01*
X157481239Y-115798513D01*
X157290377Y-115872454D01*
X157290366Y-115872459D01*
X157116336Y-115980214D01*
X156965066Y-116118115D01*
X156892650Y-116214011D01*
X156835636Y-116256319D01*
X156764800Y-116261086D01*
X156702631Y-116226800D01*
X156668868Y-116164345D01*
X156666100Y-116138079D01*
X156666100Y-115052720D01*
X156686102Y-114984599D01*
X156739758Y-114938106D01*
X156810032Y-114928002D01*
X156874612Y-114957496D01*
X156892651Y-114976789D01*
X156965067Y-115072685D01*
X157116336Y-115210585D01*
X157290366Y-115318340D01*
X157290368Y-115318340D01*
X157290373Y-115318344D01*
X157481244Y-115392288D01*
X157682453Y-115429900D01*
X157682455Y-115429900D01*
X157887145Y-115429900D01*
X157887147Y-115429900D01*
X158088356Y-115392288D01*
X158279227Y-115318344D01*
X158453262Y-115210586D01*
X158604532Y-115072685D01*
X158727888Y-114909335D01*
X158819128Y-114726101D01*
X158875145Y-114529221D01*
X158894032Y-114325400D01*
X158875145Y-114121579D01*
X158819128Y-113924699D01*
X158727888Y-113741465D01*
X158687338Y-113687768D01*
X158604533Y-113578115D01*
X158453263Y-113440214D01*
X158279233Y-113332459D01*
X158279228Y-113332457D01*
X158279227Y-113332456D01*
X158088359Y-113258513D01*
X158088360Y-113258513D01*
X158088357Y-113258512D01*
X158088356Y-113258512D01*
X157887147Y-113220900D01*
X157682453Y-113220900D01*
X157581848Y-113239706D01*
X157481242Y-113258512D01*
X157368963Y-113302010D01*
X157298217Y-113307966D01*
X157235481Y-113274729D01*
X157234352Y-113273613D01*
X155955335Y-111994595D01*
X155921309Y-111932283D01*
X155926374Y-111861467D01*
X155968921Y-111804632D01*
X156035441Y-111779821D01*
X156044430Y-111779500D01*
X156086270Y-111779500D01*
X156086271Y-111779500D01*
X156240593Y-111741463D01*
X156381329Y-111667599D01*
X156475372Y-111584283D01*
X156539623Y-111554082D01*
X156610004Y-111563413D01*
X156664168Y-111609313D01*
X156684917Y-111677210D01*
X156684388Y-111690215D01*
X156675569Y-111785395D01*
X156675568Y-111785405D01*
X156694454Y-111989219D01*
X156750471Y-112186098D01*
X156750472Y-112186101D01*
X156841712Y-112369335D01*
X156841713Y-112369336D01*
X156965066Y-112532684D01*
X157116336Y-112670585D01*
X157290366Y-112778340D01*
X157290368Y-112778340D01*
X157290373Y-112778344D01*
X157481244Y-112852288D01*
X157682453Y-112889900D01*
X157682455Y-112889900D01*
X157887145Y-112889900D01*
X157887147Y-112889900D01*
X158088356Y-112852288D01*
X158279227Y-112778344D01*
X158453262Y-112670586D01*
X158604532Y-112532685D01*
X158727888Y-112369335D01*
X158819128Y-112186101D01*
X158875145Y-111989221D01*
X158882386Y-111911082D01*
X158894032Y-111785404D01*
X158894032Y-111785395D01*
X158875145Y-111581580D01*
X158869976Y-111563413D01*
X158819128Y-111384699D01*
X158727888Y-111201465D01*
X158680794Y-111139102D01*
X158604533Y-111038115D01*
X158453263Y-110900214D01*
X158279233Y-110792459D01*
X158279228Y-110792457D01*
X158279227Y-110792456D01*
X158261525Y-110785598D01*
X158088359Y-110718513D01*
X158088360Y-110718513D01*
X158088357Y-110718512D01*
X158088356Y-110718512D01*
X157887147Y-110680900D01*
X157682453Y-110680900D01*
X157517488Y-110711737D01*
X157481239Y-110718513D01*
X157290377Y-110792454D01*
X157290366Y-110792459D01*
X157116336Y-110900214D01*
X156965066Y-111038115D01*
X156886453Y-111142217D01*
X156829439Y-111184525D01*
X156758603Y-111189292D01*
X156696434Y-111155005D01*
X156662671Y-111092551D01*
X156660822Y-111081472D01*
X156646950Y-110967220D01*
X156622139Y-110901801D01*
X156590587Y-110818605D01*
X156500298Y-110687799D01*
X156381329Y-110582401D01*
X156381328Y-110582400D01*
X156381325Y-110582398D01*
X156240597Y-110508539D01*
X156240595Y-110508538D01*
X156240593Y-110508537D01*
X156240591Y-110508536D01*
X156240590Y-110508536D01*
X156086272Y-110470500D01*
X156086271Y-110470500D01*
X155927329Y-110470500D01*
X155927327Y-110470500D01*
X155773009Y-110508536D01*
X155773002Y-110508539D01*
X155631455Y-110582829D01*
X155561842Y-110596776D01*
X155495739Y-110570872D01*
X155454135Y-110513344D01*
X155446900Y-110471262D01*
X155446900Y-110003229D01*
X155466902Y-109935108D01*
X155483800Y-109914138D01*
X155818471Y-109579468D01*
X155865141Y-109498632D01*
X155889300Y-109408471D01*
X155889300Y-109315129D01*
X155889300Y-109245404D01*
X156675568Y-109245404D01*
X156694454Y-109449219D01*
X156741282Y-109613803D01*
X156750472Y-109646101D01*
X156841712Y-109829335D01*
X156841713Y-109829336D01*
X156965066Y-109992684D01*
X157116336Y-110130585D01*
X157290366Y-110238340D01*
X157290368Y-110238340D01*
X157290373Y-110238344D01*
X157481244Y-110312288D01*
X157682453Y-110349900D01*
X157682455Y-110349900D01*
X157887145Y-110349900D01*
X157887147Y-110349900D01*
X158088356Y-110312288D01*
X158279227Y-110238344D01*
X158453262Y-110130586D01*
X158604532Y-109992685D01*
X158727888Y-109829335D01*
X158819128Y-109646101D01*
X158875145Y-109449221D01*
X158888286Y-109307407D01*
X158894032Y-109245404D01*
X158894032Y-109245395D01*
X158875145Y-109041580D01*
X158872111Y-109030916D01*
X158819128Y-108844699D01*
X158727888Y-108661465D01*
X158687338Y-108607768D01*
X158604533Y-108498115D01*
X158453263Y-108360214D01*
X158279233Y-108252459D01*
X158279228Y-108252457D01*
X158279227Y-108252456D01*
X158088359Y-108178513D01*
X158088360Y-108178513D01*
X158088357Y-108178512D01*
X158088356Y-108178512D01*
X157887147Y-108140900D01*
X157682453Y-108140900D01*
X157481244Y-108178512D01*
X157481239Y-108178513D01*
X157290377Y-108252454D01*
X157290366Y-108252459D01*
X157116336Y-108360214D01*
X156965066Y-108498115D01*
X156841713Y-108661463D01*
X156750471Y-108844701D01*
X156694454Y-109041580D01*
X156675568Y-109245395D01*
X156675568Y-109245404D01*
X155889300Y-109245404D01*
X155889300Y-107939850D01*
X155909302Y-107871729D01*
X155931741Y-107845542D01*
X156028298Y-107760001D01*
X156118587Y-107629195D01*
X156174949Y-107480582D01*
X156174949Y-107480581D01*
X156174950Y-107480579D01*
X156194107Y-107322803D01*
X156194107Y-107322796D01*
X156174950Y-107165020D01*
X156161338Y-107129131D01*
X156118587Y-107016405D01*
X156028298Y-106885599D01*
X155909329Y-106780201D01*
X155909328Y-106780200D01*
X155909325Y-106780198D01*
X155768597Y-106706339D01*
X155768595Y-106706338D01*
X155768593Y-106706337D01*
X155768591Y-106706336D01*
X155768590Y-106706336D01*
X155764809Y-106705404D01*
X156675568Y-106705404D01*
X156694454Y-106909219D01*
X156694455Y-106909221D01*
X156750472Y-107106101D01*
X156841712Y-107289335D01*
X156841713Y-107289336D01*
X156965066Y-107452684D01*
X157116336Y-107590585D01*
X157290366Y-107698340D01*
X157290368Y-107698340D01*
X157290373Y-107698344D01*
X157481244Y-107772288D01*
X157682453Y-107809900D01*
X157682455Y-107809900D01*
X157887145Y-107809900D01*
X157887147Y-107809900D01*
X158088356Y-107772288D01*
X158279227Y-107698344D01*
X158453262Y-107590586D01*
X158604532Y-107452685D01*
X158727888Y-107289335D01*
X158819128Y-107106101D01*
X158875145Y-106909221D01*
X158881440Y-106841280D01*
X158894032Y-106705404D01*
X158894032Y-106705395D01*
X158875145Y-106501580D01*
X158875145Y-106501579D01*
X158819128Y-106304699D01*
X158727888Y-106121465D01*
X158687338Y-106067768D01*
X158604533Y-105958115D01*
X158453263Y-105820214D01*
X158279233Y-105712459D01*
X158279228Y-105712457D01*
X158279227Y-105712456D01*
X158279222Y-105712454D01*
X158088359Y-105638513D01*
X158088360Y-105638513D01*
X158088357Y-105638512D01*
X158088356Y-105638512D01*
X157887147Y-105600900D01*
X157682453Y-105600900D01*
X157481244Y-105638512D01*
X157481239Y-105638513D01*
X157290377Y-105712454D01*
X157290366Y-105712459D01*
X157116336Y-105820214D01*
X156965066Y-105958115D01*
X156841713Y-106121463D01*
X156750471Y-106304701D01*
X156694454Y-106501580D01*
X156675568Y-106705395D01*
X156675568Y-106705404D01*
X155764809Y-106705404D01*
X155614272Y-106668300D01*
X155614271Y-106668300D01*
X155455329Y-106668300D01*
X155455327Y-106668300D01*
X155301009Y-106706336D01*
X155301002Y-106706339D01*
X155160274Y-106780198D01*
X155160269Y-106780202D01*
X155041301Y-106885600D01*
X154951015Y-107016401D01*
X154951012Y-107016407D01*
X154891948Y-107172145D01*
X154889883Y-107171361D01*
X154859714Y-107223176D01*
X154796491Y-107255477D01*
X154725841Y-107248469D01*
X154670196Y-107204377D01*
X154647222Y-107137200D01*
X154647100Y-107131667D01*
X154647100Y-104165404D01*
X156675568Y-104165404D01*
X156694454Y-104369219D01*
X156732584Y-104503232D01*
X156750472Y-104566101D01*
X156841712Y-104749335D01*
X156841713Y-104749336D01*
X156965066Y-104912684D01*
X157116336Y-105050585D01*
X157290366Y-105158340D01*
X157290368Y-105158340D01*
X157290373Y-105158344D01*
X157481244Y-105232288D01*
X157682453Y-105269900D01*
X157682455Y-105269900D01*
X157887145Y-105269900D01*
X157887147Y-105269900D01*
X158088356Y-105232288D01*
X158279227Y-105158344D01*
X158453262Y-105050586D01*
X158604532Y-104912685D01*
X158727888Y-104749335D01*
X158819128Y-104566101D01*
X158875145Y-104369221D01*
X158894032Y-104165400D01*
X158891217Y-104135023D01*
X158875145Y-103961580D01*
X158870533Y-103945371D01*
X158819128Y-103764699D01*
X158727888Y-103581465D01*
X158666275Y-103499876D01*
X158604533Y-103418115D01*
X158453263Y-103280214D01*
X158279233Y-103172459D01*
X158279228Y-103172457D01*
X158279227Y-103172456D01*
X158088359Y-103098513D01*
X158088360Y-103098513D01*
X158088357Y-103098512D01*
X158088356Y-103098512D01*
X157887147Y-103060900D01*
X157682453Y-103060900D01*
X157481244Y-103098512D01*
X157481239Y-103098513D01*
X157290377Y-103172454D01*
X157290366Y-103172459D01*
X157116336Y-103280214D01*
X156965066Y-103418115D01*
X156841713Y-103581463D01*
X156750471Y-103764701D01*
X156694454Y-103961580D01*
X156675568Y-104165395D01*
X156675568Y-104165404D01*
X154647100Y-104165404D01*
X154647100Y-102252129D01*
X154647099Y-102252125D01*
X154622940Y-102161966D01*
X154576273Y-102081135D01*
X154576269Y-102081130D01*
X154510268Y-102015129D01*
X152240405Y-99745266D01*
X152206379Y-99682954D01*
X152203500Y-99656171D01*
X152203500Y-97261643D01*
X152203499Y-97261639D01*
X152179340Y-97171480D01*
X152132673Y-97090649D01*
X152132669Y-97090644D01*
X152066668Y-97024643D01*
X151724205Y-96682180D01*
X151690179Y-96619868D01*
X151687300Y-96593085D01*
X151687300Y-95834000D01*
X153199144Y-95834000D01*
X153200612Y-95843268D01*
X153200612Y-95843269D01*
X153257272Y-95954470D01*
X153257275Y-95954475D01*
X153345526Y-96042726D01*
X153456728Y-96099385D01*
X153456733Y-96099387D01*
X153495999Y-96105606D01*
X153496000Y-96105606D01*
X153496000Y-95834000D01*
X154004000Y-95834000D01*
X154004000Y-96105606D01*
X154043266Y-96099387D01*
X154043271Y-96099385D01*
X154154473Y-96042726D01*
X154242724Y-95954475D01*
X154242727Y-95954470D01*
X154299387Y-95843269D01*
X154299387Y-95843268D01*
X154300855Y-95834000D01*
X154004000Y-95834000D01*
X153496000Y-95834000D01*
X153199144Y-95834000D01*
X151687300Y-95834000D01*
X151687300Y-95536850D01*
X151707302Y-95468729D01*
X151729741Y-95442542D01*
X151826298Y-95357001D01*
X151916587Y-95226195D01*
X151972949Y-95077582D01*
X151972949Y-95077581D01*
X151972950Y-95077579D01*
X151985264Y-94976161D01*
X151992107Y-94919800D01*
X151992107Y-94919796D01*
X151992403Y-94917358D01*
X152020469Y-94852145D01*
X152079337Y-94812458D01*
X152150317Y-94810898D01*
X152210872Y-94847960D01*
X152235295Y-94887863D01*
X152248009Y-94921387D01*
X152248012Y-94921392D01*
X152248013Y-94921395D01*
X152338302Y-95052201D01*
X152457271Y-95157599D01*
X152457272Y-95157599D01*
X152457274Y-95157601D01*
X152517954Y-95189448D01*
X152598007Y-95231463D01*
X152752329Y-95269500D01*
X152752330Y-95269500D01*
X152911270Y-95269500D01*
X152911271Y-95269500D01*
X153035857Y-95238792D01*
X153106785Y-95241911D01*
X153164768Y-95282881D01*
X153166973Y-95288331D01*
X153199146Y-95326000D01*
X154300854Y-95326000D01*
X154300855Y-95325999D01*
X154299387Y-95316731D01*
X154299387Y-95316730D01*
X154242727Y-95205529D01*
X154242724Y-95205524D01*
X154226648Y-95189448D01*
X154192622Y-95127136D01*
X154197687Y-95056321D01*
X154226647Y-95011258D01*
X154243135Y-94994771D01*
X154299868Y-94883427D01*
X154314500Y-94791045D01*
X154314499Y-94448956D01*
X154299868Y-94356573D01*
X154253362Y-94265300D01*
X154243135Y-94245228D01*
X154191405Y-94193498D01*
X154157379Y-94131186D01*
X154154500Y-94104403D01*
X154154500Y-93735500D01*
X154174502Y-93667379D01*
X154228158Y-93620886D01*
X154280500Y-93609500D01*
X154431832Y-93609500D01*
X154431834Y-93609500D01*
X154526555Y-93594498D01*
X154640723Y-93536326D01*
X154731326Y-93445723D01*
X154789498Y-93331555D01*
X154804500Y-93236834D01*
X154804500Y-92873166D01*
X154789498Y-92778445D01*
X154749783Y-92700500D01*
X154731326Y-92664276D01*
X154640723Y-92573673D01*
X154584677Y-92545117D01*
X154559455Y-92532266D01*
X154507842Y-92483519D01*
X154490776Y-92414604D01*
X154513677Y-92347402D01*
X154559455Y-92307734D01*
X154640723Y-92266326D01*
X154731326Y-92175723D01*
X154789498Y-92061555D01*
X154804500Y-91966834D01*
X154804500Y-91603166D01*
X154789498Y-91508445D01*
X154731374Y-91394371D01*
X154731326Y-91394276D01*
X154640723Y-91303673D01*
X154584677Y-91275117D01*
X154559455Y-91262266D01*
X154507842Y-91213519D01*
X154490776Y-91144604D01*
X154513677Y-91077402D01*
X154559455Y-91037734D01*
X154640723Y-90996326D01*
X154640725Y-90996324D01*
X154730645Y-90906405D01*
X154792957Y-90872379D01*
X154819740Y-90869500D01*
X154958970Y-90869500D01*
X155027091Y-90889502D01*
X155048065Y-90906404D01*
X155570995Y-91429333D01*
X155605020Y-91491646D01*
X155607900Y-91518429D01*
X155607900Y-99849674D01*
X155632059Y-99939833D01*
X155678726Y-100020664D01*
X155678734Y-100020674D01*
X156730341Y-101072280D01*
X156764366Y-101134592D01*
X156759302Y-101205407D01*
X156754040Y-101217531D01*
X156750474Y-101224692D01*
X156750471Y-101224701D01*
X156694454Y-101421580D01*
X156675568Y-101625395D01*
X156675568Y-101625404D01*
X156694454Y-101829219D01*
X156694455Y-101829221D01*
X156750472Y-102026101D01*
X156841712Y-102209335D01*
X156841713Y-102209336D01*
X156965066Y-102372684D01*
X157116336Y-102510585D01*
X157290366Y-102618340D01*
X157290368Y-102618340D01*
X157290373Y-102618344D01*
X157481244Y-102692288D01*
X157682453Y-102729900D01*
X157682455Y-102729900D01*
X157887145Y-102729900D01*
X157887147Y-102729900D01*
X158088356Y-102692288D01*
X158279227Y-102618344D01*
X158453262Y-102510586D01*
X158604532Y-102372685D01*
X158727888Y-102209335D01*
X158819128Y-102026101D01*
X158875145Y-101829221D01*
X158894032Y-101625400D01*
X158875145Y-101421579D01*
X158819128Y-101224699D01*
X158727888Y-101041465D01*
X158687338Y-100987768D01*
X158604533Y-100878115D01*
X158453263Y-100740214D01*
X158279233Y-100632459D01*
X158279228Y-100632457D01*
X158279227Y-100632456D01*
X158127336Y-100573613D01*
X158088359Y-100558513D01*
X158088360Y-100558513D01*
X158088357Y-100558512D01*
X158088356Y-100558512D01*
X157887147Y-100520900D01*
X157682453Y-100520900D01*
X157581848Y-100539706D01*
X157481242Y-100558512D01*
X157368963Y-100602010D01*
X157298217Y-100607966D01*
X157235481Y-100574729D01*
X157234352Y-100573613D01*
X156353805Y-99693066D01*
X156319779Y-99630754D01*
X156316900Y-99603971D01*
X156316900Y-99085404D01*
X156675568Y-99085404D01*
X156694454Y-99289219D01*
X156738701Y-99444730D01*
X156750472Y-99486101D01*
X156841712Y-99669335D01*
X156841713Y-99669336D01*
X156965066Y-99832684D01*
X157116336Y-99970585D01*
X157290366Y-100078340D01*
X157290368Y-100078340D01*
X157290373Y-100078344D01*
X157481244Y-100152288D01*
X157682453Y-100189900D01*
X157682455Y-100189900D01*
X157887145Y-100189900D01*
X157887147Y-100189900D01*
X158088356Y-100152288D01*
X158279227Y-100078344D01*
X158453262Y-99970586D01*
X158604532Y-99832685D01*
X158727888Y-99669335D01*
X158819128Y-99486101D01*
X158875145Y-99289221D01*
X158894032Y-99085400D01*
X158889324Y-99034596D01*
X158875145Y-98881580D01*
X158831505Y-98728201D01*
X158819128Y-98684699D01*
X158727888Y-98501465D01*
X158658485Y-98409560D01*
X158604533Y-98338115D01*
X158453263Y-98200214D01*
X158279233Y-98092459D01*
X158279228Y-98092457D01*
X158279227Y-98092456D01*
X158088359Y-98018513D01*
X158088360Y-98018513D01*
X158088357Y-98018512D01*
X158088356Y-98018512D01*
X157887147Y-97980900D01*
X157682453Y-97980900D01*
X157481244Y-98018512D01*
X157481239Y-98018513D01*
X157290377Y-98092454D01*
X157290366Y-98092459D01*
X157116336Y-98200214D01*
X156965066Y-98338115D01*
X156841713Y-98501463D01*
X156750471Y-98684701D01*
X156694454Y-98881580D01*
X156675568Y-99085395D01*
X156675568Y-99085404D01*
X156316900Y-99085404D01*
X156316900Y-95883028D01*
X156336902Y-95814907D01*
X156390558Y-95768414D01*
X156460832Y-95758310D01*
X156525412Y-95787804D01*
X156531995Y-95793933D01*
X156730342Y-95992280D01*
X156764368Y-96054592D01*
X156759303Y-96125407D01*
X156754039Y-96137534D01*
X156750476Y-96144688D01*
X156750469Y-96144707D01*
X156694454Y-96341580D01*
X156675568Y-96545395D01*
X156675568Y-96545404D01*
X156694454Y-96749219D01*
X156694455Y-96749221D01*
X156750472Y-96946101D01*
X156841712Y-97129335D01*
X156841713Y-97129336D01*
X156965066Y-97292684D01*
X157116336Y-97430585D01*
X157290366Y-97538340D01*
X157290368Y-97538340D01*
X157290373Y-97538344D01*
X157481244Y-97612288D01*
X157682453Y-97649900D01*
X157682455Y-97649900D01*
X157887145Y-97649900D01*
X157887147Y-97649900D01*
X158088356Y-97612288D01*
X158279227Y-97538344D01*
X158453262Y-97430586D01*
X158604532Y-97292685D01*
X158727888Y-97129335D01*
X158819128Y-96946101D01*
X158875145Y-96749221D01*
X158886119Y-96630797D01*
X158894032Y-96545404D01*
X158894032Y-96545395D01*
X158875145Y-96341580D01*
X158869713Y-96322489D01*
X158819128Y-96144699D01*
X158727888Y-95961465D01*
X158638630Y-95843268D01*
X158604533Y-95798115D01*
X158453263Y-95660214D01*
X158279233Y-95552459D01*
X158279228Y-95552457D01*
X158279227Y-95552456D01*
X158261525Y-95545598D01*
X158088359Y-95478513D01*
X158088360Y-95478513D01*
X158088357Y-95478512D01*
X158088356Y-95478512D01*
X157887147Y-95440900D01*
X157682453Y-95440900D01*
X157481244Y-95478512D01*
X157481242Y-95478512D01*
X157481240Y-95478513D01*
X157368961Y-95522009D01*
X157298215Y-95527965D01*
X157235479Y-95494727D01*
X157234350Y-95493612D01*
X156753804Y-95013065D01*
X156719779Y-94950753D01*
X156716900Y-94923970D01*
X156716900Y-94799990D01*
X156736902Y-94731869D01*
X156790558Y-94685376D01*
X156860832Y-94675272D01*
X156925412Y-94704766D01*
X156943451Y-94724060D01*
X156965065Y-94752683D01*
X157116336Y-94890585D01*
X157290366Y-94998340D01*
X157290368Y-94998340D01*
X157290373Y-94998344D01*
X157481244Y-95072288D01*
X157682453Y-95109900D01*
X157682455Y-95109900D01*
X157887145Y-95109900D01*
X157887147Y-95109900D01*
X158088356Y-95072288D01*
X158279227Y-94998344D01*
X158453262Y-94890586D01*
X158604532Y-94752685D01*
X158620252Y-94731869D01*
X158640719Y-94704766D01*
X158727888Y-94589335D01*
X158819128Y-94406101D01*
X158875145Y-94209221D01*
X158887823Y-94072402D01*
X158894032Y-94005404D01*
X158894032Y-94005395D01*
X158875145Y-93801580D01*
X158856344Y-93735500D01*
X158819128Y-93604699D01*
X158727888Y-93421465D01*
X158687338Y-93367768D01*
X158604533Y-93258115D01*
X158453263Y-93120214D01*
X158279233Y-93012459D01*
X158279228Y-93012457D01*
X158279227Y-93012456D01*
X158279222Y-93012454D01*
X158088359Y-92938513D01*
X158088360Y-92938513D01*
X158088357Y-92938512D01*
X158088356Y-92938512D01*
X157887147Y-92900900D01*
X157682453Y-92900900D01*
X157481244Y-92938512D01*
X157481239Y-92938513D01*
X157290377Y-93012454D01*
X157290366Y-93012459D01*
X157116336Y-93120214D01*
X156965066Y-93258115D01*
X156943450Y-93286741D01*
X156886437Y-93329048D01*
X156815600Y-93333816D01*
X156753431Y-93299530D01*
X156719668Y-93237075D01*
X156716900Y-93210809D01*
X156716900Y-92259990D01*
X156736902Y-92191869D01*
X156790558Y-92145376D01*
X156860832Y-92135272D01*
X156925412Y-92164766D01*
X156943451Y-92184060D01*
X156965065Y-92212683D01*
X157116336Y-92350585D01*
X157290366Y-92458340D01*
X157290368Y-92458340D01*
X157290373Y-92458344D01*
X157481244Y-92532288D01*
X157682453Y-92569900D01*
X157682455Y-92569900D01*
X157887145Y-92569900D01*
X157887147Y-92569900D01*
X158088356Y-92532288D01*
X158279227Y-92458344D01*
X158453262Y-92350586D01*
X158604532Y-92212685D01*
X158613479Y-92200838D01*
X158655361Y-92145376D01*
X158727888Y-92049335D01*
X158819128Y-91866101D01*
X158875145Y-91669221D01*
X158890043Y-91508446D01*
X158894032Y-91465404D01*
X158894032Y-91465395D01*
X158875145Y-91261580D01*
X158875145Y-91261579D01*
X158819128Y-91064699D01*
X158727888Y-90881465D01*
X158662041Y-90794269D01*
X158604533Y-90718115D01*
X158453263Y-90580214D01*
X158279233Y-90472459D01*
X158279228Y-90472457D01*
X158279227Y-90472456D01*
X158088359Y-90398513D01*
X158088360Y-90398513D01*
X158088357Y-90398512D01*
X158088356Y-90398512D01*
X157887147Y-90360900D01*
X157682453Y-90360900D01*
X157481244Y-90398512D01*
X157481239Y-90398513D01*
X157290377Y-90472454D01*
X157290366Y-90472459D01*
X157116336Y-90580214D01*
X156965068Y-90718114D01*
X156943105Y-90747197D01*
X156886090Y-90789503D01*
X156815253Y-90794269D01*
X156753085Y-90759982D01*
X156719324Y-90697526D01*
X156717633Y-90687703D01*
X156716900Y-90682136D01*
X156716900Y-90682129D01*
X156692741Y-90591968D01*
X156646071Y-90511132D01*
X156580068Y-90445129D01*
X155841428Y-89706489D01*
X155096274Y-88961334D01*
X155096264Y-88961326D01*
X155034044Y-88925404D01*
X156675568Y-88925404D01*
X156694454Y-89129219D01*
X156694455Y-89129221D01*
X156750472Y-89326101D01*
X156841712Y-89509335D01*
X156841713Y-89509336D01*
X156965066Y-89672684D01*
X157116336Y-89810585D01*
X157290366Y-89918340D01*
X157290368Y-89918340D01*
X157290373Y-89918344D01*
X157481244Y-89992288D01*
X157682453Y-90029900D01*
X157682455Y-90029900D01*
X157887145Y-90029900D01*
X157887147Y-90029900D01*
X158088356Y-89992288D01*
X158279227Y-89918344D01*
X158453262Y-89810586D01*
X158604532Y-89672685D01*
X158727888Y-89509335D01*
X158819128Y-89326101D01*
X158875145Y-89129221D01*
X158887953Y-88990999D01*
X158894032Y-88925404D01*
X158894032Y-88925395D01*
X158875145Y-88721580D01*
X158870708Y-88705984D01*
X158819128Y-88524699D01*
X158727888Y-88341465D01*
X158674222Y-88270399D01*
X158604533Y-88178115D01*
X158453263Y-88040214D01*
X158279233Y-87932459D01*
X158279228Y-87932457D01*
X158279227Y-87932456D01*
X158279222Y-87932454D01*
X158088359Y-87858513D01*
X158088360Y-87858513D01*
X158088357Y-87858512D01*
X158088356Y-87858512D01*
X157887147Y-87820900D01*
X157682453Y-87820900D01*
X157511234Y-87852906D01*
X157481239Y-87858513D01*
X157290377Y-87932454D01*
X157290366Y-87932459D01*
X157116336Y-88040214D01*
X156965066Y-88178115D01*
X156841713Y-88341463D01*
X156750471Y-88524701D01*
X156694454Y-88721580D01*
X156675568Y-88925395D01*
X156675568Y-88925404D01*
X155034044Y-88925404D01*
X155015433Y-88914659D01*
X154925274Y-88890500D01*
X154925271Y-88890500D01*
X154819740Y-88890500D01*
X154751619Y-88870498D01*
X154730645Y-88853595D01*
X154640723Y-88763673D01*
X154526553Y-88705501D01*
X154461836Y-88695251D01*
X154431834Y-88690500D01*
X153068166Y-88690500D01*
X153042266Y-88694602D01*
X152973446Y-88705501D01*
X152859276Y-88763673D01*
X152768673Y-88854276D01*
X152710501Y-88968446D01*
X152695500Y-89063167D01*
X152695500Y-89426832D01*
X152710501Y-89521553D01*
X152768673Y-89635723D01*
X152859274Y-89726324D01*
X152859277Y-89726326D01*
X152940542Y-89767733D01*
X152992157Y-89816482D01*
X153009223Y-89885396D01*
X152986322Y-89952598D01*
X152940542Y-89992267D01*
X152859277Y-90033673D01*
X152859274Y-90033675D01*
X152768673Y-90124276D01*
X152710501Y-90238446D01*
X152695500Y-90333167D01*
X152695500Y-90696832D01*
X152710501Y-90791553D01*
X152768673Y-90905723D01*
X152859274Y-90996324D01*
X152859277Y-90996326D01*
X152940542Y-91037733D01*
X152992157Y-91086482D01*
X153009223Y-91155396D01*
X152986322Y-91222598D01*
X152940542Y-91262267D01*
X152859277Y-91303673D01*
X152859274Y-91303675D01*
X152768673Y-91394276D01*
X152710501Y-91508446D01*
X152695500Y-91603167D01*
X152695500Y-91966832D01*
X152710501Y-92061553D01*
X152768673Y-92175723D01*
X152859274Y-92266324D01*
X152859277Y-92266326D01*
X152940542Y-92307733D01*
X152992157Y-92356482D01*
X153009223Y-92425396D01*
X152986322Y-92492598D01*
X152940542Y-92532267D01*
X152859277Y-92573673D01*
X152859274Y-92573675D01*
X152768673Y-92664276D01*
X152710501Y-92778446D01*
X152695500Y-92873167D01*
X152695500Y-93236832D01*
X152710501Y-93331553D01*
X152768673Y-93445723D01*
X152859276Y-93536326D01*
X152916361Y-93565412D01*
X152973445Y-93594498D01*
X153068166Y-93609500D01*
X153219500Y-93609500D01*
X153287621Y-93629502D01*
X153334114Y-93683158D01*
X153345500Y-93735500D01*
X153345500Y-93937013D01*
X153325498Y-94005134D01*
X153271842Y-94051627D01*
X153201568Y-94061731D01*
X153160946Y-94048581D01*
X153065595Y-93998538D01*
X153065590Y-93998536D01*
X152911272Y-93960500D01*
X152911271Y-93960500D01*
X152752329Y-93960500D01*
X152752327Y-93960500D01*
X152598009Y-93998536D01*
X152598002Y-93998539D01*
X152457274Y-94072398D01*
X152457269Y-94072402D01*
X152338301Y-94177800D01*
X152248015Y-94308601D01*
X152248012Y-94308607D01*
X152191649Y-94457220D01*
X152172196Y-94617441D01*
X152144129Y-94682654D01*
X152085261Y-94722341D01*
X152014281Y-94723901D01*
X151953726Y-94686839D01*
X151929303Y-94646935D01*
X151916587Y-94613405D01*
X151826298Y-94482599D01*
X151707329Y-94377201D01*
X151707328Y-94377200D01*
X151707325Y-94377198D01*
X151566597Y-94303339D01*
X151566595Y-94303338D01*
X151566593Y-94303337D01*
X151566591Y-94303336D01*
X151566590Y-94303336D01*
X151412272Y-94265300D01*
X151412271Y-94265300D01*
X151253329Y-94265300D01*
X151253327Y-94265300D01*
X151099009Y-94303336D01*
X151099002Y-94303339D01*
X150958274Y-94377198D01*
X150958269Y-94377202D01*
X150839301Y-94482600D01*
X150749015Y-94613401D01*
X150749012Y-94613407D01*
X150692649Y-94762020D01*
X150673493Y-94919796D01*
X150673493Y-94919803D01*
X150692649Y-95077579D01*
X150749012Y-95226192D01*
X150749015Y-95226198D01*
X150839300Y-95356999D01*
X150839301Y-95357000D01*
X150839302Y-95357001D01*
X150935855Y-95442540D01*
X150973579Y-95502682D01*
X150978300Y-95536850D01*
X150978300Y-96197771D01*
X150958298Y-96265892D01*
X150904642Y-96312385D01*
X150834368Y-96322489D01*
X150769788Y-96292995D01*
X150763205Y-96286866D01*
X150748783Y-96272444D01*
X150714757Y-96210132D01*
X150712797Y-96168166D01*
X150722507Y-96088200D01*
X150718644Y-96056385D01*
X150703350Y-95930420D01*
X150659541Y-95814907D01*
X150646987Y-95781805D01*
X150556698Y-95650999D01*
X150437729Y-95545601D01*
X150437728Y-95545600D01*
X150437725Y-95545598D01*
X150296997Y-95471739D01*
X150296995Y-95471738D01*
X150296993Y-95471737D01*
X150296991Y-95471736D01*
X150296990Y-95471736D01*
X150142672Y-95433700D01*
X150142671Y-95433700D01*
X149983729Y-95433700D01*
X149983727Y-95433700D01*
X149829409Y-95471736D01*
X149829402Y-95471739D01*
X149688674Y-95545598D01*
X149688669Y-95545602D01*
X149569701Y-95651000D01*
X149479415Y-95781801D01*
X149479412Y-95781807D01*
X149423049Y-95930420D01*
X149403893Y-96088196D01*
X149403893Y-96088203D01*
X149423049Y-96245979D01*
X149459306Y-96341579D01*
X149479413Y-96394595D01*
X149569702Y-96525401D01*
X149688671Y-96630799D01*
X149688672Y-96630799D01*
X149688674Y-96630801D01*
X149763400Y-96670020D01*
X149829407Y-96704663D01*
X149983729Y-96742700D01*
X149983730Y-96742700D01*
X150142667Y-96742700D01*
X150142671Y-96742700D01*
X150142674Y-96742699D01*
X150147464Y-96742117D01*
X150217501Y-96753753D01*
X150251762Y-96778101D01*
X151057595Y-97583934D01*
X151091621Y-97646246D01*
X151094500Y-97673029D01*
X151094500Y-98284842D01*
X151074498Y-98352963D01*
X151020842Y-98399456D01*
X150950568Y-98409560D01*
X150938347Y-98407181D01*
X150828474Y-98380100D01*
X150828471Y-98380100D01*
X150669529Y-98380100D01*
X150669527Y-98380100D01*
X150515209Y-98418136D01*
X150515202Y-98418139D01*
X150374474Y-98491998D01*
X150374469Y-98492002D01*
X150255501Y-98597400D01*
X150165215Y-98728201D01*
X150165212Y-98728207D01*
X150108849Y-98876820D01*
X150089693Y-99034596D01*
X150089693Y-99034603D01*
X150108849Y-99192379D01*
X150157447Y-99320519D01*
X150165213Y-99340995D01*
X150255502Y-99471801D01*
X150374471Y-99577199D01*
X150374472Y-99577199D01*
X150374474Y-99577201D01*
X150449200Y-99616420D01*
X150515207Y-99651063D01*
X150669529Y-99689100D01*
X150669530Y-99689100D01*
X150828470Y-99689100D01*
X150828471Y-99689100D01*
X150938346Y-99662018D01*
X151009274Y-99665137D01*
X151067257Y-99706107D01*
X151093885Y-99771920D01*
X151094500Y-99784357D01*
X151094500Y-99888171D01*
X151074498Y-99956292D01*
X151057595Y-99977266D01*
X146451523Y-104583338D01*
X146389211Y-104617364D01*
X146318396Y-104612299D01*
X146261560Y-104569752D01*
X146236749Y-104503232D01*
X146236428Y-104494243D01*
X146236428Y-103945371D01*
X146236429Y-103945358D01*
X146236429Y-103835284D01*
X146236428Y-103835280D01*
X146214860Y-103754788D01*
X146210566Y-103738765D01*
X146210566Y-103738764D01*
X146161370Y-103653554D01*
X146160606Y-103652230D01*
X146160602Y-103652225D01*
X146089947Y-103581570D01*
X146089946Y-103581569D01*
X146008253Y-103499876D01*
X145974227Y-103437564D01*
X145972267Y-103395593D01*
X145978148Y-103347161D01*
X145978148Y-103347156D01*
X145958991Y-103189379D01*
X145945379Y-103153490D01*
X145902628Y-103040764D01*
X145812339Y-102909958D01*
X145693370Y-102804560D01*
X145693369Y-102804559D01*
X145693366Y-102804557D01*
X145552638Y-102730698D01*
X145552636Y-102730697D01*
X145552634Y-102730696D01*
X145552632Y-102730695D01*
X145552631Y-102730695D01*
X145398313Y-102692659D01*
X145398312Y-102692659D01*
X145239370Y-102692659D01*
X145239368Y-102692659D01*
X145085050Y-102730695D01*
X145085043Y-102730698D01*
X144944315Y-102804557D01*
X144944310Y-102804561D01*
X144825342Y-102909959D01*
X144735056Y-103040760D01*
X144735053Y-103040766D01*
X144678690Y-103189379D01*
X144659534Y-103347155D01*
X144659534Y-103347162D01*
X144678690Y-103504938D01*
X144735053Y-103653551D01*
X144735056Y-103653557D01*
X144785351Y-103726421D01*
X144807587Y-103793845D01*
X144789840Y-103862588D01*
X144761917Y-103892423D01*
X144763104Y-103893763D01*
X144757399Y-103898816D01*
X144757399Y-103898817D01*
X144704851Y-103945371D01*
X144638429Y-104004216D01*
X144548143Y-104135017D01*
X144548140Y-104135023D01*
X144491777Y-104283636D01*
X144472621Y-104441413D01*
X144472621Y-104441415D01*
X144475441Y-104464645D01*
X144463794Y-104534679D01*
X144416132Y-104587300D01*
X144380514Y-104602167D01*
X144295657Y-104623083D01*
X144295644Y-104623088D01*
X144154916Y-104696947D01*
X144154911Y-104696951D01*
X144035943Y-104802349D01*
X143945657Y-104933150D01*
X143945654Y-104933156D01*
X143889291Y-105081769D01*
X143870135Y-105239545D01*
X143870135Y-105239552D01*
X142784097Y-105239552D01*
X142822956Y-105232288D01*
X143013827Y-105158344D01*
X143187862Y-105050586D01*
X143339132Y-104912685D01*
X143462488Y-104749335D01*
X143553728Y-104566101D01*
X143609745Y-104369221D01*
X143628632Y-104165400D01*
X143625817Y-104135023D01*
X143609745Y-103961580D01*
X143605133Y-103945371D01*
X143553728Y-103764699D01*
X143462488Y-103581465D01*
X143400875Y-103499876D01*
X143339133Y-103418115D01*
X143187863Y-103280214D01*
X143013833Y-103172459D01*
X143013828Y-103172457D01*
X143013827Y-103172456D01*
X142822959Y-103098513D01*
X142822960Y-103098513D01*
X142822957Y-103098512D01*
X142822956Y-103098512D01*
X142621747Y-103060900D01*
X142417053Y-103060900D01*
X142215844Y-103098512D01*
X142215839Y-103098513D01*
X142024977Y-103172454D01*
X142024966Y-103172459D01*
X141850936Y-103280214D01*
X141699666Y-103418115D01*
X141576313Y-103581463D01*
X141485071Y-103764701D01*
X141429054Y-103961580D01*
X141410168Y-104165395D01*
X141410168Y-104165404D01*
X139826800Y-104165404D01*
X139826800Y-101625404D01*
X141410168Y-101625404D01*
X141429054Y-101829219D01*
X141429055Y-101829221D01*
X141485072Y-102026101D01*
X141576312Y-102209335D01*
X141576313Y-102209336D01*
X141699666Y-102372684D01*
X141850936Y-102510585D01*
X142024966Y-102618340D01*
X142024968Y-102618340D01*
X142024973Y-102618344D01*
X142215844Y-102692288D01*
X142417053Y-102729900D01*
X142417055Y-102729900D01*
X142621745Y-102729900D01*
X142621747Y-102729900D01*
X142822956Y-102692288D01*
X143013827Y-102618344D01*
X143187862Y-102510586D01*
X143339132Y-102372685D01*
X143462488Y-102209335D01*
X143553728Y-102026101D01*
X143609745Y-101829221D01*
X143628632Y-101625400D01*
X143609745Y-101421579D01*
X143553728Y-101224699D01*
X143537476Y-101192062D01*
X143525019Y-101122168D01*
X143552326Y-101056633D01*
X143610729Y-101016265D01*
X143650268Y-101009900D01*
X143699470Y-101009900D01*
X143699471Y-101009900D01*
X143853793Y-100971863D01*
X143994529Y-100897999D01*
X144061446Y-100838714D01*
X144125699Y-100808514D01*
X144196080Y-100817845D01*
X144228552Y-100838714D01*
X144295471Y-100897999D01*
X144295472Y-100897999D01*
X144295474Y-100898001D01*
X144370200Y-100937220D01*
X144436207Y-100971863D01*
X144590529Y-101009900D01*
X144590530Y-101009900D01*
X144749470Y-101009900D01*
X144749471Y-101009900D01*
X144903793Y-100971863D01*
X145044529Y-100897999D01*
X145163498Y-100792601D01*
X145253787Y-100661795D01*
X145310149Y-100513182D01*
X145310149Y-100513181D01*
X145310150Y-100513179D01*
X145329307Y-100355403D01*
X145329307Y-100355396D01*
X145310150Y-100197620D01*
X145264914Y-100078345D01*
X145253787Y-100049005D01*
X145163498Y-99918199D01*
X145044529Y-99812801D01*
X145044528Y-99812800D01*
X145044525Y-99812798D01*
X144903797Y-99738939D01*
X144903795Y-99738938D01*
X144903793Y-99738937D01*
X144903791Y-99738936D01*
X144903790Y-99738936D01*
X144820347Y-99718369D01*
X144758992Y-99682645D01*
X144726691Y-99619422D01*
X144724501Y-99596030D01*
X144724501Y-99072828D01*
X144744503Y-99004707D01*
X144761406Y-98983733D01*
X150173766Y-93571373D01*
X150173772Y-93571367D01*
X150220442Y-93490531D01*
X150244601Y-93400370D01*
X150244601Y-93307028D01*
X150244601Y-88109994D01*
X150264603Y-88041873D01*
X150318259Y-87995380D01*
X150340444Y-87987655D01*
X150423993Y-87967063D01*
X150564729Y-87893199D01*
X150683698Y-87787801D01*
X150773987Y-87656995D01*
X150830349Y-87508382D01*
X150830349Y-87508381D01*
X150830350Y-87508379D01*
X150849507Y-87350603D01*
X150849507Y-87350596D01*
X150830349Y-87192818D01*
X150830349Y-87192816D01*
X150823888Y-87175779D01*
X150818434Y-87104993D01*
X150852117Y-87042495D01*
X150914242Y-87008128D01*
X150941700Y-87005100D01*
X151881970Y-87005100D01*
X151950091Y-87025102D01*
X151971065Y-87042005D01*
X152045723Y-87116663D01*
X152079749Y-87178975D01*
X152074684Y-87249790D01*
X152040182Y-87300070D01*
X151931901Y-87396000D01*
X151841615Y-87526801D01*
X151841612Y-87526807D01*
X151785249Y-87675420D01*
X151766093Y-87833196D01*
X151766093Y-87833203D01*
X151785249Y-87990979D01*
X151830387Y-88109994D01*
X151841613Y-88139595D01*
X151931902Y-88270401D01*
X152050871Y-88375799D01*
X152050872Y-88375799D01*
X152050874Y-88375801D01*
X152125600Y-88415020D01*
X152191607Y-88449663D01*
X152345929Y-88487700D01*
X152345930Y-88487700D01*
X152504870Y-88487700D01*
X152504871Y-88487700D01*
X152659193Y-88449663D01*
X152799929Y-88375799D01*
X152918898Y-88270401D01*
X153009187Y-88139595D01*
X153065549Y-87990982D01*
X153065549Y-87990981D01*
X153065550Y-87990979D01*
X153084707Y-87833203D01*
X153084707Y-87833196D01*
X153065549Y-87675418D01*
X153065549Y-87675416D01*
X153059088Y-87658379D01*
X153053634Y-87587593D01*
X153087317Y-87525095D01*
X153149442Y-87490728D01*
X153176900Y-87487700D01*
X154599729Y-87487700D01*
X155272101Y-87487700D01*
X155340222Y-87507702D01*
X155375796Y-87542123D01*
X155388783Y-87560938D01*
X155390443Y-87563342D01*
X155509412Y-87668740D01*
X155509413Y-87668740D01*
X155509415Y-87668742D01*
X155584141Y-87707961D01*
X155650148Y-87742604D01*
X155804470Y-87780641D01*
X155804471Y-87780641D01*
X155963411Y-87780641D01*
X155963412Y-87780641D01*
X156117734Y-87742604D01*
X156258470Y-87668740D01*
X156377439Y-87563342D01*
X156467728Y-87432536D01*
X156524090Y-87283923D01*
X156524090Y-87283922D01*
X156524091Y-87283920D01*
X156543248Y-87126144D01*
X156543248Y-87126137D01*
X156524091Y-86968361D01*
X156510479Y-86932472D01*
X156467728Y-86819746D01*
X156425199Y-86758132D01*
X156381182Y-86694362D01*
X156358946Y-86626937D01*
X156376693Y-86558194D01*
X156381173Y-86551223D01*
X156457134Y-86441174D01*
X156512291Y-86396476D01*
X156582860Y-86388693D01*
X156646434Y-86420298D01*
X156682829Y-86481256D01*
X156686291Y-86501126D01*
X156694454Y-86589219D01*
X156742514Y-86758132D01*
X156750472Y-86786101D01*
X156841712Y-86969335D01*
X156841713Y-86969336D01*
X156965066Y-87132684D01*
X157116336Y-87270585D01*
X157290366Y-87378340D01*
X157290368Y-87378340D01*
X157290373Y-87378344D01*
X157481244Y-87452288D01*
X157682453Y-87489900D01*
X157682455Y-87489900D01*
X157887145Y-87489900D01*
X157887147Y-87489900D01*
X158088356Y-87452288D01*
X158279227Y-87378344D01*
X158453262Y-87270586D01*
X158604532Y-87132685D01*
X158727888Y-86969335D01*
X158819128Y-86786101D01*
X158875145Y-86589221D01*
X158888864Y-86441176D01*
X158894032Y-86385404D01*
X158894032Y-86385395D01*
X158875145Y-86181580D01*
X158864784Y-86145165D01*
X158819128Y-85984699D01*
X158727888Y-85801465D01*
X158687338Y-85747768D01*
X158604533Y-85638115D01*
X158453263Y-85500214D01*
X158279233Y-85392459D01*
X158279228Y-85392457D01*
X158279227Y-85392456D01*
X158088359Y-85318513D01*
X158088360Y-85318513D01*
X158088357Y-85318512D01*
X158088356Y-85318512D01*
X157887147Y-85280900D01*
X157682453Y-85280900D01*
X157481244Y-85318512D01*
X157481239Y-85318513D01*
X157290377Y-85392454D01*
X157290366Y-85392459D01*
X157116336Y-85500214D01*
X156965066Y-85638115D01*
X156841712Y-85801464D01*
X156841711Y-85801465D01*
X156751279Y-85983076D01*
X156703010Y-86035139D01*
X156634256Y-86052841D01*
X156566845Y-86030561D01*
X156522181Y-85975374D01*
X156520677Y-85971593D01*
X156519454Y-85968367D01*
X156463092Y-85819754D01*
X156372803Y-85688948D01*
X156253834Y-85583550D01*
X156253833Y-85583549D01*
X156253830Y-85583547D01*
X156113102Y-85509688D01*
X156113100Y-85509687D01*
X156113098Y-85509686D01*
X156113096Y-85509685D01*
X156113095Y-85509685D01*
X155958777Y-85471649D01*
X155958776Y-85471649D01*
X155799834Y-85471649D01*
X155799832Y-85471649D01*
X155645514Y-85509685D01*
X155645507Y-85509688D01*
X155504779Y-85583547D01*
X155504774Y-85583551D01*
X155385806Y-85688949D01*
X155295520Y-85819750D01*
X155295517Y-85819756D01*
X155239154Y-85968369D01*
X155219998Y-86126145D01*
X155219998Y-86126152D01*
X155229706Y-86206110D01*
X155218061Y-86276145D01*
X155193723Y-86310390D01*
X155162322Y-86341793D01*
X155100011Y-86375820D01*
X155073224Y-86378700D01*
X152996867Y-86378700D01*
X152928746Y-86358698D01*
X152882253Y-86305042D01*
X152872149Y-86234768D01*
X152901643Y-86170188D01*
X152933222Y-86145165D01*
X152933058Y-86144927D01*
X152936664Y-86142437D01*
X152938309Y-86141133D01*
X152939329Y-86140599D01*
X153058298Y-86035201D01*
X153148587Y-85904395D01*
X153204949Y-85755782D01*
X153204949Y-85755781D01*
X153204950Y-85755779D01*
X153224107Y-85598003D01*
X153224107Y-85597996D01*
X153204950Y-85440220D01*
X153186834Y-85392454D01*
X153148587Y-85291605D01*
X153058298Y-85160799D01*
X152939329Y-85055401D01*
X152939328Y-85055400D01*
X152939325Y-85055398D01*
X152798597Y-84981539D01*
X152798595Y-84981538D01*
X152798593Y-84981537D01*
X152798591Y-84981536D01*
X152798590Y-84981536D01*
X152644272Y-84943500D01*
X152644271Y-84943500D01*
X152485329Y-84943500D01*
X152485327Y-84943500D01*
X152331009Y-84981536D01*
X152331002Y-84981539D01*
X152190274Y-85055398D01*
X152190269Y-85055402D01*
X152071301Y-85160800D01*
X151981015Y-85291601D01*
X151981012Y-85291607D01*
X151924649Y-85440220D01*
X151905493Y-85597996D01*
X151905493Y-85598003D01*
X151924545Y-85754913D01*
X151912900Y-85824948D01*
X151865240Y-85877569D01*
X151799464Y-85896100D01*
X148637694Y-85896100D01*
X148557064Y-85917704D01*
X148486089Y-85916015D01*
X148427293Y-85876221D01*
X148399345Y-85810957D01*
X148405133Y-85763675D01*
X148403126Y-85763181D01*
X148404949Y-85755781D01*
X148405055Y-85754913D01*
X148424107Y-85598000D01*
X148422353Y-85583551D01*
X148404950Y-85440220D01*
X148386834Y-85392454D01*
X148348587Y-85291605D01*
X148258298Y-85160799D01*
X148139329Y-85055401D01*
X148139328Y-85055400D01*
X148139325Y-85055398D01*
X147998597Y-84981539D01*
X147998595Y-84981538D01*
X147998593Y-84981537D01*
X147998591Y-84981536D01*
X147998590Y-84981536D01*
X147844272Y-84943500D01*
X147844271Y-84943500D01*
X147685329Y-84943500D01*
X147685327Y-84943500D01*
X147531009Y-84981536D01*
X147531002Y-84981539D01*
X147390274Y-85055398D01*
X147390269Y-85055402D01*
X147271301Y-85160800D01*
X147181015Y-85291601D01*
X147181012Y-85291607D01*
X147124649Y-85440220D01*
X147105493Y-85597996D01*
X147105493Y-85598003D01*
X147124649Y-85755779D01*
X147148913Y-85819756D01*
X147181013Y-85904395D01*
X147271302Y-86035201D01*
X147390271Y-86140599D01*
X147390272Y-86140599D01*
X147390274Y-86140601D01*
X147446648Y-86170188D01*
X147531007Y-86214463D01*
X147685329Y-86252500D01*
X147685330Y-86252500D01*
X147844270Y-86252500D01*
X147844271Y-86252500D01*
X147844272Y-86252499D01*
X147844278Y-86252499D01*
X147852457Y-86250483D01*
X147923385Y-86253600D01*
X147981368Y-86294570D01*
X148007997Y-86360384D01*
X147994816Y-86430146D01*
X147971707Y-86461916D01*
X147804607Y-86629015D01*
X147804608Y-86629016D01*
X147756331Y-86677293D01*
X147756326Y-86677299D01*
X147709659Y-86758130D01*
X147685500Y-86848289D01*
X147685500Y-87852909D01*
X147709658Y-87943065D01*
X147747225Y-88008135D01*
X147756326Y-88023899D01*
X147756328Y-88023901D01*
X147756329Y-88023903D01*
X148204996Y-88472570D01*
X148239020Y-88534881D01*
X148241900Y-88561664D01*
X148241900Y-90751971D01*
X148221898Y-90820092D01*
X148204999Y-90841061D01*
X147901457Y-91144604D01*
X147680650Y-91365411D01*
X147618338Y-91399436D01*
X147547522Y-91394371D01*
X147502460Y-91365410D01*
X147440723Y-91303673D01*
X147384677Y-91275117D01*
X147359455Y-91262266D01*
X147307842Y-91213519D01*
X147290776Y-91144604D01*
X147313677Y-91077402D01*
X147359455Y-91037734D01*
X147440723Y-90996326D01*
X147531326Y-90905723D01*
X147589498Y-90791555D01*
X147604500Y-90696834D01*
X147604500Y-90333166D01*
X147589498Y-90238445D01*
X147539591Y-90140498D01*
X147531326Y-90124276D01*
X147440723Y-90033673D01*
X147358906Y-89991986D01*
X147307291Y-89943238D01*
X147290225Y-89874323D01*
X147313126Y-89807121D01*
X147358907Y-89767452D01*
X147440422Y-89725918D01*
X147440426Y-89725915D01*
X147530915Y-89635426D01*
X147530917Y-89635423D01*
X147589016Y-89521399D01*
X147592564Y-89499001D01*
X147592563Y-89499000D01*
X145507437Y-89499000D01*
X145510983Y-89521393D01*
X145510986Y-89521402D01*
X145569081Y-89635421D01*
X145569084Y-89635426D01*
X145659575Y-89725917D01*
X145741093Y-89767452D01*
X145792708Y-89816200D01*
X145809774Y-89885115D01*
X145786873Y-89952317D01*
X145741093Y-89991986D01*
X145659277Y-90033673D01*
X145659274Y-90033675D01*
X145568673Y-90124276D01*
X145510501Y-90238446D01*
X145495500Y-90333167D01*
X145495500Y-90658301D01*
X145487312Y-90702982D01*
X145478118Y-90727221D01*
X145458962Y-90884997D01*
X145458962Y-90885004D01*
X145478118Y-91042780D01*
X145534481Y-91191393D01*
X145534486Y-91191403D01*
X145572259Y-91246127D01*
X145594495Y-91313551D01*
X145576747Y-91382294D01*
X145570506Y-91391753D01*
X145568678Y-91394269D01*
X145510501Y-91508446D01*
X145495500Y-91603167D01*
X145495500Y-91966832D01*
X145510501Y-92061554D01*
X145523676Y-92087412D01*
X145533113Y-92111996D01*
X145535258Y-92120000D01*
X145535259Y-92120003D01*
X145581926Y-92200834D01*
X145581934Y-92200844D01*
X145647925Y-92266835D01*
X145647930Y-92266839D01*
X145647932Y-92266841D01*
X145647933Y-92266842D01*
X145647935Y-92266843D01*
X145734584Y-92316870D01*
X145783577Y-92368253D01*
X145797013Y-92437966D01*
X145770627Y-92503877D01*
X145728788Y-92538255D01*
X145659279Y-92573671D01*
X145659274Y-92573675D01*
X145568673Y-92664276D01*
X145510501Y-92778446D01*
X145495500Y-92873167D01*
X145495500Y-93236832D01*
X145510501Y-93331553D01*
X145568673Y-93445723D01*
X145659276Y-93536326D01*
X145716361Y-93565412D01*
X145773445Y-93594498D01*
X145868166Y-93609500D01*
X145868168Y-93609500D01*
X147231832Y-93609500D01*
X147231834Y-93609500D01*
X147326555Y-93594498D01*
X147440723Y-93536326D01*
X147440725Y-93536324D01*
X147530645Y-93446405D01*
X147592957Y-93412379D01*
X147619740Y-93409500D01*
X147847171Y-93409500D01*
X147937332Y-93385341D01*
X148018168Y-93338671D01*
X148870505Y-92486333D01*
X148932816Y-92452310D01*
X149003631Y-92457374D01*
X149060467Y-92499921D01*
X149085278Y-92566441D01*
X149085599Y-92575430D01*
X149085599Y-92968272D01*
X149065597Y-93036393D01*
X149048694Y-93057367D01*
X143702331Y-98403730D01*
X143638498Y-98467563D01*
X143630488Y-98475573D01*
X143629224Y-98474309D01*
X143580044Y-98510209D01*
X143509173Y-98514420D01*
X143447275Y-98479647D01*
X143436887Y-98467563D01*
X143339133Y-98338115D01*
X143187863Y-98200214D01*
X143013833Y-98092459D01*
X143013828Y-98092457D01*
X143013827Y-98092456D01*
X142822959Y-98018513D01*
X142822960Y-98018513D01*
X142822957Y-98018512D01*
X142822956Y-98018512D01*
X142621747Y-97980900D01*
X142417053Y-97980900D01*
X142215844Y-98018512D01*
X142215839Y-98018513D01*
X142024977Y-98092454D01*
X142024966Y-98092459D01*
X141850936Y-98200214D01*
X141699666Y-98338115D01*
X141576313Y-98501463D01*
X141485071Y-98684701D01*
X141429054Y-98881580D01*
X141410168Y-99085395D01*
X141410168Y-99085404D01*
X141429054Y-99289219D01*
X141473301Y-99444730D01*
X141485072Y-99486101D01*
X141576312Y-99669335D01*
X141576313Y-99669336D01*
X141699666Y-99832684D01*
X141850936Y-99970585D01*
X142024966Y-100078340D01*
X142024968Y-100078340D01*
X142024973Y-100078344D01*
X142215844Y-100152288D01*
X142417053Y-100189900D01*
X142417055Y-100189900D01*
X142621745Y-100189900D01*
X142621747Y-100189900D01*
X142820177Y-100152807D01*
X142890811Y-100159952D01*
X142946371Y-100204151D01*
X142969216Y-100271372D01*
X142968409Y-100291848D01*
X142960693Y-100355399D01*
X142968409Y-100418951D01*
X142956762Y-100488986D01*
X142909101Y-100541607D01*
X142840557Y-100560107D01*
X142820175Y-100557992D01*
X142732521Y-100541607D01*
X142621747Y-100520900D01*
X142417053Y-100520900D01*
X142218626Y-100557992D01*
X142215839Y-100558513D01*
X142024977Y-100632454D01*
X142024966Y-100632459D01*
X141850936Y-100740214D01*
X141699666Y-100878115D01*
X141576313Y-101041463D01*
X141485071Y-101224701D01*
X141429054Y-101421580D01*
X141410168Y-101625395D01*
X141410168Y-101625404D01*
X139826800Y-101625404D01*
X139826800Y-96545404D01*
X141410168Y-96545404D01*
X141429054Y-96749219D01*
X141429055Y-96749221D01*
X141485072Y-96946101D01*
X141576312Y-97129335D01*
X141576313Y-97129336D01*
X141699666Y-97292684D01*
X141850936Y-97430585D01*
X142024966Y-97538340D01*
X142024968Y-97538340D01*
X142024973Y-97538344D01*
X142215844Y-97612288D01*
X142417053Y-97649900D01*
X142417055Y-97649900D01*
X142621745Y-97649900D01*
X142621747Y-97649900D01*
X142822956Y-97612288D01*
X143013827Y-97538344D01*
X143187862Y-97430586D01*
X143339132Y-97292685D01*
X143462488Y-97129335D01*
X143553728Y-96946101D01*
X143609745Y-96749221D01*
X143620719Y-96630797D01*
X143628632Y-96545404D01*
X143628632Y-96545395D01*
X143609745Y-96341580D01*
X143604313Y-96322489D01*
X143553728Y-96144699D01*
X143462488Y-95961465D01*
X143373230Y-95843268D01*
X143339133Y-95798115D01*
X143187863Y-95660214D01*
X143013833Y-95552459D01*
X143013828Y-95552457D01*
X143013827Y-95552456D01*
X142996125Y-95545598D01*
X142822959Y-95478513D01*
X142822960Y-95478513D01*
X142822957Y-95478512D01*
X142822956Y-95478512D01*
X142621747Y-95440900D01*
X142417053Y-95440900D01*
X142215844Y-95478512D01*
X142215839Y-95478513D01*
X142024977Y-95552454D01*
X142024966Y-95552459D01*
X141850936Y-95660214D01*
X141699666Y-95798115D01*
X141576313Y-95961463D01*
X141485071Y-96144701D01*
X141429054Y-96341580D01*
X141410168Y-96545395D01*
X141410168Y-96545404D01*
X139826800Y-96545404D01*
X139826800Y-94005404D01*
X141410168Y-94005404D01*
X141429054Y-94209219D01*
X141485071Y-94406098D01*
X141485072Y-94406101D01*
X141576312Y-94589335D01*
X141576313Y-94589336D01*
X141699666Y-94752684D01*
X141850936Y-94890585D01*
X142024966Y-94998340D01*
X142024968Y-94998340D01*
X142024973Y-94998344D01*
X142215844Y-95072288D01*
X142417053Y-95109900D01*
X142417055Y-95109900D01*
X142621745Y-95109900D01*
X142621747Y-95109900D01*
X142822956Y-95072288D01*
X143013827Y-94998344D01*
X143187862Y-94890586D01*
X143339132Y-94752685D01*
X143354852Y-94731869D01*
X143375319Y-94704766D01*
X143462488Y-94589335D01*
X143553728Y-94406101D01*
X143609745Y-94209221D01*
X143622423Y-94072402D01*
X143628632Y-94005404D01*
X143628632Y-94005395D01*
X143609745Y-93801580D01*
X143590944Y-93735500D01*
X143553728Y-93604699D01*
X143462488Y-93421465D01*
X143421938Y-93367768D01*
X143339133Y-93258115D01*
X143187863Y-93120214D01*
X143013833Y-93012459D01*
X143013828Y-93012457D01*
X143013827Y-93012456D01*
X143013822Y-93012454D01*
X142822959Y-92938513D01*
X142822960Y-92938513D01*
X142822957Y-92938512D01*
X142822956Y-92938512D01*
X142621747Y-92900900D01*
X142417053Y-92900900D01*
X142215844Y-92938512D01*
X142215839Y-92938513D01*
X142024977Y-93012454D01*
X142024966Y-93012459D01*
X141850936Y-93120214D01*
X141699666Y-93258115D01*
X141576313Y-93421463D01*
X141485071Y-93604701D01*
X141429054Y-93801580D01*
X141410168Y-94005395D01*
X141410168Y-94005404D01*
X139826800Y-94005404D01*
X139826800Y-91465404D01*
X141410168Y-91465404D01*
X141429054Y-91669219D01*
X141429055Y-91669221D01*
X141485072Y-91866101D01*
X141576312Y-92049335D01*
X141576313Y-92049336D01*
X141699666Y-92212684D01*
X141850936Y-92350585D01*
X142024966Y-92458340D01*
X142024968Y-92458340D01*
X142024973Y-92458344D01*
X142215844Y-92532288D01*
X142417053Y-92569900D01*
X142417055Y-92569900D01*
X142621745Y-92569900D01*
X142621747Y-92569900D01*
X142822956Y-92532288D01*
X143013827Y-92458344D01*
X143187862Y-92350586D01*
X143339132Y-92212685D01*
X143348079Y-92200838D01*
X143389961Y-92145376D01*
X143462488Y-92049335D01*
X143553728Y-91866101D01*
X143609745Y-91669221D01*
X143624643Y-91508446D01*
X143628632Y-91465404D01*
X143628632Y-91465395D01*
X143609745Y-91261580D01*
X143609745Y-91261579D01*
X143553728Y-91064699D01*
X143462488Y-90881465D01*
X143396641Y-90794269D01*
X143339133Y-90718115D01*
X143187863Y-90580214D01*
X143013833Y-90472459D01*
X143013828Y-90472457D01*
X143013827Y-90472456D01*
X142822959Y-90398513D01*
X142822960Y-90398513D01*
X142822957Y-90398512D01*
X142822956Y-90398512D01*
X142621747Y-90360900D01*
X142417053Y-90360900D01*
X142215844Y-90398512D01*
X142215839Y-90398513D01*
X142024977Y-90472454D01*
X142024966Y-90472459D01*
X141850936Y-90580214D01*
X141699666Y-90718115D01*
X141576313Y-90881463D01*
X141485071Y-91064701D01*
X141429054Y-91261580D01*
X141410168Y-91465395D01*
X141410168Y-91465404D01*
X139826800Y-91465404D01*
X139826800Y-88925404D01*
X141410168Y-88925404D01*
X141429054Y-89129219D01*
X141429055Y-89129221D01*
X141485072Y-89326101D01*
X141576312Y-89509335D01*
X141576313Y-89509336D01*
X141699666Y-89672684D01*
X141850936Y-89810585D01*
X142024966Y-89918340D01*
X142024968Y-89918340D01*
X142024973Y-89918344D01*
X142215844Y-89992288D01*
X142417053Y-90029900D01*
X142417055Y-90029900D01*
X142621745Y-90029900D01*
X142621747Y-90029900D01*
X142822956Y-89992288D01*
X143013827Y-89918344D01*
X143187862Y-89810586D01*
X143339132Y-89672685D01*
X143462488Y-89509335D01*
X143553728Y-89326101D01*
X143609745Y-89129221D01*
X143622553Y-88990999D01*
X143622553Y-88990998D01*
X145507435Y-88990998D01*
X145507437Y-88991000D01*
X146296000Y-88991000D01*
X146296000Y-88691000D01*
X146804000Y-88691000D01*
X146804000Y-88991000D01*
X147592563Y-88991000D01*
X147592563Y-88990999D01*
X147589016Y-88968606D01*
X147589013Y-88968597D01*
X147530918Y-88854578D01*
X147530915Y-88854573D01*
X147440424Y-88764082D01*
X147326400Y-88705984D01*
X147231792Y-88691000D01*
X146804000Y-88691000D01*
X146296000Y-88691000D01*
X145868207Y-88691000D01*
X145773602Y-88705983D01*
X145659575Y-88764082D01*
X145569084Y-88854573D01*
X145569082Y-88854576D01*
X145510983Y-88968600D01*
X145507435Y-88990998D01*
X143622553Y-88990998D01*
X143628632Y-88925404D01*
X143628632Y-88925395D01*
X143609745Y-88721580D01*
X143605308Y-88705984D01*
X143553728Y-88524699D01*
X143462488Y-88341465D01*
X143408822Y-88270399D01*
X143339133Y-88178115D01*
X143187863Y-88040214D01*
X143013833Y-87932459D01*
X143013828Y-87932457D01*
X143013827Y-87932456D01*
X143013822Y-87932454D01*
X142822959Y-87858513D01*
X142822960Y-87858513D01*
X142822957Y-87858512D01*
X142822956Y-87858512D01*
X142621747Y-87820900D01*
X142417053Y-87820900D01*
X142245834Y-87852906D01*
X142215839Y-87858513D01*
X142024977Y-87932454D01*
X142024966Y-87932459D01*
X141850936Y-88040214D01*
X141699666Y-88178115D01*
X141576313Y-88341463D01*
X141485071Y-88524701D01*
X141429054Y-88721580D01*
X141410168Y-88925395D01*
X141410168Y-88925404D01*
X139826800Y-88925404D01*
X139826800Y-86385404D01*
X141410168Y-86385404D01*
X141429054Y-86589219D01*
X141477114Y-86758132D01*
X141485072Y-86786101D01*
X141576312Y-86969335D01*
X141576313Y-86969336D01*
X141699666Y-87132684D01*
X141850936Y-87270585D01*
X142024966Y-87378340D01*
X142024968Y-87378340D01*
X142024973Y-87378344D01*
X142215844Y-87452288D01*
X142417053Y-87489900D01*
X142417055Y-87489900D01*
X142621745Y-87489900D01*
X142621747Y-87489900D01*
X142822956Y-87452288D01*
X143013827Y-87378344D01*
X143187862Y-87270586D01*
X143339132Y-87132685D01*
X143462488Y-86969335D01*
X143553728Y-86786101D01*
X143609745Y-86589221D01*
X143623464Y-86441176D01*
X143628632Y-86385404D01*
X143628632Y-86385395D01*
X143609745Y-86181580D01*
X143599384Y-86145165D01*
X143553728Y-85984699D01*
X143462488Y-85801465D01*
X143421938Y-85747768D01*
X143339133Y-85638115D01*
X143187863Y-85500214D01*
X143013833Y-85392459D01*
X143013828Y-85392457D01*
X143013827Y-85392456D01*
X142822959Y-85318513D01*
X142822960Y-85318513D01*
X142822957Y-85318512D01*
X142822956Y-85318512D01*
X142621747Y-85280900D01*
X142417053Y-85280900D01*
X142215844Y-85318512D01*
X142215839Y-85318513D01*
X142024977Y-85392454D01*
X142024966Y-85392459D01*
X141850936Y-85500214D01*
X141699666Y-85638115D01*
X141576313Y-85801463D01*
X141485071Y-85984701D01*
X141429054Y-86181580D01*
X141410168Y-86385395D01*
X141410168Y-86385404D01*
X139826800Y-86385404D01*
X139826800Y-83845404D01*
X141410168Y-83845404D01*
X141429054Y-84049219D01*
X141429055Y-84049221D01*
X141485072Y-84246101D01*
X141576312Y-84429335D01*
X141576313Y-84429336D01*
X141699666Y-84592684D01*
X141850936Y-84730585D01*
X142024966Y-84838340D01*
X142024968Y-84838340D01*
X142024973Y-84838344D01*
X142215844Y-84912288D01*
X142417053Y-84949900D01*
X142417055Y-84949900D01*
X142621745Y-84949900D01*
X142621747Y-84949900D01*
X142822956Y-84912288D01*
X143013827Y-84838344D01*
X143187862Y-84730586D01*
X143339132Y-84592685D01*
X143462488Y-84429335D01*
X143553728Y-84246101D01*
X143556291Y-84237094D01*
X145090800Y-84237094D01*
X145119776Y-84382764D01*
X145119778Y-84382769D01*
X145176614Y-84519982D01*
X145259127Y-84643472D01*
X145259132Y-84643479D01*
X145364150Y-84748497D01*
X145364157Y-84748502D01*
X145487646Y-84831015D01*
X145590800Y-84873742D01*
X145590800Y-84322890D01*
X145604740Y-84347035D01*
X145660595Y-84402890D01*
X145729004Y-84442386D01*
X145805304Y-84462830D01*
X145884296Y-84462830D01*
X145960596Y-84442386D01*
X146029005Y-84402890D01*
X146084860Y-84347035D01*
X146098800Y-84322890D01*
X146098800Y-84873742D01*
X146201953Y-84831015D01*
X146325442Y-84748502D01*
X146325449Y-84748497D01*
X146430467Y-84643479D01*
X146430472Y-84643472D01*
X146512985Y-84519982D01*
X146569821Y-84382769D01*
X146569823Y-84382764D01*
X146598799Y-84237094D01*
X146598800Y-84237090D01*
X146598800Y-83866830D01*
X146144800Y-83866830D01*
X146144800Y-83358830D01*
X146608340Y-83358830D01*
X146649632Y-83336282D01*
X146720448Y-83341345D01*
X146777285Y-83383891D01*
X146785537Y-83396402D01*
X146814282Y-83446191D01*
X146814290Y-83446201D01*
X146921428Y-83553339D01*
X146921433Y-83553343D01*
X146921435Y-83553345D01*
X147052665Y-83629111D01*
X147199034Y-83668330D01*
X147199036Y-83668330D01*
X147350564Y-83668330D01*
X147350566Y-83668330D01*
X147496935Y-83629111D01*
X147628165Y-83553345D01*
X147735315Y-83446195D01*
X147811081Y-83314965D01*
X147850300Y-83168596D01*
X152479300Y-83168596D01*
X152504183Y-83261463D01*
X152518518Y-83314962D01*
X152518521Y-83314969D01*
X152594282Y-83446191D01*
X152594290Y-83446201D01*
X152701428Y-83553339D01*
X152701433Y-83553343D01*
X152701435Y-83553345D01*
X152832665Y-83629111D01*
X152979034Y-83668330D01*
X152979036Y-83668330D01*
X153130564Y-83668330D01*
X153130566Y-83668330D01*
X153276935Y-83629111D01*
X153408165Y-83553345D01*
X153515315Y-83446195D01*
X153544063Y-83396401D01*
X153595443Y-83347410D01*
X153665156Y-83333972D01*
X153727250Y-83358830D01*
X154184800Y-83358830D01*
X154184800Y-83866830D01*
X153730800Y-83866830D01*
X153730800Y-84237094D01*
X153759776Y-84382764D01*
X153759778Y-84382769D01*
X153816614Y-84519982D01*
X153899127Y-84643472D01*
X153899132Y-84643479D01*
X154004150Y-84748497D01*
X154004157Y-84748502D01*
X154127646Y-84831015D01*
X154230800Y-84873742D01*
X154230800Y-84322890D01*
X154244740Y-84347035D01*
X154300595Y-84402890D01*
X154369004Y-84442386D01*
X154445304Y-84462830D01*
X154524296Y-84462830D01*
X154600596Y-84442386D01*
X154669005Y-84402890D01*
X154724860Y-84347035D01*
X154738800Y-84322890D01*
X154738800Y-84873742D01*
X154841953Y-84831015D01*
X154965442Y-84748502D01*
X154965449Y-84748497D01*
X155070467Y-84643479D01*
X155070472Y-84643472D01*
X155152985Y-84519982D01*
X155209821Y-84382769D01*
X155209823Y-84382764D01*
X155238799Y-84237094D01*
X155238800Y-84237090D01*
X155238800Y-83866830D01*
X154784800Y-83866830D01*
X154784800Y-83845404D01*
X156675568Y-83845404D01*
X156694454Y-84049219D01*
X156694455Y-84049221D01*
X156750472Y-84246101D01*
X156841712Y-84429335D01*
X156841713Y-84429336D01*
X156965066Y-84592684D01*
X157116336Y-84730585D01*
X157290366Y-84838340D01*
X157290368Y-84838340D01*
X157290373Y-84838344D01*
X157481244Y-84912288D01*
X157682453Y-84949900D01*
X157682455Y-84949900D01*
X157887145Y-84949900D01*
X157887147Y-84949900D01*
X158088356Y-84912288D01*
X158279227Y-84838344D01*
X158453262Y-84730586D01*
X158604532Y-84592685D01*
X158727888Y-84429335D01*
X158819128Y-84246101D01*
X158875145Y-84049221D01*
X158881440Y-83981280D01*
X158894032Y-83845404D01*
X158894032Y-83845395D01*
X158875145Y-83641580D01*
X158875145Y-83641579D01*
X158819128Y-83444699D01*
X158727888Y-83261465D01*
X158657757Y-83168596D01*
X158604533Y-83098115D01*
X158453263Y-82960214D01*
X158279233Y-82852459D01*
X158279228Y-82852457D01*
X158279227Y-82852456D01*
X158254547Y-82842895D01*
X158088359Y-82778513D01*
X158088360Y-82778513D01*
X158088357Y-82778512D01*
X158088356Y-82778512D01*
X157887147Y-82740900D01*
X157682453Y-82740900D01*
X157481244Y-82778512D01*
X157481239Y-82778513D01*
X157290377Y-82852454D01*
X157290366Y-82852459D01*
X157116336Y-82960214D01*
X156965066Y-83098115D01*
X156841713Y-83261463D01*
X156750471Y-83444701D01*
X156694454Y-83641580D01*
X156675568Y-83845395D01*
X156675568Y-83845404D01*
X154784800Y-83845404D01*
X154784800Y-83358830D01*
X155238800Y-83358830D01*
X155238800Y-82988569D01*
X155238799Y-82988565D01*
X155209823Y-82842895D01*
X155209821Y-82842890D01*
X155152985Y-82705677D01*
X155070472Y-82582187D01*
X155070467Y-82582180D01*
X154965449Y-82477162D01*
X154965442Y-82477157D01*
X154841954Y-82394645D01*
X154738800Y-82351916D01*
X154738800Y-82902769D01*
X154724860Y-82878625D01*
X154669005Y-82822770D01*
X154600596Y-82783274D01*
X154524296Y-82762830D01*
X154445304Y-82762830D01*
X154369004Y-82783274D01*
X154300595Y-82822770D01*
X154244740Y-82878625D01*
X154230800Y-82902769D01*
X154230800Y-82351916D01*
X154127645Y-82394645D01*
X154004157Y-82477157D01*
X154004150Y-82477162D01*
X153899132Y-82582180D01*
X153899127Y-82582187D01*
X153816613Y-82705677D01*
X153816611Y-82705682D01*
X153780376Y-82793159D01*
X153735827Y-82848440D01*
X153668464Y-82870860D01*
X153599673Y-82853301D01*
X153554849Y-82807940D01*
X153515317Y-82739468D01*
X153515316Y-82739466D01*
X153515315Y-82739465D01*
X153515313Y-82739463D01*
X153515309Y-82739458D01*
X153408171Y-82632320D01*
X153408161Y-82632312D01*
X153276939Y-82556551D01*
X153276936Y-82556550D01*
X153276935Y-82556549D01*
X153276933Y-82556548D01*
X153276932Y-82556548D01*
X153237711Y-82546039D01*
X153130566Y-82517330D01*
X152979034Y-82517330D01*
X152900598Y-82538346D01*
X152832667Y-82556548D01*
X152832660Y-82556551D01*
X152701438Y-82632312D01*
X152701428Y-82632320D01*
X152594290Y-82739458D01*
X152594282Y-82739468D01*
X152518521Y-82870690D01*
X152518518Y-82870697D01*
X152516394Y-82878625D01*
X152479300Y-83017064D01*
X152479300Y-83168596D01*
X147850300Y-83168596D01*
X147850300Y-83017064D01*
X147811081Y-82870695D01*
X147766315Y-82793158D01*
X147735317Y-82739468D01*
X147735316Y-82739466D01*
X147735315Y-82739465D01*
X147735313Y-82739463D01*
X147735309Y-82739458D01*
X147628171Y-82632320D01*
X147628161Y-82632312D01*
X147496939Y-82556551D01*
X147496936Y-82556550D01*
X147496935Y-82556549D01*
X147496933Y-82556548D01*
X147496932Y-82556548D01*
X147457711Y-82546039D01*
X147350566Y-82517330D01*
X147199034Y-82517330D01*
X147120598Y-82538346D01*
X147052667Y-82556548D01*
X147052660Y-82556551D01*
X146921438Y-82632312D01*
X146921428Y-82632320D01*
X146814290Y-82739458D01*
X146814284Y-82739466D01*
X146774750Y-82807941D01*
X146723367Y-82856934D01*
X146653653Y-82870369D01*
X146587742Y-82843982D01*
X146549222Y-82793158D01*
X146512985Y-82705677D01*
X146430472Y-82582187D01*
X146430467Y-82582180D01*
X146325449Y-82477162D01*
X146325442Y-82477157D01*
X146201954Y-82394645D01*
X146098800Y-82351916D01*
X146098800Y-82902769D01*
X146084860Y-82878625D01*
X146029005Y-82822770D01*
X145960596Y-82783274D01*
X145884296Y-82762830D01*
X145805304Y-82762830D01*
X145729004Y-82783274D01*
X145660595Y-82822770D01*
X145604740Y-82878625D01*
X145590800Y-82902769D01*
X145590800Y-82351916D01*
X145487645Y-82394645D01*
X145364157Y-82477157D01*
X145364150Y-82477162D01*
X145259132Y-82582180D01*
X145259127Y-82582187D01*
X145176614Y-82705677D01*
X145119778Y-82842890D01*
X145119776Y-82842895D01*
X145090800Y-82988565D01*
X145090800Y-83358830D01*
X145544800Y-83358830D01*
X145544800Y-83866830D01*
X145090800Y-83866830D01*
X145090800Y-84237094D01*
X143556291Y-84237094D01*
X143609745Y-84049221D01*
X143616040Y-83981280D01*
X143628632Y-83845404D01*
X143628632Y-83845395D01*
X143609745Y-83641580D01*
X143609745Y-83641579D01*
X143553728Y-83444699D01*
X143462488Y-83261465D01*
X143392357Y-83168596D01*
X143339133Y-83098115D01*
X143187863Y-82960214D01*
X143013833Y-82852459D01*
X143013828Y-82852457D01*
X143013827Y-82852456D01*
X142989147Y-82842895D01*
X142822959Y-82778513D01*
X142822960Y-82778513D01*
X142822957Y-82778512D01*
X142822956Y-82778512D01*
X142621747Y-82740900D01*
X142417053Y-82740900D01*
X142215844Y-82778512D01*
X142215839Y-82778513D01*
X142024977Y-82852454D01*
X142024966Y-82852459D01*
X141850936Y-82960214D01*
X141699666Y-83098115D01*
X141576313Y-83261463D01*
X141485071Y-83444701D01*
X141429054Y-83641580D01*
X141410168Y-83845395D01*
X141410168Y-83845404D01*
X139826800Y-83845404D01*
X139826800Y-81305404D01*
X141410168Y-81305404D01*
X141429054Y-81509219D01*
X141484901Y-81705499D01*
X141485072Y-81706101D01*
X141576312Y-81889335D01*
X141576313Y-81889336D01*
X141699666Y-82052684D01*
X141850936Y-82190585D01*
X142024966Y-82298340D01*
X142024968Y-82298340D01*
X142024973Y-82298344D01*
X142215844Y-82372288D01*
X142417053Y-82409900D01*
X142417055Y-82409900D01*
X142621745Y-82409900D01*
X142621747Y-82409900D01*
X142822956Y-82372288D01*
X143013827Y-82298344D01*
X143187862Y-82190586D01*
X143339132Y-82052685D01*
X143462488Y-81889335D01*
X143553728Y-81706101D01*
X143609745Y-81509221D01*
X143626212Y-81331515D01*
X143628632Y-81305404D01*
X143628632Y-81305395D01*
X143609745Y-81101580D01*
X143609745Y-81101579D01*
X143553728Y-80904699D01*
X143523573Y-80844139D01*
X147235166Y-80844139D01*
X147254322Y-81001915D01*
X147292121Y-81101579D01*
X147310686Y-81150531D01*
X147400975Y-81281337D01*
X147519944Y-81386735D01*
X147519945Y-81386735D01*
X147519947Y-81386737D01*
X147594673Y-81425956D01*
X147660680Y-81460599D01*
X147660681Y-81460599D01*
X147660683Y-81460600D01*
X147677156Y-81464660D01*
X147744126Y-81481166D01*
X147805480Y-81516889D01*
X147837781Y-81580112D01*
X147839972Y-81603505D01*
X147839972Y-81909746D01*
X147864131Y-81999905D01*
X147910798Y-82080736D01*
X147910806Y-82080746D01*
X148575225Y-82745165D01*
X148575230Y-82745169D01*
X148575232Y-82745171D01*
X148575233Y-82745172D01*
X148575235Y-82745173D01*
X148632981Y-82778512D01*
X148656068Y-82791841D01*
X148746229Y-82816000D01*
X149933076Y-82816000D01*
X150023237Y-82791841D01*
X150104073Y-82745171D01*
X150648071Y-82201173D01*
X150694741Y-82120337D01*
X150718900Y-82030176D01*
X150718900Y-81936834D01*
X150718900Y-81428396D01*
X150738902Y-81360275D01*
X150792558Y-81313782D01*
X150862832Y-81303678D01*
X150927412Y-81333172D01*
X150928404Y-81334040D01*
X150992471Y-81390799D01*
X150992472Y-81390799D01*
X150992474Y-81390801D01*
X151064106Y-81428396D01*
X151133207Y-81464663D01*
X151287529Y-81502700D01*
X151287530Y-81502700D01*
X151446470Y-81502700D01*
X151446471Y-81502700D01*
X151600793Y-81464663D01*
X151741529Y-81390799D01*
X151808446Y-81331514D01*
X151872699Y-81301314D01*
X151943080Y-81310645D01*
X151975552Y-81331514D01*
X152042471Y-81390799D01*
X152042472Y-81390799D01*
X152042474Y-81390801D01*
X152114106Y-81428396D01*
X152183207Y-81464663D01*
X152337529Y-81502700D01*
X152337530Y-81502700D01*
X152496470Y-81502700D01*
X152496471Y-81502700D01*
X152650793Y-81464663D01*
X152791529Y-81390799D01*
X152910498Y-81285401D01*
X153000787Y-81154595D01*
X153039924Y-81051399D01*
X156709250Y-81051399D01*
X156709251Y-81051400D01*
X157354097Y-81051400D01*
X157318875Y-81112407D01*
X157284800Y-81239574D01*
X157284800Y-81371226D01*
X157318875Y-81498393D01*
X157354097Y-81559400D01*
X156709251Y-81559400D01*
X156750938Y-81705914D01*
X156750940Y-81705919D01*
X156842140Y-81889072D01*
X156965437Y-82052346D01*
X157116638Y-82190184D01*
X157290596Y-82297893D01*
X157290603Y-82297896D01*
X157481382Y-82371805D01*
X157530799Y-82381042D01*
X157530800Y-82381042D01*
X157530800Y-81736102D01*
X157591807Y-81771325D01*
X157718974Y-81805400D01*
X157850626Y-81805400D01*
X157977793Y-81771325D01*
X158038800Y-81736102D01*
X158038800Y-82381042D01*
X158088217Y-82371805D01*
X158088218Y-82371805D01*
X158278996Y-82297896D01*
X158279003Y-82297893D01*
X158452961Y-82190184D01*
X158604162Y-82052346D01*
X158727459Y-81889072D01*
X158818659Y-81705919D01*
X158818661Y-81705914D01*
X158860349Y-81559400D01*
X158215503Y-81559400D01*
X158250725Y-81498393D01*
X158284800Y-81371226D01*
X158284800Y-81239574D01*
X158250725Y-81112407D01*
X158215503Y-81051400D01*
X158860349Y-81051400D01*
X158860349Y-81051399D01*
X158818661Y-80904885D01*
X158818659Y-80904880D01*
X158727459Y-80721727D01*
X158604162Y-80558453D01*
X158452961Y-80420615D01*
X158279003Y-80312906D01*
X158278996Y-80312903D01*
X158088224Y-80238996D01*
X158038800Y-80229757D01*
X158038800Y-80874697D01*
X157977793Y-80839475D01*
X157850626Y-80805400D01*
X157718974Y-80805400D01*
X157591807Y-80839475D01*
X157530800Y-80874697D01*
X157530800Y-80229757D01*
X157481375Y-80238996D01*
X157290603Y-80312903D01*
X157290596Y-80312906D01*
X157116638Y-80420615D01*
X156965437Y-80558453D01*
X156842140Y-80721727D01*
X156750940Y-80904880D01*
X156750938Y-80904885D01*
X156709250Y-81051399D01*
X153039924Y-81051399D01*
X153057149Y-81005982D01*
X153057149Y-81005981D01*
X153057150Y-81005979D01*
X153076307Y-80848203D01*
X153076307Y-80848196D01*
X153057150Y-80690420D01*
X153043538Y-80654531D01*
X153000787Y-80541805D01*
X152910498Y-80410999D01*
X152791529Y-80305601D01*
X152791528Y-80305600D01*
X152791525Y-80305598D01*
X152650797Y-80231739D01*
X152650795Y-80231738D01*
X152650793Y-80231737D01*
X152650791Y-80231736D01*
X152650790Y-80231736D01*
X152567347Y-80211169D01*
X152505992Y-80175445D01*
X152473691Y-80112222D01*
X152471501Y-80088830D01*
X152471501Y-79887094D01*
X153730800Y-79887094D01*
X153759776Y-80032764D01*
X153759778Y-80032769D01*
X153816614Y-80169982D01*
X153899127Y-80293472D01*
X153899132Y-80293479D01*
X154004150Y-80398497D01*
X154004157Y-80398502D01*
X154127646Y-80481015D01*
X154230800Y-80523742D01*
X154230800Y-79972890D01*
X154244740Y-79997035D01*
X154300595Y-80052890D01*
X154369004Y-80092386D01*
X154445304Y-80112830D01*
X154524296Y-80112830D01*
X154600596Y-80092386D01*
X154669005Y-80052890D01*
X154724860Y-79997035D01*
X154738800Y-79972890D01*
X154738800Y-80523742D01*
X154841953Y-80481015D01*
X154965442Y-80398502D01*
X154965449Y-80398497D01*
X155070467Y-80293479D01*
X155070472Y-80293472D01*
X155152985Y-80169982D01*
X155209821Y-80032769D01*
X155209823Y-80032764D01*
X155238799Y-79887094D01*
X155238800Y-79887090D01*
X155238800Y-79666830D01*
X154784800Y-79666830D01*
X154784800Y-79640463D01*
X156680300Y-79640463D01*
X156680301Y-79640473D01*
X156695065Y-79714700D01*
X156751316Y-79798884D01*
X156835497Y-79855133D01*
X156835499Y-79855134D01*
X156909733Y-79869900D01*
X158659866Y-79869899D01*
X158659869Y-79869898D01*
X158659873Y-79869898D01*
X158709126Y-79860101D01*
X158734101Y-79855134D01*
X158818284Y-79798884D01*
X158874534Y-79714701D01*
X158889300Y-79640467D01*
X158889299Y-77890334D01*
X158889298Y-77890330D01*
X158889298Y-77890326D01*
X158874534Y-77816099D01*
X158818283Y-77731915D01*
X158734102Y-77675666D01*
X158659867Y-77660900D01*
X156909736Y-77660900D01*
X156909726Y-77660901D01*
X156835499Y-77675665D01*
X156751315Y-77731916D01*
X156695066Y-77816097D01*
X156680300Y-77890330D01*
X156680300Y-79640463D01*
X154784800Y-79640463D01*
X154784800Y-79158830D01*
X155238800Y-79158830D01*
X155238800Y-78938569D01*
X155238799Y-78938565D01*
X155209823Y-78792895D01*
X155209821Y-78792890D01*
X155152985Y-78655677D01*
X155070472Y-78532187D01*
X155070467Y-78532180D01*
X154965449Y-78427162D01*
X154965442Y-78427157D01*
X154841954Y-78344645D01*
X154738800Y-78301916D01*
X154738800Y-78852769D01*
X154724860Y-78828625D01*
X154669005Y-78772770D01*
X154600596Y-78733274D01*
X154524296Y-78712830D01*
X154445304Y-78712830D01*
X154369004Y-78733274D01*
X154300595Y-78772770D01*
X154244740Y-78828625D01*
X154230800Y-78852769D01*
X154230800Y-78301916D01*
X154127645Y-78344645D01*
X154004157Y-78427157D01*
X154004150Y-78427162D01*
X153899132Y-78532180D01*
X153899127Y-78532187D01*
X153816614Y-78655677D01*
X153759778Y-78792890D01*
X153759776Y-78792895D01*
X153730800Y-78938565D01*
X153730800Y-79158830D01*
X154184800Y-79158830D01*
X154184800Y-79666830D01*
X153730800Y-79666830D01*
X153730800Y-79887094D01*
X152471501Y-79887094D01*
X152471501Y-79819330D01*
X152471500Y-79819326D01*
X152466022Y-79798883D01*
X152447342Y-79729169D01*
X152438989Y-79714701D01*
X152400674Y-79648336D01*
X152400670Y-79648331D01*
X152392802Y-79640463D01*
X152334669Y-79582330D01*
X151845001Y-79092662D01*
X151844999Y-79092661D01*
X151844997Y-79092659D01*
X151764166Y-79045992D01*
X151674007Y-79021833D01*
X151674004Y-79021833D01*
X150357396Y-79021833D01*
X150357392Y-79021833D01*
X150267233Y-79045992D01*
X150186402Y-79092659D01*
X150186397Y-79092663D01*
X150153397Y-79125664D01*
X150120396Y-79158665D01*
X150120394Y-79158667D01*
X149677035Y-79602025D01*
X149677034Y-79602024D01*
X149677033Y-79602025D01*
X149677034Y-79602026D01*
X149628757Y-79650303D01*
X149628752Y-79650309D01*
X149582085Y-79731140D01*
X149557926Y-79821299D01*
X149557926Y-80233245D01*
X149537924Y-80301366D01*
X149484268Y-80347859D01*
X149413994Y-80357963D01*
X149349414Y-80328469D01*
X149348372Y-80327557D01*
X149331324Y-80312454D01*
X149319002Y-80301537D01*
X149319001Y-80301536D01*
X149318998Y-80301534D01*
X149178270Y-80227675D01*
X149178268Y-80227674D01*
X149178266Y-80227673D01*
X149178264Y-80227672D01*
X149178263Y-80227672D01*
X149023945Y-80189636D01*
X149023944Y-80189636D01*
X148865002Y-80189636D01*
X148865000Y-80189636D01*
X148710682Y-80227672D01*
X148710675Y-80227675D01*
X148569947Y-80301534D01*
X148569942Y-80301538D01*
X148503027Y-80360821D01*
X148438774Y-80391022D01*
X148368393Y-80381691D01*
X148335919Y-80360821D01*
X148281324Y-80312454D01*
X148269002Y-80301537D01*
X148269001Y-80301536D01*
X148268998Y-80301534D01*
X148128270Y-80227675D01*
X148128268Y-80227674D01*
X148128266Y-80227673D01*
X148128264Y-80227672D01*
X148128263Y-80227672D01*
X147973945Y-80189636D01*
X147973944Y-80189636D01*
X147815002Y-80189636D01*
X147815000Y-80189636D01*
X147660682Y-80227672D01*
X147660675Y-80227675D01*
X147519947Y-80301534D01*
X147519942Y-80301538D01*
X147429469Y-80381691D01*
X147410500Y-80398497D01*
X147400974Y-80406936D01*
X147310688Y-80537737D01*
X147310685Y-80537743D01*
X147254322Y-80686356D01*
X147235166Y-80844132D01*
X147235166Y-80844139D01*
X143523573Y-80844139D01*
X143462488Y-80721465D01*
X143382817Y-80615963D01*
X143339133Y-80558115D01*
X143187863Y-80420214D01*
X143013833Y-80312459D01*
X143013828Y-80312457D01*
X143013827Y-80312456D01*
X142996125Y-80305598D01*
X142822959Y-80238513D01*
X142822960Y-80238513D01*
X142822957Y-80238512D01*
X142822956Y-80238512D01*
X142621747Y-80200900D01*
X142417053Y-80200900D01*
X142215844Y-80238512D01*
X142215839Y-80238513D01*
X142024977Y-80312454D01*
X142024966Y-80312459D01*
X141850936Y-80420214D01*
X141699666Y-80558115D01*
X141576313Y-80721463D01*
X141485071Y-80904701D01*
X141429054Y-81101580D01*
X141410168Y-81305395D01*
X141410168Y-81305404D01*
X139826800Y-81305404D01*
X139826800Y-79887094D01*
X145090800Y-79887094D01*
X145119776Y-80032764D01*
X145119778Y-80032769D01*
X145176614Y-80169982D01*
X145259127Y-80293472D01*
X145259132Y-80293479D01*
X145364150Y-80398497D01*
X145364157Y-80398502D01*
X145487646Y-80481015D01*
X145590800Y-80523742D01*
X145590800Y-79972890D01*
X145604740Y-79997035D01*
X145660595Y-80052890D01*
X145729004Y-80092386D01*
X145805304Y-80112830D01*
X145884296Y-80112830D01*
X145960596Y-80092386D01*
X146029005Y-80052890D01*
X146084860Y-79997035D01*
X146098800Y-79972890D01*
X146098800Y-80523742D01*
X146201953Y-80481015D01*
X146325442Y-80398502D01*
X146325449Y-80398497D01*
X146430467Y-80293479D01*
X146430472Y-80293472D01*
X146512985Y-80169982D01*
X146569821Y-80032769D01*
X146569823Y-80032764D01*
X146598799Y-79887094D01*
X146598800Y-79887090D01*
X146598800Y-79666830D01*
X146144800Y-79666830D01*
X146144800Y-79158830D01*
X146598800Y-79158830D01*
X146598800Y-78938569D01*
X146598799Y-78938565D01*
X146569823Y-78792895D01*
X146569821Y-78792890D01*
X146512985Y-78655677D01*
X146430472Y-78532187D01*
X146430467Y-78532180D01*
X146325449Y-78427162D01*
X146325442Y-78427157D01*
X146201954Y-78344645D01*
X146098800Y-78301916D01*
X146098800Y-78852769D01*
X146084860Y-78828625D01*
X146029005Y-78772770D01*
X145960596Y-78733274D01*
X145884296Y-78712830D01*
X145805304Y-78712830D01*
X145729004Y-78733274D01*
X145660595Y-78772770D01*
X145604740Y-78828625D01*
X145590800Y-78852769D01*
X145590800Y-78301916D01*
X145487645Y-78344645D01*
X145364157Y-78427157D01*
X145364150Y-78427162D01*
X145259132Y-78532180D01*
X145259127Y-78532187D01*
X145176614Y-78655677D01*
X145119778Y-78792890D01*
X145119776Y-78792895D01*
X145090800Y-78938565D01*
X145090800Y-79158830D01*
X145544800Y-79158830D01*
X145544800Y-79666830D01*
X145090800Y-79666830D01*
X145090800Y-79887094D01*
X139826800Y-79887094D01*
X139826800Y-79640463D01*
X141414900Y-79640463D01*
X141414901Y-79640473D01*
X141429665Y-79714700D01*
X141485916Y-79798884D01*
X141570097Y-79855133D01*
X141570099Y-79855134D01*
X141644333Y-79869900D01*
X143394466Y-79869899D01*
X143394469Y-79869898D01*
X143394473Y-79869898D01*
X143443726Y-79860101D01*
X143468701Y-79855134D01*
X143552884Y-79798884D01*
X143609134Y-79714701D01*
X143623900Y-79640467D01*
X143623899Y-77890334D01*
X143623898Y-77890330D01*
X143623898Y-77890326D01*
X143609134Y-77816099D01*
X143552883Y-77731915D01*
X143468702Y-77675666D01*
X143394467Y-77660900D01*
X141644336Y-77660900D01*
X141644326Y-77660901D01*
X141570099Y-77675665D01*
X141485915Y-77731916D01*
X141429666Y-77816097D01*
X141414900Y-77890330D01*
X141414900Y-79640463D01*
X139826800Y-79640463D01*
X139826800Y-77391400D01*
X139846802Y-77323279D01*
X139900458Y-77276786D01*
X139952800Y-77265400D01*
X160376800Y-77265400D01*
X160444921Y-77285402D01*
G37*
%TD.AperFunction*%
%TD*%
M02*
