M48
; DRILL file {KiCad 8.0.1} date 2024-05-13T17:31:09+0700
; FORMAT={-:-/ absolute / inch / decimal}
; #@! TF.CreationDate,2024-05-13T17:31:09+07:00
; #@! TF.GenerationSoftware,Kicad,Pcbnew,8.0.1
; #@! TF.FileFunction,Plated,1,4,PTH
FMAT,2
INCH
; #@! TA.AperFunction,Plated,PTH,ViaDrill
T1C0.0157
; #@! TA.AperFunction,Plated,PTH,ComponentDrill
T2C0.0236
; #@! TA.AperFunction,Plated,PTH,ComponentDrill
T3C0.0394
%
G90
G05
T1
X5.571Y-3.158
X5.579Y-3.251
X5.579Y-3.351
X5.579Y-3.451
X5.579Y-3.551
X5.579Y-3.651
X5.579Y-3.751
X5.579Y-3.851
X5.579Y-3.951
X5.579Y-4.051
X5.579Y-4.151
X5.579Y-4.251
X5.579Y-4.351
X5.579Y-4.451
X5.579Y-4.551
X5.579Y-4.651
X5.579Y-4.751
X5.579Y-4.851
X5.579Y-4.951
X5.6543Y-3.951
X5.662Y-5.031
X5.668Y-4.017
X5.6901Y-4.1433
X5.6957Y-3.951
X5.7139Y-4.1119
X5.7212Y-4.0688
X5.7527Y-3.5781
X5.7656Y-4.3155
X5.8175Y-3.37
X5.8226Y-3.1828
X5.864Y-3.1828
X5.865Y-4.151
X5.865Y-4.349
X5.87Y-3.898
X5.8717Y-3.439
X5.896Y-4.383
X5.908Y-3.783
X5.912Y-4.103
X5.912Y-4.199
X5.913Y-3.439
X5.935Y-3.899
X5.946Y-4.622
X5.955Y-3.439
X5.958Y-3.737
X5.959Y-4.151
X5.9593Y-3.183
X5.962Y-4.46
X5.9703Y-4.3457
X5.988Y-3.677
X5.992Y-4.623
X6.0007Y-3.183
X6.001Y-3.458
X6.0065Y-3.37
X6.014Y-3.824
X6.017Y-3.725
X6.042Y-4.72
X6.0745Y-4.329
X6.104Y-4.896
X6.1234Y-4.2253
X6.137Y-3.3908
X6.1372Y-3.4302
X6.142Y-4.375
X6.152Y-4.993
X6.244Y-3.251
X6.244Y-3.351
X6.244Y-3.451
X6.244Y-3.551
X6.244Y-3.651
X6.244Y-3.751
X6.244Y-3.851
X6.244Y-3.951
X6.244Y-4.051
X6.244Y-4.151
X6.244Y-4.251
X6.244Y-4.351
X6.244Y-4.451
X6.244Y-4.551
X6.244Y-4.651
X6.244Y-4.751
X6.244Y-4.851
X6.244Y-4.951
X6.253Y-3.159
T3
X5.611Y-3.101
X5.611Y-3.201
X5.611Y-3.301
X5.611Y-3.401
X5.611Y-3.501
X5.611Y-3.601
X5.611Y-3.701
X5.611Y-3.801
X5.611Y-3.901
X5.611Y-4.001
X5.611Y-4.101
X5.611Y-4.201
X5.611Y-4.301
X5.611Y-4.401
X5.611Y-4.501
X5.611Y-4.601
X5.611Y-4.701
X5.611Y-4.801
X5.611Y-4.901
X5.611Y-5.001
X5.762Y-5.0049
X5.862Y-5.0049
X5.962Y-5.0049
X6.062Y-5.0049
X6.212Y-3.101
X6.212Y-3.201
X6.212Y-3.301
X6.212Y-3.401
X6.212Y-3.501
X6.212Y-3.601
X6.212Y-3.701
X6.212Y-3.801
X6.212Y-3.901
X6.212Y-4.001
X6.212Y-4.101
X6.212Y-4.201
X6.212Y-4.301
X6.212Y-4.401
X6.212Y-4.501
X6.212Y-4.601
X6.212Y-4.701
X6.212Y-4.801
X6.212Y-4.901
X6.212Y-5.001
T2
G00X5.7419Y-3.1422
M15
G01X5.7419Y-3.1107
M16
G05
G00X5.7419Y-3.3135
M15
G01X5.7419Y-3.2702
M16
G05
G00X6.0821Y-3.1422
M15
G01X6.0821Y-3.1107
M16
G05
G00X6.0821Y-3.3135
M15
G01X6.0821Y-3.2702
M16
G05
M30
