%TF.GenerationSoftware,KiCad,Pcbnew,6.0.11-2627ca5db0~126~ubuntu20.04.1*%
%TF.CreationDate,2023-02-28T16:59:55+07:00*%
%TF.ProjectId,Bluepill-USB-C,426c7565-7069-46c6-9c2d-5553422d432e,rev?*%
%TF.SameCoordinates,Original*%
%TF.FileFunction,Soldermask,Top*%
%TF.FilePolarity,Negative*%
%FSLAX46Y46*%
G04 Gerber Fmt 4.6, Leading zero omitted, Abs format (unit mm)*
G04 Created by KiCad (PCBNEW 6.0.11-2627ca5db0~126~ubuntu20.04.1) date 2023-02-28 16:59:55*
%MOMM*%
%LPD*%
G01*
G04 APERTURE LIST*
G04 Aperture macros list*
%AMRoundRect*
0 Rectangle with rounded corners*
0 $1 Rounding radius*
0 $2 $3 $4 $5 $6 $7 $8 $9 X,Y pos of 4 corners*
0 Add a 4 corners polygon primitive as box body*
4,1,4,$2,$3,$4,$5,$6,$7,$8,$9,$2,$3,0*
0 Add four circle primitives for the rounded corners*
1,1,$1+$1,$2,$3*
1,1,$1+$1,$4,$5*
1,1,$1+$1,$6,$7*
1,1,$1+$1,$8,$9*
0 Add four rect primitives between the rounded corners*
20,1,$1+$1,$2,$3,$4,$5,0*
20,1,$1+$1,$4,$5,$6,$7,0*
20,1,$1+$1,$6,$7,$8,$9,0*
20,1,$1+$1,$8,$9,$2,$3,0*%
G04 Aperture macros list end*
%ADD10R,0.450000X0.600000*%
%ADD11RoundRect,0.140000X-0.140000X-0.170000X0.140000X-0.170000X0.140000X0.170000X-0.140000X0.170000X0*%
%ADD12RoundRect,0.135000X0.185000X-0.135000X0.185000X0.135000X-0.185000X0.135000X-0.185000X-0.135000X0*%
%ADD13C,1.500000*%
%ADD14RoundRect,0.375000X0.375000X-1.125000X0.375000X1.125000X-0.375000X1.125000X-0.375000X-1.125000X0*%
%ADD15RoundRect,0.135000X-0.185000X0.135000X-0.185000X-0.135000X0.185000X-0.135000X0.185000X0.135000X0*%
%ADD16RoundRect,0.140000X0.021213X-0.219203X0.219203X-0.021213X-0.021213X0.219203X-0.219203X0.021213X0*%
%ADD17RoundRect,0.147500X-0.172500X0.147500X-0.172500X-0.147500X0.172500X-0.147500X0.172500X0.147500X0*%
%ADD18RoundRect,0.140000X0.140000X0.170000X-0.140000X0.170000X-0.140000X-0.170000X0.140000X-0.170000X0*%
%ADD19R,1.000000X0.900000*%
%ADD20RoundRect,0.140000X-0.170000X0.140000X-0.170000X-0.140000X0.170000X-0.140000X0.170000X0.140000X0*%
%ADD21RoundRect,0.075000X0.521491X-0.415425X-0.415425X0.521491X-0.521491X0.415425X0.415425X-0.521491X0*%
%ADD22RoundRect,0.075000X0.521491X0.415425X0.415425X0.521491X-0.521491X-0.415425X-0.415425X-0.521491X0*%
%ADD23R,1.400000X1.200000*%
%ADD24RoundRect,0.243750X-0.456250X0.243750X-0.456250X-0.243750X0.456250X-0.243750X0.456250X0.243750X0*%
%ADD25RoundRect,0.140000X0.170000X-0.140000X0.170000X0.140000X-0.170000X0.140000X-0.170000X-0.140000X0*%
%ADD26RoundRect,0.375000X-1.125000X-0.375000X1.125000X-0.375000X1.125000X0.375000X-1.125000X0.375000X0*%
%ADD27C,0.650000*%
%ADD28R,0.600000X1.240000*%
%ADD29R,0.300000X1.240000*%
%ADD30O,1.000000X1.800000*%
%ADD31O,1.000000X2.100000*%
%ADD32RoundRect,0.135000X0.135000X0.185000X-0.135000X0.185000X-0.135000X-0.185000X0.135000X-0.185000X0*%
%ADD33RoundRect,0.140000X-0.021213X0.219203X-0.219203X0.021213X0.021213X-0.219203X0.219203X-0.021213X0*%
%ADD34R,1.000000X1.800000*%
%ADD35RoundRect,0.140000X0.219203X0.021213X0.021213X0.219203X-0.219203X-0.021213X-0.021213X-0.219203X0*%
%ADD36RoundRect,0.375000X1.125000X0.375000X-1.125000X0.375000X-1.125000X-0.375000X1.125000X-0.375000X0*%
%ADD37RoundRect,0.150000X0.512500X0.150000X-0.512500X0.150000X-0.512500X-0.150000X0.512500X-0.150000X0*%
%ADD38RoundRect,0.225000X0.250000X-0.225000X0.250000X0.225000X-0.250000X0.225000X-0.250000X-0.225000X0*%
%ADD39RoundRect,0.150000X0.150000X-0.587500X0.150000X0.587500X-0.150000X0.587500X-0.150000X-0.587500X0*%
%ADD40RoundRect,0.135000X-0.135000X-0.185000X0.135000X-0.185000X0.135000X0.185000X-0.135000X0.185000X0*%
%ADD41RoundRect,0.225000X-0.250000X0.225000X-0.250000X-0.225000X0.250000X-0.225000X0.250000X0.225000X0*%
G04 APERTURE END LIST*
D10*
%TO.C,D1*%
X154152600Y-89950000D03*
X154152600Y-87850000D03*
%TD*%
D11*
%TO.C,C9*%
X152191200Y-118323200D03*
X153151200Y-118323200D03*
%TD*%
D12*
%TO.C,R9*%
X155250000Y-97660000D03*
X155250000Y-96640000D03*
%TD*%
D13*
%TO.C,J2*%
X146354800Y-128524000D03*
D14*
X146354800Y-127824000D03*
X148894800Y-127824000D03*
D13*
X148894800Y-128524000D03*
X151434800Y-128524000D03*
D14*
X151434800Y-127824000D03*
D13*
X153974800Y-128524000D03*
D14*
X153974800Y-127824000D03*
%TD*%
D15*
%TO.C,R6*%
X148550000Y-96640000D03*
X148550000Y-97660000D03*
%TD*%
D16*
%TO.C,C10*%
X143710589Y-102189411D03*
X144389411Y-101510589D03*
%TD*%
D17*
%TO.C,FB1*%
X156250000Y-109365000D03*
X156250000Y-110335000D03*
%TD*%
D18*
%TO.C,C2*%
X155730000Y-111650000D03*
X154770000Y-111650000D03*
%TD*%
D19*
%TO.C,SW3*%
X149500000Y-118300000D03*
X149500000Y-122400000D03*
X147900000Y-118300000D03*
X147900000Y-122400000D03*
%TD*%
D20*
%TO.C,C5*%
X149650000Y-96670000D03*
X149650000Y-97630000D03*
%TD*%
D21*
%TO.C,U3*%
X151163588Y-109337876D03*
X151517142Y-108984322D03*
X151870695Y-108630769D03*
X152224249Y-108277215D03*
X152577802Y-107923662D03*
X152931355Y-107570109D03*
X153284909Y-107216555D03*
X153638462Y-106863002D03*
X153992015Y-106509449D03*
X154345569Y-106155895D03*
X154699122Y-105802342D03*
X155052676Y-105448788D03*
D22*
X155052676Y-103451212D03*
X154699122Y-103097658D03*
X154345569Y-102744105D03*
X153992015Y-102390551D03*
X153638462Y-102036998D03*
X153284909Y-101683445D03*
X152931355Y-101329891D03*
X152577802Y-100976338D03*
X152224249Y-100622785D03*
X151870695Y-100269231D03*
X151517142Y-99915678D03*
X151163588Y-99562124D03*
D21*
X149166012Y-99562124D03*
X148812458Y-99915678D03*
X148458905Y-100269231D03*
X148105351Y-100622785D03*
X147751798Y-100976338D03*
X147398245Y-101329891D03*
X147044691Y-101683445D03*
X146691138Y-102036998D03*
X146337585Y-102390551D03*
X145984031Y-102744105D03*
X145630478Y-103097658D03*
X145276924Y-103451212D03*
D22*
X145276924Y-105448788D03*
X145630478Y-105802342D03*
X145984031Y-106155895D03*
X146337585Y-106509449D03*
X146691138Y-106863002D03*
X147044691Y-107216555D03*
X147398245Y-107570109D03*
X147751798Y-107923662D03*
X148105351Y-108277215D03*
X148458905Y-108630769D03*
X148812458Y-108984322D03*
X149166012Y-109337876D03*
%TD*%
D23*
%TO.C,Y2*%
X153010000Y-114732000D03*
X155210000Y-114732000D03*
X155210000Y-113032000D03*
X153010000Y-113032000D03*
%TD*%
D19*
%TO.C,SW1*%
X147364800Y-95400000D03*
X147364800Y-91300000D03*
X148964800Y-95400000D03*
X148964800Y-91300000D03*
%TD*%
D24*
%TO.C,D3*%
X154971200Y-118935700D03*
X154971200Y-120810700D03*
%TD*%
D25*
%TO.C,C11*%
X151850000Y-97630000D03*
X151850000Y-96670000D03*
%TD*%
D19*
%TO.C,SW2*%
X151364800Y-95400000D03*
X151364800Y-91300000D03*
X152964800Y-95400000D03*
X152964800Y-91300000D03*
%TD*%
D15*
%TO.C,R5*%
X150750000Y-96640000D03*
X150750000Y-97660000D03*
%TD*%
D26*
%TO.C,J3*%
X140574800Y-78765400D03*
D13*
X139824800Y-78765400D03*
X139824800Y-81305400D03*
D26*
X140574800Y-81305400D03*
X140574800Y-83845400D03*
D13*
X139824800Y-83845400D03*
X139824800Y-86385400D03*
D26*
X140574800Y-86385400D03*
X140574800Y-88925400D03*
D13*
X139824800Y-88925400D03*
D26*
X140574800Y-91465400D03*
D13*
X139824800Y-91465400D03*
D26*
X140574800Y-94005400D03*
D13*
X139824800Y-94005400D03*
X139824800Y-96545400D03*
D26*
X140574800Y-96545400D03*
D13*
X139824800Y-99085400D03*
D26*
X140574800Y-99085400D03*
X140574800Y-101625400D03*
D13*
X139824800Y-101625400D03*
X139824800Y-104165400D03*
D26*
X140574800Y-104165400D03*
X140574800Y-106705400D03*
D13*
X139824800Y-106705400D03*
X139824800Y-109245400D03*
D26*
X140574800Y-109245400D03*
X140574800Y-111785400D03*
D13*
X139824800Y-111785400D03*
X139824800Y-114325400D03*
D26*
X140574800Y-114325400D03*
X140574800Y-116865400D03*
D13*
X139824800Y-116865400D03*
X139824800Y-119405400D03*
D26*
X140574800Y-119405400D03*
X140574800Y-121945400D03*
D13*
X139824800Y-121945400D03*
X139824800Y-124485400D03*
D26*
X140574800Y-124485400D03*
D13*
X139824800Y-127025400D03*
D26*
X140574800Y-127025400D03*
%TD*%
D27*
%TO.C,J1*%
X153054800Y-83092830D03*
X147274800Y-83092830D03*
D28*
X153364800Y-84212830D03*
X152564800Y-84212830D03*
D29*
X151414800Y-84212830D03*
X150414800Y-84212830D03*
X149914800Y-84212830D03*
X148914800Y-84212830D03*
D28*
X147764800Y-84212830D03*
X146964800Y-84212830D03*
X146964800Y-84212830D03*
X147764800Y-84212830D03*
D29*
X148414800Y-84212830D03*
X149414800Y-84212830D03*
X150914800Y-84212830D03*
X151914800Y-84212830D03*
D28*
X152564800Y-84212830D03*
X153364800Y-84212830D03*
D30*
X145844800Y-79412830D03*
D31*
X145844800Y-83612830D03*
D30*
X154484800Y-79412830D03*
D31*
X154484800Y-83612830D03*
%TD*%
D12*
%TO.C,R2*%
X144750000Y-81960000D03*
X144750000Y-80940000D03*
%TD*%
D15*
%TO.C,R8*%
X154971200Y-122163200D03*
X154971200Y-123183200D03*
%TD*%
D32*
%TO.C,R3*%
X149710000Y-86050000D03*
X148690000Y-86050000D03*
%TD*%
D33*
%TO.C,C13*%
X155689411Y-108360589D03*
X155010589Y-109039411D03*
%TD*%
D18*
%TO.C,C4*%
X150830000Y-113250000D03*
X149870000Y-113250000D03*
%TD*%
D34*
%TO.C,Y1*%
X150650000Y-114950000D03*
X148150000Y-114950000D03*
%TD*%
D35*
%TO.C,C12*%
X147939411Y-111389411D03*
X147260589Y-110710589D03*
%TD*%
D24*
%TO.C,D2*%
X145821200Y-118935700D03*
X145821200Y-120810700D03*
%TD*%
D15*
%TO.C,R7*%
X145821200Y-122163200D03*
X145821200Y-123183200D03*
%TD*%
D13*
%TO.C,J4*%
X160504800Y-127025400D03*
D36*
X159754800Y-127025400D03*
X159754800Y-124485400D03*
D13*
X160504800Y-124485400D03*
D36*
X159754800Y-121945400D03*
D13*
X160504800Y-121945400D03*
D36*
X159754800Y-119405400D03*
D13*
X160504800Y-119405400D03*
X160504800Y-116865400D03*
D36*
X159754800Y-116865400D03*
X159754800Y-114325400D03*
D13*
X160504800Y-114325400D03*
D36*
X159754800Y-111785400D03*
D13*
X160504800Y-111785400D03*
D36*
X159754800Y-109245400D03*
D13*
X160504800Y-109245400D03*
D36*
X159754800Y-106705400D03*
D13*
X160504800Y-106705400D03*
D36*
X159754800Y-104165400D03*
D13*
X160504800Y-104165400D03*
X160504800Y-101625400D03*
D36*
X159754800Y-101625400D03*
D13*
X160504800Y-99085400D03*
D36*
X159754800Y-99085400D03*
D13*
X160504800Y-96545400D03*
D36*
X159754800Y-96545400D03*
X159754800Y-94005400D03*
D13*
X160504800Y-94005400D03*
X160504800Y-91465400D03*
D36*
X159754800Y-91465400D03*
X159754800Y-88925400D03*
D13*
X160504800Y-88925400D03*
D36*
X159754800Y-86385400D03*
D13*
X160504800Y-86385400D03*
X160504800Y-83845400D03*
D36*
X159754800Y-83845400D03*
D13*
X160504800Y-81305400D03*
D36*
X159754800Y-81305400D03*
D13*
X160504800Y-78765400D03*
D36*
X159754800Y-78765400D03*
%TD*%
D37*
%TO.C,U1*%
X150187500Y-89850000D03*
X150187500Y-88900000D03*
X150187500Y-87950000D03*
X147912500Y-87950000D03*
X147912500Y-89850000D03*
%TD*%
D12*
%TO.C,R1*%
X155550000Y-81960000D03*
X155550000Y-80940000D03*
%TD*%
D38*
%TO.C,C7*%
X146150000Y-89675000D03*
X146150000Y-88125000D03*
%TD*%
D39*
%TO.C,D4*%
X151221200Y-121910700D03*
X153121200Y-121910700D03*
X152171200Y-120035700D03*
%TD*%
D15*
%TO.C,R10*%
X151021200Y-118313200D03*
X151021200Y-119333200D03*
%TD*%
D11*
%TO.C,C3*%
X147920000Y-113250000D03*
X148880000Y-113250000D03*
%TD*%
%TO.C,C1*%
X152540000Y-111650000D03*
X153500000Y-111650000D03*
%TD*%
D40*
%TO.C,R4*%
X150640000Y-86050000D03*
X151660000Y-86050000D03*
%TD*%
D41*
%TO.C,C6*%
X152450000Y-88125000D03*
X152450000Y-89675000D03*
%TD*%
M02*
