%TF.GenerationSoftware,KiCad,Pcbnew,6.0.11-2627ca5db0~126~ubuntu20.04.1*%
%TF.CreationDate,2023-02-28T16:59:55+07:00*%
%TF.ProjectId,Bluepill-USB-C,426c7565-7069-46c6-9c2d-5553422d432e,rev?*%
%TF.SameCoordinates,Original*%
%TF.FileFunction,Soldermask,Bot*%
%TF.FilePolarity,Negative*%
%FSLAX46Y46*%
G04 Gerber Fmt 4.6, Leading zero omitted, Abs format (unit mm)*
G04 Created by KiCad (PCBNEW 6.0.11-2627ca5db0~126~ubuntu20.04.1) date 2023-02-28 16:59:55*
%MOMM*%
%LPD*%
G01*
G04 APERTURE LIST*
G04 Aperture macros list*
%AMRoundRect*
0 Rectangle with rounded corners*
0 $1 Rounding radius*
0 $2 $3 $4 $5 $6 $7 $8 $9 X,Y pos of 4 corners*
0 Add a 4 corners polygon primitive as box body*
4,1,4,$2,$3,$4,$5,$6,$7,$8,$9,$2,$3,0*
0 Add four circle primitives for the rounded corners*
1,1,$1+$1,$2,$3*
1,1,$1+$1,$4,$5*
1,1,$1+$1,$6,$7*
1,1,$1+$1,$8,$9*
0 Add four rect primitives between the rounded corners*
20,1,$1+$1,$2,$3,$4,$5,0*
20,1,$1+$1,$4,$5,$6,$7,0*
20,1,$1+$1,$6,$7,$8,$9,0*
20,1,$1+$1,$8,$9,$2,$3,0*%
G04 Aperture macros list end*
%ADD10C,1.500000*%
%ADD11RoundRect,0.375000X0.375000X-1.125000X0.375000X1.125000X-0.375000X1.125000X-0.375000X-1.125000X0*%
%ADD12RoundRect,0.375000X-1.125000X-0.375000X1.125000X-0.375000X1.125000X0.375000X-1.125000X0.375000X0*%
%ADD13C,0.650000*%
%ADD14O,1.000000X1.800000*%
%ADD15O,1.000000X2.100000*%
%ADD16RoundRect,0.375000X1.125000X0.375000X-1.125000X0.375000X-1.125000X-0.375000X1.125000X-0.375000X0*%
%ADD17RoundRect,0.140000X0.170000X-0.140000X0.170000X0.140000X-0.170000X0.140000X-0.170000X-0.140000X0*%
%ADD18RoundRect,0.150000X-0.650000X-0.150000X0.650000X-0.150000X0.650000X0.150000X-0.650000X0.150000X0*%
G04 APERTURE END LIST*
D10*
%TO.C,J2*%
X146354800Y-128524000D03*
D11*
X146354800Y-127824000D03*
X148894800Y-127824000D03*
D10*
X148894800Y-128524000D03*
X151434800Y-128524000D03*
D11*
X151434800Y-127824000D03*
D10*
X153974800Y-128524000D03*
D11*
X153974800Y-127824000D03*
%TD*%
D12*
%TO.C,J3*%
X140574800Y-78765400D03*
D10*
X139824800Y-78765400D03*
X139824800Y-81305400D03*
D12*
X140574800Y-81305400D03*
X140574800Y-83845400D03*
D10*
X139824800Y-83845400D03*
X139824800Y-86385400D03*
D12*
X140574800Y-86385400D03*
X140574800Y-88925400D03*
D10*
X139824800Y-88925400D03*
D12*
X140574800Y-91465400D03*
D10*
X139824800Y-91465400D03*
D12*
X140574800Y-94005400D03*
D10*
X139824800Y-94005400D03*
X139824800Y-96545400D03*
D12*
X140574800Y-96545400D03*
D10*
X139824800Y-99085400D03*
D12*
X140574800Y-99085400D03*
X140574800Y-101625400D03*
D10*
X139824800Y-101625400D03*
X139824800Y-104165400D03*
D12*
X140574800Y-104165400D03*
X140574800Y-106705400D03*
D10*
X139824800Y-106705400D03*
X139824800Y-109245400D03*
D12*
X140574800Y-109245400D03*
X140574800Y-111785400D03*
D10*
X139824800Y-111785400D03*
X139824800Y-114325400D03*
D12*
X140574800Y-114325400D03*
X140574800Y-116865400D03*
D10*
X139824800Y-116865400D03*
X139824800Y-119405400D03*
D12*
X140574800Y-119405400D03*
X140574800Y-121945400D03*
D10*
X139824800Y-121945400D03*
X139824800Y-124485400D03*
D12*
X140574800Y-124485400D03*
D10*
X139824800Y-127025400D03*
D12*
X140574800Y-127025400D03*
%TD*%
D13*
%TO.C,J1*%
X153054800Y-83092830D03*
X147274800Y-83092830D03*
D14*
X145844800Y-79412830D03*
D15*
X145844800Y-83612830D03*
D14*
X154484800Y-79412830D03*
D15*
X154484800Y-83612830D03*
%TD*%
D10*
%TO.C,J4*%
X160504800Y-127025400D03*
D16*
X159754800Y-127025400D03*
X159754800Y-124485400D03*
D10*
X160504800Y-124485400D03*
D16*
X159754800Y-121945400D03*
D10*
X160504800Y-121945400D03*
D16*
X159754800Y-119405400D03*
D10*
X160504800Y-119405400D03*
X160504800Y-116865400D03*
D16*
X159754800Y-116865400D03*
X159754800Y-114325400D03*
D10*
X160504800Y-114325400D03*
D16*
X159754800Y-111785400D03*
D10*
X160504800Y-111785400D03*
D16*
X159754800Y-109245400D03*
D10*
X160504800Y-109245400D03*
D16*
X159754800Y-106705400D03*
D10*
X160504800Y-106705400D03*
D16*
X159754800Y-104165400D03*
D10*
X160504800Y-104165400D03*
X160504800Y-101625400D03*
D16*
X159754800Y-101625400D03*
D10*
X160504800Y-99085400D03*
D16*
X159754800Y-99085400D03*
D10*
X160504800Y-96545400D03*
D16*
X159754800Y-96545400D03*
X159754800Y-94005400D03*
D10*
X160504800Y-94005400D03*
X160504800Y-91465400D03*
D16*
X159754800Y-91465400D03*
X159754800Y-88925400D03*
D10*
X160504800Y-88925400D03*
D16*
X159754800Y-86385400D03*
D10*
X160504800Y-86385400D03*
X160504800Y-83845400D03*
D16*
X159754800Y-83845400D03*
D10*
X160504800Y-81305400D03*
D16*
X159754800Y-81305400D03*
D10*
X160504800Y-78765400D03*
D16*
X159754800Y-78765400D03*
%TD*%
D17*
%TO.C,C8*%
X153750000Y-95580000D03*
X153750000Y-94620000D03*
%TD*%
D18*
%TO.C,U2*%
X146550000Y-93055000D03*
X146550000Y-91785000D03*
X146550000Y-90515000D03*
X146550000Y-89245000D03*
X153750000Y-89245000D03*
X153750000Y-90515000D03*
X153750000Y-91785000D03*
X153750000Y-93055000D03*
%TD*%
M02*
